<?xml version="1.0" encoding="utf-8" standalone="no"?>
<!DOCTYPE svg PUBLIC "-//W3C//DTD SVG 1.1//EN"
  "http://www.w3.org/Graphics/SVG/1.1/DTD/svg11.dtd">
<svg xmlns:xlink="http://www.w3.org/1999/xlink" width="396.231414pt" height="296.367677pt" viewBox="0 0 396.231414 296.367677" xmlns="http://www.w3.org/2000/svg" version="1.1">
 <metadata>
  <rdf:RDF xmlns:dc="http://purl.org/dc/elements/1.1/" xmlns:cc="http://creativecommons.org/ns#" xmlns:rdf="http://www.w3.org/1999/02/22-rdf-syntax-ns#">
   <cc:Work>
    <dc:type rdf:resource="http://purl.org/dc/dcmitype/StillImage"/>
    <dc:date>2026-03-26T17:59:43.754042</dc:date>
    <dc:format>image/svg+xml</dc:format>
    <dc:creator>
     <cc:Agent>
      <dc:title>Matplotlib v3.10.7, https://matplotlib.org/</dc:title>
     </cc:Agent>
    </dc:creator>
   </cc:Work>
  </rdf:RDF>
 </metadata>
 <defs>
  <style type="text/css">*{stroke-linejoin: round; stroke-linecap: butt}</style>
 </defs>
 <g id="figure_1">
  <g id="patch_1">
   <path d="M 0 296.367677 
L 396.231414 296.367677 
L 396.231414 0 
L 0 0 
z
" style="fill: #ffffff"/>
  </g>
  <g id="axes_1">
   <g id="patch_2">
    <path d="M 31.911414 273.312 
L 389.031414 273.312 
L 389.031414 7.2 
L 31.911414 7.2 
z
" style="fill: #ffffff"/>
   </g>
   <g id="matplotlib.axis_1">
    <g id="xtick_1">
     <g id="line2d_1">
      <defs>
       <path id="m039e678a4d" d="M 0 0 
L 0 3.5 
" style="stroke: #000000; stroke-width: 0.8"/>
      </defs>
      <g>
       <use xlink:href="#m039e678a4d" x="48.144142" y="273.312" style="stroke: #000000; stroke-width: 0.8"/>
      </g>
     </g>
     <g id="text_1">
      <!-- $\mathdefault{0}$ -->
      <g transform="translate(45.653474 287.230498) scale(0.1 -0.1)">
       <defs>
        <path id="CMR17-30" d="M 2688 2025 
C 2688 2416 2682 3080 2413 3591 
C 2176 4039 1798 4198 1466 4198 
C 1158 4198 768 4058 525 3597 
C 269 3118 243 2524 243 2025 
C 243 1661 250 1106 448 619 
C 723 -39 1216 -128 1466 -128 
C 1760 -128 2208 -7 2470 600 
C 2662 1042 2688 1559 2688 2025 
z
M 1466 -26 
C 1056 -26 813 325 723 812 
C 653 1188 653 1738 653 2096 
C 653 2588 653 2997 736 3387 
C 858 3929 1216 4096 1466 4096 
C 1728 4096 2067 3923 2189 3400 
C 2272 3036 2278 2607 2278 2096 
C 2278 1680 2278 1169 2202 792 
C 2067 95 1690 -26 1466 -26 
z
" transform="scale(0.015625)"/>
       </defs>
       <use xlink:href="#CMR17-30" transform="scale(0.996264)"/>
      </g>
     </g>
    </g>
    <g id="xtick_2">
     <g id="line2d_2">
      <g>
       <use xlink:href="#m039e678a4d" x="113.401337" y="273.312" style="stroke: #000000; stroke-width: 0.8"/>
      </g>
     </g>
     <g id="text_2">
      <!-- $\mathdefault{200}$ -->
      <g transform="translate(105.929334 287.230498) scale(0.1 -0.1)">
       <defs>
        <path id="CMR17-32" d="M 2669 989 
L 2554 989 
C 2490 536 2438 459 2413 420 
C 2381 369 1920 369 1830 369 
L 602 369 
C 832 619 1280 1072 1824 1597 
C 2214 1967 2669 2402 2669 3035 
C 2669 3790 2067 4224 1395 4224 
C 691 4224 262 3604 262 3030 
C 262 2780 448 2748 525 2748 
C 589 2748 781 2787 781 3010 
C 781 3207 614 3264 525 3264 
C 486 3264 448 3258 422 3245 
C 544 3790 915 4058 1306 4058 
C 1862 4058 2227 3617 2227 3035 
C 2227 2479 1901 2000 1536 1584 
L 262 146 
L 262 0 
L 2515 0 
L 2669 989 
z
" transform="scale(0.015625)"/>
       </defs>
       <use xlink:href="#CMR17-32" transform="scale(0.996264)"/>
       <use xlink:href="#CMR17-30" transform="translate(45.690477 0) scale(0.996264)"/>
       <use xlink:href="#CMR17-30" transform="translate(91.380954 0) scale(0.996264)"/>
      </g>
     </g>
    </g>
    <g id="xtick_3">
     <g id="line2d_3">
      <g>
       <use xlink:href="#m039e678a4d" x="178.658532" y="273.312" style="stroke: #000000; stroke-width: 0.8"/>
      </g>
     </g>
     <g id="text_3">
      <!-- $\mathdefault{400}$ -->
      <g transform="translate(171.186529 287.230498) scale(0.1 -0.1)">
       <defs>
        <path id="CMR17-34" d="M 2150 4122 
C 2150 4256 2144 4256 2029 4256 
L 128 1254 
L 128 1088 
L 1779 1088 
L 1779 457 
C 1779 224 1766 160 1318 160 
L 1197 160 
L 1197 0 
C 1402 0 1747 0 1965 0 
C 2182 0 2528 0 2733 0 
L 2733 160 
L 2611 160 
C 2163 160 2150 224 2150 457 
L 2150 1088 
L 2803 1088 
L 2803 1254 
L 2150 1254 
L 2150 4122 
z
M 1798 3703 
L 1798 1254 
L 256 1254 
L 1798 3703 
z
" transform="scale(0.015625)"/>
       </defs>
       <use xlink:href="#CMR17-34" transform="scale(0.996264)"/>
       <use xlink:href="#CMR17-30" transform="translate(45.690477 0) scale(0.996264)"/>
       <use xlink:href="#CMR17-30" transform="translate(91.380954 0) scale(0.996264)"/>
      </g>
     </g>
    </g>
    <g id="xtick_4">
     <g id="line2d_4">
      <g>
       <use xlink:href="#m039e678a4d" x="243.915727" y="273.312" style="stroke: #000000; stroke-width: 0.8"/>
      </g>
     </g>
     <g id="text_4">
      <!-- $\mathdefault{600}$ -->
      <g transform="translate(236.443724 287.230498) scale(0.1 -0.1)">
       <defs>
        <path id="CMR17-36" d="M 678 2176 
C 678 3690 1395 4032 1811 4032 
C 1946 4032 2272 4009 2400 3776 
C 2298 3776 2106 3776 2106 3553 
C 2106 3381 2246 3323 2336 3323 
C 2394 3323 2566 3348 2566 3560 
C 2566 3954 2246 4179 1805 4179 
C 1043 4179 243 3390 243 1984 
C 243 253 966 -128 1478 -128 
C 2099 -128 2688 427 2688 1283 
C 2688 2081 2170 2662 1517 2662 
C 1126 2662 838 2407 678 1960 
L 678 2176 
z
M 1478 25 
C 691 25 691 1200 691 1436 
C 691 1896 909 2560 1504 2560 
C 1613 2560 1926 2560 2138 2120 
C 2253 1870 2253 1609 2253 1289 
C 2253 944 2253 690 2118 434 
C 1978 171 1773 25 1478 25 
z
" transform="scale(0.015625)"/>
       </defs>
       <use xlink:href="#CMR17-36" transform="scale(0.996264)"/>
       <use xlink:href="#CMR17-30" transform="translate(45.690477 0) scale(0.996264)"/>
       <use xlink:href="#CMR17-30" transform="translate(91.380954 0) scale(0.996264)"/>
      </g>
     </g>
    </g>
    <g id="xtick_5">
     <g id="line2d_5">
      <g>
       <use xlink:href="#m039e678a4d" x="309.172922" y="273.312" style="stroke: #000000; stroke-width: 0.8"/>
      </g>
     </g>
     <g id="text_5">
      <!-- $\mathdefault{800}$ -->
      <g transform="translate(301.700919 287.230498) scale(0.1 -0.1)">
       <defs>
        <path id="CMR17-38" d="M 1741 2264 
C 2144 2467 2554 2773 2554 3263 
C 2554 3841 1990 4179 1472 4179 
C 890 4179 378 3759 378 3180 
C 378 3021 416 2747 666 2505 
C 730 2442 998 2251 1171 2130 
C 883 1983 211 1634 211 934 
C 211 279 838 -128 1459 -128 
C 2144 -128 2720 362 2720 1010 
C 2720 1590 2330 1857 2074 2029 
L 1741 2264 
z
M 902 2822 
C 851 2854 595 3051 595 3351 
C 595 3739 998 4032 1459 4032 
C 1965 4032 2336 3676 2336 3262 
C 2336 2669 1670 2331 1638 2331 
C 1632 2331 1626 2331 1574 2370 
L 902 2822 
z
M 2080 1519 
C 2176 1449 2483 1240 2483 851 
C 2483 381 2010 25 1472 25 
C 890 25 448 438 448 940 
C 448 1443 838 1862 1280 2060 
L 2080 1519 
z
" transform="scale(0.015625)"/>
       </defs>
       <use xlink:href="#CMR17-38" transform="scale(0.996264)"/>
       <use xlink:href="#CMR17-30" transform="translate(45.690477 0) scale(0.996264)"/>
       <use xlink:href="#CMR17-30" transform="translate(91.380954 0) scale(0.996264)"/>
      </g>
     </g>
    </g>
    <g id="xtick_6">
     <g id="line2d_6">
      <g>
       <use xlink:href="#m039e678a4d" x="374.430117" y="273.312" style="stroke: #000000; stroke-width: 0.8"/>
      </g>
     </g>
     <g id="text_6">
      <!-- $\mathdefault{1000}$ -->
      <g transform="translate(364.467446 287.230498) scale(0.1 -0.1)">
       <defs>
        <path id="CMR17-31" d="M 1702 4058 
C 1702 4192 1696 4192 1606 4192 
C 1357 3916 979 3827 621 3827 
C 602 3827 570 3827 563 3808 
C 557 3795 557 3782 557 3648 
C 755 3648 1088 3686 1344 3839 
L 1344 461 
C 1344 236 1331 160 781 160 
L 589 160 
L 589 0 
C 896 0 1216 0 1523 0 
C 1830 0 2150 0 2458 0 
L 2458 160 
L 2266 160 
C 1715 160 1702 230 1702 458 
L 1702 4058 
z
" transform="scale(0.015625)"/>
       </defs>
       <use xlink:href="#CMR17-31" transform="scale(0.996264)"/>
       <use xlink:href="#CMR17-30" transform="translate(45.690477 0) scale(0.996264)"/>
       <use xlink:href="#CMR17-30" transform="translate(91.380954 0) scale(0.996264)"/>
       <use xlink:href="#CMR17-30" transform="translate(137.071431 0) scale(0.996264)"/>
      </g>
     </g>
    </g>
   </g>
   <g id="matplotlib.axis_2">
    <g id="ytick_1">
     <g id="line2d_7">
      <defs>
       <path id="m6002c0037a" d="M 0 0 
L -3.5 0 
" style="stroke: #000000; stroke-width: 0.8"/>
      </defs>
      <g>
       <use xlink:href="#m6002c0037a" x="31.911414" y="246.0259" style="stroke: #000000; stroke-width: 0.8"/>
      </g>
     </g>
     <g id="text_7">
      <!-- $\mathdefault{18.4}$ -->
      <g transform="translate(7.2 249.485149) scale(0.1 -0.1)">
       <defs>
        <path id="CMMI12-3a" d="M 1178 307 
C 1178 492 1024 619 870 619 
C 685 619 557 466 557 313 
C 557 128 710 0 864 0 
C 1050 0 1178 153 1178 307 
z
" transform="scale(0.015625)"/>
       </defs>
       <use xlink:href="#CMR17-31" transform="scale(0.996264)"/>
       <use xlink:href="#CMR17-38" transform="translate(45.690477 0) scale(0.996264)"/>
       <use xlink:href="#CMMI12-3a" transform="translate(91.380954 0) scale(0.996264)"/>
       <use xlink:href="#CMR17-34" transform="translate(118.478131 0) scale(0.996264)"/>
      </g>
     </g>
    </g>
    <g id="ytick_2">
     <g id="line2d_8">
      <g>
       <use xlink:href="#m6002c0037a" x="31.911414" y="214.529465" style="stroke: #000000; stroke-width: 0.8"/>
      </g>
     </g>
     <g id="text_8">
      <!-- $\mathdefault{18.6}$ -->
      <g transform="translate(7.2 217.988714) scale(0.1 -0.1)">
       <use xlink:href="#CMR17-31" transform="scale(0.996264)"/>
       <use xlink:href="#CMR17-38" transform="translate(45.690477 0) scale(0.996264)"/>
       <use xlink:href="#CMMI12-3a" transform="translate(91.380954 0) scale(0.996264)"/>
       <use xlink:href="#CMR17-36" transform="translate(118.478131 0) scale(0.996264)"/>
      </g>
     </g>
    </g>
    <g id="ytick_3">
     <g id="line2d_9">
      <g>
       <use xlink:href="#m6002c0037a" x="31.911414" y="183.03303" style="stroke: #000000; stroke-width: 0.8"/>
      </g>
     </g>
     <g id="text_9">
      <!-- $\mathdefault{18.8}$ -->
      <g transform="translate(7.2 186.492279) scale(0.1 -0.1)">
       <use xlink:href="#CMR17-31" transform="scale(0.996264)"/>
       <use xlink:href="#CMR17-38" transform="translate(45.690477 0) scale(0.996264)"/>
       <use xlink:href="#CMMI12-3a" transform="translate(91.380954 0) scale(0.996264)"/>
       <use xlink:href="#CMR17-38" transform="translate(118.478131 0) scale(0.996264)"/>
      </g>
     </g>
    </g>
    <g id="ytick_4">
     <g id="line2d_10">
      <g>
       <use xlink:href="#m6002c0037a" x="31.911414" y="151.536595" style="stroke: #000000; stroke-width: 0.8"/>
      </g>
     </g>
     <g id="text_10">
      <!-- $\mathdefault{19.0}$ -->
      <g transform="translate(7.2 154.995844) scale(0.1 -0.1)">
       <defs>
        <path id="CMR17-39" d="M 2253 1864 
C 2253 464 1670 31 1190 31 
C 1043 31 685 31 538 294 
C 704 268 826 357 826 518 
C 826 692 685 749 595 749 
C 538 749 365 723 365 506 
C 365 71 742 -128 1203 -128 
C 1939 -128 2688 674 2688 2073 
C 2688 3817 1971 4179 1485 4179 
C 851 4179 243 3628 243 2778 
C 243 1991 762 1408 1414 1408 
C 1952 1408 2189 1903 2253 2112 
L 2253 1864 
z
M 1427 1510 
C 1254 1510 1011 1542 813 1922 
C 678 2169 678 2461 678 2771 
C 678 3146 678 3405 858 3684 
C 947 3817 1114 4032 1485 4032 
C 2240 4032 2240 2885 2240 2632 
C 2240 2182 2035 1510 1427 1510 
z
" transform="scale(0.015625)"/>
       </defs>
       <use xlink:href="#CMR17-31" transform="scale(0.996264)"/>
       <use xlink:href="#CMR17-39" transform="translate(45.690477 0) scale(0.996264)"/>
       <use xlink:href="#CMMI12-3a" transform="translate(91.380954 0) scale(0.996264)"/>
       <use xlink:href="#CMR17-30" transform="translate(118.478131 0) scale(0.996264)"/>
      </g>
     </g>
    </g>
    <g id="ytick_5">
     <g id="line2d_11">
      <g>
       <use xlink:href="#m6002c0037a" x="31.911414" y="120.04016" style="stroke: #000000; stroke-width: 0.8"/>
      </g>
     </g>
     <g id="text_11">
      <!-- $\mathdefault{19.2}$ -->
      <g transform="translate(7.2 123.499409) scale(0.1 -0.1)">
       <use xlink:href="#CMR17-31" transform="scale(0.996264)"/>
       <use xlink:href="#CMR17-39" transform="translate(45.690477 0) scale(0.996264)"/>
       <use xlink:href="#CMMI12-3a" transform="translate(91.380954 0) scale(0.996264)"/>
       <use xlink:href="#CMR17-32" transform="translate(118.478131 0) scale(0.996264)"/>
      </g>
     </g>
    </g>
    <g id="ytick_6">
     <g id="line2d_12">
      <g>
       <use xlink:href="#m6002c0037a" x="31.911414" y="88.543725" style="stroke: #000000; stroke-width: 0.8"/>
      </g>
     </g>
     <g id="text_12">
      <!-- $\mathdefault{19.4}$ -->
      <g transform="translate(7.2 92.002974) scale(0.1 -0.1)">
       <use xlink:href="#CMR17-31" transform="scale(0.996264)"/>
       <use xlink:href="#CMR17-39" transform="translate(45.690477 0) scale(0.996264)"/>
       <use xlink:href="#CMMI12-3a" transform="translate(91.380954 0) scale(0.996264)"/>
       <use xlink:href="#CMR17-34" transform="translate(118.478131 0) scale(0.996264)"/>
      </g>
     </g>
    </g>
    <g id="ytick_7">
     <g id="line2d_13">
      <g>
       <use xlink:href="#m6002c0037a" x="31.911414" y="57.04729" style="stroke: #000000; stroke-width: 0.8"/>
      </g>
     </g>
     <g id="text_13">
      <!-- $\mathdefault{19.6}$ -->
      <g transform="translate(7.2 60.506539) scale(0.1 -0.1)">
       <use xlink:href="#CMR17-31" transform="scale(0.996264)"/>
       <use xlink:href="#CMR17-39" transform="translate(45.690477 0) scale(0.996264)"/>
       <use xlink:href="#CMMI12-3a" transform="translate(91.380954 0) scale(0.996264)"/>
       <use xlink:href="#CMR17-36" transform="translate(118.478131 0) scale(0.996264)"/>
      </g>
     </g>
    </g>
    <g id="ytick_8">
     <g id="line2d_14">
      <g>
       <use xlink:href="#m6002c0037a" x="31.911414" y="25.550854" style="stroke: #000000; stroke-width: 0.8"/>
      </g>
     </g>
     <g id="text_14">
      <!-- $\mathdefault{19.8}$ -->
      <g transform="translate(7.2 29.010104) scale(0.1 -0.1)">
       <use xlink:href="#CMR17-31" transform="scale(0.996264)"/>
       <use xlink:href="#CMR17-39" transform="translate(45.690477 0) scale(0.996264)"/>
       <use xlink:href="#CMMI12-3a" transform="translate(91.380954 0) scale(0.996264)"/>
       <use xlink:href="#CMR17-38" transform="translate(118.478131 0) scale(0.996264)"/>
      </g>
     </g>
    </g>
   </g>
   <g id="line2d_15">
    <path d="M 48.144142 151.06549 
L 49.122999 151.001526 
L 49.775571 150.760372 
L 50.428143 150.323218 
L 51.407001 149.339703 
L 53.364717 146.708403 
L 54.996147 144.380532 
L 57.932721 140.65415 
L 60.216723 137.91038 
L 62.174438 136.057171 
L 65.763584 133.704052 
L 67.068728 133.017705 
L 67.7213 132.587729 
L 70.331588 131.38441 
L 73.920734 129.968552 
L 76.531021 129.211383 
L 78.162451 128.590851 
L 78.488737 128.580058 
L 78.815023 128.304858 
L 79.793881 128.097035 
L 80.772739 127.687834 
L 81.099025 127.669529 
L 81.425311 127.461679 
L 81.751597 127.405323 
L 82.404169 127.166155 
L 83.383027 126.795473 
L 83.709313 126.852027 
L 84.035599 126.599295 
L 85.667029 126.236385 
L 85.993315 126.120422 
L 86.645887 126.076875 
L 87.298459 125.834047 
L 87.624745 125.970209 
L 87.95103 125.82128 
L 91.866462 125.74489 
L 92.519034 125.811544 
L 93.824178 125.982837 
L 94.47675 126.066987 
L 94.803036 126.187502 
L 95.129322 126.133132 
L 95.455608 126.270473 
L 96.10818 126.29194 
L 97.413324 126.613565 
L 98.718468 126.581563 
L 99.044754 126.700291 
L 99.37104 126.62039 
L 100.349898 126.722006 
L 101.00247 126.705552 
L 104.917901 126.642706 
L 105.570473 126.622619 
L 106.223045 126.525368 
L 106.549331 126.62482 
L 107.854475 126.437152 
L 108.507047 126.510337 
L 108.833333 126.396707 
L 109.485905 126.483269 
L 110.138477 126.367862 
L 111.117335 126.351436 
L 112.096193 126.244228 
L 112.748765 126.193923 
L 114.380194 126.016638 
L 115.032766 125.998171 
L 116.33791 125.748692 
L 116.990482 125.786957 
L 117.316768 125.651262 
L 117.96934 125.613823 
L 119.274484 125.356624 
L 119.927056 125.534259 
L 120.579628 125.354216 
L 123.189916 125.365987 
L 123.516202 125.245358 
L 124.49506 125.275547 
L 129.389349 125.292271 
L 129.715635 125.347829 
L 130.041921 125.220444 
L 131.020779 125.248363 
L 131.347065 125.411949 
L 131.999637 125.199588 
L 132.325923 125.384417 
L 132.652209 125.199324 
L 133.957353 125.261719 
L 134.283639 125.351168 
L 135.588783 125.237802 
L 135.915069 125.345253 
L 136.893927 125.279203 
L 137.546499 125.280654 
L 139.830501 125.349445 
L 140.156787 125.366351 
L 140.483073 125.187814 
L 144.072218 125.299705 
L 144.398504 125.20219 
L 145.051076 125.282191 
L 147.335078 125.289119 
L 147.661364 125.140577 
L 147.98765 125.243622 
L 149.292794 125.29588 
L 149.61908 125.331731 
L 149.945366 125.206671 
L 150.924224 125.270104 
L 161.039089 125.269918 
L 161.365375 125.188379 
L 161.691661 125.329816 
L 162.344233 125.22722 
L 162.670519 125.359249 
L 163.323091 125.231518 
L 164.628235 125.334864 
L 165.280807 125.273188 
L 166.259665 125.281578 
L 166.585951 125.162672 
L 166.912237 125.306738 
L 167.564808 125.240344 
L 167.891094 125.375118 
L 168.543666 125.22276 
L 169.522524 125.287914 
L 170.175096 125.325785 
L 170.501382 125.373501 
L 170.827668 125.245767 
L 175.395672 125.342768 
L 175.721958 125.195469 
L 177.353388 125.312072 
L 177.679674 125.178509 
L 178.332246 125.337478 
L 179.311104 125.287274 
L 180.616247 125.264423 
L 181.268819 125.218018 
L 181.595105 125.335904 
L 183.226535 125.279769 
L 183.879107 125.285015 
L 184.857965 125.270104 
L 208.350555 125.212496 
L 208.676841 125.190852 
L 209.003127 125.319157 
L 209.329413 125.232989 
L 209.981985 125.338617 
L 210.960843 125.229109 
L 211.939701 125.285878 
L 212.265987 125.168292 
L 212.918559 125.336702 
L 213.244845 125.217709 
L 213.571131 125.364164 
L 214.223703 125.195729 
L 214.549989 125.346541 
L 215.202561 125.267357 
L 216.833991 125.345128 
L 217.486563 125.2306 
L 217.812849 125.331404 
L 218.791707 125.276966 
L 220.096851 125.220346 
L 221.075708 125.312442 
L 222.707138 125.248529 
L 224.012282 125.263831 
L 224.338568 125.38604 
L 225.317426 125.241064 
L 226.296284 125.241002 
L 226.948856 125.314039 
L 229.559144 125.285948 
L 229.88543 125.379761 
L 230.538002 125.151318 
L 230.864288 125.316286 
L 233.14829 125.228597 
L 233.800861 125.34366 
L 239.674009 125.278354 
L 240.652867 125.245434 
L 241.305439 125.33188 
L 241.958011 125.294723 
L 242.610583 125.211984 
L 242.936869 125.208705 
L 243.263155 125.3583 
L 243.589441 125.368247 
L 243.915727 125.220511 
L 245.220871 125.283166 
L 246.8523 125.255655 
L 247.831158 125.295306 
L 250.11516 125.210763 
L 250.767732 125.296669 
L 252.072876 125.157503 
L 252.399162 125.309223 
L 254.356878 125.306728 
L 255.00945 125.302022 
L 255.335736 125.229718 
L 255.988308 125.20627 
L 258.27231 125.275274 
L 258.598596 125.187687 
L 259.577454 125.303899 
L 260.882597 125.276974 
L 261.208883 125.172905 
L 261.535169 125.297358 
L 262.514027 125.256486 
L 262.840313 125.35972 
L 266.103173 125.245363 
L 266.429459 125.338922 
L 266.755745 125.190312 
L 267.408317 125.34506 
L 267.734603 125.146577 
L 268.060889 125.329548 
L 269.039747 125.277023 
L 269.366033 125.257487 
L 269.692319 125.384139 
L 271.323749 125.253729 
L 271.650035 125.307863 
L 271.976321 125.243008 
L 272.628893 125.265829 
L 272.955179 125.158997 
L 273.60775 125.333549 
L 274.586608 125.263477 
L 275.891752 125.318303 
L 276.218038 125.174504 
L 276.544324 125.262514 
L 277.196896 125.295882 
L 277.523182 125.363113 
L 277.849468 125.252223 
L 279.807184 125.269767 
L 280.13347 125.182262 
L 280.786042 125.35374 
L 281.7649 125.207408 
L 282.417472 125.329401 
L 282.743758 125.226108 
L 283.722616 125.254252 
L 284.375188 125.252689 
L 284.701474 125.20694 
L 285.02776 125.354705 
L 285.680332 125.244734 
L 286.659189 125.28468 
L 290.574621 125.354543 
L 290.900907 125.208149 
L 291.553479 125.302479 
L 291.879765 125.19635 
L 292.206051 125.318175 
L 292.858623 125.176645 
L 293.184909 125.335469 
L 293.511195 125.36288 
L 294.163767 125.276496 
L 295.468911 125.313483 
L 296.121483 125.223941 
L 296.774055 125.259244 
L 297.100341 125.203226 
L 297.426627 125.36747 
L 298.079199 125.31199 
L 298.405485 125.332912 
L 298.731771 125.180298 
L 300.689486 125.312412 
L 301.342058 125.286907 
L 301.668344 125.343463 
L 302.320916 125.136019 
L 302.973488 125.375999 
L 303.299774 125.237048 
L 303.952346 125.276669 
L 304.278632 125.208425 
L 304.604918 125.37383 
L 304.931204 125.242914 
L 305.910062 125.252598 
L 306.236348 125.336937 
L 307.541492 125.239581 
L 308.52035 125.35912 
L 309.499208 125.286236 
L 310.15178 125.278033 
L 312.762067 125.177355 
L 313.088353 125.312772 
L 316.351213 125.328952 
L 316.677499 125.212632 
L 317.982643 125.325622 
L 318.635215 125.212908 
L 319.287787 125.269189 
L 319.940359 125.28103 
L 320.592931 125.219298 
L 321.245503 125.317894 
L 321.571789 125.366694 
L 322.224361 125.185701 
L 322.550647 125.308678 
L 323.203219 125.276828 
L 323.529505 125.355025 
L 323.855791 125.201413 
L 326.139792 125.310231 
L 326.792364 125.175299 
L 327.444936 125.385517 
L 327.771222 125.244461 
L 328.423794 125.300715 
L 328.75008 125.201802 
L 329.728938 125.318004 
L 330.707796 125.239165 
L 331.360368 125.263194 
L 336.580944 125.327107 
L 336.90723 125.164265 
L 337.559802 125.383069 
L 338.212374 125.229713 
L 339.517517 125.332756 
L 340.170089 125.238088 
L 340.496375 125.290075 
L 340.822661 125.207086 
L 341.801519 125.264722 
L 345.716951 125.286605 
L 346.043237 125.211083 
L 346.695809 125.345797 
L 347.674667 125.236903 
L 349.306097 125.296737 
L 349.632383 125.216902 
L 350.284955 125.337888 
L 350.611241 125.228825 
L 352.242671 125.324029 
L 352.568956 125.2225 
L 354.526672 125.285538 
L 354.852958 125.149459 
L 355.179244 125.300487 
L 355.50553 125.328257 
L 355.831816 125.190687 
L 356.484388 125.300919 
L 356.810674 125.254954 
L 357.13696 125.35635 
L 358.115818 125.268483 
L 358.442104 125.315938 
L 359.094676 125.281282 
L 359.747248 125.246967 
L 360.073534 125.339722 
L 360.39982 125.247644 
L 362.03125 125.311238 
L 363.010108 125.214864 
L 363.66268 125.35263 
L 364.315252 125.205111 
L 364.967824 125.271096 
L 368.556969 125.226463 
L 368.883255 125.197991 
L 369.209541 125.319911 
L 369.862113 125.248008 
L 370.840971 125.286108 
L 372.798687 125.26291 
L 372.798687 125.26291 
" clip-path="url(#pe48fbcf164)" style="fill: none; stroke: #e46e56; stroke-width: 1.5; stroke-linecap: square"/>
   </g>
   <g id="line2d_16">
    <path d="M 48.144142 180.450125 
L 48.470427 179.659873 
L 48.796713 180.583091 
L 49.122999 178.719241 
L 49.449285 175.880848 
L 49.775571 180.590995 
L 50.101857 177.457625 
L 50.428143 177.917826 
L 50.754429 173.629027 
L 51.080715 175.053226 
L 51.407001 174.952216 
L 51.733287 173.792318 
L 52.712145 160.790956 
L 53.038431 166.745426 
L 53.364717 167.954836 
L 54.017289 171.210437 
L 54.343575 171.131777 
L 54.669861 162.433826 
L 54.996147 160.120925 
L 55.322433 165.989961 
L 55.648719 169.745557 
L 55.975005 164.609198 
L 56.301291 161.97531 
L 56.627577 168.965033 
L 56.953863 167.09718 
L 57.280149 166.347658 
L 57.932721 173.675781 
L 58.259007 172.614603 
L 58.585293 166.879888 
L 58.911579 169.246868 
L 59.237865 168.029526 
L 59.564151 170.305369 
L 59.890437 167.87357 
L 60.216723 167.374584 
L 60.543009 169.396732 
L 60.869295 166.367401 
L 61.195581 164.45605 
L 61.521866 163.894744 
L 61.848152 171.728815 
L 62.174438 166.648578 
L 62.500724 159.488327 
L 62.82701 162.046129 
L 63.153296 165.966924 
L 63.479582 163.045036 
L 63.805868 166.93797 
L 64.132154 165.929923 
L 64.45844 171.018561 
L 64.784726 167.310154 
L 65.111012 168.292351 
L 65.437298 163.238129 
L 65.763584 163.911064 
L 66.08987 165.859122 
L 66.416156 161.87759 
L 66.742442 165.428583 
L 67.068728 165.14884 
L 67.395014 167.286137 
L 67.7213 164.350933 
L 68.047586 153.071267 
L 68.373872 153.146499 
L 68.700158 147.746552 
L 69.026444 154.528015 
L 69.35273 150.621988 
L 69.679016 151.81187 
L 70.005302 156.572973 
L 70.331588 153.874292 
L 70.98416 156.579671 
L 71.310446 158.359338 
L 71.636732 149.623558 
L 71.963018 154.238278 
L 72.61559 144.720125 
L 72.941876 150.856816 
L 73.268162 146.356335 
L 73.594448 152.428072 
L 73.920734 155.998128 
L 74.24702 157.404196 
L 74.573306 153.507179 
L 74.899591 144.47413 
L 75.225877 160.581361 
L 75.552163 159.856683 
L 76.204735 152.83873 
L 76.531021 147.645584 
L 76.857307 155.464421 
L 77.183593 156.901343 
L 77.509879 156.426999 
L 77.836165 153.814723 
L 78.162451 155.828505 
L 78.488737 149.527755 
L 78.815023 138.762702 
L 79.141309 132.569348 
L 79.467595 132.869856 
L 80.120167 152.577477 
L 80.446453 152.901348 
L 80.772739 155.65094 
L 81.099025 152.797916 
L 81.425311 148.727624 
L 81.751597 137.483769 
L 82.077883 145.099686 
L 82.404169 144.375932 
L 82.730455 142.467317 
L 83.056741 152.723849 
L 83.383027 148.061493 
L 83.709313 148.442154 
L 84.035599 152.695135 
L 84.361885 159.417355 
L 84.688171 159.941288 
L 85.014457 157.303969 
L 85.340743 156.289842 
L 85.667029 165.222502 
L 85.993315 163.462749 
L 86.319601 162.92658 
L 86.645887 171.375704 
L 87.298459 155.830036 
L 87.624745 159.859273 
L 87.95103 158.042819 
L 88.277316 161.972524 
L 88.603602 162.15831 
L 88.929888 161.559056 
L 89.256174 170.008636 
L 89.58246 171.426968 
L 89.908746 163.937726 
L 90.235032 164.31268 
L 90.561318 154.813878 
L 90.887604 157.183595 
L 91.21389 161.336516 
L 91.540176 160.33135 
L 91.866462 163.016122 
L 92.192748 157.697169 
L 92.519034 165.239349 
L 92.84532 166.074998 
L 93.171606 169.971713 
L 93.497892 168.421949 
L 93.824178 165.403347 
L 94.150464 159.364235 
L 94.47675 159.467537 
L 95.129322 178.299444 
L 95.455608 182.195975 
L 95.781894 181.042171 
L 96.10818 180.875271 
L 96.434466 180.162873 
L 96.760752 182.859575 
L 97.087038 178.967598 
L 97.413324 173.430058 
L 97.73961 173.7613 
L 98.065896 173.811982 
L 98.392182 171.39897 
L 98.718468 171.59941 
L 99.044754 171.362032 
L 99.37104 170.812656 
L 99.697326 164.350567 
L 100.023612 161.079927 
L 100.349898 149.264204 
L 100.676184 148.403316 
L 101.328755 161.388972 
L 101.655041 172.828514 
L 101.981327 176.567865 
L 103.286471 161.320582 
L 103.612757 158.967677 
L 103.939043 162.292473 
L 104.265329 164.346497 
L 104.591615 163.804808 
L 104.917901 169.092881 
L 105.244187 169.323502 
L 105.570473 166.644546 
L 105.896759 173.028247 
L 106.223045 170.304716 
L 106.875617 175.708454 
L 107.201903 176.658769 
L 107.528189 173.292843 
L 107.854475 175.171284 
L 108.507047 177.169895 
L 108.833333 181.32923 
L 109.159619 176.94797 
L 109.485905 177.485606 
L 109.812191 172.463226 
L 110.138477 170.746074 
L 110.464763 172.634578 
L 110.791049 168.518697 
L 111.117335 170.830058 
L 111.443621 169.342835 
L 111.769907 173.356518 
L 112.096193 173.281736 
L 112.422479 174.084602 
L 112.748765 169.139596 
L 113.075051 172.920254 
L 113.401337 173.410282 
L 114.380194 159.824089 
L 114.70648 160.972516 
L 115.032766 154.459064 
L 115.359052 153.506168 
L 115.685338 155.416679 
L 116.011624 155.749402 
L 116.33791 147.857019 
L 116.664196 156.211958 
L 117.316768 165.504323 
L 117.643054 162.853951 
L 117.96934 162.179811 
L 118.295626 162.974707 
L 118.621912 158.069733 
L 118.948198 157.479648 
L 119.274484 155.091326 
L 119.60077 156.381288 
L 119.927056 159.652167 
L 120.253342 159.521148 
L 120.579628 157.942236 
L 121.2322 165.00823 
L 121.558486 165.598155 
L 121.884772 169.418433 
L 122.211058 168.769059 
L 122.537344 161.217776 
L 122.86363 169.451264 
L 123.516202 164.462965 
L 123.842488 173.210349 
L 124.168774 171.770733 
L 124.49506 171.369077 
L 124.821346 176.848301 
L 125.147632 176.281079 
L 125.473918 176.930986 
L 125.800204 170.841513 
L 126.12649 174.073844 
L 126.452776 172.672952 
L 126.779062 177.382084 
L 127.105348 177.087163 
L 127.431634 177.554452 
L 127.757919 176.867787 
L 128.084205 174.371333 
L 128.410491 167.296544 
L 128.736777 172.59287 
L 129.063063 180.480365 
L 129.389349 180.042538 
L 129.715635 180.586778 
L 130.041921 179.910676 
L 130.368207 178.24642 
L 130.694493 174.457866 
L 131.020779 173.696553 
L 131.673351 158.121103 
L 131.999637 159.864412 
L 132.325923 163.402252 
L 132.652209 156.466598 
L 132.978495 167.176951 
L 133.304781 171.259276 
L 133.631067 169.361766 
L 133.957353 168.4931 
L 134.283639 167.295477 
L 134.936211 160.126425 
L 135.262497 158.794059 
L 135.588783 156.406407 
L 135.915069 155.931789 
L 136.241355 157.889971 
L 136.567641 152.346293 
L 136.893927 149.057178 
L 137.220213 150.048834 
L 137.546499 154.797404 
L 138.199071 159.946246 
L 138.525357 157.805905 
L 138.851643 156.599354 
L 139.177929 161.385865 
L 139.504215 168.789207 
L 139.830501 167.854045 
L 140.156787 160.565478 
L 140.483073 168.608531 
L 140.809358 164.608394 
L 141.135644 164.612472 
L 141.46193 164.861298 
L 141.788216 163.356987 
L 142.114502 156.775782 
L 142.440788 158.139747 
L 142.767074 160.771853 
L 143.09336 158.841555 
L 143.419646 159.547249 
L 143.745932 162.804098 
L 144.072218 167.393726 
L 144.398504 165.199359 
L 144.72479 165.191745 
L 145.051076 171.427791 
L 145.377362 170.954874 
L 145.703648 173.228561 
L 146.029934 171.630161 
L 146.35622 170.96773 
L 146.682506 169.398573 
L 147.008792 171.811449 
L 147.335078 172.762949 
L 147.661364 177.748319 
L 147.98765 180.322474 
L 148.313936 178.703155 
L 148.640222 176.040407 
L 148.966508 178.729316 
L 149.292794 179.147111 
L 149.61908 181.22701 
L 150.271652 170.402303 
L 150.597938 169.245731 
L 150.924224 169.33672 
L 151.25051 169.709088 
L 151.576796 172.873189 
L 152.229368 176.155228 
L 153.208226 155.282942 
L 153.860798 161.919423 
L 154.187083 150.719645 
L 154.513369 149.173669 
L 154.839655 146.196076 
L 155.165941 151.918727 
L 155.492227 161.349442 
L 155.818513 162.804701 
L 156.144799 165.137828 
L 156.797371 150.261016 
L 157.123657 136.293907 
L 157.449943 133.456161 
L 157.776229 142.166503 
L 158.102515 156.019234 
L 158.428801 159.717711 
L 158.755087 156.496747 
L 159.081373 161.448752 
L 159.407659 171.324724 
L 159.733945 173.983513 
L 160.060231 173.77174 
L 160.386517 175.098575 
L 160.712803 180.69669 
L 161.039089 182.481633 
L 161.365375 185.252166 
L 161.691661 184.521608 
L 162.017947 186.779751 
L 162.344233 185.645259 
L 162.670519 185.496163 
L 162.996805 182.256102 
L 163.323091 183.225509 
L 163.649377 184.852077 
L 163.975663 187.131549 
L 164.301949 186.519713 
L 164.628235 190.550699 
L 164.954521 191.923689 
L 165.280807 192.388314 
L 165.607093 193.612729 
L 166.259665 185.542795 
L 166.585951 189.968816 
L 166.912237 187.055618 
L 167.238522 186.78146 
L 167.891094 194.659069 
L 168.21738 192.998989 
L 168.543666 193.428689 
L 168.869952 195.923958 
L 169.196238 194.837536 
L 169.522524 195.51132 
L 169.84881 198.425012 
L 170.827668 202.830189 
L 171.153954 203.796709 
L 171.48024 205.677109 
L 171.806526 205.520949 
L 172.132812 199.849678 
L 172.459098 199.538706 
L 172.785384 195.232748 
L 173.437956 190.719178 
L 173.764242 186.264072 
L 174.090528 189.885697 
L 174.416814 187.084541 
L 174.7431 179.375798 
L 175.069386 180.215548 
L 175.395672 179.626724 
L 175.721958 177.60201 
L 176.048244 172.008074 
L 176.37453 175.83402 
L 176.700816 175.109667 
L 177.353388 180.016173 
L 177.679674 183.042822 
L 178.00596 182.354827 
L 178.332246 180.298349 
L 178.658532 173.989523 
L 178.984818 174.516137 
L 179.311104 170.490156 
L 179.963676 169.430264 
L 180.289962 162.765332 
L 180.616247 165.580302 
L 180.942533 166.749574 
L 181.268819 169.06574 
L 182.247677 179.125362 
L 182.573963 179.956821 
L 182.900249 181.201702 
L 183.226535 184.120339 
L 183.552821 183.730205 
L 183.879107 185.28801 
L 184.205393 178.170465 
L 184.531679 178.511173 
L 184.857965 178.236945 
L 185.510537 169.284859 
L 185.836823 172.401801 
L 186.163109 171.760764 
L 186.489395 167.737993 
L 187.141967 182.207602 
L 187.468253 185.007011 
L 187.794539 179.741839 
L 188.120825 171.916517 
L 188.447111 170.92232 
L 188.773397 170.993572 
L 189.099683 176.64982 
L 189.425969 173.69278 
L 189.752255 171.794534 
L 190.078541 173.988224 
L 190.404827 170.218293 
L 190.731113 172.590811 
L 191.057399 169.835143 
L 191.383685 168.928421 
L 191.709971 171.367 
L 192.036257 176.938949 
L 192.362543 172.292388 
L 193.015115 169.337318 
L 193.667686 184.451165 
L 193.993972 183.334935 
L 194.320258 184.606699 
L 194.97283 192.541656 
L 195.299116 192.287071 
L 195.625402 193.277239 
L 195.951688 190.576321 
L 196.277974 190.909317 
L 196.60426 188.924188 
L 196.930546 191.319251 
L 197.256832 189.600115 
L 197.583118 189.242036 
L 197.909404 179.503481 
L 198.23569 185.914295 
L 198.561976 185.631501 
L 198.888262 184.517706 
L 199.214548 185.193295 
L 199.540834 184.022985 
L 199.86712 185.235892 
L 200.193406 184.109291 
L 200.519692 186.419796 
L 200.845978 185.416389 
L 201.49855 173.173265 
L 201.824836 176.354096 
L 202.477408 187.016816 
L 202.803694 178.770653 
L 203.12998 176.260346 
L 203.456266 179.754589 
L 203.782552 179.228848 
L 204.108838 177.219913 
L 204.76141 171.53106 
L 205.087696 165.253925 
L 205.413982 166.827325 
L 205.740268 165.777747 
L 206.066554 164.299106 
L 206.39284 170.668895 
L 206.719126 172.90741 
L 207.045411 173.786226 
L 207.371697 174.283336 
L 207.697983 178.463625 
L 208.024269 184.356121 
L 208.350555 182.971892 
L 208.676841 181.017357 
L 209.003127 177.380522 
L 209.329413 181.533388 
L 209.655699 181.571051 
L 209.981985 181.179174 
L 210.308271 185.408752 
L 210.634557 187.776714 
L 210.960843 189.042122 
L 211.287129 188.993176 
L 211.613415 187.946496 
L 211.939701 185.456698 
L 212.265987 184.773154 
L 212.592273 183.376219 
L 212.918559 184.07437 
L 213.244845 186.888081 
L 213.571131 182.955989 
L 213.897417 183.695852 
L 214.223703 177.183038 
L 214.549989 175.937617 
L 214.876275 175.22827 
L 215.202561 174.205046 
L 215.528847 174.097633 
L 216.833991 166.516169 
L 217.160277 160.808702 
L 217.486563 166.142928 
L 217.812849 164.967443 
L 218.139135 163.361428 
L 218.465421 164.759826 
L 218.791707 170.66804 
L 219.117993 170.058247 
L 219.444279 173.109261 
L 219.770565 173.314939 
L 220.096851 171.811679 
L 220.423136 172.335845 
L 220.749422 169.528647 
L 221.075708 170.273713 
L 221.401994 169.97209 
L 221.72828 169.176302 
L 222.054566 169.534939 
L 222.380852 171.011281 
L 222.707138 174.712855 
L 223.033424 171.430945 
L 223.35971 159.187411 
L 223.685996 157.18691 
L 224.012282 164.506193 
L 224.338568 168.088433 
L 224.664854 159.74831 
L 225.317426 163.554082 
L 225.643712 169.197907 
L 226.296284 161.559365 
L 226.62257 153.541972 
L 226.948856 162.156248 
L 227.275142 163.448035 
L 227.601428 167.342559 
L 227.927714 174.574072 
L 228.254 179.089722 
L 228.580286 177.816068 
L 228.906572 174.724466 
L 229.232858 177.588079 
L 229.559144 181.845305 
L 229.88543 180.221926 
L 230.211716 177.571265 
L 230.864288 181.868466 
L 231.190574 183.238608 
L 231.843146 177.211636 
L 232.169432 178.20073 
L 232.495718 174.800959 
L 232.822004 173.122351 
L 233.14829 180.961056 
L 233.474575 181.352246 
L 233.800861 180.619063 
L 234.453433 177.182795 
L 234.779719 176.162495 
L 235.106005 176.028746 
L 235.432291 179.856307 
L 235.758577 179.696499 
L 236.084863 181.00677 
L 236.411149 180.820832 
L 236.737435 177.937018 
L 237.063721 163.556254 
L 237.390007 163.660725 
L 237.716293 165.606942 
L 238.042579 166.246367 
L 238.368865 167.269765 
L 238.695151 166.250546 
L 239.021437 168.660061 
L 239.347723 163.454863 
L 239.674009 160.731175 
L 240.000295 165.227946 
L 240.326581 163.322173 
L 240.652867 162.546075 
L 240.979153 163.571198 
L 241.305439 163.347361 
L 241.631725 159.995388 
L 241.958011 161.882008 
L 242.284297 162.996686 
L 242.610583 166.730769 
L 242.936869 161.072503 
L 243.263155 173.942116 
L 243.589441 182.268542 
L 243.915727 186.115908 
L 244.242013 188.261662 
L 244.568299 191.240249 
L 244.894585 187.450199 
L 245.220871 187.513775 
L 245.873443 177.678845 
L 246.199729 179.408697 
L 246.526015 174.627923 
L 246.8523 173.867819 
L 247.178586 171.952273 
L 247.504872 173.884079 
L 247.831158 173.980819 
L 248.157444 171.755053 
L 248.48373 167.704404 
L 248.810016 161.775561 
L 249.136302 168.54484 
L 249.462588 171.532395 
L 249.788874 175.634878 
L 250.11516 174.631434 
L 250.441446 179.223056 
L 250.767732 173.709653 
L 251.094018 171.078048 
L 251.420304 166.303306 
L 251.74659 167.706017 
L 252.072876 163.773895 
L 252.399162 169.236787 
L 252.725448 163.712413 
L 253.051734 165.353637 
L 253.37802 163.483491 
L 253.704306 163.689758 
L 254.030592 167.3385 
L 254.356878 169.479516 
L 254.683164 168.823727 
L 255.335736 174.649338 
L 255.662022 181.806351 
L 255.988308 177.941586 
L 256.314594 167.053019 
L 256.967166 156.690332 
L 258.27231 171.065144 
L 258.598596 173.091815 
L 258.924882 178.236738 
L 259.251168 175.640963 
L 259.577454 184.968847 
L 260.230025 174.918647 
L 260.556311 168.231458 
L 260.882597 170.855367 
L 261.535169 163.978739 
L 261.861455 174.955088 
L 262.187741 179.065338 
L 262.514027 174.784664 
L 262.840313 163.616698 
L 263.166599 160.177723 
L 263.492885 158.078577 
L 263.819171 153.938321 
L 264.145457 154.383635 
L 264.471743 160.488125 
L 265.124315 155.462522 
L 265.776887 178.658343 
L 266.103173 177.114514 
L 266.429459 167.374048 
L 266.755745 166.389313 
L 267.082031 166.647499 
L 267.734603 158.772054 
L 268.060889 157.935368 
L 268.387175 160.484185 
L 268.713461 165.838476 
L 269.366033 163.180903 
L 269.692319 152.565632 
L 270.018605 161.850267 
L 270.344891 164.565269 
L 270.671177 165.397257 
L 270.997463 166.795458 
L 271.650035 157.113649 
L 271.976321 160.404379 
L 272.302607 161.84038 
L 272.628893 154.325388 
L 272.955179 152.731642 
L 273.934036 126.62264 
L 274.260322 146.754227 
L 274.586608 132.864788 
L 274.912894 135.412314 
L 275.565466 163.909569 
L 275.891752 162.802261 
L 276.218038 155.443729 
L 276.544324 153.354782 
L 276.87061 153.749928 
L 277.196896 151.775439 
L 277.523182 153.685696 
L 277.849468 167.536915 
L 278.175754 173.610375 
L 278.50204 182.511033 
L 278.828326 178.935433 
L 279.154612 177.172417 
L 279.480898 180.919106 
L 279.807184 187.874399 
L 280.13347 180.918289 
L 280.459756 169.722917 
L 281.112328 191.547012 
L 281.438614 173.92129 
L 281.7649 177.971038 
L 282.091186 167.394929 
L 282.743758 176.594141 
L 283.070044 177.021369 
L 283.39633 154.611498 
L 283.722616 159.189722 
L 284.048902 166.796144 
L 284.375188 166.114375 
L 284.701474 159.6573 
L 285.02776 170.538294 
L 285.354046 190.078185 
L 285.680332 191.514854 
L 286.006618 202.831271 
L 286.332903 205.250594 
L 286.659189 214.180697 
L 286.985475 212.312924 
L 287.311761 211.571218 
L 287.638047 206.450413 
L 287.964333 211.805359 
L 288.290619 212.589825 
L 288.616905 219.880369 
L 288.943191 220.296977 
L 289.269477 227.228803 
L 289.595763 225.891612 
L 289.922049 238.850718 
L 290.248335 241.034136 
L 290.574621 234.567034 
L 290.900907 236.628679 
L 291.227193 239.402624 
L 291.553479 244.422834 
L 291.879765 242.148213 
L 292.206051 237.91023 
L 292.532337 228.526658 
L 292.858623 231.179966 
L 293.184909 238.151557 
L 293.511195 250.165125 
L 293.837481 256.991166 
L 294.163767 247.71337 
L 294.490053 251.557495 
L 294.816339 252.079046 
L 295.142625 261.216 
L 295.795197 248.740379 
L 296.121483 246.769228 
L 296.447769 242.630284 
L 296.774055 240.074066 
L 297.100341 240.597744 
L 297.426627 237.988062 
L 297.752913 229.580092 
L 298.079199 230.801996 
L 298.405485 231.05137 
L 298.731771 227.352776 
L 299.058057 229.545481 
L 299.384343 230.401912 
L 299.710628 237.487948 
L 300.036914 233.841748 
L 300.3632 232.552692 
L 301.015772 212.279011 
L 301.342058 208.23053 
L 301.668344 198.116902 
L 301.99463 203.12328 
L 302.647202 174.028222 
L 302.973488 166.095779 
L 303.299774 151.93705 
L 303.62606 160.655245 
L 303.952346 153.74923 
L 304.278632 169.838749 
L 304.604918 164.882122 
L 304.931204 163.13299 
L 305.25749 176.59319 
L 305.583776 183.781703 
L 305.910062 177.88137 
L 306.236348 177.853543 
L 306.562634 189.998292 
L 306.88892 184.432944 
L 307.215206 188.513852 
L 307.541492 196.04586 
L 307.867778 197.658482 
L 308.194064 185.866211 
L 308.52035 184.073222 
L 308.846636 189.649405 
L 309.172922 183.746567 
L 309.499208 161.810735 
L 309.825494 177.661812 
L 310.15178 182.205092 
L 310.478066 183.342295 
L 310.804352 180.150152 
L 311.130638 164.816285 
L 311.456924 169.023205 
L 311.78321 151.913869 
L 312.109496 163.719091 
L 312.435782 154.098265 
L 313.088353 175.401026 
L 313.414639 170.600754 
L 313.740925 170.700135 
L 314.067211 168.041374 
L 314.393497 155.711221 
L 314.719783 157.406764 
L 315.046069 157.048275 
L 315.372355 157.828618 
L 315.698641 156.963833 
L 316.024927 154.581961 
L 316.351213 156.372717 
L 316.677499 155.157511 
L 317.003785 166.201542 
L 317.330071 166.818184 
L 317.656357 172.982138 
L 317.982643 161.551353 
L 318.308929 166.528541 
L 318.961501 185.263512 
L 319.287787 170.293349 
L 319.614073 170.118751 
L 319.940359 193.133209 
L 320.266645 190.083076 
L 320.592931 190.784962 
L 320.919217 183.671235 
L 321.245503 190.37899 
L 321.898075 182.109231 
L 322.224361 191.43006 
L 322.550647 184.092801 
L 322.876933 189.523521 
L 323.203219 186.573727 
L 323.529505 178.567081 
L 323.855791 191.530174 
L 324.182077 177.348033 
L 324.508363 176.464461 
L 325.160935 171.92665 
L 325.487221 171.541974 
L 325.813507 178.577979 
L 326.139792 171.889402 
L 326.466078 173.074132 
L 326.792364 172.741923 
L 327.11865 188.149656 
L 327.444936 181.332397 
L 327.771222 188.113486 
L 328.097508 185.985757 
L 328.75008 195.667625 
L 329.402652 187.853472 
L 329.728938 186.678377 
L 330.055224 203.134673 
L 330.38151 195.190731 
L 331.034082 187.677128 
L 331.360368 196.287522 
L 331.686654 196.722505 
L 332.01294 194.064114 
L 332.339226 207.357947 
L 332.665512 211.573326 
L 332.991798 210.898799 
L 333.318084 208.317031 
L 333.64437 213.494345 
L 333.970656 214.397358 
L 334.296942 208.685496 
L 334.623228 191.171352 
L 334.949514 185.730412 
L 335.2758 184.770215 
L 335.928372 195.7049 
L 336.254658 193.484269 
L 336.580944 201.678168 
L 336.90723 179.594967 
L 337.233516 181.172879 
L 337.559802 189.81878 
L 337.886088 174.49828 
L 338.212374 165.703188 
L 338.53866 172.112575 
L 339.191231 154.595376 
L 339.517517 150.841487 
L 339.843803 161.119223 
L 340.170089 163.54798 
L 340.496375 175.749366 
L 340.822661 177.866267 
L 341.148947 174.35543 
L 341.475233 163.328078 
L 341.801519 161.807596 
L 342.127805 163.911896 
L 342.454091 158.99276 
L 342.780377 161.567575 
L 343.106663 162.792935 
L 343.432949 161.337454 
L 343.759235 164.499725 
L 344.085521 165.273963 
L 344.411807 159.763732 
L 344.738093 159.542882 
L 345.064379 167.06488 
L 345.390665 168.20677 
L 345.716951 163.590994 
L 346.695809 176.015334 
L 347.348381 169.493967 
L 347.674667 171.215563 
L 348.000953 176.181537 
L 348.327239 170.967302 
L 348.653525 169.436415 
L 348.979811 180.286654 
L 349.306097 180.777391 
L 349.632383 180.552583 
L 349.958669 183.188254 
L 350.284955 179.72196 
L 350.611241 181.880668 
L 350.937527 182.219802 
L 351.263813 193.851959 
L 351.590099 197.564257 
L 351.916385 186.879245 
L 352.242671 172.31273 
L 352.568956 173.917573 
L 352.895242 180.46846 
L 353.221528 170.759654 
L 353.547814 180.637093 
L 353.8741 177.221857 
L 354.200386 172.401663 
L 354.526672 153.33446 
L 354.852958 162.836353 
L 355.179244 162.881345 
L 355.831816 169.057502 
L 356.158102 170.469656 
L 356.484388 158.442567 
L 356.810674 165.008317 
L 357.13696 148.450626 
L 357.463246 147.340765 
L 357.789532 150.289738 
L 358.115818 151.368731 
L 358.442104 146.710436 
L 358.76839 154.730723 
L 359.094676 150.650602 
L 359.420962 154.227809 
L 360.073534 158.339901 
L 360.39982 146.422421 
L 360.726106 149.524602 
L 361.378678 142.464216 
L 362.03125 158.989088 
L 362.357536 153.046411 
L 363.010108 175.95112 
L 363.336394 175.839285 
L 363.66268 157.786971 
L 363.988966 164.87822 
L 364.315252 167.87069 
L 364.641538 164.320827 
L 364.967824 179.052319 
L 365.29411 185.015409 
L 365.620395 174.634601 
L 365.946681 191.346125 
L 366.272967 192.636247 
L 366.599253 187.678085 
L 366.925539 194.373402 
L 367.578111 189.135463 
L 367.904397 175.506028 
L 368.230683 174.766428 
L 368.556969 174.648083 
L 368.883255 175.273015 
L 369.209541 170.493876 
L 369.535827 168.232994 
L 369.862113 172.176127 
L 370.188399 173.114338 
L 370.514685 188.300434 
L 370.840971 188.414286 
L 371.167257 187.927906 
L 371.493543 177.634717 
L 372.146115 179.620973 
L 372.472401 159.416018 
L 372.798687 166.991099 
L 372.798687 166.991099 
" clip-path="url(#pe48fbcf164)" style="fill: none; stroke: #d1dae9; stroke-width: 1.5; stroke-linecap: square"/>
   </g>
   <g id="line2d_17">
    <path d="M 48.144142 77.359806 
L 48.470427 75.795817 
L 48.796713 70.529337 
L 49.122999 73.18467 
L 49.775571 70.517894 
L 50.101857 67.358712 
L 50.428143 71.038819 
L 50.754429 71.366979 
L 51.080715 74.99052 
L 51.407001 74.00405 
L 51.733287 75.272157 
L 52.059573 72.928104 
L 53.038431 77.626945 
L 53.364717 78.044483 
L 53.691003 77.061957 
L 54.017289 80.202589 
L 54.343575 79.519505 
L 54.669861 75.126254 
L 54.996147 73.595221 
L 55.322433 76.787541 
L 55.648719 72.273588 
L 56.301291 75.967479 
L 56.627577 76.929214 
L 56.953863 73.799058 
L 57.280149 76.871733 
L 57.606435 81.084623 
L 57.932721 78.201785 
L 58.259007 79.152476 
L 58.585293 81.489803 
L 58.911579 75.285267 
L 59.564151 68.205156 
L 60.216723 75.214686 
L 60.543009 72.968091 
L 60.869295 77.495818 
L 61.195581 80.0562 
L 61.521866 77.554192 
L 61.848152 79.136615 
L 62.174438 79.698228 
L 62.82701 73.79664 
L 63.153296 75.925958 
L 63.479582 77.173755 
L 64.132154 73.346914 
L 64.45844 76.733437 
L 65.111012 75.465934 
L 65.437298 76.126857 
L 65.763584 75.560475 
L 66.08987 74.697198 
L 66.416156 75.686663 
L 66.742442 70.83451 
L 67.068728 68.104147 
L 67.395014 70.970409 
L 67.7213 66.013964 
L 68.047586 67.040953 
L 68.373872 65.481615 
L 68.700158 68.480838 
L 69.026444 61.145692 
L 69.35273 60.137343 
L 69.679016 57.619792 
L 70.005302 56.10084 
L 70.331588 53.249718 
L 70.657874 54.29828 
L 70.98416 60.068753 
L 71.310446 59.937566 
L 71.636732 57.002343 
L 71.963018 55.427823 
L 72.289304 53.01781 
L 72.61559 53.80398 
L 72.941876 56.695868 
L 73.268162 61.315014 
L 73.920734 63.88858 
L 74.24702 71.267997 
L 74.899591 59.203398 
L 75.225877 64.295795 
L 75.552163 64.95103 
L 75.878449 69.307125 
L 76.204735 70.302321 
L 76.531021 64.586203 
L 76.857307 60.882251 
L 77.183593 60.208023 
L 77.509879 54.163395 
L 77.836165 57.908554 
L 78.162451 57.072436 
L 78.488737 50.107739 
L 78.815023 49.717892 
L 79.141309 50.511385 
L 79.467595 52.797163 
L 79.793881 50.971979 
L 80.120167 53.391031 
L 80.446453 54.011689 
L 80.772739 55.44334 
L 81.099025 54.750177 
L 81.425311 50.174031 
L 81.751597 53.486904 
L 82.077883 53.393819 
L 82.404169 50.856706 
L 82.730455 55.59912 
L 83.056741 54.20251 
L 83.383027 51.709368 
L 84.035599 43.308137 
L 84.361885 45.349886 
L 84.688171 39.11289 
L 85.014457 39.856943 
L 85.667029 34.100956 
L 85.993315 37.859399 
L 86.319601 37.605191 
L 86.645887 41.82719 
L 86.972173 39.405456 
L 87.298459 41.51081 
L 87.95103 31.273526 
L 88.603602 27.942297 
L 88.929888 23.363235 
L 89.256174 26.991297 
L 89.58246 26.982315 
L 90.235032 25.874541 
L 90.561318 27.097228 
L 90.887604 26.072895 
L 91.21389 30.277671 
L 91.540176 41.145108 
L 91.866462 38.376367 
L 92.519034 42.659935 
L 92.84532 41.657698 
L 93.171606 40.150071 
L 93.497892 34.850609 
L 93.824178 31.438566 
L 94.150464 35.211984 
L 94.47675 36.350822 
L 94.803036 38.111869 
L 95.129322 37.574161 
L 95.455608 39.045696 
L 95.781894 37.490801 
L 96.434466 48.768643 
L 96.760752 50.895701 
L 97.087038 49.972247 
L 97.413324 49.667854 
L 97.73961 58.603519 
L 98.065896 54.299726 
L 98.392182 51.806685 
L 99.044754 58.272141 
L 99.37104 58.187787 
L 99.697326 64.067008 
L 100.023612 67.072773 
L 100.349898 61.696683 
L 100.676184 61.079491 
L 101.00247 63.126976 
L 101.328755 71.943705 
L 101.655041 71.241684 
L 101.981327 77.462348 
L 102.307613 73.605933 
L 102.633899 74.430873 
L 103.286471 67.296185 
L 103.612757 66.103765 
L 103.939043 67.646476 
L 104.265329 71.408401 
L 104.917901 58.851736 
L 105.244187 62.726255 
L 105.896759 73.734176 
L 106.223045 74.161932 
L 106.549331 81.780464 
L 106.875617 84.550826 
L 107.201903 81.362132 
L 107.528189 79.488982 
L 107.854475 83.838131 
L 108.180761 89.826585 
L 108.507047 89.657458 
L 108.833333 91.28377 
L 109.159619 96.605862 
L 109.485905 97.371741 
L 109.812191 94.148024 
L 110.138477 92.166862 
L 110.464763 89.039914 
L 110.791049 93.002062 
L 111.117335 92.290762 
L 111.443621 93.626718 
L 112.096193 80.317165 
L 112.422479 82.15908 
L 112.748765 80.919233 
L 113.075051 86.056036 
L 113.401337 85.355186 
L 113.727623 85.409244 
L 114.053909 88.521589 
L 114.380194 88.582361 
L 114.70648 90.259389 
L 115.032766 84.835236 
L 115.359052 85.530827 
L 115.685338 82.677789 
L 116.011624 86.768966 
L 116.33791 84.258062 
L 116.664196 84.252755 
L 116.990482 71.568463 
L 117.316768 71.719701 
L 117.643054 64.896974 
L 117.96934 71.135497 
L 118.295626 74.850665 
L 118.948198 84.628634 
L 119.274484 80.26418 
L 119.60077 73.681389 
L 119.927056 74.050808 
L 120.253342 75.587003 
L 120.579628 74.078366 
L 120.905914 74.385484 
L 121.2322 73.431325 
L 121.558486 74.159007 
L 121.884772 77.643386 
L 122.211058 75.05605 
L 122.537344 76.377969 
L 122.86363 76.177797 
L 123.189916 76.901698 
L 123.516202 75.759909 
L 124.168774 81.948172 
L 124.49506 80.636784 
L 124.821346 78.82487 
L 125.147632 80.029606 
L 125.473918 86.382597 
L 125.800204 86.650369 
L 126.12649 84.5457 
L 126.452776 80.425669 
L 126.779062 73.929398 
L 127.105348 77.343698 
L 127.431634 76.737677 
L 127.757919 80.702477 
L 128.410491 83.093529 
L 128.736777 86.237377 
L 129.063063 86.823904 
L 129.389349 82.031405 
L 129.715635 82.36928 
L 130.041921 85.741512 
L 130.368207 84.98325 
L 130.694493 89.448119 
L 131.020779 84.8612 
L 131.347065 87.756306 
L 131.673351 84.862651 
L 131.999637 88.655346 
L 132.325923 90.640802 
L 132.652209 91.117495 
L 132.978495 94.52251 
L 133.631067 82.198975 
L 133.957353 83.963152 
L 134.283639 80.873898 
L 134.609925 80.556464 
L 134.936211 90.647324 
L 135.262497 85.93656 
L 135.588783 84.04239 
L 135.915069 78.381493 
L 136.241355 76.973613 
L 136.567641 74.792866 
L 136.893927 71.698234 
L 137.220213 74.10779 
L 137.546499 72.047262 
L 137.872785 72.485508 
L 138.199071 74.737096 
L 138.525357 79.294547 
L 138.851643 74.953171 
L 139.504215 87.141162 
L 140.156787 92.495972 
L 140.483073 91.603891 
L 140.809358 89.759137 
L 141.135644 86.17996 
L 141.46193 85.095612 
L 141.788216 81.918192 
L 142.440788 89.823751 
L 142.767074 85.977396 
L 143.09336 83.757318 
L 143.419646 87.066362 
L 143.745932 87.589674 
L 144.398504 86.086204 
L 144.72479 81.158652 
L 145.051076 89.96335 
L 145.377362 83.479302 
L 145.703648 87.59716 
L 146.35622 88.586754 
L 146.682506 86.360485 
L 147.008792 87.432989 
L 147.335078 83.29212 
L 147.661364 87.312345 
L 147.98765 88.222716 
L 148.640222 92.2639 
L 148.966508 85.957198 
L 149.292794 85.583886 
L 149.61908 78.701996 
L 149.945366 79.31161 
L 150.271652 76.008432 
L 150.597938 76.45707 
L 150.924224 83.039704 
L 151.25051 82.309731 
L 151.576796 88.047183 
L 151.903082 78.56736 
L 152.229368 77.160383 
L 152.555654 77.769321 
L 152.88194 79.053298 
L 153.208226 73.968673 
L 153.534512 72.691348 
L 153.860798 66.623311 
L 154.187083 70.408706 
L 154.839655 55.563139 
L 155.165941 59.369146 
L 155.492227 60.640372 
L 155.818513 67.106156 
L 156.797371 77.028781 
L 157.123657 77.770359 
L 157.449943 70.737541 
L 157.776229 78.166254 
L 158.102515 77.644086 
L 158.428801 73.559188 
L 159.081373 71.703292 
L 159.407659 73.607075 
L 159.733945 73.410748 
L 160.060231 71.930966 
L 160.386517 68.477901 
L 160.712803 71.962432 
L 161.039089 72.09473 
L 161.365375 66.031904 
L 162.017947 72.539134 
L 162.670519 63.882774 
L 162.996805 62.721593 
L 163.323091 67.127388 
L 163.649377 67.783659 
L 163.975663 68.092589 
L 164.628235 74.559168 
L 164.954521 70.116142 
L 165.280807 70.46676 
L 165.607093 73.307353 
L 165.933379 72.991958 
L 166.259665 72.492646 
L 166.585951 68.762608 
L 166.912237 66.710994 
L 167.564808 54.77735 
L 167.891094 55.949578 
L 168.21738 49.69959 
L 168.869952 43.329393 
L 169.196238 42.524498 
L 169.522524 38.522158 
L 170.175096 43.005269 
L 170.501382 36.675703 
L 170.827668 38.136911 
L 171.153954 45.632356 
L 171.48024 49.958541 
L 171.806526 50.976987 
L 172.132812 55.655066 
L 172.459098 52.373504 
L 172.785384 47.286989 
L 173.437956 53.398034 
L 173.764242 57.264873 
L 174.090528 48.531507 
L 174.416814 51.39849 
L 174.7431 48.61596 
L 175.069386 49.065615 
L 175.395672 44.393398 
L 175.721958 44.782603 
L 176.048244 45.432111 
L 176.37453 51.815925 
L 176.700816 43.258577 
L 177.027102 42.54374 
L 177.353388 42.357613 
L 177.679674 38.111537 
L 178.00596 37.923067 
L 178.332246 34.315662 
L 178.984818 31.785575 
L 179.311104 36.754121 
L 179.63739 32.189708 
L 179.963676 35.652005 
L 180.289962 31.662554 
L 180.616247 31.247375 
L 180.942533 36.369955 
L 181.268819 43.570308 
L 181.595105 40.256987 
L 181.921391 46.005234 
L 182.247677 48.941895 
L 182.573963 47.203628 
L 182.900249 48.373325 
L 183.226535 46.849448 
L 183.552821 46.713389 
L 183.879107 46.218916 
L 184.531679 58.353159 
L 184.857965 59.080116 
L 185.836823 51.202439 
L 186.163109 55.424305 
L 186.489395 54.66879 
L 186.815681 54.439596 
L 187.141967 56.00842 
L 187.468253 53.365837 
L 188.120825 60.58235 
L 188.447111 55.825367 
L 189.099683 62.313952 
L 189.425969 56.930668 
L 189.752255 57.955182 
L 190.078541 54.492076 
L 190.731113 42.200476 
L 191.057399 40.492514 
L 191.383685 44.012979 
L 191.709971 45.943232 
L 192.362543 57.009947 
L 193.015115 52.855184 
L 193.341401 48.801775 
L 193.667686 51.427707 
L 193.993972 52.574911 
L 194.320258 48.174587 
L 194.646544 56.511933 
L 194.97283 52.07685 
L 195.299116 50.205267 
L 195.625402 43.577435 
L 195.951688 43.751975 
L 196.277974 42.914002 
L 196.60426 44.379035 
L 197.256832 58.143212 
L 197.583118 50.918935 
L 197.909404 56.388668 
L 198.23569 54.810695 
L 198.561976 57.45786 
L 198.888262 57.533417 
L 199.214548 61.697819 
L 199.540834 53.201539 
L 199.86712 56.307818 
L 200.193406 54.12677 
L 200.519692 57.386504 
L 200.845978 55.595457 
L 201.172264 46.927773 
L 201.49855 48.383087 
L 201.824836 43.049084 
L 202.151122 48.705497 
L 202.477408 46.400616 
L 202.803694 46.63404 
L 203.12998 49.838378 
L 203.456266 54.7192 
L 203.782552 53.116042 
L 204.108838 50.189762 
L 204.435124 50.483459 
L 204.76141 53.360626 
L 205.087696 52.876737 
L 205.413982 51.243587 
L 205.740268 45.471695 
L 206.39284 42.533253 
L 206.719126 42.976612 
L 207.045411 45.941422 
L 207.371697 40.119281 
L 207.697983 40.524047 
L 208.024269 43.666441 
L 208.350555 45.502967 
L 208.676841 45.175305 
L 209.003127 40.227528 
L 209.329413 40.189162 
L 209.655699 36.386069 
L 210.308271 33.3906 
L 210.634557 38.225842 
L 210.960843 36.767696 
L 211.287129 39.355162 
L 211.939701 32.641373 
L 212.265987 37.065913 
L 212.592273 37.269433 
L 212.918559 38.670227 
L 213.244845 42.43951 
L 213.571131 40.568251 
L 213.897417 41.124652 
L 214.223703 36.242871 
L 214.549989 35.857421 
L 214.876275 33.061589 
L 215.202561 36.101877 
L 215.528847 26.958568 
L 215.855133 21.271959 
L 216.181419 19.805758 
L 216.507705 30.658147 
L 216.833991 35.774979 
L 217.160277 38.463556 
L 217.486563 46.443793 
L 218.139135 42.652166 
L 218.465421 45.986156 
L 218.791707 47.654078 
L 219.117993 45.721433 
L 219.444279 47.241134 
L 219.770565 45.114558 
L 220.096851 45.758357 
L 220.423136 42.711976 
L 220.749422 50.127876 
L 221.075708 44.224366 
L 221.401994 43.512242 
L 221.72828 38.974641 
L 222.054566 36.593824 
L 222.380852 31.704215 
L 222.707138 29.499438 
L 223.033424 21.301645 
L 223.35971 20.793789 
L 223.685996 19.296 
L 224.012282 24.076908 
L 224.338568 25.254433 
L 224.664854 25.058075 
L 224.99114 26.429108 
L 225.317426 32.357287 
L 225.643712 29.15127 
L 225.969998 30.603158 
L 226.296284 30.246623 
L 226.62257 24.932614 
L 226.948856 29.20352 
L 227.275142 25.524468 
L 227.601428 32.505478 
L 227.927714 33.721956 
L 228.254 26.700636 
L 228.580286 33.837052 
L 228.906572 29.505832 
L 229.232858 31.927274 
L 229.559144 36.344708 
L 229.88543 37.75039 
L 230.211716 38.13657 
L 230.538002 40.903466 
L 230.864288 36.322799 
L 231.190574 38.381778 
L 231.51686 30.829038 
L 231.843146 37.908133 
L 232.169432 34.758064 
L 232.822004 31.107407 
L 233.14829 31.792517 
L 233.800861 38.828721 
L 234.127147 36.356446 
L 234.453433 38.118777 
L 234.779719 36.27899 
L 235.106005 41.796173 
L 235.432291 36.222154 
L 235.758577 36.915937 
L 236.084863 31.060977 
L 236.411149 36.403647 
L 236.737435 36.682859 
L 237.063721 39.72329 
L 237.390007 46.471391 
L 237.716293 43.75771 
L 238.042579 46.191598 
L 238.368865 44.474323 
L 238.695151 40.150859 
L 239.021437 45.892794 
L 239.347723 49.071307 
L 240.000295 52.183163 
L 240.652867 50.491377 
L 240.979153 43.630807 
L 241.305439 44.58209 
L 241.631725 46.557644 
L 241.958011 43.416065 
L 242.284297 44.351577 
L 242.610583 44.822869 
L 242.936869 45.034513 
L 243.263155 52.950098 
L 243.589441 46.480602 
L 244.242013 47.704048 
L 244.568299 48.600565 
L 244.894585 51.415908 
L 245.220871 51.649215 
L 245.873443 61.619482 
L 246.526015 60.680086 
L 246.8523 59.305274 
L 247.504872 48.042667 
L 247.831158 44.572357 
L 248.48373 52.121834 
L 249.136302 56.29534 
L 249.462588 53.000079 
L 249.788874 58.543052 
L 250.441446 62.699288 
L 250.767732 64.12655 
L 251.094018 59.749404 
L 251.420304 58.282652 
L 251.74659 66.511092 
L 252.072876 70.228327 
L 252.725448 65.253071 
L 253.051734 64.708384 
L 253.37802 66.788862 
L 253.704306 72.549785 
L 254.030592 67.797229 
L 254.356878 60.167961 
L 254.683164 59.125722 
L 255.00945 57.084743 
L 255.335736 53.160833 
L 255.988308 62.203885 
L 256.314594 57.608899 
L 256.64088 59.962934 
L 256.967166 59.597172 
L 257.293452 63.859914 
L 257.619738 66.081197 
L 257.946024 63.79123 
L 258.27231 63.270597 
L 258.598596 65.851616 
L 258.924882 63.951113 
L 259.251168 60.88121 
L 259.577454 58.930732 
L 259.903739 59.993511 
L 260.230025 61.707525 
L 260.556311 59.627591 
L 260.882597 61.758876 
L 261.208883 53.989489 
L 261.535169 57.379176 
L 261.861455 64.123841 
L 262.187741 57.353455 
L 262.840313 72.030451 
L 263.166599 75.315253 
L 263.492885 73.639361 
L 263.819171 75.535991 
L 264.145457 82.337168 
L 264.471743 81.985179 
L 264.798029 72.452619 
L 265.450601 64.759526 
L 265.776887 65.444857 
L 266.103173 61.314296 
L 266.429459 63.086417 
L 267.082031 64.856271 
L 267.408317 59.621207 
L 267.734603 56.399722 
L 268.060889 50.415021 
L 268.387175 55.415676 
L 268.713461 56.435668 
L 269.039747 53.1098 
L 269.366033 53.402484 
L 269.692319 57.312342 
L 270.018605 58.628223 
L 270.671177 50.555286 
L 270.997463 53.274248 
L 271.323749 53.64843 
L 271.650035 49.251728 
L 271.976321 53.034934 
L 272.302607 53.125274 
L 272.628893 49.399959 
L 272.955179 51.351216 
L 273.281464 56.787689 
L 273.60775 65.453689 
L 273.934036 65.185863 
L 274.260322 63.869143 
L 274.912894 56.150111 
L 275.23918 58.824809 
L 275.565466 62.927684 
L 275.891752 61.14393 
L 276.218038 60.906596 
L 276.544324 62.84822 
L 276.87061 68.67234 
L 277.196896 71.424981 
L 277.523182 67.736016 
L 277.849468 68.142694 
L 278.175754 69.854761 
L 278.828326 61.669804 
L 279.154612 57.819441 
L 279.480898 57.321274 
L 279.807184 56.351014 
L 280.13347 56.438562 
L 280.459756 58.144019 
L 281.112328 58.671597 
L 281.438614 59.593123 
L 282.091186 51.148727 
L 282.417472 50.837698 
L 282.743758 43.294007 
L 283.070044 43.540034 
L 283.39633 51.942908 
L 283.722616 54.708833 
L 284.048902 58.606832 
L 284.375188 54.9311 
L 285.02776 63.562259 
L 285.354046 64.367917 
L 285.680332 66.432981 
L 286.006618 60.831351 
L 286.332903 59.870136 
L 286.659189 62.560761 
L 286.985475 67.403272 
L 287.311761 66.773604 
L 287.638047 65.447895 
L 287.964333 64.602823 
L 288.290619 68.039887 
L 288.616905 59.863327 
L 288.943191 56.622388 
L 289.269477 55.476371 
L 289.595763 55.853869 
L 290.248335 45.354921 
L 290.574621 46.509798 
L 290.900907 46.908748 
L 291.227193 45.004137 
L 291.553479 46.291999 
L 291.879765 48.870369 
L 292.206051 42.423074 
L 292.532337 40.428902 
L 292.858623 41.515948 
L 293.184909 49.989896 
L 293.511195 51.024989 
L 294.163767 57.928469 
L 294.490053 58.824785 
L 294.816339 62.028606 
L 295.142625 66.453794 
L 295.468911 69.364898 
L 295.795197 68.498043 
L 296.121483 64.876625 
L 296.447769 64.302943 
L 296.774055 68.428892 
L 297.426627 61.938447 
L 297.752913 64.019437 
L 298.079199 67.987123 
L 298.405485 58.633601 
L 298.731771 58.778637 
L 299.058057 49.330346 
L 299.384343 53.040049 
L 299.710628 54.897503 
L 300.036914 55.320802 
L 300.3632 60.926393 
L 300.689486 59.216294 
L 301.015772 64.63314 
L 301.342058 61.503186 
L 301.668344 61.29452 
L 301.99463 63.874227 
L 302.320916 60.526649 
L 303.299774 71.428409 
L 303.62606 71.612384 
L 303.952346 68.111496 
L 304.278632 66.890702 
L 304.604918 70.52135 
L 304.931204 67.21223 
L 305.25749 67.851021 
L 306.236348 62.825554 
L 306.562634 56.956838 
L 306.88892 58.082026 
L 307.215206 56.102759 
L 307.541492 55.411831 
L 307.867778 52.021495 
L 308.52035 59.594704 
L 308.846636 53.44628 
L 309.172922 57.366743 
L 309.499208 63.860633 
L 309.825494 73.544635 
L 310.15178 73.216637 
L 310.478066 69.638153 
L 310.804352 70.014488 
L 311.130638 69.162847 
L 311.456924 64.790805 
L 311.78321 64.697166 
L 312.109496 64.932747 
L 312.435782 68.748852 
L 312.762067 69.552966 
L 313.740925 67.530768 
L 314.067211 69.492398 
L 314.719783 71.435467 
L 315.046069 69.444697 
L 315.372355 70.248033 
L 315.698641 67.933971 
L 316.024927 68.754465 
L 316.351213 73.475568 
L 316.677499 74.624689 
L 317.003785 71.422638 
L 317.330071 65.195552 
L 317.656357 70.187544 
L 318.308929 75.407609 
L 318.961501 70.37009 
L 319.287787 72.378232 
L 319.614073 66.669776 
L 320.266645 75.41652 
L 320.592931 73.134564 
L 320.919217 73.093393 
L 321.571789 64.886923 
L 321.898075 62.856524 
L 322.224361 69.172032 
L 322.550647 65.090696 
L 322.876933 63.306086 
L 323.203219 64.685353 
L 323.529505 64.765378 
L 323.855791 69.649288 
L 324.508363 69.160113 
L 325.160935 54.503071 
L 325.487221 56.280731 
L 325.813507 55.548608 
L 326.139792 63.734167 
L 326.466078 63.479804 
L 326.792364 59.026632 
L 327.11865 60.065905 
L 327.444936 65.504462 
L 327.771222 65.357666 
L 328.423794 72.377053 
L 328.75008 70.617748 
L 329.076366 73.326876 
L 329.402652 73.965377 
L 329.728938 65.55696 
L 330.055224 64.48454 
L 330.38151 62.332032 
L 330.707796 62.032123 
L 331.034082 65.140443 
L 331.360368 69.86701 
L 331.686654 70.577218 
L 332.01294 67.493568 
L 332.339226 70.916973 
L 332.991798 66.134948 
L 333.64437 58.261449 
L 333.970656 65.646569 
L 334.296942 61.647251 
L 334.623228 60.720285 
L 334.949514 58.163366 
L 335.2758 61.406347 
L 335.602086 60.906899 
L 335.928372 61.450999 
L 336.254658 64.960849 
L 336.580944 66.713011 
L 336.90723 63.999934 
L 337.233516 66.405713 
L 337.559802 73.365424 
L 337.886088 66.4493 
L 338.53866 69.345587 
L 338.864946 71.753081 
L 339.191231 78.287119 
L 339.843803 70.195271 
L 340.170089 76.824558 
L 340.496375 79.136979 
L 340.822661 75.133014 
L 341.148947 83.943341 
L 341.475233 76.015184 
L 341.801519 75.765787 
L 342.454091 69.784741 
L 342.780377 73.256913 
L 343.106663 66.174206 
L 343.432949 62.943719 
L 343.759235 65.363674 
L 344.085521 65.094679 
L 344.411807 67.119325 
L 344.738093 64.337162 
L 345.064379 58.813997 
L 345.390665 60.239517 
L 345.716951 55.878924 
L 346.043237 47.204092 
L 346.369523 48.23575 
L 346.695809 50.345679 
L 347.022095 55.502992 
L 347.348381 47.787393 
L 347.674667 52.377643 
L 348.327239 51.425147 
L 348.653525 53.65133 
L 348.979811 52.601615 
L 349.306097 57.590065 
L 349.632383 58.481157 
L 349.958669 59.896232 
L 350.284955 52.597951 
L 350.611241 51.641131 
L 351.263813 58.983758 
L 351.590099 63.858023 
L 351.916385 59.787023 
L 352.242671 61.816873 
L 353.221528 53.505397 
L 353.547814 52.997608 
L 353.8741 52.188863 
L 354.200386 49.518579 
L 354.526672 49.474493 
L 354.852958 54.292075 
L 355.179244 53.761452 
L 355.50553 45.441041 
L 355.831816 44.444341 
L 356.158102 45.349723 
L 356.810674 52.657766 
L 357.789532 50.450617 
L 358.115818 54.37737 
L 358.442104 52.112522 
L 358.76839 53.268862 
L 359.094676 50.506231 
L 360.073534 59.207678 
L 360.39982 55.354937 
L 360.726106 57.320975 
L 361.378678 65.23824 
L 361.704964 62.799789 
L 362.03125 54.524851 
L 362.357536 58.728789 
L 362.683822 66.113506 
L 363.010108 59.759264 
L 363.336394 58.62005 
L 363.66268 58.656156 
L 363.988966 61.424184 
L 364.315252 61.753 
L 364.641538 66.189231 
L 364.967824 72.745813 
L 365.29411 70.954341 
L 365.620395 66.569185 
L 365.946681 67.895912 
L 366.272967 65.377521 
L 366.599253 67.424216 
L 366.925539 61.794455 
L 367.578111 66.625465 
L 367.904397 54.975801 
L 368.230683 51.931314 
L 368.556969 50.8486 
L 368.883255 54.485819 
L 369.535827 49.057874 
L 369.862113 50.101354 
L 370.188399 47.655255 
L 370.514685 50.407815 
L 370.840971 54.627113 
L 371.167257 55.915595 
L 371.493543 58.248106 
L 371.819829 55.980717 
L 372.146115 58.761238 
L 372.472401 56.429364 
L 372.798687 58.898796 
L 372.798687 58.898796 
" clip-path="url(#pe48fbcf164)" style="fill: none; stroke: #3a4cc0; stroke-width: 1.5; stroke-linecap: square"/>
   </g>
   <g id="patch_3">
    <path d="M 31.911414 273.312 
L 31.911414 7.2 
" style="fill: none; stroke: #000000; stroke-width: 0.8; stroke-linejoin: miter; stroke-linecap: square"/>
   </g>
   <g id="patch_4">
    <path d="M 389.031414 273.312 
L 389.031414 7.2 
" style="fill: none; stroke: #000000; stroke-width: 0.8; stroke-linejoin: miter; stroke-linecap: square"/>
   </g>
   <g id="patch_5">
    <path d="M 31.911414 273.312 
L 389.031414 273.312 
" style="fill: none; stroke: #000000; stroke-width: 0.8; stroke-linejoin: miter; stroke-linecap: square"/>
   </g>
   <g id="patch_6">
    <path d="M 31.911414 7.2 
L 389.031414 7.2 
" style="fill: none; stroke: #000000; stroke-width: 0.8; stroke-linejoin: miter; stroke-linecap: square"/>
   </g>
  </g>
 </g>
 <defs>
  <clipPath id="pe48fbcf164">
   <rect x="31.911414" y="7.2" width="357.12" height="266.112"/>
  </clipPath>
 </defs>
</svg>
