<?xml version="1.0" encoding="utf-8" standalone="no"?>
<!DOCTYPE svg PUBLIC "-//W3C//DTD SVG 1.1//EN"
  "http://www.w3.org/Graphics/SVG/1.1/DTD/svg11.dtd">
<svg xmlns:xlink="http://www.w3.org/1999/xlink" width="396.231414pt" height="296.367677pt" viewBox="0 0 396.231414 296.367677" xmlns="http://www.w3.org/2000/svg" version="1.1">
 <metadata>
  <rdf:RDF xmlns:dc="http://purl.org/dc/elements/1.1/" xmlns:cc="http://creativecommons.org/ns#" xmlns:rdf="http://www.w3.org/1999/02/22-rdf-syntax-ns#">
   <cc:Work>
    <dc:type rdf:resource="http://purl.org/dc/dcmitype/StillImage"/>
    <dc:date>2026-03-25T20:38:50.375042</dc:date>
    <dc:format>image/svg+xml</dc:format>
    <dc:creator>
     <cc:Agent>
      <dc:title>Matplotlib v3.10.8, https://matplotlib.org/</dc:title>
     </cc:Agent>
    </dc:creator>
   </cc:Work>
  </rdf:RDF>
 </metadata>
 <defs>
  <style type="text/css">*{stroke-linejoin: round; stroke-linecap: butt}</style>
 </defs>
 <g id="figure_1">
  <g id="patch_1">
   <path d="M 0 296.367677 
L 396.231414 296.367677 
L 396.231414 0 
L 0 0 
z
" style="fill: #ffffff"/>
  </g>
  <g id="axes_1">
   <g id="patch_2">
    <path d="M 31.911414 273.312 
L 389.031414 273.312 
L 389.031414 7.2 
L 31.911414 7.2 
z
" style="fill: #ffffff"/>
   </g>
   <g id="matplotlib.axis_1">
    <g id="xtick_1">
     <g id="line2d_1">
      <defs>
       <path id="m3bfd8aeeb9" d="M 0 0 
L 0 3.5 
" style="stroke: #000000; stroke-width: 0.8"/>
      </defs>
      <g>
       <use xlink:href="#m3bfd8aeeb9" x="48.144142" y="273.312" style="stroke: #000000; stroke-width: 0.8"/>
      </g>
     </g>
     <g id="text_1">
      <!-- $\mathdefault{0}$ -->
      <g transform="translate(45.653474 287.230498) scale(0.1 -0.1)">
       <defs>
        <path id="CMR17-30" d="M 2688 2025 
C 2688 2416 2682 3080 2413 3591 
C 2176 4039 1798 4198 1466 4198 
C 1158 4198 768 4058 525 3597 
C 269 3118 243 2524 243 2025 
C 243 1661 250 1106 448 619 
C 723 -39 1216 -128 1466 -128 
C 1760 -128 2208 -7 2470 600 
C 2662 1042 2688 1559 2688 2025 
z
M 1466 -26 
C 1056 -26 813 325 723 812 
C 653 1188 653 1738 653 2096 
C 653 2588 653 2997 736 3387 
C 858 3929 1216 4096 1466 4096 
C 1728 4096 2067 3923 2189 3400 
C 2272 3036 2278 2607 2278 2096 
C 2278 1680 2278 1169 2202 792 
C 2067 95 1690 -26 1466 -26 
z
" transform="scale(0.015625)"/>
       </defs>
       <use xlink:href="#CMR17-30" transform="scale(0.996264)"/>
      </g>
     </g>
    </g>
    <g id="xtick_2">
     <g id="line2d_2">
      <g>
       <use xlink:href="#m3bfd8aeeb9" x="113.075051" y="273.312" style="stroke: #000000; stroke-width: 0.8"/>
      </g>
     </g>
     <g id="text_2">
      <!-- $\mathdefault{200}$ -->
      <g transform="translate(105.603048 287.230498) scale(0.1 -0.1)">
       <defs>
        <path id="CMR17-32" d="M 2669 989 
L 2554 989 
C 2490 536 2438 459 2413 420 
C 2381 369 1920 369 1830 369 
L 602 369 
C 832 619 1280 1072 1824 1597 
C 2214 1967 2669 2402 2669 3035 
C 2669 3790 2067 4224 1395 4224 
C 691 4224 262 3604 262 3030 
C 262 2780 448 2748 525 2748 
C 589 2748 781 2787 781 3010 
C 781 3207 614 3264 525 3264 
C 486 3264 448 3258 422 3245 
C 544 3790 915 4058 1306 4058 
C 1862 4058 2227 3617 2227 3035 
C 2227 2479 1901 2000 1536 1584 
L 262 146 
L 262 0 
L 2515 0 
L 2669 989 
z
" transform="scale(0.015625)"/>
       </defs>
       <use xlink:href="#CMR17-32" transform="scale(0.996264)"/>
       <use xlink:href="#CMR17-30" transform="translate(45.690477 0) scale(0.996264)"/>
       <use xlink:href="#CMR17-30" transform="translate(91.380954 0) scale(0.996264)"/>
      </g>
     </g>
    </g>
    <g id="xtick_3">
     <g id="line2d_3">
      <g>
       <use xlink:href="#m3bfd8aeeb9" x="178.00596" y="273.312" style="stroke: #000000; stroke-width: 0.8"/>
      </g>
     </g>
     <g id="text_3">
      <!-- $\mathdefault{400}$ -->
      <g transform="translate(170.533957 287.230498) scale(0.1 -0.1)">
       <defs>
        <path id="CMR17-34" d="M 2150 4122 
C 2150 4256 2144 4256 2029 4256 
L 128 1254 
L 128 1088 
L 1779 1088 
L 1779 457 
C 1779 224 1766 160 1318 160 
L 1197 160 
L 1197 0 
C 1402 0 1747 0 1965 0 
C 2182 0 2528 0 2733 0 
L 2733 160 
L 2611 160 
C 2163 160 2150 224 2150 457 
L 2150 1088 
L 2803 1088 
L 2803 1254 
L 2150 1254 
L 2150 4122 
z
M 1798 3703 
L 1798 1254 
L 256 1254 
L 1798 3703 
z
" transform="scale(0.015625)"/>
       </defs>
       <use xlink:href="#CMR17-34" transform="scale(0.996264)"/>
       <use xlink:href="#CMR17-30" transform="translate(45.690477 0) scale(0.996264)"/>
       <use xlink:href="#CMR17-30" transform="translate(91.380954 0) scale(0.996264)"/>
      </g>
     </g>
    </g>
    <g id="xtick_4">
     <g id="line2d_4">
      <g>
       <use xlink:href="#m3bfd8aeeb9" x="242.936869" y="273.312" style="stroke: #000000; stroke-width: 0.8"/>
      </g>
     </g>
     <g id="text_4">
      <!-- $\mathdefault{600}$ -->
      <g transform="translate(235.464866 287.230498) scale(0.1 -0.1)">
       <defs>
        <path id="CMR17-36" d="M 678 2176 
C 678 3690 1395 4032 1811 4032 
C 1946 4032 2272 4009 2400 3776 
C 2298 3776 2106 3776 2106 3553 
C 2106 3381 2246 3323 2336 3323 
C 2394 3323 2566 3348 2566 3560 
C 2566 3954 2246 4179 1805 4179 
C 1043 4179 243 3390 243 1984 
C 243 253 966 -128 1478 -128 
C 2099 -128 2688 427 2688 1283 
C 2688 2081 2170 2662 1517 2662 
C 1126 2662 838 2407 678 1960 
L 678 2176 
z
M 1478 25 
C 691 25 691 1200 691 1436 
C 691 1896 909 2560 1504 2560 
C 1613 2560 1926 2560 2138 2120 
C 2253 1870 2253 1609 2253 1289 
C 2253 944 2253 690 2118 434 
C 1978 171 1773 25 1478 25 
z
" transform="scale(0.015625)"/>
       </defs>
       <use xlink:href="#CMR17-36" transform="scale(0.996264)"/>
       <use xlink:href="#CMR17-30" transform="translate(45.690477 0) scale(0.996264)"/>
       <use xlink:href="#CMR17-30" transform="translate(91.380954 0) scale(0.996264)"/>
      </g>
     </g>
    </g>
    <g id="xtick_5">
     <g id="line2d_5">
      <g>
       <use xlink:href="#m3bfd8aeeb9" x="307.867778" y="273.312" style="stroke: #000000; stroke-width: 0.8"/>
      </g>
     </g>
     <g id="text_5">
      <!-- $\mathdefault{800}$ -->
      <g transform="translate(300.395775 287.230498) scale(0.1 -0.1)">
       <defs>
        <path id="CMR17-38" d="M 1741 2264 
C 2144 2467 2554 2773 2554 3263 
C 2554 3841 1990 4179 1472 4179 
C 890 4179 378 3759 378 3180 
C 378 3021 416 2747 666 2505 
C 730 2442 998 2251 1171 2130 
C 883 1983 211 1634 211 934 
C 211 279 838 -128 1459 -128 
C 2144 -128 2720 362 2720 1010 
C 2720 1590 2330 1857 2074 2029 
L 1741 2264 
z
M 902 2822 
C 851 2854 595 3051 595 3351 
C 595 3739 998 4032 1459 4032 
C 1965 4032 2336 3676 2336 3262 
C 2336 2669 1670 2331 1638 2331 
C 1632 2331 1626 2331 1574 2370 
L 902 2822 
z
M 2080 1519 
C 2176 1449 2483 1240 2483 851 
C 2483 381 2010 25 1472 25 
C 890 25 448 438 448 940 
C 448 1443 838 1862 1280 2060 
L 2080 1519 
z
" transform="scale(0.015625)"/>
       </defs>
       <use xlink:href="#CMR17-38" transform="scale(0.996264)"/>
       <use xlink:href="#CMR17-30" transform="translate(45.690477 0) scale(0.996264)"/>
       <use xlink:href="#CMR17-30" transform="translate(91.380954 0) scale(0.996264)"/>
      </g>
     </g>
    </g>
    <g id="xtick_6">
     <g id="line2d_6">
      <g>
       <use xlink:href="#m3bfd8aeeb9" x="372.798687" y="273.312" style="stroke: #000000; stroke-width: 0.8"/>
      </g>
     </g>
     <g id="text_6">
      <!-- $\mathdefault{1000}$ -->
      <g transform="translate(362.836016 287.230498) scale(0.1 -0.1)">
       <defs>
        <path id="CMR17-31" d="M 1702 4058 
C 1702 4192 1696 4192 1606 4192 
C 1357 3916 979 3827 621 3827 
C 602 3827 570 3827 563 3808 
C 557 3795 557 3782 557 3648 
C 755 3648 1088 3686 1344 3839 
L 1344 461 
C 1344 236 1331 160 781 160 
L 589 160 
L 589 0 
C 896 0 1216 0 1523 0 
C 1830 0 2150 0 2458 0 
L 2458 160 
L 2266 160 
C 1715 160 1702 230 1702 458 
L 1702 4058 
z
" transform="scale(0.015625)"/>
       </defs>
       <use xlink:href="#CMR17-31" transform="scale(0.996264)"/>
       <use xlink:href="#CMR17-30" transform="translate(45.690477 0) scale(0.996264)"/>
       <use xlink:href="#CMR17-30" transform="translate(91.380954 0) scale(0.996264)"/>
       <use xlink:href="#CMR17-30" transform="translate(137.071431 0) scale(0.996264)"/>
      </g>
     </g>
    </g>
   </g>
   <g id="matplotlib.axis_2">
    <g id="ytick_1">
     <g id="line2d_7">
      <defs>
       <path id="m3e757b8e2c" d="M 0 0 
L -3.5 0 
" style="stroke: #000000; stroke-width: 0.8"/>
      </defs>
      <g>
       <use xlink:href="#m3e757b8e2c" x="31.911414" y="230.34328" style="stroke: #000000; stroke-width: 0.8"/>
      </g>
     </g>
     <g id="text_7">
      <!-- $\mathdefault{8.5}$ -->
      <g transform="translate(12.181335 233.80253) scale(0.1 -0.1)">
       <defs>
        <path id="CMMI12-3a" d="M 1178 307 
C 1178 492 1024 619 870 619 
C 685 619 557 466 557 313 
C 557 128 710 0 864 0 
C 1050 0 1178 153 1178 307 
z
" transform="scale(0.015625)"/>
        <path id="CMR17-35" d="M 730 3692 
C 794 3666 1056 3584 1325 3584 
C 1920 3584 2246 3911 2432 4100 
C 2432 4157 2432 4192 2394 4192 
C 2387 4192 2374 4192 2323 4163 
C 2099 4058 1837 3973 1517 3973 
C 1325 3973 1037 3999 723 4139 
C 653 4171 640 4171 634 4171 
C 602 4171 595 4164 595 4037 
L 595 2203 
C 595 2089 595 2057 659 2057 
C 691 2057 704 2070 736 2114 
C 941 2401 1222 2522 1542 2522 
C 1766 2522 2246 2382 2246 1289 
C 2246 1085 2246 715 2054 421 
C 1894 159 1645 25 1370 25 
C 947 25 518 320 403 814 
C 429 807 480 795 506 795 
C 589 795 749 840 749 1038 
C 749 1210 627 1280 506 1280 
C 358 1280 262 1190 262 1011 
C 262 454 704 -128 1382 -128 
C 2042 -128 2669 440 2669 1264 
C 2669 2030 2170 2624 1549 2624 
C 1222 2624 947 2503 730 2274 
L 730 3692 
z
" transform="scale(0.015625)"/>
       </defs>
       <use xlink:href="#CMR17-38" transform="scale(0.996264)"/>
       <use xlink:href="#CMMI12-3a" transform="translate(45.690477 0) scale(0.996264)"/>
       <use xlink:href="#CMR17-35" transform="translate(72.787654 0) scale(0.996264)"/>
      </g>
     </g>
    </g>
    <g id="ytick_2">
     <g id="line2d_8">
      <g>
       <use xlink:href="#m3e757b8e2c" x="31.911414" y="183.236253" style="stroke: #000000; stroke-width: 0.8"/>
      </g>
     </g>
     <g id="text_8">
      <!-- $\mathdefault{9.0}$ -->
      <g transform="translate(12.181335 186.695502) scale(0.1 -0.1)">
       <defs>
        <path id="CMR17-39" d="M 2253 1864 
C 2253 464 1670 31 1190 31 
C 1043 31 685 31 538 294 
C 704 268 826 357 826 518 
C 826 692 685 749 595 749 
C 538 749 365 723 365 506 
C 365 71 742 -128 1203 -128 
C 1939 -128 2688 674 2688 2073 
C 2688 3817 1971 4179 1485 4179 
C 851 4179 243 3628 243 2778 
C 243 1991 762 1408 1414 1408 
C 1952 1408 2189 1903 2253 2112 
L 2253 1864 
z
M 1427 1510 
C 1254 1510 1011 1542 813 1922 
C 678 2169 678 2461 678 2771 
C 678 3146 678 3405 858 3684 
C 947 3817 1114 4032 1485 4032 
C 2240 4032 2240 2885 2240 2632 
C 2240 2182 2035 1510 1427 1510 
z
" transform="scale(0.015625)"/>
       </defs>
       <use xlink:href="#CMR17-39" transform="scale(0.996264)"/>
       <use xlink:href="#CMMI12-3a" transform="translate(45.690477 0) scale(0.996264)"/>
       <use xlink:href="#CMR17-30" transform="translate(72.787654 0) scale(0.996264)"/>
      </g>
     </g>
    </g>
    <g id="ytick_3">
     <g id="line2d_9">
      <g>
       <use xlink:href="#m3e757b8e2c" x="31.911414" y="136.129225" style="stroke: #000000; stroke-width: 0.8"/>
      </g>
     </g>
     <g id="text_9">
      <!-- $\mathdefault{9.5}$ -->
      <g transform="translate(12.181335 139.588475) scale(0.1 -0.1)">
       <use xlink:href="#CMR17-39" transform="scale(0.996264)"/>
       <use xlink:href="#CMMI12-3a" transform="translate(45.690477 0) scale(0.996264)"/>
       <use xlink:href="#CMR17-35" transform="translate(72.787654 0) scale(0.996264)"/>
      </g>
     </g>
    </g>
    <g id="ytick_4">
     <g id="line2d_10">
      <g>
       <use xlink:href="#m3e757b8e2c" x="31.911414" y="89.022198" style="stroke: #000000; stroke-width: 0.8"/>
      </g>
     </g>
     <g id="text_10">
      <!-- $\mathdefault{10.0}$ -->
      <g transform="translate(7.2 92.481447) scale(0.1 -0.1)">
       <use xlink:href="#CMR17-31" transform="scale(0.996264)"/>
       <use xlink:href="#CMR17-30" transform="translate(45.690477 0) scale(0.996264)"/>
       <use xlink:href="#CMMI12-3a" transform="translate(91.380954 0) scale(0.996264)"/>
       <use xlink:href="#CMR17-30" transform="translate(118.478131 0) scale(0.996264)"/>
      </g>
     </g>
    </g>
    <g id="ytick_5">
     <g id="line2d_11">
      <g>
       <use xlink:href="#m3e757b8e2c" x="31.911414" y="41.91517" style="stroke: #000000; stroke-width: 0.8"/>
      </g>
     </g>
     <g id="text_11">
      <!-- $\mathdefault{10.5}$ -->
      <g transform="translate(7.2 45.374419) scale(0.1 -0.1)">
       <use xlink:href="#CMR17-31" transform="scale(0.996264)"/>
       <use xlink:href="#CMR17-30" transform="translate(45.690477 0) scale(0.996264)"/>
       <use xlink:href="#CMMI12-3a" transform="translate(91.380954 0) scale(0.996264)"/>
       <use xlink:href="#CMR17-35" transform="translate(118.478131 0) scale(0.996264)"/>
      </g>
     </g>
    </g>
   </g>
   <g id="line2d_12">
    <path d="M 48.144142 25.573718 
L 48.468796 31.946353 
L 48.793451 30.178808 
L 49.118105 31.443579 
L 49.44276 31.866863 
L 49.767414 38.322965 
L 50.416723 44.627601 
L 50.741378 46.326417 
L 51.066032 37.11439 
L 51.390687 32.529067 
L 51.715342 19.419651 
L 52.039996 29.05882 
L 52.364651 30.292596 
L 52.689305 30.93257 
L 53.01396 33.355695 
L 53.338614 34.182847 
L 53.663269 31.886007 
L 53.987923 37.159288 
L 54.312578 35.172933 
L 54.637232 29.776216 
L 55.611196 37.717335 
L 55.935851 37.048592 
L 56.909814 53.61346 
L 57.234469 44.772691 
L 57.883778 50.995272 
L 58.208432 51.378486 
L 58.533087 49.252492 
L 59.182396 58.149789 
L 59.507051 65.926626 
L 59.831705 56.706156 
L 60.15636 57.898317 
L 60.805669 51.886016 
L 61.130323 53.074712 
L 61.454978 62.735569 
L 61.779632 63.079256 
L 62.104287 71.106498 
L 62.428942 60.59473 
L 62.753596 62.106142 
L 63.078251 55.127651 
L 63.402905 53.042502 
L 63.72756 61.846519 
L 64.052214 56.834245 
L 64.376869 57.184897 
L 65.026178 64.853019 
L 65.350832 73.559669 
L 65.675487 74.527984 
L 66.000142 65.383134 
L 66.324796 70.01325 
L 66.649451 63.900784 
L 66.974105 60.599398 
L 67.29876 63.406164 
L 67.623414 63.838 
L 67.948069 59.068133 
L 68.272723 57.362055 
L 68.597378 56.933307 
L 68.922032 53.094794 
L 69.246687 58.001704 
L 69.571342 68.802971 
L 69.895996 69.42366 
L 70.545305 63.876827 
L 70.86996 66.578314 
L 71.194614 67.442406 
L 71.519269 62.500597 
L 71.843923 62.065194 
L 72.168578 57.196305 
L 72.493232 49.206053 
L 72.817887 52.562315 
L 73.142542 54.413688 
L 73.467196 48.589301 
L 73.791851 52.294165 
L 74.44116 41.446585 
L 74.765814 41.801206 
L 75.090469 50.359484 
L 75.739778 44.345132 
L 76.064432 45.208162 
L 76.389087 48.467177 
L 76.713742 41.656202 
L 77.038396 40.380304 
L 77.363051 42.900779 
L 77.687705 42.811662 
L 78.01236 40.527886 
L 78.337014 42.949112 
L 78.661669 46.783905 
L 78.986323 42.51882 
L 79.310978 43.048982 
L 79.635632 42.742695 
L 79.960287 43.190624 
L 80.284942 46.74007 
L 80.609596 52.753456 
L 81.258905 55.994665 
L 81.58356 54.372085 
L 82.232869 49.141564 
L 82.557523 43.792392 
L 82.882178 43.857121 
L 83.531487 32.854095 
L 83.856142 36.691251 
L 84.180796 43.636551 
L 84.505451 43.323995 
L 84.830105 42.17628 
L 85.15476 41.496936 
L 85.479414 41.65193 
L 85.804069 33.326293 
L 86.128723 42.846468 
L 86.453378 46.186978 
L 86.778032 54.302363 
L 87.102687 59.19946 
L 87.427342 61.328287 
L 87.751996 57.779849 
L 88.401305 56.32135 
L 88.72596 61.461547 
L 89.050614 70.313085 
L 89.699923 68.075904 
L 90.024578 65.634997 
L 90.349232 67.500847 
L 90.673887 67.061333 
L 91.323196 77.725012 
L 91.972505 79.695243 
L 92.29716 87.396522 
L 92.621814 92.072519 
L 92.946469 87.862256 
L 93.271123 81.246358 
L 93.595778 79.191139 
L 93.920432 78.537573 
L 94.245087 68.216395 
L 94.569742 69.094679 
L 94.894396 70.397858 
L 95.543705 84.688479 
L 95.86836 84.586358 
L 96.193014 80.010327 
L 96.517669 85.260457 
L 96.842323 94.613872 
L 97.166978 94.413144 
L 97.491632 89.551872 
L 97.816287 86.47854 
L 98.140942 87.945805 
L 98.465596 85.28822 
L 98.790251 92.426172 
L 99.114905 95.006717 
L 99.43956 86.162304 
L 99.764214 87.274764 
L 100.088869 94.643727 
L 100.413523 96.125169 
L 100.738178 93.913315 
L 101.062832 90.691804 
L 101.387487 98.349353 
L 101.712142 97.971084 
L 102.036796 100.356828 
L 102.686105 108.235193 
L 103.01076 109.249774 
L 103.335414 112.051065 
L 103.660069 106.988281 
L 103.984723 105.40902 
L 104.309378 105.94889 
L 104.634032 102.190574 
L 104.958687 105.103573 
L 105.283342 106.975142 
L 105.607996 109.949082 
L 105.932651 116.178834 
L 106.257305 111.762114 
L 106.58196 112.863118 
L 106.906614 110.030712 
L 107.231269 104.646902 
L 107.555923 111.465177 
L 107.880578 107.492261 
L 108.205232 114.465002 
L 108.529887 115.939991 
L 108.854542 119.266609 
L 109.179196 116.765918 
L 109.503851 118.80787 
L 109.828505 109.856248 
L 110.15316 111.052465 
L 110.477814 113.296993 
L 110.802469 104.752559 
L 111.127123 104.518766 
L 111.451778 102.379782 
L 111.776432 102.934611 
L 112.101087 110.46958 
L 112.425742 104.705722 
L 112.750396 108.89062 
L 113.075051 98.642457 
L 113.399705 101.848835 
L 113.72436 96.831447 
L 114.049014 96.46334 
L 114.373669 94.483585 
L 114.698323 94.768106 
L 115.022978 94.382602 
L 115.347632 97.865492 
L 115.672287 105.546492 
L 116.321596 103.357346 
L 116.646251 111.976673 
L 116.970905 103.678578 
L 117.29556 100.752363 
L 117.620214 104.202272 
L 117.944869 106.331079 
L 118.269523 103.09302 
L 118.594178 103.179541 
L 118.918832 104.104046 
L 119.243487 101.108777 
L 119.568142 111.550502 
L 119.892796 107.068983 
L 120.217451 104.881299 
L 120.542105 107.96986 
L 120.86676 108.074618 
L 121.191414 107.36075 
L 121.516069 110.791347 
L 121.840723 112.369993 
L 122.165378 117.351187 
L 122.490032 125.50304 
L 122.814687 122.884703 
L 123.139342 130.499347 
L 123.463996 130.504334 
L 123.788651 125.201439 
L 124.113305 123.878933 
L 124.43796 126.44179 
L 124.762614 122.049072 
L 125.087269 120.876252 
L 125.411923 120.453156 
L 125.736578 118.573375 
L 126.061232 118.0719 
L 126.385887 126.379711 
L 126.710542 130.32304 
L 127.035196 126.124913 
L 127.359851 129.622722 
L 127.684505 129.946548 
L 128.00916 129.413167 
L 128.333814 127.765141 
L 128.658469 127.483442 
L 128.983123 128.530615 
L 129.307778 124.460318 
L 129.632432 127.455091 
L 130.281742 135.938857 
L 130.606396 135.547563 
L 130.931051 139.088862 
L 131.255705 140.02422 
L 131.58036 132.985366 
L 131.905014 129.421619 
L 132.229669 134.10441 
L 132.554323 128.815296 
L 132.878978 128.598557 
L 133.203632 122.368848 
L 133.528287 119.625354 
L 133.852942 115.918188 
L 134.502251 115.55371 
L 134.826905 114.660183 
L 135.15156 122.800105 
L 135.476214 120.456082 
L 135.800869 130.143888 
L 136.125523 135.377104 
L 136.450178 132.321555 
L 136.774832 132.480474 
L 137.099487 130.682666 
L 137.424142 125.205336 
L 137.748796 130.191045 
L 138.073451 120.319595 
L 138.72276 134.697518 
L 139.047414 134.0028 
L 139.372069 122.757206 
L 139.696723 121.18427 
L 140.021378 130.152785 
L 140.346032 127.556955 
L 140.995342 140.495207 
L 141.644651 144.261942 
L 141.969305 142.595934 
L 142.618614 136.154072 
L 142.943269 124.307237 
L 143.267923 132.437123 
L 143.592578 131.149138 
L 143.917232 134.282788 
L 144.241887 131.189958 
L 144.566542 129.752874 
L 144.891196 124.439349 
L 145.215851 129.045679 
L 145.540505 128.418311 
L 145.86516 126.904271 
L 146.189814 129.996065 
L 146.514469 129.010547 
L 146.839123 130.485061 
L 147.163778 129.065202 
L 147.488432 132.587588 
L 147.813087 132.415035 
L 148.137742 136.250113 
L 148.462396 137.108208 
L 149.111705 127.53889 
L 149.43636 128.147784 
L 149.761014 126.090233 
L 150.085669 121.284816 
L 150.410323 120.638803 
L 150.734978 124.339614 
L 151.059632 119.22993 
L 151.384287 116.06311 
L 151.708942 115.866395 
L 152.033596 113.143663 
L 152.358251 116.361503 
L 152.682905 115.436052 
L 153.00756 113.994529 
L 153.332214 117.470202 
L 153.656869 117.026067 
L 153.981523 121.72276 
L 154.306178 120.994446 
L 154.630832 130.295445 
L 154.955487 130.218548 
L 155.280142 127.937053 
L 155.604796 129.919639 
L 155.929451 134.488725 
L 156.254105 137.262963 
L 156.57876 136.539839 
L 156.903414 136.295853 
L 157.228069 131.366239 
L 157.552723 139.232695 
L 157.877378 139.362866 
L 158.202032 131.762522 
L 158.526687 140.422502 
L 158.851342 131.903839 
L 159.175996 139.593528 
L 159.500651 137.41497 
L 159.825305 131.880602 
L 160.14996 135.251681 
L 160.474614 123.309725 
L 160.799269 127.440892 
L 161.123923 122.537626 
L 161.448578 124.308455 
L 161.773232 116.165696 
L 162.097887 127.055936 
L 162.422542 125.748245 
L 162.747196 129.369375 
L 163.071851 124.745409 
L 163.72116 128.172129 
L 164.045814 119.273141 
L 164.370469 117.326039 
L 164.695123 117.838557 
L 165.019778 115.797872 
L 165.344432 120.475629 
L 165.669087 119.642149 
L 165.993742 111.682507 
L 166.318396 108.063614 
L 166.643051 113.407513 
L 166.967705 105.811186 
L 167.29236 109.347014 
L 167.617014 110.398024 
L 167.941669 107.346909 
L 168.266323 112.955108 
L 168.915632 93.737409 
L 169.240287 95.245999 
L 169.564942 89.018816 
L 170.214251 92.969316 
L 170.538905 96.83916 
L 171.188214 87.442862 
L 171.512869 92.024159 
L 171.837523 100.110922 
L 172.486832 94.075358 
L 172.811487 98.084042 
L 173.136142 100.648386 
L 173.460796 108.704115 
L 173.785451 111.577989 
L 174.110105 110.431575 
L 174.759414 116.333733 
L 175.084069 111.301435 
L 175.408723 108.612449 
L 176.058032 98.899454 
L 176.382687 98.470242 
L 176.707342 96.969172 
L 177.031996 96.014004 
L 177.356651 102.861914 
L 177.681305 102.714879 
L 178.00596 98.582403 
L 178.330614 100.351953 
L 178.655269 100.244345 
L 178.979923 92.981279 
L 179.304578 88.613125 
L 179.629232 89.856266 
L 179.953887 89.508937 
L 180.278542 87.518126 
L 180.603196 82.246943 
L 180.927851 82.209405 
L 181.252505 86.576451 
L 181.57716 88.826881 
L 182.226469 99.803677 
L 182.551123 100.398603 
L 182.875778 88.136525 
L 183.200432 93.098747 
L 183.849742 88.870825 
L 184.174396 87.3067 
L 184.499051 95.790587 
L 184.823705 93.81977 
L 185.14836 94.2746 
L 185.473014 98.371986 
L 185.797669 96.153444 
L 186.122323 102.449916 
L 186.446978 106.558762 
L 186.771632 106.548006 
L 187.096287 106.974615 
L 187.420942 104.502461 
L 187.745596 107.922543 
L 188.070251 114.548452 
L 188.394905 111.240554 
L 188.71956 112.279162 
L 189.044214 104.603317 
L 189.368869 102.770866 
L 189.693523 104.412317 
L 190.018178 100.436373 
L 190.342832 99.61678 
L 190.667487 100.908524 
L 190.992142 99.265922 
L 191.316796 94.085374 
L 191.641451 91.799265 
L 191.966105 98.191748 
L 192.29076 97.172606 
L 192.615414 104.724913 
L 192.940069 89.308018 
L 193.264723 90.13242 
L 193.589378 92.204157 
L 193.914032 92.198983 
L 194.238687 91.120114 
L 194.563342 92.572557 
L 194.887996 93.014032 
L 195.212651 99.857268 
L 195.537305 100.767468 
L 195.86196 102.791161 
L 196.186614 92.057914 
L 196.511269 97.112418 
L 196.835923 93.608565 
L 197.160578 91.802462 
L 197.485232 91.844029 
L 197.809887 94.496986 
L 198.783851 105.618911 
L 199.108505 112.73457 
L 199.43316 110.433585 
L 200.407123 98.059558 
L 200.731778 96.54021 
L 201.056432 93.372787 
L 201.705742 104.204569 
L 202.030396 106.699231 
L 202.355051 110.078089 
L 203.00436 100.698992 
L 203.329014 100.74337 
L 203.653669 96.998015 
L 204.302978 97.355531 
L 204.952287 100.990511 
L 205.276942 104.493644 
L 205.601596 102.327708 
L 205.926251 103.6999 
L 206.250905 96.431752 
L 206.57556 99.468473 
L 206.900214 105.734187 
L 207.224869 101.262721 
L 207.549523 103.67118 
L 207.874178 98.947067 
L 208.198832 91.855462 
L 208.523487 91.635263 
L 208.848142 90.138356 
L 209.172796 86.764064 
L 209.497451 100.940589 
L 209.822105 104.362783 
L 210.14676 106.121915 
L 210.471414 111.398826 
L 210.796069 113.398979 
L 211.120723 119.445497 
L 211.445378 115.097855 
L 212.094687 127.212081 
L 212.419342 128.918288 
L 212.743996 129.483606 
L 213.068651 134.59991 
L 213.71796 127.793858 
L 214.367269 132.493796 
L 214.691923 131.049485 
L 215.016578 128.596472 
L 215.341232 118.189295 
L 215.665887 119.205743 
L 215.990542 119.698544 
L 216.315196 117.595524 
L 216.639851 109.592113 
L 216.964505 114.370155 
L 217.28916 111.447923 
L 217.613814 119.821524 
L 217.938469 114.100302 
L 218.263123 118.62071 
L 218.587778 120.928216 
L 218.912432 125.331142 
L 219.237087 118.915072 
L 219.561742 120.017554 
L 219.886396 119.40926 
L 220.211051 117.637524 
L 220.535705 129.192928 
L 220.86036 129.210343 
L 221.185014 130.383793 
L 221.509669 130.771962 
L 221.834323 130.836608 
L 222.158978 126.560549 
L 222.483632 126.564088 
L 222.808287 132.627111 
L 223.132942 131.254865 
L 223.457596 130.851825 
L 223.782251 124.346912 
L 224.106905 127.050368 
L 224.43156 128.11005 
L 224.756214 122.777636 
L 225.080869 114.296264 
L 225.405523 110.676913 
L 225.730178 111.412861 
L 226.054832 109.0172 
L 226.379487 114.329955 
L 226.704142 112.680104 
L 227.028796 107.995082 
L 227.353451 110.312252 
L 227.678105 115.668629 
L 228.00276 113.907549 
L 228.327414 115.971854 
L 228.652069 118.991359 
L 228.976723 117.280664 
L 229.301378 120.041588 
L 229.626032 131.619774 
L 229.950687 130.754848 
L 230.275342 127.824841 
L 230.599996 131.221336 
L 230.924651 129.589063 
L 231.249305 124.950648 
L 231.57396 122.843438 
L 231.898614 118.760904 
L 232.223269 123.628717 
L 232.547923 125.236338 
L 232.872578 136.683057 
L 233.197232 132.349731 
L 233.521887 130.486367 
L 233.846542 134.91515 
L 234.171196 135.405535 
L 234.495851 137.212967 
L 234.820505 142.855578 
L 235.794469 129.60655 
L 236.119123 141.122905 
L 236.443778 140.674875 
L 236.768432 147.24267 
L 237.093087 140.238865 
L 237.417742 143.124313 
L 237.742396 139.439043 
L 238.067051 137.334142 
L 238.391705 139.07696 
L 238.71636 143.501544 
L 239.041014 144.499177 
L 239.365669 142.765015 
L 239.690323 136.861234 
L 240.014978 143.927545 
L 240.339632 134.443666 
L 240.664287 129.17231 
L 240.988942 130.126845 
L 241.313596 134.213928 
L 241.638251 130.302477 
L 241.962905 130.071659 
L 242.28756 137.116357 
L 242.612214 139.709131 
L 242.936869 135.231491 
L 243.261523 133.626583 
L 243.586178 134.289224 
L 243.910832 132.845914 
L 244.235487 130.230846 
L 244.560142 134.369285 
L 244.884796 127.37963 
L 245.209451 122.841809 
L 245.534105 125.116118 
L 245.85876 122.22867 
L 246.183414 123.396459 
L 246.508069 121.868281 
L 246.832723 124.934711 
L 247.482032 136.687993 
L 247.806687 128.077801 
L 248.131342 129.91768 
L 248.455996 129.343753 
L 248.780651 127.483254 
L 249.105305 131.647341 
L 249.42996 129.110138 
L 249.754614 135.710905 
L 250.403923 123.07821 
L 250.728578 121.470144 
L 251.053232 111.045427 
L 251.377887 113.048617 
L 251.702542 112.758714 
L 252.027196 115.921491 
L 252.351851 126.544359 
L 252.676505 126.284795 
L 253.00116 127.052369 
L 253.325814 126.220545 
L 253.650469 129.487047 
L 253.975123 127.845284 
L 254.299778 122.988944 
L 254.624432 122.785821 
L 254.949087 124.276131 
L 255.273742 124.561935 
L 255.598396 136.982965 
L 255.923051 137.501741 
L 256.247705 138.379577 
L 256.57236 124.490107 
L 256.897014 119.890367 
L 257.221669 130.346893 
L 257.546323 134.705441 
L 257.870978 128.544074 
L 258.195632 135.762309 
L 258.520287 139.896093 
L 258.844942 133.898467 
L 259.169596 136.041562 
L 259.494251 135.914943 
L 259.818905 139.38995 
L 260.14356 137.618967 
L 260.468214 136.721857 
L 260.792869 141.583434 
L 261.117523 141.398268 
L 261.442178 145.84978 
L 261.766832 144.907103 
L 262.091487 149.396614 
L 262.416142 148.471164 
L 262.740796 149.452296 
L 263.065451 149.002485 
L 263.390105 157.938743 
L 264.039414 162.23877 
L 264.364069 162.220998 
L 264.688723 160.819638 
L 265.013378 160.920145 
L 265.662687 163.307061 
L 265.987342 165.066661 
L 266.636651 182.512659 
L 266.961305 179.261244 
L 267.28596 188.192369 
L 267.610614 190.614073 
L 267.935269 188.228428 
L 268.259923 191.19946 
L 268.584578 190.932835 
L 268.909232 184.484295 
L 269.233887 186.003721 
L 269.558542 182.815262 
L 269.883196 178.120007 
L 270.207851 177.4849 
L 270.532505 173.147275 
L 271.181814 167.872413 
L 271.506469 169.465521 
L 271.831123 159.860438 
L 272.155778 169.590225 
L 272.480432 167.193743 
L 272.805087 162.239295 
L 273.129742 171.456346 
L 273.454396 166.560035 
L 273.779051 169.807089 
L 274.103705 169.686552 
L 274.42836 169.851752 
L 274.753014 171.795597 
L 275.077669 170.969501 
L 275.402323 169.210055 
L 275.726978 163.092144 
L 276.051632 168.895113 
L 277.025596 155.52219 
L 277.350251 154.502017 
L 277.674905 163.830837 
L 277.99956 163.488454 
L 278.324214 160.509462 
L 278.648869 159.929617 
L 278.973523 161.570069 
L 279.298178 160.489464 
L 279.622832 159.860344 
L 279.947487 157.488375 
L 280.272142 158.867986 
L 280.596796 165.301377 
L 280.921451 155.142252 
L 281.246105 154.608293 
L 281.57076 157.55383 
L 281.895414 159.455003 
L 282.220069 164.556748 
L 282.544723 165.161872 
L 282.869378 165.525717 
L 283.194032 172.059456 
L 283.518687 171.18098 
L 283.843342 174.451284 
L 284.167996 168.158513 
L 284.492651 166.246913 
L 284.817305 163.218022 
L 285.14196 162.840281 
L 285.466614 163.380182 
L 285.791269 163.543368 
L 286.115923 165.066426 
L 286.440578 168.291638 
L 286.765232 161.262762 
L 287.089887 160.39878 
L 287.414542 161.816505 
L 287.739196 157.906693 
L 288.063851 163.073923 
L 288.388505 162.867023 
L 289.037814 155.989849 
L 289.362469 154.669667 
L 289.687123 156.254939 
L 290.011778 156.668982 
L 290.336432 159.259625 
L 290.661087 153.904478 
L 290.985742 154.184933 
L 291.310396 161.150523 
L 291.635051 158.020561 
L 291.959705 163.106125 
L 292.28436 174.702527 
L 292.609014 164.96624 
L 292.933669 170.806122 
L 293.258323 167.246961 
L 293.582978 155.078071 
L 293.907632 156.300039 
L 294.556942 163.080717 
L 294.881596 164.783961 
L 295.206251 171.227925 
L 295.530905 166.000909 
L 295.85556 163.112169 
L 296.180214 162.377833 
L 296.504869 161.234828 
L 296.829523 163.20925 
L 297.154178 160.9627 
L 297.478832 160.646604 
L 297.803487 159.798655 
L 298.128142 174.165585 
L 298.452796 171.505556 
L 299.102105 172.654349 
L 299.42676 172.506527 
L 299.751414 178.513645 
L 300.400723 166.475593 
L 300.725378 166.322339 
L 301.050032 177.995999 
L 301.374687 177.360151 
L 301.699342 178.824929 
L 302.023996 179.011493 
L 302.348651 173.635877 
L 302.673305 183.298253 
L 303.322614 188.564989 
L 303.647269 186.3755 
L 303.971923 197.829309 
L 304.296578 199.798032 
L 304.621232 191.845475 
L 304.945887 194.228223 
L 305.270542 194.185963 
L 305.595196 193.874543 
L 305.919851 198.365652 
L 306.244505 195.226947 
L 306.56916 198.031374 
L 306.893814 197.907215 
L 307.218469 198.572305 
L 307.543123 205.75364 
L 307.867778 205.918247 
L 308.192432 199.895774 
L 308.841742 195.970932 
L 309.166396 202.403748 
L 309.491051 199.434432 
L 309.815705 194.425229 
L 310.14036 193.605731 
L 310.465014 197.72909 
L 310.789669 198.337067 
L 311.114323 194.056829 
L 311.438978 198.707648 
L 311.763632 198.337921 
L 312.088287 199.592097 
L 312.412942 198.343081 
L 312.737596 200.19716 
L 313.062251 204.608834 
L 313.386905 196.067633 
L 313.71156 195.321653 
L 314.036214 192.453396 
L 314.360869 192.645406 
L 314.685523 190.103866 
L 315.010178 183.354124 
L 315.659487 181.50523 
L 315.984142 182.100731 
L 316.308796 178.750762 
L 316.633451 188.168858 
L 316.958105 188.739199 
L 317.28276 197.790388 
L 317.607414 196.315862 
L 317.932069 205.558028 
L 318.256723 198.772329 
L 318.581378 205.284847 
L 318.906032 207.905265 
L 319.230687 209.501009 
L 319.555342 209.202062 
L 319.879996 208.277437 
L 320.204651 206.163406 
L 320.529305 206.863693 
L 320.85396 207.967051 
L 321.178614 205.192753 
L 321.503269 207.647239 
L 321.827923 208.014822 
L 322.152578 206.049663 
L 322.477232 200.523371 
L 322.801887 198.743144 
L 323.126542 206.889591 
L 323.451196 203.576719 
L 323.775851 208.019624 
L 324.100505 210.561937 
L 324.42516 211.334009 
L 324.749814 203.383178 
L 325.074469 200.94688 
L 325.399123 212.301734 
L 325.723778 210.778239 
L 326.048432 210.734509 
L 326.373087 213.906403 
L 326.697742 210.186345 
L 327.022396 217.290202 
L 327.347051 217.496872 
L 327.671705 219.584447 
L 327.99636 225.938969 
L 328.321014 227.728605 
L 328.645669 214.727861 
L 329.294978 217.88364 
L 329.619632 213.131435 
L 329.944287 213.534751 
L 330.268942 206.514896 
L 330.593596 207.127079 
L 330.918251 208.114817 
L 331.242905 204.267288 
L 331.892214 206.117668 
L 332.216869 214.386971 
L 332.541523 209.753527 
L 333.190832 204.694112 
L 333.515487 208.452569 
L 333.840142 210.187041 
L 334.164796 217.552078 
L 334.489451 218.331256 
L 334.814105 220.217347 
L 335.13876 219.670622 
L 335.463414 218.525397 
L 335.788069 215.032635 
L 336.112723 219.468433 
L 336.437378 220.925794 
L 336.762032 216.901808 
L 337.735996 214.654275 
L 338.060651 213.608519 
L 338.385305 219.291269 
L 338.70996 227.49693 
L 339.034614 226.651635 
L 339.359269 226.156319 
L 339.683923 228.205362 
L 340.008578 231.775063 
L 340.333232 238.421534 
L 341.307196 227.319304 
L 341.631851 226.877314 
L 341.956505 224.402205 
L 342.28116 234.576097 
L 342.605814 226.313771 
L 342.930469 222.854955 
L 343.255123 213.136074 
L 343.579778 209.30376 
L 343.904432 211.872073 
L 344.229087 219.630358 
L 344.553742 219.803274 
L 344.878396 222.482246 
L 345.203051 217.028692 
L 345.527705 207.705838 
L 345.85236 206.729111 
L 346.177014 205.390817 
L 346.501669 206.210074 
L 346.826323 203.810584 
L 347.150978 210.696465 
L 347.475632 211.798211 
L 347.800287 204.516545 
L 348.449596 208.637783 
L 349.098905 219.156413 
L 349.42356 211.736699 
L 349.748214 217.047813 
L 350.072869 220.357586 
L 350.397523 220.067423 
L 350.722178 219.994579 
L 351.046832 223.517597 
L 351.371487 224.514069 
L 351.696142 229.229914 
L 352.020796 225.574582 
L 352.345451 231.975995 
L 352.670105 235.426521 
L 352.99476 242.807042 
L 353.319414 242.569984 
L 353.644069 245.609497 
L 353.968723 239.148389 
L 354.293378 247.334816 
L 354.618032 249.505896 
L 354.942687 246.501844 
L 355.267342 244.550569 
L 355.591996 250.285668 
L 355.916651 246.948607 
L 356.241305 247.212159 
L 356.56596 247.707328 
L 356.890614 246.058341 
L 357.215269 240.914835 
L 357.539923 245.632785 
L 357.864578 243.589467 
L 358.189232 242.564599 
L 358.513887 248.282086 
L 358.838542 245.325218 
L 359.163196 250.533924 
L 359.487851 257.832545 
L 359.812505 261.216 
L 360.13716 257.403993 
L 360.461814 252.140056 
L 360.786469 254.697603 
L 361.111123 246.917055 
L 361.435778 248.082496 
L 361.760432 248.805675 
L 362.085087 255.163064 
L 362.409742 252.755446 
L 362.734396 251.385116 
L 363.059051 244.136633 
L 363.383705 253.028706 
L 363.70836 250.147141 
L 364.033014 239.722856 
L 364.357669 249.113947 
L 364.682323 244.172817 
L 365.006978 243.766997 
L 365.331632 246.895275 
L 365.656287 239.023627 
L 365.980942 244.393731 
L 366.305596 247.687469 
L 366.630251 246.940892 
L 366.954905 255.479055 
L 367.27956 253.914462 
L 367.604214 250.957093 
L 367.928869 244.992341 
L 368.253523 250.17995 
L 368.578178 246.372136 
L 368.902832 245.169023 
L 369.227487 246.307451 
L 369.552142 249.725564 
L 369.876796 255.290654 
L 370.201451 249.495501 
L 370.526105 250.402835 
L 370.85076 250.720753 
L 371.500069 251.843375 
L 371.824723 246.576608 
L 372.149378 248.817419 
L 372.474032 253.30173 
L 372.798687 250.81539 
L 372.798687 250.81539 
" clip-path="url(#p1b066b381a)" style="fill: none; stroke: #e46e56; stroke-width: 1.5; stroke-linecap: square"/>
   </g>
   <g id="line2d_13">
    <path d="M 48.144142 53.906581 
L 48.468796 49.185133 
L 48.793451 40.96645 
L 49.118105 40.035191 
L 49.44276 33.955112 
L 49.767414 34.022709 
L 50.092069 25.166216 
L 50.416723 27.774523 
L 50.741378 28.326105 
L 51.066032 23.271345 
L 51.390687 29.377837 
L 51.715342 22.565977 
L 52.039996 27.792123 
L 52.364651 26.2518 
L 52.689305 29.133567 
L 53.01396 29.654861 
L 53.338614 34.353372 
L 53.663269 36.304602 
L 53.987923 41.583437 
L 54.312578 39.565144 
L 54.961887 33.305048 
L 55.611196 44.652246 
L 55.935851 51.538369 
L 56.260505 48.175938 
L 56.58516 59.417818 
L 56.909814 57.329196 
L 57.559123 62.987525 
L 57.883778 70.126682 
L 58.208432 63.767167 
L 58.533087 59.9326 
L 58.857742 54.2597 
L 59.182396 54.621039 
L 59.507051 59.552519 
L 59.831705 59.564781 
L 60.15636 57.868118 
L 60.481014 68.907751 
L 60.805669 74.531787 
L 61.130323 77.111954 
L 61.779632 70.415104 
L 62.104287 71.867518 
L 62.428942 66.05913 
L 62.753596 67.000628 
L 63.078251 62.823362 
L 63.402905 55.764126 
L 63.72756 62.55929 
L 64.052214 65.107881 
L 64.376869 62.522966 
L 64.701523 64.539145 
L 65.026178 59.044891 
L 65.350832 57.201811 
L 65.675487 56.081249 
L 66.000142 55.639685 
L 66.324796 66.018275 
L 66.649451 69.311837 
L 66.974105 63.800986 
L 67.623414 79.416591 
L 67.948069 78.2109 
L 68.272723 79.54268 
L 68.597378 80.344153 
L 68.922032 82.256686 
L 69.246687 74.383447 
L 69.571342 83.091248 
L 69.895996 87.382771 
L 70.220651 87.359805 
L 70.545305 86.05509 
L 71.194614 79.587653 
L 71.519269 81.564051 
L 71.843923 78.616986 
L 72.168578 80.480279 
L 72.493232 78.756916 
L 72.817887 82.356523 
L 73.142542 76.397722 
L 73.791851 72.824808 
L 74.116505 75.61704 
L 74.44116 76.159658 
L 75.090469 82.104459 
L 75.415123 81.502952 
L 75.739778 77.005103 
L 76.064432 77.512211 
L 76.389087 77.288458 
L 76.713742 84.076056 
L 77.038396 86.830859 
L 77.687705 101.90801 
L 78.01236 94.649008 
L 78.337014 99.035912 
L 78.661669 98.612733 
L 78.986323 91.800339 
L 79.310978 87.476977 
L 79.960287 100.890301 
L 80.284942 98.548216 
L 80.609596 93.097291 
L 80.934251 98.68518 
L 81.258905 97.970138 
L 81.58356 84.175542 
L 81.908214 85.087112 
L 82.232869 82.961369 
L 82.557523 86.628599 
L 82.882178 88.48987 
L 83.206832 96.582418 
L 83.531487 90.574338 
L 84.180796 84.009495 
L 84.505451 88.361737 
L 84.830105 87.651856 
L 85.479414 74.019797 
L 86.128723 86.060331 
L 86.453378 84.689368 
L 86.778032 78.747324 
L 87.102687 77.461877 
L 87.427342 86.793926 
L 87.751996 86.29525 
L 88.076651 88.877827 
L 88.401305 95.137504 
L 88.72596 84.905055 
L 89.050614 86.895713 
L 89.375269 81.118843 
L 89.699923 85.001655 
L 90.024578 83.724581 
L 90.673887 77.015558 
L 90.998542 76.618746 
L 91.323196 86.508483 
L 91.647851 88.607448 
L 91.972505 80.838545 
L 92.29716 86.327662 
L 92.621814 83.492566 
L 92.946469 73.50275 
L 93.271123 74.167678 
L 93.595778 74.413395 
L 93.920432 79.915157 
L 94.569742 74.451549 
L 94.894396 65.897747 
L 95.219051 71.712461 
L 95.86836 74.459892 
L 96.193014 71.572792 
L 96.517669 71.026783 
L 96.842323 77.122286 
L 97.166978 70.723622 
L 97.491632 68.420446 
L 97.816287 62.21009 
L 98.140942 69.682787 
L 98.465596 59.587954 
L 98.790251 61.592896 
L 99.114905 53.905169 
L 99.43956 60.659177 
L 99.764214 58.920591 
L 100.413523 66.660602 
L 100.738178 69.580232 
L 101.387487 61.386116 
L 101.712142 66.475931 
L 102.036796 65.827273 
L 102.361451 73.496834 
L 102.686105 66.474182 
L 103.01076 69.721159 
L 103.660069 64.56187 
L 103.984723 54.001875 
L 104.309378 60.04196 
L 104.634032 49.615012 
L 104.958687 56.155275 
L 105.283342 57.744183 
L 105.607996 57.815114 
L 105.932651 54.235879 
L 106.257305 56.590025 
L 106.58196 53.973574 
L 106.906614 46.336113 
L 107.231269 54.458336 
L 107.555923 58.534057 
L 107.880578 64.467456 
L 108.205232 61.596251 
L 108.529887 60.681736 
L 108.854542 57.668999 
L 109.179196 57.844952 
L 109.503851 53.808019 
L 109.828505 46.127942 
L 110.15316 47.34656 
L 110.477814 42.178891 
L 110.802469 49.615048 
L 111.127123 51.224473 
L 111.451778 55.259501 
L 111.776432 50.516888 
L 112.101087 49.827684 
L 112.425742 39.061445 
L 112.750396 46.097156 
L 113.399705 43.432109 
L 113.72436 37.812584 
L 114.049014 37.733682 
L 114.373669 40.80446 
L 114.698323 46.498746 
L 115.022978 43.707167 
L 115.347632 34.38313 
L 115.672287 45.207314 
L 115.996942 50.371476 
L 116.646251 42.964103 
L 117.29556 47.795937 
L 117.944869 61.04378 
L 118.269523 61.967104 
L 118.594178 59.046968 
L 118.918832 62.715412 
L 119.243487 61.62743 
L 119.568142 65.328544 
L 119.892796 65.491809 
L 120.217451 75.131823 
L 120.542105 66.084182 
L 120.86676 65.046343 
L 121.191414 59.269549 
L 121.840723 76.693828 
L 122.165378 76.058299 
L 122.814687 70.192373 
L 123.139342 78.333558 
L 123.463996 71.580124 
L 123.788651 74.486405 
L 124.113305 61.693904 
L 124.43796 60.47272 
L 124.762614 62.560603 
L 125.087269 69.620484 
L 125.411923 65.044211 
L 125.736578 63.813763 
L 126.061232 67.473253 
L 126.385887 58.749 
L 126.710542 56.451186 
L 127.035196 56.642225 
L 127.359851 61.514606 
L 127.684505 72.094521 
L 128.00916 70.443323 
L 128.333814 68.05921 
L 128.658469 69.091721 
L 128.983123 74.659439 
L 129.307778 68.685564 
L 129.632432 58.205492 
L 129.957087 59.057415 
L 130.281742 53.309991 
L 130.606396 50.492333 
L 130.931051 45.867716 
L 131.255705 58.131613 
L 131.58036 61.817443 
L 131.905014 60.785008 
L 132.229669 60.366582 
L 132.554323 58.014628 
L 132.878978 52.008161 
L 133.203632 55.842201 
L 133.528287 52.530919 
L 133.852942 56.901533 
L 134.177596 56.614865 
L 134.502251 66.512521 
L 135.15156 59.944297 
L 135.476214 61.380277 
L 135.800869 61.731706 
L 136.125523 65.809718 
L 136.450178 65.968125 
L 136.774832 56.506241 
L 137.099487 53.261529 
L 137.748796 53.61045 
L 138.073451 52.162136 
L 138.398105 53.39509 
L 138.72276 62.33217 
L 139.047414 64.176449 
L 139.372069 63.101796 
L 139.696723 64.053764 
L 140.346032 77.455399 
L 140.995342 70.426286 
L 141.319996 74.316374 
L 141.644651 81.101764 
L 141.969305 78.562675 
L 142.29396 77.161966 
L 142.618614 78.929089 
L 142.943269 75.734457 
L 143.267923 83.767192 
L 143.917232 67.312726 
L 144.241887 57.760994 
L 144.566542 58.047144 
L 144.891196 56.31979 
L 145.215851 52.435578 
L 145.540505 62.264821 
L 146.514469 66.531844 
L 146.839123 71.196964 
L 147.163778 58.082089 
L 147.488432 66.822273 
L 147.813087 66.474631 
L 148.137742 64.923198 
L 148.462396 58.033752 
L 148.787051 61.046954 
L 149.111705 62.412727 
L 149.43636 59.75119 
L 149.761014 58.390334 
L 150.085669 53.69775 
L 150.410323 54.159417 
L 150.734978 51.666022 
L 151.059632 50.091591 
L 151.384287 49.399951 
L 151.708942 52.639686 
L 152.033596 54.246727 
L 152.358251 57.48016 
L 152.682905 62.289929 
L 153.00756 54.323004 
L 153.332214 52.22342 
L 153.656869 53.921231 
L 153.981523 48.983286 
L 154.306178 53.829057 
L 154.630832 67.840967 
L 154.955487 66.788938 
L 155.280142 64.5129 
L 155.604796 64.412768 
L 155.929451 63.520084 
L 156.254105 68.024981 
L 156.57876 64.353617 
L 156.903414 68.987091 
L 157.228069 77.020515 
L 157.552723 74.26647 
L 157.877378 74.475818 
L 158.202032 75.402707 
L 158.526687 87.047034 
L 158.851342 83.81108 
L 159.175996 78.146539 
L 159.500651 80.47787 
L 159.825305 81.831951 
L 160.14996 90.103502 
L 160.474614 95.230811 
L 160.799269 94.263768 
L 161.123923 91.216569 
L 161.448578 98.178964 
L 161.773232 96.345982 
L 162.097887 90.61719 
L 162.422542 90.387779 
L 162.747196 86.677277 
L 163.071851 85.321431 
L 163.396505 81.681409 
L 163.72116 69.66114 
L 164.045814 67.043898 
L 164.695123 74.736172 
L 165.019778 62.675656 
L 165.344432 56.820697 
L 165.669087 56.360525 
L 165.993742 55.62987 
L 166.318396 63.728543 
L 166.643051 68.173397 
L 166.967705 61.099064 
L 167.29236 67.984724 
L 167.617014 60.450315 
L 168.266323 64.150134 
L 168.590978 74.258687 
L 168.915632 74.951446 
L 169.240287 79.517892 
L 169.564942 88.548184 
L 169.889596 90.163957 
L 170.214251 90.11319 
L 170.538905 88.920544 
L 170.86356 86.833409 
L 171.188214 89.223884 
L 171.512869 88.342675 
L 171.837523 88.133881 
L 172.162178 85.957495 
L 172.486832 94.626124 
L 172.811487 96.120607 
L 173.136142 89.17314 
L 173.460796 89.452246 
L 173.785451 84.88107 
L 174.110105 88.320412 
L 174.43476 88.50452 
L 174.759414 93.207948 
L 175.084069 92.005314 
L 175.408723 88.303454 
L 175.733378 89.922848 
L 176.058032 89.905316 
L 176.382687 90.033319 
L 177.031996 96.941529 
L 177.681305 89.736525 
L 178.00596 87.80811 
L 178.330614 88.748468 
L 178.655269 85.980591 
L 178.979923 87.861213 
L 179.953887 104.517038 
L 180.278542 95.366333 
L 180.603196 93.907375 
L 180.927851 100.200384 
L 181.252505 98.332483 
L 181.57716 84.48248 
L 181.901814 84.977064 
L 182.226469 92.104293 
L 182.551123 93.738213 
L 182.875778 86.670771 
L 183.200432 90.13418 
L 183.525087 87.40228 
L 183.849742 89.499873 
L 184.174396 93.218426 
L 184.499051 87.022216 
L 184.823705 87.012451 
L 185.14836 87.57584 
L 185.473014 91.57966 
L 185.797669 88.330262 
L 186.122323 94.35731 
L 186.446978 88.483207 
L 186.771632 89.470894 
L 187.096287 86.4304 
L 187.420942 80.163682 
L 188.070251 72.416089 
L 188.71956 59.292586 
L 189.044214 53.960339 
L 189.368869 62.899302 
L 189.693523 66.982294 
L 190.342832 69.631468 
L 190.667487 70.494859 
L 191.316796 68.262943 
L 191.641451 63.877152 
L 191.966105 64.536962 
L 192.29076 57.050472 
L 192.615414 63.659677 
L 192.940069 50.138486 
L 193.264723 50.862476 
L 193.589378 46.124052 
L 193.914032 52.229782 
L 194.238687 52.446746 
L 194.563342 47.421993 
L 194.887996 53.240172 
L 195.212651 49.455419 
L 195.537305 52.644035 
L 195.86196 45.804062 
L 196.186614 49.740908 
L 196.511269 55.430826 
L 196.835923 56.37235 
L 197.160578 51.763401 
L 197.485232 48.815656 
L 197.809887 47.110741 
L 198.134542 51.430736 
L 198.783851 53.210136 
L 199.108505 53.303766 
L 199.43316 49.866326 
L 199.757814 47.642236 
L 200.082469 50.731411 
L 200.407123 50.400558 
L 200.731778 56.389949 
L 201.056432 55.571311 
L 201.381087 56.936145 
L 201.705742 63.425029 
L 202.030396 64.491074 
L 202.355051 71.822868 
L 202.679705 69.249831 
L 203.00436 65.675613 
L 203.329014 71.192842 
L 203.653669 59.838765 
L 203.978323 55.265501 
L 204.302978 55.91681 
L 204.952287 50.229505 
L 205.276942 49.989994 
L 205.601596 51.667836 
L 205.926251 58.14622 
L 206.250905 52.670863 
L 206.900214 60.567687 
L 207.224869 61.46452 
L 207.549523 61.386552 
L 207.874178 56.769137 
L 208.198832 57.508526 
L 208.523487 50.38902 
L 208.848142 54.419603 
L 209.172796 52.123556 
L 209.497451 44.241109 
L 209.822105 47.533338 
L 210.14676 35.553609 
L 210.471414 31.089675 
L 210.796069 30.627428 
L 211.120723 34.63972 
L 211.445378 31.471026 
L 211.770032 30.617935 
L 212.094687 33.364151 
L 212.419342 31.564909 
L 212.743996 38.353056 
L 213.068651 38.385369 
L 213.393305 40.617224 
L 213.71796 43.999555 
L 214.042614 40.539365 
L 214.367269 39.626358 
L 214.691923 50.856464 
L 215.016578 52.717089 
L 215.341232 46.82304 
L 215.665887 57.404985 
L 215.990542 50.115799 
L 216.315196 57.620345 
L 216.639851 50.594188 
L 216.964505 48.848345 
L 217.28916 42.192035 
L 217.613814 51.536361 
L 217.938469 57.152652 
L 218.263123 60.182222 
L 218.587778 51.898385 
L 218.912432 53.65655 
L 219.237087 49.493634 
L 219.561742 49.251557 
L 220.211051 53.785764 
L 220.535705 51.84783 
L 220.86036 59.312179 
L 221.185014 55.895132 
L 221.509669 60.845971 
L 221.834323 60.783827 
L 222.158978 53.742327 
L 222.483632 52.767349 
L 222.808287 55.68223 
L 223.132942 51.129154 
L 223.457596 49.221628 
L 223.782251 43.045145 
L 224.106905 40.794821 
L 224.756214 27.353314 
L 225.080869 26.779649 
L 225.405523 23.199629 
L 225.730178 25.387968 
L 226.054832 28.431152 
L 226.379487 19.296 
L 226.704142 25.056673 
L 227.028796 23.799295 
L 227.353451 25.164735 
L 227.678105 20.67137 
L 228.327414 30.630184 
L 228.652069 24.429989 
L 228.976723 31.504767 
L 229.301378 32.532273 
L 229.626032 26.359686 
L 229.950687 36.762252 
L 230.275342 31.776211 
L 230.599996 43.774305 
L 230.924651 50.61321 
L 231.249305 49.616321 
L 231.57396 49.319638 
L 231.898614 45.128461 
L 232.223269 53.575801 
L 232.547923 52.886066 
L 232.872578 53.778712 
L 233.197232 51.369199 
L 233.846542 63.270126 
L 234.171196 60.860124 
L 234.495851 59.622794 
L 234.820505 52.05944 
L 235.469814 62.988117 
L 235.794469 64.524066 
L 236.119123 71.541987 
L 236.443778 69.477062 
L 236.768432 68.225547 
L 237.093087 67.965195 
L 237.417742 66.611015 
L 238.067051 68.767949 
L 238.391705 70.649302 
L 238.71636 67.7964 
L 239.041014 71.710486 
L 239.365669 68.94925 
L 239.690323 68.787801 
L 240.014978 67.354802 
L 240.339632 68.333401 
L 240.664287 63.408253 
L 240.988942 71.445362 
L 241.313596 66.092598 
L 241.638251 65.030642 
L 241.962905 64.552059 
L 242.28756 66.186597 
L 242.612214 74.716415 
L 242.936869 66.230117 
L 243.261523 63.456846 
L 243.586178 66.16196 
L 243.910832 58.348871 
L 244.235487 58.035407 
L 244.560142 53.838715 
L 244.884796 53.253651 
L 245.209451 51.001422 
L 245.534105 53.791131 
L 245.85876 59.050204 
L 246.183414 62.353663 
L 246.508069 62.122093 
L 246.832723 61.703906 
L 247.482032 78.183754 
L 247.806687 71.141572 
L 248.131342 71.54399 
L 248.455996 75.356753 
L 248.780651 77.096533 
L 249.105305 80.13039 
L 249.754614 82.163712 
L 250.079269 76.981904 
L 250.403923 73.738218 
L 250.728578 72.674892 
L 251.053232 56.666386 
L 251.377887 64.870819 
L 251.702542 68.670936 
L 253.00116 66.925616 
L 253.325814 67.357244 
L 253.650469 64.524308 
L 253.975123 77.649129 
L 254.299778 81.118972 
L 254.624432 92.773533 
L 254.949087 86.648999 
L 255.273742 85.879116 
L 255.598396 87.77492 
L 255.923051 87.468684 
L 256.247705 87.424341 
L 256.57236 87.921822 
L 256.897014 87.800515 
L 257.221669 87.517342 
L 257.546323 85.946114 
L 257.870978 78.795798 
L 258.195632 83.493036 
L 258.520287 86.006501 
L 258.844942 94.337456 
L 259.169596 91.866561 
L 259.494251 96.613083 
L 259.818905 92.825209 
L 260.14356 97.123154 
L 260.792869 116.469149 
L 261.117523 104.368199 
L 261.442178 97.414719 
L 261.766832 94.378325 
L 262.091487 94.167306 
L 262.416142 96.673783 
L 262.740796 89.324594 
L 263.065451 96.480793 
L 263.390105 93.946954 
L 263.71476 95.763933 
L 264.039414 88.926793 
L 264.364069 85.498918 
L 264.688723 85.739936 
L 265.013378 86.554945 
L 265.338032 74.411143 
L 266.311996 94.37282 
L 266.636651 85.954619 
L 266.961305 90.841308 
L 267.610614 107.076732 
L 267.935269 106.10099 
L 268.259923 111.228045 
L 268.584578 107.773102 
L 268.909232 108.602238 
L 269.233887 104.117334 
L 269.558542 112.738104 
L 270.207851 98.591234 
L 270.532505 101.908775 
L 270.85716 100.197617 
L 271.181814 97.228565 
L 271.831123 85.865827 
L 272.155778 91.210601 
L 272.480432 89.145432 
L 272.805087 88.509962 
L 273.129742 82.811207 
L 273.454396 81.423891 
L 273.779051 77.309042 
L 274.103705 82.824365 
L 274.42836 81.854502 
L 274.753014 79.421772 
L 275.077669 84.562692 
L 275.402323 80.714855 
L 275.726978 78.764974 
L 276.051632 71.296128 
L 276.376287 70.247115 
L 276.700942 63.737898 
L 277.025596 68.891284 
L 277.350251 65.508248 
L 277.674905 68.526726 
L 277.99956 65.958567 
L 278.324214 67.222472 
L 278.648869 58.156149 
L 278.973523 64.674488 
L 279.298178 62.385421 
L 279.622832 54.115195 
L 279.947487 52.875341 
L 280.272142 48.542541 
L 280.596796 48.266472 
L 280.921451 55.376392 
L 281.246105 49.761766 
L 281.57076 49.160206 
L 281.895414 51.485724 
L 282.220069 55.124938 
L 282.544723 60.895122 
L 282.869378 56.41582 
L 283.194032 66.024115 
L 283.518687 59.706074 
L 283.843342 62.895983 
L 284.167996 60.792468 
L 284.817305 70.341904 
L 285.14196 71.716706 
L 285.466614 63.526596 
L 285.791269 71.384792 
L 286.115923 71.199671 
L 286.440578 65.661184 
L 286.765232 74.600274 
L 287.089887 75.689746 
L 287.414542 70.626631 
L 287.739196 73.674831 
L 288.063851 74.065637 
L 288.388505 68.268752 
L 288.71316 67.467658 
L 289.037814 58.432422 
L 289.362469 64.484695 
L 289.687123 62.631507 
L 290.661087 86.288136 
L 290.985742 90.27674 
L 291.635051 100.613184 
L 291.959705 100.458546 
L 292.28436 96.160443 
L 292.609014 97.710322 
L 292.933669 97.336001 
L 293.258323 106.541273 
L 293.582978 105.660246 
L 293.907632 99.920507 
L 294.232287 96.973407 
L 294.556942 90.372742 
L 294.881596 89.886605 
L 295.206251 93.57665 
L 295.530905 86.774272 
L 295.85556 86.490597 
L 296.180214 76.120487 
L 296.504869 76.739647 
L 296.829523 75.120355 
L 297.154178 82.500727 
L 297.478832 80.91909 
L 297.803487 83.604706 
L 298.128142 84.599512 
L 299.102105 72.367882 
L 299.42676 70.605011 
L 299.751414 72.4478 
L 300.076069 71.287944 
L 300.400723 73.743433 
L 300.725378 67.855143 
L 301.050032 75.966245 
L 301.374687 73.185675 
L 301.699342 66.526221 
L 302.023996 69.143924 
L 302.348651 59.566712 
L 302.673305 64.624115 
L 302.99796 67.519575 
L 303.322614 74.266417 
L 303.647269 69.195815 
L 303.971923 73.010117 
L 304.296578 79.194642 
L 304.621232 82.611594 
L 304.945887 73.424916 
L 305.595196 80.205224 
L 306.244505 73.89383 
L 306.56916 76.593954 
L 307.218469 88.416442 
L 307.543123 87.854174 
L 307.867778 88.874622 
L 308.192432 96.565903 
L 308.517087 96.363109 
L 308.841742 88.797069 
L 309.166396 86.994016 
L 309.815705 91.536994 
L 310.14036 85.6399 
L 310.465014 83.1661 
L 311.114323 93.962431 
L 311.438978 93.949504 
L 311.763632 100.473679 
L 312.088287 94.990599 
L 312.412942 99.057448 
L 312.737596 98.502914 
L 313.386905 112.476287 
L 313.71156 102.273553 
L 314.036214 104.329216 
L 314.360869 102.524575 
L 314.685523 105.933131 
L 315.010178 102.415427 
L 315.334832 93.988309 
L 315.659487 92.085055 
L 315.984142 94.107347 
L 316.308796 100.219696 
L 316.633451 91.897117 
L 317.28276 83.612749 
L 317.607414 88.984641 
L 317.932069 89.480428 
L 318.256723 94.489144 
L 318.581378 101.283355 
L 318.906032 100.040808 
L 319.230687 107.419864 
L 319.555342 107.792064 
L 319.879996 100.053429 
L 320.204651 95.92266 
L 320.529305 86.258061 
L 320.85396 90.856138 
L 321.178614 88.819019 
L 321.503269 83.475865 
L 321.827923 86.209743 
L 322.152578 81.329371 
L 322.477232 86.593648 
L 322.801887 85.100214 
L 323.126542 89.297613 
L 323.451196 98.591362 
L 323.775851 93.378422 
L 324.100505 97.62087 
L 324.42516 85.827739 
L 324.749814 82.79479 
L 325.074469 85.657317 
L 325.399123 85.277447 
L 325.723778 90.032551 
L 326.048432 86.437626 
L 326.373087 91.639949 
L 326.697742 90.0015 
L 327.022396 91.401251 
L 327.347051 91.604788 
L 327.99636 89.345596 
L 328.321014 96.10497 
L 328.645669 93.232548 
L 328.970323 94.045719 
L 329.294978 95.228986 
L 329.619632 92.544374 
L 329.944287 100.032791 
L 330.268942 95.660253 
L 330.593596 96.738483 
L 330.918251 102.3934 
L 331.242905 105.407678 
L 331.56756 111.8664 
L 331.892214 113.603853 
L 332.216869 112.736524 
L 332.541523 98.849451 
L 332.866178 95.451052 
L 333.190832 105.459655 
L 333.515487 106.146055 
L 333.840142 105.946207 
L 334.164796 111.172288 
L 334.489451 119.712124 
L 334.814105 121.308106 
L 335.13876 114.361113 
L 335.463414 117.939593 
L 335.788069 118.334841 
L 336.112723 127.112385 
L 336.762032 118.229492 
L 337.086687 107.408872 
L 337.735996 118.118726 
L 338.060651 120.020216 
L 339.034614 104.616327 
L 339.683923 112.771163 
L 340.008578 109.177392 
L 340.333232 113.672446 
L 340.657887 111.91971 
L 340.982542 121.908519 
L 341.307196 120.88444 
L 341.631851 118.677028 
L 341.956505 117.747433 
L 342.28116 114.556329 
L 342.605814 120.742112 
L 342.930469 115.895605 
L 343.255123 119.315221 
L 343.579778 119.53236 
L 343.904432 123.559307 
L 344.229087 119.760213 
L 344.553742 119.906937 
L 345.203051 122.454816 
L 345.527705 116.178811 
L 345.85236 113.891584 
L 346.826323 97.121708 
L 347.150978 87.870558 
L 347.800287 91.170941 
L 348.124942 85.376238 
L 348.449596 93.193946 
L 348.774251 87.318133 
L 349.098905 77.732558 
L 349.42356 78.071571 
L 349.748214 81.935572 
L 350.072869 82.533187 
L 350.397523 85.618145 
L 350.722178 93.857827 
L 351.046832 95.591244 
L 351.696142 77.622749 
L 352.020796 82.931124 
L 352.345451 83.870711 
L 352.670105 74.562343 
L 352.99476 74.80833 
L 353.319414 78.074665 
L 353.644069 78.39543 
L 353.968723 74.982734 
L 354.293378 68.970064 
L 354.618032 69.376227 
L 354.942687 59.208948 
L 355.267342 64.391066 
L 355.591996 67.450535 
L 355.916651 72.073585 
L 356.241305 74.302304 
L 356.56596 82.237946 
L 356.890614 76.11329 
L 357.215269 79.827024 
L 357.539923 77.905898 
L 357.864578 81.49747 
L 358.189232 73.5573 
L 358.513887 84.026097 
L 358.838542 86.232721 
L 359.163196 84.464547 
L 359.812505 67.851805 
L 360.13716 75.831203 
L 360.461814 70.014391 
L 361.111123 78.183333 
L 361.435778 72.175011 
L 361.760432 69.83809 
L 362.085087 69.481533 
L 362.409742 72.026464 
L 362.734396 73.146386 
L 363.383705 67.286363 
L 363.70836 67.209825 
L 364.033014 67.493951 
L 364.357669 67.120293 
L 365.331632 76.378617 
L 365.656287 82.722269 
L 365.980942 79.338293 
L 366.305596 87.520492 
L 366.630251 82.988318 
L 366.954905 81.371937 
L 367.27956 85.807045 
L 367.604214 85.945191 
L 368.253523 82.112784 
L 368.578178 84.502623 
L 368.902832 70.755829 
L 369.876796 56.842645 
L 370.201451 61.129301 
L 370.85076 57.680331 
L 371.175414 63.752233 
L 371.500069 60.85581 
L 371.824723 66.857689 
L 372.149378 68.703371 
L 372.474032 66.526081 
L 372.798687 68.521035 
L 372.798687 68.521035 
" clip-path="url(#p1b066b381a)" style="fill: none; stroke: #d1dae9; stroke-width: 1.5; stroke-linecap: square"/>
   </g>
   <g id="line2d_14">
    <path d="M 48.144142 56.240372 
L 48.793451 60.588573 
L 49.118105 60.043709 
L 49.44276 66.815217 
L 49.767414 69.286308 
L 50.092069 61.387808 
L 50.416723 60.218604 
L 50.741378 66.616886 
L 51.066032 62.966922 
L 51.390687 56.984641 
L 51.715342 55.070571 
L 52.039996 65.284157 
L 52.364651 65.111913 
L 52.689305 64.665 
L 53.01396 67.600642 
L 53.338614 69.177849 
L 53.663269 66.155917 
L 53.987923 66.439664 
L 54.312578 51.693981 
L 54.637232 54.878622 
L 54.961887 50.837306 
L 55.286542 55.347454 
L 55.611196 51.911278 
L 55.935851 51.29604 
L 56.260505 57.07826 
L 56.58516 64.944651 
L 56.909814 63.45844 
L 57.234469 69.291971 
L 57.883778 74.309593 
L 58.208432 67.003299 
L 58.533087 65.547072 
L 58.857742 71.152925 
L 59.182396 66.273068 
L 59.507051 66.660174 
L 59.831705 62.211365 
L 60.15636 60.113558 
L 60.805669 70.042715 
L 61.130323 72.190874 
L 61.779632 69.252896 
L 62.104287 64.539965 
L 62.428942 69.456734 
L 62.753596 62.184061 
L 63.402905 56.19707 
L 63.72756 55.720713 
L 64.052214 63.961875 
L 64.376869 64.299342 
L 64.701523 66.708129 
L 65.026178 66.695833 
L 65.350832 68.736314 
L 65.675487 71.635383 
L 66.000142 70.728276 
L 66.324796 67.726982 
L 66.649451 71.022563 
L 66.974105 61.555746 
L 67.29876 69.29711 
L 67.623414 67.441418 
L 67.948069 67.170179 
L 68.272723 62.328799 
L 68.597378 71.130053 
L 68.922032 63.433586 
L 69.246687 62.740822 
L 69.571342 63.645048 
L 69.895996 68.140682 
L 70.220651 71.009707 
L 70.545305 69.931233 
L 70.86996 73.938711 
L 71.194614 74.548689 
L 71.519269 73.562743 
L 71.843923 74.73553 
L 72.168578 73.823459 
L 72.493232 84.92881 
L 73.467196 71.473134 
L 73.791851 57.631682 
L 74.116505 60.514508 
L 74.44116 56.483879 
L 74.765814 59.932975 
L 75.415123 44.80356 
L 76.064432 51.747836 
L 76.389087 47.027522 
L 76.713742 49.945075 
L 77.038396 48.657296 
L 77.363051 43.268131 
L 77.687705 44.354982 
L 78.01236 51.442946 
L 78.661669 44.095587 
L 78.986323 48.116279 
L 79.310978 46.268519 
L 79.635632 48.866786 
L 79.960287 50.447061 
L 80.284942 62.530755 
L 80.609596 60.210552 
L 80.934251 69.015392 
L 81.258905 68.909445 
L 81.58356 63.718282 
L 81.908214 61.403987 
L 82.232869 60.797858 
L 82.557523 61.066894 
L 82.882178 65.807273 
L 83.206832 63.778195 
L 83.531487 67.277261 
L 84.180796 83.350939 
L 84.505451 81.217477 
L 84.830105 80.581622 
L 85.15476 82.030452 
L 85.479414 79.002386 
L 85.804069 83.834338 
L 86.128723 81.743774 
L 86.778032 70.402741 
L 87.102687 67.309471 
L 87.427342 56.472841 
L 87.751996 53.411279 
L 88.076651 55.559594 
L 88.401305 56.368113 
L 88.72596 66.248035 
L 89.050614 72.250434 
L 89.375269 63.410493 
L 89.699923 63.280278 
L 90.024578 70.837541 
L 90.349232 65.287964 
L 90.673887 66.251705 
L 90.998542 63.561128 
L 91.647851 65.494323 
L 91.972505 65.117421 
L 92.29716 70.016475 
L 92.621814 67.071158 
L 92.946469 70.369192 
L 93.271123 78.495781 
L 93.595778 65.273811 
L 93.920432 66.829561 
L 94.245087 65.056909 
L 94.569742 69.189719 
L 94.894396 69.788735 
L 95.219051 65.127325 
L 95.543705 69.677439 
L 95.86836 70.79058 
L 96.193014 68.677837 
L 96.517669 72.881159 
L 97.166978 59.393072 
L 97.491632 61.914695 
L 97.816287 60.895238 
L 98.140942 68.627199 
L 98.465596 57.863958 
L 98.790251 68.736062 
L 99.114905 71.470313 
L 99.43956 67.336341 
L 99.764214 65.254342 
L 100.088869 65.038358 
L 100.413523 60.460818 
L 100.738178 58.728392 
L 101.062832 61.167482 
L 101.387487 66.554188 
L 101.712142 74.801306 
L 102.036796 60.256108 
L 102.361451 55.136185 
L 102.686105 53.530404 
L 103.01076 49.57863 
L 103.335414 48.494866 
L 103.984723 38.38689 
L 104.309378 29.954909 
L 104.634032 25.437907 
L 104.958687 27.458951 
L 105.283342 26.873123 
L 105.607996 23.171201 
L 105.932651 26.129627 
L 106.257305 23.213654 
L 106.58196 29.959356 
L 106.906614 32.891264 
L 107.231269 34.142535 
L 107.555923 39.640816 
L 107.880578 51.222989 
L 108.205232 50.537644 
L 108.854542 41.562127 
L 109.179196 37.929457 
L 109.503851 44.818871 
L 109.828505 40.313856 
L 110.15316 45.91739 
L 110.477814 39.198394 
L 110.802469 35.116075 
L 111.127123 42.188621 
L 111.451778 39.979985 
L 111.776432 41.818653 
L 112.101087 47.506937 
L 112.425742 56.305324 
L 112.750396 58.550102 
L 113.075051 57.770858 
L 113.399705 54.727535 
L 114.049014 63.469048 
L 114.698323 58.226204 
L 115.022978 51.82657 
L 115.672287 67.150941 
L 115.996942 57.907073 
L 116.321596 60.638171 
L 116.646251 57.900156 
L 116.970905 60.952611 
L 117.29556 54.109409 
L 117.620214 56.254983 
L 117.944869 59.479669 
L 118.594178 53.014147 
L 118.918832 62.008495 
L 119.243487 64.40224 
L 119.568142 63.034862 
L 119.892796 57.284988 
L 120.217451 56.337005 
L 120.86676 61.078155 
L 121.191414 55.594542 
L 121.516069 52.828959 
L 121.840723 48.802039 
L 122.165378 52.970038 
L 122.490032 54.305463 
L 122.814687 54.764976 
L 123.139342 53.511303 
L 123.463996 57.094683 
L 123.788651 44.751098 
L 124.113305 47.462543 
L 124.43796 37.543015 
L 124.762614 36.359809 
L 125.087269 41.505899 
L 125.411923 52.454108 
L 126.061232 47.167259 
L 126.385887 51.863108 
L 126.710542 63.588701 
L 127.035196 58.166556 
L 127.359851 60.404662 
L 127.684505 61.093435 
L 128.00916 59.592174 
L 128.333814 59.086855 
L 128.658469 60.771084 
L 129.307778 63.029721 
L 129.632432 59.555029 
L 129.957087 61.038696 
L 130.281742 52.835679 
L 130.606396 51.405222 
L 130.931051 52.528188 
L 131.255705 55.33512 
L 131.58036 55.869433 
L 131.905014 46.04042 
L 132.229669 59.951336 
L 132.878978 74.311569 
L 133.203632 76.703759 
L 133.528287 74.068695 
L 133.852942 84.33712 
L 134.502251 75.163282 
L 134.826905 66.670208 
L 135.15156 70.786533 
L 135.476214 71.433123 
L 135.800869 66.909337 
L 136.125523 64.892267 
L 136.450178 70.20978 
L 136.774832 67.90703 
L 137.099487 69.788901 
L 137.424142 67.221701 
L 137.748796 60.877805 
L 138.073451 62.806454 
L 138.398105 62.797166 
L 138.72276 64.513922 
L 139.372069 55.350758 
L 139.696723 51.303692 
L 140.346032 67.005765 
L 140.670687 67.796265 
L 140.995342 80.785591 
L 141.319996 78.16542 
L 141.969305 86.434061 
L 142.29396 92.562292 
L 142.618614 93.776419 
L 142.943269 88.636514 
L 143.267923 85.768815 
L 143.592578 88.289629 
L 143.917232 77.050013 
L 144.241887 78.580015 
L 144.566542 71.983068 
L 144.891196 60.398323 
L 145.215851 66.86299 
L 145.540505 66.159708 
L 145.86516 74.462608 
L 146.189814 76.777515 
L 146.514469 77.416331 
L 146.839123 73.451417 
L 147.163778 71.576847 
L 147.488432 75.162393 
L 147.813087 82.068938 
L 148.137742 80.217886 
L 148.462396 79.575294 
L 148.787051 84.391491 
L 149.111705 83.266671 
L 149.43636 89.317344 
L 149.761014 85.27433 
L 150.085669 83.672505 
L 150.410323 84.073814 
L 150.734978 98.734278 
L 151.384287 102.735355 
L 151.708942 98.88859 
L 152.033596 103.059023 
L 152.358251 110.145877 
L 152.682905 98.90668 
L 153.00756 98.739325 
L 153.332214 97.420072 
L 153.656869 99.655071 
L 154.306178 93.919554 
L 154.630832 90.03831 
L 154.955487 90.421742 
L 155.280142 91.294493 
L 155.604796 81.938327 
L 155.929451 81.324853 
L 156.254105 77.562352 
L 156.57876 77.033687 
L 156.903414 78.378737 
L 157.228069 74.06658 
L 157.877378 76.861016 
L 158.202032 79.881692 
L 158.526687 78.925087 
L 159.175996 87.248604 
L 159.500651 77.027082 
L 159.825305 77.713215 
L 160.14996 76.862949 
L 160.474614 78.070634 
L 160.799269 81.426081 
L 161.123923 73.888396 
L 161.448578 77.586307 
L 161.773232 72.603999 
L 162.097887 80.941271 
L 162.422542 76.499742 
L 162.747196 74.883162 
L 163.071851 75.744686 
L 163.72116 68.259332 
L 164.045814 66.884407 
L 164.370469 72.077508 
L 165.019778 61.029444 
L 165.344432 59.971409 
L 165.669087 56.146175 
L 165.993742 61.612587 
L 166.318396 59.838368 
L 166.967705 52.662848 
L 167.29236 60.53883 
L 167.617014 58.917915 
L 167.941669 51.039917 
L 168.266323 60.759401 
L 168.590978 65.330374 
L 169.240287 53.808033 
L 169.564942 51.601479 
L 169.889596 54.354713 
L 170.214251 49.89158 
L 170.538905 42.621055 
L 170.86356 50.502512 
L 171.188214 53.764278 
L 171.512869 60.058899 
L 171.837523 59.42919 
L 172.486832 68.563171 
L 172.811487 69.827465 
L 173.136142 67.818364 
L 173.460796 66.797066 
L 173.785451 76.134917 
L 174.110105 72.103635 
L 174.43476 69.933907 
L 174.759414 69.758078 
L 175.084069 69.160515 
L 175.408723 70.59941 
L 175.733378 76.9566 
L 176.058032 71.918858 
L 176.382687 61.559088 
L 176.707342 67.048295 
L 177.031996 69.169225 
L 177.356651 72.37255 
L 177.681305 74.363411 
L 178.00596 70.651583 
L 178.330614 79.566045 
L 178.655269 74.941705 
L 178.979923 79.097448 
L 179.304578 85.475005 
L 179.629232 83.546449 
L 179.953887 87.375402 
L 180.603196 90.85089 
L 180.927851 89.141533 
L 181.252505 84.363202 
L 181.57716 82.608326 
L 181.901814 87.048918 
L 182.226469 85.5502 
L 182.551123 87.460231 
L 182.875778 78.580155 
L 183.200432 80.459259 
L 183.525087 84.998401 
L 184.174396 73.35038 
L 184.499051 75.385322 
L 184.823705 75.742969 
L 185.14836 72.418965 
L 185.473014 72.52264 
L 185.797669 68.024637 
L 186.122323 75.007688 
L 186.446978 75.110117 
L 186.771632 76.980311 
L 187.096287 74.593529 
L 187.420942 79.898664 
L 187.745596 90.890835 
L 188.070251 86.446182 
L 188.394905 89.884364 
L 188.71956 84.743803 
L 189.044214 85.788277 
L 189.368869 81.546186 
L 190.018178 88.880925 
L 190.342832 86.269116 
L 190.667487 89.507549 
L 190.992142 89.487293 
L 191.316796 96.08172 
L 191.966105 87.429524 
L 192.615414 94.963187 
L 192.940069 95.286359 
L 193.264723 88.369268 
L 193.589378 93.083459 
L 194.563342 71.654878 
L 194.887996 71.555263 
L 195.212651 65.933904 
L 195.537305 64.874751 
L 195.86196 69.79297 
L 196.186614 72.457821 
L 196.511269 77.570591 
L 196.835923 74.662306 
L 197.160578 76.644006 
L 197.485232 68.598177 
L 198.134542 72.877969 
L 198.459196 70.535109 
L 199.108505 80.903798 
L 199.43316 65.49822 
L 199.757814 65.479734 
L 200.082469 63.888289 
L 200.407123 72.019137 
L 200.731778 73.239994 
L 201.705742 92.31975 
L 202.030396 92.811041 
L 202.355051 93.955687 
L 202.679705 93.028668 
L 203.00436 91.192016 
L 203.653669 81.780651 
L 203.978323 91.698769 
L 204.302978 93.465508 
L 204.627632 90.192989 
L 204.952287 94.356967 
L 205.276942 90.613224 
L 205.601596 96.223442 
L 206.250905 91.545549 
L 206.57556 85.589404 
L 206.900214 83.975392 
L 207.224869 92.821721 
L 207.549523 87.007164 
L 207.874178 85.95356 
L 208.198832 81.702083 
L 208.523487 71.487064 
L 208.848142 74.002096 
L 209.172796 64.781472 
L 209.497451 73.332486 
L 209.822105 76.32495 
L 210.14676 69.623587 
L 210.471414 66.817098 
L 211.120723 63.245634 
L 211.770032 75.340722 
L 212.094687 74.462444 
L 212.419342 74.35769 
L 212.743996 74.881698 
L 213.068651 67.905891 
L 213.393305 70.461373 
L 213.71796 68.587769 
L 214.042614 55.500888 
L 214.367269 59.119742 
L 214.691923 59.475588 
L 215.016578 62.849274 
L 215.341232 57.490957 
L 215.665887 67.844023 
L 215.990542 69.408021 
L 216.315196 77.258401 
L 216.639851 72.94768 
L 216.964505 66.215279 
L 217.28916 75.735897 
L 217.613814 76.291094 
L 217.938469 80.299094 
L 218.587778 78.733012 
L 218.912432 69.046948 
L 219.237087 78.933062 
L 219.561742 76.079856 
L 219.886396 83.203721 
L 220.211051 79.666037 
L 220.535705 82.630346 
L 220.86036 88.178708 
L 221.185014 84.471853 
L 221.509669 87.194779 
L 221.834323 78.509654 
L 222.158978 90.883033 
L 222.483632 93.176631 
L 222.808287 89.40696 
L 223.132942 89.741283 
L 223.782251 80.065353 
L 224.43156 63.428554 
L 224.756214 60.369353 
L 225.080869 61.134676 
L 225.405523 56.862391 
L 225.730178 57.306707 
L 226.054832 64.444754 
L 226.379487 54.939343 
L 226.704142 59.044304 
L 227.028796 59.780375 
L 227.353451 57.661965 
L 227.678105 57.920546 
L 228.00276 57.432133 
L 228.327414 48.881412 
L 228.652069 49.273458 
L 228.976723 50.655519 
L 229.301378 59.566689 
L 229.626032 56.527577 
L 229.950687 50.925276 
L 230.275342 50.217951 
L 230.924651 63.915247 
L 231.249305 64.151697 
L 231.57396 62.178531 
L 231.898614 67.594433 
L 232.223269 65.432792 
L 232.547923 69.649478 
L 232.872578 68.034371 
L 233.197232 58.493783 
L 233.846542 82.273076 
L 234.171196 77.082462 
L 234.495851 74.701726 
L 234.820505 61.785312 
L 235.14516 59.401549 
L 235.469814 57.989548 
L 235.794469 60.799748 
L 236.119123 57.058026 
L 236.443778 50.493334 
L 236.768432 52.338502 
L 237.093087 57.134538 
L 237.417742 52.781002 
L 237.742396 52.136011 
L 238.067051 56.64604 
L 238.391705 66.226546 
L 238.71636 68.027818 
L 239.041014 58.943604 
L 239.365669 64.017672 
L 239.690323 66.314366 
L 240.339632 53.902098 
L 240.988942 61.364193 
L 241.313596 63.021914 
L 241.638251 63.144226 
L 241.962905 62.727458 
L 242.28756 69.238262 
L 242.612214 69.602009 
L 242.936869 74.293177 
L 243.261523 75.693713 
L 243.586178 77.828513 
L 243.910832 72.00406 
L 244.235487 69.302993 
L 244.560142 76.827075 
L 244.884796 70.204744 
L 245.534105 63.602079 
L 245.85876 66.191331 
L 246.183414 76.996922 
L 246.508069 77.833515 
L 246.832723 89.357459 
L 247.157378 85.248257 
L 247.482032 83.556595 
L 247.806687 83.623572 
L 248.131342 90.211094 
L 248.455996 94.259518 
L 248.780651 90.901217 
L 249.105305 86.356348 
L 249.42996 87.50047 
L 249.754614 94.791863 
L 250.079269 98.089224 
L 250.403923 104.28146 
L 251.377887 75.491295 
L 251.702542 70.708898 
L 252.027196 59.889726 
L 252.351851 59.266957 
L 252.676505 69.452474 
L 253.00116 66.531139 
L 253.325814 69.525352 
L 253.650469 74.463566 
L 253.975123 67.630513 
L 254.299778 75.111033 
L 254.624432 71.604811 
L 254.949087 70.777591 
L 255.273742 73.920334 
L 255.598396 73.933213 
L 255.923051 78.895306 
L 256.247705 76.214515 
L 256.897014 65.470079 
L 257.221669 73.100443 
L 257.870978 53.322917 
L 258.195632 53.773946 
L 258.520287 53.654044 
L 258.844942 60.871553 
L 259.494251 55.636549 
L 259.818905 56.842764 
L 260.14356 59.431527 
L 260.468214 54.261427 
L 260.792869 54.593013 
L 261.117523 55.198563 
L 261.442178 50.389744 
L 262.091487 62.769795 
L 262.416142 54.838696 
L 262.740796 54.491495 
L 263.065451 55.211268 
L 263.390105 54.117579 
L 263.71476 59.112535 
L 264.364069 48.523361 
L 265.013378 42.325967 
L 265.338032 41.402585 
L 265.662687 42.791153 
L 265.987342 46.156175 
L 266.311996 42.435198 
L 266.961305 46.258891 
L 267.28596 50.363931 
L 267.610614 49.335084 
L 267.935269 49.958413 
L 268.259923 49.290623 
L 268.584578 47.389178 
L 268.909232 54.219743 
L 269.233887 51.237383 
L 269.883196 59.392286 
L 270.532505 52.097317 
L 270.85716 39.973352 
L 271.181814 47.784854 
L 271.506469 46.591945 
L 271.831123 49.407039 
L 272.155778 47.876677 
L 272.480432 48.10488 
L 272.805087 44.366677 
L 273.129742 43.568743 
L 273.454396 50.824125 
L 273.779051 51.566789 
L 274.103705 47.542056 
L 274.42836 41.833229 
L 274.753014 49.695788 
L 275.077669 49.98509 
L 275.402323 56.633071 
L 275.726978 54.190123 
L 276.051632 45.964574 
L 276.376287 42.085452 
L 276.700942 33.466602 
L 277.025596 36.94614 
L 277.350251 49.95662 
L 277.674905 54.967865 
L 277.99956 49.607269 
L 278.324214 49.833892 
L 278.648869 39.144086 
L 278.973523 46.760969 
L 279.622832 44.93531 
L 279.947487 46.638843 
L 280.272142 46.485552 
L 280.596796 48.063944 
L 281.246105 61.851952 
L 281.57076 61.61002 
L 281.895414 65.510327 
L 282.220069 62.322379 
L 282.544723 61.211326 
L 282.869378 65.073024 
L 283.194032 65.512568 
L 283.518687 61.250508 
L 283.843342 62.284633 
L 284.167996 62.35287 
L 284.492651 72.653943 
L 284.817305 87.438481 
L 285.14196 88.544057 
L 285.466614 87.592389 
L 286.115923 91.237974 
L 286.440578 91.531283 
L 286.765232 90.051002 
L 287.089887 94.940514 
L 287.414542 93.122227 
L 287.739196 92.764944 
L 288.063851 95.96453 
L 288.388505 92.16486 
L 288.71316 91.864787 
L 289.037814 86.437503 
L 289.687123 92.467755 
L 290.011778 83.769806 
L 290.985742 88.312864 
L 291.635051 84.92541 
L 291.959705 81.902036 
L 292.28436 80.724641 
L 292.609014 88.276566 
L 292.933669 92.000801 
L 293.258323 87.91036 
L 293.582978 87.565661 
L 293.907632 84.671254 
L 294.232287 86.136233 
L 294.556942 101.715975 
L 294.881596 99.274412 
L 295.206251 100.034636 
L 295.530905 103.819181 
L 296.180214 107.706676 
L 296.504869 103.43608 
L 296.829523 107.060382 
L 297.154178 108.561318 
L 297.478832 105.711684 
L 297.803487 96.96804 
L 298.128142 98.425599 
L 298.452796 101.582732 
L 298.777451 97.673709 
L 299.102105 96.19485 
L 299.42676 97.167358 
L 300.076069 101.866144 
L 300.400723 106.103243 
L 300.725378 116.402333 
L 301.050032 117.377095 
L 301.374687 123.538448 
L 301.699342 126.959712 
L 302.023996 136.194975 
L 302.348651 134.294133 
L 302.673305 138.777763 
L 302.99796 133.905664 
L 303.647269 118.392366 
L 303.971923 121.596671 
L 304.296578 119.734186 
L 304.945887 123.293323 
L 305.270542 118.727993 
L 305.595196 117.87805 
L 305.919851 116.46272 
L 306.244505 127.988505 
L 306.56916 120.56412 
L 306.893814 108.51028 
L 307.543123 121.824203 
L 307.867778 119.742594 
L 308.192432 125.491634 
L 308.517087 125.051322 
L 308.841742 124.329253 
L 309.166396 122.42535 
L 309.491051 124.913958 
L 309.815705 123.294948 
L 310.14036 128.817381 
L 310.465014 127.950424 
L 310.789669 129.173818 
L 311.114323 126.429846 
L 311.438978 125.063503 
L 311.763632 116.229985 
L 312.412942 111.613897 
L 312.737596 102.952195 
L 313.062251 100.586813 
L 314.036214 117.376276 
L 314.685523 109.253701 
L 315.010178 111.221815 
L 315.334832 105.686968 
L 315.659487 118.077762 
L 316.308796 124.570208 
L 316.633451 126.052864 
L 317.28276 122.564406 
L 317.607414 123.622152 
L 318.256723 131.829714 
L 318.581378 130.397773 
L 318.906032 125.092382 
L 319.230687 132.431512 
L 319.555342 135.176456 
L 319.879996 139.77998 
L 320.204651 132.846919 
L 320.529305 131.688421 
L 320.85396 140.487205 
L 321.178614 135.481443 
L 321.503269 132.779706 
L 321.827923 123.84745 
L 322.152578 120.398072 
L 322.477232 120.161215 
L 322.801887 134.132334 
L 323.126542 139.194243 
L 323.451196 134.421604 
L 323.775851 134.925202 
L 324.100505 133.050622 
L 324.42516 130.470428 
L 324.749814 134.154011 
L 325.399123 135.819175 
L 326.048432 145.135394 
L 326.373087 141.958684 
L 326.697742 148.591564 
L 327.022396 138.073738 
L 327.671705 124.196592 
L 327.99636 124.673407 
L 328.321014 131.988754 
L 328.970323 139.478448 
L 329.294978 135.90201 
L 329.619632 137.171882 
L 329.944287 141.735556 
L 330.268942 137.148292 
L 330.593596 140.355135 
L 331.242905 136.27988 
L 331.56756 136.123201 
L 331.892214 132.461079 
L 332.866178 115.04872 
L 333.190832 114.458533 
L 333.515487 119.304823 
L 333.840142 116.027419 
L 334.164796 105.518624 
L 334.489451 106.931122 
L 334.814105 106.041117 
L 335.463414 92.524678 
L 335.788069 93.419699 
L 336.112723 99.807866 
L 336.437378 113.454981 
L 336.762032 114.716917 
L 337.086687 111.641749 
L 337.411342 102.044311 
L 337.735996 100.249312 
L 338.060651 96.560467 
L 338.70996 92.140893 
L 339.034614 95.255221 
L 339.359269 90.460239 
L 339.683923 90.700747 
L 340.008578 101.0845 
L 340.333232 106.143099 
L 340.657887 104.741146 
L 340.982542 104.789686 
L 341.307196 102.660965 
L 341.631851 109.199813 
L 341.956505 109.049578 
L 342.28116 106.857455 
L 342.605814 92.197657 
L 342.930469 83.209887 
L 343.255123 90.796431 
L 343.579778 89.470005 
L 343.904432 91.918858 
L 344.229087 92.574432 
L 344.878396 96.44226 
L 345.203051 99.277411 
L 345.527705 98.312201 
L 345.85236 91.332443 
L 346.177014 81.044419 
L 346.501669 83.83698 
L 346.826323 76.889814 
L 347.475632 77.638594 
L 347.800287 82.448379 
L 348.124942 82.279566 
L 348.449596 87.751367 
L 348.774251 85.248124 
L 349.098905 84.168801 
L 349.42356 83.958279 
L 350.072869 72.456791 
L 350.397523 76.902495 
L 350.722178 73.685483 
L 351.046832 61.572421 
L 351.696142 70.413249 
L 352.020796 77.582277 
L 352.345451 81.301714 
L 352.670105 78.889622 
L 352.99476 80.872181 
L 353.319414 80.300823 
L 353.644069 84.957256 
L 353.968723 80.287652 
L 354.293378 79.256426 
L 354.618032 69.674047 
L 354.942687 70.581562 
L 355.591996 80.193873 
L 355.916651 73.194599 
L 356.241305 72.554596 
L 356.56596 65.615209 
L 357.215269 62.806335 
L 357.539923 70.946878 
L 357.864578 65.377017 
L 358.189232 69.597304 
L 358.513887 69.988974 
L 358.838542 69.082674 
L 359.163196 80.266678 
L 359.487851 73.751928 
L 359.812505 72.258986 
L 360.461814 58.369406 
L 361.111123 53.204267 
L 361.435778 52.016364 
L 361.760432 42.142686 
L 362.085087 46.79973 
L 362.409742 43.780365 
L 362.734396 36.576856 
L 363.059051 39.933466 
L 363.383705 39.122856 
L 363.70836 37.829142 
L 364.033014 35.959937 
L 364.357669 35.278281 
L 364.682323 35.976329 
L 365.006978 31.219837 
L 365.331632 32.885376 
L 366.630251 54.39927 
L 366.954905 54.032063 
L 367.27956 59.076662 
L 367.604214 57.96296 
L 367.928869 50.583266 
L 368.578178 61.089289 
L 368.902832 51.431556 
L 369.227487 61.044832 
L 369.552142 59.12408 
L 369.876796 68.739836 
L 370.201451 68.138539 
L 370.526105 60.742786 
L 371.500069 67.738729 
L 371.824723 67.92342 
L 372.149378 59.419935 
L 372.474032 59.306077 
L 372.798687 49.97457 
L 372.798687 49.97457 
" clip-path="url(#p1b066b381a)" style="fill: none; stroke: #3a4cc0; stroke-width: 1.5; stroke-linecap: square"/>
   </g>
   <g id="patch_3">
    <path d="M 31.911414 273.312 
L 31.911414 7.2 
" style="fill: none; stroke: #000000; stroke-width: 0.8; stroke-linejoin: miter; stroke-linecap: square"/>
   </g>
   <g id="patch_4">
    <path d="M 389.031414 273.312 
L 389.031414 7.2 
" style="fill: none; stroke: #000000; stroke-width: 0.8; stroke-linejoin: miter; stroke-linecap: square"/>
   </g>
   <g id="patch_5">
    <path d="M 31.911414 273.312 
L 389.031414 273.312 
" style="fill: none; stroke: #000000; stroke-width: 0.8; stroke-linejoin: miter; stroke-linecap: square"/>
   </g>
   <g id="patch_6">
    <path d="M 31.911414 7.2 
L 389.031414 7.2 
" style="fill: none; stroke: #000000; stroke-width: 0.8; stroke-linejoin: miter; stroke-linecap: square"/>
   </g>
   <g id="legend_1">
    <g id="patch_7">
     <path d="M 38.911414 268.312 
L 116.020165 268.312 
Q 118.020165 268.312 118.020165 266.312 
L 118.020165 225.500465 
Q 118.020165 223.500465 116.020165 223.500465 
L 38.911414 223.500465 
Q 36.911414 223.500465 36.911414 225.500465 
L 36.911414 266.312 
Q 36.911414 268.312 38.911414 268.312 
z
" style="fill: #ffffff; opacity: 0.8; stroke: #cccccc; stroke-linejoin: miter"/>
    </g>
    <g id="line2d_15">
     <path d="M 40.911414 231.000465 
L 50.911414 231.000465 
L 60.911414 231.000465 
" style="fill: none; stroke: #e46e56; stroke-width: 1.5; stroke-linecap: square"/>
    </g>
    <g id="text_12">
     <!-- CBO -->
     <g transform="translate(68.911414 234.500465) scale(0.1 -0.1)">
      <defs>
       <path id="CMSS17-43" d="M 3501 714 
C 3072 427 2874 344 2355 344 
C 1459 344 934 1303 934 2179 
C 934 3112 1472 4032 2381 4032 
C 2790 4032 3059 3918 3386 3715 
L 3475 4217 
C 3168 4370 2778 4440 2387 4440 
C 1158 4440 397 3316 397 2179 
C 397 927 1299 -64 2323 -64 
C 2874 -64 3066 -19 3539 280 
L 3501 714 
z
" transform="scale(0.015625)"/>
       <path id="CMSS17-42" d="M 570 4416 
L 570 0 
L 2163 0 
C 3034 0 3667 574 3667 1200 
C 3667 1685 3251 2176 2502 2317 
C 3334 2558 3501 3040 3501 3313 
C 3501 3883 2874 4416 1997 4416 
L 570 4416 
z
M 1088 2496 
L 1088 4059 
L 1824 4059 
C 2483 4059 3002 3724 3002 3306 
C 3002 2926 2592 2496 1766 2496 
L 1088 2496 
z
M 1088 357 
L 1088 2107 
L 1939 2107 
C 2630 2107 3162 1679 3162 1206 
C 3162 772 2694 357 1984 357 
L 1088 357 
z
" transform="scale(0.015625)"/>
       <path id="CMSS17-4f" d="M 4096 2178 
C 4096 3503 3219 4497 2214 4497 
C 1210 4497 333 3497 333 2178 
C 333 847 1222 -128 2214 -128 
C 3206 -128 4096 847 4096 2178 
z
M 2214 273 
C 1510 273 870 1057 870 2261 
C 870 3433 1549 4096 2214 4096 
C 2880 4096 3558 3433 3558 2261 
C 3558 1051 2912 273 2214 273 
z
" transform="scale(0.015625)"/>
      </defs>
      <use xlink:href="#CMSS17-43" transform="scale(0.996264)"/>
      <use xlink:href="#CMSS17-42" transform="translate(59.855772 0) scale(0.996264)"/>
      <use xlink:href="#CMSS17-4f" transform="translate(122.193812 0) scale(0.996264)"/>
     </g>
    </g>
    <g id="line2d_16">
     <path d="M 40.911414 244.937643 
L 50.911414 244.937643 
L 60.911414 244.937643 
" style="fill: none; stroke: #d1dae9; stroke-width: 1.5; stroke-linecap: square"/>
    </g>
    <g id="text_13">
     <!-- SMD-CBO -->
     <g transform="translate(68.911414 248.437643) scale(0.1 -0.1)">
      <defs>
       <path id="CMSS17-53" d="M 2797 4169 
C 2515 4334 2208 4480 1690 4480 
C 864 4480 333 3879 333 3266 
C 333 3025 403 2753 653 2475 
C 902 2196 1184 2121 1542 2033 
C 1690 1994 1939 1924 1984 1906 
C 2342 1767 2515 1444 2515 1140 
C 2515 742 2202 318 1645 318 
C 1453 318 890 318 358 819 
L 269 318 
C 794 -64 1363 -128 1651 -128 
C 2438 -128 3002 488 3002 1186 
C 3002 1440 2925 1763 2656 2061 
C 2394 2347 2163 2410 1638 2549 
C 1338 2626 1146 2677 986 2873 
C 877 3013 819 3146 819 3317 
C 819 3673 1126 4060 1690 4060 
C 1971 4060 2336 4002 2707 3660 
L 2797 4169 
z
" transform="scale(0.015625)"/>
       <path id="CMSS17-4d" d="M 3194 2371 
L 2886 1473 
C 2835 1307 2662 791 2624 587 
L 2618 587 
C 2598 715 2560 849 2458 1174 
C 2400 1365 2336 1562 2272 1741 
L 1325 4416 
L 576 4416 
L 576 0 
L 1075 0 
L 1075 3900 
L 1082 3900 
C 1082 3894 1139 3613 1530 2499 
L 2374 96 
L 2848 96 
L 3610 2231 
C 3661 2378 3821 2843 3891 3066 
C 3955 3257 4115 3728 4154 3913 
L 4160 3913 
L 4160 0 
L 4666 0 
L 4666 4416 
L 3923 4416 
L 3194 2371 
z
" transform="scale(0.015625)"/>
       <path id="CMSS17-44" d="M 570 4416 
L 570 0 
L 2144 0 
C 3194 0 4000 980 4000 2170 
C 4000 3398 3194 4416 2144 4416 
L 570 4416 
z
M 1094 357 
L 1094 4059 
L 2003 4059 
C 2861 4059 3475 3277 3475 2170 
C 3475 1107 2867 357 2003 357 
L 1094 357 
z
" transform="scale(0.015625)"/>
       <path id="CMSS17-2d" d="M 1664 1216 
L 1664 1585 
L 64 1585 
L 64 1216 
L 1664 1216 
z
" transform="scale(0.015625)"/>
      </defs>
      <use xlink:href="#CMSS17-53" transform="scale(0.996264)"/>
      <use xlink:href="#CMSS17-4d" transform="translate(52.048516 0) scale(0.996264)"/>
      <use xlink:href="#CMSS17-44" transform="translate(133.724546 0) scale(0.996264)"/>
      <use xlink:href="#CMSS17-2d" transform="translate(201.267388 0) scale(0.996264)"/>
      <use xlink:href="#CMSS17-43" transform="translate(232.496501 0) scale(0.996264)"/>
      <use xlink:href="#CMSS17-42" transform="translate(292.352272 0) scale(0.996264)"/>
      <use xlink:href="#CMSS17-4f" transform="translate(354.690312 0) scale(0.996264)"/>
     </g>
    </g>
    <g id="line2d_17">
     <path d="M 40.911414 258.874822 
L 50.911414 258.874822 
L 60.911414 258.874822 
" style="fill: none; stroke: #3a4cc0; stroke-width: 1.5; stroke-linecap: square"/>
    </g>
    <g id="text_14">
     <!-- GCN-CBO -->
     <g transform="translate(68.911414 262.374822) scale(0.1 -0.1)">
      <defs>
       <path id="CMSS17-47" d="M 3610 1856 
L 2336 1856 
L 2336 1461 
L 3123 1461 
L 3123 471 
C 2874 401 2618 350 2362 350 
C 1466 350 934 1301 934 2200 
C 934 3095 1491 4032 2362 4032 
C 2854 4032 3130 3881 3469 3627 
L 3552 4134 
C 3130 4351 2867 4440 2387 4440 
C 1146 4440 397 3324 397 2182 
C 397 1090 1152 -64 2349 -64 
C 2797 -64 3213 51 3610 248 
L 3610 1856 
z
" transform="scale(0.015625)"/>
       <path id="CMSS17-4e" d="M 1466 4180 
L 1350 4416 
L 563 4416 
L 563 0 
L 1062 0 
L 1062 3926 
L 1069 3932 
C 1114 3817 1139 3760 1402 3194 
L 2771 236 
L 2886 0 
L 3674 0 
L 3674 4416 
L 3174 4416 
L 3174 490 
L 3168 483 
C 3123 598 3098 655 2835 1221 
L 1466 4180 
z
" transform="scale(0.015625)"/>
      </defs>
      <use xlink:href="#CMSS17-47" transform="scale(0.996264)"/>
      <use xlink:href="#CMSS17-43" transform="translate(62.458226 0) scale(0.996264)"/>
      <use xlink:href="#CMSS17-4e" transform="translate(122.313997 0) scale(0.996264)"/>
      <use xlink:href="#CMSS17-2d" transform="translate(188.375516 0) scale(0.996264)"/>
      <use xlink:href="#CMSS17-43" transform="translate(219.604629 0) scale(0.996264)"/>
      <use xlink:href="#CMSS17-42" transform="translate(279.460401 0) scale(0.996264)"/>
      <use xlink:href="#CMSS17-4f" transform="translate(341.798441 0) scale(0.996264)"/>
     </g>
    </g>
   </g>
  </g>
 </g>
 <defs>
  <clipPath id="p1b066b381a">
   <rect x="31.911414" y="7.2" width="357.12" height="266.112"/>
  </clipPath>
 </defs>
</svg>
