<?xml version="1.0" encoding="utf-8" standalone="no"?>
<!DOCTYPE svg PUBLIC "-//W3C//DTD SVG 1.1//EN"
  "http://www.w3.org/Graphics/SVG/1.1/DTD/svg11.dtd">
<svg xmlns:xlink="http://www.w3.org/1999/xlink" width="1118.77364pt" height="296.367677pt" viewBox="0 0 1118.77364 296.367677" xmlns="http://www.w3.org/2000/svg" version="1.1">
 <metadata>
  <rdf:RDF xmlns:dc="http://purl.org/dc/elements/1.1/" xmlns:cc="http://creativecommons.org/ns#" xmlns:rdf="http://www.w3.org/1999/02/22-rdf-syntax-ns#">
   <cc:Work>
    <dc:type rdf:resource="http://purl.org/dc/dcmitype/StillImage"/>
    <dc:date>2026-03-26T18:25:54.450242</dc:date>
    <dc:format>image/svg+xml</dc:format>
    <dc:creator>
     <cc:Agent>
      <dc:title>Matplotlib v3.10.7, https://matplotlib.org/</dc:title>
     </cc:Agent>
    </dc:creator>
   </cc:Work>
  </rdf:RDF>
 </metadata>
 <defs>
  <style type="text/css">*{stroke-linejoin: round; stroke-linecap: butt}</style>
 </defs>
 <g id="figure_1">
  <g id="patch_1">
   <path d="M 0 296.367677 
L 1118.77364 296.367677 
L 1118.77364 0 
L 0 0 
z
" style="fill: #ffffff"/>
  </g>
  <g id="axes_1">
   <g id="patch_2">
    <path d="M 40.21364 273.312 
L 1111.57364 273.312 
L 1111.57364 7.2 
L 40.21364 7.2 
z
" style="fill: #ffffff"/>
   </g>
   <g id="matplotlib.axis_1">
    <g id="xtick_1">
     <g id="line2d_1">
      <defs>
       <path id="mffdb96e6d8" d="M 0 0 
L 0 3.5 
" style="stroke: #000000; stroke-width: 0.8"/>
      </defs>
      <g>
       <use xlink:href="#mffdb96e6d8" x="88.911821" y="273.312" style="stroke: #000000; stroke-width: 0.8"/>
      </g>
     </g>
     <g id="text_1">
      <!-- $\mathdefault{0}$ -->
      <g transform="translate(86.421154 287.230498) scale(0.1 -0.1)">
       <defs>
        <path id="CMR17-30" d="M 2688 2025 
C 2688 2416 2682 3080 2413 3591 
C 2176 4039 1798 4198 1466 4198 
C 1158 4198 768 4058 525 3597 
C 269 3118 243 2524 243 2025 
C 243 1661 250 1106 448 619 
C 723 -39 1216 -128 1466 -128 
C 1760 -128 2208 -7 2470 600 
C 2662 1042 2688 1559 2688 2025 
z
M 1466 -26 
C 1056 -26 813 325 723 812 
C 653 1188 653 1738 653 2096 
C 653 2588 653 2997 736 3387 
C 858 3929 1216 4096 1466 4096 
C 1728 4096 2067 3923 2189 3400 
C 2272 3036 2278 2607 2278 2096 
C 2278 1680 2278 1169 2202 792 
C 2067 95 1690 -26 1466 -26 
z
" transform="scale(0.015625)"/>
       </defs>
       <use xlink:href="#CMR17-30" transform="scale(0.996264)"/>
      </g>
     </g>
    </g>
    <g id="xtick_2">
     <g id="line2d_2">
      <g>
       <use xlink:href="#mffdb96e6d8" x="283.704549" y="273.312" style="stroke: #000000; stroke-width: 0.8"/>
      </g>
     </g>
     <g id="text_2">
      <!-- $\mathdefault{200}$ -->
      <g transform="translate(276.232546 287.230498) scale(0.1 -0.1)">
       <defs>
        <path id="CMR17-32" d="M 2669 989 
L 2554 989 
C 2490 536 2438 459 2413 420 
C 2381 369 1920 369 1830 369 
L 602 369 
C 832 619 1280 1072 1824 1597 
C 2214 1967 2669 2402 2669 3035 
C 2669 3790 2067 4224 1395 4224 
C 691 4224 262 3604 262 3030 
C 262 2780 448 2748 525 2748 
C 589 2748 781 2787 781 3010 
C 781 3207 614 3264 525 3264 
C 486 3264 448 3258 422 3245 
C 544 3790 915 4058 1306 4058 
C 1862 4058 2227 3617 2227 3035 
C 2227 2479 1901 2000 1536 1584 
L 262 146 
L 262 0 
L 2515 0 
L 2669 989 
z
" transform="scale(0.015625)"/>
       </defs>
       <use xlink:href="#CMR17-32" transform="scale(0.996264)"/>
       <use xlink:href="#CMR17-30" transform="translate(45.690477 0) scale(0.996264)"/>
       <use xlink:href="#CMR17-30" transform="translate(91.380954 0) scale(0.996264)"/>
      </g>
     </g>
    </g>
    <g id="xtick_3">
     <g id="line2d_3">
      <g>
       <use xlink:href="#mffdb96e6d8" x="478.497276" y="273.312" style="stroke: #000000; stroke-width: 0.8"/>
      </g>
     </g>
     <g id="text_3">
      <!-- $\mathdefault{400}$ -->
      <g transform="translate(471.025273 287.230498) scale(0.1 -0.1)">
       <defs>
        <path id="CMR17-34" d="M 2150 4122 
C 2150 4256 2144 4256 2029 4256 
L 128 1254 
L 128 1088 
L 1779 1088 
L 1779 457 
C 1779 224 1766 160 1318 160 
L 1197 160 
L 1197 0 
C 1402 0 1747 0 1965 0 
C 2182 0 2528 0 2733 0 
L 2733 160 
L 2611 160 
C 2163 160 2150 224 2150 457 
L 2150 1088 
L 2803 1088 
L 2803 1254 
L 2150 1254 
L 2150 4122 
z
M 1798 3703 
L 1798 1254 
L 256 1254 
L 1798 3703 
z
" transform="scale(0.015625)"/>
       </defs>
       <use xlink:href="#CMR17-34" transform="scale(0.996264)"/>
       <use xlink:href="#CMR17-30" transform="translate(45.690477 0) scale(0.996264)"/>
       <use xlink:href="#CMR17-30" transform="translate(91.380954 0) scale(0.996264)"/>
      </g>
     </g>
    </g>
    <g id="xtick_4">
     <g id="line2d_4">
      <g>
       <use xlink:href="#mffdb96e6d8" x="673.290003" y="273.312" style="stroke: #000000; stroke-width: 0.8"/>
      </g>
     </g>
     <g id="text_4">
      <!-- $\mathdefault{600}$ -->
      <g transform="translate(665.818 287.230498) scale(0.1 -0.1)">
       <defs>
        <path id="CMR17-36" d="M 678 2176 
C 678 3690 1395 4032 1811 4032 
C 1946 4032 2272 4009 2400 3776 
C 2298 3776 2106 3776 2106 3553 
C 2106 3381 2246 3323 2336 3323 
C 2394 3323 2566 3348 2566 3560 
C 2566 3954 2246 4179 1805 4179 
C 1043 4179 243 3390 243 1984 
C 243 253 966 -128 1478 -128 
C 2099 -128 2688 427 2688 1283 
C 2688 2081 2170 2662 1517 2662 
C 1126 2662 838 2407 678 1960 
L 678 2176 
z
M 1478 25 
C 691 25 691 1200 691 1436 
C 691 1896 909 2560 1504 2560 
C 1613 2560 1926 2560 2138 2120 
C 2253 1870 2253 1609 2253 1289 
C 2253 944 2253 690 2118 434 
C 1978 171 1773 25 1478 25 
z
" transform="scale(0.015625)"/>
       </defs>
       <use xlink:href="#CMR17-36" transform="scale(0.996264)"/>
       <use xlink:href="#CMR17-30" transform="translate(45.690477 0) scale(0.996264)"/>
       <use xlink:href="#CMR17-30" transform="translate(91.380954 0) scale(0.996264)"/>
      </g>
     </g>
    </g>
    <g id="xtick_5">
     <g id="line2d_5">
      <g>
       <use xlink:href="#mffdb96e6d8" x="868.082731" y="273.312" style="stroke: #000000; stroke-width: 0.8"/>
      </g>
     </g>
     <g id="text_5">
      <!-- $\mathdefault{800}$ -->
      <g transform="translate(860.610728 287.230498) scale(0.1 -0.1)">
       <defs>
        <path id="CMR17-38" d="M 1741 2264 
C 2144 2467 2554 2773 2554 3263 
C 2554 3841 1990 4179 1472 4179 
C 890 4179 378 3759 378 3180 
C 378 3021 416 2747 666 2505 
C 730 2442 998 2251 1171 2130 
C 883 1983 211 1634 211 934 
C 211 279 838 -128 1459 -128 
C 2144 -128 2720 362 2720 1010 
C 2720 1590 2330 1857 2074 2029 
L 1741 2264 
z
M 902 2822 
C 851 2854 595 3051 595 3351 
C 595 3739 998 4032 1459 4032 
C 1965 4032 2336 3676 2336 3262 
C 2336 2669 1670 2331 1638 2331 
C 1632 2331 1626 2331 1574 2370 
L 902 2822 
z
M 2080 1519 
C 2176 1449 2483 1240 2483 851 
C 2483 381 2010 25 1472 25 
C 890 25 448 438 448 940 
C 448 1443 838 1862 1280 2060 
L 2080 1519 
z
" transform="scale(0.015625)"/>
       </defs>
       <use xlink:href="#CMR17-38" transform="scale(0.996264)"/>
       <use xlink:href="#CMR17-30" transform="translate(45.690477 0) scale(0.996264)"/>
       <use xlink:href="#CMR17-30" transform="translate(91.380954 0) scale(0.996264)"/>
      </g>
     </g>
    </g>
    <g id="xtick_6">
     <g id="line2d_6">
      <g>
       <use xlink:href="#mffdb96e6d8" x="1062.875458" y="273.312" style="stroke: #000000; stroke-width: 0.8"/>
      </g>
     </g>
     <g id="text_6">
      <!-- $\mathdefault{1000}$ -->
      <g transform="translate(1052.912787 287.230498) scale(0.1 -0.1)">
       <defs>
        <path id="CMR17-31" d="M 1702 4058 
C 1702 4192 1696 4192 1606 4192 
C 1357 3916 979 3827 621 3827 
C 602 3827 570 3827 563 3808 
C 557 3795 557 3782 557 3648 
C 755 3648 1088 3686 1344 3839 
L 1344 461 
C 1344 236 1331 160 781 160 
L 589 160 
L 589 0 
C 896 0 1216 0 1523 0 
C 1830 0 2150 0 2458 0 
L 2458 160 
L 2266 160 
C 1715 160 1702 230 1702 458 
L 1702 4058 
z
" transform="scale(0.015625)"/>
       </defs>
       <use xlink:href="#CMR17-31" transform="scale(0.996264)"/>
       <use xlink:href="#CMR17-30" transform="translate(45.690477 0) scale(0.996264)"/>
       <use xlink:href="#CMR17-30" transform="translate(91.380954 0) scale(0.996264)"/>
       <use xlink:href="#CMR17-30" transform="translate(137.071431 0) scale(0.996264)"/>
      </g>
     </g>
    </g>
   </g>
   <g id="matplotlib.axis_2">
    <g id="ytick_1">
     <g id="line2d_7">
      <defs>
       <path id="m9ece8a0a55" d="M 0 0 
L -3.5 0 
" style="stroke: #000000; stroke-width: 0.8"/>
      </defs>
      <g>
       <use xlink:href="#m9ece8a0a55" x="40.21364" y="261.563819" style="stroke: #000000; stroke-width: 0.8"/>
      </g>
     </g>
     <g id="text_7">
      <!-- 0.0\% -->
      <g transform="translate(12.181335 265.023069) scale(0.1 -0.1)">
       <defs>
        <path id="CMSS17-30" d="M 2758 2044 
C 2758 2405 2752 3077 2490 3596 
C 2227 4096 1805 4229 1504 4229 
C 1069 4229 698 3975 506 3570 
C 301 3146 243 2709 243 2044 
C 243 1589 262 1031 493 543 
C 755 5 1197 -128 1498 -128 
C 1894 -128 2278 81 2496 518 
C 2720 974 2758 1474 2758 2044 
z
M 1498 261 
C 1011 261 864 811 819 995 
C 742 1310 730 1614 730 2114 
C 730 2506 730 2948 851 3297 
C 998 3701 1254 3840 1498 3840 
C 1971 3840 2125 3372 2176 3208 
C 2272 2873 2272 2481 2272 2114 
C 2272 1526 2272 261 1498 261 
z
" transform="scale(0.015625)"/>
        <path id="CMSS17-2e" d="M 1088 510 
L 576 510 
L 576 0 
L 1088 0 
L 1088 510 
z
" transform="scale(0.015625)"/>
        <path id="CMSS17-25" d="M 3923 4583 
C 3962 4647 3962 4679 3962 4685 
C 3962 4755 3904 4800 3853 4800 
C 3782 4800 3750 4749 3718 4685 
L 1101 -104 
C 1088 -129 1062 -167 1062 -206 
C 1062 -276 1120 -320 1178 -320 
C 1235 -320 1248 -295 1299 -206 
L 3923 4583 
z
M 4678 959 
C 4678 1698 4282 2240 3846 2240 
C 3418 2240 3008 1711 3008 959 
C 3008 208 3418 -320 3846 -320 
C 4288 -320 4678 221 4678 959 
z
M 3846 68 
C 3712 68 3494 189 3494 959 
C 3494 1724 3712 1851 3846 1851 
C 4083 1851 4211 1386 4211 959 
C 4211 533 4083 68 3846 68 
z
M 2003 3519 
C 2003 4258 1606 4800 1171 4800 
C 742 4800 333 4271 333 3519 
C 333 2768 742 2240 1171 2240 
C 1613 2240 2003 2781 2003 3519 
z
M 1171 2628 
C 1037 2628 819 2749 819 3519 
C 819 4284 1037 4411 1171 4411 
C 1408 4411 1536 3946 1536 3519 
C 1536 3093 1408 2628 1171 2628 
z
" transform="scale(0.015625)"/>
       </defs>
       <use xlink:href="#CMSS17-30" transform="scale(0.996264)"/>
       <use xlink:href="#CMSS17-2e" transform="translate(46.843624 0) scale(0.996264)"/>
       <use xlink:href="#CMSS17-30" transform="translate(72.867828 0) scale(0.996264)"/>
       <use xlink:href="#CMSS17-25" transform="translate(119.711452 0) scale(0.996264)"/>
      </g>
     </g>
    </g>
    <g id="ytick_2">
     <g id="line2d_8">
      <g>
       <use xlink:href="#m9ece8a0a55" x="40.21364" y="211.670747" style="stroke: #000000; stroke-width: 0.8"/>
      </g>
     </g>
     <g id="text_8">
      <!-- 2.0\% -->
      <g transform="translate(12.181335 215.129996) scale(0.1 -0.1)">
       <defs>
        <path id="CMSS17-32" d="M 1651 1357 
C 1830 1541 2099 1764 2285 1987 
C 2464 2204 2701 2511 2701 2957 
C 2701 3657 2227 4288 1421 4288 
C 787 4288 422 3893 250 3274 
L 499 2929 
C 640 3510 838 3880 1338 3880 
C 1888 3880 2195 3433 2195 2942 
C 2195 2355 1747 1901 1408 1563 
C 1030 1187 659 804 301 408 
L 301 0 
L 2701 0 
L 2701 433 
L 1613 433 
C 1536 433 1459 433 1382 433 
L 742 433 
L 742 439 
L 1651 1357 
z
" transform="scale(0.015625)"/>
       </defs>
       <use xlink:href="#CMSS17-32" transform="scale(0.996264)"/>
       <use xlink:href="#CMSS17-2e" transform="translate(46.843624 0) scale(0.996264)"/>
       <use xlink:href="#CMSS17-30" transform="translate(72.867828 0) scale(0.996264)"/>
       <use xlink:href="#CMSS17-25" transform="translate(119.711452 0) scale(0.996264)"/>
      </g>
     </g>
    </g>
    <g id="ytick_3">
     <g id="line2d_9">
      <g>
       <use xlink:href="#m9ece8a0a55" x="40.21364" y="161.777674" style="stroke: #000000; stroke-width: 0.8"/>
      </g>
     </g>
     <g id="text_9">
      <!-- 4.0\% -->
      <g transform="translate(12.181335 165.236924) scale(0.1 -0.1)">
       <defs>
        <path id="CMSS17-34" d="M 2253 1088 
L 2835 1088 
L 2835 1477 
L 2253 1477 
L 2253 4192 
L 1690 4192 
L 166 1477 
L 166 1088 
L 1747 1088 
L 1747 0 
L 2253 0 
L 2253 1088 
z
M 659 1477 
C 1030 2127 1766 3439 1766 3885 
L 1766 1477 
L 659 1477 
z
" transform="scale(0.015625)"/>
       </defs>
       <use xlink:href="#CMSS17-34" transform="scale(0.996264)"/>
       <use xlink:href="#CMSS17-2e" transform="translate(46.843624 0) scale(0.996264)"/>
       <use xlink:href="#CMSS17-30" transform="translate(72.867828 0) scale(0.996264)"/>
       <use xlink:href="#CMSS17-25" transform="translate(119.711452 0) scale(0.996264)"/>
      </g>
     </g>
    </g>
    <g id="ytick_4">
     <g id="line2d_10">
      <g>
       <use xlink:href="#m9ece8a0a55" x="40.21364" y="111.884602" style="stroke: #000000; stroke-width: 0.8"/>
      </g>
     </g>
     <g id="text_10">
      <!-- 6.0\% -->
      <g transform="translate(12.181335 115.343851) scale(0.1 -0.1)">
       <defs>
        <path id="CMSS17-36" d="M 2496 4101 
C 2227 4210 2035 4229 1856 4229 
C 1024 4229 250 3368 250 2006 
C 250 265 986 -128 1510 -128 
C 1798 -128 2086 -39 2362 280 
C 2643 617 2752 898 2752 1389 
C 2752 2179 2362 2880 1779 2880 
C 1357 2880 992 2657 768 2376 
C 832 3258 1254 3840 1862 3840 
C 2029 3840 2246 3816 2496 3710 
L 2496 4101 
z
M 774 1369 
C 774 1420 774 1452 781 1548 
C 781 2045 1069 2491 1536 2491 
C 1837 2491 1990 2332 2106 2135 
C 2240 1886 2246 1650 2246 1388 
C 2246 1140 2246 891 2099 637 
C 1978 439 1818 267 1510 267 
C 902 267 800 1114 774 1369 
z
" transform="scale(0.015625)"/>
       </defs>
       <use xlink:href="#CMSS17-36" transform="scale(0.996264)"/>
       <use xlink:href="#CMSS17-2e" transform="translate(46.843624 0) scale(0.996264)"/>
       <use xlink:href="#CMSS17-30" transform="translate(72.867828 0) scale(0.996264)"/>
       <use xlink:href="#CMSS17-25" transform="translate(119.711452 0) scale(0.996264)"/>
      </g>
     </g>
    </g>
    <g id="ytick_5">
     <g id="line2d_11">
      <g>
       <use xlink:href="#m9ece8a0a55" x="40.21364" y="61.991529" style="stroke: #000000; stroke-width: 0.8"/>
      </g>
     </g>
     <g id="text_11">
      <!-- 8.0\% -->
      <g transform="translate(12.181335 65.450779) scale(0.1 -0.1)">
       <defs>
        <path id="CMSS17-38" d="M 1933 2222 
C 2419 2380 2669 2760 2669 3134 
C 2669 3722 2157 4229 1504 4229 
C 826 4229 333 3708 333 3144 
C 333 2780 576 2403 1069 2241 
C 442 1997 250 1512 250 1149 
C 250 446 819 -128 1498 -128 
C 2202 -128 2752 455 2752 1138 
C 2752 1557 2502 2000 1933 2222 
z
M 1504 2432 
C 1075 2432 787 2712 787 3136 
C 787 3566 1075 3840 1504 3840 
C 1901 3840 2214 3591 2214 3136 
C 2214 2687 1907 2432 1504 2432 
z
M 1504 267 
C 1139 267 749 517 749 1156 
C 749 1813 1184 2043 1498 2043 
C 1843 2043 2253 1800 2253 1156 
C 2253 491 1830 267 1504 267 
z
" transform="scale(0.015625)"/>
       </defs>
       <use xlink:href="#CMSS17-38" transform="scale(0.996264)"/>
       <use xlink:href="#CMSS17-2e" transform="translate(46.843624 0) scale(0.996264)"/>
       <use xlink:href="#CMSS17-30" transform="translate(72.867828 0) scale(0.996264)"/>
       <use xlink:href="#CMSS17-25" transform="translate(119.711452 0) scale(0.996264)"/>
      </g>
     </g>
    </g>
    <g id="ytick_6">
     <g id="line2d_12">
      <g>
       <use xlink:href="#m9ece8a0a55" x="40.21364" y="12.098457" style="stroke: #000000; stroke-width: 0.8"/>
      </g>
     </g>
     <g id="text_12">
      <!-- 10.0\% -->
      <g transform="translate(7.2 15.557706) scale(0.1 -0.1)">
       <defs>
        <path id="CMSS17-31" d="M 1818 4288 
L 1696 4288 
C 1350 3940 947 3890 538 3890 
L 538 3520 
C 723 3520 1024 3520 1325 3667 
L 1325 369 
L 570 369 
L 570 0 
L 2573 0 
L 2573 369 
L 1818 369 
L 1818 4288 
z
" transform="scale(0.015625)"/>
       </defs>
       <use xlink:href="#CMSS17-31" transform="scale(0.996264)"/>
       <use xlink:href="#CMSS17-30" transform="translate(46.843624 0) scale(0.996264)"/>
       <use xlink:href="#CMSS17-2e" transform="translate(93.687247 0) scale(0.996264)"/>
       <use xlink:href="#CMSS17-30" transform="translate(119.711452 0) scale(0.996264)"/>
       <use xlink:href="#CMSS17-25" transform="translate(166.555075 0) scale(0.996264)"/>
      </g>
     </g>
    </g>
   </g>
   <g id="line2d_13">
    <path d="M 88.911821 261.216 
L 96.703531 258.734888 
L 100.599385 257.529114 
L 108.391094 255.18713 
L 111.312985 254.468303 
L 119.104694 252.149507 
L 121.052621 251.66256 
L 123.000549 251.175613 
L 125.92244 250.479974 
L 135.662076 247.859734 
L 139.557931 246.677148 
L 148.323603 244.080097 
L 168.77684 238.770053 
L 169.750803 238.607738 
L 170.724767 238.329482 
L 172.672694 237.912099 
L 180.464403 236.335318 
L 185.334221 235.361423 
L 188.256112 234.665784 
L 190.20404 234.178837 
L 192.151967 233.645514 
L 219.422949 227.8949 
L 222.34484 227.315201 
L 224.292767 226.944193 
L 232.084476 225.367412 
L 239.876185 223.79063 
L 243.77204 222.955864 
L 246.693931 222.422541 
L 248.641858 222.005157 
L 257.407531 220.289248 
L 259.355458 219.825489 
L 262.277349 219.106662 
L 265.19924 218.457399 
L 267.147167 217.970452 
L 272.016985 216.787866 
L 277.860767 215.442964 
L 280.782658 215.002393 
L 282.730585 214.58501 
L 293.444185 212.729973 
L 300.261931 211.338695 
L 304.157785 210.666244 
L 306.105712 210.202485 
L 308.05364 209.785102 
L 310.975531 209.182215 
L 312.923458 208.764832 
L 316.819312 207.953253 
L 318.76724 207.651809 
L 320.715167 207.30399 
L 322.663094 207.048922 
L 325.584985 206.446035 
L 329.48084 205.796773 
L 334.350658 204.79969 
L 336.298585 204.475059 
L 342.142367 203.153345 
L 348.960112 201.947571 
L 350.90804 201.646127 
L 355.777858 200.904113 
L 357.725785 200.625857 
L 364.543531 199.559211 
L 368.439385 198.909948 
L 370.387312 198.538941 
L 377.205058 197.333167 
L 381.100912 196.776656 
L 385.970731 195.918701 
L 397.658294 194.156416 
L 406.423967 192.788326 
L 408.371894 192.510071 
L 411.293785 191.976748 
L 413.241712 191.768056 
L 414.215676 191.652116 
L 416.163603 191.234733 
L 422.981349 190.214463 
L 428.825131 189.008689 
L 433.694949 188.336238 
L 436.61684 187.849291 
L 437.590803 187.779727 
L 439.538731 187.431907 
L 442.460621 187.084088 
L 443.434585 186.921772 
L 445.382512 186.759456 
L 450.252331 186.202945 
L 460.965931 184.602976 
L 462.913858 184.162405 
L 464.861785 183.791397 
L 469.731603 182.956631 
L 472.653494 182.631999 
L 483.367094 180.939278 
L 496.028621 179.037865 
L 497.002585 178.805986 
L 498.950512 178.504542 
L 500.89844 178.249475 
L 503.820331 177.948031 
L 510.638076 177.066889 
L 514.533931 176.603129 
L 521.351676 175.559671 
L 523.299603 175.281416 
L 534.013203 173.264063 
L 535.961131 172.985807 
L 543.75284 171.571342 
L 550.570585 170.504695 
L 557.388331 169.136606 
L 559.336258 168.696035 
L 563.232112 168.093148 
L 565.18004 167.884456 
L 567.127967 167.698952 
L 571.023821 167.235193 
L 578.815531 166.006231 
L 580.763458 165.727975 
L 583.685349 165.241028 
L 586.60724 164.777269 
L 603.164621 162.481661 
L 610.956331 161.646894 
L 621.669931 160.209241 
L 623.617858 160.070113 
L 631.409567 159.235346 
L 643.097131 158.215076 
L 646.019021 158.006384 
L 647.966949 157.728129 
L 679.133785 154.667318 
L 681.081712 154.435438 
L 682.055676 154.41225 
L 684.977567 154.064431 
L 688.873421 153.62386 
L 690.821349 153.39198 
L 691.795312 153.345604 
L 692.769276 153.183288 
L 695.691167 152.951409 
L 699.587021 152.649965 
L 701.534949 152.394898 
L 704.45684 152.093454 
L 707.378731 151.884763 
L 717.118367 150.88768 
L 721.014221 150.423921 
L 727.831967 149.844222 
L 729.779894 149.612342 
L 731.727821 149.426839 
L 734.649712 149.102207 
L 737.571603 148.84714 
L 741.467458 148.476132 
L 753.155021 147.270358 
L 755.102949 146.968915 
L 758.02484 146.667471 
L 778.478076 143.351593 
L 781.399967 142.93421 
L 783.347894 142.609578 
L 787.243749 142.076255 
L 789.191676 141.774811 
L 792.113567 141.496556 
L 796.009421 141.009609 
L 807.696985 139.803835 
L 811.59284 139.340076 
L 823.280403 138.296617 
L 827.176258 138.04155 
L 830.098149 137.856046 
L 835.941931 137.485039 
L 842.759676 136.951716 
L 845.681567 136.627084 
L 849.577421 136.256077 
L 855.421203 135.792317 
L 857.369131 135.699566 
L 859.317058 135.467686 
L 886.58804 132.963386 
L 899.249567 132.151808 
L 903.145421 131.966304 
L 915.806949 130.714154 
L 918.72884 130.319959 
L 921.650731 130.157643 
L 934.312258 128.743177 
L 938.208112 128.395358 
L 942.103967 128.02435 
L 944.051894 127.862035 
L 950.86964 127.143208 
L 952.817567 126.841764 
L 956.713421 126.378005 
L 970.348912 125.149043 
L 972.29684 125.033103 
L 974.244767 124.801224 
L 976.192694 124.546156 
L 979.114585 124.244713 
L 980.088549 124.059209 
L 983.984403 123.688202 
L 991.776112 122.876623 
L 993.72404 122.621555 
L 997.619894 122.320112 
L 1001.515749 122.041856 
L 1010.281421 121.276654 
L 1018.073131 120.812894 
L 1023.916912 120.349135 
L 1026.838803 120.117256 
L 1038.526367 119.236113 
L 1040.474294 119.027421 
L 1048.266003 118.378159 
L 1050.213931 118.076715 
L 1055.083749 117.68252 
L 1058.979603 117.21876 
L 1060.927531 117.033257 
L 1061.901494 116.870941 
L 1062.875458 116.870941 
L 1062.875458 116.870941 
" clip-path="url(#p57cca34b5c)" style="fill: none; stroke: #e46e56; stroke-width: 1.5; stroke-linecap: square"/>
   </g>
   <g id="line2d_14">
    <path d="M 88.911821 261.216 
L 96.703531 258.688512 
L 101.573349 257.158107 
L 110.339021 254.561055 
L 113.260912 253.633537 
L 117.156767 252.613266 
L 129.818294 248.926381 
L 135.662076 247.094532 
L 162.933058 238.770053 
L 166.828912 237.657031 
L 180.464403 233.552762 
L 182.412331 233.089003 
L 186.308185 231.952793 
L 193.125931 230.236884 
L 197.995749 228.729666 
L 200.91764 227.825336 
L 203.839531 226.874629 
L 212.605203 224.300766 
L 215.527094 223.373247 
L 231.110512 218.990723 
L 235.980331 217.738573 
L 238.902221 216.926994 
L 241.824112 216.208167 
L 245.719967 215.257461 
L 247.667894 214.909641 
L 254.48564 212.892289 
L 257.407531 212.19665 
L 266.173203 209.785102 
L 270.069058 208.695268 
L 272.990949 207.860501 
L 297.34004 202.133075 
L 303.183821 200.927301 
L 318.76724 196.938971 
L 326.558949 194.991183 
L 329.48084 194.318732 
L 334.350658 193.066582 
L 338.246512 191.976748 
L 349.934076 189.008689 
L 355.777858 187.663787 
L 364.543531 185.437743 
L 368.439385 184.510224 
L 370.387312 184.139217 
L 378.179021 182.423308 
L 380.126949 181.959548 
L 389.866585 180.174075 
L 391.814512 179.872632 
L 397.658294 178.805986 
L 402.528112 177.855279 
L 417.137567 175.327791 
L 427.851167 172.84668 
L 429.799094 172.452484 
L 431.747021 172.035101 
L 433.694949 171.640906 
L 451.226294 167.791704 
L 455.122149 166.956937 
L 458.04404 166.377238 
L 459.991967 165.867103 
L 470.705567 163.756999 
L 477.523312 162.226593 
L 481.419167 161.461391 
L 483.367094 161.136759 
L 488.236912 160.023737 
L 491.158803 159.444038 
L 499.924476 157.681753 
L 501.872403 157.241182 
L 510.638076 155.409333 
L 511.61204 155.293393 
L 515.507894 154.458626 
L 528.169421 152.093454 
L 530.117349 151.838387 
L 541.804912 149.98335 
L 544.726803 149.589154 
L 547.648694 149.102207 
L 555.440403 148.081937 
L 566.154003 146.389216 
L 569.075894 146.041396 
L 572.971749 145.368945 
L 577.841567 144.719683 
L 583.685349 143.83854 
L 604.138585 140.847293 
L 607.060476 140.31397 
L 629.46164 137.090843 
L 636.279385 135.560438 
L 638.227312 135.166242 
L 640.17524 134.887987 
L 642.123167 134.540168 
L 647.966949 133.635837 
L 650.88884 133.102514 
L 661.60244 131.154725 
L 668.420185 130.111267 
L 671.342076 129.62432 
L 676.211894 128.859117 
L 689.847385 126.169314 
L 691.795312 125.75193 
L 700.560985 124.383841 
L 703.482876 123.966457 
L 708.352694 123.062127 
L 710.300621 122.830247 
L 714.196476 122.250548 
L 715.17044 122.134608 
L 717.118367 121.740413 
L 724.910076 120.557827 
L 726.858003 120.18682 
L 729.779894 119.769436 
L 732.701785 119.328865 
L 737.571603 118.911482 
L 740.493494 118.517286 
L 749.259167 117.3347 
L 754.128985 116.778189 
L 759.972767 116.012986 
L 763.868621 115.456475 
L 767.764476 115.085468 
L 769.712403 114.94634 
L 772.634294 114.621709 
L 775.556185 114.181138 
L 777.504112 113.92607 
L 781.399967 113.578251 
L 784.321858 113.253619 
L 786.269785 113.021739 
L 829.124185 105.787096 
L 834.967967 104.743637 
L 839.837785 103.978435 
L 849.577421 102.192962 
L 851.525349 101.891518 
L 853.473276 101.497323 
L 855.421203 101.103127 
L 858.343094 100.546616 
L 862.238949 99.920541 
L 866.134803 99.062587 
L 873.926512 97.833625 
L 875.87444 97.601745 
L 886.58804 95.769896 
L 887.562003 95.538017 
L 890.483894 95.097445 
L 894.379749 94.401807 
L 899.249567 93.196033 
L 903.145421 92.477206 
L 905.093349 92.106198 
L 907.041276 91.781567 
L 918.72884 89.370019 
L 922.624694 88.79032 
L 924.572621 88.396125 
L 935.286221 86.5179 
L 941.130003 85.497629 
L 972.29684 80.210774 
L 979.114585 78.981812 
L 982.036476 78.564429 
L 1000.541785 75.573182 
L 1003.463676 75.132611 
L 1011.255385 73.926837 
L 1019.047094 72.721063 
L 1024.890876 71.770356 
L 1026.838803 71.538477 
L 1044.370149 68.941425 
L 1046.318076 68.639982 
L 1050.213931 67.990719 
L 1061.901494 65.741486 
L 1062.875458 65.741486 
L 1062.875458 65.741486 
" clip-path="url(#p57cca34b5c)" style="fill: none; stroke: #d1dae9; stroke-width: 1.5; stroke-linecap: square"/>
   </g>
   <g id="line2d_15">
    <path d="M 88.911821 261.216 
L 97.677494 258.201565 
L 106.443167 255.395822 
L 125.92244 249.251012 
L 128.844331 248.369869 
L 130.792258 247.743794 
L 135.662076 246.236577 
L 137.610003 245.63369 
L 139.557931 245.007615 
L 148.323603 242.410563 
L 153.193421 240.903346 
L 160.011167 238.885993 
L 168.77684 236.033874 
L 169.750803 235.801994 
L 172.672694 234.851288 
L 184.360258 231.280342 
L 185.334221 231.07165 
L 190.20404 229.564433 
L 199.943676 226.735502 
L 202.865567 225.807983 
L 230.136549 217.483505 
L 251.563749 211.408259 
L 254.48564 210.71262 
L 257.407531 209.947418 
L 262.277349 208.927147 
L 263.251312 208.648892 
L 265.19924 208.231508 
L 271.043021 206.770667 
L 272.990949 206.306908 
L 281.756621 204.150427 
L 285.652476 203.106969 
L 287.600403 202.620022 
L 290.522294 201.762067 
L 296.366076 200.301226 
L 299.287967 199.605587 
L 304.157785 198.237497 
L 307.079676 197.449106 
L 310.001567 196.61434 
L 311.949494 196.011453 
L 315.845349 194.967995 
L 320.715167 193.715845 
L 323.637058 192.881078 
L 329.48084 191.397049 
L 335.324621 189.704327 
L 338.246512 188.846373 
L 346.038221 186.71308 
L 351.882003 185.205863 
L 352.855967 185.043547 
L 356.751821 184.023277 
L 373.309203 179.988572 
L 377.205058 178.968301 
L 384.996767 177.020513 
L 385.970731 176.881385 
L 389.866585 175.953866 
L 390.840549 175.791551 
L 394.736403 174.77128 
L 399.606221 173.588694 
L 400.580185 173.403191 
L 402.528112 172.800304 
L 406.423967 171.687282 
L 410.319821 170.643823 
L 420.059458 168.394591 
L 422.981349 167.791704 
L 425.90324 167.119253 
L 430.773058 165.867103 
L 432.720985 165.310592 
L 437.590803 164.220758 
L 439.538731 163.849751 
L 441.486658 163.339615 
L 443.434585 162.922232 
L 445.382512 162.504849 
L 449.278367 161.600518 
L 457.070076 159.467226 
L 463.887821 157.93682 
L 465.835749 157.565813 
L 467.783676 157.009302 
L 469.731603 156.615107 
L 475.575385 155.177453 
L 477.523312 154.690506 
L 479.47124 154.180371 
L 481.419167 153.670236 
L 484.341058 152.905033 
L 485.315021 152.603589 
L 486.288985 152.464462 
L 492.132767 151.026808 
L 498.950512 149.496403 
L 501.872403 148.939891 
L 507.716185 147.36311 
L 510.638076 146.760223 
L 513.559967 146.087772 
L 518.429785 145.137066 
L 522.32564 144.325487 
L 524.273567 143.908104 
L 532.065276 141.960315 
L 539.856985 139.827023 
L 542.778876 139.154572 
L 544.726803 138.667625 
L 549.596621 137.438663 
L 551.544549 136.951716 
L 574.919676 131.432981 
L 576.867603 131.061973 
L 579.789494 130.343147 
L 581.737421 129.925763 
L 584.659312 129.230124 
L 587.581203 128.580861 
L 597.32084 126.354817 
L 606.086512 124.383841 
L 611.930294 122.691119 
L 622.643894 119.978128 
L 629.46164 118.262219 
L 641.149203 115.015904 
L 664.524331 109.543545 
L 670.368112 108.245019 
L 672.31604 107.688508 
L 674.263967 107.178373 
L 677.185858 106.389983 
L 710.300621 97.740873 
L 713.222512 97.161174 
L 717.118367 96.18728 
L 719.066294 95.793084 
L 721.014221 95.306137 
L 726.858003 93.961235 
L 731.727821 92.732273 
L 737.571603 91.155492 
L 744.389349 89.462771 
L 746.337276 88.90626 
L 748.285203 88.396125 
L 752.181058 87.468606 
L 754.128985 86.981659 
L 761.920694 84.848367 
L 765.816549 83.665781 
L 767.764476 83.178833 
L 770.686367 82.460007 
L 782.373931 79.607887 
L 785.295821 78.726745 
L 786.269785 78.518053 
L 788.217712 77.98473 
L 795.035458 76.292009 
L 798.931312 75.48043 
L 800.87924 75.016671 
L 809.644912 73.277574 
L 812.566803 72.628311 
L 814.514731 72.210928 
L 820.358512 71.05153 
L 823.280403 70.425455 
L 828.150221 69.173305 
L 830.098149 68.66317 
L 832.046076 68.31535 
L 837.889858 67.016824 
L 842.759676 65.880614 
L 846.655531 64.953096 
L 864.186876 60.872015 
L 872.952549 59.10973 
L 884.640112 56.419926 
L 888.535967 55.492408 
L 895.353712 53.799686 
L 927.494512 46.217223 
L 932.364331 45.243329 
L 937.234149 44.037555 
L 942.103967 42.947721 
L 944.051894 42.414397 
L 969.374949 36.292776 
L 974.244767 35.087002 
L 984.958367 32.884145 
L 999.567821 30.194342 
L 1018.073131 27.040779 
L 1028.786731 24.837923 
L 1030.734658 24.559667 
L 1032.682585 24.327788 
L 1035.604476 23.701713 
L 1045.344112 21.91624 
L 1050.213931 21.151037 
L 1053.135821 20.594526 
L 1056.057712 20.153955 
L 1058.00564 19.898887 
L 1059.953567 19.620631 
L 1062.875458 19.296 
L 1062.875458 19.296 
" clip-path="url(#p57cca34b5c)" style="fill: none; stroke: #3a4cc0; stroke-width: 1.5; stroke-linecap: square"/>
   </g>
   <g id="patch_3">
    <path d="M 40.21364 273.312 
L 40.21364 7.2 
" style="fill: none; stroke: #000000; stroke-width: 0.8; stroke-linejoin: miter; stroke-linecap: square"/>
   </g>
   <g id="patch_4">
    <path d="M 1111.57364 273.312 
L 1111.57364 7.2 
" style="fill: none; stroke: #000000; stroke-width: 0.8; stroke-linejoin: miter; stroke-linecap: square"/>
   </g>
   <g id="patch_5">
    <path d="M 40.21364 273.312 
L 1111.57364 273.312 
" style="fill: none; stroke: #000000; stroke-width: 0.8; stroke-linejoin: miter; stroke-linecap: square"/>
   </g>
   <g id="patch_6">
    <path d="M 40.21364 7.2 
L 1111.57364 7.2 
" style="fill: none; stroke: #000000; stroke-width: 0.8; stroke-linejoin: miter; stroke-linecap: square"/>
   </g>
   <g id="legend_1">
    <g id="patch_7">
     <path d="M 47.21364 57.011535 
L 140.843809 57.011535 
Q 142.843809 57.011535 142.843809 55.011535 
L 142.843809 14.2 
Q 142.843809 12.2 140.843809 12.2 
L 47.21364 12.2 
Q 45.21364 12.2 45.21364 14.2 
L 45.21364 55.011535 
Q 45.21364 57.011535 47.21364 57.011535 
z
" style="fill: #ffffff; opacity: 0.8; stroke: #cccccc; stroke-linejoin: miter"/>
    </g>
    <g id="line2d_16">
     <path d="M 49.21364 19.7 
L 59.21364 19.7 
L 69.21364 19.7 
" style="fill: none; stroke: #e46e56; stroke-width: 1.5; stroke-linecap: square"/>
    </g>
    <g id="text_13">
     <!-- Langevin -->
     <g transform="translate(77.21364 23.2) scale(0.1 -0.1)">
      <defs>
       <path id="CMSS17-4c" d="M 1670 414 
C 1594 414 1517 414 1440 414 
L 1101 414 
L 1101 4416 
L 563 4416 
L 563 0 
L 3002 0 
L 3002 414 
L 1670 414 
z
" transform="scale(0.015625)"/>
       <path id="CMSS17-61" d="M 2406 1791 
C 2406 2392 1978 2808 1402 2808 
C 1120 2808 813 2757 461 2553 
L 499 2135 
C 659 2248 934 2432 1395 2432 
C 1722 2432 1920 2180 1920 1782 
L 1920 1536 
C 896 1536 256 1238 256 726 
C 256 461 416 -64 947 -64 
C 1043 -64 1562 -64 1933 217 
L 1933 -19 
L 2406 -19 
L 2406 1791 
z
M 1920 816 
C 1920 701 1920 548 1728 434 
C 1562 325 1350 325 1261 325 
C 941 325 723 511 723 744 
C 723 1211 1722 1211 1920 1211 
L 1920 816 
z
" transform="scale(0.015625)"/>
       <path id="CMSS17-6e" d="M 2618 1877 
C 2618 2283 2522 2816 1798 2816 
C 1389 2816 1120 2606 941 2389 
L 941 2758 
L 474 2758 
L 474 0 
L 960 0 
L 960 1559 
C 960 1964 1114 2428 1549 2428 
C 2112 2428 2131 2048 2131 1829 
L 2131 0 
L 2618 0 
L 2618 1877 
z
" transform="scale(0.015625)"/>
       <path id="CMSS17-67" d="M 2848 2808 
C 2483 2808 2170 2738 1914 2617 
C 1702 2777 1485 2808 1338 2808 
C 781 2808 358 2349 358 1814 
C 358 1468 550 1207 563 1195 
C 448 1035 384 863 384 672 
C 384 448 474 289 544 200 
C 211 -3 166 -314 166 -435 
C 166 -898 749 -1280 1498 -1280 
C 2253 -1280 2835 -898 2835 -428 
C 2835 448 1856 448 1587 448 
L 1069 448 
C 973 448 717 448 717 791 
C 717 921 774 1004 781 1010 
C 877 940 1075 832 1338 832 
C 1869 832 2310 1278 2310 1827 
C 2310 2132 2170 2355 2112 2432 
L 2131 2432 
C 2150 2432 2419 2432 2515 2432 
C 2720 2432 2739 2429 2918 2419 
L 2848 2808 
z
M 1338 1182 
C 1120 1182 813 1315 813 1823 
C 813 2375 1165 2464 1331 2464 
C 1549 2464 1856 2331 1856 1823 
C 1856 1271 1504 1182 1338 1182 
z
M 1581 -10 
C 1734 -10 2381 -10 2381 -442 
C 2381 -714 1984 -929 1504 -929 
C 1018 -929 621 -720 621 -435 
C 621 -403 621 -10 1062 -10 
L 1581 -10 
z
" transform="scale(0.015625)"/>
       <path id="CMSS17-65" d="M 2502 1377 
C 2502 1590 2490 2003 2285 2345 
C 2061 2713 1696 2816 1421 2816 
C 755 2816 192 2188 192 1375 
C 192 582 774 -64 1510 -64 
C 1798 -64 2150 19 2470 248 
C 2470 274 2458 414 2451 420 
C 2451 433 2432 630 2432 656 
C 2125 407 1773 325 1517 325 
C 1107 325 666 667 646 1377 
L 2502 1377 
z
M 698 1728 
C 781 2084 1062 2421 1421 2421 
C 1517 2421 1965 2421 2080 1728 
L 698 1728 
z
" transform="scale(0.015625)"/>
       <path id="CMSS17-76" d="M 2675 2752 
L 2176 2752 
L 1747 1556 
C 1613 1165 1421 627 1389 352 
L 1382 352 
C 1370 468 1318 634 1286 749 
C 1248 890 1197 1056 1158 1172 
L 595 2752 
L 83 2752 
L 1094 0 
L 1664 0 
L 2675 2752 
z
" transform="scale(0.015625)"/>
       <path id="CMSS17-69" d="M 979 4183 
L 442 4183 
L 442 3648 
L 979 3648 
L 979 4183 
z
M 947 2739 
L 474 2739 
L 474 0 
L 947 0 
L 947 2739 
z
" transform="scale(0.015625)"/>
      </defs>
      <use xlink:href="#CMSS17-4c" transform="scale(0.996264)"/>
      <use xlink:href="#CMSS17-61" transform="translate(50.687105 0) scale(0.996264)"/>
      <use xlink:href="#CMSS17-6e" transform="translate(95.609026 0) scale(0.996264)"/>
      <use xlink:href="#CMSS17-67" transform="translate(143.813969 0) scale(0.996264)"/>
      <use xlink:href="#CMSS17-65" transform="translate(190.657593 0) scale(0.996264)"/>
      <use xlink:href="#CMSS17-76" transform="translate(232.296415 0) scale(0.996264)"/>
      <use xlink:href="#CMSS17-69" transform="translate(275.296556 0) scale(0.996264)"/>
      <use xlink:href="#CMSS17-6e" transform="translate(297.477279 0) scale(0.996264)"/>
     </g>
    </g>
    <g id="line2d_17">
     <path d="M 49.21364 33.637178 
L 59.21364 33.637178 
L 69.21364 33.637178 
" style="fill: none; stroke: #d1dae9; stroke-width: 1.5; stroke-linecap: square"/>
    </g>
    <g id="text_14">
     <!-- SMD-Langevin -->
     <g transform="translate(77.21364 37.137178) scale(0.1 -0.1)">
      <defs>
       <path id="CMSS17-53" d="M 2797 4169 
C 2515 4334 2208 4480 1690 4480 
C 864 4480 333 3879 333 3266 
C 333 3025 403 2753 653 2475 
C 902 2196 1184 2121 1542 2033 
C 1690 1994 1939 1924 1984 1906 
C 2342 1767 2515 1444 2515 1140 
C 2515 742 2202 318 1645 318 
C 1453 318 890 318 358 819 
L 269 318 
C 794 -64 1363 -128 1651 -128 
C 2438 -128 3002 488 3002 1186 
C 3002 1440 2925 1763 2656 2061 
C 2394 2347 2163 2410 1638 2549 
C 1338 2626 1146 2677 986 2873 
C 877 3013 819 3146 819 3317 
C 819 3673 1126 4060 1690 4060 
C 1971 4060 2336 4002 2707 3660 
L 2797 4169 
z
" transform="scale(0.015625)"/>
       <path id="CMSS17-4d" d="M 3194 2371 
L 2886 1473 
C 2835 1307 2662 791 2624 587 
L 2618 587 
C 2598 715 2560 849 2458 1174 
C 2400 1365 2336 1562 2272 1741 
L 1325 4416 
L 576 4416 
L 576 0 
L 1075 0 
L 1075 3900 
L 1082 3900 
C 1082 3894 1139 3613 1530 2499 
L 2374 96 
L 2848 96 
L 3610 2231 
C 3661 2378 3821 2843 3891 3066 
C 3955 3257 4115 3728 4154 3913 
L 4160 3913 
L 4160 0 
L 4666 0 
L 4666 4416 
L 3923 4416 
L 3194 2371 
z
" transform="scale(0.015625)"/>
       <path id="CMSS17-44" d="M 570 4416 
L 570 0 
L 2144 0 
C 3194 0 4000 980 4000 2170 
C 4000 3398 3194 4416 2144 4416 
L 570 4416 
z
M 1094 357 
L 1094 4059 
L 2003 4059 
C 2861 4059 3475 3277 3475 2170 
C 3475 1107 2867 357 2003 357 
L 1094 357 
z
" transform="scale(0.015625)"/>
       <path id="CMSS17-2d" d="M 1664 1216 
L 1664 1585 
L 64 1585 
L 64 1216 
L 1664 1216 
z
" transform="scale(0.015625)"/>
      </defs>
      <use xlink:href="#CMSS17-53" transform="scale(0.996264)"/>
      <use xlink:href="#CMSS17-4d" transform="translate(52.048516 0) scale(0.996264)"/>
      <use xlink:href="#CMSS17-44" transform="translate(133.724546 0) scale(0.996264)"/>
      <use xlink:href="#CMSS17-2d" transform="translate(201.267388 0) scale(0.996264)"/>
      <use xlink:href="#CMSS17-4c" transform="translate(232.496501 0) scale(0.996264)"/>
      <use xlink:href="#CMSS17-61" transform="translate(283.183606 0) scale(0.996264)"/>
      <use xlink:href="#CMSS17-6e" transform="translate(328.105527 0) scale(0.996264)"/>
      <use xlink:href="#CMSS17-67" transform="translate(376.31047 0) scale(0.996264)"/>
      <use xlink:href="#CMSS17-65" transform="translate(423.154093 0) scale(0.996264)"/>
      <use xlink:href="#CMSS17-76" transform="translate(464.792915 0) scale(0.996264)"/>
      <use xlink:href="#CMSS17-69" transform="translate(507.793057 0) scale(0.996264)"/>
      <use xlink:href="#CMSS17-6e" transform="translate(529.97378 0) scale(0.996264)"/>
     </g>
    </g>
    <g id="line2d_18">
     <path d="M 49.21364 47.574357 
L 59.21364 47.574357 
L 69.21364 47.574357 
" style="fill: none; stroke: #3a4cc0; stroke-width: 1.5; stroke-linecap: square"/>
    </g>
    <g id="text_15">
     <!-- GCN-Langevin -->
     <g transform="translate(77.21364 51.074357) scale(0.1 -0.1)">
      <defs>
       <path id="CMSS17-47" d="M 3610 1856 
L 2336 1856 
L 2336 1461 
L 3123 1461 
L 3123 471 
C 2874 401 2618 350 2362 350 
C 1466 350 934 1301 934 2200 
C 934 3095 1491 4032 2362 4032 
C 2854 4032 3130 3881 3469 3627 
L 3552 4134 
C 3130 4351 2867 4440 2387 4440 
C 1146 4440 397 3324 397 2182 
C 397 1090 1152 -64 2349 -64 
C 2797 -64 3213 51 3610 248 
L 3610 1856 
z
" transform="scale(0.015625)"/>
       <path id="CMSS17-43" d="M 3501 714 
C 3072 427 2874 344 2355 344 
C 1459 344 934 1303 934 2179 
C 934 3112 1472 4032 2381 4032 
C 2790 4032 3059 3918 3386 3715 
L 3475 4217 
C 3168 4370 2778 4440 2387 4440 
C 1158 4440 397 3316 397 2179 
C 397 927 1299 -64 2323 -64 
C 2874 -64 3066 -19 3539 280 
L 3501 714 
z
" transform="scale(0.015625)"/>
       <path id="CMSS17-4e" d="M 1466 4180 
L 1350 4416 
L 563 4416 
L 563 0 
L 1062 0 
L 1062 3926 
L 1069 3932 
C 1114 3817 1139 3760 1402 3194 
L 2771 236 
L 2886 0 
L 3674 0 
L 3674 4416 
L 3174 4416 
L 3174 490 
L 3168 483 
C 3123 598 3098 655 2835 1221 
L 1466 4180 
z
" transform="scale(0.015625)"/>
      </defs>
      <use xlink:href="#CMSS17-47" transform="scale(0.996264)"/>
      <use xlink:href="#CMSS17-43" transform="translate(62.458226 0) scale(0.996264)"/>
      <use xlink:href="#CMSS17-4e" transform="translate(122.313997 0) scale(0.996264)"/>
      <use xlink:href="#CMSS17-2d" transform="translate(188.375516 0) scale(0.996264)"/>
      <use xlink:href="#CMSS17-4c" transform="translate(219.604629 0) scale(0.996264)"/>
      <use xlink:href="#CMSS17-61" transform="translate(270.291734 0) scale(0.996264)"/>
      <use xlink:href="#CMSS17-6e" transform="translate(315.213655 0) scale(0.996264)"/>
      <use xlink:href="#CMSS17-67" transform="translate(363.418598 0) scale(0.996264)"/>
      <use xlink:href="#CMSS17-65" transform="translate(410.262222 0) scale(0.996264)"/>
      <use xlink:href="#CMSS17-76" transform="translate(451.901044 0) scale(0.996264)"/>
      <use xlink:href="#CMSS17-69" transform="translate(494.901185 0) scale(0.996264)"/>
      <use xlink:href="#CMSS17-6e" transform="translate(517.081908 0) scale(0.996264)"/>
     </g>
    </g>
   </g>
  </g>
 </g>
 <defs>
  <clipPath id="p57cca34b5c">
   <rect x="40.21364" y="7.2" width="1071.36" height="266.112"/>
  </clipPath>
 </defs>
</svg>
