<?xml version="1.0" encoding="utf-8" standalone="no"?>
<!DOCTYPE svg PUBLIC "-//W3C//DTD SVG 1.1//EN"
  "http://www.w3.org/Graphics/SVG/1.1/DTD/svg11.dtd">
<svg xmlns:xlink="http://www.w3.org/1999/xlink" width="396.231414pt" height="296.367677pt" viewBox="0 0 396.231414 296.367677" xmlns="http://www.w3.org/2000/svg" version="1.1">
 <metadata>
  <rdf:RDF xmlns:dc="http://purl.org/dc/elements/1.1/" xmlns:cc="http://creativecommons.org/ns#" xmlns:rdf="http://www.w3.org/1999/02/22-rdf-syntax-ns#">
   <cc:Work>
    <dc:type rdf:resource="http://purl.org/dc/dcmitype/StillImage"/>
    <dc:date>2026-03-26T17:59:43.661699</dc:date>
    <dc:format>image/svg+xml</dc:format>
    <dc:creator>
     <cc:Agent>
      <dc:title>Matplotlib v3.10.7, https://matplotlib.org/</dc:title>
     </cc:Agent>
    </dc:creator>
   </cc:Work>
  </rdf:RDF>
 </metadata>
 <defs>
  <style type="text/css">*{stroke-linejoin: round; stroke-linecap: butt}</style>
 </defs>
 <g id="figure_1">
  <g id="patch_1">
   <path d="M 0 296.367677 
L 396.231414 296.367677 
L 396.231414 0 
L 0 0 
z
" style="fill: #ffffff"/>
  </g>
  <g id="axes_1">
   <g id="patch_2">
    <path d="M 31.911414 273.312 
L 389.031414 273.312 
L 389.031414 7.2 
L 31.911414 7.2 
z
" style="fill: #ffffff"/>
   </g>
   <g id="matplotlib.axis_1">
    <g id="xtick_1">
     <g id="line2d_1">
      <defs>
       <path id="m7bf3c390b2" d="M 0 0 
L 0 3.5 
" style="stroke: #000000; stroke-width: 0.8"/>
      </defs>
      <g>
       <use xlink:href="#m7bf3c390b2" x="48.144142" y="273.312" style="stroke: #000000; stroke-width: 0.8"/>
      </g>
     </g>
     <g id="text_1">
      <!-- $\mathdefault{0}$ -->
      <g transform="translate(45.653474 287.230498) scale(0.1 -0.1)">
       <defs>
        <path id="CMR17-30" d="M 2688 2025 
C 2688 2416 2682 3080 2413 3591 
C 2176 4039 1798 4198 1466 4198 
C 1158 4198 768 4058 525 3597 
C 269 3118 243 2524 243 2025 
C 243 1661 250 1106 448 619 
C 723 -39 1216 -128 1466 -128 
C 1760 -128 2208 -7 2470 600 
C 2662 1042 2688 1559 2688 2025 
z
M 1466 -26 
C 1056 -26 813 325 723 812 
C 653 1188 653 1738 653 2096 
C 653 2588 653 2997 736 3387 
C 858 3929 1216 4096 1466 4096 
C 1728 4096 2067 3923 2189 3400 
C 2272 3036 2278 2607 2278 2096 
C 2278 1680 2278 1169 2202 792 
C 2067 95 1690 -26 1466 -26 
z
" transform="scale(0.015625)"/>
       </defs>
       <use xlink:href="#CMR17-30" transform="scale(0.996264)"/>
      </g>
     </g>
    </g>
    <g id="xtick_2">
     <g id="line2d_2">
      <g>
       <use xlink:href="#m7bf3c390b2" x="113.401337" y="273.312" style="stroke: #000000; stroke-width: 0.8"/>
      </g>
     </g>
     <g id="text_2">
      <!-- $\mathdefault{200}$ -->
      <g transform="translate(105.929334 287.230498) scale(0.1 -0.1)">
       <defs>
        <path id="CMR17-32" d="M 2669 989 
L 2554 989 
C 2490 536 2438 459 2413 420 
C 2381 369 1920 369 1830 369 
L 602 369 
C 832 619 1280 1072 1824 1597 
C 2214 1967 2669 2402 2669 3035 
C 2669 3790 2067 4224 1395 4224 
C 691 4224 262 3604 262 3030 
C 262 2780 448 2748 525 2748 
C 589 2748 781 2787 781 3010 
C 781 3207 614 3264 525 3264 
C 486 3264 448 3258 422 3245 
C 544 3790 915 4058 1306 4058 
C 1862 4058 2227 3617 2227 3035 
C 2227 2479 1901 2000 1536 1584 
L 262 146 
L 262 0 
L 2515 0 
L 2669 989 
z
" transform="scale(0.015625)"/>
       </defs>
       <use xlink:href="#CMR17-32" transform="scale(0.996264)"/>
       <use xlink:href="#CMR17-30" transform="translate(45.690477 0) scale(0.996264)"/>
       <use xlink:href="#CMR17-30" transform="translate(91.380954 0) scale(0.996264)"/>
      </g>
     </g>
    </g>
    <g id="xtick_3">
     <g id="line2d_3">
      <g>
       <use xlink:href="#m7bf3c390b2" x="178.658532" y="273.312" style="stroke: #000000; stroke-width: 0.8"/>
      </g>
     </g>
     <g id="text_3">
      <!-- $\mathdefault{400}$ -->
      <g transform="translate(171.186529 287.230498) scale(0.1 -0.1)">
       <defs>
        <path id="CMR17-34" d="M 2150 4122 
C 2150 4256 2144 4256 2029 4256 
L 128 1254 
L 128 1088 
L 1779 1088 
L 1779 457 
C 1779 224 1766 160 1318 160 
L 1197 160 
L 1197 0 
C 1402 0 1747 0 1965 0 
C 2182 0 2528 0 2733 0 
L 2733 160 
L 2611 160 
C 2163 160 2150 224 2150 457 
L 2150 1088 
L 2803 1088 
L 2803 1254 
L 2150 1254 
L 2150 4122 
z
M 1798 3703 
L 1798 1254 
L 256 1254 
L 1798 3703 
z
" transform="scale(0.015625)"/>
       </defs>
       <use xlink:href="#CMR17-34" transform="scale(0.996264)"/>
       <use xlink:href="#CMR17-30" transform="translate(45.690477 0) scale(0.996264)"/>
       <use xlink:href="#CMR17-30" transform="translate(91.380954 0) scale(0.996264)"/>
      </g>
     </g>
    </g>
    <g id="xtick_4">
     <g id="line2d_4">
      <g>
       <use xlink:href="#m7bf3c390b2" x="243.915727" y="273.312" style="stroke: #000000; stroke-width: 0.8"/>
      </g>
     </g>
     <g id="text_4">
      <!-- $\mathdefault{600}$ -->
      <g transform="translate(236.443724 287.230498) scale(0.1 -0.1)">
       <defs>
        <path id="CMR17-36" d="M 678 2176 
C 678 3690 1395 4032 1811 4032 
C 1946 4032 2272 4009 2400 3776 
C 2298 3776 2106 3776 2106 3553 
C 2106 3381 2246 3323 2336 3323 
C 2394 3323 2566 3348 2566 3560 
C 2566 3954 2246 4179 1805 4179 
C 1043 4179 243 3390 243 1984 
C 243 253 966 -128 1478 -128 
C 2099 -128 2688 427 2688 1283 
C 2688 2081 2170 2662 1517 2662 
C 1126 2662 838 2407 678 1960 
L 678 2176 
z
M 1478 25 
C 691 25 691 1200 691 1436 
C 691 1896 909 2560 1504 2560 
C 1613 2560 1926 2560 2138 2120 
C 2253 1870 2253 1609 2253 1289 
C 2253 944 2253 690 2118 434 
C 1978 171 1773 25 1478 25 
z
" transform="scale(0.015625)"/>
       </defs>
       <use xlink:href="#CMR17-36" transform="scale(0.996264)"/>
       <use xlink:href="#CMR17-30" transform="translate(45.690477 0) scale(0.996264)"/>
       <use xlink:href="#CMR17-30" transform="translate(91.380954 0) scale(0.996264)"/>
      </g>
     </g>
    </g>
    <g id="xtick_5">
     <g id="line2d_5">
      <g>
       <use xlink:href="#m7bf3c390b2" x="309.172922" y="273.312" style="stroke: #000000; stroke-width: 0.8"/>
      </g>
     </g>
     <g id="text_5">
      <!-- $\mathdefault{800}$ -->
      <g transform="translate(301.700919 287.230498) scale(0.1 -0.1)">
       <defs>
        <path id="CMR17-38" d="M 1741 2264 
C 2144 2467 2554 2773 2554 3263 
C 2554 3841 1990 4179 1472 4179 
C 890 4179 378 3759 378 3180 
C 378 3021 416 2747 666 2505 
C 730 2442 998 2251 1171 2130 
C 883 1983 211 1634 211 934 
C 211 279 838 -128 1459 -128 
C 2144 -128 2720 362 2720 1010 
C 2720 1590 2330 1857 2074 2029 
L 1741 2264 
z
M 902 2822 
C 851 2854 595 3051 595 3351 
C 595 3739 998 4032 1459 4032 
C 1965 4032 2336 3676 2336 3262 
C 2336 2669 1670 2331 1638 2331 
C 1632 2331 1626 2331 1574 2370 
L 902 2822 
z
M 2080 1519 
C 2176 1449 2483 1240 2483 851 
C 2483 381 2010 25 1472 25 
C 890 25 448 438 448 940 
C 448 1443 838 1862 1280 2060 
L 2080 1519 
z
" transform="scale(0.015625)"/>
       </defs>
       <use xlink:href="#CMR17-38" transform="scale(0.996264)"/>
       <use xlink:href="#CMR17-30" transform="translate(45.690477 0) scale(0.996264)"/>
       <use xlink:href="#CMR17-30" transform="translate(91.380954 0) scale(0.996264)"/>
      </g>
     </g>
    </g>
    <g id="xtick_6">
     <g id="line2d_6">
      <g>
       <use xlink:href="#m7bf3c390b2" x="374.430117" y="273.312" style="stroke: #000000; stroke-width: 0.8"/>
      </g>
     </g>
     <g id="text_6">
      <!-- $\mathdefault{1000}$ -->
      <g transform="translate(364.467446 287.230498) scale(0.1 -0.1)">
       <defs>
        <path id="CMR17-31" d="M 1702 4058 
C 1702 4192 1696 4192 1606 4192 
C 1357 3916 979 3827 621 3827 
C 602 3827 570 3827 563 3808 
C 557 3795 557 3782 557 3648 
C 755 3648 1088 3686 1344 3839 
L 1344 461 
C 1344 236 1331 160 781 160 
L 589 160 
L 589 0 
C 896 0 1216 0 1523 0 
C 1830 0 2150 0 2458 0 
L 2458 160 
L 2266 160 
C 1715 160 1702 230 1702 458 
L 1702 4058 
z
" transform="scale(0.015625)"/>
       </defs>
       <use xlink:href="#CMR17-31" transform="scale(0.996264)"/>
       <use xlink:href="#CMR17-30" transform="translate(45.690477 0) scale(0.996264)"/>
       <use xlink:href="#CMR17-30" transform="translate(91.380954 0) scale(0.996264)"/>
       <use xlink:href="#CMR17-30" transform="translate(137.071431 0) scale(0.996264)"/>
      </g>
     </g>
    </g>
   </g>
   <g id="matplotlib.axis_2">
    <g id="ytick_1">
     <g id="line2d_7">
      <defs>
       <path id="me5efe9646e" d="M 0 0 
L -3.5 0 
" style="stroke: #000000; stroke-width: 0.8"/>
      </defs>
      <g>
       <use xlink:href="#me5efe9646e" x="31.911414" y="270.886891" style="stroke: #000000; stroke-width: 0.8"/>
      </g>
     </g>
     <g id="text_7">
      <!-- $\mathdefault{32.5}$ -->
      <g transform="translate(7.2 274.346141) scale(0.1 -0.1)">
       <defs>
        <path id="CMR17-33" d="M 1414 2157 
C 1984 2157 2234 1662 2234 1090 
C 2234 320 1824 25 1453 25 
C 1114 25 563 194 390 693 
C 422 680 454 680 486 680 
C 640 680 755 782 755 948 
C 755 1133 614 1216 486 1216 
C 378 1216 211 1165 211 926 
C 211 335 787 -128 1466 -128 
C 2176 -128 2720 430 2720 1085 
C 2720 1707 2208 2157 1600 2227 
C 2086 2328 2554 2756 2554 3329 
C 2554 3820 2048 4179 1472 4179 
C 890 4179 378 3829 378 3329 
C 378 3110 544 3072 627 3072 
C 762 3072 877 3155 877 3321 
C 877 3486 762 3569 627 3569 
C 602 3569 570 3569 544 3557 
C 730 3959 1235 4032 1459 4032 
C 1683 4032 2106 3925 2106 3320 
C 2106 3143 2080 2828 1862 2550 
C 1670 2304 1453 2304 1242 2284 
C 1210 2284 1062 2269 1037 2269 
C 992 2263 966 2257 966 2208 
C 966 2163 973 2157 1101 2157 
L 1414 2157 
z
" transform="scale(0.015625)"/>
        <path id="CMMI12-3a" d="M 1178 307 
C 1178 492 1024 619 870 619 
C 685 619 557 466 557 313 
C 557 128 710 0 864 0 
C 1050 0 1178 153 1178 307 
z
" transform="scale(0.015625)"/>
        <path id="CMR17-35" d="M 730 3692 
C 794 3666 1056 3584 1325 3584 
C 1920 3584 2246 3911 2432 4100 
C 2432 4157 2432 4192 2394 4192 
C 2387 4192 2374 4192 2323 4163 
C 2099 4058 1837 3973 1517 3973 
C 1325 3973 1037 3999 723 4139 
C 653 4171 640 4171 634 4171 
C 602 4171 595 4164 595 4037 
L 595 2203 
C 595 2089 595 2057 659 2057 
C 691 2057 704 2070 736 2114 
C 941 2401 1222 2522 1542 2522 
C 1766 2522 2246 2382 2246 1289 
C 2246 1085 2246 715 2054 421 
C 1894 159 1645 25 1370 25 
C 947 25 518 320 403 814 
C 429 807 480 795 506 795 
C 589 795 749 840 749 1038 
C 749 1210 627 1280 506 1280 
C 358 1280 262 1190 262 1011 
C 262 454 704 -128 1382 -128 
C 2042 -128 2669 440 2669 1264 
C 2669 2030 2170 2624 1549 2624 
C 1222 2624 947 2503 730 2274 
L 730 3692 
z
" transform="scale(0.015625)"/>
       </defs>
       <use xlink:href="#CMR17-33" transform="scale(0.996264)"/>
       <use xlink:href="#CMR17-32" transform="translate(45.690477 0) scale(0.996264)"/>
       <use xlink:href="#CMMI12-3a" transform="translate(91.380954 0) scale(0.996264)"/>
       <use xlink:href="#CMR17-35" transform="translate(118.478131 0) scale(0.996264)"/>
      </g>
     </g>
    </g>
    <g id="ytick_2">
     <g id="line2d_8">
      <g>
       <use xlink:href="#me5efe9646e" x="31.911414" y="233.209591" style="stroke: #000000; stroke-width: 0.8"/>
      </g>
     </g>
     <g id="text_8">
      <!-- $\mathdefault{33.0}$ -->
      <g transform="translate(7.2 236.66884) scale(0.1 -0.1)">
       <use xlink:href="#CMR17-33" transform="scale(0.996264)"/>
       <use xlink:href="#CMR17-33" transform="translate(45.690477 0) scale(0.996264)"/>
       <use xlink:href="#CMMI12-3a" transform="translate(91.380954 0) scale(0.996264)"/>
       <use xlink:href="#CMR17-30" transform="translate(118.478131 0) scale(0.996264)"/>
      </g>
     </g>
    </g>
    <g id="ytick_3">
     <g id="line2d_9">
      <g>
       <use xlink:href="#me5efe9646e" x="31.911414" y="195.532291" style="stroke: #000000; stroke-width: 0.8"/>
      </g>
     </g>
     <g id="text_9">
      <!-- $\mathdefault{33.5}$ -->
      <g transform="translate(7.2 198.99154) scale(0.1 -0.1)">
       <use xlink:href="#CMR17-33" transform="scale(0.996264)"/>
       <use xlink:href="#CMR17-33" transform="translate(45.690477 0) scale(0.996264)"/>
       <use xlink:href="#CMMI12-3a" transform="translate(91.380954 0) scale(0.996264)"/>
       <use xlink:href="#CMR17-35" transform="translate(118.478131 0) scale(0.996264)"/>
      </g>
     </g>
    </g>
    <g id="ytick_4">
     <g id="line2d_10">
      <g>
       <use xlink:href="#me5efe9646e" x="31.911414" y="157.854991" style="stroke: #000000; stroke-width: 0.8"/>
      </g>
     </g>
     <g id="text_10">
      <!-- $\mathdefault{34.0}$ -->
      <g transform="translate(7.2 161.31424) scale(0.1 -0.1)">
       <use xlink:href="#CMR17-33" transform="scale(0.996264)"/>
       <use xlink:href="#CMR17-34" transform="translate(45.690477 0) scale(0.996264)"/>
       <use xlink:href="#CMMI12-3a" transform="translate(91.380954 0) scale(0.996264)"/>
       <use xlink:href="#CMR17-30" transform="translate(118.478131 0) scale(0.996264)"/>
      </g>
     </g>
    </g>
    <g id="ytick_5">
     <g id="line2d_11">
      <g>
       <use xlink:href="#me5efe9646e" x="31.911414" y="120.177691" style="stroke: #000000; stroke-width: 0.8"/>
      </g>
     </g>
     <g id="text_11">
      <!-- $\mathdefault{34.5}$ -->
      <g transform="translate(7.2 123.63694) scale(0.1 -0.1)">
       <use xlink:href="#CMR17-33" transform="scale(0.996264)"/>
       <use xlink:href="#CMR17-34" transform="translate(45.690477 0) scale(0.996264)"/>
       <use xlink:href="#CMMI12-3a" transform="translate(91.380954 0) scale(0.996264)"/>
       <use xlink:href="#CMR17-35" transform="translate(118.478131 0) scale(0.996264)"/>
      </g>
     </g>
    </g>
    <g id="ytick_6">
     <g id="line2d_12">
      <g>
       <use xlink:href="#me5efe9646e" x="31.911414" y="82.50039" style="stroke: #000000; stroke-width: 0.8"/>
      </g>
     </g>
     <g id="text_12">
      <!-- $\mathdefault{35.0}$ -->
      <g transform="translate(7.2 85.95964) scale(0.1 -0.1)">
       <use xlink:href="#CMR17-33" transform="scale(0.996264)"/>
       <use xlink:href="#CMR17-35" transform="translate(45.690477 0) scale(0.996264)"/>
       <use xlink:href="#CMMI12-3a" transform="translate(91.380954 0) scale(0.996264)"/>
       <use xlink:href="#CMR17-30" transform="translate(118.478131 0) scale(0.996264)"/>
      </g>
     </g>
    </g>
    <g id="ytick_7">
     <g id="line2d_13">
      <g>
       <use xlink:href="#me5efe9646e" x="31.911414" y="44.82309" style="stroke: #000000; stroke-width: 0.8"/>
      </g>
     </g>
     <g id="text_13">
      <!-- $\mathdefault{35.5}$ -->
      <g transform="translate(7.2 48.282339) scale(0.1 -0.1)">
       <use xlink:href="#CMR17-33" transform="scale(0.996264)"/>
       <use xlink:href="#CMR17-35" transform="translate(45.690477 0) scale(0.996264)"/>
       <use xlink:href="#CMMI12-3a" transform="translate(91.380954 0) scale(0.996264)"/>
       <use xlink:href="#CMR17-35" transform="translate(118.478131 0) scale(0.996264)"/>
      </g>
     </g>
    </g>
   </g>
   <g id="line2d_14">
    <path d="M 48.144142 135.51458 
L 49.122999 135.588682 
L 49.775571 135.482473 
L 50.428143 135.18819 
L 51.080715 134.748099 
L 52.059573 133.883756 
L 53.691003 132.153042 
L 56.953863 129.029759 
L 57.606435 128.499328 
L 58.585293 127.724223 
L 58.911579 127.346143 
L 59.237865 127.145455 
L 59.564151 126.783907 
L 59.890437 126.621501 
L 60.216723 126.267586 
L 61.195581 125.674891 
L 61.521866 125.363418 
L 61.848152 125.27092 
L 62.174438 124.991696 
L 62.500724 124.884294 
L 62.82701 124.646476 
L 63.153296 124.592247 
L 63.805868 124.245826 
L 64.784726 123.845446 
L 65.111012 123.818716 
L 65.437298 123.593657 
L 66.416156 123.315905 
L 68.700158 122.599168 
L 69.026444 122.559095 
L 69.35273 122.380771 
L 69.679016 122.36196 
L 71.310446 121.677751 
L 71.636732 121.696856 
L 72.289304 121.481594 
L 73.920734 121.088195 
L 74.899591 120.946531 
L 75.225877 120.816707 
L 75.878449 120.958225 
L 76.531021 120.647844 
L 77.183593 120.565084 
L 78.162451 120.264483 
L 78.488737 120.299259 
L 78.815023 119.994663 
L 79.141309 119.908685 
L 79.467595 119.989717 
L 80.446453 119.599238 
L 82.077883 119.116212 
L 83.383027 118.713827 
L 83.709313 118.842828 
L 84.035599 118.564209 
L 84.361885 118.435459 
L 85.014457 118.530067 
L 85.667029 118.215095 
L 85.993315 118.130895 
L 86.319601 118.196003 
L 86.972173 118.008364 
L 87.298459 117.897049 
L 87.624745 118.116361 
L 88.277316 117.835214 
L 88.603602 117.80374 
L 88.929888 117.899797 
L 89.908746 117.757494 
L 90.235032 117.961094 
L 90.887604 117.804848 
L 91.21389 117.77794 
L 91.540176 117.866143 
L 92.192748 117.868074 
L 93.824178 118.044172 
L 94.150464 118.003142 
L 94.803036 118.165833 
L 95.455608 118.243674 
L 96.434466 118.340299 
L 96.760752 118.297241 
L 97.73961 118.562008 
L 98.392182 118.543644 
L 98.718468 118.496578 
L 99.044754 118.638402 
L 99.37104 118.471347 
L 100.023612 118.71439 
L 100.676184 118.551544 
L 101.00247 118.663269 
L 101.328755 118.564395 
L 101.981327 118.750896 
L 102.307613 118.578405 
L 103.612757 118.603478 
L 103.939043 118.496614 
L 104.591615 118.699918 
L 105.896759 118.499992 
L 106.223045 118.44685 
L 106.875617 118.613257 
L 107.854475 118.339303 
L 108.180761 118.483964 
L 112.748765 118.256831 
L 113.075051 118.130136 
L 113.727623 118.161342 
L 114.053909 117.997577 
L 114.70648 118.1456 
L 115.032766 118.047977 
L 115.359052 118.070977 
L 115.685338 117.869456 
L 116.011624 117.913741 
L 116.33791 117.771563 
L 116.990482 117.987192 
L 117.316768 117.778676 
L 119.60077 117.548199 
L 119.927056 117.724395 
L 120.579628 117.533425 
L 121.558486 117.390751 
L 122.537344 117.556151 
L 122.86363 117.483281 
L 123.189916 117.556647 
L 123.516202 117.331884 
L 124.168774 117.510611 
L 124.49506 117.533074 
L 124.821346 117.402872 
L 125.473918 117.475749 
L 125.800204 117.570294 
L 127.431634 117.353392 
L 127.757919 117.479055 
L 128.736777 117.389033 
L 129.063063 117.533867 
L 129.389349 117.455605 
L 129.715635 117.623022 
L 130.041921 117.371842 
L 131.020779 117.410238 
L 131.347065 117.657772 
L 131.999637 117.355661 
L 132.325923 117.622785 
L 132.652209 117.304696 
L 134.609925 117.48069 
L 135.262497 117.38751 
L 136.241355 117.552462 
L 136.567641 117.36756 
L 137.220213 117.526209 
L 137.872785 117.404024 
L 138.525357 117.417554 
L 140.156787 117.585749 
L 140.483073 117.327661 
L 142.114502 117.514649 
L 143.419646 117.456101 
L 144.072218 117.47301 
L 144.398504 117.359361 
L 144.72479 117.521068 
L 145.051076 117.44152 
L 145.703648 117.435185 
L 146.682506 117.499726 
L 147.008792 117.570288 
L 147.661364 117.29275 
L 147.98765 117.445658 
L 148.313936 117.378497 
L 148.640222 117.542016 
L 148.966508 117.42697 
L 149.61908 117.538452 
L 149.945366 117.357231 
L 151.576796 117.48769 
L 152.555654 117.477449 
L 152.88194 117.323535 
L 153.534512 117.443322 
L 153.860798 117.429411 
L 154.513369 117.648947 
L 154.839655 117.401822 
L 155.492227 117.360307 
L 156.471085 117.511662 
L 156.797371 117.376625 
L 157.123657 117.408383 
L 157.449943 117.588733 
L 158.755087 117.321394 
L 159.081373 117.486026 
L 159.407659 117.320113 
L 160.060231 117.468919 
L 161.039089 117.485244 
L 161.365375 117.35899 
L 161.691661 117.541033 
L 162.017947 117.367934 
L 162.344233 117.392861 
L 162.670519 117.590096 
L 163.323091 117.384189 
L 163.649377 117.458577 
L 163.975663 117.390636 
L 164.301949 117.557722 
L 165.933379 117.453101 
L 166.259665 117.500286 
L 166.585951 117.288138 
L 166.912237 117.496553 
L 167.564808 117.388322 
L 167.891094 117.58275 
L 168.543666 117.386634 
L 169.522524 117.500425 
L 169.84881 117.386687 
L 170.501382 117.626804 
L 170.827668 117.401533 
L 171.48024 117.453101 
L 171.806526 117.285509 
L 172.132812 117.51105 
L 172.459098 117.455546 
L 172.785384 117.541866 
L 173.764242 117.399692 
L 174.416814 117.511896 
L 175.069386 117.398455 
L 175.395672 117.590965 
L 175.721958 117.34372 
L 176.048244 117.366946 
L 176.37453 117.554023 
L 176.700816 117.403152 
L 177.353388 117.537316 
L 177.679674 117.313692 
L 178.332246 117.514129 
L 182.573963 117.479966 
L 183.552821 117.482492 
L 186.815681 117.487535 
L 187.141967 117.554723 
L 187.468253 117.389651 
L 191.057399 117.520516 
L 191.383685 117.344034 
L 191.709971 117.487701 
L 192.036257 117.375817 
L 192.688829 117.51441 
L 193.015115 117.397733 
L 193.667686 117.561364 
L 193.993972 117.404896 
L 194.646544 117.474915 
L 194.97283 117.370824 
L 195.299116 117.489217 
L 195.625402 117.486957 
L 195.951688 117.292165 
L 196.277974 117.48753 
L 199.86712 117.404508 
L 200.193406 117.627039 
L 201.172264 117.452481 
L 201.824836 117.382303 
L 202.151122 117.569321 
L 202.803694 117.339326 
L 203.456266 117.544607 
L 203.782552 117.390203 
L 204.108838 117.534569 
L 204.76141 117.4038 
L 205.413982 117.473914 
L 208.676841 117.354394 
L 209.003127 117.569192 
L 209.655699 117.446927 
L 209.981985 117.538983 
L 210.634557 117.443298 
L 210.960843 117.384924 
L 211.287129 117.494156 
L 212.265987 117.295169 
L 212.918559 117.556573 
L 213.244845 117.403565 
L 213.571131 117.548523 
L 214.223703 117.338315 
L 214.549989 117.515151 
L 214.876275 117.412168 
L 215.202561 117.525403 
L 215.528847 117.442377 
L 215.855133 117.492164 
L 216.181419 117.369769 
L 217.160277 117.421416 
L 217.486563 117.386904 
L 217.812849 117.556705 
L 218.139135 117.408229 
L 219.770565 117.476797 
L 220.096851 117.368328 
L 221.075708 117.526428 
L 222.380852 117.534113 
L 222.707138 117.366834 
L 224.664854 117.555819 
L 225.969998 117.32169 
L 226.948856 117.503488 
L 229.559144 117.499918 
L 229.88543 117.567096 
L 230.538002 117.308392 
L 230.864288 117.503602 
L 231.51686 117.405913 
L 231.843146 117.550277 
L 232.169432 117.539688 
L 232.495718 117.33036 
L 232.822004 117.460666 
L 233.14829 117.37198 
L 233.800861 117.553388 
L 234.127147 117.550623 
L 234.453433 117.394524 
L 236.737435 117.501292 
L 237.063721 117.398675 
L 237.390007 117.551667 
L 239.021437 117.358416 
L 239.347723 117.463776 
L 239.674009 117.418952 
L 240.326581 117.546821 
L 240.979153 117.341428 
L 241.305439 117.553499 
L 242.610583 117.402669 
L 242.936869 117.323875 
L 243.263155 117.594992 
L 243.589441 117.587612 
L 243.915727 117.402575 
L 244.242013 117.380253 
L 244.568299 117.472235 
L 244.894585 117.389182 
L 245.873443 117.577558 
L 246.526015 117.345112 
L 247.831158 117.485456 
L 248.157444 117.41909 
L 248.48373 117.487733 
L 248.810016 117.414866 
L 249.462588 117.443768 
L 250.11516 117.347409 
L 250.441446 117.521826 
L 252.072876 117.290481 
L 252.399162 117.499645 
L 253.051734 117.45539 
L 253.37802 117.565161 
L 254.030592 117.362282 
L 254.683164 117.568798 
L 255.988308 117.345556 
L 257.293452 117.561227 
L 257.946024 117.48088 
L 258.27231 117.470211 
L 258.598596 117.288558 
L 258.924882 117.449612 
L 260.882597 117.472339 
L 261.208883 117.316323 
L 261.535169 117.45562 
L 264.145457 117.499398 
L 264.471743 117.339669 
L 265.450601 117.472742 
L 265.776887 117.363803 
L 266.429459 117.511011 
L 266.755745 117.345831 
L 267.408317 117.543762 
L 267.734603 117.320379 
L 268.060889 117.541688 
L 268.713461 117.416929 
L 269.366033 117.424968 
L 269.692319 117.645006 
L 270.018605 117.612109 
L 270.344891 117.348198 
L 270.671177 117.457206 
L 270.997463 117.347323 
L 271.976321 117.503226 
L 272.628893 117.408161 
L 272.955179 117.285482 
L 273.60775 117.527795 
L 273.934036 117.542723 
L 274.260322 117.385316 
L 274.912894 117.485403 
L 275.23918 117.42545 
L 275.891752 117.568614 
L 276.218038 117.291284 
L 276.544324 117.429132 
L 276.87061 117.323196 
L 277.523182 117.622524 
L 278.175754 117.41599 
L 279.807184 117.485452 
L 280.13347 117.273927 
L 280.786042 117.557304 
L 281.7649 117.384539 
L 284.375188 117.42602 
L 284.701474 117.345796 
L 285.02776 117.571069 
L 285.680332 117.46148 
L 286.332903 117.39519 
L 286.985475 117.483443 
L 287.311761 117.38328 
L 287.638047 117.514139 
L 288.290619 117.419407 
L 289.595763 117.553366 
L 289.922049 117.382762 
L 290.248335 117.55996 
L 290.574621 117.548624 
L 290.900907 117.332398 
L 291.553479 117.502778 
L 291.879765 117.363264 
L 292.206051 117.529469 
L 292.858623 117.340206 
L 293.511195 117.616876 
L 293.837481 117.458895 
L 296.774055 117.444741 
L 297.100341 117.326533 
L 297.426627 117.600506 
L 298.079199 117.526217 
L 298.405485 117.549256 
L 298.731771 117.338625 
L 299.058057 117.327145 
L 299.384343 117.477981 
L 300.3632 117.423867 
L 300.689486 117.508536 
L 301.015772 117.392839 
L 301.668344 117.561409 
L 302.320916 117.251632 
L 302.647202 117.480092 
L 302.973488 117.549002 
L 303.299774 117.433632 
L 303.62606 117.523911 
L 304.278632 117.347554 
L 304.604918 117.590997 
L 304.931204 117.357885 
L 306.562634 117.495774 
L 306.88892 117.273909 
L 307.867778 117.530844 
L 308.194064 117.443352 
L 308.52035 117.57725 
L 309.172922 117.418352 
L 310.478066 117.468251 
L 310.804352 117.335652 
L 311.130638 117.57686 
L 311.78321 117.416967 
L 312.109496 117.484901 
L 312.435782 117.327164 
L 312.762067 117.297391 
L 313.088353 117.575584 
L 313.740925 117.514183 
L 315.372355 117.400581 
L 316.351213 117.506169 
L 316.677499 117.331483 
L 317.330071 117.49381 
L 317.982643 117.475233 
L 318.635215 117.33327 
L 318.961501 117.468239 
L 320.592931 117.336819 
L 320.919217 117.541855 
L 321.245503 117.515224 
L 321.571789 117.619858 
L 322.224361 117.350974 
L 322.550647 117.456005 
L 322.876933 117.399648 
L 323.529505 117.589002 
L 323.855791 117.311512 
L 325.487221 117.508605 
L 326.792364 117.305461 
L 327.444936 117.687532 
L 327.771222 117.401362 
L 328.097508 117.49097 
L 329.076366 117.421776 
L 329.402652 117.580221 
L 330.38151 117.401356 
L 331.686654 117.4104 
L 332.01294 117.602296 
L 332.665512 117.403175 
L 336.580944 117.500737 
L 336.90723 117.278727 
L 337.559802 117.568181 
L 338.212374 117.370276 
L 339.517517 117.56556 
L 339.843803 117.410836 
L 340.170089 117.392758 
L 340.496375 117.494367 
L 340.822661 117.347406 
L 341.475233 117.529505 
L 342.127805 117.422455 
L 343.106663 117.538324 
L 343.432949 117.411315 
L 345.064379 117.441099 
L 345.390665 117.548972 
L 346.043237 117.368193 
L 346.369523 117.511797 
L 348.000953 117.40407 
L 348.327239 117.54006 
L 348.653525 117.365984 
L 348.979811 117.480229 
L 349.632383 117.418453 
L 350.611241 117.442913 
L 352.242671 117.528076 
L 353.221528 117.35877 
L 353.547814 117.479369 
L 353.8741 117.449379 
L 354.200386 117.625875 
L 354.852958 117.275534 
L 355.50553 117.555465 
L 355.831816 117.324488 
L 356.158102 117.471983 
L 357.463246 117.51781 
L 357.789532 117.272951 
L 358.115818 117.456413 
L 359.094676 117.465977 
L 359.747248 117.391622 
L 360.073534 117.567135 
L 360.39982 117.395869 
L 361.378678 117.497884 
L 362.03125 117.542844 
L 362.683822 117.341275 
L 363.010108 117.335867 
L 363.66268 117.546738 
L 363.988966 117.524097 
L 364.315252 117.370761 
L 364.641538 117.512196 
L 365.29411 117.428035 
L 365.946681 117.537957 
L 366.272967 117.365343 
L 368.556969 117.406524 
L 368.883255 117.332083 
L 369.209541 117.522846 
L 369.862113 117.41336 
L 371.819829 117.584319 
L 372.146115 117.419543 
L 372.798687 117.445928 
L 372.798687 117.445928 
" clip-path="url(#p04cd1e790e)" style="fill: none; stroke: #e46e56; stroke-width: 1.5; stroke-linecap: square"/>
   </g>
   <g id="line2d_15">
    <path d="M 48.144142 157.951407 
L 48.470427 157.954974 
L 48.796713 157.817599 
L 49.122999 157.8302 
L 49.449285 157.713797 
L 50.101857 160.469758 
L 50.428143 160.863033 
L 50.754429 160.75208 
L 51.080715 159.50997 
L 51.407001 159.625816 
L 52.059573 158.475029 
L 52.385859 160.072536 
L 52.712145 159.762922 
L 53.364717 160.477068 
L 53.691003 159.854017 
L 54.996147 161.095101 
L 55.322433 162.001953 
L 55.648719 162.162563 
L 55.975005 161.864725 
L 56.301291 162.652924 
L 56.627577 164.059573 
L 56.953863 162.045202 
L 57.280149 161.393086 
L 57.606435 159.232691 
L 57.932721 160.123103 
L 58.259007 159.865864 
L 58.585293 158.346188 
L 58.911579 158.076302 
L 59.237865 158.846486 
L 59.564151 158.956698 
L 59.890437 159.263706 
L 60.869295 161.72222 
L 61.195581 160.278742 
L 61.521866 160.156204 
L 61.848152 159.751578 
L 62.500724 158.464005 
L 62.82701 158.125605 
L 63.153296 157.245366 
L 63.479582 158.347427 
L 63.805868 157.239683 
L 64.132154 158.290693 
L 64.45844 158.541465 
L 65.111012 157.041493 
L 65.437298 155.953272 
L 65.763584 156.767696 
L 66.08987 156.524652 
L 66.416156 155.252269 
L 67.068728 156.842516 
L 67.395014 157.113901 
L 67.7213 156.641681 
L 68.373872 154.112024 
L 68.700158 154.400593 
L 69.026444 153.316721 
L 69.35273 153.419702 
L 69.679016 153.370999 
L 70.005302 154.557413 
L 70.331588 154.936769 
L 70.657874 156.536091 
L 70.98416 156.730172 
L 71.310446 157.301802 
L 71.636732 156.232406 
L 72.289304 155.965181 
L 72.61559 155.544506 
L 72.941876 155.992034 
L 73.268162 160.371743 
L 73.920734 162.483977 
L 74.24702 162.207938 
L 74.573306 162.589257 
L 74.899591 162.675961 
L 75.225877 163.068754 
L 75.552163 162.436515 
L 76.204735 159.900449 
L 76.531021 157.195296 
L 76.857307 156.704325 
L 77.183593 156.608106 
L 77.509879 156.862793 
L 77.836165 155.978717 
L 78.162451 156.117914 
L 79.467595 150.474141 
L 79.793881 151.081781 
L 80.120167 153.237773 
L 80.772739 153.805814 
L 81.099025 153.828603 
L 81.425311 151.959958 
L 82.077883 151.357981 
L 82.404169 153.967217 
L 82.730455 153.562429 
L 83.383027 156.771866 
L 83.709313 157.104044 
L 84.035599 156.988442 
L 84.361885 158.285075 
L 84.688171 157.727357 
L 85.014457 159.1249 
L 85.340743 158.576779 
L 86.319601 163.972217 
L 86.972173 165.392691 
L 87.298459 165.163233 
L 87.624745 165.427439 
L 87.95103 166.11592 
L 88.277316 169.37327 
L 88.603602 170.833646 
L 88.929888 169.882674 
L 89.58246 171.564286 
L 90.235032 168.997861 
L 90.561318 168.810346 
L 90.887604 168.247548 
L 91.21389 169.752064 
L 91.540176 167.886436 
L 91.866462 168.31827 
L 92.192748 168.109849 
L 92.519034 167.359428 
L 92.84532 167.307596 
L 93.171606 168.019778 
L 93.497892 167.734325 
L 93.824178 170.405236 
L 94.150464 170.912767 
L 94.47675 169.894599 
L 95.129322 171.612042 
L 95.455608 172.321463 
L 95.781894 170.576502 
L 96.10818 170.625039 
L 96.434466 171.21249 
L 96.760752 170.40187 
L 97.413324 166.676546 
L 97.73961 168.222262 
L 98.065896 167.603154 
L 98.392182 167.514501 
L 98.718468 166.484344 
L 99.044754 165.973987 
L 99.37104 166.060319 
L 99.697326 164.223002 
L 100.023612 164.239643 
L 100.349898 163.890233 
L 101.00247 162.224126 
L 101.328755 164.657068 
L 101.655041 164.20594 
L 102.307613 165.986566 
L 102.633899 164.69592 
L 103.286471 161.34408 
L 103.612757 161.764033 
L 103.939043 161.092293 
L 104.591615 161.233254 
L 104.917901 161.051191 
L 105.244187 161.43248 
L 105.570473 160.395027 
L 106.223045 160.785314 
L 106.875617 163.011428 
L 107.201903 165.020558 
L 107.528189 164.092741 
L 107.854475 164.263135 
L 108.507047 163.508827 
L 109.159619 164.720158 
L 109.485905 164.676241 
L 109.812191 161.944503 
L 110.138477 163.129629 
L 110.464763 161.525219 
L 110.791049 162.880976 
L 111.117335 163.606501 
L 111.443621 164.653798 
L 111.769907 164.261626 
L 112.422479 162.584084 
L 112.748765 164.125675 
L 113.401337 164.108338 
L 113.727623 162.796689 
L 114.053909 162.032642 
L 114.380194 162.804842 
L 114.70648 161.932462 
L 115.032766 162.720353 
L 115.359052 160.846438 
L 115.685338 160.063615 
L 116.011624 161.369761 
L 116.33791 160.664083 
L 116.664196 160.36347 
L 117.643054 162.225212 
L 117.96934 159.807988 
L 118.295626 160.213961 
L 118.621912 158.844056 
L 118.948198 158.11786 
L 119.274484 158.305144 
L 119.60077 156.942014 
L 119.927056 157.931294 
L 120.253342 158.178047 
L 120.579628 157.88665 
L 120.905914 159.277099 
L 121.558486 160.439543 
L 121.884772 160.284727 
L 122.211058 158.855693 
L 122.537344 159.730848 
L 122.86363 159.305287 
L 123.189916 160.599734 
L 123.516202 158.532421 
L 123.842488 161.186386 
L 124.168774 160.921402 
L 124.49506 160.061904 
L 124.821346 162.193454 
L 125.473918 163.901672 
L 125.800204 164.58859 
L 126.12649 164.696029 
L 126.452776 163.990912 
L 126.779062 165.482665 
L 127.105348 165.66682 
L 127.431634 165.008607 
L 127.757919 165.383537 
L 128.736777 162.655551 
L 129.389349 165.882719 
L 129.715635 166.817901 
L 130.041921 166.981701 
L 130.368207 165.583643 
L 130.694493 165.910749 
L 131.020779 164.790364 
L 131.347065 162.333241 
L 131.673351 161.41968 
L 131.999637 161.960504 
L 132.325923 162.858969 
L 132.652209 161.796422 
L 132.978495 162.38942 
L 133.304781 161.939563 
L 133.631067 162.84535 
L 133.957353 162.818217 
L 134.283639 161.942693 
L 134.609925 161.920991 
L 134.936211 160.503817 
L 135.262497 160.687569 
L 135.588783 158.651495 
L 135.915069 159.856016 
L 136.567641 158.431591 
L 136.893927 158.815873 
L 137.220213 158.09799 
L 137.546499 159.333115 
L 137.872785 159.705162 
L 138.525357 159.307666 
L 138.851643 159.676599 
L 139.177929 159.751475 
L 139.504215 160.400736 
L 140.156787 159.949564 
L 140.483073 159.969693 
L 140.809358 160.16891 
L 141.135644 159.715933 
L 141.46193 159.789612 
L 141.788216 158.233167 
L 142.114502 158.455179 
L 143.09336 161.151389 
L 143.419646 160.56151 
L 143.745932 160.409615 
L 144.072218 160.451053 
L 144.398504 160.653724 
L 144.72479 160.315249 
L 145.051076 160.777219 
L 145.377362 159.46206 
L 145.703648 160.042786 
L 146.029934 160.340233 
L 146.35622 161.077169 
L 146.682506 161.070198 
L 147.008792 161.348525 
L 147.335078 161.819328 
L 147.661364 161.768973 
L 147.98765 162.52039 
L 148.313936 163.605171 
L 148.640222 165.158786 
L 148.966508 164.993595 
L 149.292794 165.092551 
L 149.61908 166.253711 
L 149.945366 166.308651 
L 150.271652 164.845467 
L 150.597938 162.193753 
L 150.924224 162.258032 
L 151.25051 161.53686 
L 151.576796 161.286711 
L 151.903082 162.422322 
L 152.229368 164.118147 
L 152.555654 164.040506 
L 152.88194 162.936433 
L 153.208226 162.28012 
L 153.534512 160.754828 
L 153.860798 160.44369 
L 154.187083 160.850441 
L 154.513369 160.438729 
L 154.839655 160.74272 
L 155.165941 159.398482 
L 155.818513 161.506226 
L 156.144799 161.588452 
L 156.471085 159.860029 
L 156.797371 157.052026 
L 157.123657 157.108726 
L 157.449943 156.642798 
L 157.776229 156.794523 
L 158.102515 157.29849 
L 158.428801 158.999532 
L 158.755087 159.947448 
L 159.081373 160.268485 
L 159.407659 161.405779 
L 159.733945 160.881969 
L 160.060231 162.228534 
L 160.386517 162.544121 
L 161.365375 166.936298 
L 161.691661 167.221189 
L 162.017947 169.366668 
L 162.344233 170.76214 
L 162.670519 170.395963 
L 162.996805 170.271822 
L 163.323091 168.982534 
L 163.649377 169.807107 
L 163.975663 170.154801 
L 164.301949 171.676604 
L 164.628235 171.080847 
L 164.954521 172.714965 
L 165.607093 174.21875 
L 165.933379 174.587766 
L 166.259665 174.373475 
L 166.585951 173.070829 
L 166.912237 174.482258 
L 167.238522 174.576637 
L 167.564808 174.555031 
L 168.21738 175.785483 
L 168.543666 175.386656 
L 168.869952 176.358837 
L 169.196238 177.939387 
L 169.522524 177.955306 
L 169.84881 180.356827 
L 170.175096 181.411217 
L 170.501382 182.957713 
L 170.827668 183.342265 
L 171.806526 186.883412 
L 172.132812 187.274859 
L 172.459098 185.33824 
L 172.785384 185.542961 
L 173.11167 185.277148 
L 173.437956 183.366585 
L 173.764242 180.29135 
L 174.416814 178.242767 
L 175.069386 173.507548 
L 175.395672 172.87867 
L 175.721958 171.607376 
L 176.048244 171.352562 
L 176.37453 169.814113 
L 176.700816 170.617366 
L 177.353388 169.058878 
L 177.679674 168.536577 
L 178.00596 168.671875 
L 178.658532 169.790561 
L 178.984818 168.590929 
L 179.311104 166.893247 
L 179.63739 167.392364 
L 179.963676 167.172596 
L 180.289962 166.718462 
L 180.616247 166.619521 
L 180.942533 165.708084 
L 181.268819 166.810594 
L 181.595105 166.625389 
L 182.247677 169.390327 
L 182.573963 169.105662 
L 182.900249 169.590015 
L 183.226535 171.553664 
L 183.552821 171.215191 
L 183.879107 172.695722 
L 184.205393 172.148933 
L 184.531679 169.924624 
L 184.857965 170.559733 
L 185.184251 169.334029 
L 185.510537 168.904397 
L 186.163109 169.358217 
L 186.489395 169.040347 
L 186.815681 167.711069 
L 187.468253 170.007964 
L 187.794539 169.978801 
L 188.120825 171.324614 
L 188.773397 169.498215 
L 189.425969 170.890167 
L 189.752255 168.953435 
L 190.078541 169.259518 
L 190.404827 170.928491 
L 190.731113 169.86537 
L 191.383685 171.463761 
L 192.036257 170.872004 
L 192.362543 171.307353 
L 192.688829 170.872123 
L 193.015115 169.085955 
L 193.341401 168.973782 
L 193.667686 170.506902 
L 193.993972 170.386616 
L 194.646544 173.88643 
L 194.97283 176.2911 
L 195.625402 177.406496 
L 196.60426 175.566728 
L 196.930546 175.860495 
L 197.256832 177.124228 
L 197.583118 176.910533 
L 197.909404 175.930961 
L 198.23569 173.380912 
L 198.561976 173.857957 
L 198.888262 173.638235 
L 199.214548 172.771435 
L 199.540834 175.08526 
L 199.86712 173.952526 
L 200.845978 177.454857 
L 201.172264 176.229144 
L 201.49855 173.753893 
L 201.824836 172.26728 
L 202.151122 172.806259 
L 202.477408 174.853896 
L 202.803694 174.329965 
L 203.12998 172.329342 
L 203.456266 171.483795 
L 203.782552 171.212797 
L 204.108838 171.737998 
L 204.435124 172.551382 
L 204.76141 170.982864 
L 205.087696 170.938724 
L 205.413982 169.7484 
L 205.740268 170.260266 
L 206.066554 170.491466 
L 206.39284 170.512991 
L 207.045411 173.07432 
L 207.371697 171.991046 
L 207.697983 173.769699 
L 208.350555 174.391813 
L 208.676841 174.13149 
L 209.329413 172.682142 
L 209.655699 173.434163 
L 209.981985 172.544316 
L 210.308271 174.607036 
L 210.634557 175.352217 
L 210.960843 174.561092 
L 211.287129 175.169794 
L 211.939701 174.070617 
L 212.265987 174.944696 
L 212.592273 174.369121 
L 212.918559 174.082179 
L 213.244845 175.049795 
L 213.571131 174.665882 
L 214.223703 172.327791 
L 214.549989 172.123069 
L 214.876275 170.794647 
L 215.528847 171.141539 
L 215.855133 169.756029 
L 216.181419 169.502957 
L 216.507705 170.490456 
L 216.833991 169.200481 
L 217.160277 169.499084 
L 217.812849 170.806559 
L 218.139135 169.673291 
L 218.465421 170.977766 
L 218.791707 170.736297 
L 219.117993 169.895939 
L 219.444279 170.754747 
L 219.770565 169.68272 
L 220.096851 170.771636 
L 220.423136 170.553802 
L 221.075708 169.348796 
L 221.401994 167.973065 
L 221.72828 167.251025 
L 222.054566 168.029122 
L 222.380852 167.171005 
L 222.707138 168.075083 
L 223.033424 168.388508 
L 223.35971 168.073257 
L 223.685996 168.995069 
L 224.012282 167.486732 
L 224.338568 167.905316 
L 224.664854 167.912068 
L 224.99114 167.537772 
L 225.317426 166.264963 
L 225.643712 167.570099 
L 225.969998 167.463456 
L 226.296284 166.599179 
L 226.62257 166.465584 
L 226.948856 166.675083 
L 227.601428 169.304097 
L 227.927714 169.046334 
L 228.580286 171.542622 
L 228.906572 170.869833 
L 229.559144 171.532138 
L 229.88543 173.539538 
L 230.211716 173.027359 
L 230.864288 174.660249 
L 231.51686 173.939279 
L 231.843146 172.418845 
L 232.169432 173.635237 
L 232.495718 173.134293 
L 232.822004 172.316252 
L 233.14829 173.349851 
L 233.474575 173.851298 
L 233.800861 173.952257 
L 234.453433 170.879117 
L 234.779719 171.118233 
L 235.106005 170.483785 
L 235.758577 174.648196 
L 236.084863 172.670719 
L 236.411149 173.919166 
L 237.063721 171.475603 
L 237.390007 171.833208 
L 237.716293 172.977474 
L 238.042579 172.029288 
L 238.695151 174.663347 
L 239.021437 172.988238 
L 239.674009 173.067078 
L 240.000295 172.470924 
L 240.326581 172.650927 
L 240.652867 173.016798 
L 240.979153 172.540688 
L 241.305439 173.023557 
L 241.631725 172.049232 
L 241.958011 172.968087 
L 242.284297 170.853257 
L 242.936869 171.261334 
L 243.263155 171.110547 
L 243.589441 172.048955 
L 243.915727 173.501686 
L 244.242013 175.672938 
L 244.568299 177.070998 
L 244.894585 177.233243 
L 245.220871 177.763934 
L 245.547157 179.932367 
L 245.873443 178.868444 
L 246.199729 178.392153 
L 246.526015 179.479612 
L 246.8523 178.209187 
L 247.178586 178.251139 
L 247.504872 177.208591 
L 247.831158 178.472534 
L 248.157444 177.289328 
L 248.48373 177.665574 
L 248.810016 176.440241 
L 249.136302 175.79547 
L 249.462588 175.604033 
L 249.788874 174.789884 
L 250.11516 175.20937 
L 250.441446 174.785631 
L 250.767732 175.068261 
L 251.094018 174.910833 
L 251.420304 173.162927 
L 251.74659 173.369689 
L 252.399162 175.133736 
L 252.725448 175.407035 
L 253.051734 175.279294 
L 253.37802 174.749056 
L 253.704306 173.125004 
L 254.030592 175.805943 
L 254.356878 175.900738 
L 254.683164 181.529071 
L 255.00945 184.176115 
L 255.335736 184.456995 
L 255.662022 185.850497 
L 255.988308 185.951613 
L 256.314594 182.240041 
L 256.967166 180.410562 
L 257.293452 180.532718 
L 257.619738 181.388776 
L 257.946024 181.055604 
L 258.27231 182.496199 
L 258.598596 181.554722 
L 258.924882 181.011604 
L 259.251168 181.902398 
L 259.577454 180.883112 
L 260.230025 179.36882 
L 260.556311 179.44609 
L 260.882597 178.761735 
L 261.208883 177.636107 
L 261.535169 175.821602 
L 261.861455 175.520455 
L 262.187741 177.774782 
L 262.514027 178.237198 
L 263.492885 173.202189 
L 263.819171 176.28242 
L 264.145457 177.513897 
L 264.471743 177.241277 
L 264.798029 179.296758 
L 265.124315 179.554668 
L 265.450601 178.625048 
L 265.776887 180.346012 
L 266.103173 180.452767 
L 266.755745 180.276199 
L 267.082031 179.816807 
L 267.408317 184.850543 
L 267.734603 187.344655 
L 268.060889 186.556956 
L 268.387175 186.994613 
L 269.366033 188.736615 
L 269.692319 187.874679 
L 270.018605 189.078899 
L 270.344891 188.941588 
L 270.671177 190.899735 
L 270.997463 190.956708 
L 271.323749 191.604823 
L 271.650035 193.877465 
L 271.976321 193.853526 
L 272.628893 199.940089 
L 273.60775 220.897778 
L 273.934036 225.143191 
L 274.260322 223.918315 
L 274.586608 223.534466 
L 274.912894 222.607193 
L 275.23918 222.194328 
L 275.565466 223.732823 
L 275.891752 226.046639 
L 276.218038 226.073134 
L 276.544324 225.024648 
L 276.87061 225.918736 
L 277.196896 224.93862 
L 277.523182 224.486466 
L 277.849468 226.212397 
L 278.175754 226.507239 
L 278.50204 226.986158 
L 278.828326 227.779243 
L 279.154612 227.688092 
L 279.480898 230.098158 
L 279.807184 228.229208 
L 280.13347 229.616915 
L 280.459756 225.550695 
L 280.786042 226.401739 
L 281.112328 229.197652 
L 281.438614 228.581248 
L 281.7649 228.982579 
L 282.091186 227.854333 
L 282.417472 227.711079 
L 283.070044 230.764477 
L 283.39633 229.52943 
L 283.722616 229.804951 
L 284.048902 230.23169 
L 284.375188 231.97967 
L 284.701474 229.586988 
L 285.02776 228.590082 
L 285.680332 231.511493 
L 286.006618 230.637786 
L 286.332903 231.572418 
L 286.985475 236.6556 
L 287.311761 238.438347 
L 287.638047 238.903919 
L 287.964333 238.159716 
L 288.290619 238.662748 
L 288.616905 238.495932 
L 288.943191 240.504461 
L 289.269477 241.338258 
L 289.595763 243.273437 
L 289.922049 243.867481 
L 290.248335 245.260763 
L 290.574621 247.932912 
L 290.900907 246.61906 
L 291.227193 247.317741 
L 291.553479 249.879977 
L 291.879765 248.371087 
L 292.206051 251.310983 
L 292.532337 248.707917 
L 292.858623 247.525603 
L 293.184909 250.305482 
L 293.837481 253.569204 
L 294.490053 256.200905 
L 294.816339 256.025638 
L 295.468911 260.881633 
L 296.121483 260.996188 
L 296.447769 261.216 
L 296.774055 259.814215 
L 297.100341 259.584314 
L 297.752913 257.539375 
L 298.079199 256.160645 
L 298.405485 256.981169 
L 298.731771 256.251162 
L 299.058057 254.949658 
L 299.384343 255.601644 
L 299.710628 255.988451 
L 300.036914 259.446388 
L 300.3632 256.885963 
L 300.689486 259.004423 
L 301.015772 256.787921 
L 301.342058 252.404385 
L 301.99463 246.481748 
L 302.320916 246.420714 
L 302.647202 242.872389 
L 302.973488 241.214314 
L 303.299774 238.957331 
L 303.952346 240.66927 
L 304.278632 240.104784 
L 304.604918 242.05387 
L 305.25749 240.020513 
L 305.583776 241.22642 
L 305.910062 241.049422 
L 306.236348 238.050863 
L 306.88892 238.751144 
L 307.215206 238.514862 
L 307.541492 238.776561 
L 307.867778 240.10949 
L 308.194064 240.795631 
L 308.52035 239.894589 
L 308.846636 236.466762 
L 309.172922 237.272104 
L 309.499208 235.082314 
L 309.825494 234.040683 
L 310.15178 234.866991 
L 310.804352 237.294121 
L 311.130638 233.777988 
L 311.456924 232.984433 
L 311.78321 234.080193 
L 312.109496 232.917383 
L 312.435782 230.924004 
L 312.762067 229.732176 
L 313.088353 229.166875 
L 313.740925 230.191427 
L 314.067211 232.184329 
L 314.393497 229.636822 
L 314.719783 229.132151 
L 315.372355 231.770352 
L 315.698641 231.330587 
L 316.024927 231.591477 
L 316.351213 230.964208 
L 316.677499 232.500709 
L 317.003785 232.4813 
L 317.330071 234.656312 
L 317.656357 235.333419 
L 317.982643 236.943252 
L 318.308929 237.033664 
L 319.287787 239.460625 
L 319.614073 238.464587 
L 320.266645 241.552897 
L 320.592931 238.948138 
L 321.245503 236.40059 
L 321.898075 234.718911 
L 322.224361 236.545737 
L 322.550647 236.83562 
L 322.876933 234.521704 
L 323.203219 235.948721 
L 323.529505 235.023887 
L 323.855791 233.366926 
L 324.182077 236.757274 
L 324.508363 234.4219 
L 324.834649 236.68824 
L 325.487221 231.488298 
L 325.813507 233.871788 
L 326.139792 232.71263 
L 326.466078 232.181724 
L 326.792364 235.441442 
L 327.11865 233.013156 
L 327.444936 235.432294 
L 328.097508 238.524814 
L 328.423794 236.41013 
L 328.75008 238.822912 
L 329.076366 238.073683 
L 329.402652 237.779853 
L 329.728938 236.114978 
L 330.055224 235.610858 
L 330.38151 236.594375 
L 330.707796 238.433335 
L 331.034082 236.41007 
L 331.360368 238.71545 
L 331.686654 238.954241 
L 332.339226 236.446758 
L 332.991798 242.257666 
L 333.318084 240.426106 
L 333.64437 243.750083 
L 333.970656 243.898298 
L 334.296942 242.488468 
L 334.623228 242.667411 
L 334.949514 241.407074 
L 335.2758 241.407363 
L 335.602086 242.978617 
L 335.928372 240.011363 
L 336.254658 241.920532 
L 336.580944 241.665052 
L 336.90723 242.262441 
L 337.559802 237.257496 
L 337.886088 239.233332 
L 338.212374 235.387585 
L 338.53866 234.071871 
L 338.864946 234.820366 
L 339.191231 231.809552 
L 339.517517 235.089888 
L 339.843803 233.609699 
L 340.170089 233.031887 
L 340.496375 233.178662 
L 341.148947 237.121098 
L 341.801519 234.34916 
L 342.127805 234.550589 
L 342.454091 233.288721 
L 342.780377 234.986825 
L 343.106663 232.271192 
L 343.432949 235.244339 
L 343.759235 233.63366 
L 344.085521 233.425669 
L 344.411807 235.370003 
L 344.738093 235.870637 
L 345.064379 234.833509 
L 345.390665 234.676091 
L 346.043237 232.565511 
L 346.369523 236.244949 
L 346.695809 235.234404 
L 347.022095 237.438792 
L 347.348381 235.115479 
L 347.674667 237.687043 
L 348.000953 237.990263 
L 348.979811 231.257174 
L 349.632383 237.128253 
L 350.284955 237.789083 
L 350.611241 235.762885 
L 350.937527 236.365768 
L 351.916385 239.833199 
L 352.568956 234.414432 
L 352.895242 233.418084 
L 353.221528 235.351934 
L 353.547814 233.486255 
L 353.8741 236.523403 
L 354.200386 234.000179 
L 354.852958 230.953414 
L 355.179244 234.054935 
L 355.50553 231.587661 
L 355.831816 231.581843 
L 356.158102 232.370964 
L 356.484388 233.652944 
L 356.810674 232.574436 
L 357.13696 234.38072 
L 357.463246 233.069982 
L 357.789532 233.455668 
L 358.115818 232.284851 
L 358.442104 234.441158 
L 358.76839 232.97923 
L 359.094676 235.55433 
L 359.420962 235.161765 
L 359.747248 236.991814 
L 360.073534 237.168194 
L 360.39982 235.771881 
L 360.726106 233.77527 
L 361.052392 235.85903 
L 361.378678 232.060384 
L 361.704964 231.094119 
L 362.03125 232.135024 
L 362.357536 233.981836 
L 362.683822 231.329854 
L 363.010108 233.526848 
L 363.336394 236.649547 
L 363.66268 234.233115 
L 363.988966 233.496429 
L 364.641538 232.502607 
L 364.967824 233.651172 
L 365.29411 237.108709 
L 365.620395 234.130293 
L 365.946681 234.960506 
L 366.599253 237.862148 
L 366.925539 237.15635 
L 367.251825 237.594252 
L 367.578111 238.811997 
L 368.230683 232.873341 
L 368.883255 236.354832 
L 369.209541 237.287476 
L 369.535827 234.652531 
L 369.862113 236.147961 
L 370.188399 233.608939 
L 370.840971 237.4988 
L 371.167257 234.950202 
L 371.493543 236.963018 
L 371.819829 234.70115 
L 372.146115 236.565558 
L 372.472401 235.933024 
L 372.798687 235.950415 
L 372.798687 235.950415 
" clip-path="url(#p04cd1e790e)" style="fill: none; stroke: #d1dae9; stroke-width: 1.5; stroke-linecap: square"/>
   </g>
   <g id="line2d_16">
    <path d="M 48.144142 63.77485 
L 48.470427 62.63066 
L 48.796713 58.183221 
L 49.122999 61.015803 
L 49.449285 59.538113 
L 49.775571 58.59621 
L 50.101857 56.070023 
L 50.428143 59.802339 
L 50.754429 60.12711 
L 51.080715 63.25901 
L 51.407001 62.118394 
L 51.733287 63.002564 
L 52.059573 60.937459 
L 52.712145 63.423035 
L 53.038431 65.189256 
L 53.364717 65.694273 
L 53.691003 64.985265 
L 54.017289 67.735176 
L 54.343575 67.213984 
L 54.669861 63.543881 
L 54.996147 62.171399 
L 55.322433 64.977366 
L 55.648719 60.728091 
L 56.301291 63.276719 
L 56.627577 64.139072 
L 56.953863 61.168837 
L 57.280149 63.651269 
L 57.606435 67.267999 
L 57.932721 64.639846 
L 58.259007 65.596283 
L 58.585293 67.291306 
L 58.911579 62.193528 
L 59.564151 56.286598 
L 60.216723 62.403301 
L 60.543009 60.651608 
L 61.195581 66.59517 
L 61.521866 64.611998 
L 61.848152 65.848631 
L 62.174438 66.331828 
L 62.82701 61.35428 
L 63.153296 63.475984 
L 63.479582 64.634392 
L 63.805868 62.425223 
L 64.132154 61.530858 
L 64.45844 64.531309 
L 64.784726 64.248808 
L 65.111012 63.555415 
L 65.437298 64.046149 
L 66.08987 62.176822 
L 66.416156 63.159159 
L 66.742442 59.126477 
L 67.068728 56.563914 
L 67.395014 58.6372 
L 67.7213 54.367344 
L 68.047586 55.461866 
L 68.373872 54.146994 
L 68.700158 56.561864 
L 69.026444 50.164978 
L 69.35273 49.233696 
L 69.679016 46.689557 
L 70.005302 45.695028 
L 70.331588 43.154407 
L 70.657874 44.306054 
L 70.98416 49.374726 
L 71.310446 48.963661 
L 71.636732 46.506125 
L 71.963018 45.067357 
L 72.289304 42.664184 
L 72.61559 43.485602 
L 72.941876 45.924968 
L 73.268162 49.886405 
L 73.920734 52.893152 
L 74.24702 59.178022 
L 74.899591 49.019169 
L 75.225877 53.258867 
L 75.552163 53.612327 
L 75.878449 57.524416 
L 76.204735 58.414419 
L 76.857307 50.420046 
L 77.183593 49.880339 
L 77.509879 44.833722 
L 77.836165 48.036126 
L 78.162451 47.61727 
L 78.488737 41.172267 
L 78.815023 41.09276 
L 79.141309 42.1686 
L 79.467595 44.17473 
L 79.793881 42.598125 
L 80.120167 44.751827 
L 80.446453 44.706884 
L 80.772739 46.499961 
L 81.099025 46.40849 
L 81.425311 42.469376 
L 81.751597 45.218437 
L 82.077883 45.050049 
L 82.404169 42.783786 
L 82.730455 46.905601 
L 83.056741 45.865739 
L 83.383027 43.587644 
L 84.035599 35.878518 
L 84.361885 37.69136 
L 84.688171 32.277591 
L 85.014457 33.21456 
L 85.340743 29.836179 
L 85.667029 27.761144 
L 85.993315 31.541547 
L 86.319601 31.769162 
L 86.645887 35.368205 
L 86.972173 33.345421 
L 87.298459 35.286925 
L 87.95103 25.859247 
L 88.603602 23.324234 
L 88.929888 19.296 
L 89.256174 22.022468 
L 89.908746 21.650134 
L 90.235032 21.109096 
L 90.561318 22.136983 
L 90.887604 20.994061 
L 91.21389 24.987851 
L 91.540176 34.24833 
L 91.866462 32.100809 
L 92.192748 33.933379 
L 92.519034 36.451701 
L 93.171606 34.035118 
L 93.824178 26.25554 
L 94.150464 29.672286 
L 94.47675 30.562662 
L 94.803036 32.078559 
L 95.129322 31.529382 
L 95.455608 32.514893 
L 95.781894 31.430794 
L 96.10818 35.629966 
L 96.434466 41.330575 
L 96.760752 43.669124 
L 97.087038 42.516373 
L 97.413324 42.449474 
L 97.73961 49.748462 
L 98.392182 44.481299 
L 99.044754 50.460236 
L 99.37104 50.19901 
L 99.697326 55.150603 
L 100.023612 58.078321 
L 100.349898 53.515849 
L 100.676184 53.055534 
L 101.00247 54.549597 
L 101.328755 62.279914 
L 101.655041 61.106711 
L 101.981327 66.752696 
L 102.307613 63.357954 
L 102.633899 63.559319 
L 103.286471 57.173827 
L 103.612757 56.367027 
L 103.939043 57.647628 
L 104.265329 61.420896 
L 104.917901 50.766676 
L 105.244187 54.080685 
L 105.896759 63.765871 
L 106.223045 64.010285 
L 106.549331 70.847207 
L 106.875617 73.469383 
L 107.201903 70.358828 
L 107.528189 68.813047 
L 108.180761 77.527148 
L 108.507047 77.412808 
L 108.833333 79.034805 
L 109.159619 83.583228 
L 109.485905 83.867468 
L 110.464763 77.03427 
L 110.791049 80.408119 
L 111.117335 79.760001 
L 111.443621 80.869932 
L 112.096193 69.383497 
L 112.422479 71.081215 
L 112.748765 70.187197 
L 113.075051 74.95636 
L 113.401337 74.295192 
L 113.727623 74.744196 
L 114.053909 77.80876 
L 114.380194 77.54265 
L 114.70648 78.909243 
L 115.032766 73.944453 
L 115.359052 74.224208 
L 115.685338 71.714065 
L 116.011624 75.229137 
L 116.33791 73.309346 
L 116.664196 73.332058 
L 116.990482 62.05494 
L 117.316768 62.347589 
L 117.643054 56.186154 
L 117.96934 61.636842 
L 118.295626 64.785528 
L 118.948198 73.435534 
L 119.274484 69.559891 
L 119.60077 63.613571 
L 119.927056 64.616311 
L 120.253342 66.067587 
L 120.579628 64.720822 
L 120.905914 65.450745 
L 121.2322 64.612253 
L 121.558486 65.540153 
L 121.884772 68.932 
L 122.211058 66.88318 
L 122.537344 67.806405 
L 122.86363 67.695187 
L 123.189916 69.092278 
L 123.516202 67.866176 
L 123.842488 71.326979 
L 124.168774 73.033748 
L 124.49506 71.927186 
L 124.821346 69.576771 
L 125.147632 70.328365 
L 125.473918 76.042747 
L 125.800204 76.223481 
L 126.12649 74.373767 
L 126.452776 70.732558 
L 126.779062 65.341816 
L 127.105348 68.232671 
L 127.431634 67.945748 
L 127.757919 71.805586 
L 128.410491 73.954783 
L 128.736777 76.17363 
L 129.063063 77.098181 
L 129.389349 72.932129 
L 129.715635 73.238948 
L 130.041921 75.978736 
L 130.368207 75.503381 
L 130.694493 79.255159 
L 131.020779 74.865701 
L 131.347065 77.135889 
L 131.673351 74.882405 
L 131.999637 78.394264 
L 132.325923 80.140685 
L 132.652209 80.721141 
L 132.978495 83.342133 
L 133.631067 73.39128 
L 133.957353 75.336961 
L 134.283639 72.563877 
L 134.609925 72.267057 
L 134.936211 81.029747 
L 135.262497 77.179183 
L 135.588783 75.430602 
L 135.915069 70.364589 
L 136.241355 69.080739 
L 136.567641 67.053881 
L 136.893927 64.256701 
L 137.220213 66.754157 
L 137.546499 65.216128 
L 137.872785 65.4577 
L 138.199071 67.347297 
L 138.525357 71.257153 
L 138.851643 67.57824 
L 139.504215 78.357739 
L 140.156787 82.785331 
L 140.483073 81.894784 
L 140.809358 79.849219 
L 141.135644 76.599024 
L 141.46193 75.990311 
L 141.788216 72.963718 
L 142.114502 75.662074 
L 142.440788 79.541269 
L 142.767074 76.056141 
L 143.09336 74.229161 
L 143.419646 77.185972 
L 143.745932 77.919944 
L 144.072218 76.816017 
L 144.398504 76.348503 
L 144.72479 71.69894 
L 145.051076 79.047803 
L 145.377362 73.290964 
L 145.703648 77.261002 
L 146.029934 77.349021 
L 146.35622 77.984188 
L 146.682506 76.380385 
L 147.008792 77.502808 
L 147.335078 74.016632 
L 147.661364 77.608977 
L 147.98765 78.665353 
L 148.640222 82.676906 
L 148.966508 76.792343 
L 149.292794 75.885099 
L 149.61908 69.535509 
L 149.945366 69.911805 
L 150.271652 66.702428 
L 150.597938 67.283733 
L 150.924224 73.07103 
L 151.25051 72.366453 
L 151.576796 77.6372 
L 151.903082 69.318932 
L 152.229368 67.883104 
L 152.555654 68.469829 
L 152.88194 69.503167 
L 153.208226 64.992742 
L 153.534512 63.292454 
L 153.860798 58.334741 
L 154.187083 61.571748 
L 154.839655 48.496991 
L 155.165941 51.527867 
L 155.492227 52.516446 
L 155.818513 57.994328 
L 156.797371 67.579164 
L 157.123657 68.244713 
L 157.449943 62.154968 
L 157.776229 68.620551 
L 158.102515 68.476131 
L 158.428801 65.167159 
L 159.081373 63.554224 
L 159.407659 65.231161 
L 159.733945 65.075035 
L 160.060231 63.995437 
L 160.386517 60.946222 
L 160.712803 63.863655 
L 161.039089 63.971646 
L 161.365375 58.761937 
L 162.017947 64.532748 
L 162.670519 57.104277 
L 162.996805 56.200739 
L 163.323091 59.670225 
L 163.649377 60.499369 
L 163.975663 60.682269 
L 164.628235 66.07592 
L 164.954521 62.404923 
L 165.280807 62.707486 
L 165.607093 65.276922 
L 165.933379 65.265161 
L 166.259665 65.015534 
L 166.585951 61.563536 
L 166.912237 59.62404 
L 167.564808 49.391699 
L 167.891094 50.295883 
L 168.543666 41.147776 
L 169.196238 38.032205 
L 169.522524 34.573426 
L 169.84881 35.862953 
L 170.175096 38.319121 
L 170.501382 32.741312 
L 170.827668 34.060399 
L 171.153954 40.610028 
L 171.48024 44.379022 
L 171.806526 45.633054 
L 172.132812 50.041427 
L 172.459098 46.875374 
L 172.785384 42.59896 
L 173.764242 51.978713 
L 174.090528 43.9972 
L 174.416814 46.387906 
L 174.7431 43.801799 
L 175.069386 44.357601 
L 175.395672 40.083803 
L 176.048244 41.324106 
L 176.37453 47.047523 
L 176.700816 40.156805 
L 177.027102 39.273343 
L 177.353388 38.869743 
L 177.679674 35.18487 
L 178.00596 35.317336 
L 178.332246 32.220161 
L 178.984818 29.32708 
L 179.311104 33.528903 
L 179.63739 29.778674 
L 179.963676 33.222349 
L 180.289962 30.167642 
L 180.616247 29.505993 
L 180.942533 33.694008 
L 181.268819 39.893504 
L 181.595105 36.997973 
L 181.921391 42.343555 
L 182.247677 44.568471 
L 182.573963 42.930811 
L 182.900249 44.478481 
L 183.226535 42.841071 
L 183.552821 42.717326 
L 183.879107 42.261564 
L 184.531679 53.303319 
L 184.857965 53.437879 
L 185.510537 48.143144 
L 185.836823 46.399642 
L 186.163109 50.057463 
L 186.489395 49.320903 
L 186.815681 48.863878 
L 187.141967 50.753965 
L 187.468253 48.226905 
L 188.120825 54.696366 
L 188.447111 50.111589 
L 189.099683 55.492224 
L 189.425969 50.893807 
L 189.752255 51.963146 
L 190.404827 43.617253 
L 190.731113 37.723349 
L 191.057399 36.365845 
L 191.383685 39.893853 
L 191.709971 42.031693 
L 192.362543 51.959011 
L 193.015115 48.460637 
L 193.341401 44.852327 
L 193.667686 47.103358 
L 193.993972 47.513915 
L 194.320258 43.73877 
L 194.646544 51.077314 
L 194.97283 47.378355 
L 195.299116 45.634828 
L 195.625402 39.966597 
L 195.951688 40.162729 
L 196.277974 39.755382 
L 196.60426 40.62688 
L 197.256832 52.005879 
L 197.583118 45.783816 
L 197.909404 51.005674 
L 198.23569 49.454244 
L 198.561976 51.873345 
L 198.888262 52.006591 
L 199.214548 55.789817 
L 199.540834 48.320369 
L 199.86712 50.705575 
L 200.193406 48.917164 
L 200.519692 52.133935 
L 200.845978 50.455991 
L 201.172264 42.588043 
L 201.49855 44.152317 
L 201.824836 39.180897 
L 202.151122 44.029864 
L 202.477408 41.787238 
L 202.803694 41.936764 
L 203.456266 48.756678 
L 203.782552 47.835148 
L 204.108838 45.459701 
L 204.435124 46.030823 
L 204.76141 48.810027 
L 205.087696 48.111701 
L 205.413982 46.770386 
L 205.740268 41.42723 
L 206.39284 38.74545 
L 206.719126 39.510141 
L 207.045411 42.187555 
L 207.371697 37.410866 
L 207.697983 37.746274 
L 208.024269 40.947266 
L 208.350555 42.858997 
L 208.676841 42.500267 
L 209.003127 38.413104 
L 209.329413 37.737682 
L 209.655699 33.870737 
L 210.308271 31.078804 
L 210.634557 35.512078 
L 210.960843 34.070827 
L 211.287129 36.27235 
L 211.939701 30.845497 
L 212.265987 34.929725 
L 212.918559 36.766641 
L 213.244845 40.512428 
L 213.571131 38.965996 
L 213.897417 39.145847 
L 214.223703 34.971096 
L 214.549989 34.624036 
L 214.876275 32.158467 
L 215.202561 34.929571 
L 215.528847 26.961948 
L 215.855133 21.792391 
L 216.181419 20.415718 
L 216.507705 30.212003 
L 216.833991 34.664046 
L 217.160277 37.236052 
L 217.486563 44.371256 
L 218.139135 40.721642 
L 218.465421 43.26099 
L 218.791707 44.605511 
L 219.117993 43.093486 
L 219.444279 44.524583 
L 219.770565 43.20554 
L 220.096851 44.24791 
L 220.423136 41.725763 
L 220.749422 47.61402 
L 221.075708 43.020373 
L 221.401994 42.146719 
L 221.72828 38.332705 
L 222.054566 36.141061 
L 222.380852 31.540342 
L 222.707138 29.789579 
L 223.033424 22.965034 
L 223.35971 22.888317 
L 223.685996 21.019161 
L 224.012282 24.677825 
L 224.338568 25.622899 
L 224.664854 25.803314 
L 224.99114 26.994416 
L 225.317426 31.93714 
L 225.643712 29.473215 
L 225.969998 30.982225 
L 226.296284 31.279031 
L 226.62257 26.497946 
L 226.948856 29.891802 
L 227.275142 26.518462 
L 227.601428 32.174574 
L 227.927714 33.227615 
L 228.254 27.118527 
L 228.580286 33.529634 
L 228.906572 29.689818 
L 229.232858 31.580855 
L 229.559144 35.287684 
L 229.88543 36.742463 
L 230.211716 36.821666 
L 230.538002 39.515878 
L 230.864288 35.791927 
L 231.190574 37.706949 
L 231.51686 31.061096 
L 231.843146 37.557095 
L 232.495718 33.186828 
L 232.822004 32.165875 
L 233.14829 32.847349 
L 233.474575 37.080961 
L 233.800861 39.369152 
L 234.127147 37.039114 
L 234.453433 38.854949 
L 234.779719 36.898467 
L 235.106005 41.6705 
L 235.432291 36.69683 
L 235.758577 37.071748 
L 236.084863 32.711979 
L 236.411149 37.483382 
L 236.737435 37.976845 
L 237.063721 40.506697 
L 237.390007 46.506865 
L 237.716293 43.704606 
L 238.042579 45.741174 
L 238.368865 44.280625 
L 238.695151 40.542278 
L 239.021437 45.662329 
L 239.347723 48.486444 
L 239.674009 50.162088 
L 240.000295 50.869281 
L 240.326581 50.656608 
L 240.652867 50.065182 
L 240.979153 44.244901 
L 241.305439 44.634266 
L 241.631725 46.232541 
L 241.958011 43.467073 
L 242.284297 44.255264 
L 242.936869 45.032966 
L 243.263155 51.72829 
L 243.589441 46.389499 
L 243.915727 46.738523 
L 244.568299 47.59525 
L 244.894585 50.088181 
L 245.220871 50.441675 
L 245.547157 53.771589 
L 245.873443 58.532355 
L 246.199729 58.513922 
L 246.8523 57.608824 
L 247.504872 47.424456 
L 247.831158 44.809945 
L 248.48373 51.707186 
L 248.810016 54.082275 
L 249.136302 55.260628 
L 249.462588 52.937978 
L 249.788874 58.032317 
L 250.767732 63.968534 
L 251.094018 60.003502 
L 251.420304 58.040929 
L 251.74659 65.294418 
L 252.072876 68.373824 
L 252.725448 63.783798 
L 253.051734 63.296382 
L 253.37802 65.251591 
L 253.704306 70.130667 
L 254.030592 65.930508 
L 254.356878 58.882521 
L 254.683164 58.297259 
L 255.00945 56.070376 
L 255.335736 52.78721 
L 255.988308 60.455142 
L 256.314594 56.695776 
L 256.64088 58.734406 
L 256.967166 58.294917 
L 257.293452 61.665733 
L 257.619738 63.878307 
L 257.946024 62.039555 
L 258.27231 61.435898 
L 258.598596 63.836689 
L 259.577454 58.038514 
L 259.903739 59.283469 
L 260.230025 61.284566 
L 260.556311 59.327963 
L 260.882597 60.975295 
L 261.208883 54.182616 
L 261.535169 56.836362 
L 261.861455 62.876113 
L 262.187741 57.093408 
L 263.166599 72.136278 
L 263.492885 70.487377 
L 263.819171 72.295958 
L 264.145457 78.179373 
L 264.471743 78.202226 
L 264.798029 70.243527 
L 265.450601 63.690701 
L 265.776887 64.350575 
L 266.103173 60.834519 
L 266.755745 62.651786 
L 267.082031 62.404668 
L 267.408317 58.14623 
L 267.734603 56.209387 
L 268.060889 51.069367 
L 268.387175 54.744019 
L 268.713461 56.03321 
L 269.039747 53.467423 
L 269.366033 53.475665 
L 269.692319 57.337817 
L 270.018605 58.156767 
L 270.671177 51.44922 
L 270.997463 53.61604 
L 271.323749 54.477586 
L 271.650035 50.721233 
L 271.976321 53.690077 
L 272.302607 54.151721 
L 272.628893 51.36929 
L 272.955179 53.14902 
L 273.281464 57.241296 
L 273.60775 65.138046 
L 273.934036 64.864101 
L 274.260322 63.366535 
L 274.912894 56.650839 
L 275.565466 62.340616 
L 275.891752 60.531636 
L 276.218038 59.826893 
L 276.544324 61.872168 
L 276.87061 66.860361 
L 277.196896 69.241505 
L 277.523182 65.838389 
L 277.849468 66.598175 
L 278.175754 68.24502 
L 279.154612 57.432251 
L 279.807184 56.286284 
L 280.13347 56.367037 
L 280.459756 57.747959 
L 280.786042 58.08351 
L 281.112328 58.194246 
L 281.438614 58.769089 
L 281.7649 54.541602 
L 282.091186 51.930147 
L 282.417472 51.585749 
L 282.743758 44.421181 
L 283.070044 44.57893 
L 283.39633 52.167188 
L 283.722616 54.85148 
L 284.048902 58.862137 
L 284.375188 55.52993 
L 285.02776 62.878468 
L 285.354046 63.579765 
L 285.680332 65.369639 
L 286.006618 60.688272 
L 286.332903 59.43603 
L 286.659189 62.258415 
L 286.985475 66.418352 
L 287.311761 65.565426 
L 287.638047 65.378794 
L 287.964333 64.878987 
L 288.290619 67.644394 
L 288.616905 60.719613 
L 288.943191 57.950239 
L 289.269477 56.862808 
L 289.595763 57.316249 
L 290.248335 48.770274 
L 290.900907 50.195049 
L 291.227193 48.607496 
L 291.553479 49.090922 
L 291.879765 51.469627 
L 292.206051 45.689386 
L 292.532337 44.138879 
L 292.858623 44.521744 
L 293.184909 52.480144 
L 293.511195 53.471119 
L 294.163767 59.549775 
L 294.490053 60.108222 
L 295.468911 69.988686 
L 295.795197 69.306947 
L 296.121483 66.282027 
L 296.447769 65.860311 
L 296.774055 69.411172 
L 297.426627 63.857422 
L 297.752913 65.906774 
L 298.079199 69.444497 
L 298.405485 61.439318 
L 298.731771 61.906553 
L 299.058057 53.757863 
L 299.384343 56.703237 
L 299.710628 58.111671 
L 300.036914 58.582548 
L 300.3632 63.61505 
L 300.689486 61.687009 
L 301.015772 66.268419 
L 301.342058 63.808736 
L 301.668344 63.164161 
L 301.99463 65.236949 
L 302.320916 61.858272 
L 303.299774 71.432452 
L 303.62606 71.336486 
L 303.952346 68.336096 
L 304.278632 68.236248 
L 304.604918 71.450134 
L 304.931204 68.233579 
L 305.25749 69.194988 
L 306.236348 63.839659 
L 306.562634 58.878197 
L 306.88892 59.775757 
L 307.215206 58.383715 
L 307.541492 58.015271 
L 307.867778 55.253284 
L 308.52035 60.818903 
L 308.846636 55.845624 
L 309.172922 59.656535 
L 309.499208 65.051861 
L 309.825494 73.107833 
L 310.15178 72.440962 
L 310.478066 69.674957 
L 310.804352 70.354484 
L 311.130638 69.789464 
L 311.456924 65.418566 
L 311.78321 65.83279 
L 312.109496 66.020394 
L 312.435782 69.292273 
L 312.762067 70.04601 
L 313.088353 69.762608 
L 313.414639 68.663273 
L 313.740925 68.463626 
L 314.393497 70.770753 
L 314.719783 71.901681 
L 315.046069 70.086295 
L 315.372355 70.228552 
L 315.698641 68.431523 
L 316.024927 69.275471 
L 316.351213 73.163057 
L 316.677499 74.32288 
L 317.003785 71.452922 
L 317.330071 65.929825 
L 317.656357 70.160321 
L 318.308929 74.757369 
L 318.635215 72.042213 
L 318.961501 70.32913 
L 319.287787 72.244487 
L 319.614073 67.65836 
L 320.266645 75.273577 
L 320.592931 73.137315 
L 320.919217 73.380479 
L 321.245503 68.794479 
L 321.898075 64.367089 
L 322.224361 70.235002 
L 322.550647 66.367149 
L 322.876933 64.822781 
L 323.203219 66.402454 
L 323.529505 66.82188 
L 323.855791 71.093032 
L 324.182077 70.734148 
L 324.508363 70.571469 
L 325.160935 58.501833 
L 325.487221 60.083448 
L 325.813507 59.322952 
L 326.139792 66.682709 
L 326.466078 66.45861 
L 326.792364 62.192787 
L 327.11865 62.896413 
L 327.444936 67.209186 
L 327.771222 66.617879 
L 328.097508 70.107229 
L 328.423794 71.890428 
L 328.75008 70.808043 
L 329.076366 72.611976 
L 329.402652 73.617716 
L 329.728938 66.498862 
L 330.38151 64.244508 
L 330.707796 63.967193 
L 331.034082 66.928421 
L 331.360368 71.076408 
L 331.686654 71.712438 
L 332.01294 68.871911 
L 332.339226 72.275425 
L 332.991798 68.380999 
L 333.64437 61.386698 
L 333.970656 67.725506 
L 334.296942 64.413888 
L 334.623228 63.420733 
L 334.949514 61.322002 
L 335.2758 64.532398 
L 335.928372 65.012323 
L 336.254658 68.201359 
L 336.580944 69.784917 
L 336.90723 67.168271 
L 337.233516 69.328825 
L 337.559802 75.275463 
L 337.886088 69.498937 
L 338.864946 74.227855 
L 339.191231 80.156748 
L 339.843803 72.659081 
L 340.170089 78.556152 
L 340.496375 80.76294 
L 340.822661 77.004767 
L 341.148947 84.315781 
L 341.475233 77.7205 
L 341.801519 77.487432 
L 342.454091 72.212429 
L 342.780377 75.216464 
L 343.106663 68.777166 
L 343.432949 66.392124 
L 343.759235 68.683498 
L 344.085521 68.402655 
L 344.411807 69.998166 
L 344.738093 67.019545 
L 345.064379 62.126501 
L 345.390665 63.307473 
L 345.716951 59.470356 
L 346.043237 52.264162 
L 346.369523 52.752779 
L 346.695809 54.450244 
L 347.022095 58.705805 
L 347.348381 52.59548 
L 347.674667 56.698896 
L 348.000953 55.567856 
L 348.327239 55.145376 
L 348.653525 56.824708 
L 348.979811 56.422571 
L 349.306097 61.377364 
L 349.958669 63.415867 
L 350.284955 57.422478 
L 350.611241 56.517915 
L 351.263813 62.997057 
L 351.590099 67.809103 
L 351.916385 64.326965 
L 352.242671 66.194032 
L 353.221528 57.898537 
L 353.547814 57.533115 
L 353.8741 56.287445 
L 354.200386 54.491341 
L 354.526672 54.771821 
L 354.852958 58.961954 
L 355.179244 58.753163 
L 355.50553 51.341084 
L 355.831816 50.328719 
L 356.158102 51.061908 
L 356.810674 57.475367 
L 357.13696 57.044882 
L 357.789532 55.666452 
L 358.115818 59.189413 
L 358.442104 57.297236 
L 358.76839 58.318364 
L 359.094676 55.843947 
L 360.073534 63.283706 
L 360.39982 60.359042 
L 360.726106 61.788382 
L 361.378678 68.758511 
L 361.704964 66.730493 
L 362.03125 59.843211 
L 362.357536 63.461223 
L 362.683822 70.425912 
L 363.010108 64.957186 
L 363.336394 64.024236 
L 363.66268 64.320434 
L 363.988966 67.051801 
L 364.315252 67.291278 
L 364.641538 70.998161 
L 364.967824 76.420288 
L 365.29411 74.952616 
L 365.620395 71.089816 
L 365.946681 71.698032 
L 366.272967 69.20126 
L 366.599253 71.09495 
L 366.925539 66.55333 
L 367.578111 70.647615 
L 367.904397 60.414892 
L 368.230683 57.613863 
L 368.556969 56.928716 
L 368.883255 59.763184 
L 369.535827 55.561264 
L 369.862113 57.172132 
L 370.188399 55.41305 
L 370.514685 57.927499 
L 370.840971 61.531465 
L 371.167257 63.056089 
L 371.493543 65.173717 
L 371.819829 62.710458 
L 372.146115 64.941527 
L 372.472401 62.936559 
L 372.798687 65.340146 
L 372.798687 65.340146 
" clip-path="url(#p04cd1e790e)" style="fill: none; stroke: #3a4cc0; stroke-width: 1.5; stroke-linecap: square"/>
   </g>
   <g id="patch_3">
    <path d="M 31.911414 273.312 
L 31.911414 7.2 
" style="fill: none; stroke: #000000; stroke-width: 0.8; stroke-linejoin: miter; stroke-linecap: square"/>
   </g>
   <g id="patch_4">
    <path d="M 389.031414 273.312 
L 389.031414 7.2 
" style="fill: none; stroke: #000000; stroke-width: 0.8; stroke-linejoin: miter; stroke-linecap: square"/>
   </g>
   <g id="patch_5">
    <path d="M 31.911414 273.312 
L 389.031414 273.312 
" style="fill: none; stroke: #000000; stroke-width: 0.8; stroke-linejoin: miter; stroke-linecap: square"/>
   </g>
   <g id="patch_6">
    <path d="M 31.911414 7.2 
L 389.031414 7.2 
" style="fill: none; stroke: #000000; stroke-width: 0.8; stroke-linejoin: miter; stroke-linecap: square"/>
   </g>
  </g>
 </g>
 <defs>
  <clipPath id="p04cd1e790e">
   <rect x="31.911414" y="7.2" width="357.12" height="266.112"/>
  </clipPath>
 </defs>
</svg>
