<?xml version="1.0" encoding="utf-8" standalone="no"?>
<!DOCTYPE svg PUBLIC "-//W3C//DTD SVG 1.1//EN"
  "http://www.w3.org/Graphics/SVG/1.1/DTD/svg11.dtd">
<svg xmlns:xlink="http://www.w3.org/1999/xlink" width="391.250079pt" height="296.367677pt" viewBox="0 0 391.250079 296.367677" xmlns="http://www.w3.org/2000/svg" version="1.1">
 <metadata>
  <rdf:RDF xmlns:dc="http://purl.org/dc/elements/1.1/" xmlns:cc="http://creativecommons.org/ns#" xmlns:rdf="http://www.w3.org/1999/02/22-rdf-syntax-ns#">
   <cc:Work>
    <dc:type rdf:resource="http://purl.org/dc/dcmitype/StillImage"/>
    <dc:date>2026-03-25T20:38:51.094763</dc:date>
    <dc:format>image/svg+xml</dc:format>
    <dc:creator>
     <cc:Agent>
      <dc:title>Matplotlib v3.10.8, https://matplotlib.org/</dc:title>
     </cc:Agent>
    </dc:creator>
   </cc:Work>
  </rdf:RDF>
 </metadata>
 <defs>
  <style type="text/css">*{stroke-linejoin: round; stroke-linecap: butt}</style>
 </defs>
 <g id="figure_1">
  <g id="patch_1">
   <path d="M 0 296.367677 
L 391.250079 296.367677 
L 391.250079 0 
L 0 0 
z
" style="fill: #ffffff"/>
  </g>
  <g id="axes_1">
   <g id="patch_2">
    <path d="M 26.930079 273.312 
L 384.050079 273.312 
L 384.050079 7.2 
L 26.930079 7.2 
z
" style="fill: #ffffff"/>
   </g>
   <g id="matplotlib.axis_1">
    <g id="xtick_1">
     <g id="line2d_1">
      <defs>
       <path id="mc4d394e8b9" d="M 0 0 
L 0 3.5 
" style="stroke: #000000; stroke-width: 0.8"/>
      </defs>
      <g>
       <use xlink:href="#mc4d394e8b9" x="43.162806" y="273.312" style="stroke: #000000; stroke-width: 0.8"/>
      </g>
     </g>
     <g id="text_1">
      <!-- $\mathdefault{0}$ -->
      <g transform="translate(40.672139 287.230498) scale(0.1 -0.1)">
       <defs>
        <path id="CMR17-30" d="M 2688 2025 
C 2688 2416 2682 3080 2413 3591 
C 2176 4039 1798 4198 1466 4198 
C 1158 4198 768 4058 525 3597 
C 269 3118 243 2524 243 2025 
C 243 1661 250 1106 448 619 
C 723 -39 1216 -128 1466 -128 
C 1760 -128 2208 -7 2470 600 
C 2662 1042 2688 1559 2688 2025 
z
M 1466 -26 
C 1056 -26 813 325 723 812 
C 653 1188 653 1738 653 2096 
C 653 2588 653 2997 736 3387 
C 858 3929 1216 4096 1466 4096 
C 1728 4096 2067 3923 2189 3400 
C 2272 3036 2278 2607 2278 2096 
C 2278 1680 2278 1169 2202 792 
C 2067 95 1690 -26 1466 -26 
z
" transform="scale(0.015625)"/>
       </defs>
       <use xlink:href="#CMR17-30" transform="scale(0.996264)"/>
      </g>
     </g>
    </g>
    <g id="xtick_2">
     <g id="line2d_2">
      <g>
       <use xlink:href="#mc4d394e8b9" x="108.093715" y="273.312" style="stroke: #000000; stroke-width: 0.8"/>
      </g>
     </g>
     <g id="text_2">
      <!-- $\mathdefault{200}$ -->
      <g transform="translate(100.621712 287.230498) scale(0.1 -0.1)">
       <defs>
        <path id="CMR17-32" d="M 2669 989 
L 2554 989 
C 2490 536 2438 459 2413 420 
C 2381 369 1920 369 1830 369 
L 602 369 
C 832 619 1280 1072 1824 1597 
C 2214 1967 2669 2402 2669 3035 
C 2669 3790 2067 4224 1395 4224 
C 691 4224 262 3604 262 3030 
C 262 2780 448 2748 525 2748 
C 589 2748 781 2787 781 3010 
C 781 3207 614 3264 525 3264 
C 486 3264 448 3258 422 3245 
C 544 3790 915 4058 1306 4058 
C 1862 4058 2227 3617 2227 3035 
C 2227 2479 1901 2000 1536 1584 
L 262 146 
L 262 0 
L 2515 0 
L 2669 989 
z
" transform="scale(0.015625)"/>
       </defs>
       <use xlink:href="#CMR17-32" transform="scale(0.996264)"/>
       <use xlink:href="#CMR17-30" transform="translate(45.690477 0) scale(0.996264)"/>
       <use xlink:href="#CMR17-30" transform="translate(91.380954 0) scale(0.996264)"/>
      </g>
     </g>
    </g>
    <g id="xtick_3">
     <g id="line2d_3">
      <g>
       <use xlink:href="#mc4d394e8b9" x="173.024624" y="273.312" style="stroke: #000000; stroke-width: 0.8"/>
      </g>
     </g>
     <g id="text_3">
      <!-- $\mathdefault{400}$ -->
      <g transform="translate(165.552622 287.230498) scale(0.1 -0.1)">
       <defs>
        <path id="CMR17-34" d="M 2150 4122 
C 2150 4256 2144 4256 2029 4256 
L 128 1254 
L 128 1088 
L 1779 1088 
L 1779 457 
C 1779 224 1766 160 1318 160 
L 1197 160 
L 1197 0 
C 1402 0 1747 0 1965 0 
C 2182 0 2528 0 2733 0 
L 2733 160 
L 2611 160 
C 2163 160 2150 224 2150 457 
L 2150 1088 
L 2803 1088 
L 2803 1254 
L 2150 1254 
L 2150 4122 
z
M 1798 3703 
L 1798 1254 
L 256 1254 
L 1798 3703 
z
" transform="scale(0.015625)"/>
       </defs>
       <use xlink:href="#CMR17-34" transform="scale(0.996264)"/>
       <use xlink:href="#CMR17-30" transform="translate(45.690477 0) scale(0.996264)"/>
       <use xlink:href="#CMR17-30" transform="translate(91.380954 0) scale(0.996264)"/>
      </g>
     </g>
    </g>
    <g id="xtick_4">
     <g id="line2d_4">
      <g>
       <use xlink:href="#mc4d394e8b9" x="237.955534" y="273.312" style="stroke: #000000; stroke-width: 0.8"/>
      </g>
     </g>
     <g id="text_4">
      <!-- $\mathdefault{600}$ -->
      <g transform="translate(230.483531 287.230498) scale(0.1 -0.1)">
       <defs>
        <path id="CMR17-36" d="M 678 2176 
C 678 3690 1395 4032 1811 4032 
C 1946 4032 2272 4009 2400 3776 
C 2298 3776 2106 3776 2106 3553 
C 2106 3381 2246 3323 2336 3323 
C 2394 3323 2566 3348 2566 3560 
C 2566 3954 2246 4179 1805 4179 
C 1043 4179 243 3390 243 1984 
C 243 253 966 -128 1478 -128 
C 2099 -128 2688 427 2688 1283 
C 2688 2081 2170 2662 1517 2662 
C 1126 2662 838 2407 678 1960 
L 678 2176 
z
M 1478 25 
C 691 25 691 1200 691 1436 
C 691 1896 909 2560 1504 2560 
C 1613 2560 1926 2560 2138 2120 
C 2253 1870 2253 1609 2253 1289 
C 2253 944 2253 690 2118 434 
C 1978 171 1773 25 1478 25 
z
" transform="scale(0.015625)"/>
       </defs>
       <use xlink:href="#CMR17-36" transform="scale(0.996264)"/>
       <use xlink:href="#CMR17-30" transform="translate(45.690477 0) scale(0.996264)"/>
       <use xlink:href="#CMR17-30" transform="translate(91.380954 0) scale(0.996264)"/>
      </g>
     </g>
    </g>
    <g id="xtick_5">
     <g id="line2d_5">
      <g>
       <use xlink:href="#mc4d394e8b9" x="302.886443" y="273.312" style="stroke: #000000; stroke-width: 0.8"/>
      </g>
     </g>
     <g id="text_5">
      <!-- $\mathdefault{800}$ -->
      <g transform="translate(295.41444 287.230498) scale(0.1 -0.1)">
       <defs>
        <path id="CMR17-38" d="M 1741 2264 
C 2144 2467 2554 2773 2554 3263 
C 2554 3841 1990 4179 1472 4179 
C 890 4179 378 3759 378 3180 
C 378 3021 416 2747 666 2505 
C 730 2442 998 2251 1171 2130 
C 883 1983 211 1634 211 934 
C 211 279 838 -128 1459 -128 
C 2144 -128 2720 362 2720 1010 
C 2720 1590 2330 1857 2074 2029 
L 1741 2264 
z
M 902 2822 
C 851 2854 595 3051 595 3351 
C 595 3739 998 4032 1459 4032 
C 1965 4032 2336 3676 2336 3262 
C 2336 2669 1670 2331 1638 2331 
C 1632 2331 1626 2331 1574 2370 
L 902 2822 
z
M 2080 1519 
C 2176 1449 2483 1240 2483 851 
C 2483 381 2010 25 1472 25 
C 890 25 448 438 448 940 
C 448 1443 838 1862 1280 2060 
L 2080 1519 
z
" transform="scale(0.015625)"/>
       </defs>
       <use xlink:href="#CMR17-38" transform="scale(0.996264)"/>
       <use xlink:href="#CMR17-30" transform="translate(45.690477 0) scale(0.996264)"/>
       <use xlink:href="#CMR17-30" transform="translate(91.380954 0) scale(0.996264)"/>
      </g>
     </g>
    </g>
    <g id="xtick_6">
     <g id="line2d_6">
      <g>
       <use xlink:href="#mc4d394e8b9" x="367.817352" y="273.312" style="stroke: #000000; stroke-width: 0.8"/>
      </g>
     </g>
     <g id="text_6">
      <!-- $\mathdefault{1000}$ -->
      <g transform="translate(357.854681 287.230498) scale(0.1 -0.1)">
       <defs>
        <path id="CMR17-31" d="M 1702 4058 
C 1702 4192 1696 4192 1606 4192 
C 1357 3916 979 3827 621 3827 
C 602 3827 570 3827 563 3808 
C 557 3795 557 3782 557 3648 
C 755 3648 1088 3686 1344 3839 
L 1344 461 
C 1344 236 1331 160 781 160 
L 589 160 
L 589 0 
C 896 0 1216 0 1523 0 
C 1830 0 2150 0 2458 0 
L 2458 160 
L 2266 160 
C 1715 160 1702 230 1702 458 
L 1702 4058 
z
" transform="scale(0.015625)"/>
       </defs>
       <use xlink:href="#CMR17-31" transform="scale(0.996264)"/>
       <use xlink:href="#CMR17-30" transform="translate(45.690477 0) scale(0.996264)"/>
       <use xlink:href="#CMR17-30" transform="translate(91.380954 0) scale(0.996264)"/>
       <use xlink:href="#CMR17-30" transform="translate(137.071431 0) scale(0.996264)"/>
      </g>
     </g>
    </g>
   </g>
   <g id="matplotlib.axis_2">
    <g id="ytick_1">
     <g id="line2d_7">
      <defs>
       <path id="m3e836d8c1c" d="M 0 0 
L -3.5 0 
" style="stroke: #000000; stroke-width: 0.8"/>
      </defs>
      <g>
       <use xlink:href="#m3e836d8c1c" x="26.930079" y="246.363236" style="stroke: #000000; stroke-width: 0.8"/>
      </g>
     </g>
     <g id="text_7">
      <!-- $\mathdefault{5.4}$ -->
      <g transform="translate(7.2 249.822486) scale(0.1 -0.1)">
       <defs>
        <path id="CMR17-35" d="M 730 3692 
C 794 3666 1056 3584 1325 3584 
C 1920 3584 2246 3911 2432 4100 
C 2432 4157 2432 4192 2394 4192 
C 2387 4192 2374 4192 2323 4163 
C 2099 4058 1837 3973 1517 3973 
C 1325 3973 1037 3999 723 4139 
C 653 4171 640 4171 634 4171 
C 602 4171 595 4164 595 4037 
L 595 2203 
C 595 2089 595 2057 659 2057 
C 691 2057 704 2070 736 2114 
C 941 2401 1222 2522 1542 2522 
C 1766 2522 2246 2382 2246 1289 
C 2246 1085 2246 715 2054 421 
C 1894 159 1645 25 1370 25 
C 947 25 518 320 403 814 
C 429 807 480 795 506 795 
C 589 795 749 840 749 1038 
C 749 1210 627 1280 506 1280 
C 358 1280 262 1190 262 1011 
C 262 454 704 -128 1382 -128 
C 2042 -128 2669 440 2669 1264 
C 2669 2030 2170 2624 1549 2624 
C 1222 2624 947 2503 730 2274 
L 730 3692 
z
" transform="scale(0.015625)"/>
        <path id="CMMI12-3a" d="M 1178 307 
C 1178 492 1024 619 870 619 
C 685 619 557 466 557 313 
C 557 128 710 0 864 0 
C 1050 0 1178 153 1178 307 
z
" transform="scale(0.015625)"/>
       </defs>
       <use xlink:href="#CMR17-35" transform="scale(0.996264)"/>
       <use xlink:href="#CMMI12-3a" transform="translate(45.690477 0) scale(0.996264)"/>
       <use xlink:href="#CMR17-34" transform="translate(72.787654 0) scale(0.996264)"/>
      </g>
     </g>
    </g>
    <g id="ytick_2">
     <g id="line2d_8">
      <g>
       <use xlink:href="#m3e836d8c1c" x="26.930079" y="208.138124" style="stroke: #000000; stroke-width: 0.8"/>
      </g>
     </g>
     <g id="text_8">
      <!-- $\mathdefault{5.6}$ -->
      <g transform="translate(7.2 211.597373) scale(0.1 -0.1)">
       <use xlink:href="#CMR17-35" transform="scale(0.996264)"/>
       <use xlink:href="#CMMI12-3a" transform="translate(45.690477 0) scale(0.996264)"/>
       <use xlink:href="#CMR17-36" transform="translate(72.787654 0) scale(0.996264)"/>
      </g>
     </g>
    </g>
    <g id="ytick_3">
     <g id="line2d_9">
      <g>
       <use xlink:href="#m3e836d8c1c" x="26.930079" y="169.913012" style="stroke: #000000; stroke-width: 0.8"/>
      </g>
     </g>
     <g id="text_9">
      <!-- $\mathdefault{5.8}$ -->
      <g transform="translate(7.2 173.372261) scale(0.1 -0.1)">
       <use xlink:href="#CMR17-35" transform="scale(0.996264)"/>
       <use xlink:href="#CMMI12-3a" transform="translate(45.690477 0) scale(0.996264)"/>
       <use xlink:href="#CMR17-38" transform="translate(72.787654 0) scale(0.996264)"/>
      </g>
     </g>
    </g>
    <g id="ytick_4">
     <g id="line2d_10">
      <g>
       <use xlink:href="#m3e836d8c1c" x="26.930079" y="131.687899" style="stroke: #000000; stroke-width: 0.8"/>
      </g>
     </g>
     <g id="text_10">
      <!-- $\mathdefault{6.0}$ -->
      <g transform="translate(7.2 135.147148) scale(0.1 -0.1)">
       <use xlink:href="#CMR17-36" transform="scale(0.996264)"/>
       <use xlink:href="#CMMI12-3a" transform="translate(45.690477 0) scale(0.996264)"/>
       <use xlink:href="#CMR17-30" transform="translate(72.787654 0) scale(0.996264)"/>
      </g>
     </g>
    </g>
    <g id="ytick_5">
     <g id="line2d_11">
      <g>
       <use xlink:href="#m3e836d8c1c" x="26.930079" y="93.462787" style="stroke: #000000; stroke-width: 0.8"/>
      </g>
     </g>
     <g id="text_11">
      <!-- $\mathdefault{6.2}$ -->
      <g transform="translate(7.2 96.922036) scale(0.1 -0.1)">
       <use xlink:href="#CMR17-36" transform="scale(0.996264)"/>
       <use xlink:href="#CMMI12-3a" transform="translate(45.690477 0) scale(0.996264)"/>
       <use xlink:href="#CMR17-32" transform="translate(72.787654 0) scale(0.996264)"/>
      </g>
     </g>
    </g>
    <g id="ytick_6">
     <g id="line2d_12">
      <g>
       <use xlink:href="#m3e836d8c1c" x="26.930079" y="55.237674" style="stroke: #000000; stroke-width: 0.8"/>
      </g>
     </g>
     <g id="text_12">
      <!-- $\mathdefault{6.4}$ -->
      <g transform="translate(7.2 58.696924) scale(0.1 -0.1)">
       <use xlink:href="#CMR17-36" transform="scale(0.996264)"/>
       <use xlink:href="#CMMI12-3a" transform="translate(45.690477 0) scale(0.996264)"/>
       <use xlink:href="#CMR17-34" transform="translate(72.787654 0) scale(0.996264)"/>
      </g>
     </g>
    </g>
    <g id="ytick_7">
     <g id="line2d_13">
      <g>
       <use xlink:href="#m3e836d8c1c" x="26.930079" y="17.012562" style="stroke: #000000; stroke-width: 0.8"/>
      </g>
     </g>
     <g id="text_13">
      <!-- $\mathdefault{6.6}$ -->
      <g transform="translate(7.2 20.471811) scale(0.1 -0.1)">
       <use xlink:href="#CMR17-36" transform="scale(0.996264)"/>
       <use xlink:href="#CMMI12-3a" transform="translate(45.690477 0) scale(0.996264)"/>
       <use xlink:href="#CMR17-36" transform="translate(72.787654 0) scale(0.996264)"/>
      </g>
     </g>
    </g>
   </g>
   <g id="line2d_14">
    <path d="M 43.162806 149.818787 
L 43.487461 156.212813 
L 43.812115 154.264916 
L 44.13677 156.122944 
L 44.461424 156.941402 
L 44.786079 164.670926 
L 45.435388 171.736789 
L 45.760043 173.583256 
L 46.084697 164.329567 
L 46.409352 158.488302 
L 46.734006 144.459074 
L 47.058661 155.092237 
L 47.70797 158.063387 
L 48.357279 160.221176 
L 48.681934 157.718374 
L 49.006588 163.246971 
L 49.331243 161.081256 
L 49.655897 154.890635 
L 49.980552 158.42848 
L 50.305206 160.161141 
L 50.629861 162.842388 
L 50.954515 162.495831 
L 51.928479 180.821509 
L 52.253134 171.000664 
L 52.902443 178.48783 
L 53.227097 178.998719 
L 53.551752 176.762849 
L 54.201061 186.599212 
L 54.525715 194.338526 
L 54.85037 184.216371 
L 55.175024 185.976579 
L 55.824334 179.166211 
L 56.148988 180.594797 
L 56.473643 191.575002 
L 56.798297 191.809783 
L 57.122952 199.623965 
L 57.447606 188.267482 
L 57.772261 189.576567 
L 58.096915 182.077592 
L 58.42157 179.566518 
L 58.746224 189.902367 
L 59.070879 184.389621 
L 59.395534 184.600882 
L 60.044843 194.05716 
L 60.369497 203.267566 
L 60.694152 204.30777 
L 61.018806 193.455023 
L 61.343461 199.48133 
L 61.668115 191.415677 
L 61.99277 187.69661 
L 62.317424 191.251722 
L 62.642079 192.630303 
L 62.966734 186.862249 
L 63.291388 183.387093 
L 63.616043 183.452131 
L 63.940697 179.799931 
L 64.265352 184.76066 
L 64.590006 196.633204 
L 64.914661 197.76024 
L 65.239315 195.326692 
L 65.56397 191.605551 
L 65.888624 194.610235 
L 66.213279 196.09515 
L 66.537934 191.385786 
L 66.862588 190.416967 
L 67.187243 184.936052 
L 67.511897 176.644632 
L 68.161206 182.46107 
L 68.485861 176.231056 
L 68.810515 179.848009 
L 69.13517 172.990156 
L 69.459824 168.605655 
L 69.784479 168.653531 
L 70.109134 177.918131 
L 70.758443 170.548725 
L 71.083097 171.104273 
L 71.407752 173.72056 
L 71.732406 165.927402 
L 72.057061 164.849312 
L 72.381715 166.781274 
L 72.70637 167.573047 
L 73.031024 164.496746 
L 73.355679 166.833289 
L 73.680334 170.825004 
L 74.004988 165.280511 
L 74.329643 166.221559 
L 74.654297 166.480915 
L 74.978952 166.141638 
L 75.303606 169.249619 
L 75.628261 176.995656 
L 75.952915 178.501999 
L 76.27757 181.364634 
L 76.602224 178.941602 
L 77.251534 171.293145 
L 77.576188 164.222082 
L 77.900843 163.434919 
L 78.550152 151.244806 
L 79.199461 163.306309 
L 79.524115 162.340804 
L 79.84877 159.411228 
L 80.173424 157.624552 
L 80.498079 156.970863 
L 80.822734 149.406613 
L 81.147388 159.107222 
L 81.472043 163.400642 
L 81.796697 171.720096 
L 82.121352 176.587325 
L 82.446006 179.065135 
L 82.770661 173.780847 
L 83.095315 172.182715 
L 83.41997 171.431257 
L 84.069279 187.029845 
L 84.393934 186.705483 
L 84.718588 185.973867 
L 85.043243 182.345441 
L 85.367897 182.495987 
L 85.692552 182.437291 
L 86.017206 185.258624 
L 86.341861 191.974298 
L 86.666515 193.750317 
L 86.99117 194.231651 
L 87.315824 201.738042 
L 87.640479 205.87585 
L 87.965134 200.955207 
L 88.289788 193.298553 
L 88.614443 190.144138 
L 88.939097 190.846465 
L 89.263752 177.465718 
L 89.588406 177.93034 
L 89.913061 179.176502 
L 90.56237 189.767367 
L 90.887024 191.190631 
L 91.211679 186.786896 
L 91.536334 193.860292 
L 91.860988 204.170484 
L 92.185643 204.724785 
L 92.510297 198.458513 
L 92.834952 195.389292 
L 93.159606 195.520245 
L 93.484261 192.854369 
L 93.808915 200.181676 
L 94.13357 203.164723 
L 94.458224 192.68498 
L 94.782879 195.319982 
L 95.107534 203.190725 
L 95.432188 202.886148 
L 96.081497 195.67242 
L 96.406152 204.072851 
L 97.055461 203.145948 
L 97.70477 213.479787 
L 98.029424 212.900501 
L 98.354079 214.660296 
L 98.678734 210.508034 
L 99.003388 208.688535 
L 99.328043 208.0447 
L 99.652697 203.456693 
L 99.977352 204.333133 
L 100.626661 208.755232 
L 100.951315 216.776062 
L 101.27597 209.510937 
L 101.600624 210.864307 
L 101.925279 208.864608 
L 102.249934 202.567459 
L 102.574588 207.83157 
L 102.899243 204.340942 
L 103.223897 208.646657 
L 103.548552 209.255988 
L 103.873206 212.492158 
L 104.197861 209.741159 
L 104.522515 209.226242 
L 104.84717 200.091667 
L 105.171824 199.855174 
L 105.496479 201.584618 
L 105.821134 191.083884 
L 106.145788 191.082653 
L 106.470443 186.627234 
L 106.795097 187.423332 
L 107.119752 192.205216 
L 107.444406 184.436437 
L 107.769061 184.321782 
L 108.093715 172.356724 
L 108.41837 174.747478 
L 109.392334 164.744201 
L 109.716988 169.436812 
L 110.041643 167.820038 
L 110.366297 168.804024 
L 110.690952 176.8678 
L 111.015606 174.249921 
L 111.340261 168.754358 
L 111.664915 175.184742 
L 111.98957 168.611544 
L 112.314224 166.283697 
L 112.638879 171.823736 
L 112.963534 171.523113 
L 113.288188 170.413617 
L 113.612843 168.18492 
L 113.937497 170.414404 
L 114.262152 166.074772 
L 114.586806 176.30596 
L 114.911461 172.616283 
L 115.236115 170.526322 
L 115.56077 170.222963 
L 115.885424 172.08753 
L 116.210079 170.481283 
L 116.534734 176.945176 
L 116.859388 174.874883 
L 117.184043 175.182062 
L 117.508697 184.641983 
L 117.833352 179.052686 
L 118.158006 188.735591 
L 118.482661 189.509047 
L 118.807315 186.399045 
L 119.13197 185.857503 
L 119.456624 186.341099 
L 119.781279 182.562157 
L 120.105934 182.184022 
L 120.430588 182.643519 
L 121.079897 178.84804 
L 121.404552 182.45169 
L 121.729206 183.050933 
L 122.053861 179.147278 
L 122.378515 182.510598 
L 122.70317 180.999132 
L 123.027824 178.761941 
L 123.352479 173.763051 
L 123.677134 170.697945 
L 124.001788 173.841163 
L 124.326443 170.285181 
L 124.651097 173.058162 
L 124.975752 178.103729 
L 125.300406 180.214505 
L 125.625061 180.396733 
L 125.949715 182.392089 
L 126.27437 183.41448 
L 126.599024 181.481089 
L 126.923679 176.754789 
L 127.248334 177.312232 
L 127.572988 173.65831 
L 127.897643 174.04529 
L 128.222297 165.963886 
L 128.546952 165.504086 
L 128.871606 161.319859 
L 129.196261 162.473772 
L 129.520915 160.479977 
L 129.84557 159.860982 
L 130.170224 166.771224 
L 130.494879 166.953738 
L 130.819534 170.899072 
L 131.144188 178.824166 
L 131.468843 177.559018 
L 131.793497 178.932039 
L 132.118152 178.173174 
L 132.442806 171.721802 
L 132.767461 173.408815 
L 133.092115 166.667827 
L 133.741424 177.322403 
L 134.066079 172.450794 
L 134.390734 163.703436 
L 134.715388 162.683335 
L 135.040043 168.589023 
L 135.364697 165.031032 
L 135.689352 170.955858 
L 136.663315 181.353415 
L 136.98797 177.569151 
L 137.312624 179.784973 
L 137.961934 164.756846 
L 138.286588 166.851592 
L 138.611243 164.439744 
L 138.935897 165.050124 
L 139.260552 164.593579 
L 139.585206 166.436123 
L 139.909861 161.452568 
L 140.234515 161.380055 
L 140.55917 161.551504 
L 140.883824 163.266181 
L 141.208479 163.936719 
L 141.533134 162.840164 
L 141.857788 164.224268 
L 142.182443 160.292006 
L 142.507097 166.011225 
L 142.831752 166.959843 
L 143.156406 168.317926 
L 143.481061 168.114215 
L 143.805715 163.387844 
L 144.455024 159.123417 
L 144.779679 159.545318 
L 145.104334 155.511271 
L 145.428988 153.095357 
L 145.753643 155.311041 
L 146.402952 145.651049 
L 146.727606 149.007901 
L 147.052261 142.60843 
L 147.376915 141.913882 
L 147.70157 142.99501 
L 148.026224 136.770316 
L 148.350879 145.115897 
L 148.675534 140.99286 
L 149.000188 141.448041 
L 149.324843 139.091173 
L 149.649497 147.766913 
L 149.974152 145.424485 
L 150.298806 144.874779 
L 150.623461 149.328525 
L 150.948115 155.966862 
L 151.27277 157.838749 
L 151.597424 157.488749 
L 151.922079 156.390576 
L 152.246734 146.734164 
L 152.571388 157.560122 
L 152.896043 156.255482 
L 153.220697 149.342106 
L 153.545352 151.155767 
L 153.870006 143.82871 
L 154.194661 149.127627 
L 154.519315 143.956121 
L 154.84397 141.128221 
L 155.168624 145.376402 
L 155.493279 136.879881 
L 155.817934 138.542282 
L 156.142588 137.141333 
L 156.467243 134.034829 
L 156.791897 128.170629 
L 157.116552 136.856662 
L 157.441206 137.526625 
L 157.765861 139.881527 
L 158.090515 137.512961 
L 158.41517 137.221263 
L 158.739824 139.252794 
L 159.064479 128.392813 
L 159.389134 130.929907 
L 159.713788 128.832537 
L 160.038443 128.775193 
L 160.363097 130.221983 
L 160.687752 124.077747 
L 161.012406 113.445703 
L 161.337061 110.906897 
L 161.661715 116.387112 
L 161.98637 110.469686 
L 162.311024 110.626636 
L 162.635679 115.882783 
L 162.960334 112.179999 
L 163.284988 115.881216 
L 163.609643 109.713829 
L 163.934297 99.985044 
L 164.258952 100.947774 
L 164.583606 96.988945 
L 164.908261 98.107856 
L 165.232915 97.993977 
L 165.55757 106.656671 
L 165.882224 98.377838 
L 166.206879 93.544237 
L 166.856188 105.30669 
L 167.505497 97.826815 
L 167.830152 100.359745 
L 168.154806 105.117814 
L 168.479461 112.04877 
L 168.804115 113.811811 
L 169.12877 110.768732 
L 169.453424 115.402893 
L 170.102734 110.081932 
L 170.427388 108.089944 
L 170.752043 98.810556 
L 171.076697 93.808972 
L 171.401352 94.653699 
L 171.726006 94.975718 
L 172.050661 97.052295 
L 172.375315 103.678107 
L 172.69997 104.590283 
L 173.024624 98.875032 
L 173.349279 100.038228 
L 173.673934 102.020845 
L 173.998588 98.770857 
L 174.323243 94.305838 
L 174.647897 91.735568 
L 174.972552 93.023371 
L 175.297206 88.156451 
L 175.621861 88.05103 
L 175.946515 87.579246 
L 176.27117 91.771374 
L 177.245134 108.347185 
L 177.569788 105.968078 
L 177.894443 96.160761 
L 178.219097 100.204508 
L 178.543752 102.479852 
L 178.868406 97.653194 
L 179.193061 98.636734 
L 179.517715 104.320995 
L 179.84237 103.532011 
L 180.167024 103.730877 
L 180.491679 103.33067 
L 180.816334 104.521312 
L 181.465643 113.444534 
L 181.790297 110.296839 
L 182.114952 109.72956 
L 182.439606 107.346606 
L 182.764261 108.975731 
L 183.088915 112.81941 
L 183.41357 109.975188 
L 183.738224 109.52983 
L 184.387534 105.040903 
L 184.712188 105.848952 
L 185.036843 101.855272 
L 185.361497 101.792869 
L 185.686152 101.960835 
L 186.010806 102.285173 
L 186.660115 93.237477 
L 186.98477 101.519659 
L 187.309424 102.277316 
L 187.634079 106.892676 
L 187.958734 91.721029 
L 188.283388 94.012163 
L 188.608043 97.714318 
L 188.932697 97.015977 
L 189.257352 98.724774 
L 189.582006 97.422377 
L 189.906661 103.006847 
L 190.231315 105.393624 
L 190.55597 105.241226 
L 190.880624 106.271473 
L 191.205279 97.503866 
L 191.529934 100.108605 
L 192.179243 95.261645 
L 192.503897 89.016181 
L 193.153206 95.507103 
L 193.802515 97.952595 
L 194.12717 101.983118 
L 194.776479 99.834184 
L 195.101134 97.950775 
L 195.425788 92.823026 
L 195.750443 93.591075 
L 196.075097 93.829899 
L 196.399752 98.216595 
L 196.724406 105.203088 
L 197.049061 102.8921 
L 197.373715 105.797287 
L 197.69837 101.695409 
L 198.672334 103.906962 
L 198.996988 100.508802 
L 199.321643 100.294467 
L 199.970952 103.788675 
L 200.295606 109.559821 
L 200.620261 108.368545 
L 200.944915 108.009592 
L 201.26957 101.761606 
L 201.594224 106.335509 
L 201.918879 114.25438 
L 202.243534 110.627457 
L 202.568188 115.589983 
L 202.892843 112.462977 
L 203.217497 107.373248 
L 203.542152 111.361899 
L 203.866806 111.657974 
L 204.191461 112.70388 
L 204.516115 122.670592 
L 204.84077 125.906768 
L 205.165424 125.094545 
L 205.490079 124.927683 
L 205.814734 124.632557 
L 206.139388 133.54851 
L 206.464043 126.354003 
L 206.788697 135.034579 
L 207.113352 139.978086 
L 207.438006 139.641478 
L 207.762661 137.377812 
L 208.087315 143.333993 
L 208.736624 133.746726 
L 209.061279 130.567818 
L 209.385934 129.836355 
L 209.710588 129.50308 
L 210.035243 126.570809 
L 210.359897 119.836314 
L 210.684552 119.310892 
L 211.009206 121.391103 
L 211.333861 117.971402 
L 211.658515 112.952194 
L 211.98317 112.549731 
L 212.307824 111.260646 
L 212.632479 116.093728 
L 212.957134 114.869571 
L 213.281788 115.402831 
L 213.606443 116.592409 
L 213.931097 120.687155 
L 214.255752 113.930209 
L 214.580406 110.547056 
L 214.905061 111.828381 
L 215.229715 107.233445 
L 215.55437 117.911578 
L 215.879024 117.408693 
L 216.203679 120.786856 
L 216.528334 121.651731 
L 216.852988 125.592288 
L 217.177643 121.4086 
L 217.502297 121.070027 
L 217.826952 125.782859 
L 218.151606 121.699946 
L 218.476261 121.781477 
L 218.800915 113.172307 
L 219.450224 121.655145 
L 220.099534 112.039921 
L 220.424188 109.068438 
L 220.748843 111.010708 
L 221.073497 109.467771 
L 221.398152 115.406048 
L 221.722806 109.945941 
L 222.047461 111.019145 
L 222.372115 110.255727 
L 223.021424 109.54834 
L 223.346079 107.754085 
L 223.670734 109.69707 
L 223.995388 109.476108 
L 224.320043 110.4449 
L 224.644697 123.108038 
L 224.969352 122.836821 
L 225.294006 119.972498 
L 225.618661 121.106106 
L 225.943315 122.868959 
L 226.26797 117.413527 
L 226.592624 116.842621 
L 226.917279 113.273897 
L 227.241934 113.657093 
L 227.566588 114.717771 
L 227.891243 124.841547 
L 228.215897 118.870261 
L 228.540552 115.025073 
L 228.865206 117.235948 
L 229.189861 115.653024 
L 229.514515 113.268638 
L 229.83917 124.719 
L 230.163824 120.736438 
L 230.813134 109.735516 
L 231.137788 116.721851 
L 231.462443 115.069071 
L 231.787097 122.005613 
L 232.111752 113.997263 
L 232.436406 119.588702 
L 232.761061 114.322115 
L 233.085715 112.060722 
L 233.41037 112.362367 
L 233.735024 115.848794 
L 234.059679 117.333534 
L 234.384334 114.125909 
L 234.708988 107.014065 
L 235.033643 108.921611 
L 235.358297 100.633713 
L 235.682952 97.129377 
L 236.332261 99.356501 
L 236.656915 99.8135 
L 236.98157 99.988007 
L 237.306224 103.806331 
L 237.630879 109.163402 
L 237.955534 102.869438 
L 238.280188 102.366675 
L 238.929497 98.645646 
L 239.578806 97.655587 
L 239.903461 93.770292 
L 240.228115 85.007883 
L 240.55277 85.36247 
L 240.877424 77.961328 
L 241.526734 80.226855 
L 241.851388 83.834198 
L 242.176043 84.288686 
L 242.500697 86.43455 
L 242.825352 81.455794 
L 243.150006 82.513709 
L 243.474661 81.285722 
L 243.799315 81.726701 
L 244.12397 83.266436 
L 244.448624 78.336006 
L 244.773279 82.325723 
L 245.097934 79.200052 
L 245.422588 77.930677 
L 246.071897 71.339683 
L 246.396552 73.395116 
L 246.721206 72.512926 
L 247.045861 77.334458 
L 247.370515 78.798948 
L 247.69517 77.327773 
L 248.019824 84.102787 
L 248.344479 79.397072 
L 248.669134 83.528335 
L 248.993788 82.826692 
L 249.318443 74.141406 
L 249.643097 80.095555 
L 249.967752 80.478318 
L 250.292406 82.873295 
L 250.617061 93.196623 
L 250.941715 90.637418 
L 251.26637 85.092031 
L 251.915679 66.351329 
L 252.240334 72.087825 
L 252.564988 74.935234 
L 252.889643 66.108278 
L 253.214297 72.985402 
L 253.538952 74.682286 
L 253.863606 64.954582 
L 254.188261 69.593149 
L 254.512915 67.609097 
L 254.83757 66.33757 
L 255.162224 69.190415 
L 255.486879 64.660336 
L 255.811534 63.621132 
L 256.136188 67.220073 
L 256.460843 73.900731 
L 256.785497 75.167284 
L 257.110152 82.640201 
L 257.434806 80.378959 
L 257.759461 82.483246 
L 258.084115 85.398647 
L 258.40877 92.626201 
L 258.733424 96.460896 
L 259.058079 97.973988 
L 259.707388 92.490364 
L 260.032043 92.525929 
L 260.356697 92.754886 
L 260.681352 88.829066 
L 261.006006 91.302559 
L 261.330661 100.494208 
L 261.655315 101.160329 
L 262.629279 107.104559 
L 263.278588 102.589489 
L 263.603243 103.415451 
L 263.927897 99.241151 
L 264.252552 101.437915 
L 264.577206 98.689792 
L 264.901861 98.812008 
L 265.226515 91.182355 
L 265.55117 89.139767 
L 266.200479 83.810182 
L 266.525134 82.876256 
L 266.849788 77.977122 
L 267.174443 83.66152 
L 267.499097 86.983189 
L 267.823752 82.670677 
L 268.148406 87.830811 
L 268.473061 84.531545 
L 268.797715 87.754162 
L 269.12237 83.296824 
L 269.447024 88.314136 
L 270.096334 92.002567 
L 270.420988 89.663013 
L 270.745643 86.126771 
L 271.070297 86.316623 
L 271.394952 87.526584 
L 271.719606 79.533358 
L 272.044261 77.024798 
L 272.368915 75.739564 
L 272.69357 77.744435 
L 273.018224 76.970285 
L 273.667534 68.786803 
L 273.992188 72.215558 
L 274.316843 69.807094 
L 274.641497 71.611514 
L 274.966152 67.407779 
L 275.290806 66.24257 
L 275.615461 71.45799 
L 275.940115 64.712248 
L 276.26477 64.870348 
L 276.914079 70.021791 
L 277.238734 69.896603 
L 277.563388 71.145056 
L 277.888043 70.242102 
L 278.212697 71.126636 
L 278.537352 70.909571 
L 278.862006 69.453133 
L 279.186661 72.60819 
L 279.511315 70.934429 
L 280.160624 64.705314 
L 280.485279 68.45595 
L 280.809934 68.674929 
L 281.134588 69.98239 
L 281.459243 72.305681 
L 281.783897 66.108651 
L 282.108552 68.996827 
L 282.433206 70.231178 
L 282.757861 68.825433 
L 283.082515 66.621281 
L 283.40717 71.905762 
L 284.056479 65.802197 
L 284.381134 60.433801 
L 284.705788 63.040047 
L 285.030443 63.043489 
L 285.679752 60.560709 
L 286.329061 62.377919 
L 286.653715 61.958375 
L 286.97837 63.514898 
L 287.303024 63.346549 
L 287.627679 62.506565 
L 287.952334 66.768179 
L 288.276988 60.59838 
L 288.601643 51.186316 
L 288.926297 51.693067 
L 289.250952 54.840987 
L 289.575606 56.599068 
L 289.900261 57.110626 
L 290.224915 62.094301 
L 290.874224 56.191986 
L 291.198879 56.300224 
L 291.523534 53.814138 
L 291.848188 56.468487 
L 292.172843 55.1904 
L 292.822152 51.799122 
L 293.146806 60.568096 
L 293.471461 61.657398 
L 293.796115 64.676203 
L 294.12077 60.032644 
L 294.445424 60.852518 
L 294.770079 65.272255 
L 295.094734 63.763487 
L 295.419388 60.024716 
L 295.744043 57.988987 
L 296.068697 61.283278 
L 296.393352 60.699702 
L 296.718006 65.271944 
L 297.042661 66.995117 
L 297.367315 61.341119 
L 297.69197 68.545984 
L 298.016624 71.219322 
L 298.341279 66.562188 
L 298.665934 64.317928 
L 298.990588 70.412571 
L 299.315243 72.277005 
L 299.639897 69.124046 
L 299.964552 70.772574 
L 300.289206 66.76365 
L 300.613861 68.361879 
L 300.938515 70.648275 
L 301.26317 67.798955 
L 301.587824 67.818206 
L 301.912479 66.907356 
L 302.237134 64.066942 
L 302.561788 72.080606 
L 303.211097 64.4222 
L 303.535752 60.828614 
L 303.860406 63.587669 
L 304.185061 63.153898 
L 304.509715 65.56426 
L 304.83437 58.616134 
L 305.159024 55.55087 
L 305.483679 53.815498 
L 305.808334 57.717987 
L 306.132988 53.53942 
L 306.457643 57.992539 
L 306.782297 58.18585 
L 307.106952 56.85744 
L 307.431606 53.60031 
L 307.756261 56.188874 
L 308.080915 57.079869 
L 308.40557 56.730957 
L 308.730224 55.773446 
L 309.704188 41.246576 
L 310.028843 42.669421 
L 310.353497 40.089415 
L 310.678152 40.163772 
L 311.002806 36.240012 
L 311.327461 39.188021 
L 311.652115 44.786105 
L 311.97677 41.93555 
L 312.301424 49.799115 
L 312.626079 49.828329 
L 312.950734 54.841803 
L 313.275388 45.936378 
L 313.600043 51.412078 
L 313.924697 50.501337 
L 314.249352 51.305059 
L 314.574006 54.326384 
L 315.872624 42.223182 
L 316.197279 43.02249 
L 316.521934 46.696205 
L 316.846588 40.536933 
L 317.171243 47.068488 
L 317.495897 39.9296 
L 317.820552 35.599394 
L 318.145206 40.958653 
L 318.469861 40.773057 
L 318.794515 42.046007 
L 319.11917 41.038175 
L 319.443824 42.206062 
L 319.768479 33.871096 
L 320.093134 32.311528 
L 320.742443 39.918543 
L 321.067097 37.151109 
L 321.391752 35.632334 
L 321.716406 36.473328 
L 322.041061 41.92876 
L 322.365715 38.4698 
L 322.69037 40.181627 
L 323.015024 47.338343 
L 323.339679 48.385852 
L 323.664334 44.101604 
L 323.988988 42.851732 
L 324.313643 40.96713 
L 324.638297 37.928254 
L 324.962952 39.777999 
L 325.287606 36.299193 
L 325.612261 35.488794 
L 325.936915 40.606569 
L 326.586224 36.113781 
L 326.910879 40.848472 
L 327.560188 43.970077 
L 327.884843 40.604897 
L 328.209497 40.88079 
L 328.534152 42.404949 
L 328.858806 37.096165 
L 329.183461 43.034768 
L 329.508115 43.206656 
L 329.83277 42.903847 
L 330.482079 50.365124 
L 330.806734 46.550731 
L 331.131388 45.601495 
L 331.456043 50.3775 
L 331.780697 48.687349 
L 332.105352 49.232611 
L 332.754661 40.016604 
L 333.40397 43.838913 
L 333.728624 43.664598 
L 334.053279 47.060548 
L 334.377934 47.756079 
L 334.702588 47.992014 
L 335.027243 55.027554 
L 335.351897 56.77805 
L 335.676552 54.789064 
L 336.001206 55.220129 
L 336.325861 51.760041 
L 336.650515 53.133052 
L 336.97517 52.583985 
L 337.299824 56.345113 
L 337.624479 56.506423 
L 337.949134 59.794478 
L 338.273788 51.835488 
L 338.598443 48.153075 
L 338.923097 49.301581 
L 339.247752 52.436663 
L 339.572406 52.593388 
L 339.897061 51.906624 
L 340.54637 43.159986 
L 340.871024 40.641167 
L 341.195679 40.859989 
L 341.520334 41.506046 
L 341.844988 41.248172 
L 342.169643 45.751779 
L 342.494297 46.851685 
L 342.818952 37.973315 
L 343.143606 38.099673 
L 343.468261 38.833666 
L 343.792915 48.313562 
L 344.442224 40.006793 
L 345.091534 43.402584 
L 345.416188 41.223653 
L 345.740843 41.391741 
L 346.065497 46.183264 
L 346.390152 47.639583 
L 346.714806 51.150772 
L 347.039461 44.558488 
L 347.68877 52.273481 
L 348.013424 55.400898 
L 348.338079 56.020635 
L 348.987388 53.640348 
L 349.312043 53.956704 
L 349.636697 58.453363 
L 349.961352 60.779952 
L 350.286006 57.85746 
L 350.610661 56.534777 
L 350.935315 57.331144 
L 351.25997 55.20298 
L 351.584624 51.816907 
L 351.909279 53.178582 
L 352.233934 47.382481 
L 352.558588 51.961136 
L 352.883243 50.479816 
L 353.207897 45.515213 
L 353.532552 43.823909 
L 354.181861 53.723448 
L 354.506515 57.002596 
L 354.83117 56.419946 
L 355.155824 46.918734 
L 355.480479 49.740669 
L 355.805134 50.070454 
L 356.129788 43.535983 
L 356.454443 46.145465 
L 356.779097 43.291123 
L 357.103752 48.548543 
L 357.428406 45.508006 
L 357.753061 50.081609 
L 358.077715 44.219276 
L 358.40237 43.566009 
L 358.727024 42.054384 
L 359.051679 32.611265 
L 359.376334 30.863774 
L 359.700988 34.880968 
L 360.025643 32.193198 
L 360.350297 33.890565 
L 360.674952 27.982348 
L 360.999606 29.92996 
L 361.97357 43.007963 
L 362.298224 37.605673 
L 362.622879 39.703829 
L 362.947534 31.851448 
L 363.272188 34.377319 
L 364.246152 28.309664 
L 364.570806 28.380423 
L 364.895461 30.724883 
L 365.220115 31.112225 
L 365.54477 30.584183 
L 365.869424 30.336244 
L 366.194079 24.508163 
L 366.843388 21.197792 
L 367.168043 20.653839 
L 367.492697 19.296 
L 367.817352 21.256334 
L 367.817352 21.256334 
" clip-path="url(#pa55ae64d2c)" style="fill: none; stroke: #e46e56; stroke-width: 1.5; stroke-linecap: square"/>
   </g>
   <g id="line2d_15">
    <path d="M 43.162806 180.616339 
L 43.487461 175.099187 
L 43.812115 165.591419 
L 44.13677 164.626676 
L 44.461424 158.454045 
L 44.786079 158.15152 
L 45.110734 149.137305 
L 45.435388 152.068336 
L 45.760043 153.28588 
L 46.084697 148.379583 
L 46.409352 154.746799 
L 46.734006 147.266439 
L 47.058661 152.875902 
L 47.383315 151.038374 
L 47.70797 154.336005 
L 48.032624 154.845267 
L 48.357279 159.420008 
L 48.681934 161.036768 
L 49.006588 167.253854 
L 49.980552 156.670156 
L 50.629861 167.430994 
L 50.954515 174.307099 
L 51.27917 170.60454 
L 51.603824 182.693016 
L 51.928479 180.789939 
L 52.253134 184.351784 
L 52.577788 185.605844 
L 52.902443 193.237507 
L 53.227097 185.348753 
L 53.551752 180.486911 
L 53.876406 173.696431 
L 54.201061 172.838515 
L 54.525715 180.316755 
L 55.175024 178.216032 
L 55.499679 190.033961 
L 55.824334 195.830798 
L 56.148988 198.268302 
L 56.798297 190.40289 
L 57.122952 191.311584 
L 57.447606 184.465281 
L 57.772261 185.933523 
L 58.096915 182.402535 
L 58.42157 175.46393 
L 58.746224 182.463705 
L 59.070879 184.564571 
L 59.395534 181.910122 
L 59.720188 183.35508 
L 60.044843 177.194606 
L 60.369497 174.508536 
L 60.694152 172.924769 
L 61.018806 171.900419 
L 61.343461 184.194933 
L 61.668115 187.716962 
L 61.99277 182.041541 
L 62.317424 190.558096 
L 62.642079 194.73066 
L 63.291388 191.860204 
L 63.616043 192.666787 
L 63.940697 193.969474 
L 64.265352 188.369076 
L 64.590006 199.255635 
L 64.914661 205.441383 
L 65.239315 205.631597 
L 65.56397 199.367002 
L 66.213279 193.497456 
L 66.537934 196.164686 
L 66.862588 193.592784 
L 67.187243 194.230287 
L 67.511897 193.449042 
L 67.836552 196.096378 
L 68.161206 189.114588 
L 68.485861 188.208172 
L 68.810515 184.671318 
L 69.13517 186.971443 
L 69.459824 187.314993 
L 70.109134 192.867157 
L 70.433788 190.825075 
L 70.758443 183.627189 
L 71.083097 184.665463 
L 71.407752 184.720665 
L 72.381715 208.553241 
L 72.70637 215.114364 
L 73.031024 207.338141 
L 73.355679 212.541669 
L 73.680334 212.065048 
L 74.329643 199.659421 
L 74.978952 215.231741 
L 75.303606 213.003425 
L 75.628261 207.213889 
L 75.952915 208.841324 
L 76.27757 207.000494 
L 76.602224 190.948983 
L 76.926879 189.676537 
L 77.251534 187.380726 
L 77.900843 190.525587 
L 78.225497 199.993811 
L 78.550152 194.203492 
L 78.874806 191.172591 
L 79.199461 189.626811 
L 79.524115 196.166597 
L 79.84877 196.847275 
L 80.173424 186.193945 
L 80.498079 179.392851 
L 81.147388 195.74535 
L 81.472043 197.813738 
L 81.796697 193.377643 
L 82.121352 193.219166 
L 82.446006 205.229706 
L 82.770661 204.900563 
L 83.095315 209.086362 
L 83.41997 215.400951 
L 83.744624 204.68986 
L 84.069279 208.677392 
L 84.393934 203.158527 
L 84.718588 207.994932 
L 85.043243 205.597474 
L 85.692552 198.472719 
L 86.017206 198.841252 
L 86.341861 209.473012 
L 86.666515 211.478493 
L 86.99117 202.342145 
L 87.315824 208.641817 
L 87.640479 206.475768 
L 87.965134 195.637129 
L 88.289788 196.741798 
L 88.614443 197.440151 
L 88.939097 204.436024 
L 89.263752 201.113727 
L 89.588406 199.345216 
L 89.913061 189.732924 
L 90.237715 196.721326 
L 90.56237 198.979947 
L 90.887024 199.488642 
L 91.211679 197.063581 
L 91.536334 196.479635 
L 91.860988 204.802482 
L 92.185643 197.419305 
L 92.510297 194.540685 
L 92.834952 187.187571 
L 93.159606 196.374782 
L 93.484261 185.84457 
L 93.808915 188.073948 
L 94.13357 180.013916 
L 94.458224 187.532392 
L 94.782879 184.626778 
L 95.756843 197.685194 
L 96.406152 189.059869 
L 96.730806 194.20514 
L 97.055461 193.66937 
L 97.380115 201.268645 
L 97.70477 192.967207 
L 98.029424 196.851896 
L 98.678734 191.946532 
L 99.003388 180.796708 
L 99.328043 186.99739 
L 99.652697 175.752961 
L 99.977352 182.367001 
L 100.302006 184.171837 
L 100.626661 184.587036 
L 100.951315 180.834773 
L 101.27597 182.371727 
L 101.600624 179.567806 
L 101.925279 171.332835 
L 102.249934 180.19598 
L 102.574588 184.862419 
L 102.899243 192.826001 
L 103.223897 189.932773 
L 103.548552 188.647162 
L 103.873206 185.050136 
L 104.197861 185.771953 
L 104.522515 181.435282 
L 104.84717 173.126473 
L 105.171824 174.692997 
L 105.496479 169.106744 
L 105.821134 177.494931 
L 106.145788 179.15081 
L 106.470443 183.474655 
L 106.795097 178.017419 
L 107.119752 176.861279 
L 107.444406 164.168903 
L 107.769061 172.374689 
L 108.093715 170.905098 
L 108.41837 168.549866 
L 108.743024 162.380824 
L 109.067679 162.953148 
L 109.392334 165.723039 
L 109.716988 171.693969 
L 110.041643 168.405844 
L 110.366297 158.329 
L 110.690952 170.754541 
L 111.015606 177.401063 
L 111.664915 168.166282 
L 112.314224 173.192206 
L 112.963534 189.283711 
L 113.288188 189.634797 
L 113.612843 185.499315 
L 113.937497 189.78302 
L 114.262152 187.664274 
L 114.586806 190.879857 
L 114.911461 191.545799 
L 115.236115 203.517276 
L 115.56077 192.267588 
L 115.885424 191.14602 
L 116.210079 184.026353 
L 116.859388 204.846898 
L 117.184043 202.563375 
L 117.833352 195.557807 
L 118.158006 204.423517 
L 118.482661 197.470114 
L 118.807315 201.168304 
L 119.13197 186.46043 
L 119.456624 185.847285 
L 119.781279 188.166917 
L 120.105934 196.976778 
L 120.430588 191.321441 
L 120.755243 190.475141 
L 121.079897 194.168367 
L 121.404552 184.792701 
L 121.729206 181.226496 
L 122.053861 181.529989 
L 122.378515 185.522406 
L 122.70317 197.602548 
L 123.027824 196.743666 
L 123.352479 194.13263 
L 123.677134 193.589411 
L 124.001788 199.023143 
L 124.326443 192.723817 
L 124.651097 181.807456 
L 124.975752 183.208951 
L 125.300406 175.363277 
L 125.625061 172.392484 
L 125.949715 167.972773 
L 126.27437 180.635432 
L 126.599024 185.076982 
L 126.923679 184.337101 
L 127.248334 182.09816 
L 127.572988 178.621065 
L 127.897643 171.673361 
L 128.222297 174.40831 
L 128.546952 171.651939 
L 128.871606 176.116378 
L 129.196261 176.195174 
L 129.520915 187.221013 
L 129.84557 182.405505 
L 130.170224 179.824987 
L 130.494879 182.123116 
L 130.819534 183.432406 
L 131.144188 188.23909 
L 131.468843 187.158023 
L 131.793497 177.515734 
L 132.118152 173.684657 
L 132.442806 172.956579 
L 132.767461 173.183789 
L 133.092115 171.664563 
L 133.41677 173.074981 
L 133.741424 182.941889 
L 134.066079 184.756368 
L 134.390734 182.190233 
L 134.715388 183.780547 
L 135.364697 199.590552 
L 136.014006 191.921504 
L 136.338661 196.009408 
L 136.663315 205.165604 
L 136.98797 202.950099 
L 137.312624 202.04252 
L 137.637279 203.295408 
L 137.961934 198.883836 
L 138.286588 207.49086 
L 139.260552 177.797067 
L 139.585206 178.473235 
L 139.909861 176.095117 
L 140.234515 171.58291 
L 140.55917 183.81953 
L 140.883824 185.616167 
L 141.208479 185.952898 
L 141.533134 186.852172 
L 141.857788 191.989978 
L 142.182443 177.269842 
L 142.507097 187.38641 
L 142.831752 188.612515 
L 143.156406 185.685203 
L 143.481061 178.172914 
L 143.805715 182.048159 
L 144.13037 183.207429 
L 144.455024 178.594754 
L 144.779679 177.668991 
L 145.104334 172.600281 
L 145.428988 172.899607 
L 145.753643 169.960378 
L 146.078297 170.589929 
L 146.402952 167.773734 
L 147.052261 175.261901 
L 147.70157 182.795889 
L 148.026224 173.379251 
L 148.350879 171.851847 
L 148.675534 174.1114 
L 149.000188 168.693139 
L 149.324843 173.501977 
L 149.649497 189.88336 
L 149.974152 187.932816 
L 150.298806 183.687991 
L 150.623461 182.797971 
L 150.948115 182.569132 
L 151.27277 188.727786 
L 151.597424 184.309324 
L 151.922079 188.898714 
L 152.246734 196.658753 
L 152.571388 194.102415 
L 153.220697 195.755107 
L 153.545352 208.811993 
L 153.870006 205.688202 
L 154.194661 196.803322 
L 154.84397 201.331104 
L 155.168624 212.394041 
L 155.493279 218.874424 
L 155.817934 218.100159 
L 156.142588 215.52716 
L 156.467243 224.100054 
L 156.791897 222.387697 
L 157.116552 217.141015 
L 157.441206 216.110792 
L 157.765861 212.133614 
L 158.090515 210.46243 
L 158.41517 206.814309 
L 158.739824 194.091777 
L 159.064479 191.064778 
L 159.389134 196.612812 
L 159.713788 199.645459 
L 160.038443 186.738076 
L 160.363097 180.392785 
L 161.012406 177.538999 
L 161.337061 188.365146 
L 161.661715 193.441703 
L 161.98637 185.546184 
L 162.311024 192.924799 
L 162.635679 184.752157 
L 163.284988 189.145805 
L 163.609643 200.983006 
L 163.934297 201.517073 
L 164.258952 206.619126 
L 164.583606 216.127928 
L 164.908261 219.634851 
L 165.232915 219.747504 
L 165.882224 216.066823 
L 166.206879 217.183531 
L 166.856188 216.001896 
L 167.180843 213.676581 
L 167.505497 223.50488 
L 167.830152 224.717796 
L 168.154806 216.230416 
L 168.479461 215.672344 
L 168.804115 209.389226 
L 169.12877 214.160268 
L 169.453424 215.478122 
L 169.778079 221.321524 
L 170.102734 219.376415 
L 170.427388 215.107864 
L 170.752043 217.030698 
L 171.076697 216.903359 
L 171.401352 217.324663 
L 172.050661 224.076762 
L 172.69997 215.476399 
L 173.024624 212.519092 
L 173.349279 212.93881 
L 173.673934 210.41174 
L 173.998588 211.588019 
L 174.647897 225.533397 
L 174.972552 230.714269 
L 175.297206 220.525977 
L 175.621861 219.596952 
L 175.946515 226.047628 
L 176.27117 224.118384 
L 176.595824 210.056727 
L 176.920479 211.201391 
L 177.245134 218.922973 
L 177.569788 220.448506 
L 177.894443 212.770067 
L 178.219097 216.137082 
L 178.543752 213.33531 
L 178.868406 215.203332 
L 179.193061 218.897874 
L 179.517715 212.255569 
L 179.84237 212.640701 
L 180.167024 211.980123 
L 180.491679 216.806993 
L 180.816334 213.512446 
L 181.140988 220.077574 
L 181.465643 213.142875 
L 181.790297 215.187658 
L 182.114952 210.842609 
L 182.439606 202.849969 
L 183.088915 195.528259 
L 183.738224 181.211726 
L 184.062879 174.842707 
L 184.387534 183.9356 
L 184.712188 187.969607 
L 185.036843 188.608473 
L 185.361497 189.954684 
L 185.686152 189.809308 
L 186.335461 185.880028 
L 186.660115 181.303214 
L 186.98477 180.665511 
L 187.309424 174.372418 
L 187.634079 180.196797 
L 187.958734 164.989421 
L 188.283388 164.778507 
L 188.608043 158.432093 
L 188.932697 163.118692 
L 189.257352 162.221896 
L 189.582006 158.877578 
L 189.906661 166.224998 
L 190.231315 160.865944 
L 190.55597 166.148682 
L 190.880624 157.889499 
L 191.529934 166.446305 
L 191.854588 166.564852 
L 192.179243 160.886523 
L 192.828552 156.377241 
L 193.477861 162.525104 
L 193.802515 160.50915 
L 194.12717 160.835641 
L 194.451824 157.833962 
L 194.776479 156.240206 
L 195.101134 161.953363 
L 195.425788 161.664728 
L 195.750443 166.054264 
L 196.075097 164.634751 
L 196.399752 166.525446 
L 196.724406 174.655779 
L 197.049061 174.392336 
L 197.373715 182.902724 
L 197.69837 181.052575 
L 198.023024 175.455273 
L 198.347679 183.553106 
L 198.672334 170.295514 
L 198.996988 165.546502 
L 199.321643 167.635261 
L 199.646297 165.920022 
L 199.970952 163.507992 
L 200.295606 163.394016 
L 200.620261 166.812829 
L 200.944915 174.351063 
L 201.26957 166.98084 
L 201.918879 175.557719 
L 202.243534 178.822975 
L 202.568188 178.487765 
L 202.892843 173.484661 
L 203.217497 175.905647 
L 203.542152 168.605487 
L 203.866806 176.070644 
L 204.191461 171.187715 
L 204.516115 163.522204 
L 204.84077 168.236052 
L 205.165424 154.111205 
L 205.490079 148.665192 
L 205.814734 148.258539 
L 206.139388 152.955286 
L 206.464043 149.671933 
L 206.788697 148.760187 
L 207.113352 152.430834 
L 207.438006 149.664186 
L 207.762661 157.027081 
L 208.087315 157.608436 
L 208.736624 164.672549 
L 209.061279 161.354634 
L 209.385934 161.871957 
L 209.710588 174.780093 
L 210.035243 177.970029 
L 210.359897 171.339565 
L 210.684552 184.323037 
L 211.009206 175.964844 
L 211.333861 184.228051 
L 211.658515 176.915497 
L 211.98317 175.054903 
L 212.307824 167.687927 
L 212.632479 178.163628 
L 212.957134 184.216762 
L 213.281788 187.867601 
L 213.606443 178.213981 
L 213.931097 180.424668 
L 214.255752 176.112799 
L 214.580406 175.921524 
L 214.905061 179.457296 
L 215.229715 181.154327 
L 215.55437 178.240069 
L 215.879024 186.442522 
L 216.203679 182.865414 
L 216.528334 188.726823 
L 216.852988 187.896215 
L 217.177643 180.294507 
L 217.502297 179.295997 
L 217.826952 181.297285 
L 218.151606 176.997563 
L 218.476261 175.670104 
L 218.800915 169.317235 
L 219.12557 165.769786 
L 219.774879 151.256821 
L 220.099534 150.239555 
L 220.424188 145.778708 
L 220.748843 147.865505 
L 221.073497 151.159457 
L 221.398152 140.83944 
L 221.722806 146.397949 
L 222.047461 144.945656 
L 222.372115 147.32462 
L 222.69677 142.552748 
L 223.346079 153.876429 
L 223.670734 146.124446 
L 223.995388 153.741908 
L 224.320043 154.150776 
L 224.644697 147.866944 
L 224.969352 159.524841 
L 225.294006 153.740441 
L 225.618661 167.544601 
L 225.943315 174.955089 
L 226.592624 171.178341 
L 226.917279 166.403454 
L 227.241934 175.142155 
L 227.566588 173.93131 
L 227.891243 174.318481 
L 228.215897 172.316331 
L 228.865206 184.428966 
L 229.189861 182.525864 
L 229.514515 179.072482 
L 229.83917 169.959713 
L 230.163824 175.042249 
L 230.488479 184.564983 
L 230.813134 185.404532 
L 231.137788 193.080114 
L 231.787097 187.387499 
L 232.111752 187.659138 
L 232.436406 185.509253 
L 232.761061 185.018107 
L 233.085715 186.90341 
L 233.41037 187.952272 
L 233.735024 187.349812 
L 234.059679 191.939053 
L 234.384334 188.746884 
L 234.708988 187.766 
L 235.033643 187.440503 
L 235.358297 190.021474 
L 235.682952 184.077884 
L 236.007606 193.986073 
L 236.332261 187.087462 
L 236.656915 186.3415 
L 236.98157 187.497053 
L 237.306224 191.141895 
L 237.630879 201.388412 
L 237.955534 192.244022 
L 238.280188 190.2117 
L 238.604843 191.342069 
L 238.929497 183.355255 
L 239.254152 183.843822 
L 239.578806 179.318949 
L 239.903461 178.864833 
L 240.228115 176.503385 
L 240.55277 179.106717 
L 241.202079 189.366507 
L 241.526734 189.738438 
L 241.851388 190.354072 
L 242.500697 208.524374 
L 242.825352 200.741683 
L 243.150006 201.263567 
L 243.474661 205.328983 
L 243.799315 207.595358 
L 244.12397 210.934689 
L 244.448624 212.355152 
L 244.773279 213.1941 
L 245.097934 206.787584 
L 245.422588 203.269799 
L 245.747243 202.28173 
L 246.071897 183.853043 
L 246.396552 192.75469 
L 246.721206 197.464453 
L 247.370515 196.184233 
L 248.019824 195.868122 
L 248.344479 196.339275 
L 248.669134 192.551478 
L 248.993788 207.183626 
L 249.318443 210.679091 
L 249.643097 223.004308 
L 249.967752 215.566307 
L 250.292406 214.217833 
L 250.617061 215.855957 
L 250.941715 214.99117 
L 251.26637 214.891215 
L 251.591024 215.549818 
L 251.915679 213.159399 
L 252.240334 211.780574 
L 252.564988 212.392706 
L 252.889643 204.154592 
L 253.214297 208.695634 
L 253.538952 210.993779 
L 253.863606 218.835153 
L 254.188261 216.852978 
L 254.512915 221.847088 
L 254.83757 216.563719 
L 255.162224 221.440499 
L 255.486879 229.589508 
L 255.811534 243.18084 
L 256.136188 227.772815 
L 256.460843 220.098248 
L 256.785497 216.627018 
L 257.110152 215.648172 
L 257.434806 220.203242 
L 257.759461 212.146775 
L 258.084115 221.402309 
L 258.40877 218.100756 
L 258.733424 221.230653 
L 259.058079 214.163675 
L 259.382734 211.397397 
L 259.707388 211.602617 
L 260.032043 212.386951 
L 260.356697 199.028543 
L 260.681352 206.979573 
L 261.006006 211.798334 
L 261.330661 222.702695 
L 261.655315 213.326681 
L 262.304624 226.560443 
L 262.629279 237.52966 
L 262.953934 235.805972 
L 263.278588 241.70997 
L 263.603243 238.725275 
L 263.927897 239.547363 
L 264.252552 235.157401 
L 264.577206 244.523213 
L 265.226515 228.144963 
L 265.55117 231.265791 
L 266.200479 226.299219 
L 266.849788 214.014821 
L 267.174443 220.462416 
L 267.499097 218.112146 
L 267.823752 216.71048 
L 268.148406 210.822551 
L 268.473061 210.555015 
L 268.797715 206.327818 
L 269.12237 213.800859 
L 269.447024 213.477682 
L 269.771679 211.184994 
L 270.096334 216.630373 
L 270.745643 210.097622 
L 271.070297 201.011849 
L 271.394952 199.052252 
L 271.719606 191.541843 
L 272.044261 197.265512 
L 272.368915 194.114762 
L 272.69357 196.935887 
L 273.018224 194.197828 
L 273.342879 194.869898 
L 273.667534 185.712532 
L 273.992188 191.863014 
L 274.316843 189.990839 
L 274.641497 180.311153 
L 274.966152 179.211639 
L 275.290806 174.871749 
L 275.615461 174.443018 
L 275.940115 182.206854 
L 276.26477 176.007166 
L 276.589424 176.498062 
L 276.914079 177.684023 
L 277.238734 181.332752 
L 277.563388 187.456464 
L 277.888043 183.363299 
L 278.212697 193.649091 
L 278.537352 187.253864 
L 278.862006 191.369701 
L 279.186661 187.561059 
L 279.511315 194.255032 
L 279.83597 198.610139 
L 280.160624 199.883299 
L 280.485279 190.230343 
L 280.809934 199.307139 
L 281.134588 199.208969 
L 281.459243 193.501152 
L 281.783897 204.737573 
L 282.108552 205.501268 
L 282.433206 198.649798 
L 282.757861 203.05971 
L 283.082515 204.711909 
L 283.40717 198.088958 
L 283.731824 197.264873 
L 284.056479 187.224216 
L 284.381134 193.542793 
L 284.705788 191.251361 
L 285.679752 217.130181 
L 286.004406 222.253246 
L 286.329061 229.51691 
L 286.653715 234.182283 
L 286.97837 233.980926 
L 287.303024 228.760937 
L 287.627679 230.179049 
L 287.952334 230.589758 
L 288.276988 241.111977 
L 288.601643 239.82251 
L 288.926297 232.932715 
L 289.250952 230.417605 
L 289.575606 222.416801 
L 289.900261 221.374204 
L 290.224915 226.499364 
L 290.54957 219.217942 
L 290.874224 218.695917 
L 291.198879 206.106638 
L 291.523534 206.484676 
L 291.848188 204.624566 
L 292.172843 212.484775 
L 292.497497 210.574121 
L 292.822152 213.875458 
L 293.146806 214.62705 
L 294.12077 200.666468 
L 294.445424 198.103463 
L 294.770079 199.964931 
L 295.094734 198.28486 
L 295.419388 202.096904 
L 295.744043 195.35031 
L 296.068697 204.712209 
L 296.393352 201.435697 
L 296.718006 194.448585 
L 297.042661 197.100604 
L 297.367315 186.030126 
L 297.69197 191.62184 
L 298.016624 195.089853 
L 298.341279 201.95488 
L 298.665934 197.146928 
L 298.990588 201.175081 
L 299.315243 207.222056 
L 299.639897 210.505327 
L 299.964552 199.665596 
L 300.289206 204.715221 
L 300.613861 207.508496 
L 300.938515 205.00399 
L 301.26317 200.866411 
L 301.587824 203.612311 
L 302.237134 217.297281 
L 302.561788 216.122639 
L 302.886443 217.796813 
L 303.211097 226.620856 
L 303.535752 226.624403 
L 303.860406 217.161609 
L 304.185061 213.903199 
L 304.509715 217.596098 
L 304.83437 219.40563 
L 305.159024 211.507764 
L 305.483679 208.75078 
L 306.132988 221.302724 
L 306.457643 219.999295 
L 306.782297 227.716248 
L 307.106952 221.707466 
L 307.431606 226.309866 
L 307.756261 224.855304 
L 308.40557 241.195033 
L 308.730224 228.797703 
L 309.054879 230.448074 
L 309.379534 228.301217 
L 309.704188 231.790627 
L 310.028843 227.741651 
L 310.353497 217.867838 
L 310.678152 215.303393 
L 311.002806 217.996252 
L 311.327461 225.073027 
L 311.652115 215.933313 
L 312.301424 206.802423 
L 312.626079 213.282232 
L 312.950734 214.108032 
L 313.275388 219.381012 
L 313.600043 227.742948 
L 313.924697 227.125036 
L 314.249352 235.973303 
L 314.574006 237.160592 
L 314.898661 229.231697 
L 315.223315 226.067648 
L 315.54797 216.000055 
L 315.872624 220.717482 
L 316.197279 218.113825 
L 316.521934 212.108976 
L 316.846588 215.782873 
L 317.171243 210.309643 
L 317.495897 215.650008 
L 317.820552 213.786127 
L 318.145206 218.173208 
L 318.469861 229.168163 
L 318.794515 223.484828 
L 319.11917 228.559796 
L 319.443824 215.974624 
L 319.768479 212.243668 
L 320.093134 214.895629 
L 320.417788 214.249623 
L 320.742443 219.836796 
L 321.067097 216.145638 
L 321.391752 221.036545 
L 321.716406 219.06488 
L 322.041061 219.999921 
L 322.69037 220.110861 
L 323.015024 217.968989 
L 323.339679 226.368615 
L 323.664334 223.46715 
L 323.988988 224.461706 
L 324.313643 226.156649 
L 324.638297 222.693145 
L 324.962952 231.870163 
L 325.287606 226.833194 
L 325.612261 227.811739 
L 325.936915 234.693889 
L 326.26157 237.922736 
L 326.586224 245.411604 
L 326.910879 246.797564 
L 327.235534 244.787141 
L 327.560188 227.733402 
L 327.884843 224.968995 
L 328.209497 237.050997 
L 328.534152 238.313633 
L 328.858806 238.414158 
L 329.183461 243.95131 
L 329.508115 253.153065 
L 329.83277 254.13181 
L 330.157424 246.87505 
L 330.482079 250.285636 
L 330.806734 250.707356 
L 331.131388 261.216 
L 331.780697 248.360018 
L 332.105352 235.54329 
L 332.754661 248.254238 
L 333.079315 250.806762 
L 333.728624 238.754869 
L 334.053279 232.858904 
L 334.702588 242.460838 
L 335.027243 237.874301 
L 335.351897 243.002737 
L 335.676552 241.084693 
L 336.001206 253.620353 
L 336.325861 251.078317 
L 336.650515 247.523768 
L 336.97517 246.595019 
L 337.299824 242.476097 
L 337.624479 249.746606 
L 337.949134 242.992803 
L 338.273788 247.535235 
L 338.598443 248.230519 
L 338.923097 251.942526 
L 339.247752 247.220717 
L 339.897061 248.6604 
L 340.221715 250.495964 
L 340.54637 242.864226 
L 340.871024 240.760428 
L 341.520334 226.232852 
L 341.844988 220.716674 
L 342.169643 209.933642 
L 342.818952 214.560529 
L 343.143606 207.070437 
L 343.468261 215.492223 
L 343.792915 208.807882 
L 344.11757 198.11152 
L 344.442224 198.511552 
L 344.766879 203.79737 
L 345.091534 204.962191 
L 345.416188 208.724497 
L 345.740843 218.342682 
L 346.065497 221.021956 
L 346.714806 199.250083 
L 347.364115 207.28466 
L 347.68877 195.47856 
L 348.013424 195.35794 
L 348.338079 198.464505 
L 348.662734 197.697216 
L 349.312043 186.769175 
L 349.636697 187.831972 
L 349.961352 176.498424 
L 350.286006 183.698163 
L 351.25997 194.523349 
L 351.584624 202.585026 
L 351.909279 196.389199 
L 352.233934 200.269007 
L 352.558588 198.226535 
L 352.883243 201.639955 
L 353.207897 193.236629 
L 353.532552 205.547915 
L 353.857206 209.221691 
L 354.181861 207.933308 
L 354.83117 187.701004 
L 355.155824 196.533425 
L 355.480479 189.907082 
L 356.129788 198.618755 
L 356.454443 192.595472 
L 356.779097 189.584286 
L 357.103752 190.186203 
L 357.428406 193.92688 
L 357.753061 193.511957 
L 358.077715 191.039833 
L 358.40237 186.706951 
L 358.727024 188.540838 
L 359.376334 187.484564 
L 360.025643 193.326073 
L 360.674952 204.844694 
L 360.999606 201.408956 
L 361.324261 211.271192 
L 361.648915 205.897158 
L 361.97357 204.127638 
L 362.298224 209.827363 
L 362.622879 209.049183 
L 363.272188 204.124486 
L 363.596843 207.465593 
L 363.921497 191.297151 
L 364.895461 177.533549 
L 365.220115 183.511639 
L 365.869424 180.157334 
L 366.194079 186.188994 
L 366.518734 183.22984 
L 366.843388 189.748945 
L 367.168043 192.019924 
L 367.492697 190.524854 
L 367.817352 191.865079 
L 367.817352 191.865079 
" clip-path="url(#pa55ae64d2c)" style="fill: none; stroke: #d1dae9; stroke-width: 1.5; stroke-linecap: square"/>
   </g>
   <g id="line2d_16">
    <path d="M 43.162806 185.794494 
L 43.812115 189.864914 
L 44.13677 189.504144 
L 44.461424 196.368433 
L 44.786079 199.301053 
L 45.110734 190.213934 
L 45.435388 187.913378 
L 45.760043 195.283724 
L 46.084697 191.105969 
L 46.409352 183.390324 
L 46.734006 181.775168 
L 47.058661 193.033859 
L 47.383315 193.102492 
L 47.70797 192.498721 
L 48.032624 195.313477 
L 48.357279 196.746519 
L 48.681934 193.163637 
L 49.006588 193.761284 
L 49.331243 176.71307 
L 49.655897 179.737209 
L 49.980552 176.280559 
L 50.305206 180.061824 
L 50.629861 175.232255 
L 50.954515 175.01644 
L 51.27917 180.662362 
L 51.603824 190.387282 
L 51.928479 186.80156 
L 52.253134 193.797904 
L 52.577788 196.899244 
L 52.902443 197.564273 
L 53.227097 190.70793 
L 53.551752 188.672219 
L 53.876406 195.137018 
L 54.201061 187.874583 
L 54.525715 189.311386 
L 54.85037 184.040584 
L 55.175024 182.514033 
L 55.499679 188.778235 
L 56.148988 195.23563 
L 56.473643 195.197078 
L 56.798297 193.496039 
L 57.122952 187.085429 
L 57.447606 193.02627 
L 57.772261 184.358082 
L 58.746224 177.630746 
L 59.070879 186.387864 
L 59.395534 185.961932 
L 59.720188 190.896673 
L 60.044843 189.779051 
L 60.369497 192.763605 
L 60.694152 194.381252 
L 61.018806 192.390716 
L 61.343461 187.16479 
L 61.668115 190.277581 
L 61.99277 181.369972 
L 62.317424 190.084824 
L 62.642079 187.50492 
L 62.966734 187.385162 
L 63.291388 180.991835 
L 63.616043 191.930875 
L 63.940697 183.430807 
L 64.265352 183.185266 
L 64.590006 184.518695 
L 64.914661 189.295684 
L 65.239315 192.204897 
L 65.56397 190.208985 
L 65.888624 194.020459 
L 66.213279 194.268553 
L 66.537934 194.336268 
L 66.862588 196.789934 
L 67.187243 194.527239 
L 67.511897 209.081026 
L 68.485861 192.651949 
L 68.810515 176.725194 
L 69.13517 178.914107 
L 69.459824 174.427251 
L 69.784479 177.305139 
L 70.109134 171.590851 
L 70.433788 162.788576 
L 71.083097 171.27549 
L 71.407752 167.345169 
L 71.732406 169.241638 
L 72.057061 167.361313 
L 72.381715 161.64376 
L 72.70637 162.340528 
L 73.031024 167.628218 
L 73.355679 162.050724 
L 73.680334 159.536249 
L 74.004988 164.008525 
L 74.329643 161.228139 
L 74.978952 165.252234 
L 75.303606 177.225261 
L 75.628261 172.10266 
L 75.952915 182.887517 
L 76.27757 181.848458 
L 76.926879 176.330932 
L 77.251534 175.787761 
L 77.576188 176.756841 
L 77.900843 181.961007 
L 78.225497 179.778832 
L 78.550152 183.296729 
L 78.874806 193.773254 
L 79.199461 200.394049 
L 79.524115 197.887579 
L 79.84877 196.492192 
L 80.173424 199.29747 
L 80.498079 194.284487 
L 80.822734 200.01804 
L 81.147388 197.857932 
L 81.796697 185.674681 
L 82.121352 181.368377 
L 82.446006 168.212328 
L 82.770661 164.508469 
L 83.095315 165.866681 
L 83.41997 168.082545 
L 83.744624 178.447571 
L 84.069279 182.855587 
L 84.393934 173.949285 
L 84.718588 170.246842 
L 85.043243 178.680824 
L 85.367897 172.940452 
L 85.692552 173.33898 
L 86.017206 169.003318 
L 86.341861 170.478193 
L 86.666515 172.708103 
L 86.99117 172.02619 
L 87.315824 178.181156 
L 87.640479 171.405844 
L 87.965134 172.288118 
L 88.289788 179.732531 
L 88.614443 167.288708 
L 88.939097 168.65973 
L 89.263752 166.028736 
L 89.588406 170.667698 
L 89.913061 170.348932 
L 90.237715 164.008761 
L 90.56237 168.491598 
L 90.887024 171.413982 
L 91.211679 170.551392 
L 91.536334 174.934166 
L 92.185643 162.515633 
L 92.510297 164.676926 
L 92.834952 164.75819 
L 93.159606 170.40938 
L 93.484261 159.808416 
L 93.808915 167.773983 
L 94.13357 170.201696 
L 94.458224 162.976467 
L 95.107534 159.552763 
L 95.432188 154.757981 
L 95.756843 152.495125 
L 96.081497 152.067578 
L 96.406152 156.328864 
L 96.730806 163.42839 
L 97.055461 153.661005 
L 97.380115 149.367661 
L 97.70477 149.851144 
L 98.029424 143.805651 
L 98.354079 145.047845 
L 98.678734 138.151915 
L 99.003388 134.228578 
L 99.328043 127.583848 
L 99.652697 125.582129 
L 99.977352 130.388889 
L 100.302006 132.111514 
L 100.626661 127.299006 
L 100.951315 133.291132 
L 101.27597 131.073441 
L 101.925279 143.006661 
L 102.249934 145.804639 
L 102.574588 151.490493 
L 102.899243 164.426577 
L 103.223897 163.826551 
L 103.873206 154.178236 
L 104.197861 149.288445 
L 104.522515 157.252361 
L 104.84717 150.610527 
L 105.171824 160.129352 
L 105.496479 150.746978 
L 105.821134 147.717279 
L 106.145788 156.306583 
L 106.470443 154.405573 
L 106.795097 156.035031 
L 107.444406 171.407447 
L 107.769061 173.999681 
L 108.41837 168.870736 
L 108.743024 171.922174 
L 109.067679 176.375693 
L 109.392334 174.258934 
L 109.716988 171.263711 
L 110.041643 165.710378 
L 110.690952 182.403911 
L 111.015606 174.144148 
L 111.340261 177.178223 
L 111.664915 172.377965 
L 111.98957 176.121175 
L 112.314224 168.674302 
L 112.963534 175.032959 
L 113.288188 171.698817 
L 113.612843 170.06963 
L 113.937497 178.8127 
L 114.262152 181.81231 
L 114.586806 179.819045 
L 114.911461 173.098127 
L 115.236115 173.690423 
L 115.885424 178.757367 
L 116.210079 172.356262 
L 116.534734 169.655153 
L 116.859388 165.338475 
L 117.508697 172.103311 
L 117.833352 172.449367 
L 118.158006 170.235196 
L 118.482661 176.108442 
L 118.807315 162.975807 
L 119.13197 165.89254 
L 119.456624 154.285136 
L 119.781279 154.465337 
L 120.105934 161.559779 
L 120.430588 172.98346 
L 121.079897 166.961566 
L 121.404552 173.133845 
L 121.729206 188.192422 
L 122.053861 181.798891 
L 122.378515 184.868999 
L 122.70317 185.592435 
L 123.352479 181.943612 
L 123.677134 184.837381 
L 124.001788 184.840646 
L 124.326443 186.547747 
L 124.651097 183.521917 
L 124.975752 185.012109 
L 125.300406 176.53042 
L 125.625061 174.17862 
L 125.949715 175.650475 
L 126.27437 178.040509 
L 126.599024 177.313387 
L 126.923679 165.914431 
L 127.248334 182.683311 
L 128.222297 202.566641 
L 128.546952 199.082862 
L 128.871606 209.383143 
L 129.520915 200.170313 
L 129.84557 190.314351 
L 130.170224 194.715981 
L 130.494879 195.245407 
L 131.144188 188.608504 
L 131.468843 193.860754 
L 131.793497 191.924627 
L 132.118152 193.421582 
L 132.442806 191.653977 
L 132.767461 183.682603 
L 133.092115 185.197876 
L 133.41677 184.199629 
L 133.741424 185.00587 
L 134.715388 167.223308 
L 135.364697 180.979651 
L 135.689352 183.103697 
L 136.014006 196.035685 
L 136.338661 194.762274 
L 136.663315 197.328446 
L 137.312624 210.535709 
L 137.637279 213.586864 
L 137.961934 207.402212 
L 138.286588 203.434579 
L 138.611243 206.06887 
L 138.935897 193.591805 
L 139.260552 194.553178 
L 139.585206 187.452331 
L 139.909861 175.834894 
L 140.234515 183.437795 
L 140.55917 182.259888 
L 140.883824 192.105975 
L 141.208479 193.554558 
L 141.533134 194.420597 
L 141.857788 190.025844 
L 142.182443 191.356929 
L 142.507097 195.574527 
L 142.831752 203.288345 
L 143.156406 200.305753 
L 143.481061 198.716604 
L 143.805715 205.243556 
L 144.13037 204.409068 
L 144.455024 210.391545 
L 144.779679 206.836603 
L 145.104334 205.518149 
L 145.428988 206.68392 
L 145.753643 221.951316 
L 146.078297 225.537387 
L 146.402952 226.887309 
L 146.727606 224.290251 
L 147.052261 229.139865 
L 147.376915 237.893719 
L 147.70157 224.991316 
L 148.026224 224.097082 
L 148.350879 221.856139 
L 148.675534 223.444958 
L 149.324843 218.868909 
L 149.649497 214.840159 
L 149.974152 216.310138 
L 150.298806 218.499156 
L 150.623461 209.27582 
L 150.948115 208.411177 
L 151.27277 204.604891 
L 151.597424 203.813375 
L 151.922079 204.883035 
L 152.246734 201.310919 
L 152.896043 203.068848 
L 153.220697 205.466774 
L 153.545352 204.493133 
L 154.194661 212.62373 
L 154.519315 201.788155 
L 154.84397 201.401759 
L 155.168624 200.316779 
L 155.493279 201.42413 
L 155.817934 205.435461 
L 156.142588 196.449142 
L 156.467243 201.981714 
L 156.791897 195.985249 
L 157.116552 205.449927 
L 157.441206 200.69119 
L 157.765861 199.142451 
L 158.090515 199.22876 
L 158.739824 191.202839 
L 159.064479 190.307994 
L 159.389134 195.719263 
L 160.038443 183.841245 
L 160.363097 181.848401 
L 160.687752 178.364356 
L 161.012406 184.550619 
L 161.337061 183.474329 
L 161.661715 178.096886 
L 161.98637 174.652001 
L 162.311024 184.171752 
L 162.635679 182.973539 
L 162.960334 175.484678 
L 163.284988 186.985658 
L 163.609643 192.346879 
L 164.258952 179.091258 
L 164.583606 176.801158 
L 164.908261 180.045323 
L 165.232915 175.036303 
L 165.55757 167.079882 
L 165.882224 175.445469 
L 166.206879 177.010139 
L 166.531534 183.934502 
L 166.856188 182.134517 
L 167.505497 192.777236 
L 167.830152 193.649263 
L 168.154806 190.792145 
L 168.479461 189.968032 
L 168.804115 200.304473 
L 169.12877 196.181445 
L 169.453424 194.442408 
L 169.778079 194.783466 
L 170.102734 194.064521 
L 170.427388 196.322252 
L 170.752043 203.477936 
L 171.076697 198.330442 
L 171.401352 187.477874 
L 171.726006 191.874438 
L 172.050661 193.524405 
L 172.375315 198.178156 
L 172.69997 200.021594 
L 173.024624 196.189292 
L 173.349279 206.617958 
L 173.673934 202.16446 
L 173.998588 206.758181 
L 174.323243 213.795376 
L 174.647897 212.096644 
L 174.972552 216.765387 
L 175.621861 221.162504 
L 175.946515 218.612151 
L 176.27117 213.773434 
L 176.595824 211.74889 
L 176.920479 216.152472 
L 177.245134 215.371278 
L 177.569788 217.828985 
L 177.894443 207.836668 
L 178.219097 210.317656 
L 178.543752 215.651641 
L 179.193061 202.138244 
L 179.517715 203.761918 
L 179.84237 204.105899 
L 180.167024 200.725542 
L 180.491679 200.448754 
L 180.816334 195.084586 
L 181.140988 203.313396 
L 181.465643 203.383112 
L 181.790297 204.805084 
L 182.114952 202.404792 
L 182.439606 207.746767 
L 182.764261 219.100311 
L 183.088915 213.975142 
L 183.41357 218.36406 
L 183.738224 212.382409 
L 184.062879 213.470353 
L 184.387534 208.707107 
L 185.036843 214.694323 
L 185.361497 210.780625 
L 185.686152 213.569531 
L 186.010806 214.291947 
L 186.335461 222.089695 
L 186.98477 214.118023 
L 187.309424 220.242202 
L 187.634079 223.592323 
L 187.958734 223.255307 
L 188.283388 215.141843 
L 188.608043 221.881125 
L 189.582006 197.924911 
L 189.906661 197.601648 
L 190.231315 191.643418 
L 190.55597 191.623903 
L 190.880624 197.691977 
L 191.205279 200.885298 
L 191.529934 206.538067 
L 191.854588 201.801947 
L 192.179243 204.774863 
L 192.503897 195.687547 
L 193.153206 202.038307 
L 193.477861 199.370719 
L 194.12717 210.319895 
L 194.451824 194.935774 
L 194.776479 194.548803 
L 195.101134 192.79582 
L 195.425788 201.871624 
L 195.750443 203.39796 
L 196.724406 223.086358 
L 197.049061 222.668472 
L 197.373715 223.884692 
L 197.69837 223.18546 
L 198.347679 215.219236 
L 198.672334 210.484152 
L 198.996988 219.749664 
L 199.321643 221.561484 
L 199.646297 217.382545 
L 199.970952 221.121673 
L 200.295606 216.707398 
L 200.620261 223.082569 
L 201.26957 216.68936 
L 201.594224 208.311401 
L 201.918879 207.580362 
L 202.243534 216.803529 
L 202.568188 211.111684 
L 202.892843 209.894639 
L 203.217497 204.523627 
L 203.542152 192.929411 
L 203.866806 195.425203 
L 204.191461 186.365014 
L 204.516115 196.617701 
L 204.84077 202.108026 
L 205.165424 194.621006 
L 205.814734 190.471177 
L 206.139388 189.510795 
L 206.788697 204.774133 
L 207.113352 202.010823 
L 207.438006 201.972273 
L 207.762661 202.400179 
L 208.087315 194.588759 
L 208.41197 197.541703 
L 208.736624 195.069077 
L 209.061279 180.689217 
L 209.385934 185.084498 
L 209.710588 185.879625 
L 210.035243 189.988697 
L 210.359897 183.556655 
L 210.684552 195.73664 
L 211.009206 197.034501 
L 211.333861 205.676113 
L 211.658515 200.944908 
L 211.98317 193.853853 
L 212.307824 204.724875 
L 212.632479 205.551494 
L 212.957134 210.666079 
L 213.606443 208.465001 
L 213.931097 196.515942 
L 214.255752 207.273413 
L 214.580406 203.549826 
L 214.905061 211.484039 
L 215.229715 207.787563 
L 215.879024 216.947537 
L 216.203679 212.748596 
L 216.528334 215.096382 
L 216.852988 205.721996 
L 217.177643 220.403187 
L 217.502297 223.499695 
L 217.826952 218.885475 
L 218.151606 219.220629 
L 218.800915 208.893694 
L 219.450224 189.078602 
L 219.774879 185.151408 
L 220.099534 185.816249 
L 220.424188 180.897126 
L 220.748843 181.325916 
L 221.073497 188.40215 
L 221.398152 177.02744 
L 221.722806 181.066644 
L 222.047461 181.690319 
L 222.372115 179.273954 
L 222.69677 180.870724 
L 223.021424 179.555892 
L 223.346079 168.120389 
L 223.995388 171.762605 
L 224.320043 182.027486 
L 224.644697 179.042656 
L 224.969352 172.527815 
L 225.294006 171.817872 
L 225.618661 180.752773 
L 225.943315 186.550558 
L 226.592624 184.978451 
L 226.917279 191.413673 
L 227.241934 187.579407 
L 227.566588 192.686375 
L 227.891243 191.868135 
L 228.215897 181.291124 
L 228.865206 208.838598 
L 229.514515 199.434669 
L 229.83917 184.734812 
L 230.163824 181.450314 
L 230.488479 179.600298 
L 230.813134 183.54819 
L 231.137788 178.385236 
L 231.462443 170.255513 
L 231.787097 172.528578 
L 232.111752 179.161018 
L 232.436406 173.967998 
L 232.761061 174.925364 
L 233.085715 179.267179 
L 233.41037 188.968271 
L 233.735024 190.307274 
L 234.059679 180.862195 
L 234.384334 186.610397 
L 234.708988 188.005373 
L 235.358297 175.810872 
L 236.332261 186.993151 
L 236.656915 187.000963 
L 236.98157 186.810917 
L 237.306224 193.855563 
L 237.630879 194.789269 
L 237.955534 199.270776 
L 238.280188 200.53517 
L 238.604843 203.018737 
L 238.929497 197.928605 
L 239.254152 195.189021 
L 239.578806 204.404406 
L 239.903461 195.805325 
L 240.55277 189.242947 
L 240.877424 191.377196 
L 241.202079 202.933972 
L 241.526734 204.734562 
L 241.851388 218.381652 
L 242.176043 212.677696 
L 242.500697 211.37995 
L 242.825352 211.44439 
L 243.150006 219.735705 
L 243.474661 223.405044 
L 244.12397 213.919189 
L 244.448624 215.685403 
L 244.773279 223.193758 
L 245.097934 225.406005 
L 245.422588 233.526656 
L 246.396552 202.292154 
L 246.721206 197.340227 
L 247.045861 185.426214 
L 247.370515 184.46873 
L 247.69517 196.453998 
L 248.019824 193.665491 
L 248.344479 197.300184 
L 248.669134 202.483104 
L 248.993788 194.925787 
L 249.318443 202.777806 
L 249.643097 198.131269 
L 249.967752 196.964191 
L 250.292406 201.623804 
L 250.617061 201.516775 
L 250.941715 206.937657 
L 251.26637 204.2499 
L 251.915679 192.181005 
L 252.240334 201.129767 
L 252.889643 179.188872 
L 253.214297 179.285178 
L 253.538952 179.235917 
L 253.863606 185.756227 
L 254.512915 180.899899 
L 255.162224 185.997244 
L 255.486879 179.962278 
L 256.136188 182.060492 
L 256.460843 176.569243 
L 257.110152 190.436483 
L 257.434806 182.118407 
L 257.759461 181.367132 
L 258.084115 181.560856 
L 258.40877 180.203634 
L 258.733424 185.633309 
L 259.707388 169.968366 
L 260.356697 165.174215 
L 260.681352 166.957653 
L 261.006006 169.631391 
L 261.330661 165.692809 
L 261.655315 166.062825 
L 261.97997 167.952421 
L 262.304624 172.252898 
L 262.629279 171.387399 
L 262.953934 172.109951 
L 263.278588 172.487369 
L 263.603243 168.159458 
L 263.927897 176.275466 
L 264.252552 172.135685 
L 264.901861 180.237775 
L 265.55117 170.376895 
L 265.875824 158.416333 
L 266.200479 165.476933 
L 266.525134 164.242732 
L 266.849788 166.215965 
L 267.174443 163.723737 
L 267.499097 165.758102 
L 268.148406 159.972447 
L 268.473061 167.973562 
L 268.797715 167.11176 
L 269.12237 162.635234 
L 269.447024 155.828227 
L 269.771679 160.675901 
L 270.096334 159.843593 
L 270.420988 168.068564 
L 270.745643 163.166314 
L 271.070297 154.221149 
L 271.719606 142.217284 
L 272.044261 144.366467 
L 272.368915 157.373762 
L 272.69357 160.904306 
L 273.018224 154.200181 
L 273.342879 154.800102 
L 273.667534 145.86655 
L 273.992188 152.702022 
L 274.316843 152.046642 
L 274.641497 150.453745 
L 274.966152 151.084387 
L 275.290806 152.166602 
L 275.615461 152.819595 
L 276.26477 163.863752 
L 276.589424 164.856172 
L 276.914079 166.951066 
L 277.238734 162.227859 
L 277.563388 159.847878 
L 277.888043 164.839857 
L 278.212697 164.925192 
L 278.537352 160.960277 
L 279.186661 162.705521 
L 279.511315 172.321043 
L 279.83597 187.292686 
L 280.160624 185.927423 
L 280.485279 183.54449 
L 281.459243 186.857364 
L 281.783897 182.046455 
L 282.108552 186.118849 
L 282.433206 183.880387 
L 283.082515 191.321434 
L 283.40717 188.67069 
L 283.731824 188.536044 
L 284.056479 180.942079 
L 284.381134 187.802384 
L 284.705788 191.502805 
L 285.030443 182.570494 
L 285.355097 181.372827 
L 286.004406 188.618429 
L 286.329061 185.519819 
L 286.653715 183.508429 
L 286.97837 178.10067 
L 287.303024 176.986471 
L 287.952334 192.20254 
L 288.276988 185.566714 
L 288.601643 187.167757 
L 288.926297 181.439281 
L 289.250952 185.08843 
L 289.575606 203.010514 
L 289.900261 197.926981 
L 290.224915 197.155462 
L 290.54957 204.748332 
L 291.198879 209.117496 
L 291.523534 203.452199 
L 291.848188 205.254415 
L 292.172843 206.018153 
L 292.497497 204.776597 
L 292.822152 195.777533 
L 293.146806 195.967487 
L 293.471461 198.477984 
L 294.445424 189.869019 
L 295.094734 187.690778 
L 295.419388 193.006947 
L 295.744043 202.097425 
L 296.068697 203.222231 
L 296.393352 208.821717 
L 296.718006 210.688884 
L 297.042661 220.699475 
L 297.367315 219.058217 
L 297.69197 223.607196 
L 298.016624 218.135494 
L 298.665934 200.88633 
L 298.990588 203.729508 
L 299.315243 203.525174 
L 299.639897 200.983679 
L 299.964552 201.723176 
L 300.289206 197.433652 
L 300.613861 198.450323 
L 300.938515 194.014872 
L 301.26317 202.723208 
L 301.587824 195.45236 
L 301.912479 181.750253 
L 302.237134 190.507097 
L 302.561788 194.242838 
L 302.886443 189.539007 
L 303.211097 196.11436 
L 303.860406 192.204178 
L 304.185061 194.704106 
L 304.509715 198.588818 
L 304.83437 200.434079 
L 305.159024 207.838835 
L 305.483679 205.399963 
L 305.808334 206.966537 
L 306.132988 206.724175 
L 306.457643 211.5527 
L 306.782297 202.334441 
L 307.106952 200.575857 
L 307.431606 197.876047 
L 307.756261 188.807024 
L 308.080915 186.774606 
L 309.054879 205.528982 
L 309.379534 203.709419 
L 309.704188 197.574701 
L 310.028843 198.147291 
L 310.353497 193.477712 
L 310.678152 207.410026 
L 311.002806 212.751087 
L 311.327461 214.803799 
L 311.652115 218.781305 
L 311.97677 219.30154 
L 312.301424 217.890243 
L 312.626079 219.668127 
L 312.950734 220.333713 
L 313.275388 226.175251 
L 313.924697 219.620655 
L 314.574006 232.756599 
L 314.898661 236.565703 
L 315.223315 228.260998 
L 315.54797 227.3122 
L 315.872624 239.298276 
L 316.521934 230.262194 
L 316.846588 217.90708 
L 317.171243 214.241913 
L 317.495897 215.005447 
L 317.820552 231.300996 
L 318.145206 236.99121 
L 318.469861 229.746566 
L 318.794515 231.019109 
L 319.11917 230.660793 
L 319.443824 226.692648 
L 320.093134 233.11672 
L 320.417788 233.667503 
L 320.742443 237.317582 
L 321.067097 242.550056 
L 321.391752 237.682535 
L 321.716406 245.926244 
L 322.041061 233.127605 
L 322.69037 218.476472 
L 323.015024 219.419493 
L 323.339679 230.29625 
L 323.988988 236.943611 
L 324.313643 236.445401 
L 324.638297 238.184143 
L 324.962952 243.910008 
L 325.287606 239.763392 
L 325.612261 240.926502 
L 325.936915 238.610351 
L 326.26157 238.105346 
L 326.586224 235.40396 
L 327.560188 222.089447 
L 327.884843 214.589176 
L 328.209497 212.201516 
L 328.534152 219.362991 
L 328.858806 214.109425 
L 329.183461 203.55873 
L 329.83277 205.850411 
L 330.157424 195.617244 
L 330.482079 189.821602 
L 330.806734 194.027725 
L 331.131388 201.362061 
L 331.456043 214.085607 
L 331.780697 218.991263 
L 332.430006 210.195604 
L 333.079315 204.34642 
L 333.40397 204.350408 
L 333.728624 202.881392 
L 334.053279 204.85067 
L 334.377934 201.744241 
L 334.702588 202.005768 
L 335.027243 214.458895 
L 335.351897 220.724496 
L 336.001206 217.683035 
L 336.325861 217.562661 
L 336.650515 224.280499 
L 336.97517 224.366186 
L 337.299824 222.749859 
L 337.949134 198.947824 
L 338.273788 207.945824 
L 338.598443 207.230363 
L 338.923097 210.409967 
L 339.247752 211.628314 
L 339.572406 211.837627 
L 340.221715 217.800206 
L 340.54637 219.060139 
L 341.195679 199.679058 
L 341.520334 202.165044 
L 341.844988 195.719944 
L 342.169643 195.163883 
L 342.494297 194.835913 
L 342.818952 200.679634 
L 343.143606 200.675727 
L 343.468261 206.173081 
L 343.792915 205.271578 
L 344.11757 203.096442 
L 344.442224 203.968359 
L 345.091534 193.439072 
L 345.416188 197.801966 
L 345.740843 194.268702 
L 346.065497 181.893003 
L 346.714806 191.714709 
L 347.039461 198.822774 
L 347.364115 203.055759 
L 347.68877 199.60707 
L 348.013424 201.387694 
L 348.338079 200.955821 
L 348.662734 206.255253 
L 348.987388 201.864454 
L 349.312043 201.663449 
L 349.636697 191.499619 
L 349.961352 192.205225 
L 350.610661 203.406864 
L 350.935315 195.314426 
L 351.25997 193.017634 
L 351.584624 186.576515 
L 352.233934 183.935574 
L 352.558588 192.328387 
L 352.883243 187.386087 
L 353.207897 193.273316 
L 353.532552 195.279027 
L 353.857206 195.087488 
L 354.181861 207.918092 
L 354.506515 200.209841 
L 354.83117 198.785966 
L 355.480479 183.027932 
L 355.805134 179.175432 
L 356.454443 174.918928 
L 356.779097 164.162861 
L 357.103752 170.034026 
L 357.428406 167.228206 
L 357.753061 159.751443 
L 358.077715 162.885617 
L 358.40237 162.294352 
L 358.727024 161.134148 
L 359.051679 159.168047 
L 359.376334 158.079475 
L 359.700988 158.842032 
L 360.025643 151.720738 
L 360.350297 153.529175 
L 360.999606 164.271247 
L 361.648915 177.841685 
L 361.97357 177.027614 
L 362.298224 183.167429 
L 362.622879 181.718687 
L 362.947534 174.564259 
L 363.596843 186.196556 
L 363.921497 175.677231 
L 364.246152 186.487516 
L 364.570806 184.65825 
L 364.895461 195.049607 
L 365.220115 193.585808 
L 365.54477 184.393784 
L 366.194079 190.05951 
L 366.518734 192.341279 
L 366.843388 192.725519 
L 367.168043 182.687491 
L 367.492697 182.685903 
L 367.817352 170.341926 
L 367.817352 170.341926 
" clip-path="url(#pa55ae64d2c)" style="fill: none; stroke: #3a4cc0; stroke-width: 1.5; stroke-linecap: square"/>
   </g>
   <g id="patch_3">
    <path d="M 26.930079 273.312 
L 26.930079 7.2 
" style="fill: none; stroke: #000000; stroke-width: 0.8; stroke-linejoin: miter; stroke-linecap: square"/>
   </g>
   <g id="patch_4">
    <path d="M 384.050079 273.312 
L 384.050079 7.2 
" style="fill: none; stroke: #000000; stroke-width: 0.8; stroke-linejoin: miter; stroke-linecap: square"/>
   </g>
   <g id="patch_5">
    <path d="M 26.930079 273.312 
L 384.050079 273.312 
" style="fill: none; stroke: #000000; stroke-width: 0.8; stroke-linejoin: miter; stroke-linecap: square"/>
   </g>
   <g id="patch_6">
    <path d="M 26.930079 7.2 
L 384.050079 7.2 
" style="fill: none; stroke: #000000; stroke-width: 0.8; stroke-linejoin: miter; stroke-linecap: square"/>
   </g>
   <g id="legend_1">
    <g id="patch_7">
     <path d="M 33.930079 57.011535 
L 111.038829 57.011535 
Q 113.038829 57.011535 113.038829 55.011535 
L 113.038829 14.2 
Q 113.038829 12.2 111.038829 12.2 
L 33.930079 12.2 
Q 31.930079 12.2 31.930079 14.2 
L 31.930079 55.011535 
Q 31.930079 57.011535 33.930079 57.011535 
z
" style="fill: #ffffff; opacity: 0.8; stroke: #cccccc; stroke-linejoin: miter"/>
    </g>
    <g id="line2d_17">
     <path d="M 35.930079 19.7 
L 45.930079 19.7 
L 55.930079 19.7 
" style="fill: none; stroke: #e46e56; stroke-width: 1.5; stroke-linecap: square"/>
    </g>
    <g id="text_14">
     <!-- CBO -->
     <g transform="translate(63.930079 23.2) scale(0.1 -0.1)">
      <defs>
       <path id="CMSS17-43" d="M 3501 714 
C 3072 427 2874 344 2355 344 
C 1459 344 934 1303 934 2179 
C 934 3112 1472 4032 2381 4032 
C 2790 4032 3059 3918 3386 3715 
L 3475 4217 
C 3168 4370 2778 4440 2387 4440 
C 1158 4440 397 3316 397 2179 
C 397 927 1299 -64 2323 -64 
C 2874 -64 3066 -19 3539 280 
L 3501 714 
z
" transform="scale(0.015625)"/>
       <path id="CMSS17-42" d="M 570 4416 
L 570 0 
L 2163 0 
C 3034 0 3667 574 3667 1200 
C 3667 1685 3251 2176 2502 2317 
C 3334 2558 3501 3040 3501 3313 
C 3501 3883 2874 4416 1997 4416 
L 570 4416 
z
M 1088 2496 
L 1088 4059 
L 1824 4059 
C 2483 4059 3002 3724 3002 3306 
C 3002 2926 2592 2496 1766 2496 
L 1088 2496 
z
M 1088 357 
L 1088 2107 
L 1939 2107 
C 2630 2107 3162 1679 3162 1206 
C 3162 772 2694 357 1984 357 
L 1088 357 
z
" transform="scale(0.015625)"/>
       <path id="CMSS17-4f" d="M 4096 2178 
C 4096 3503 3219 4497 2214 4497 
C 1210 4497 333 3497 333 2178 
C 333 847 1222 -128 2214 -128 
C 3206 -128 4096 847 4096 2178 
z
M 2214 273 
C 1510 273 870 1057 870 2261 
C 870 3433 1549 4096 2214 4096 
C 2880 4096 3558 3433 3558 2261 
C 3558 1051 2912 273 2214 273 
z
" transform="scale(0.015625)"/>
      </defs>
      <use xlink:href="#CMSS17-43" transform="scale(0.996264)"/>
      <use xlink:href="#CMSS17-42" transform="translate(59.855772 0) scale(0.996264)"/>
      <use xlink:href="#CMSS17-4f" transform="translate(122.193812 0) scale(0.996264)"/>
     </g>
    </g>
    <g id="line2d_18">
     <path d="M 35.930079 33.637178 
L 45.930079 33.637178 
L 55.930079 33.637178 
" style="fill: none; stroke: #d1dae9; stroke-width: 1.5; stroke-linecap: square"/>
    </g>
    <g id="text_15">
     <!-- SMD-CBO -->
     <g transform="translate(63.930079 37.137178) scale(0.1 -0.1)">
      <defs>
       <path id="CMSS17-53" d="M 2797 4169 
C 2515 4334 2208 4480 1690 4480 
C 864 4480 333 3879 333 3266 
C 333 3025 403 2753 653 2475 
C 902 2196 1184 2121 1542 2033 
C 1690 1994 1939 1924 1984 1906 
C 2342 1767 2515 1444 2515 1140 
C 2515 742 2202 318 1645 318 
C 1453 318 890 318 358 819 
L 269 318 
C 794 -64 1363 -128 1651 -128 
C 2438 -128 3002 488 3002 1186 
C 3002 1440 2925 1763 2656 2061 
C 2394 2347 2163 2410 1638 2549 
C 1338 2626 1146 2677 986 2873 
C 877 3013 819 3146 819 3317 
C 819 3673 1126 4060 1690 4060 
C 1971 4060 2336 4002 2707 3660 
L 2797 4169 
z
" transform="scale(0.015625)"/>
       <path id="CMSS17-4d" d="M 3194 2371 
L 2886 1473 
C 2835 1307 2662 791 2624 587 
L 2618 587 
C 2598 715 2560 849 2458 1174 
C 2400 1365 2336 1562 2272 1741 
L 1325 4416 
L 576 4416 
L 576 0 
L 1075 0 
L 1075 3900 
L 1082 3900 
C 1082 3894 1139 3613 1530 2499 
L 2374 96 
L 2848 96 
L 3610 2231 
C 3661 2378 3821 2843 3891 3066 
C 3955 3257 4115 3728 4154 3913 
L 4160 3913 
L 4160 0 
L 4666 0 
L 4666 4416 
L 3923 4416 
L 3194 2371 
z
" transform="scale(0.015625)"/>
       <path id="CMSS17-44" d="M 570 4416 
L 570 0 
L 2144 0 
C 3194 0 4000 980 4000 2170 
C 4000 3398 3194 4416 2144 4416 
L 570 4416 
z
M 1094 357 
L 1094 4059 
L 2003 4059 
C 2861 4059 3475 3277 3475 2170 
C 3475 1107 2867 357 2003 357 
L 1094 357 
z
" transform="scale(0.015625)"/>
       <path id="CMSS17-2d" d="M 1664 1216 
L 1664 1585 
L 64 1585 
L 64 1216 
L 1664 1216 
z
" transform="scale(0.015625)"/>
      </defs>
      <use xlink:href="#CMSS17-53" transform="scale(0.996264)"/>
      <use xlink:href="#CMSS17-4d" transform="translate(52.048516 0) scale(0.996264)"/>
      <use xlink:href="#CMSS17-44" transform="translate(133.724546 0) scale(0.996264)"/>
      <use xlink:href="#CMSS17-2d" transform="translate(201.267388 0) scale(0.996264)"/>
      <use xlink:href="#CMSS17-43" transform="translate(232.496501 0) scale(0.996264)"/>
      <use xlink:href="#CMSS17-42" transform="translate(292.352272 0) scale(0.996264)"/>
      <use xlink:href="#CMSS17-4f" transform="translate(354.690312 0) scale(0.996264)"/>
     </g>
    </g>
    <g id="line2d_19">
     <path d="M 35.930079 47.574357 
L 45.930079 47.574357 
L 55.930079 47.574357 
" style="fill: none; stroke: #3a4cc0; stroke-width: 1.5; stroke-linecap: square"/>
    </g>
    <g id="text_16">
     <!-- GCN-CBO -->
     <g transform="translate(63.930079 51.074357) scale(0.1 -0.1)">
      <defs>
       <path id="CMSS17-47" d="M 3610 1856 
L 2336 1856 
L 2336 1461 
L 3123 1461 
L 3123 471 
C 2874 401 2618 350 2362 350 
C 1466 350 934 1301 934 2200 
C 934 3095 1491 4032 2362 4032 
C 2854 4032 3130 3881 3469 3627 
L 3552 4134 
C 3130 4351 2867 4440 2387 4440 
C 1146 4440 397 3324 397 2182 
C 397 1090 1152 -64 2349 -64 
C 2797 -64 3213 51 3610 248 
L 3610 1856 
z
" transform="scale(0.015625)"/>
       <path id="CMSS17-4e" d="M 1466 4180 
L 1350 4416 
L 563 4416 
L 563 0 
L 1062 0 
L 1062 3926 
L 1069 3932 
C 1114 3817 1139 3760 1402 3194 
L 2771 236 
L 2886 0 
L 3674 0 
L 3674 4416 
L 3174 4416 
L 3174 490 
L 3168 483 
C 3123 598 3098 655 2835 1221 
L 1466 4180 
z
" transform="scale(0.015625)"/>
      </defs>
      <use xlink:href="#CMSS17-47" transform="scale(0.996264)"/>
      <use xlink:href="#CMSS17-43" transform="translate(62.458226 0) scale(0.996264)"/>
      <use xlink:href="#CMSS17-4e" transform="translate(122.313997 0) scale(0.996264)"/>
      <use xlink:href="#CMSS17-2d" transform="translate(188.375516 0) scale(0.996264)"/>
      <use xlink:href="#CMSS17-43" transform="translate(219.604629 0) scale(0.996264)"/>
      <use xlink:href="#CMSS17-42" transform="translate(279.460401 0) scale(0.996264)"/>
      <use xlink:href="#CMSS17-4f" transform="translate(341.798441 0) scale(0.996264)"/>
     </g>
    </g>
   </g>
  </g>
 </g>
 <defs>
  <clipPath id="pa55ae64d2c">
   <rect x="26.930079" y="7.2" width="357.12" height="266.112"/>
  </clipPath>
 </defs>
</svg>
