<?xml version="1.0" encoding="utf-8" standalone="no"?>
<!DOCTYPE svg PUBLIC "-//W3C//DTD SVG 1.1//EN"
  "http://www.w3.org/Graphics/SVG/1.1/DTD/svg11.dtd">
<svg xmlns:xlink="http://www.w3.org/1999/xlink" width="388.482671pt" height="296.367677pt" viewBox="0 0 388.482671 296.367677" xmlns="http://www.w3.org/2000/svg" version="1.1">
 <metadata>
  <rdf:RDF xmlns:dc="http://purl.org/dc/elements/1.1/" xmlns:cc="http://creativecommons.org/ns#" xmlns:rdf="http://www.w3.org/1999/02/22-rdf-syntax-ns#">
   <cc:Work>
    <dc:type rdf:resource="http://purl.org/dc/dcmitype/StillImage"/>
    <dc:date>2026-03-26T17:59:43.861158</dc:date>
    <dc:format>image/svg+xml</dc:format>
    <dc:creator>
     <cc:Agent>
      <dc:title>Matplotlib v3.10.7, https://matplotlib.org/</dc:title>
     </cc:Agent>
    </dc:creator>
   </cc:Work>
  </rdf:RDF>
 </metadata>
 <defs>
  <style type="text/css">*{stroke-linejoin: round; stroke-linecap: butt}</style>
 </defs>
 <g id="figure_1">
  <g id="patch_1">
   <path d="M 0 296.367677 
L 388.482671 296.367677 
L 388.482671 0 
L 0 0 
z
" style="fill: #ffffff"/>
  </g>
  <g id="axes_1">
   <g id="patch_2">
    <path d="M 24.162671 273.312 
L 381.282671 273.312 
L 381.282671 7.2 
L 24.162671 7.2 
z
" style="fill: #ffffff"/>
   </g>
   <g id="matplotlib.axis_1">
    <g id="xtick_1">
     <g id="line2d_1">
      <defs>
       <path id="m2284a460d9" d="M 0 0 
L 0 3.5 
" style="stroke: #000000; stroke-width: 0.8"/>
      </defs>
      <g>
       <use xlink:href="#m2284a460d9" x="40.395398" y="273.312" style="stroke: #000000; stroke-width: 0.8"/>
      </g>
     </g>
     <g id="text_1">
      <!-- $\mathdefault{0}$ -->
      <g transform="translate(37.90473 287.230498) scale(0.1 -0.1)">
       <defs>
        <path id="CMR17-30" d="M 2688 2025 
C 2688 2416 2682 3080 2413 3591 
C 2176 4039 1798 4198 1466 4198 
C 1158 4198 768 4058 525 3597 
C 269 3118 243 2524 243 2025 
C 243 1661 250 1106 448 619 
C 723 -39 1216 -128 1466 -128 
C 1760 -128 2208 -7 2470 600 
C 2662 1042 2688 1559 2688 2025 
z
M 1466 -26 
C 1056 -26 813 325 723 812 
C 653 1188 653 1738 653 2096 
C 653 2588 653 2997 736 3387 
C 858 3929 1216 4096 1466 4096 
C 1728 4096 2067 3923 2189 3400 
C 2272 3036 2278 2607 2278 2096 
C 2278 1680 2278 1169 2202 792 
C 2067 95 1690 -26 1466 -26 
z
" transform="scale(0.015625)"/>
       </defs>
       <use xlink:href="#CMR17-30" transform="scale(0.996264)"/>
      </g>
     </g>
    </g>
    <g id="xtick_2">
     <g id="line2d_2">
      <g>
       <use xlink:href="#m2284a460d9" x="105.326307" y="273.312" style="stroke: #000000; stroke-width: 0.8"/>
      </g>
     </g>
     <g id="text_2">
      <!-- $\mathdefault{200}$ -->
      <g transform="translate(97.854304 287.230498) scale(0.1 -0.1)">
       <defs>
        <path id="CMR17-32" d="M 2669 989 
L 2554 989 
C 2490 536 2438 459 2413 420 
C 2381 369 1920 369 1830 369 
L 602 369 
C 832 619 1280 1072 1824 1597 
C 2214 1967 2669 2402 2669 3035 
C 2669 3790 2067 4224 1395 4224 
C 691 4224 262 3604 262 3030 
C 262 2780 448 2748 525 2748 
C 589 2748 781 2787 781 3010 
C 781 3207 614 3264 525 3264 
C 486 3264 448 3258 422 3245 
C 544 3790 915 4058 1306 4058 
C 1862 4058 2227 3617 2227 3035 
C 2227 2479 1901 2000 1536 1584 
L 262 146 
L 262 0 
L 2515 0 
L 2669 989 
z
" transform="scale(0.015625)"/>
       </defs>
       <use xlink:href="#CMR17-32" transform="scale(0.996264)"/>
       <use xlink:href="#CMR17-30" transform="translate(45.690477 0) scale(0.996264)"/>
       <use xlink:href="#CMR17-30" transform="translate(91.380954 0) scale(0.996264)"/>
      </g>
     </g>
    </g>
    <g id="xtick_3">
     <g id="line2d_3">
      <g>
       <use xlink:href="#m2284a460d9" x="170.257216" y="273.312" style="stroke: #000000; stroke-width: 0.8"/>
      </g>
     </g>
     <g id="text_3">
      <!-- $\mathdefault{400}$ -->
      <g transform="translate(162.785213 287.230498) scale(0.1 -0.1)">
       <defs>
        <path id="CMR17-34" d="M 2150 4122 
C 2150 4256 2144 4256 2029 4256 
L 128 1254 
L 128 1088 
L 1779 1088 
L 1779 457 
C 1779 224 1766 160 1318 160 
L 1197 160 
L 1197 0 
C 1402 0 1747 0 1965 0 
C 2182 0 2528 0 2733 0 
L 2733 160 
L 2611 160 
C 2163 160 2150 224 2150 457 
L 2150 1088 
L 2803 1088 
L 2803 1254 
L 2150 1254 
L 2150 4122 
z
M 1798 3703 
L 1798 1254 
L 256 1254 
L 1798 3703 
z
" transform="scale(0.015625)"/>
       </defs>
       <use xlink:href="#CMR17-34" transform="scale(0.996264)"/>
       <use xlink:href="#CMR17-30" transform="translate(45.690477 0) scale(0.996264)"/>
       <use xlink:href="#CMR17-30" transform="translate(91.380954 0) scale(0.996264)"/>
      </g>
     </g>
    </g>
    <g id="xtick_4">
     <g id="line2d_4">
      <g>
       <use xlink:href="#m2284a460d9" x="235.188125" y="273.312" style="stroke: #000000; stroke-width: 0.8"/>
      </g>
     </g>
     <g id="text_4">
      <!-- $\mathdefault{600}$ -->
      <g transform="translate(227.716122 287.230498) scale(0.1 -0.1)">
       <defs>
        <path id="CMR17-36" d="M 678 2176 
C 678 3690 1395 4032 1811 4032 
C 1946 4032 2272 4009 2400 3776 
C 2298 3776 2106 3776 2106 3553 
C 2106 3381 2246 3323 2336 3323 
C 2394 3323 2566 3348 2566 3560 
C 2566 3954 2246 4179 1805 4179 
C 1043 4179 243 3390 243 1984 
C 243 253 966 -128 1478 -128 
C 2099 -128 2688 427 2688 1283 
C 2688 2081 2170 2662 1517 2662 
C 1126 2662 838 2407 678 1960 
L 678 2176 
z
M 1478 25 
C 691 25 691 1200 691 1436 
C 691 1896 909 2560 1504 2560 
C 1613 2560 1926 2560 2138 2120 
C 2253 1870 2253 1609 2253 1289 
C 2253 944 2253 690 2118 434 
C 1978 171 1773 25 1478 25 
z
" transform="scale(0.015625)"/>
       </defs>
       <use xlink:href="#CMR17-36" transform="scale(0.996264)"/>
       <use xlink:href="#CMR17-30" transform="translate(45.690477 0) scale(0.996264)"/>
       <use xlink:href="#CMR17-30" transform="translate(91.380954 0) scale(0.996264)"/>
      </g>
     </g>
    </g>
    <g id="xtick_5">
     <g id="line2d_5">
      <g>
       <use xlink:href="#m2284a460d9" x="300.119034" y="273.312" style="stroke: #000000; stroke-width: 0.8"/>
      </g>
     </g>
     <g id="text_5">
      <!-- $\mathdefault{800}$ -->
      <g transform="translate(292.647031 287.230498) scale(0.1 -0.1)">
       <defs>
        <path id="CMR17-38" d="M 1741 2264 
C 2144 2467 2554 2773 2554 3263 
C 2554 3841 1990 4179 1472 4179 
C 890 4179 378 3759 378 3180 
C 378 3021 416 2747 666 2505 
C 730 2442 998 2251 1171 2130 
C 883 1983 211 1634 211 934 
C 211 279 838 -128 1459 -128 
C 2144 -128 2720 362 2720 1010 
C 2720 1590 2330 1857 2074 2029 
L 1741 2264 
z
M 902 2822 
C 851 2854 595 3051 595 3351 
C 595 3739 998 4032 1459 4032 
C 1965 4032 2336 3676 2336 3262 
C 2336 2669 1670 2331 1638 2331 
C 1632 2331 1626 2331 1574 2370 
L 902 2822 
z
M 2080 1519 
C 2176 1449 2483 1240 2483 851 
C 2483 381 2010 25 1472 25 
C 890 25 448 438 448 940 
C 448 1443 838 1862 1280 2060 
L 2080 1519 
z
" transform="scale(0.015625)"/>
       </defs>
       <use xlink:href="#CMR17-38" transform="scale(0.996264)"/>
       <use xlink:href="#CMR17-30" transform="translate(45.690477 0) scale(0.996264)"/>
       <use xlink:href="#CMR17-30" transform="translate(91.380954 0) scale(0.996264)"/>
      </g>
     </g>
    </g>
    <g id="xtick_6">
     <g id="line2d_6">
      <g>
       <use xlink:href="#m2284a460d9" x="365.049943" y="273.312" style="stroke: #000000; stroke-width: 0.8"/>
      </g>
     </g>
     <g id="text_6">
      <!-- $\mathdefault{1000}$ -->
      <g transform="translate(355.087273 287.230498) scale(0.1 -0.1)">
       <defs>
        <path id="CMR17-31" d="M 1702 4058 
C 1702 4192 1696 4192 1606 4192 
C 1357 3916 979 3827 621 3827 
C 602 3827 570 3827 563 3808 
C 557 3795 557 3782 557 3648 
C 755 3648 1088 3686 1344 3839 
L 1344 461 
C 1344 236 1331 160 781 160 
L 589 160 
L 589 0 
C 896 0 1216 0 1523 0 
C 1830 0 2150 0 2458 0 
L 2458 160 
L 2266 160 
C 1715 160 1702 230 1702 458 
L 1702 4058 
z
" transform="scale(0.015625)"/>
       </defs>
       <use xlink:href="#CMR17-31" transform="scale(0.996264)"/>
       <use xlink:href="#CMR17-30" transform="translate(45.690477 0) scale(0.996264)"/>
       <use xlink:href="#CMR17-30" transform="translate(91.380954 0) scale(0.996264)"/>
       <use xlink:href="#CMR17-30" transform="translate(137.071431 0) scale(0.996264)"/>
      </g>
     </g>
    </g>
   </g>
   <g id="matplotlib.axis_2">
    <g id="ytick_1">
     <g id="line2d_7">
      <defs>
       <path id="m07df5f4ccd" d="M 0 0 
L -3.5 0 
" style="stroke: #000000; stroke-width: 0.8"/>
      </defs>
      <g>
       <use xlink:href="#m07df5f4ccd" x="24.162671" y="261.216" style="stroke: #000000; stroke-width: 0.8"/>
      </g>
     </g>
     <g id="text_7">
      <!-- $\mathdefault{0}$ -->
      <g transform="translate(12.181335 264.675249) scale(0.1 -0.1)">
       <use xlink:href="#CMR17-30" transform="scale(0.996264)"/>
      </g>
     </g>
    </g>
    <g id="ytick_2">
     <g id="line2d_8">
      <g>
       <use xlink:href="#m07df5f4ccd" x="24.162671" y="208.530851" style="stroke: #000000; stroke-width: 0.8"/>
      </g>
     </g>
     <g id="text_8">
      <!-- $\mathdefault{20}$ -->
      <g transform="translate(7.2 211.9901) scale(0.1 -0.1)">
       <use xlink:href="#CMR17-32" transform="scale(0.996264)"/>
       <use xlink:href="#CMR17-30" transform="translate(45.690477 0) scale(0.996264)"/>
      </g>
     </g>
    </g>
    <g id="ytick_3">
     <g id="line2d_9">
      <g>
       <use xlink:href="#m07df5f4ccd" x="24.162671" y="155.845702" style="stroke: #000000; stroke-width: 0.8"/>
      </g>
     </g>
     <g id="text_9">
      <!-- $\mathdefault{40}$ -->
      <g transform="translate(7.2 159.304952) scale(0.1 -0.1)">
       <use xlink:href="#CMR17-34" transform="scale(0.996264)"/>
       <use xlink:href="#CMR17-30" transform="translate(45.690477 0) scale(0.996264)"/>
      </g>
     </g>
    </g>
    <g id="ytick_4">
     <g id="line2d_10">
      <g>
       <use xlink:href="#m07df5f4ccd" x="24.162671" y="103.160554" style="stroke: #000000; stroke-width: 0.8"/>
      </g>
     </g>
     <g id="text_10">
      <!-- $\mathdefault{60}$ -->
      <g transform="translate(7.2 106.619803) scale(0.1 -0.1)">
       <use xlink:href="#CMR17-36" transform="scale(0.996264)"/>
       <use xlink:href="#CMR17-30" transform="translate(45.690477 0) scale(0.996264)"/>
      </g>
     </g>
    </g>
    <g id="ytick_5">
     <g id="line2d_11">
      <g>
       <use xlink:href="#m07df5f4ccd" x="24.162671" y="50.475405" style="stroke: #000000; stroke-width: 0.8"/>
      </g>
     </g>
     <g id="text_11">
      <!-- $\mathdefault{80}$ -->
      <g transform="translate(7.2 53.934654) scale(0.1 -0.1)">
       <use xlink:href="#CMR17-38" transform="scale(0.996264)"/>
       <use xlink:href="#CMR17-30" transform="translate(45.690477 0) scale(0.996264)"/>
      </g>
     </g>
    </g>
   </g>
   <g id="line2d_12">
    <path d="M 40.395398 32.010781 
L 41.694016 31.388518 
L 43.966598 29.990336 
L 46.563834 28.465567 
L 47.862452 27.935253 
L 49.485725 27.536204 
L 51.433652 27.3076 
L 54.680198 27.180604 
L 63.770525 27.142772 
L 364.725289 27.142128 
L 365.049943 261.216 
L 365.049943 261.216 
" clip-path="url(#pc68ce0a4d0)" style="fill: none; stroke: #e46e56; stroke-width: 1.5; stroke-linecap: square"/>
   </g>
   <g id="line2d_13">
    <path d="M 40.395398 28.691905 
L 41.369361 28.371368 
L 42.343325 28.095126 
L 42.992634 28.349052 
L 43.641943 28.405592 
L 45.265216 27.773528 
L 45.589871 27.730977 
L 46.23918 27.83805 
L 47.537798 27.861528 
L 48.511761 28.16975 
L 48.836416 28.096935 
L 49.485725 28.360474 
L 50.459689 27.758233 
L 51.108998 27.660013 
L 51.433652 27.469316 
L 52.732271 27.43705 
L 53.706234 27.640109 
L 54.355543 27.537022 
L 55.004852 27.424282 
L 55.978816 27.258164 
L 56.303471 27.332292 
L 56.628125 27.252092 
L 57.277434 27.363494 
L 58.251398 27.08732 
L 58.576052 27.19802 
L 59.550016 27.161736 
L 60.52398 27.188646 
L 61.173289 27.047229 
L 61.497943 27.099008 
L 62.147252 26.994354 
L 63.121216 27.174537 
L 63.445871 27.335266 
L 64.744489 27.328138 
L 65.718452 27.334493 
L 66.043107 28.009835 
L 66.692416 28.179462 
L 68.315689 28.084113 
L 69.614307 27.492278 
L 72.536198 26.836526 
L 72.860852 26.947144 
L 74.80878 26.69002 
L 75.133434 26.885146 
L 75.458089 26.842895 
L 76.432052 27.116317 
L 77.406016 27.105103 
L 77.730671 27.213314 
L 78.055325 27.18739 
L 78.704634 27.652167 
L 79.029289 27.975968 
L 79.678598 28.023033 
L 80.652561 28.12471 
L 80.977216 29.016601 
L 81.301871 29.139098 
L 82.275834 29.017912 
L 82.925143 28.638552 
L 83.574452 28.448206 
L 83.899107 28.547483 
L 84.223761 28.306631 
L 85.197725 28.098757 
L 85.847034 27.970318 
L 86.171689 27.882163 
L 86.496343 28.394373 
L 86.820998 28.542133 
L 87.145652 28.510744 
L 87.470307 28.593835 
L 88.119616 28.447294 
L 88.444271 28.213897 
L 89.418234 28.129082 
L 90.067543 27.803944 
L 90.392198 27.92081 
L 92.66478 27.497319 
L 94.937361 27.530849 
L 96.885289 27.176601 
L 99.482525 27.179496 
L 99.80718 27.359145 
L 101.105798 27.213348 
L 102.079761 27.297156 
L 102.404416 27.11055 
L 102.729071 27.188901 
L 103.053725 27.113283 
L 104.352343 27.419491 
L 105.001652 27.19075 
L 105.650961 27.341597 
L 106.624925 27.135424 
L 106.94958 27.263326 
L 109.546816 27.179789 
L 110.196125 27.227239 
L 110.52078 27.067517 
L 111.819398 26.879251 
L 112.468707 26.85707 
L 114.416634 27.072027 
L 114.741289 26.910937 
L 115.715252 27.053654 
L 116.039907 26.926426 
L 116.364561 27.115884 
L 117.013871 27.014299 
L 117.338525 27.270458 
L 117.66318 27.332009 
L 117.987834 27.549044 
L 120.585071 27.533648 
L 121.23438 27.384267 
L 121.883689 27.700107 
L 122.532998 27.800155 
L 123.182307 27.632883 
L 123.506961 27.558509 
L 123.831616 27.340921 
L 124.156271 27.272579 
L 124.80558 27.425546 
L 125.130234 27.302824 
L 126.104198 27.504202 
L 127.078161 27.332528 
L 127.402816 27.216424 
L 127.727471 27.259097 
L 128.052125 27.110971 
L 128.701434 27.126135 
L 129.026089 26.996575 
L 129.350743 27.170029 
L 131.298671 27.141341 
L 131.94798 27.185861 
L 132.597289 27.020974 
L 133.571252 27.077248 
L 134.545216 26.896122 
L 135.51918 27.201405 
L 137.791761 26.980529 
L 138.116416 27.300534 
L 140.713652 27.503204 
L 141.362961 27.627539 
L 141.687616 27.616254 
L 142.012271 27.732474 
L 142.66158 27.607672 
L 142.986234 27.403199 
L 143.960198 27.238442 
L 144.609507 27.518331 
L 145.583471 27.406622 
L 146.23278 27.233215 
L 146.882089 27.209889 
L 147.206743 27.27142 
L 147.856052 27.219783 
L 148.505361 27.246657 
L 149.154671 26.858455 
L 151.751907 27.234522 
L 152.076561 27.131892 
L 152.725871 27.197758 
L 153.699834 29.026116 
L 154.024489 29.12026 
L 154.673798 29.519069 
L 155.323107 29.525129 
L 155.647761 29.341165 
L 156.297071 29.26713 
L 156.621725 29.427588 
L 156.94638 29.395827 
L 157.271034 29.662832 
L 158.244998 30.013575 
L 158.569652 29.988165 
L 158.894307 29.772895 
L 159.218961 29.845549 
L 160.51758 29.549478 
L 161.166889 29.605027 
L 161.491543 29.763778 
L 161.816198 29.773025 
L 162.140852 30.00076 
L 163.764125 30.408391 
L 164.413434 30.600869 
L 164.738089 30.298984 
L 165.712052 29.791426 
L 166.361361 29.23752 
L 167.65998 28.305026 
L 169.932561 27.573444 
L 170.257216 27.532943 
L 170.906525 27.602364 
L 171.880489 27.431109 
L 172.854452 27.341782 
L 173.503761 27.314378 
L 175.127034 27.419744 
L 175.451689 27.545783 
L 177.074961 27.429823 
L 177.724271 27.351828 
L 178.048925 27.440068 
L 179.347543 27.333292 
L 179.672198 27.393267 
L 179.996852 27.336531 
L 180.321507 27.453387 
L 181.295471 27.40373 
L 181.620125 27.38637 
L 181.94478 27.24224 
L 183.243398 27.209537 
L 183.892707 27.297479 
L 186.165289 27.042587 
L 186.489943 27.141824 
L 186.814598 27.728743 
L 187.139252 28.072024 
L 188.113216 28.090888 
L 188.437871 28.102333 
L 188.762525 27.998832 
L 189.736489 28.186533 
L 190.710452 27.787415 
L 191.035107 27.810068 
L 191.359761 27.68264 
L 191.684416 27.846284 
L 192.333725 27.806178 
L 192.983034 27.991327 
L 193.307689 27.896125 
L 193.956998 27.550182 
L 194.281652 27.499013 
L 194.606307 27.611271 
L 196.22958 27.298564 
L 196.554234 27.405488 
L 196.878889 27.277891 
L 197.528198 27.301314 
L 198.177507 27.28751 
L 199.476125 27.33874 
L 200.125434 27.459457 
L 202.073361 27.229228 
L 202.722671 27.431845 
L 203.047325 27.319229 
L 203.696634 27.281664 
L 204.021289 27.261077 
L 204.345943 27.376552 
L 208.241798 27.029303 
L 208.566452 27.123062 
L 209.215761 27.053128 
L 209.865071 27.213854 
L 210.51438 27.258326 
L 210.839034 27.253031 
L 211.163689 27.102132 
L 212.786961 27.029789 
L 213.436271 26.868891 
L 213.760925 26.781245 
L 214.08558 26.9114 
L 214.410234 26.795754 
L 216.358161 26.888046 
L 217.332125 26.828191 
L 217.981434 26.803412 
L 218.630743 26.831792 
L 219.604707 27.056889 
L 219.929361 26.999762 
L 220.903325 27.116813 
L 222.201943 27.277909 
L 222.526598 27.430671 
L 223.500561 27.328227 
L 223.825216 27.256946 
L 224.474525 27.304216 
L 226.097798 27.237602 
L 226.422452 27.081254 
L 227.396416 27.22746 
L 227.721071 27.430479 
L 228.045725 27.318859 
L 228.37038 27.375095 
L 229.019689 27.192943 
L 230.642961 27.587609 
L 231.292271 27.410444 
L 231.616925 27.487093 
L 232.590889 27.440362 
L 233.889507 27.480877 
L 234.538816 27.291403 
L 235.188125 27.281893 
L 235.837434 27.369989 
L 236.162089 27.523245 
L 236.486743 28.40643 
L 237.136052 28.478603 
L 237.460707 28.694571 
L 238.110016 28.503644 
L 238.434671 28.522303 
L 239.08398 28.312007 
L 242.005871 27.647164 
L 242.979834 27.645166 
L 243.304489 27.502428 
L 244.278452 27.791644 
L 244.603107 27.713928 
L 244.927761 27.992814 
L 246.22638 28.178046 
L 246.875689 29.512817 
L 247.524998 29.64237 
L 247.849652 29.495005 
L 248.174307 29.215527 
L 248.823616 29.241106 
L 249.472925 29.423835 
L 250.122234 29.494506 
L 251.420852 28.909808 
L 252.070161 28.582284 
L 253.044125 28.327756 
L 253.36878 28.173963 
L 254.342743 28.142152 
L 255.316707 27.772326 
L 255.641361 28.329919 
L 256.290671 28.528873 
L 257.589289 28.744432 
L 258.238598 28.421768 
L 258.887907 28.485318 
L 259.212561 29.301973 
L 259.537216 29.797689 
L 262.134452 30.418038 
L 262.459107 30.665921 
L 263.108416 30.798281 
L 263.433071 31.228902 
L 263.757725 31.407892 
L 264.08238 31.719648 
L 264.407034 32.511339 
L 265.380998 36.581942 
L 265.705652 37.719144 
L 267.328925 37.784572 
L 267.65358 37.889847 
L 267.978234 37.876177 
L 268.952198 38.070643 
L 269.276852 38.164262 
L 270.250816 38.126888 
L 270.575471 38.12753 
L 271.22478 38.363742 
L 271.874089 38.390693 
L 272.523398 38.207688 
L 272.848052 38.326205 
L 273.172707 38.236763 
L 273.822016 38.449716 
L 274.471325 38.445352 
L 275.120634 38.546111 
L 275.445289 38.654633 
L 277.068561 38.693278 
L 277.393216 38.794875 
L 278.042525 38.717283 
L 278.36718 39.4486 
L 279.016489 39.714142 
L 279.341143 39.843033 
L 279.990452 39.831461 
L 280.639761 40.095294 
L 280.964416 40.360285 
L 281.289071 40.470356 
L 281.613725 41.163466 
L 283.236998 42.004663 
L 283.561652 42.050969 
L 283.886307 42.318364 
L 284.535616 42.412494 
L 285.184925 42.711037 
L 285.50958 43.173701 
L 287.782161 44.368336 
L 288.431471 44.133552 
L 289.730089 43.195208 
L 291.353361 42.53515 
L 291.678016 42.694756 
L 292.002671 42.568844 
L 292.327325 42.565037 
L 292.65198 42.356036 
L 293.301289 41.523927 
L 294.275252 40.620846 
L 294.924561 40.345616 
L 296.872489 40.206085 
L 298.820416 39.274297 
L 300.119034 39.224674 
L 300.768343 38.991267 
L 301.417652 38.919146 
L 302.066961 38.700594 
L 302.391616 38.804802 
L 302.716271 38.665913 
L 303.690234 38.635402 
L 304.014889 38.62884 
L 305.313507 38.256819 
L 305.638161 38.341946 
L 305.962816 38.287218 
L 306.93678 38.543277 
L 307.586089 38.547204 
L 308.235398 38.631384 
L 308.884707 38.548102 
L 310.50798 38.878944 
L 310.832634 38.763915 
L 311.806598 38.983943 
L 312.455907 38.714907 
L 313.754525 38.693219 
L 314.07918 38.758419 
L 315.377798 38.58 
L 315.702452 38.71542 
L 316.676416 38.708163 
L 317.001071 38.572208 
L 317.325725 38.614845 
L 317.975034 38.459295 
L 318.299689 38.613759 
L 318.624343 38.5862 
L 319.273652 38.705537 
L 321.546234 38.72805 
L 321.870889 38.664694 
L 322.520198 38.703292 
L 323.494161 38.841434 
L 323.818816 39.398291 
L 324.143471 39.654429 
L 324.468125 40.072588 
L 324.79278 40.126669 
L 325.117434 40.583349 
L 325.442089 40.750451 
L 325.766743 40.777983 
L 326.091398 40.987835 
L 326.740707 40.981534 
L 327.390016 40.556066 
L 328.36398 40.157206 
L 329.013289 39.81585 
L 329.337943 39.843414 
L 329.662598 39.475846 
L 330.311907 39.270986 
L 330.636561 39.090748 
L 331.285871 39.215761 
L 331.610525 38.975156 
L 331.93518 39.006094 
L 332.584489 38.897556 
L 334.207761 38.862354 
L 334.532416 38.769932 
L 335.831034 38.891769 
L 336.804998 38.874003 
L 337.454307 38.815829 
L 338.103616 38.974803 
L 338.752925 38.908852 
L 339.07758 39.007027 
L 340.700852 38.65285 
L 341.025507 38.773213 
L 341.350161 38.762459 
L 341.674816 38.876973 
L 342.324125 38.764735 
L 343.947398 38.708687 
L 344.921361 38.634631 
L 345.246016 38.716068 
L 346.21998 38.638823 
L 346.869289 38.629936 
L 347.843252 38.548059 
L 348.492561 38.620721 
L 348.817216 38.560482 
L 349.79118 38.682925 
L 351.414452 38.954835 
L 351.739107 38.848797 
L 352.388416 38.844338 
L 352.713071 38.69032 
L 353.36238 38.559065 
L 354.011689 38.455748 
L 354.660998 38.654787 
L 354.985652 38.628561 
L 355.310307 38.744952 
L 356.284271 38.667465 
L 356.608925 38.790815 
L 356.93358 38.675088 
L 357.258234 38.754721 
L 359.206161 38.441886 
L 359.855471 38.377788 
L 360.180125 38.647057 
L 361.154089 38.637667 
L 361.803398 38.449314 
L 363.751325 38.584881 
L 364.400634 38.7053 
L 364.725289 38.695355 
L 365.049943 261.216 
L 365.049943 261.216 
" clip-path="url(#pc68ce0a4d0)" style="fill: none; stroke: #d1dae9; stroke-width: 1.5; stroke-linecap: square"/>
   </g>
   <g id="line2d_14">
    <path d="M 40.395398 23.353799 
L 41.044707 24.356432 
L 41.694016 26.567767 
L 42.018671 26.491302 
L 42.343325 25.455971 
L 42.66798 26.194601 
L 42.992634 24.948178 
L 43.317289 24.206367 
L 43.641943 24.125492 
L 43.966598 24.724503 
L 44.291252 24.153654 
L 44.615907 23.861242 
L 44.940561 24.4534 
L 45.265216 25.849359 
L 45.589871 25.075469 
L 45.914525 25.288822 
L 46.23918 26.851234 
L 46.563834 26.251615 
L 46.888489 24.354858 
L 47.213143 25.026163 
L 47.537798 24.220289 
L 47.862452 23.889904 
L 48.187107 25.24081 
L 48.511761 27.743764 
L 49.161071 29.289607 
L 49.485725 28.872816 
L 49.81038 29.65875 
L 50.459689 29.73626 
L 50.784343 30.301457 
L 51.433652 33.053968 
L 51.758307 31.423517 
L 52.082961 30.920106 
L 52.407616 29.49524 
L 52.732271 29.93824 
L 53.056925 30.124589 
L 53.38158 29.723954 
L 53.706234 30.933543 
L 54.030889 29.29442 
L 54.355543 29.098119 
L 54.680198 27.4241 
L 55.004852 27.013777 
L 55.329507 25.346904 
L 55.978816 20.835225 
L 56.303471 21.04938 
L 56.628125 23.443954 
L 56.95278 24.14119 
L 57.277434 25.491324 
L 57.602089 24.124391 
L 57.926743 24.728155 
L 58.251398 23.826378 
L 58.900707 26.194656 
L 59.225361 26.257637 
L 59.874671 25.621599 
L 60.199325 26.281357 
L 60.52398 26.596913 
L 60.848634 28.584448 
L 61.173289 26.816976 
L 61.497943 28.074908 
L 61.822598 28.045541 
L 62.147252 27.126947 
L 62.796561 29.767633 
L 63.121216 29.449201 
L 63.445871 25.960836 
L 63.770525 26.347643 
L 64.09518 29.125586 
L 64.419834 27.595215 
L 64.744489 27.065901 
L 65.069143 27.124194 
L 65.393798 27.981795 
L 65.718452 28.29056 
L 66.043107 27.603565 
L 66.367761 27.729347 
L 66.692416 26.89321 
L 67.017071 27.227732 
L 67.341725 28.775612 
L 67.66638 26.19705 
L 67.991034 25.610392 
L 68.315689 27.521559 
L 68.640343 27.096886 
L 68.964998 24.857841 
L 69.289652 24.924809 
L 69.614307 24.22537 
L 69.938961 25.263709 
L 70.263616 25.816807 
L 70.588271 25.987196 
L 70.912925 25.862832 
L 71.23758 26.359549 
L 71.562234 26.323703 
L 71.886889 25.205859 
L 72.211543 25.774029 
L 72.536198 27.056686 
L 72.860852 29.151221 
L 73.510161 24.941166 
L 73.834816 26.005621 
L 74.159471 25.052541 
L 74.484125 25.8647 
L 74.80878 26.108609 
L 75.133434 23.545298 
L 75.458089 24.020403 
L 75.782743 22.915415 
L 76.107398 23.253234 
L 76.432052 21.950608 
L 76.756707 24.723734 
L 77.081361 24.757545 
L 77.730671 21.888416 
L 78.055325 23.718271 
L 78.37998 23.439988 
L 79.029289 22.50026 
L 79.353943 22.516705 
L 79.678598 24.221099 
L 80.003252 24.612416 
L 80.652561 26.133911 
L 80.977216 26.0902 
L 81.301871 24.411261 
L 81.626525 24.343144 
L 81.95118 26.07392 
L 82.275834 26.77704 
L 82.600489 26.064725 
L 82.925143 24.355588 
L 83.249798 24.991535 
L 83.574452 25.184689 
L 83.899107 25.179216 
L 84.223761 25.987438 
L 84.548416 25.278548 
L 84.873071 24.139349 
L 85.197725 24.738037 
L 85.52238 25.767719 
L 85.847034 24.997623 
L 86.171689 25.278856 
L 86.496343 25.170206 
L 86.820998 24.113378 
L 87.145652 24.877857 
L 87.470307 27.030648 
L 87.794961 27.76671 
L 88.119616 26.876167 
L 88.444271 25.481382 
L 88.768925 25.962446 
L 89.09358 25.745203 
L 89.418234 26.347988 
L 89.742889 28.995336 
L 90.067543 29.5599 
L 90.392198 31.136924 
L 91.041507 28.457552 
L 91.366161 28.604936 
L 91.690816 27.695008 
L 92.015471 28.130293 
L 92.340125 28.136326 
L 92.989434 25.433623 
L 93.314089 23.040273 
L 93.638743 25.083853 
L 93.963398 26.391028 
L 94.288052 26.329215 
L 94.612707 26.920759 
L 94.937361 27.215688 
L 95.586671 25.000173 
L 95.911325 26.331507 
L 96.23598 25.516878 
L 96.560634 25.385999 
L 96.885289 27.489721 
L 97.209943 26.759559 
L 97.534598 24.001379 
L 97.859252 24.570259 
L 98.183907 24.000418 
L 98.508561 22.1274 
L 98.833216 21.7733 
L 99.157871 23.186858 
L 99.482525 23.503424 
L 100.131834 24.670383 
L 100.456489 24.24306 
L 100.781143 25.562686 
L 101.105798 25.840024 
L 101.430452 26.308991 
L 102.079761 29.344899 
L 102.404416 28.291933 
L 102.729071 28.603628 
L 103.053725 29.263768 
L 103.703034 28.807788 
L 104.027689 28.452215 
L 104.352343 26.228026 
L 104.676998 25.351833 
L 105.001652 25.473236 
L 105.650961 26.745302 
L 106.300271 25.082887 
L 106.624925 25.368066 
L 106.94958 25.188427 
L 107.274234 23.450588 
L 107.598889 23.798065 
L 107.923543 25.136382 
L 108.248198 24.801418 
L 108.572852 26.20689 
L 108.897507 26.432308 
L 109.222161 27.350602 
L 109.546816 26.103722 
L 110.196125 27.889399 
L 110.52078 29.803344 
L 110.845434 28.337413 
L 111.170089 27.863755 
L 111.494743 29.270986 
L 111.819398 29.320991 
L 112.144052 27.665831 
L 112.468707 28.368931 
L 112.793361 28.251964 
L 113.118016 28.917734 
L 113.442671 28.741182 
L 113.767325 28.039837 
L 114.09198 28.697907 
L 114.416634 28.85542 
L 114.741289 29.230186 
L 115.390598 25.862954 
L 115.715252 25.479153 
L 116.039907 26.889217 
L 116.364561 26.279026 
L 116.689216 29.129696 
L 117.013871 27.279688 
L 117.338525 28.281809 
L 117.66318 27.507823 
L 117.987834 27.879245 
L 118.312489 25.532293 
L 118.637143 25.592847 
L 118.961798 23.694587 
L 119.286452 24.044458 
L 119.611107 23.987645 
L 119.935761 23.440094 
L 120.260416 22.422751 
L 120.585071 23.568164 
L 120.909725 24.016183 
L 121.23438 24.128065 
L 121.559034 23.208513 
L 121.883689 24.256451 
L 122.208343 24.645924 
L 122.532998 24.525543 
L 122.857652 24.702182 
L 123.182307 24.719988 
L 123.506961 25.073593 
L 123.831616 24.726671 
L 124.156271 23.010026 
L 124.480925 23.058076 
L 124.80558 22.863865 
L 125.130234 24.509948 
L 125.454889 25.227587 
L 125.779543 23.628553 
L 126.104198 24.118604 
L 126.428852 23.791945 
L 126.753507 22.862698 
L 127.078161 22.988389 
L 127.402816 23.489051 
L 127.727471 21.086467 
L 128.052125 22.869496 
L 128.701434 21.813901 
L 129.026089 21.909777 
L 129.350743 21.69364 
L 129.675398 22.098137 
L 130.324707 20.915109 
L 130.974016 22.644343 
L 131.298671 23.981569 
L 131.94798 23.753597 
L 132.272634 23.150708 
L 132.597289 23.099152 
L 132.921943 21.992353 
L 133.895907 26.074672 
L 134.220561 23.502464 
L 134.545216 24.429478 
L 134.869871 23.686194 
L 135.194525 23.568978 
L 135.51918 25.094201 
L 136.493143 25.657638 
L 136.817798 25.290851 
L 137.142452 24.430919 
L 137.467107 25.134709 
L 137.791761 25.47457 
L 138.116416 27.289639 
L 138.765725 27.732773 
L 139.09038 25.877808 
L 139.415034 25.545772 
L 140.064343 26.956765 
L 140.388998 25.173103 
L 140.713652 25.539898 
L 141.038307 25.337939 
L 141.362961 24.372993 
L 141.687616 24.256618 
L 142.012271 24.478845 
L 142.986234 22.176184 
L 143.310889 23.771108 
L 143.635543 24.576172 
L 143.960198 23.474711 
L 144.284852 23.965073 
L 144.609507 27.033302 
L 144.934161 26.20465 
L 145.258816 28.557009 
L 145.583471 27.544386 
L 145.908125 29.581319 
L 146.23278 27.953397 
L 146.557434 28.570475 
L 146.882089 28.074186 
L 147.206743 26.539266 
L 147.531398 25.57513 
L 147.856052 26.003433 
L 148.180707 26.833672 
L 148.505361 26.460754 
L 148.830016 28.503137 
L 149.154671 28.584375 
L 149.479325 29.303604 
L 149.80398 27.616093 
L 150.128634 27.489146 
L 150.453289 27.008835 
L 150.777943 26.100449 
L 151.102598 23.793887 
L 151.427252 23.542188 
L 151.751907 25.940312 
L 152.076561 23.768577 
L 152.401216 22.900869 
L 152.725871 23.451587 
L 153.050525 22.379118 
L 153.37518 22.447976 
L 153.699834 21.761705 
L 154.024489 21.691164 
L 154.349143 23.163933 
L 154.673798 22.511115 
L 154.998452 22.472149 
L 155.323107 23.908925 
L 155.647761 26.315324 
L 155.972416 25.050374 
L 156.297071 26.056365 
L 156.621725 25.294214 
L 156.94638 26.082806 
L 157.271034 24.503345 
L 157.595689 24.711677 
L 157.920343 25.728668 
L 158.569652 24.610465 
L 158.894307 23.66059 
L 159.543616 24.890292 
L 159.868271 24.062814 
L 160.51758 27.372612 
L 160.842234 27.187163 
L 161.166889 24.146112 
L 161.491543 24.580256 
L 161.816198 25.82107 
L 162.140852 26.314553 
L 162.465507 25.811 
L 162.790161 23.817128 
L 163.114816 24.735325 
L 163.439471 25.994279 
L 163.764125 25.661033 
L 164.08878 25.623152 
L 164.413434 25.142611 
L 164.738089 26.116413 
L 165.062743 23.934472 
L 165.387398 23.254282 
L 165.712052 23.482334 
L 166.361361 19.486398 
L 167.010671 22.476323 
L 167.335325 22.736765 
L 167.65998 22.435238 
L 167.984634 23.620153 
L 168.309289 22.531795 
L 168.633943 24.38661 
L 169.283252 26.387402 
L 169.607907 27.290616 
L 170.257216 24.470123 
L 170.581871 22.574628 
L 170.906525 23.942966 
L 171.23118 26.192953 
L 171.555834 26.392837 
L 171.880489 25.381536 
L 172.205143 23.217579 
L 172.529798 21.834494 
L 173.179107 21.191782 
L 173.503761 24.020371 
L 173.828416 23.141717 
L 174.153071 24.733791 
L 174.477725 24.2852 
L 175.127034 22.719941 
L 175.451689 23.13647 
L 175.776343 22.223906 
L 176.100998 23.091502 
L 176.425652 23.246916 
L 177.074961 25.121519 
L 177.399616 24.703223 
L 177.724271 26.24617 
L 178.048925 26.367083 
L 178.37358 26.753143 
L 178.698234 28.570122 
L 179.022889 27.331865 
L 179.347543 27.100438 
L 180.321507 28.846235 
L 180.646161 27.990089 
L 180.970816 28.231237 
L 181.295471 28.182322 
L 181.620125 26.549894 
L 181.94478 27.488276 
L 182.269434 27.74556 
L 182.594089 27.787965 
L 182.918743 26.599972 
L 183.243398 27.371882 
L 183.568052 26.889318 
L 183.892707 25.946855 
L 184.217361 25.670636 
L 184.542016 27.571179 
L 185.191325 25.752191 
L 185.840634 29.306439 
L 186.165289 30.242463 
L 186.489943 29.550516 
L 187.463907 28.39893 
L 187.788561 28.923038 
L 188.113216 30.320519 
L 188.437871 28.191171 
L 188.762525 28.324561 
L 189.08718 27.377815 
L 189.736489 27.923971 
L 190.061143 29.074391 
L 190.385798 27.810409 
L 191.035107 28.755901 
L 191.359761 27.855969 
L 191.684416 28.261997 
L 192.009071 27.850534 
L 192.333725 25.592748 
L 192.65838 25.130098 
L 193.307689 26.67908 
L 193.632343 26.771344 
L 193.956998 24.171266 
L 194.281652 23.127595 
L 194.606307 24.736842 
L 194.930961 25.260628 
L 195.255616 26.126769 
L 195.580271 26.426767 
L 196.554234 21.817379 
L 196.878889 21.697767 
L 197.203543 21.711648 
L 197.528198 22.838093 
L 197.852852 21.878382 
L 198.502161 20.575795 
L 198.826816 20.691096 
L 199.151471 22.073641 
L 199.476125 22.295786 
L 199.80078 23.700783 
L 200.125434 24.176022 
L 200.450089 23.496737 
L 201.099398 26.141255 
L 201.424052 27.208388 
L 201.748707 27.537074 
L 202.073361 27.269702 
L 202.398016 28.415026 
L 202.722671 27.722858 
L 203.047325 27.614037 
L 203.37198 28.016231 
L 203.696634 26.921232 
L 204.995252 29.115205 
L 205.319907 28.406862 
L 205.644561 26.95393 
L 205.969216 27.36557 
L 206.618525 27.746775 
L 206.94318 29.295596 
L 207.267834 28.258042 
L 207.592489 27.726917 
L 207.917143 26.474578 
L 208.241798 26.355492 
L 208.566452 25.541671 
L 208.891107 26.417645 
L 209.215761 24.961029 
L 209.540416 24.680655 
L 209.865071 27.368069 
L 210.189725 24.735972 
L 210.51438 24.838517 
L 210.839034 26.078421 
L 211.812998 24.285181 
L 212.137652 24.264051 
L 212.786961 26.18197 
L 213.111616 23.398967 
L 213.436271 22.925353 
L 213.760925 22.658738 
L 215.384198 20.152542 
L 215.708852 20.376895 
L 216.358161 23.953299 
L 216.682816 23.638728 
L 217.007471 24.362531 
L 217.332125 25.91768 
L 217.65678 24.892692 
L 218.630743 19.804884 
L 218.955398 20.50328 
L 219.280052 20.305525 
L 219.604707 23.470615 
L 219.929361 24.882591 
L 220.578671 23.025157 
L 220.903325 25.826441 
L 221.22798 26.201773 
L 221.552634 26.158165 
L 221.877289 23.910754 
L 222.201943 25.751295 
L 222.526598 25.679647 
L 222.851252 22.891239 
L 223.175907 22.852431 
L 223.500561 22.998862 
L 223.825216 22.85167 
L 224.149871 23.961667 
L 224.474525 23.9508 
L 224.79918 22.779112 
L 225.123834 23.111888 
L 225.448489 22.957197 
L 225.773143 24.11133 
L 226.097798 24.379075 
L 226.422452 22.31588 
L 226.747107 22.132719 
L 227.071761 22.788547 
L 227.396416 23.098226 
L 228.045725 20.227722 
L 228.37038 19.789496 
L 228.695034 20.600486 
L 229.019689 20.114114 
L 229.344343 19.296 
L 229.668998 21.14121 
L 229.993652 20.720042 
L 230.318307 20.626939 
L 230.642961 21.359575 
L 230.967616 22.548429 
L 231.292271 23.266374 
L 231.94158 23.70222 
L 232.266234 23.389988 
L 232.590889 23.654716 
L 232.915543 21.701227 
L 233.240198 21.971393 
L 233.889507 21.075638 
L 234.538816 24.266521 
L 234.863471 24.625464 
L 235.188125 26.451076 
L 235.51278 23.349508 
L 235.837434 26.579772 
L 236.162089 27.642498 
L 236.486743 27.719912 
L 236.811398 28.192892 
L 237.136052 26.770873 
L 237.460707 27.309019 
L 237.785361 28.804402 
L 238.110016 27.597415 
L 238.434671 28.725577 
L 238.759325 28.146418 
L 239.08398 29.175708 
L 239.408634 28.994427 
L 239.733289 26.733386 
L 240.057943 27.281012 
L 240.382598 26.372718 
L 240.707252 27.788984 
L 241.031907 26.39848 
L 241.681216 26.350417 
L 242.005871 25.093773 
L 242.330525 25.69789 
L 242.65518 24.5955 
L 242.979834 25.581193 
L 243.304489 25.824977 
L 243.629143 25.877854 
L 243.953798 26.962923 
L 244.603107 25.767986 
L 244.927761 26.851272 
L 245.252416 25.076002 
L 245.577071 26.843364 
L 245.901725 25.510271 
L 246.22638 24.74906 
L 246.551034 25.156569 
L 246.875689 25.234822 
L 247.200343 24.513816 
L 247.524998 24.893552 
L 247.849652 25.908239 
L 248.174307 27.336117 
L 248.498961 27.844482 
L 248.823616 28.563576 
L 249.148271 29.742825 
L 249.472925 29.255582 
L 249.79758 29.72553 
L 250.122234 31.222779 
L 250.771543 28.926838 
L 251.096198 28.583159 
L 251.420852 29.040401 
L 251.745507 28.677351 
L 252.070161 25.865684 
L 252.394816 27.934953 
L 252.719471 28.583902 
L 253.044125 26.537417 
L 253.36878 26.986216 
L 253.693434 24.989018 
L 254.018089 25.054919 
L 254.667398 25.637225 
L 255.641361 24.913982 
L 255.966016 26.512101 
L 256.290671 26.343383 
L 256.615325 27.762814 
L 256.93998 27.766439 
L 257.264634 26.477424 
L 257.589289 26.426963 
L 257.913943 25.736123 
L 258.238598 25.945742 
L 258.563252 24.81379 
L 258.887907 25.251292 
L 259.212561 26.133771 
L 259.537216 24.02312 
L 259.861871 24.698126 
L 260.186525 24.443205 
L 260.51118 25.55406 
L 260.835834 25.206564 
L 261.809798 26.154519 
L 262.783761 21.969734 
L 263.108416 21.43695 
L 263.433071 22.374288 
L 263.757725 22.72352 
L 264.08238 23.362927 
L 264.731689 20.307937 
L 265.380998 24.636231 
L 265.705652 23.706286 
L 266.030307 24.280383 
L 266.354961 24.59994 
L 266.679616 25.188754 
L 267.328925 25.535986 
L 267.65358 26.428066 
L 267.978234 26.779786 
L 268.302889 28.215633 
L 268.627543 28.745152 
L 269.601507 29.19536 
L 269.926161 28.948249 
L 270.250816 31.112107 
L 270.575471 28.067646 
L 270.900125 27.733208 
L 271.22478 26.730954 
L 272.198743 25.236209 
L 272.523398 25.98609 
L 272.848052 27.60924 
L 273.172707 28.104519 
L 273.822016 29.316213 
L 274.146671 29.336577 
L 274.471325 29.875181 
L 274.79598 30.757956 
L 275.120634 30.55988 
L 275.445289 30.008196 
L 275.769943 28.32433 
L 276.094598 27.960037 
L 276.419252 29.037435 
L 277.068561 28.02178 
L 277.393216 29.132107 
L 277.717871 27.441549 
L 278.042525 26.84842 
L 278.36718 27.033682 
L 278.691834 26.736596 
L 279.016489 27.124091 
L 279.341143 26.026444 
L 279.665798 26.156545 
L 279.990452 27.427761 
L 280.315107 27.727355 
L 280.639761 29.163258 
L 281.289071 30.49382 
L 281.613725 26.353127 
L 281.93838 25.089574 
L 282.263034 26.308529 
L 282.587689 25.452309 
L 282.912343 23.805252 
L 283.236998 24.403868 
L 283.561652 24.248211 
L 283.886307 22.723034 
L 284.210961 22.361545 
L 284.535616 23.354321 
L 284.860271 23.866061 
L 285.184925 23.80329 
L 285.50958 24.567867 
L 285.834234 25.850834 
L 286.158889 24.269829 
L 286.808198 27.420784 
L 287.132852 27.807038 
L 287.457507 26.955399 
L 288.106816 24.24971 
L 288.431471 24.294148 
L 288.756125 23.222146 
L 289.08078 23.844816 
L 289.405434 23.353971 
L 289.730089 23.322013 
L 290.379398 21.486877 
L 290.704052 22.486247 
L 291.028707 21.841328 
L 291.353361 21.674921 
L 291.678016 21.864451 
L 292.002671 21.51183 
L 292.65198 24.077398 
L 292.976634 23.272515 
L 293.301289 24.988332 
L 293.625943 23.924152 
L 293.950598 24.984375 
L 294.275252 25.469785 
L 294.599907 28.592039 
L 294.924561 27.488872 
L 295.249216 27.419611 
L 295.573871 27.159298 
L 295.898525 24.849736 
L 296.22318 25.236353 
L 296.547834 25.803448 
L 296.872489 25.959671 
L 297.197143 26.635842 
L 297.521798 26.46755 
L 297.846452 26.169166 
L 298.171107 24.079793 
L 298.820416 25.453177 
L 299.469725 25.704625 
L 299.79438 24.082903 
L 300.119034 25.452864 
L 300.443689 24.409953 
L 300.768343 23.960026 
L 301.092998 26.605037 
L 301.417652 27.442957 
L 301.742307 27.194403 
L 302.066961 26.743601 
L 302.716271 28.000819 
L 303.36558 27.289617 
L 304.014889 27.591471 
L 304.664198 24.897245 
L 304.988852 25.682245 
L 305.313507 25.637718 
L 305.638161 25.33113 
L 305.962816 25.259032 
L 306.287471 24.852835 
L 306.612125 24.258993 
L 307.261434 24.867225 
L 307.586089 24.244413 
L 307.910743 24.691918 
L 308.235398 24.260855 
L 308.560052 24.09512 
L 308.884707 24.824363 
L 309.209361 24.616999 
L 309.534016 25.335307 
L 309.858671 23.954437 
L 310.183325 24.045246 
L 310.50798 22.487253 
L 310.832634 23.788367 
L 311.157289 22.695058 
L 311.806598 25.405967 
L 312.131252 25.848549 
L 312.455907 26.742938 
L 312.780561 26.542249 
L 313.105216 26.82526 
L 313.429871 28.783895 
L 313.754525 28.157836 
L 314.07918 27.259109 
L 314.403834 26.744327 
L 314.728489 26.67133 
L 315.053143 26.223223 
L 315.377798 26.79085 
L 315.702452 25.345974 
L 316.027107 24.842699 
L 316.351761 23.979474 
L 316.676416 24.447056 
L 317.001071 24.024229 
L 317.325725 23.881796 
L 317.65038 22.770635 
L 317.975034 22.96983 
L 318.299689 24.40267 
L 318.624343 23.541118 
L 318.948998 24.116303 
L 319.273652 24.238422 
L 319.598307 25.068748 
L 319.922961 24.808237 
L 320.247616 26.092069 
L 320.572271 26.056388 
L 320.896925 26.741763 
L 321.22158 26.241504 
L 321.546234 26.207712 
L 321.870889 25.205334 
L 322.520198 25.009766 
L 322.844852 25.212913 
L 323.169507 26.941303 
L 323.494161 28.005046 
L 324.468125 24.826614 
L 324.79278 26.783046 
L 325.442089 29.176614 
L 325.766743 28.823746 
L 326.091398 30.045278 
L 326.416052 28.654572 
L 326.740707 28.57761 
L 327.065361 27.293541 
L 327.390016 28.405354 
L 327.714671 28.446954 
L 328.039325 27.880655 
L 328.688634 29.73224 
L 329.013289 29.840859 
L 329.337943 31.28104 
L 329.662598 31.792472 
L 329.987252 30.674426 
L 330.311907 31.56375 
L 330.961216 34.758103 
L 331.610525 36.483074 
L 331.93518 36.254311 
L 332.259834 35.361944 
L 332.584489 35.000663 
L 332.909143 33.114307 
L 333.233798 32.220353 
L 333.558452 33.585763 
L 333.883107 33.576409 
L 334.207761 32.86108 
L 335.181725 36.649385 
L 335.50638 36.564156 
L 335.831034 35.277202 
L 336.480343 35.181158 
L 336.804998 36.211149 
L 337.129652 34.981974 
L 337.778961 36.522844 
L 338.103616 35.647897 
L 338.428271 34.190715 
L 338.752925 34.109035 
L 339.402234 32.009544 
L 339.726889 31.440128 
L 340.376198 34.939755 
L 340.700852 34.722525 
L 341.025507 34.816054 
L 341.350161 33.94221 
L 341.674816 30.921043 
L 341.999471 31.435064 
L 342.324125 31.03846 
L 342.64878 31.329031 
L 342.973434 30.171228 
L 343.298089 30.300044 
L 343.622743 29.630786 
L 343.947398 30.365698 
L 344.272052 28.893095 
L 344.596707 29.811938 
L 344.921361 29.592811 
L 345.246016 29.809412 
L 345.570671 29.246072 
L 345.895325 27.905302 
L 346.21998 30.30203 
L 346.544634 30.068749 
L 346.869289 28.639096 
L 347.193943 28.278556 
L 347.518598 28.315406 
L 347.843252 27.668256 
L 348.167907 26.067868 
L 348.492561 26.576887 
L 348.817216 26.836366 
L 349.141871 27.537085 
L 349.466525 27.201497 
L 349.79118 26.676489 
L 350.115834 27.572024 
L 350.765143 27.969727 
L 351.089798 28.497916 
L 351.414452 28.736662 
L 351.739107 28.596797 
L 352.063761 29.827754 
L 352.388416 29.869784 
L 352.713071 28.59708 
L 353.037725 28.849965 
L 353.36238 28.580617 
L 354.011689 29.581157 
L 354.660998 27.519406 
L 354.985652 27.983299 
L 355.310307 27.228478 
L 355.959616 27.690379 
L 356.284271 25.849928 
L 356.608925 26.481864 
L 356.93358 26.271591 
L 357.258234 25.153841 
L 357.582889 27.171297 
L 357.907543 27.957298 
L 358.232198 26.17417 
L 358.556852 28.979502 
L 358.881507 28.497807 
L 359.206161 26.118714 
L 359.530816 26.684831 
L 359.855471 26.483913 
L 360.180125 27.053731 
L 360.50478 25.023587 
L 360.829434 25.042829 
L 361.478743 23.812684 
L 361.803398 23.821682 
L 362.128052 22.665945 
L 362.452707 22.797513 
L 362.777361 22.014939 
L 363.102016 22.580098 
L 363.426671 24.342756 
L 363.751325 24.195914 
L 364.07598 25.310733 
L 364.400634 24.790092 
L 364.725289 23.387794 
L 365.049943 261.216 
L 365.049943 261.216 
" clip-path="url(#pc68ce0a4d0)" style="fill: none; stroke: #3a4cc0; stroke-width: 1.5; stroke-linecap: square"/>
   </g>
   <g id="patch_3">
    <path d="M 24.162671 273.312 
L 24.162671 7.2 
" style="fill: none; stroke: #000000; stroke-width: 0.8; stroke-linejoin: miter; stroke-linecap: square"/>
   </g>
   <g id="patch_4">
    <path d="M 381.282671 273.312 
L 381.282671 7.2 
" style="fill: none; stroke: #000000; stroke-width: 0.8; stroke-linejoin: miter; stroke-linecap: square"/>
   </g>
   <g id="patch_5">
    <path d="M 24.162671 273.312 
L 381.282671 273.312 
" style="fill: none; stroke: #000000; stroke-width: 0.8; stroke-linejoin: miter; stroke-linecap: square"/>
   </g>
   <g id="patch_6">
    <path d="M 24.162671 7.2 
L 381.282671 7.2 
" style="fill: none; stroke: #000000; stroke-width: 0.8; stroke-linejoin: miter; stroke-linecap: square"/>
   </g>
   <g id="legend_1">
    <g id="patch_7">
     <path d="M 31.162671 268.312 
L 116.020226 268.312 
Q 118.020226 268.312 118.020226 266.312 
L 118.020226 225.500465 
Q 118.020226 223.500465 116.020226 223.500465 
L 31.162671 223.500465 
Q 29.162671 223.500465 29.162671 225.500465 
L 29.162671 266.312 
Q 29.162671 268.312 31.162671 268.312 
z
" style="fill: #ffffff; opacity: 0.8; stroke: #cccccc; stroke-linejoin: miter"/>
    </g>
    <g id="line2d_15">
     <path d="M 33.162671 231.000465 
L 43.162671 231.000465 
L 53.162671 231.000465 
" style="fill: none; stroke: #e46e56; stroke-width: 1.5; stroke-linecap: square"/>
    </g>
    <g id="text_12">
     <!-- MSGD -->
     <g transform="translate(61.162671 234.500465) scale(0.1 -0.1)">
      <defs>
       <path id="CMSS17-4d" d="M 3194 2371 
L 2886 1473 
C 2835 1307 2662 791 2624 587 
L 2618 587 
C 2598 715 2560 849 2458 1174 
C 2400 1365 2336 1562 2272 1741 
L 1325 4416 
L 576 4416 
L 576 0 
L 1075 0 
L 1075 3900 
L 1082 3900 
C 1082 3894 1139 3613 1530 2499 
L 2374 96 
L 2848 96 
L 3610 2231 
C 3661 2378 3821 2843 3891 3066 
C 3955 3257 4115 3728 4154 3913 
L 4160 3913 
L 4160 0 
L 4666 0 
L 4666 4416 
L 3923 4416 
L 3194 2371 
z
" transform="scale(0.015625)"/>
       <path id="CMSS17-53" d="M 2797 4169 
C 2515 4334 2208 4480 1690 4480 
C 864 4480 333 3879 333 3266 
C 333 3025 403 2753 653 2475 
C 902 2196 1184 2121 1542 2033 
C 1690 1994 1939 1924 1984 1906 
C 2342 1767 2515 1444 2515 1140 
C 2515 742 2202 318 1645 318 
C 1453 318 890 318 358 819 
L 269 318 
C 794 -64 1363 -128 1651 -128 
C 2438 -128 3002 488 3002 1186 
C 3002 1440 2925 1763 2656 2061 
C 2394 2347 2163 2410 1638 2549 
C 1338 2626 1146 2677 986 2873 
C 877 3013 819 3146 819 3317 
C 819 3673 1126 4060 1690 4060 
C 1971 4060 2336 4002 2707 3660 
L 2797 4169 
z
" transform="scale(0.015625)"/>
       <path id="CMSS17-47" d="M 3610 1856 
L 2336 1856 
L 2336 1461 
L 3123 1461 
L 3123 471 
C 2874 401 2618 350 2362 350 
C 1466 350 934 1301 934 2200 
C 934 3095 1491 4032 2362 4032 
C 2854 4032 3130 3881 3469 3627 
L 3552 4134 
C 3130 4351 2867 4440 2387 4440 
C 1146 4440 397 3324 397 2182 
C 397 1090 1152 -64 2349 -64 
C 2797 -64 3213 51 3610 248 
L 3610 1856 
z
" transform="scale(0.015625)"/>
       <path id="CMSS17-44" d="M 570 4416 
L 570 0 
L 2144 0 
C 3194 0 4000 980 4000 2170 
C 4000 3398 3194 4416 2144 4416 
L 570 4416 
z
M 1094 357 
L 1094 4059 
L 2003 4059 
C 2861 4059 3475 3277 3475 2170 
C 3475 1107 2867 357 2003 357 
L 1094 357 
z
" transform="scale(0.015625)"/>
      </defs>
      <use xlink:href="#CMSS17-4d" transform="scale(0.996264)"/>
      <use xlink:href="#CMSS17-53" transform="translate(81.67603 0) scale(0.996264)"/>
      <use xlink:href="#CMSS17-47" transform="translate(133.724546 0) scale(0.996264)"/>
      <use xlink:href="#CMSS17-44" transform="translate(196.182772 0) scale(0.996264)"/>
     </g>
    </g>
    <g id="line2d_16">
     <path d="M 33.162671 244.937643 
L 43.162671 244.937643 
L 53.162671 244.937643 
" style="fill: none; stroke: #d1dae9; stroke-width: 1.5; stroke-linecap: square"/>
    </g>
    <g id="text_13">
     <!-- SMD-MSGD -->
     <g transform="translate(61.162671 248.437643) scale(0.1 -0.1)">
      <defs>
       <path id="CMSS17-2d" d="M 1664 1216 
L 1664 1585 
L 64 1585 
L 64 1216 
L 1664 1216 
z
" transform="scale(0.015625)"/>
      </defs>
      <use xlink:href="#CMSS17-53" transform="scale(0.996264)"/>
      <use xlink:href="#CMSS17-4d" transform="translate(52.048516 0) scale(0.996264)"/>
      <use xlink:href="#CMSS17-44" transform="translate(133.724546 0) scale(0.996264)"/>
      <use xlink:href="#CMSS17-2d" transform="translate(201.267388 0) scale(0.996264)"/>
      <use xlink:href="#CMSS17-4d" transform="translate(232.496501 0) scale(0.996264)"/>
      <use xlink:href="#CMSS17-53" transform="translate(314.172531 0) scale(0.996264)"/>
      <use xlink:href="#CMSS17-47" transform="translate(366.221047 0) scale(0.996264)"/>
      <use xlink:href="#CMSS17-44" transform="translate(428.679272 0) scale(0.996264)"/>
     </g>
    </g>
    <g id="line2d_17">
     <path d="M 33.162671 258.874822 
L 43.162671 258.874822 
L 53.162671 258.874822 
" style="fill: none; stroke: #3a4cc0; stroke-width: 1.5; stroke-linecap: square"/>
    </g>
    <g id="text_14">
     <!-- GCN-MSGD -->
     <g transform="translate(61.162671 262.374822) scale(0.1 -0.1)">
      <defs>
       <path id="CMSS17-43" d="M 3501 714 
C 3072 427 2874 344 2355 344 
C 1459 344 934 1303 934 2179 
C 934 3112 1472 4032 2381 4032 
C 2790 4032 3059 3918 3386 3715 
L 3475 4217 
C 3168 4370 2778 4440 2387 4440 
C 1158 4440 397 3316 397 2179 
C 397 927 1299 -64 2323 -64 
C 2874 -64 3066 -19 3539 280 
L 3501 714 
z
" transform="scale(0.015625)"/>
       <path id="CMSS17-4e" d="M 1466 4180 
L 1350 4416 
L 563 4416 
L 563 0 
L 1062 0 
L 1062 3926 
L 1069 3932 
C 1114 3817 1139 3760 1402 3194 
L 2771 236 
L 2886 0 
L 3674 0 
L 3674 4416 
L 3174 4416 
L 3174 490 
L 3168 483 
C 3123 598 3098 655 2835 1221 
L 1466 4180 
z
" transform="scale(0.015625)"/>
      </defs>
      <use xlink:href="#CMSS17-47" transform="scale(0.996264)"/>
      <use xlink:href="#CMSS17-43" transform="translate(62.458226 0) scale(0.996264)"/>
      <use xlink:href="#CMSS17-4e" transform="translate(122.313997 0) scale(0.996264)"/>
      <use xlink:href="#CMSS17-2d" transform="translate(188.375516 0) scale(0.996264)"/>
      <use xlink:href="#CMSS17-4d" transform="translate(219.604629 0) scale(0.996264)"/>
      <use xlink:href="#CMSS17-53" transform="translate(301.280659 0) scale(0.996264)"/>
      <use xlink:href="#CMSS17-47" transform="translate(353.329175 0) scale(0.996264)"/>
      <use xlink:href="#CMSS17-44" transform="translate(415.787401 0) scale(0.996264)"/>
     </g>
    </g>
   </g>
  </g>
 </g>
 <defs>
  <clipPath id="pc68ce0a4d0">
   <rect x="24.162671" y="7.2" width="357.12" height="266.112"/>
  </clipPath>
 </defs>
</svg>
