<?xml version="1.0" encoding="utf-8" standalone="no"?>
<!DOCTYPE svg PUBLIC "-//W3C//DTD SVG 1.1//EN"
  "http://www.w3.org/Graphics/SVG/1.1/DTD/svg11.dtd">
<svg xmlns:xlink="http://www.w3.org/1999/xlink" width="396.231414pt" height="296.367677pt" viewBox="0 0 396.231414 296.367677" xmlns="http://www.w3.org/2000/svg" version="1.1">
 <metadata>
  <rdf:RDF xmlns:dc="http://purl.org/dc/elements/1.1/" xmlns:cc="http://creativecommons.org/ns#" xmlns:rdf="http://www.w3.org/1999/02/22-rdf-syntax-ns#">
   <cc:Work>
    <dc:type rdf:resource="http://purl.org/dc/dcmitype/StillImage"/>
    <dc:date>2026-03-26T11:07:11.634982</dc:date>
    <dc:format>image/svg+xml</dc:format>
    <dc:creator>
     <cc:Agent>
      <dc:title>Matplotlib v3.10.7, https://matplotlib.org/</dc:title>
     </cc:Agent>
    </dc:creator>
   </cc:Work>
  </rdf:RDF>
 </metadata>
 <defs>
  <style type="text/css">*{stroke-linejoin: round; stroke-linecap: butt}</style>
 </defs>
 <g id="figure_1">
  <g id="patch_1">
   <path d="M 0 296.367677 
L 396.231414 296.367677 
L 396.231414 0 
L 0 0 
z
" style="fill: #ffffff"/>
  </g>
  <g id="axes_1">
   <g id="patch_2">
    <path d="M 31.911414 273.312 
L 389.031414 273.312 
L 389.031414 7.2 
L 31.911414 7.2 
z
" style="fill: #ffffff"/>
   </g>
   <g id="matplotlib.axis_1">
    <g id="xtick_1">
     <g id="line2d_1">
      <defs>
       <path id="m71d6daeb0d" d="M 0 0 
L 0 3.5 
" style="stroke: #000000; stroke-width: 0.8"/>
      </defs>
      <g>
       <use xlink:href="#m71d6daeb0d" x="48.144142" y="273.312" style="stroke: #000000; stroke-width: 0.8"/>
      </g>
     </g>
     <g id="text_1">
      <!-- $\mathdefault{0}$ -->
      <g transform="translate(45.653474 287.230498) scale(0.1 -0.1)">
       <defs>
        <path id="CMR17-30" d="M 2688 2025 
C 2688 2416 2682 3080 2413 3591 
C 2176 4039 1798 4198 1466 4198 
C 1158 4198 768 4058 525 3597 
C 269 3118 243 2524 243 2025 
C 243 1661 250 1106 448 619 
C 723 -39 1216 -128 1466 -128 
C 1760 -128 2208 -7 2470 600 
C 2662 1042 2688 1559 2688 2025 
z
M 1466 -26 
C 1056 -26 813 325 723 812 
C 653 1188 653 1738 653 2096 
C 653 2588 653 2997 736 3387 
C 858 3929 1216 4096 1466 4096 
C 1728 4096 2067 3923 2189 3400 
C 2272 3036 2278 2607 2278 2096 
C 2278 1680 2278 1169 2202 792 
C 2067 95 1690 -26 1466 -26 
z
" transform="scale(0.015625)"/>
       </defs>
       <use xlink:href="#CMR17-30" transform="scale(0.996264)"/>
      </g>
     </g>
    </g>
    <g id="xtick_2">
     <g id="line2d_2">
      <g>
       <use xlink:href="#m71d6daeb0d" x="113.075051" y="273.312" style="stroke: #000000; stroke-width: 0.8"/>
      </g>
     </g>
     <g id="text_2">
      <!-- $\mathdefault{200}$ -->
      <g transform="translate(105.603048 287.230498) scale(0.1 -0.1)">
       <defs>
        <path id="CMR17-32" d="M 2669 989 
L 2554 989 
C 2490 536 2438 459 2413 420 
C 2381 369 1920 369 1830 369 
L 602 369 
C 832 619 1280 1072 1824 1597 
C 2214 1967 2669 2402 2669 3035 
C 2669 3790 2067 4224 1395 4224 
C 691 4224 262 3604 262 3030 
C 262 2780 448 2748 525 2748 
C 589 2748 781 2787 781 3010 
C 781 3207 614 3264 525 3264 
C 486 3264 448 3258 422 3245 
C 544 3790 915 4058 1306 4058 
C 1862 4058 2227 3617 2227 3035 
C 2227 2479 1901 2000 1536 1584 
L 262 146 
L 262 0 
L 2515 0 
L 2669 989 
z
" transform="scale(0.015625)"/>
       </defs>
       <use xlink:href="#CMR17-32" transform="scale(0.996264)"/>
       <use xlink:href="#CMR17-30" transform="translate(45.690477 0) scale(0.996264)"/>
       <use xlink:href="#CMR17-30" transform="translate(91.380954 0) scale(0.996264)"/>
      </g>
     </g>
    </g>
    <g id="xtick_3">
     <g id="line2d_3">
      <g>
       <use xlink:href="#m71d6daeb0d" x="178.00596" y="273.312" style="stroke: #000000; stroke-width: 0.8"/>
      </g>
     </g>
     <g id="text_3">
      <!-- $\mathdefault{400}$ -->
      <g transform="translate(170.533957 287.230498) scale(0.1 -0.1)">
       <defs>
        <path id="CMR17-34" d="M 2150 4122 
C 2150 4256 2144 4256 2029 4256 
L 128 1254 
L 128 1088 
L 1779 1088 
L 1779 457 
C 1779 224 1766 160 1318 160 
L 1197 160 
L 1197 0 
C 1402 0 1747 0 1965 0 
C 2182 0 2528 0 2733 0 
L 2733 160 
L 2611 160 
C 2163 160 2150 224 2150 457 
L 2150 1088 
L 2803 1088 
L 2803 1254 
L 2150 1254 
L 2150 4122 
z
M 1798 3703 
L 1798 1254 
L 256 1254 
L 1798 3703 
z
" transform="scale(0.015625)"/>
       </defs>
       <use xlink:href="#CMR17-34" transform="scale(0.996264)"/>
       <use xlink:href="#CMR17-30" transform="translate(45.690477 0) scale(0.996264)"/>
       <use xlink:href="#CMR17-30" transform="translate(91.380954 0) scale(0.996264)"/>
      </g>
     </g>
    </g>
    <g id="xtick_4">
     <g id="line2d_4">
      <g>
       <use xlink:href="#m71d6daeb0d" x="242.936869" y="273.312" style="stroke: #000000; stroke-width: 0.8"/>
      </g>
     </g>
     <g id="text_4">
      <!-- $\mathdefault{600}$ -->
      <g transform="translate(235.464866 287.230498) scale(0.1 -0.1)">
       <defs>
        <path id="CMR17-36" d="M 678 2176 
C 678 3690 1395 4032 1811 4032 
C 1946 4032 2272 4009 2400 3776 
C 2298 3776 2106 3776 2106 3553 
C 2106 3381 2246 3323 2336 3323 
C 2394 3323 2566 3348 2566 3560 
C 2566 3954 2246 4179 1805 4179 
C 1043 4179 243 3390 243 1984 
C 243 253 966 -128 1478 -128 
C 2099 -128 2688 427 2688 1283 
C 2688 2081 2170 2662 1517 2662 
C 1126 2662 838 2407 678 1960 
L 678 2176 
z
M 1478 25 
C 691 25 691 1200 691 1436 
C 691 1896 909 2560 1504 2560 
C 1613 2560 1926 2560 2138 2120 
C 2253 1870 2253 1609 2253 1289 
C 2253 944 2253 690 2118 434 
C 1978 171 1773 25 1478 25 
z
" transform="scale(0.015625)"/>
       </defs>
       <use xlink:href="#CMR17-36" transform="scale(0.996264)"/>
       <use xlink:href="#CMR17-30" transform="translate(45.690477 0) scale(0.996264)"/>
       <use xlink:href="#CMR17-30" transform="translate(91.380954 0) scale(0.996264)"/>
      </g>
     </g>
    </g>
    <g id="xtick_5">
     <g id="line2d_5">
      <g>
       <use xlink:href="#m71d6daeb0d" x="307.867778" y="273.312" style="stroke: #000000; stroke-width: 0.8"/>
      </g>
     </g>
     <g id="text_5">
      <!-- $\mathdefault{800}$ -->
      <g transform="translate(300.395775 287.230498) scale(0.1 -0.1)">
       <defs>
        <path id="CMR17-38" d="M 1741 2264 
C 2144 2467 2554 2773 2554 3263 
C 2554 3841 1990 4179 1472 4179 
C 890 4179 378 3759 378 3180 
C 378 3021 416 2747 666 2505 
C 730 2442 998 2251 1171 2130 
C 883 1983 211 1634 211 934 
C 211 279 838 -128 1459 -128 
C 2144 -128 2720 362 2720 1010 
C 2720 1590 2330 1857 2074 2029 
L 1741 2264 
z
M 902 2822 
C 851 2854 595 3051 595 3351 
C 595 3739 998 4032 1459 4032 
C 1965 4032 2336 3676 2336 3262 
C 2336 2669 1670 2331 1638 2331 
C 1632 2331 1626 2331 1574 2370 
L 902 2822 
z
M 2080 1519 
C 2176 1449 2483 1240 2483 851 
C 2483 381 2010 25 1472 25 
C 890 25 448 438 448 940 
C 448 1443 838 1862 1280 2060 
L 2080 1519 
z
" transform="scale(0.015625)"/>
       </defs>
       <use xlink:href="#CMR17-38" transform="scale(0.996264)"/>
       <use xlink:href="#CMR17-30" transform="translate(45.690477 0) scale(0.996264)"/>
       <use xlink:href="#CMR17-30" transform="translate(91.380954 0) scale(0.996264)"/>
      </g>
     </g>
    </g>
    <g id="xtick_6">
     <g id="line2d_6">
      <g>
       <use xlink:href="#m71d6daeb0d" x="372.798687" y="273.312" style="stroke: #000000; stroke-width: 0.8"/>
      </g>
     </g>
     <g id="text_6">
      <!-- $\mathdefault{1000}$ -->
      <g transform="translate(362.836016 287.230498) scale(0.1 -0.1)">
       <defs>
        <path id="CMR17-31" d="M 1702 4058 
C 1702 4192 1696 4192 1606 4192 
C 1357 3916 979 3827 621 3827 
C 602 3827 570 3827 563 3808 
C 557 3795 557 3782 557 3648 
C 755 3648 1088 3686 1344 3839 
L 1344 461 
C 1344 236 1331 160 781 160 
L 589 160 
L 589 0 
C 896 0 1216 0 1523 0 
C 1830 0 2150 0 2458 0 
L 2458 160 
L 2266 160 
C 1715 160 1702 230 1702 458 
L 1702 4058 
z
" transform="scale(0.015625)"/>
       </defs>
       <use xlink:href="#CMR17-31" transform="scale(0.996264)"/>
       <use xlink:href="#CMR17-30" transform="translate(45.690477 0) scale(0.996264)"/>
       <use xlink:href="#CMR17-30" transform="translate(91.380954 0) scale(0.996264)"/>
       <use xlink:href="#CMR17-30" transform="translate(137.071431 0) scale(0.996264)"/>
      </g>
     </g>
    </g>
   </g>
   <g id="matplotlib.axis_2">
    <g id="ytick_1">
     <g id="line2d_7">
      <defs>
       <path id="m12c3bfddf9" d="M 0 0 
L -3.5 0 
" style="stroke: #000000; stroke-width: 0.8"/>
      </defs>
      <g>
       <use xlink:href="#m12c3bfddf9" x="31.911414" y="253.586464" style="stroke: #000000; stroke-width: 0.8"/>
      </g>
     </g>
     <g id="text_7">
      <!-- $\mathdefault{8.5}$ -->
      <g transform="translate(12.181335 257.045713) scale(0.1 -0.1)">
       <defs>
        <path id="CMMI12-3a" d="M 1178 307 
C 1178 492 1024 619 870 619 
C 685 619 557 466 557 313 
C 557 128 710 0 864 0 
C 1050 0 1178 153 1178 307 
z
" transform="scale(0.015625)"/>
        <path id="CMR17-35" d="M 730 3692 
C 794 3666 1056 3584 1325 3584 
C 1920 3584 2246 3911 2432 4100 
C 2432 4157 2432 4192 2394 4192 
C 2387 4192 2374 4192 2323 4163 
C 2099 4058 1837 3973 1517 3973 
C 1325 3973 1037 3999 723 4139 
C 653 4171 640 4171 634 4171 
C 602 4171 595 4164 595 4037 
L 595 2203 
C 595 2089 595 2057 659 2057 
C 691 2057 704 2070 736 2114 
C 941 2401 1222 2522 1542 2522 
C 1766 2522 2246 2382 2246 1289 
C 2246 1085 2246 715 2054 421 
C 1894 159 1645 25 1370 25 
C 947 25 518 320 403 814 
C 429 807 480 795 506 795 
C 589 795 749 840 749 1038 
C 749 1210 627 1280 506 1280 
C 358 1280 262 1190 262 1011 
C 262 454 704 -128 1382 -128 
C 2042 -128 2669 440 2669 1264 
C 2669 2030 2170 2624 1549 2624 
C 1222 2624 947 2503 730 2274 
L 730 3692 
z
" transform="scale(0.015625)"/>
       </defs>
       <use xlink:href="#CMR17-38" transform="scale(0.996264)"/>
       <use xlink:href="#CMMI12-3a" transform="translate(45.690477 0) scale(0.996264)"/>
       <use xlink:href="#CMR17-35" transform="translate(72.787654 0) scale(0.996264)"/>
      </g>
     </g>
    </g>
    <g id="ytick_2">
     <g id="line2d_8">
      <g>
       <use xlink:href="#m12c3bfddf9" x="31.911414" y="203.889848" style="stroke: #000000; stroke-width: 0.8"/>
      </g>
     </g>
     <g id="text_8">
      <!-- $\mathdefault{9.0}$ -->
      <g transform="translate(12.181335 207.349097) scale(0.1 -0.1)">
       <defs>
        <path id="CMR17-39" d="M 2253 1864 
C 2253 464 1670 31 1190 31 
C 1043 31 685 31 538 294 
C 704 268 826 357 826 518 
C 826 692 685 749 595 749 
C 538 749 365 723 365 506 
C 365 71 742 -128 1203 -128 
C 1939 -128 2688 674 2688 2073 
C 2688 3817 1971 4179 1485 4179 
C 851 4179 243 3628 243 2778 
C 243 1991 762 1408 1414 1408 
C 1952 1408 2189 1903 2253 2112 
L 2253 1864 
z
M 1427 1510 
C 1254 1510 1011 1542 813 1922 
C 678 2169 678 2461 678 2771 
C 678 3146 678 3405 858 3684 
C 947 3817 1114 4032 1485 4032 
C 2240 4032 2240 2885 2240 2632 
C 2240 2182 2035 1510 1427 1510 
z
" transform="scale(0.015625)"/>
       </defs>
       <use xlink:href="#CMR17-39" transform="scale(0.996264)"/>
       <use xlink:href="#CMMI12-3a" transform="translate(45.690477 0) scale(0.996264)"/>
       <use xlink:href="#CMR17-30" transform="translate(72.787654 0) scale(0.996264)"/>
      </g>
     </g>
    </g>
    <g id="ytick_3">
     <g id="line2d_9">
      <g>
       <use xlink:href="#m12c3bfddf9" x="31.911414" y="154.193232" style="stroke: #000000; stroke-width: 0.8"/>
      </g>
     </g>
     <g id="text_9">
      <!-- $\mathdefault{9.5}$ -->
      <g transform="translate(12.181335 157.652481) scale(0.1 -0.1)">
       <use xlink:href="#CMR17-39" transform="scale(0.996264)"/>
       <use xlink:href="#CMMI12-3a" transform="translate(45.690477 0) scale(0.996264)"/>
       <use xlink:href="#CMR17-35" transform="translate(72.787654 0) scale(0.996264)"/>
      </g>
     </g>
    </g>
    <g id="ytick_4">
     <g id="line2d_10">
      <g>
       <use xlink:href="#m12c3bfddf9" x="31.911414" y="104.496616" style="stroke: #000000; stroke-width: 0.8"/>
      </g>
     </g>
     <g id="text_10">
      <!-- $\mathdefault{10.0}$ -->
      <g transform="translate(7.2 107.955865) scale(0.1 -0.1)">
       <use xlink:href="#CMR17-31" transform="scale(0.996264)"/>
       <use xlink:href="#CMR17-30" transform="translate(45.690477 0) scale(0.996264)"/>
       <use xlink:href="#CMMI12-3a" transform="translate(91.380954 0) scale(0.996264)"/>
       <use xlink:href="#CMR17-30" transform="translate(118.478131 0) scale(0.996264)"/>
      </g>
     </g>
    </g>
    <g id="ytick_5">
     <g id="line2d_11">
      <g>
       <use xlink:href="#m12c3bfddf9" x="31.911414" y="54.8" style="stroke: #000000; stroke-width: 0.8"/>
      </g>
     </g>
     <g id="text_11">
      <!-- $\mathdefault{10.5}$ -->
      <g transform="translate(7.2 58.259249) scale(0.1 -0.1)">
       <use xlink:href="#CMR17-31" transform="scale(0.996264)"/>
       <use xlink:href="#CMR17-30" transform="translate(45.690477 0) scale(0.996264)"/>
       <use xlink:href="#CMMI12-3a" transform="translate(91.380954 0) scale(0.996264)"/>
       <use xlink:href="#CMR17-35" transform="translate(118.478131 0) scale(0.996264)"/>
      </g>
     </g>
    </g>
   </g>
   <g id="line2d_12">
    <path d="M 48.144142 85.914614 
L 48.793451 75.246235 
L 49.118105 76.983815 
L 49.44276 79.549836 
L 49.767414 72.438302 
L 50.092069 70.255601 
L 50.416723 75.5894 
L 51.066032 66.006666 
L 51.390687 73.663059 
L 51.715342 72.245779 
L 52.039996 68.412807 
L 52.364651 67.697099 
L 52.689305 63.988736 
L 53.01396 56.882035 
L 53.338614 62.62506 
L 53.663269 62.132681 
L 53.987923 73.858889 
L 54.312578 71.79286 
L 54.637232 70.803284 
L 54.961887 82.510557 
L 55.611196 65.575409 
L 56.260505 62.93549 
L 56.58516 73.440288 
L 57.234469 69.605347 
L 57.559123 62.339769 
L 57.883778 64.369655 
L 58.533087 74.81309 
L 58.857742 75.64638 
L 59.182396 86.6085 
L 59.507051 83.935388 
L 59.831705 79.453654 
L 60.15636 77.693759 
L 60.481014 85.20368 
L 60.805669 87.136483 
L 61.130323 77.563817 
L 61.454978 81.60116 
L 61.779632 76.614955 
L 62.104287 80.524609 
L 62.428942 77.837833 
L 62.753596 85.027654 
L 63.078251 88.109841 
L 63.402905 99.837061 
L 64.052214 86.362946 
L 64.376869 83.369694 
L 64.701523 83.420822 
L 65.675487 90.403792 
L 66.000142 89.787476 
L 66.324796 87.465055 
L 66.649451 88.109217 
L 66.974105 83.350931 
L 67.29876 69.001577 
L 67.623414 79.249293 
L 68.272723 68.140742 
L 68.597378 72.500142 
L 68.922032 71.868323 
L 69.246687 76.580393 
L 69.571342 73.685425 
L 69.895996 80.561072 
L 70.220651 72.352645 
L 70.545305 72.978455 
L 70.86996 70.4841 
L 71.194614 70.085168 
L 71.843923 55.645522 
L 72.493232 58.070493 
L 72.817887 53.497391 
L 73.142542 53.735727 
L 73.467196 44.890057 
L 74.116505 36.96659 
L 74.44116 43.885433 
L 74.765814 43.823388 
L 75.090469 41.199353 
L 75.415123 44.479633 
L 75.739778 42.064798 
L 76.064432 38.688231 
L 76.389087 44.010237 
L 76.713742 58.391824 
L 77.363051 54.284059 
L 77.687705 55.381589 
L 78.01236 43.029769 
L 78.661669 45.727466 
L 78.986323 48.240732 
L 79.310978 43.8053 
L 79.635632 55.301469 
L 79.960287 55.865532 
L 80.284942 58.365093 
L 80.609596 64.144733 
L 80.934251 55.990715 
L 81.58356 63.502465 
L 82.232869 50.276617 
L 82.557523 53.322871 
L 83.206832 48.032885 
L 83.531487 51.381736 
L 83.856142 55.939328 
L 84.180796 55.392567 
L 84.505451 56.127875 
L 84.830105 65.209371 
L 85.479414 87.120924 
L 86.453378 73.694322 
L 86.778032 74.262422 
L 87.102687 77.277918 
L 87.427342 86.0888 
L 87.751996 90.53441 
L 88.076651 82.687179 
L 88.401305 83.787859 
L 88.72596 78.353775 
L 89.050614 79.413382 
L 89.375269 75.809292 
L 89.699923 61.501421 
L 90.024578 60.117764 
L 90.349232 60.912639 
L 90.673887 59.039788 
L 90.998542 58.255473 
L 91.323196 53.823098 
L 91.647851 51.266158 
L 91.972505 58.527317 
L 92.29716 52.371143 
L 92.621814 49.281864 
L 92.946469 50.792161 
L 93.920432 65.407868 
L 94.245087 60.846873 
L 94.569742 52.861042 
L 94.894396 54.194137 
L 95.219051 63.871484 
L 95.543705 60.274303 
L 95.86836 61.150791 
L 96.193014 66.97113 
L 96.517669 66.551913 
L 96.842323 63.228273 
L 97.166978 72.222571 
L 97.491632 75.08941 
L 97.816287 76.314602 
L 98.140942 71.877146 
L 98.465596 71.525874 
L 98.790251 63.607927 
L 99.114905 61.054487 
L 99.43956 56.771 
L 99.764214 55.840141 
L 100.088869 50.994056 
L 100.413523 48.448146 
L 100.738178 47.547502 
L 101.062832 49.657505 
L 101.387487 47.057188 
L 101.712142 49.470118 
L 102.036796 55.963243 
L 102.361451 59.086626 
L 102.686105 66.613173 
L 103.01076 77.470391 
L 103.335414 68.600541 
L 103.660069 76.238607 
L 103.984723 74.272912 
L 104.309378 77.374492 
L 104.634032 68.431757 
L 105.607996 55.175288 
L 105.932651 58.970008 
L 106.257305 67.414109 
L 106.58196 61.779695 
L 106.906614 61.403079 
L 107.231269 65.828172 
L 107.880578 59.842573 
L 108.205232 69.13125 
L 108.529887 60.695072 
L 108.854542 58.69872 
L 109.179196 58.239091 
L 109.503851 66.417487 
L 109.828505 61.607083 
L 110.15316 62.047456 
L 110.477814 59.082351 
L 110.802469 49.905538 
L 111.127123 51.600685 
L 111.451778 51.572614 
L 111.776432 53.309779 
L 112.101087 65.254301 
L 112.425742 58.576767 
L 112.750396 43.313934 
L 113.075051 40.805914 
L 113.72436 52.73843 
L 114.049014 44.96271 
L 114.373669 46.783129 
L 114.698323 40.967172 
L 115.022978 49.427541 
L 115.347632 44.509933 
L 115.996942 54.229781 
L 116.321596 56.348252 
L 116.646251 59.769186 
L 116.970905 64.766994 
L 117.29556 52.641623 
L 117.620214 57.531127 
L 117.944869 59.449194 
L 118.269523 53.128926 
L 118.594178 58.527806 
L 118.918832 47.854735 
L 119.243487 41.188244 
L 120.86676 73.209789 
L 121.191414 67.176644 
L 121.516069 67.141011 
L 121.840723 72.362355 
L 122.165378 71.531961 
L 122.490032 59.722547 
L 122.814687 56.232759 
L 123.139342 47.941254 
L 123.463996 50.734924 
L 123.788651 59.250648 
L 124.113305 61.025978 
L 124.43796 52.2541 
L 124.762614 50.70754 
L 125.087269 54.649925 
L 125.411923 52.892236 
L 126.385887 63.96934 
L 127.035196 67.242131 
L 127.684505 58.46144 
L 128.00916 62.576845 
L 128.658469 58.322481 
L 128.983123 57.329405 
L 129.307778 50.368005 
L 129.632432 55.791052 
L 130.281742 74.74498 
L 130.606396 70.51375 
L 130.931051 73.068543 
L 131.255705 79.557237 
L 131.58036 77.390619 
L 131.905014 77.967298 
L 132.229669 75.542174 
L 132.554323 65.730076 
L 132.878978 70.811601 
L 133.203632 71.39258 
L 133.528287 67.628206 
L 133.852942 60.296488 
L 134.502251 75.816896 
L 134.826905 77.404317 
L 135.15156 77.780927 
L 135.800869 92.303047 
L 136.125523 92.083842 
L 136.774832 80.914555 
L 137.099487 82.760084 
L 137.424142 79.322131 
L 137.748796 78.372419 
L 138.073451 86.439755 
L 138.398105 98.432157 
L 138.72276 102.96839 
L 139.372069 98.335958 
L 139.696723 97.810252 
L 140.346032 86.34633 
L 140.995342 69.118305 
L 141.319996 69.725789 
L 141.644651 69.320985 
L 141.969305 72.713791 
L 142.29396 81.923982 
L 142.943269 75.105189 
L 143.267923 75.192264 
L 143.592578 79.213897 
L 143.917232 66.981417 
L 144.241887 66.051773 
L 144.566542 70.728599 
L 144.891196 70.474623 
L 145.540505 63.874963 
L 145.86516 68.996386 
L 146.189814 66.728602 
L 146.514469 57.073673 
L 146.839123 56.816502 
L 147.163778 69.963065 
L 147.488432 75.859099 
L 147.813087 76.514556 
L 148.137742 75.121782 
L 148.462396 68.960419 
L 148.787051 72.055476 
L 149.111705 72.644592 
L 149.43636 76.505627 
L 149.761014 71.958516 
L 150.085669 77.698616 
L 150.410323 81.151997 
L 150.734978 76.616379 
L 151.059632 82.753838 
L 151.384287 85.318683 
L 151.708942 81.722006 
L 152.033596 88.416085 
L 152.358251 91.384942 
L 153.00756 102.267544 
L 153.332214 103.709016 
L 153.656869 95.676426 
L 154.306178 93.050066 
L 154.630832 102.621705 
L 154.955487 96.360302 
L 155.280142 99.216171 
L 155.604796 99.618749 
L 155.929451 97.371815 
L 156.254105 97.864741 
L 156.57876 96.479479 
L 156.903414 91.008781 
L 157.228069 93.723828 
L 157.552723 92.67123 
L 157.877378 90.491561 
L 158.202032 84.808354 
L 158.526687 86.317619 
L 158.851342 94.257049 
L 159.175996 92.320041 
L 159.500651 87.191116 
L 159.825305 89.805341 
L 160.14996 91.407333 
L 160.474614 90.484423 
L 160.799269 90.752556 
L 161.123923 86.655504 
L 161.448578 87.495276 
L 161.773232 82.885455 
L 162.422542 88.398384 
L 162.747196 81.15712 
L 163.071851 82.566001 
L 163.396505 80.840916 
L 163.72116 75.161601 
L 164.045814 79.630818 
L 164.370469 88.428324 
L 164.695123 92.636815 
L 165.019778 92.802997 
L 165.344432 96.109684 
L 165.669087 96.304706 
L 165.993742 99.913081 
L 166.318396 91.31466 
L 166.643051 89.214703 
L 166.967705 90.076547 
L 167.29236 83.319549 
L 167.617014 82.246624 
L 168.266323 85.739958 
L 168.590978 87.457326 
L 168.915632 87.413649 
L 169.240287 90.228194 
L 169.564942 96.754279 
L 169.889596 98.676543 
L 170.214251 99.580999 
L 170.538905 94.3629 
L 170.86356 92.715966 
L 171.188214 88.140507 
L 171.837523 99.287282 
L 172.162178 99.915411 
L 172.486832 95.361309 
L 173.136142 105.956808 
L 173.460796 104.640918 
L 174.110105 106.701373 
L 174.759414 94.918608 
L 175.084069 97.579758 
L 175.408723 105.967439 
L 175.733378 105.428722 
L 176.058032 108.558199 
L 176.382687 108.544964 
L 176.707342 108.363483 
L 177.031996 104.81254 
L 177.356651 107.202426 
L 177.681305 105.119062 
L 178.00596 102.093506 
L 178.330614 96.955403 
L 178.655269 101.052594 
L 178.979923 94.26059 
L 179.304578 91.446669 
L 179.629232 95.945022 
L 179.953887 90.94021 
L 180.278542 97.786119 
L 180.603196 98.492169 
L 180.927851 98.357499 
L 181.252505 105.839021 
L 181.57716 100.812127 
L 181.901814 92.607812 
L 182.226469 106.896544 
L 182.551123 110.111631 
L 182.875778 101.11471 
L 183.200432 101.51831 
L 183.525087 100.916847 
L 183.849742 95.172869 
L 184.174396 98.40848 
L 184.499051 91.483436 
L 184.823705 93.831738 
L 185.14836 84.181494 
L 185.473014 92.590588 
L 185.797669 96.890334 
L 186.122323 94.596234 
L 186.446978 95.919051 
L 186.771632 89.696346 
L 187.096287 91.925199 
L 187.745596 104.577213 
L 188.070251 98.940274 
L 188.394905 97.048962 
L 188.71956 101.488215 
L 189.044214 101.991478 
L 189.368869 107.456993 
L 189.693523 108.961641 
L 190.018178 103.532049 
L 190.342832 108.790375 
L 190.667487 102.418099 
L 190.992142 107.872144 
L 191.316796 100.670391 
L 191.641451 111.272111 
L 192.29076 94.481926 
L 192.615414 92.61823 
L 192.940069 101.828961 
L 193.264723 106.475685 
L 193.589378 106.400086 
L 193.914032 108.869978 
L 194.238687 100.45956 
L 194.563342 99.660438 
L 194.887996 98.411436 
L 195.212651 101.59973 
L 195.537305 101.994214 
L 195.86196 101.026828 
L 196.186614 104.665598 
L 196.511269 93.971631 
L 196.835923 94.47474 
L 197.160578 103.781637 
L 197.485232 97.609951 
L 197.809887 98.306616 
L 198.134542 97.636918 
L 198.459196 95.246964 
L 198.783851 99.507172 
L 199.108505 89.860484 
L 199.43316 92.505468 
L 199.757814 85.440461 
L 200.082469 89.673289 
L 200.407123 87.126177 
L 200.731778 86.466261 
L 201.056432 75.531756 
L 201.705742 88.683098 
L 202.030396 87.006644 
L 202.355051 89.860115 
L 202.679705 90.107303 
L 203.00436 87.643166 
L 203.329014 92.515432 
L 203.653669 86.730205 
L 203.978323 83.016365 
L 204.302978 84.300994 
L 204.627632 82.218473 
L 204.952287 76.415946 
L 205.276942 73.107546 
L 205.601596 76.889739 
L 205.926251 76.001428 
L 206.250905 86.161759 
L 206.57556 89.715738 
L 206.900214 95.847486 
L 207.224869 99.278805 
L 207.549523 99.102911 
L 207.874178 106.545569 
L 208.198832 108.860611 
L 208.848142 117.342282 
L 209.172796 117.828074 
L 209.822105 111.027125 
L 210.471414 97.955822 
L 210.796069 97.435852 
L 211.120723 99.497072 
L 211.770032 96.837918 
L 212.094687 93.179587 
L 212.419342 90.911441 
L 212.743996 91.361784 
L 213.068651 83.773097 
L 213.393305 86.389318 
L 213.71796 87.229651 
L 214.042614 90.388506 
L 214.367269 101.014214 
L 214.691923 102.067338 
L 215.016578 106.386026 
L 215.341232 102.462704 
L 215.665887 103.326459 
L 215.990542 98.002814 
L 216.315196 98.711457 
L 216.639851 95.205952 
L 216.964505 109.036688 
L 217.28916 106.868381 
L 217.613814 111.911594 
L 217.938469 109.251118 
L 218.263123 107.874753 
L 218.587778 115.029753 
L 218.912432 109.972548 
L 219.237087 107.131673 
L 219.561742 124.705376 
L 219.886396 108.338243 
L 220.211051 102.543401 
L 220.86036 116.21511 
L 221.185014 108.502257 
L 221.509669 117.765437 
L 221.834323 112.756288 
L 222.158978 113.703351 
L 222.483632 112.817684 
L 223.132942 123.827996 
L 223.457596 117.748317 
L 223.782251 126.187884 
L 224.43156 121.195342 
L 224.756214 119.307314 
L 225.080869 118.660553 
L 225.405523 117.463706 
L 225.730178 121.545094 
L 226.054832 122.125081 
L 226.704142 124.58809 
L 227.028796 123.002681 
L 227.353451 122.692701 
L 227.678105 121.38065 
L 228.00276 117.204404 
L 228.327414 114.852343 
L 228.652069 111.622543 
L 229.626032 96.849357 
L 229.950687 101.083701 
L 230.275342 96.682496 
L 230.924651 106.730163 
L 231.249305 95.723152 
L 231.57396 89.727784 
L 231.898614 90.543358 
L 232.223269 96.552181 
L 232.547923 91.078722 
L 232.872578 98.295013 
L 233.521887 104.111637 
L 233.846542 111.428809 
L 234.171196 113.073741 
L 234.820505 121.08462 
L 235.14516 121.252053 
L 235.469814 124.71691 
L 235.794469 125.689738 
L 236.119123 132.964079 
L 236.443778 128.515954 
L 237.093087 134.838127 
L 237.417742 132.165974 
L 237.742396 138.959547 
L 238.067051 141.010191 
L 238.391705 141.632695 
L 238.71636 156.901509 
L 239.041014 159.410558 
L 239.365669 156.278682 
L 239.690323 156.071554 
L 240.014978 156.198885 
L 240.339632 156.474728 
L 240.664287 149.683768 
L 240.988942 156.319344 
L 241.313596 154.725037 
L 241.638251 148.291666 
L 241.962905 151.960464 
L 242.28756 145.588122 
L 242.612214 145.20757 
L 242.936869 141.425037 
L 243.261523 139.169256 
L 243.586178 140.300202 
L 243.910832 136.89841 
L 244.235487 145.463426 
L 244.560142 145.975922 
L 244.884796 151.346159 
L 245.209451 148.919783 
L 245.534105 154.010432 
L 245.85876 144.414675 
L 246.183414 149.776387 
L 246.832723 138.038767 
L 247.157378 142.629908 
L 247.482032 137.037635 
L 247.806687 138.594275 
L 248.131342 141.198584 
L 248.455996 145.823793 
L 248.780651 142.039926 
L 249.105305 150.087055 
L 249.42996 147.328615 
L 249.754614 155.829485 
L 250.079269 154.955172 
L 250.403923 149.379296 
L 250.728578 156.436105 
L 251.053232 152.020392 
L 251.377887 152.93824 
L 251.702542 159.529258 
L 252.027196 157.078197 
L 252.351851 156.472915 
L 252.676505 161.511479 
L 253.00116 163.393267 
L 253.325814 160.633764 
L 253.650469 159.192343 
L 253.975123 164.363426 
L 254.299778 161.935719 
L 254.624432 166.018196 
L 254.949087 164.097714 
L 255.273742 166.817038 
L 255.598396 165.888519 
L 255.923051 163.159058 
L 256.247705 170.253087 
L 256.897014 160.346641 
L 257.546323 151.005468 
L 257.870978 136.851908 
L 258.195632 136.756762 
L 258.520287 143.414632 
L 258.844942 146.769762 
L 259.169596 138.0717 
L 259.494251 140.085015 
L 259.818905 145.765656 
L 260.14356 148.013113 
L 260.468214 139.651669 
L 260.792869 144.675596 
L 261.117523 144.025819 
L 261.442178 152.251951 
L 261.766832 156.64015 
L 262.416142 146.749268 
L 262.740796 146.185878 
L 263.065451 154.109282 
L 264.039414 147.162179 
L 264.364069 152.190592 
L 264.688723 146.201848 
L 265.013378 155.42293 
L 265.338032 159.691946 
L 265.662687 157.502978 
L 265.987342 154.304134 
L 266.311996 146.770938 
L 266.636651 145.634331 
L 266.961305 143.611079 
L 267.28596 153.037055 
L 267.610614 151.61871 
L 267.935269 151.988016 
L 268.259923 153.713291 
L 268.584578 153.509309 
L 268.909232 160.990757 
L 269.233887 163.412096 
L 269.558542 164.949436 
L 269.883196 176.366885 
L 270.207851 163.48029 
L 270.532505 161.282352 
L 270.85716 160.351703 
L 271.181814 156.624138 
L 271.506469 161.861478 
L 271.831123 156.219687 
L 272.155778 154.001564 
L 272.480432 155.519507 
L 273.454396 169.36075 
L 273.779051 170.708872 
L 274.42836 152.777933 
L 274.753014 156.038061 
L 275.402323 174.050033 
L 275.726978 174.969157 
L 276.051632 172.733844 
L 276.700942 186.74185 
L 277.025596 180.743975 
L 277.350251 181.415434 
L 277.99956 176.55239 
L 278.324214 179.756832 
L 278.648869 176.323943 
L 278.973523 177.967336 
L 279.298178 173.631375 
L 279.947487 180.528813 
L 280.272142 179.408414 
L 280.596796 171.301992 
L 280.921451 167.010694 
L 281.246105 158.020819 
L 281.57076 171.664938 
L 281.895414 170.668676 
L 282.220069 173.203595 
L 282.544723 173.667022 
L 282.869378 182.052289 
L 283.194032 181.34113 
L 283.518687 180.944739 
L 283.843342 185.659725 
L 284.167996 186.985297 
L 284.492651 183.804411 
L 284.817305 182.035856 
L 285.14196 183.622019 
L 285.466614 184.353819 
L 285.791269 189.599598 
L 286.115923 188.617115 
L 286.440578 197.698164 
L 286.765232 189.29834 
L 287.089887 186.07761 
L 287.414542 180.044028 
L 287.739196 189.05138 
L 288.063851 185.803328 
L 288.388505 198.072793 
L 288.71316 201.477808 
L 289.037814 203.165534 
L 289.362469 205.542589 
L 289.687123 204.988929 
L 290.336432 193.082305 
L 290.661087 189.557004 
L 290.985742 189.505033 
L 291.310396 197.63785 
L 291.635051 191.639742 
L 291.959705 199.416949 
L 292.28436 191.167207 
L 292.609014 190.036657 
L 292.933669 188.438402 
L 293.258323 193.497421 
L 293.582978 187.034723 
L 293.907632 184.236283 
L 294.232287 185.062188 
L 294.556942 193.497446 
L 294.881596 185.169372 
L 295.85556 174.438895 
L 296.180214 177.393503 
L 296.504869 179.014485 
L 296.829523 185.807297 
L 297.154178 183.510634 
L 297.478832 183.689749 
L 297.803487 174.252619 
L 298.128142 180.616076 
L 298.452796 175.478924 
L 298.777451 177.419167 
L 299.102105 177.262487 
L 299.751414 162.917862 
L 300.076069 166.263375 
L 300.400723 167.154294 
L 300.725378 166.061858 
L 301.050032 167.01551 
L 301.374687 164.150783 
L 301.699342 164.745817 
L 302.023996 155.600344 
L 302.673305 147.271575 
L 303.322614 156.785297 
L 303.647269 149.778661 
L 304.296578 154.310254 
L 304.621232 154.871738 
L 304.945887 146.939206 
L 305.270542 158.619581 
L 305.595196 154.70809 
L 305.919851 153.624617 
L 306.56916 163.566428 
L 306.893814 160.264043 
L 307.218469 162.574701 
L 307.543123 157.271606 
L 307.867778 162.062514 
L 308.192432 162.328649 
L 308.517087 159.822099 
L 308.841742 162.227391 
L 309.166396 156.717612 
L 309.815705 158.424236 
L 310.465014 167.699072 
L 310.789669 159.735169 
L 311.114323 167.611974 
L 311.438978 168.006495 
L 311.763632 171.566273 
L 312.088287 169.775527 
L 312.737596 153.72182 
L 313.062251 153.396367 
L 313.386905 150.754805 
L 313.71156 149.854457 
L 314.036214 152.805123 
L 314.360869 152.650793 
L 315.010178 161.104968 
L 315.334832 154.490464 
L 315.659487 153.879637 
L 315.984142 158.282922 
L 316.308796 158.621679 
L 316.633451 163.697086 
L 316.958105 155.755461 
L 317.607414 169.170808 
L 317.932069 163.383326 
L 318.256723 169.442052 
L 318.581378 173.325972 
L 318.906032 179.288289 
L 319.230687 176.530433 
L 319.555342 178.541818 
L 319.879996 179.460623 
L 320.204651 175.308525 
L 320.529305 187.259948 
L 320.85396 187.833595 
L 321.178614 186.963843 
L 321.503269 184.304638 
L 321.827923 190.103772 
L 322.152578 187.81909 
L 322.477232 194.335386 
L 322.801887 193.597466 
L 323.451196 195.43884 
L 323.775851 189.482038 
L 324.100505 200.982729 
L 324.42516 202.819239 
L 325.399123 218.642681 
L 325.723778 219.081712 
L 326.373087 221.282921 
L 326.697742 220.093282 
L 327.022396 225.862558 
L 327.347051 223.682107 
L 327.671705 228.605318 
L 327.99636 227.837999 
L 328.321014 224.109275 
L 328.645669 223.473176 
L 329.294978 212.374647 
L 329.619632 215.619376 
L 329.944287 229.262865 
L 330.268942 237.399215 
L 330.593596 231.172315 
L 330.918251 232.376806 
L 331.242905 234.26681 
L 331.56756 227.902622 
L 331.892214 230.757344 
L 332.216869 221.852399 
L 332.541523 217.752452 
L 333.190832 223.940861 
L 333.515487 233.640443 
L 333.840142 226.78915 
L 334.164796 232.904434 
L 334.489451 230.012338 
L 334.814105 235.786339 
L 335.13876 220.60625 
L 335.463414 221.844947 
L 335.788069 223.61086 
L 336.112723 214.775277 
L 336.762032 220.941237 
L 337.086687 214.969409 
L 337.735996 209.650891 
L 338.060651 211.816028 
L 338.385305 217.728085 
L 338.70996 218.011695 
L 339.034614 220.721819 
L 339.359269 221.148029 
L 339.683923 211.791787 
L 340.008578 212.247654 
L 340.333232 208.36478 
L 340.657887 210.825029 
L 340.982542 214.196643 
L 341.307196 214.139263 
L 341.631851 219.284072 
L 341.956505 221.7342 
L 342.28116 214.678306 
L 342.930469 206.817582 
L 343.255123 206.831825 
L 343.579778 208.567762 
L 343.904432 208.042294 
L 344.229087 212.205812 
L 344.878396 205.548222 
L 345.203051 210.100976 
L 345.85236 204.536571 
L 346.177014 207.85212 
L 346.501669 212.851866 
L 346.826323 214.305604 
L 347.150978 217.325856 
L 347.475632 214.535903 
L 347.800287 213.500516 
L 348.124942 208.759352 
L 348.449596 212.717336 
L 348.774251 213.255214 
L 349.098905 215.419035 
L 349.42356 206.36626 
L 349.748214 206.812874 
L 350.072869 210.371872 
L 350.397523 215.898696 
L 350.722178 213.875704 
L 351.046832 219.310138 
L 351.371487 212.302778 
L 352.020796 218.527174 
L 352.345451 221.003802 
L 352.670105 217.038732 
L 352.99476 221.250614 
L 353.319414 219.765096 
L 353.644069 224.372186 
L 353.968723 226.489964 
L 354.293378 229.894448 
L 354.618032 224.841946 
L 354.942687 226.885743 
L 355.267342 223.721713 
L 355.591996 215.907383 
L 356.241305 227.273037 
L 356.890614 220.47741 
L 357.864578 248.56758 
L 358.189232 241.578799 
L 358.513887 245.440723 
L 359.163196 249.423624 
L 359.487851 249.621216 
L 359.812505 257.436227 
L 360.13716 261.216 
L 360.461814 252.609777 
L 360.786469 256.113157 
L 361.435778 240.556756 
L 361.760432 247.299275 
L 362.085087 244.259021 
L 362.409742 243.956614 
L 362.734396 244.002849 
L 363.059051 245.914818 
L 363.383705 250.764263 
L 363.70836 249.947144 
L 364.033014 257.211842 
L 364.357669 251.906031 
L 364.682323 252.916873 
L 365.006978 252.057944 
L 365.331632 253.85439 
L 365.656287 249.877884 
L 365.980942 248.168259 
L 366.305596 245.275446 
L 366.630251 238.800435 
L 366.954905 236.7083 
L 367.604214 246.657903 
L 367.928869 246.383165 
L 368.253523 243.619925 
L 368.578178 239.830744 
L 368.902832 240.143239 
L 369.227487 242.188538 
L 369.552142 242.322593 
L 369.876796 241.719068 
L 370.201451 237.998973 
L 370.85076 238.250813 
L 371.175414 231.958779 
L 371.500069 230.996361 
L 371.824723 226.733085 
L 372.149378 227.595639 
L 372.474032 227.196129 
L 372.798687 230.011374 
L 372.798687 230.011374 
" clip-path="url(#pee9ea244c3)" style="fill: none; stroke: #e46e56; stroke-width: 1.5; stroke-linecap: square"/>
   </g>
   <g id="line2d_13">
    <path d="M 48.144142 37.036689 
L 48.468796 33.262263 
L 48.793451 25.800448 
L 49.118105 24.453379 
L 49.44276 34.740878 
L 50.092069 37.758014 
L 50.416723 36.928117 
L 50.741378 24.849125 
L 51.066032 22.838947 
L 51.390687 29.201995 
L 51.715342 19.296 
L 52.039996 25.180083 
L 52.364651 27.300411 
L 52.689305 33.201696 
L 53.01396 21.672526 
L 53.338614 31.322402 
L 53.663269 31.167741 
L 53.987923 33.246774 
L 54.312578 39.865368 
L 54.637232 33.452624 
L 54.961887 30.420004 
L 55.611196 46.456444 
L 55.935851 42.452781 
L 56.260505 40.298224 
L 56.58516 45.451723 
L 56.909814 63.601933 
L 57.559123 52.968924 
L 57.883778 47.245139 
L 58.533087 62.442407 
L 58.857742 63.195011 
L 59.182396 69.417431 
L 59.831705 57.291908 
L 60.481014 51.050714 
L 60.805669 50.509342 
L 61.454978 61.750347 
L 61.779632 73.145059 
L 62.104287 66.636714 
L 62.428942 66.140384 
L 62.753596 67.037684 
L 63.078251 67.130007 
L 63.402905 67.39185 
L 63.72756 74.049242 
L 64.052214 74.055976 
L 64.376869 72.056329 
L 64.701523 70.757037 
L 65.026178 70.742198 
L 65.350832 66.001788 
L 65.675487 68.592285 
L 66.000142 72.650375 
L 66.324796 79.016613 
L 66.649451 76.229523 
L 66.974105 79.238431 
L 67.29876 79.486925 
L 67.623414 83.689717 
L 67.948069 83.695928 
L 68.272723 71.082506 
L 68.922032 73.917761 
L 69.571342 87.865797 
L 69.895996 88.97946 
L 70.220651 91.457019 
L 70.545305 81.037004 
L 70.86996 84.578915 
L 71.194614 79.84397 
L 71.519269 86.974801 
L 71.843923 90.752228 
L 72.168578 92.111896 
L 72.493232 86.577042 
L 72.817887 89.871282 
L 73.467196 86.270532 
L 73.791851 87.614061 
L 74.116505 89.829049 
L 74.44116 93.889863 
L 74.765814 93.45866 
L 75.090469 88.41865 
L 75.415123 94.284254 
L 75.739778 97.105393 
L 76.064432 94.508745 
L 76.389087 87.541769 
L 76.713742 93.518058 
L 77.038396 79.981345 
L 77.363051 83.541776 
L 77.687705 77.959048 
L 78.01236 78.317052 
L 78.661669 85.47649 
L 78.986323 98.041438 
L 79.310978 99.006231 
L 79.635632 97.857163 
L 79.960287 91.185168 
L 80.284942 97.08235 
L 80.609596 92.846007 
L 80.934251 96.053763 
L 81.258905 100.628606 
L 81.58356 99.825127 
L 81.908214 105.233237 
L 82.232869 99.600083 
L 82.557523 100.771806 
L 82.882178 89.130101 
L 83.531487 98.609222 
L 84.180796 81.054255 
L 84.505451 84.498672 
L 84.830105 83.784529 
L 85.15476 85.342287 
L 85.804069 70.017591 
L 86.128723 67.119504 
L 86.453378 65.799846 
L 86.778032 55.114744 
L 87.102687 55.088479 
L 87.427342 60.617199 
L 88.076651 56.293747 
L 88.401305 56.96806 
L 88.72596 57.178658 
L 89.375269 50.170205 
L 89.699923 56.880026 
L 90.349232 49.153972 
L 90.673887 55.719958 
L 90.998542 53.358303 
L 91.323196 48.916133 
L 91.647851 42.319257 
L 91.972505 54.150121 
L 92.29716 55.283966 
L 92.621814 58.103822 
L 93.271123 49.764354 
L 93.595778 51.268663 
L 93.920432 51.183222 
L 94.245087 54.133635 
L 94.569742 55.165958 
L 95.219051 64.583881 
L 95.543705 66.07895 
L 95.86836 60.135657 
L 96.193014 73.684706 
L 96.517669 69.724023 
L 96.842323 68.571484 
L 97.166978 69.356523 
L 97.491632 63.229021 
L 97.816287 61.281988 
L 98.140942 61.484579 
L 98.465596 57.45836 
L 98.790251 61.728976 
L 99.114905 53.105492 
L 99.43956 62.096024 
L 99.764214 48.655571 
L 100.088869 53.807459 
L 100.738178 68.068221 
L 101.062832 71.297293 
L 101.387487 64.06473 
L 101.712142 60.970202 
L 102.036796 67.580051 
L 102.361451 67.411503 
L 102.686105 60.82268 
L 103.335414 55.646387 
L 103.984723 55.389666 
L 104.309378 50.030838 
L 104.634032 48.365664 
L 104.958687 52.758645 
L 105.283342 47.325332 
L 105.607996 48.710548 
L 105.932651 51.999444 
L 106.257305 61.193157 
L 106.58196 62.888084 
L 107.231269 64.064021 
L 107.555923 56.147807 
L 107.880578 62.528424 
L 108.205232 59.253343 
L 108.529887 66.44393 
L 108.854542 70.20907 
L 109.179196 66.040071 
L 109.503851 71.253289 
L 109.828505 66.547619 
L 110.15316 65.722979 
L 110.477814 64.187464 
L 110.802469 63.575298 
L 111.127123 65.635621 
L 111.451778 66.522121 
L 111.776432 74.346767 
L 112.101087 79.399559 
L 112.425742 81.262713 
L 112.750396 86.807311 
L 113.075051 78.200461 
L 113.399705 73.082185 
L 113.72436 73.942417 
L 114.049014 78.100628 
L 114.373669 85.399313 
L 114.698323 88.385395 
L 115.022978 83.612781 
L 115.347632 84.009883 
L 115.672287 78.849919 
L 116.321596 80.617757 
L 116.646251 79.125259 
L 116.970905 81.240839 
L 117.620214 88.932674 
L 117.944869 91.494262 
L 118.269523 91.853552 
L 118.594178 90.988908 
L 118.918832 88.601328 
L 119.243487 91.648174 
L 119.568142 81.982923 
L 119.892796 79.544925 
L 120.217451 79.30821 
L 120.542105 74.8016 
L 120.86676 77.2158 
L 121.191414 73.144279 
L 121.516069 75.029421 
L 121.840723 74.014156 
L 122.165378 74.176464 
L 122.490032 76.364748 
L 122.814687 76.779976 
L 123.139342 67.861827 
L 123.463996 62.589909 
L 123.788651 61.312374 
L 124.113305 65.494445 
L 124.43796 61.082334 
L 124.762614 67.895994 
L 125.087269 77.460225 
L 125.411923 78.434555 
L 125.736578 78.183447 
L 126.061232 64.443056 
L 126.385887 55.835221 
L 126.710542 54.032162 
L 127.035196 42.364302 
L 127.359851 43.571691 
L 127.684505 38.099381 
L 128.00916 36.515107 
L 128.333814 39.983742 
L 128.658469 36.677092 
L 128.983123 48.991213 
L 129.307778 41.883641 
L 129.632432 42.864058 
L 129.957087 50.565043 
L 130.281742 63.597221 
L 130.606396 67.758173 
L 130.931051 55.979499 
L 131.255705 55.266152 
L 131.58036 65.668477 
L 131.905014 69.648971 
L 132.229669 64.987213 
L 132.554323 64.70114 
L 132.878978 65.831476 
L 133.203632 71.097002 
L 133.528287 69.176799 
L 133.852942 68.275871 
L 134.177596 71.690966 
L 134.826905 59.514411 
L 135.15156 58.561146 
L 135.476214 43.161053 
L 135.800869 42.827255 
L 136.125523 48.396274 
L 136.450178 48.123086 
L 136.774832 50.792579 
L 137.099487 44.709205 
L 137.424142 45.134715 
L 137.748796 47.055188 
L 138.398105 52.16486 
L 138.72276 44.228579 
L 139.047414 44.532637 
L 139.372069 46.794965 
L 139.696723 51.625143 
L 140.021378 58.938366 
L 140.346032 57.150958 
L 140.670687 63.486946 
L 140.995342 59.34506 
L 141.319996 66.077001 
L 141.644651 65.589429 
L 141.969305 68.402982 
L 142.29396 72.214253 
L 142.618614 78.948291 
L 142.943269 74.680483 
L 143.267923 77.148972 
L 143.592578 86.797696 
L 143.917232 82.99278 
L 144.241887 75.53004 
L 144.566542 74.193153 
L 144.891196 74.341089 
L 145.215851 87.174952 
L 145.540505 84.772514 
L 145.86516 91.21067 
L 146.189814 93.029414 
L 146.514469 88.382352 
L 146.839123 89.112351 
L 147.488432 69.031482 
L 147.813087 69.735529 
L 148.137742 64.207062 
L 148.462396 71.293579 
L 148.787051 70.044278 
L 149.111705 66.944846 
L 149.761014 79.079969 
L 150.085669 81.105575 
L 151.059632 67.042387 
L 151.384287 70.086858 
L 151.708942 61.171711 
L 152.033596 56.553759 
L 152.358251 65.096027 
L 153.00756 74.721435 
L 153.332214 77.770974 
L 153.981523 80.096174 
L 154.306178 82.028267 
L 154.630832 78.306634 
L 155.280142 93.565333 
L 155.604796 97.41965 
L 156.254105 90.096176 
L 156.903414 97.601381 
L 157.552723 80.625959 
L 157.877378 78.843396 
L 158.202032 80.49157 
L 158.851342 78.704261 
L 159.175996 86.645746 
L 159.500651 73.007711 
L 159.825305 80.224023 
L 160.14996 79.534089 
L 160.474614 72.869522 
L 160.799269 72.170315 
L 161.123923 82.974706 
L 161.773232 72.629429 
L 162.097887 72.745954 
L 162.422542 73.293699 
L 162.747196 69.252776 
L 163.396505 82.947747 
L 163.72116 72.51265 
L 164.045814 77.108876 
L 164.370469 70.734323 
L 164.695123 80.929015 
L 165.019778 82.321761 
L 165.344432 72.495317 
L 165.993742 80.906791 
L 166.318396 76.311381 
L 166.643051 74.430274 
L 166.967705 83.476119 
L 167.29236 80.490002 
L 167.617014 80.630495 
L 168.266323 89.010007 
L 168.590978 96.301369 
L 168.915632 91.399007 
L 169.240287 91.71232 
L 169.564942 93.325969 
L 169.889596 96.687149 
L 170.214251 105.516201 
L 170.538905 106.564954 
L 170.86356 107.161873 
L 171.188214 101.923666 
L 171.512869 102.810525 
L 171.837523 116.162043 
L 172.162178 118.68906 
L 172.486832 118.067125 
L 172.811487 116.251474 
L 173.460796 137.749877 
L 173.785451 134.009217 
L 174.110105 132.116718 
L 174.43476 140.703588 
L 174.759414 143.333997 
L 175.084069 133.803817 
L 175.408723 133.462881 
L 175.733378 127.255691 
L 176.058032 126.28539 
L 176.382687 118.559184 
L 176.707342 122.785754 
L 177.031996 119.535022 
L 177.356651 126.748595 
L 177.681305 122.144609 
L 178.00596 122.576045 
L 178.330614 118.197844 
L 178.655269 118.717028 
L 178.979923 123.995528 
L 179.304578 136.501257 
L 179.629232 129.269122 
L 179.953887 128.088543 
L 180.278542 126.065921 
L 180.603196 115.765419 
L 180.927851 116.876597 
L 181.252505 116.833916 
L 181.57716 109.101953 
L 181.901814 104.257553 
L 182.226469 104.144357 
L 182.551123 112.269843 
L 182.875778 97.503064 
L 183.525087 87.817262 
L 183.849742 87.434441 
L 184.499051 78.450272 
L 184.823705 85.31638 
L 185.14836 80.859312 
L 185.473014 81.54867 
L 186.122323 72.057457 
L 186.446978 74.684251 
L 186.771632 82.84072 
L 187.096287 75.766158 
L 187.420942 76.971142 
L 187.745596 70.109675 
L 188.070251 68.532845 
L 188.394905 65.59827 
L 189.044214 70.800818 
L 189.368869 66.677584 
L 189.693523 77.107536 
L 190.018178 78.105974 
L 190.342832 84.82042 
L 190.667487 79.430929 
L 190.992142 78.604407 
L 191.316796 78.817582 
L 191.641451 86.149871 
L 192.29076 95.30958 
L 192.940069 85.111672 
L 193.264723 89.369288 
L 193.589378 97.21609 
L 193.914032 96.939928 
L 194.238687 90.081968 
L 194.563342 96.062886 
L 194.887996 99.476696 
L 195.212651 107.606959 
L 195.537305 98.546871 
L 196.186614 96.010937 
L 196.511269 99.260727 
L 196.835923 101.107092 
L 197.160578 109.419576 
L 197.809887 111.77545 
L 198.134542 106.270076 
L 198.459196 97.217591 
L 198.783851 97.20188 
L 199.108505 101.794329 
L 199.757814 86.090939 
L 200.082469 87.362343 
L 200.407123 86.045822 
L 200.731778 86.959817 
L 201.056432 86.398098 
L 201.705742 104.157283 
L 202.030396 100.054287 
L 202.355051 88.512657 
L 202.679705 93.237837 
L 203.00436 89.20618 
L 203.329014 81.724709 
L 203.653669 84.37912 
L 203.978323 89.591978 
L 204.627632 74.799128 
L 204.952287 70.604852 
L 205.276942 74.382985 
L 205.601596 84.003467 
L 206.250905 73.413339 
L 206.57556 73.014351 
L 206.900214 68.90362 
L 207.224869 66.2887 
L 207.874178 56.330876 
L 208.198832 48.449417 
L 208.523487 46.223404 
L 208.848142 40.702196 
L 209.172796 50.566139 
L 209.822105 53.957491 
L 210.14676 54.690123 
L 210.471414 46.716771 
L 210.796069 47.65814 
L 211.120723 43.092971 
L 211.445378 45.686782 
L 211.770032 46.577834 
L 212.094687 49.259814 
L 212.419342 49.729054 
L 212.743996 55.440871 
L 213.068651 54.555342 
L 213.393305 50.103661 
L 213.71796 47.221806 
L 214.042614 52.456038 
L 214.367269 51.282862 
L 214.691923 51.229339 
L 215.016578 41.881509 
L 215.341232 49.929811 
L 215.990542 42.417003 
L 216.315196 46.52658 
L 216.639851 46.396515 
L 216.964505 42.966168 
L 217.613814 50.682421 
L 217.938469 44.668547 
L 218.263123 45.897417 
L 219.561742 66.404012 
L 219.886396 81.091147 
L 220.211051 78.506791 
L 220.535705 76.871989 
L 220.86036 72.583391 
L 221.185014 75.775652 
L 221.509669 73.87129 
L 221.834323 86.554134 
L 222.158978 94.83556 
L 222.808287 76.951411 
L 223.132942 84.043038 
L 223.457596 79.405677 
L 223.782251 78.125423 
L 224.106905 71.797657 
L 224.43156 82.125452 
L 224.756214 75.874343 
L 225.080869 81.997974 
L 225.405523 79.98741 
L 225.730178 87.448224 
L 226.054832 85.330608 
L 226.379487 85.277572 
L 226.704142 91.45908 
L 227.028796 94.771058 
L 227.353451 95.807762 
L 227.678105 94.974811 
L 228.00276 93.047427 
L 228.327414 86.19404 
L 228.652069 88.984466 
L 228.976723 84.275088 
L 229.301378 87.892405 
L 229.950687 91.903819 
L 230.275342 92.019935 
L 230.599996 97.771714 
L 230.924651 96.648934 
L 231.249305 101.242026 
L 231.57396 100.200922 
L 231.898614 100.459927 
L 232.223269 101.747008 
L 232.547923 94.940994 
L 232.872578 97.356003 
L 233.197232 93.459634 
L 233.521887 104.432925 
L 233.846542 101.722165 
L 234.171196 107.951414 
L 234.495851 107.187007 
L 234.820505 110.561628 
L 235.14516 97.533793 
L 235.469814 90.699952 
L 235.794469 86.605581 
L 236.119123 91.379393 
L 236.443778 88.810232 
L 236.768432 87.597315 
L 237.093087 91.090653 
L 237.417742 83.380389 
L 237.742396 79.273202 
L 238.067051 72.679399 
L 238.391705 73.511206 
L 238.71636 65.956403 
L 239.365669 84.646859 
L 239.690323 87.409986 
L 240.014978 88.254318 
L 240.339632 95.734962 
L 240.664287 91.679415 
L 240.988942 108.404908 
L 241.313596 95.217698 
L 241.638251 98.390229 
L 241.962905 93.111481 
L 242.28756 90.759231 
L 242.612214 89.992601 
L 242.936869 93.128939 
L 243.261523 91.310058 
L 243.586178 78.157449 
L 244.560142 95.427707 
L 244.884796 88.613814 
L 245.209451 94.679367 
L 245.534105 93.683304 
L 245.85876 88.041607 
L 246.183414 92.00958 
L 246.508069 89.917028 
L 246.832723 96.163049 
L 247.157378 91.535588 
L 247.806687 86.626467 
L 248.131342 76.26428 
L 248.455996 72.581962 
L 248.780651 72.059325 
L 249.105305 70.431823 
L 249.42996 64.70287 
L 249.754614 71.534311 
L 250.079269 67.868564 
L 250.403923 67.534876 
L 250.728578 73.22651 
L 251.053232 68.799383 
L 251.377887 77.730099 
L 251.702542 75.904646 
L 252.027196 73.305388 
L 252.351851 76.059452 
L 252.676505 76.514841 
L 253.00116 80.801874 
L 253.325814 80.022223 
L 253.650469 76.84618 
L 253.975123 75.465908 
L 254.299778 86.405339 
L 254.624432 89.803192 
L 255.273742 93.264073 
L 255.598396 88.247789 
L 255.923051 94.094248 
L 256.897014 71.034867 
L 257.221669 66.939375 
L 257.546323 66.225665 
L 257.870978 66.540714 
L 258.195632 70.876399 
L 258.520287 64.496717 
L 258.844942 53.909558 
L 259.169596 52.996594 
L 259.494251 55.433065 
L 259.818905 51.161579 
L 260.14356 44.558206 
L 260.468214 50.999217 
L 260.792869 51.60894 
L 261.117523 55.407591 
L 261.442178 61.463346 
L 261.766832 71.190317 
L 262.091487 71.232954 
L 262.416142 78.006835 
L 262.740796 75.157666 
L 263.065451 70.538461 
L 263.390105 76.801672 
L 263.71476 76.214518 
L 264.039414 85.356342 
L 264.688723 63.526978 
L 265.013378 68.76253 
L 265.338032 67.608144 
L 265.662687 63.845076 
L 265.987342 71.591873 
L 266.311996 67.938803 
L 266.636651 76.852764 
L 266.961305 73.967852 
L 267.28596 75.65126 
L 267.610614 89.330654 
L 267.935269 87.178822 
L 268.259923 89.849541 
L 268.584578 82.966435 
L 269.233887 93.372474 
L 269.558542 86.482903 
L 269.883196 87.804389 
L 270.207851 96.00753 
L 270.532505 99.881085 
L 270.85716 100.378457 
L 271.181814 104.409526 
L 271.506469 103.783258 
L 271.831123 95.298723 
L 272.155778 96.968482 
L 272.480432 97.787373 
L 272.805087 103.53034 
L 273.129742 99.261196 
L 273.454396 100.438735 
L 273.779051 103.323908 
L 274.42836 105.756607 
L 274.753014 110.825567 
L 275.077669 108.999389 
L 275.726978 102.772098 
L 276.051632 103.785286 
L 276.376287 106.182963 
L 276.700942 103.144217 
L 277.025596 103.213872 
L 277.350251 111.082609 
L 277.674905 111.040572 
L 277.99956 105.01391 
L 278.648869 87.358108 
L 278.973523 83.580654 
L 279.298178 89.295442 
L 279.947487 76.813508 
L 280.272142 72.799268 
L 280.596796 70.927927 
L 280.921451 73.670916 
L 281.246105 81.323407 
L 281.57076 75.045398 
L 281.895414 81.735433 
L 282.220069 78.494564 
L 282.869378 87.129391 
L 283.194032 89.137737 
L 283.518687 88.786063 
L 283.843342 80.445685 
L 284.167996 85.683939 
L 284.492651 96.555633 
L 284.817305 87.401474 
L 285.14196 95.863949 
L 285.466614 94.717302 
L 285.791269 88.446549 
L 286.115923 85.248682 
L 286.440578 88.15607 
L 286.765232 93.84889 
L 287.414542 75.470892 
L 287.739196 73.643144 
L 288.063851 66.573259 
L 288.388505 65.656008 
L 288.71316 69.182723 
L 289.037814 56.215968 
L 289.362469 67.897142 
L 289.687123 68.617828 
L 290.011778 73.205761 
L 290.336432 69.360075 
L 290.661087 67.242118 
L 290.985742 69.790412 
L 291.310396 79.207017 
L 291.635051 75.807084 
L 291.959705 77.535105 
L 292.28436 83.38306 
L 292.609014 75.40566 
L 292.933669 79.178513 
L 293.258323 80.614836 
L 293.582978 82.67259 
L 293.907632 81.904343 
L 294.232287 85.717996 
L 294.556942 90.859088 
L 294.881596 93.936545 
L 295.206251 95.676619 
L 295.530905 98.994966 
L 296.180214 122.880447 
L 296.504869 127.273615 
L 296.829523 123.309139 
L 297.154178 112.516817 
L 297.478832 107.5331 
L 297.803487 116.492717 
L 298.128142 110.330196 
L 298.452796 112.344791 
L 299.102105 96.779902 
L 299.42676 105.433767 
L 299.751414 110.082068 
L 300.076069 116.402428 
L 300.400723 108.419115 
L 300.725378 105.376575 
L 301.050032 112.38645 
L 301.374687 107.703814 
L 301.699342 99.080457 
L 302.023996 93.828563 
L 302.348651 94.172108 
L 302.673305 93.102083 
L 302.99796 98.200514 
L 303.322614 95.563297 
L 304.296578 112.012459 
L 304.945887 97.606475 
L 305.270542 101.239344 
L 305.595196 97.271272 
L 305.919851 99.809489 
L 306.244505 106.558407 
L 306.56916 105.890009 
L 306.893814 109.945868 
L 307.218469 100.330418 
L 307.543123 100.507641 
L 307.867778 102.588079 
L 308.192432 108.036674 
L 308.517087 120.513764 
L 308.841742 111.847683 
L 309.166396 110.959248 
L 309.491051 108.401681 
L 309.815705 112.299606 
L 310.14036 112.986245 
L 310.465014 112.819059 
L 310.789669 115.821364 
L 311.114323 113.463165 
L 311.438978 118.638422 
L 311.763632 101.455196 
L 312.088287 100.813812 
L 312.412942 98.004438 
L 312.737596 92.800946 
L 313.062251 95.397977 
L 313.386905 95.689614 
L 313.71156 97.527722 
L 314.036214 95.303361 
L 314.360869 96.030705 
L 315.010178 76.84618 
L 315.659487 83.662735 
L 315.984142 84.75476 
L 316.308796 90.609861 
L 316.633451 99.455615 
L 316.958105 95.726375 
L 317.28276 95.77768 
L 317.607414 90.892119 
L 317.932069 92.019366 
L 318.256723 95.168067 
L 318.581378 102.920222 
L 318.906032 97.046306 
L 319.230687 108.782698 
L 319.555342 104.439171 
L 319.879996 113.384459 
L 320.204651 118.731515 
L 320.529305 121.413522 
L 320.85396 126.735795 
L 321.178614 126.098653 
L 321.503269 122.446498 
L 321.827923 114.391371 
L 322.152578 111.916255 
L 322.477232 114.317653 
L 323.126542 120.386636 
L 323.451196 123.039386 
L 323.775851 115.67745 
L 324.100505 120.492095 
L 324.42516 121.563489 
L 324.749814 120.938995 
L 325.074469 114.152712 
L 325.399123 117.532916 
L 325.723778 117.102037 
L 326.048432 124.423716 
L 326.373087 122.009072 
L 326.697742 111.642887 
L 327.022396 112.170893 
L 327.347051 114.933464 
L 327.671705 118.993779 
L 327.99636 117.712826 
L 328.321014 102.562879 
L 328.645669 106.698894 
L 328.970323 99.74344 
L 329.294978 98.08836 
L 329.619632 101.930331 
L 329.944287 99.458516 
L 330.268942 104.384253 
L 330.593596 93.277427 
L 330.918251 101.231288 
L 331.242905 104.571813 
L 331.56756 102.742208 
L 331.892214 89.418416 
L 332.216869 99.021532 
L 332.541523 85.976025 
L 332.866178 79.570153 
L 333.190832 83.849866 
L 333.515487 85.746768 
L 333.840142 85.814023 
L 334.164796 83.085509 
L 334.814105 105.057151 
L 335.13876 100.305055 
L 335.463414 93.43931 
L 335.788069 99.698335 
L 336.437378 95.515036 
L 337.086687 103.046113 
L 337.411342 106.742316 
L 337.735996 104.72062 
L 338.060651 115.088584 
L 338.385305 109.699055 
L 338.70996 110.537889 
L 339.034614 110.757207 
L 339.359269 105.512875 
L 339.683923 103.003398 
L 340.008578 93.776111 
L 340.657887 107.437363 
L 340.982542 109.866792 
L 341.307196 107.944684 
L 341.631851 126.703808 
L 341.956505 120.905326 
L 342.28116 112.896194 
L 342.605814 116.389053 
L 343.255123 115.329504 
L 343.904432 123.20125 
L 344.229087 119.565133 
L 344.553742 113.605853 
L 344.878396 120.510461 
L 345.203051 118.130763 
L 345.527705 117.404004 
L 345.85236 114.085039 
L 346.177014 106.575131 
L 346.501669 114.708619 
L 346.826323 104.172509 
L 347.150978 108.141655 
L 347.475632 98.562774 
L 347.800287 93.433742 
L 348.124942 98.59374 
L 348.449596 88.225215 
L 348.774251 88.098932 
L 349.098905 92.800274 
L 349.42356 93.121944 
L 349.748214 90.410196 
L 350.072869 93.976816 
L 350.397523 100.143055 
L 351.046832 93.724382 
L 351.371487 95.003632 
L 351.696142 104.249281 
L 352.345451 115.98912 
L 352.670105 112.112673 
L 352.99476 118.164417 
L 353.319414 108.84131 
L 353.644069 106.355381 
L 353.968723 98.559741 
L 354.293378 99.091295 
L 354.618032 102.864474 
L 354.942687 97.189512 
L 355.267342 101.86457 
L 355.591996 97.847006 
L 355.916651 96.921748 
L 356.241305 96.630258 
L 356.56596 102.802666 
L 356.890614 98.064618 
L 357.215269 85.596056 
L 357.539923 84.369076 
L 358.189232 97.532769 
L 358.838542 87.528118 
L 359.487851 78.077139 
L 359.812505 80.136698 
L 360.13716 94.846291 
L 360.461814 95.376486 
L 360.786469 101.142548 
L 361.111123 97.851689 
L 361.435778 98.8195 
L 361.760432 100.705541 
L 362.085087 107.311963 
L 362.409742 118.041429 
L 363.059051 128.250764 
L 363.383705 113.400614 
L 363.70836 120.141759 
L 364.033014 111.817623 
L 364.357669 111.594108 
L 364.682323 118.449375 
L 365.006978 119.942658 
L 365.331632 117.656209 
L 365.656287 125.463895 
L 365.980942 125.84555 
L 366.305596 130.826424 
L 366.630251 139.917115 
L 366.954905 142.863266 
L 367.27956 139.991257 
L 367.604214 147.362708 
L 367.928869 144.752012 
L 368.253523 144.872754 
L 368.578178 135.176536 
L 368.902832 131.978338 
L 369.227487 124.037595 
L 369.552142 124.599318 
L 370.201451 115.316898 
L 370.526105 114.306587 
L 370.85076 104.597548 
L 371.175414 105.602097 
L 371.500069 105.283098 
L 371.824723 109.255031 
L 372.149378 104.185334 
L 372.474032 109.693467 
L 372.798687 117.516459 
L 372.798687 117.516459 
" clip-path="url(#pee9ea244c3)" style="fill: none; stroke: #d1dae9; stroke-width: 1.5; stroke-linecap: square"/>
   </g>
   <g id="line2d_14">
    <path d="M 48.144142 58.419212 
L 48.468796 48.398801 
L 48.793451 56.224616 
L 49.118105 50.688078 
L 49.44276 59.164807 
L 49.767414 51.554677 
L 50.092069 56.123255 
L 50.416723 50.028149 
L 50.741378 56.383766 
L 51.066032 66.453296 
L 51.715342 70.551505 
L 52.039996 67.537397 
L 52.364651 63.233411 
L 53.338614 85.783168 
L 53.663269 84.668583 
L 53.987923 79.269371 
L 54.312578 85.054263 
L 54.637232 85.193692 
L 54.961887 76.644698 
L 55.286542 73.444768 
L 55.611196 79.002515 
L 55.935851 74.994271 
L 56.260505 73.470299 
L 56.58516 83.644302 
L 56.909814 82.516498 
L 57.234469 85.905601 
L 57.559123 84.710567 
L 57.883778 86.43711 
L 58.208432 87.153929 
L 58.533087 88.436862 
L 58.857742 92.647628 
L 59.182396 84.585663 
L 59.507051 80.220547 
L 59.831705 86.525013 
L 60.15636 80.4085 
L 60.481014 82.073194 
L 60.805669 75.94332 
L 61.130323 80.459035 
L 61.454978 77.310981 
L 61.779632 78.127475 
L 62.104287 78.560252 
L 62.428942 82.126693 
L 62.753596 83.792648 
L 63.078251 89.137687 
L 63.402905 87.991717 
L 63.72756 95.731231 
L 64.052214 90.702429 
L 64.376869 89.097988 
L 64.701523 86.227406 
L 65.026178 75.60307 
L 65.350832 74.585874 
L 65.675487 69.652783 
L 66.000142 66.930068 
L 66.324796 68.54008 
L 66.649451 68.130603 
L 67.29876 69.997494 
L 67.623414 72.423863 
L 67.948069 68.153282 
L 68.597378 65.37729 
L 68.922032 67.613601 
L 69.246687 71.53713 
L 69.571342 63.435775 
L 69.895996 68.317277 
L 70.545305 58.89181 
L 70.86996 60.664125 
L 71.194614 57.353735 
L 71.519269 55.755988 
L 72.168578 67.609148 
L 72.493232 50.685653 
L 72.817887 49.177497 
L 73.142542 49.889976 
L 73.467196 48.755615 
L 73.791851 40.993482 
L 74.116505 41.525875 
L 74.44116 45.031081 
L 74.765814 41.437333 
L 75.090469 56.57043 
L 75.739778 72.205845 
L 76.064432 73.16044 
L 76.389087 85.696586 
L 76.713742 88.350152 
L 77.038396 81.201884 
L 77.363051 84.355308 
L 78.337014 63.045562 
L 78.661669 72.459032 
L 78.986323 70.433127 
L 79.310978 64.339386 
L 79.635632 63.165591 
L 80.284942 75.577427 
L 80.934251 48.242573 
L 81.258905 44.789235 
L 81.58356 43.797232 
L 81.908214 43.655776 
L 82.232869 44.829171 
L 82.557523 38.537013 
L 82.882178 38.817854 
L 83.206832 48.932529 
L 83.531487 46.438058 
L 83.856142 51.781911 
L 84.180796 49.902181 
L 84.505451 51.408917 
L 84.830105 50.219835 
L 85.15476 46.783287 
L 85.479414 40.574307 
L 87.427342 76.176437 
L 87.751996 78.511445 
L 88.076651 81.844894 
L 88.401305 80.218153 
L 88.72596 82.486719 
L 89.050614 83.043132 
L 89.375269 90.373695 
L 89.699923 90.78956 
L 90.349232 81.400949 
L 90.998542 87.00279 
L 91.323196 84.946769 
L 91.647851 75.785154 
L 91.972505 80.516683 
L 92.621814 70.110253 
L 92.946469 78.400148 
L 93.271123 76.858891 
L 93.595778 70.252645 
L 93.920432 86.377321 
L 94.245087 92.242304 
L 94.569742 89.048069 
L 94.894396 93.470428 
L 95.543705 85.414617 
L 95.86836 86.57785 
L 96.193014 86.856836 
L 96.517669 94.663595 
L 96.842323 90.841381 
L 97.166978 89.581991 
L 97.491632 89.625814 
L 97.816287 93.740206 
L 98.140942 93.015843 
L 98.465596 89.98677 
L 98.790251 103.481872 
L 99.114905 97.336011 
L 99.43956 93.574755 
L 99.764214 96.204202 
L 100.413523 88.763078 
L 100.738178 87.396445 
L 101.062832 88.109068 
L 101.387487 76.257496 
L 101.712142 90.386936 
L 102.036796 95.522908 
L 102.361451 95.846107 
L 102.686105 92.250948 
L 103.01076 93.367477 
L 103.335414 96.692886 
L 103.660069 93.31886 
L 103.984723 93.482063 
L 104.309378 94.706082 
L 104.634032 106.390566 
L 104.958687 95.286355 
L 105.283342 91.688279 
L 105.607996 93.915571 
L 105.932651 91.847995 
L 106.257305 91.042777 
L 106.58196 89.736235 
L 106.906614 88.938072 
L 107.231269 81.64453 
L 107.555923 84.231011 
L 107.880578 93.504751 
L 108.205232 89.086693 
L 108.529887 80.923936 
L 108.854542 85.077051 
L 109.179196 81.09552 
L 109.503851 82.835471 
L 109.828505 86.301913 
L 110.15316 86.257126 
L 110.802469 95.159901 
L 111.127123 91.266024 
L 111.451778 91.50902 
L 111.776432 90.557117 
L 112.101087 80.322497 
L 112.425742 82.226971 
L 112.750396 81.516644 
L 113.075051 87.488792 
L 113.399705 88.349633 
L 113.72436 82.629071 
L 114.049014 80.806748 
L 114.373669 88.373873 
L 114.698323 84.389417 
L 115.022978 85.629629 
L 115.672287 76.311726 
L 115.996942 80.154111 
L 116.321596 76.806254 
L 116.646251 71.849538 
L 116.970905 70.370234 
L 117.29556 80.74607 
L 117.620214 77.343413 
L 117.944869 78.029991 
L 118.269523 73.340133 
L 118.918832 62.266787 
L 119.243487 59.35499 
L 119.568142 53.632425 
L 119.892796 60.271061 
L 120.217451 53.309907 
L 120.542105 62.250343 
L 121.191414 56.603687 
L 121.516069 57.207565 
L 121.840723 69.264161 
L 122.814687 76.527778 
L 123.139342 82.534992 
L 123.463996 71.600218 
L 123.788651 71.384054 
L 124.113305 72.288739 
L 124.43796 84.425407 
L 124.762614 84.806828 
L 125.411923 93.610227 
L 125.736578 85.221871 
L 126.061232 100.886457 
L 126.385887 95.875622 
L 126.710542 94.039356 
L 127.035196 94.419671 
L 127.359851 90.295754 
L 127.684505 88.426916 
L 128.00916 83.873613 
L 128.333814 93.647245 
L 128.658469 99.568954 
L 128.983123 94.281301 
L 129.307778 85.749419 
L 129.632432 85.250238 
L 130.281742 76.314673 
L 130.606396 64.994327 
L 130.931051 62.543002 
L 131.58036 54.136778 
L 131.905014 54.162976 
L 132.229669 53.803611 
L 132.554323 67.114929 
L 132.878978 69.894699 
L 133.528287 54.813356 
L 133.852942 64.150394 
L 134.177596 55.036477 
L 134.502251 51.161455 
L 134.826905 50.554526 
L 135.15156 54.110732 
L 135.476214 59.633025 
L 135.800869 52.410612 
L 136.125523 61.563567 
L 136.450178 65.486956 
L 136.774832 78.466399 
L 137.099487 78.282678 
L 137.424142 88.463809 
L 137.748796 87.894603 
L 138.073451 90.670984 
L 138.398105 94.852204 
L 138.72276 93.673555 
L 139.047414 91.902975 
L 139.372069 86.586314 
L 139.696723 75.917978 
L 140.021378 73.587515 
L 140.346032 65.055915 
L 140.670687 68.41819 
L 140.995342 57.844945 
L 141.319996 56.184279 
L 141.644651 62.152287 
L 141.969305 62.26753 
L 142.29396 58.911907 
L 142.618614 61.598763 
L 142.943269 58.750517 
L 143.592578 82.940258 
L 143.917232 74.7379 
L 144.566542 91.722633 
L 144.891196 91.531729 
L 145.215851 84.16146 
L 145.540505 94.342613 
L 145.86516 84.864651 
L 146.189814 98.359866 
L 146.839123 99.143536 
L 147.163778 100.955439 
L 147.488432 93.880006 
L 148.137742 89.926022 
L 148.462396 86.611708 
L 148.787051 87.46535 
L 149.111705 80.640887 
L 149.761014 88.936032 
L 150.085669 84.14938 
L 150.410323 81.930656 
L 150.734978 80.836675 
L 151.059632 76.554825 
L 151.384287 69.935645 
L 151.708942 69.489623 
L 152.033596 79.496555 
L 152.358251 78.277426 
L 152.682905 82.349156 
L 153.00756 88.777264 
L 153.332214 84.603755 
L 153.656869 86.73554 
L 153.981523 80.224368 
L 154.306178 78.858803 
L 154.955487 87.283557 
L 155.280142 83.629126 
L 155.604796 73.791944 
L 155.929451 71.799244 
L 156.254105 67.795842 
L 156.903414 83.901953 
L 157.228069 79.045847 
L 157.552723 85.537219 
L 157.877378 77.622093 
L 158.202032 74.01528 
L 158.526687 84.931588 
L 158.851342 83.208985 
L 159.175996 82.633531 
L 159.500651 78.734261 
L 160.14996 67.124097 
L 160.474614 65.126971 
L 160.799269 65.398015 
L 161.123923 64.230328 
L 161.448578 65.384646 
L 161.773232 61.883384 
L 162.097887 64.052941 
L 162.422542 64.838942 
L 162.747196 59.597375 
L 163.071851 59.101076 
L 163.396505 60.75211 
L 164.045814 70.913824 
L 164.370469 69.36263 
L 164.695123 61.382141 
L 165.019778 60.266146 
L 165.669087 52.087847 
L 165.993742 61.192201 
L 166.318396 58.861796 
L 166.643051 67.82959 
L 166.967705 69.106057 
L 167.29236 63.697149 
L 167.617014 63.28289 
L 168.266323 75.098265 
L 168.590978 70.257316 
L 168.915632 67.314165 
L 169.240287 70.723346 
L 169.564942 72.014762 
L 169.889596 68.024479 
L 170.214251 66.309394 
L 170.538905 76.593976 
L 170.86356 79.950775 
L 171.188214 85.675383 
L 171.512869 86.590008 
L 171.837523 78.211538 
L 172.486832 72.335206 
L 172.811487 71.806921 
L 173.460796 81.482628 
L 173.785451 101.967488 
L 174.110105 97.748801 
L 174.759414 101.463388 
L 175.408723 107.291685 
L 175.733378 96.645331 
L 176.058032 102.08625 
L 176.382687 98.084491 
L 177.031996 95.192405 
L 177.356651 97.49889 
L 177.681305 96.456841 
L 178.00596 96.067712 
L 178.330614 101.360306 
L 178.655269 109.084238 
L 178.979923 105.094975 
L 179.304578 102.860449 
L 179.953887 113.627139 
L 180.278542 114.030617 
L 180.603196 114.656502 
L 180.927851 115.706851 
L 181.252505 118.360253 
L 181.57716 112.3587 
L 181.901814 110.231424 
L 182.226469 104.115085 
L 182.551123 102.362141 
L 182.875778 98.001089 
L 183.200432 96.37172 
L 183.525087 92.401244 
L 183.849742 99.096048 
L 184.174396 91.668353 
L 184.499051 89.866474 
L 184.823705 80.958176 
L 185.14836 83.091021 
L 185.473014 92.194527 
L 185.797669 94.439351 
L 186.446978 91.797711 
L 186.771632 87.759935 
L 187.096287 93.024664 
L 187.420942 85.669018 
L 187.745596 88.169 
L 188.070251 89.550145 
L 188.394905 87.521569 
L 189.044214 96.484303 
L 189.368869 94.185332 
L 189.693523 95.560589 
L 190.018178 91.765272 
L 190.342832 100.438848 
L 190.667487 94.639619 
L 190.992142 92.597813 
L 191.316796 99.464602 
L 191.641451 93.206353 
L 191.966105 97.214564 
L 192.29076 94.161016 
L 192.615414 93.076451 
L 192.940069 90.458555 
L 193.264723 101.745879 
L 193.589378 99.320805 
L 193.914032 98.000544 
L 194.238687 98.572211 
L 194.563342 93.904455 
L 194.887996 91.95962 
L 195.212651 95.053898 
L 195.537305 96.993786 
L 195.86196 100.210149 
L 196.186614 97.432472 
L 196.511269 99.770254 
L 196.835923 98.875151 
L 197.160578 95.283165 
L 198.134542 66.144052 
L 198.459196 71.542682 
L 198.783851 68.374698 
L 199.108505 68.364467 
L 199.43316 69.281961 
L 199.757814 75.400503 
L 200.082469 76.742993 
L 200.407123 73.833041 
L 200.731778 72.239477 
L 201.056432 83.805593 
L 201.381087 82.218663 
L 201.705742 89.743254 
L 202.030396 78.252163 
L 202.355051 79.673162 
L 202.679705 79.821344 
L 203.00436 88.975169 
L 203.329014 88.19788 
L 203.653669 82.832175 
L 204.302978 98.07721 
L 204.627632 93.547299 
L 205.276942 91.071692 
L 205.601596 97.79212 
L 205.926251 86.729638 
L 206.250905 91.75725 
L 206.57556 88.516845 
L 206.900214 90.803673 
L 207.224869 99.974127 
L 207.549523 96.346468 
L 207.874178 100.905751 
L 208.523487 83.685311 
L 208.848142 89.917569 
L 209.172796 85.095704 
L 209.497451 84.702207 
L 210.14676 75.069375 
L 210.471414 77.838409 
L 210.796069 77.716206 
L 211.120723 78.117474 
L 211.770032 72.73194 
L 212.094687 76.872459 
L 212.419342 78.492064 
L 212.743996 73.374858 
L 213.068651 75.364384 
L 213.393305 74.386204 
L 213.71796 75.79015 
L 214.042614 88.541878 
L 214.367269 85.452146 
L 214.691923 83.540445 
L 215.016578 87.57862 
L 215.341232 86.446733 
L 215.665887 84.022117 
L 215.990542 85.737026 
L 216.315196 73.797193 
L 216.639851 78.910516 
L 216.964505 76.331306 
L 217.28916 72.234137 
L 217.613814 84.090316 
L 217.938469 78.014572 
L 218.263123 82.945782 
L 218.587778 80.520203 
L 219.237087 83.876725 
L 219.561742 71.77196 
L 219.886396 74.634945 
L 220.211051 74.988536 
L 220.535705 68.756672 
L 220.86036 72.983634 
L 221.185014 75.388839 
L 221.509669 82.90433 
L 221.834323 83.967216 
L 222.158978 77.11979 
L 222.483632 75.545402 
L 222.808287 75.675184 
L 223.132942 77.17801 
L 223.457596 82.362696 
L 223.782251 74.016197 
L 224.106905 78.074677 
L 224.756214 70.196328 
L 225.080869 74.998769 
L 225.405523 71.609724 
L 225.730178 72.708694 
L 226.054832 67.234768 
L 226.704142 60.310155 
L 227.028796 69.120795 
L 227.353451 67.658256 
L 227.678105 75.069384 
L 228.00276 68.085893 
L 228.327414 67.032957 
L 228.652069 64.018072 
L 228.976723 64.969608 
L 229.301378 62.870616 
L 229.626032 56.711635 
L 229.950687 60.987803 
L 230.275342 54.109377 
L 230.599996 53.0744 
L 230.924651 60.165926 
L 231.249305 64.330529 
L 231.57396 61.586662 
L 231.898614 66.237737 
L 232.223269 64.084085 
L 232.547923 68.578824 
L 232.872578 74.899657 
L 233.197232 76.428419 
L 233.521887 80.765626 
L 233.846542 72.623423 
L 234.171196 79.022618 
L 234.495851 77.488968 
L 234.820505 82.772956 
L 235.14516 75.821998 
L 235.469814 76.717681 
L 235.794469 70.289682 
L 236.119123 81.486284 
L 236.443778 70.473935 
L 236.768432 79.229398 
L 237.093087 75.732749 
L 237.417742 78.196558 
L 238.067051 91.257274 
L 238.391705 82.660917 
L 238.71636 87.356949 
L 239.041014 75.633049 
L 239.365669 76.038222 
L 240.014978 81.717042 
L 240.339632 76.003452 
L 240.664287 72.534557 
L 240.988942 66.673824 
L 241.313596 70.012771 
L 241.638251 71.943758 
L 241.962905 77.648544 
L 242.28756 89.143028 
L 242.612214 92.204774 
L 242.936869 89.42972 
L 243.261523 97.824388 
L 243.586178 97.632188 
L 244.235487 100.742836 
L 244.560142 100.686019 
L 244.884796 102.018564 
L 245.209451 106.038293 
L 245.534105 101.166148 
L 245.85876 88.922004 
L 246.183414 83.739793 
L 246.832723 94.051161 
L 247.157378 86.200495 
L 247.806687 92.051126 
L 248.131342 84.374811 
L 248.455996 84.91615 
L 248.780651 86.596906 
L 249.105305 83.742665 
L 249.42996 73.527005 
L 249.754614 69.654563 
L 250.079269 70.55952 
L 250.403923 77.554658 
L 250.728578 77.246945 
L 251.377887 85.071621 
L 251.702542 83.145417 
L 252.027196 84.831316 
L 252.351851 78.252651 
L 252.676505 80.91024 
L 253.00116 76.781565 
L 253.325814 77.420374 
L 253.650469 75.765223 
L 254.624432 94.651748 
L 254.949087 99.850095 
L 255.273742 109.516484 
L 255.598396 103.274253 
L 255.923051 104.789878 
L 256.247705 103.154847 
L 256.897014 93.462069 
L 257.221669 96.21571 
L 257.546323 96.829105 
L 257.870978 95.411222 
L 258.195632 95.15032 
L 258.520287 94.298769 
L 258.844942 98.287238 
L 259.169596 96.296932 
L 259.494251 96.359899 
L 259.818905 97.740796 
L 260.14356 106.056097 
L 260.468214 101.829807 
L 260.792869 108.709952 
L 261.117523 110.496014 
L 261.442178 111.400381 
L 261.766832 101.029322 
L 262.091487 108.197715 
L 262.416142 103.525235 
L 262.740796 109.862809 
L 263.065451 109.586925 
L 263.390105 104.802626 
L 263.71476 97.492053 
L 264.039414 92.828597 
L 264.364069 91.373451 
L 264.688723 93.338445 
L 265.013378 83.398414 
L 265.338032 85.23266 
L 265.662687 90.459894 
L 265.987342 81.212856 
L 266.311996 86.163346 
L 266.636651 88.369487 
L 267.28596 83.611996 
L 267.610614 94.602948 
L 267.935269 88.186987 
L 268.259923 89.997189 
L 268.584578 87.947448 
L 269.233887 98.139866 
L 269.883196 84.14376 
L 270.207851 82.385243 
L 270.532505 76.899533 
L 270.85716 78.481321 
L 271.181814 71.468676 
L 271.506469 80.426389 
L 271.831123 82.696875 
L 272.155778 82.470105 
L 272.480432 85.056336 
L 272.805087 82.818363 
L 273.129742 72.576489 
L 273.454396 76.984588 
L 273.779051 78.021393 
L 274.103705 77.741542 
L 274.753014 62.864846 
L 275.077669 70.035893 
L 275.402323 71.233983 
L 276.051632 84.784843 
L 276.376287 83.499587 
L 276.700942 89.955508 
L 277.350251 75.076997 
L 277.674905 70.076474 
L 277.99956 73.574441 
L 278.648869 71.860765 
L 278.973523 74.407592 
L 279.298178 69.727255 
L 279.622832 71.81372 
L 279.947487 71.417784 
L 280.272142 73.54006 
L 280.596796 68.006788 
L 280.921451 71.830548 
L 281.246105 79.355585 
L 281.57076 73.489619 
L 281.895414 80.368354 
L 282.544723 75.377663 
L 282.869378 69.118845 
L 283.518687 74.260299 
L 283.843342 83.553905 
L 284.167996 83.109405 
L 284.492651 94.542042 
L 284.817305 88.713088 
L 285.14196 86.468333 
L 285.466614 82.810405 
L 285.791269 85.285329 
L 286.115923 89.280088 
L 286.440578 89.290121 
L 286.765232 92.073844 
L 287.089887 90.645019 
L 287.414542 84.802833 
L 288.063851 102.683693 
L 288.71316 89.411031 
L 289.037814 88.165356 
L 289.362469 82.129124 
L 289.687123 88.069134 
L 290.336432 94.588471 
L 290.985742 113.816684 
L 291.310396 118.543426 
L 291.635051 118.289409 
L 291.959705 112.344113 
L 292.28436 112.72862 
L 292.609014 109.326509 
L 292.933669 104.580007 
L 293.258323 103.471112 
L 293.582978 106.735585 
L 293.907632 107.907934 
L 294.556942 91.87124 
L 294.881596 93.768418 
L 295.206251 87.741743 
L 295.530905 89.541118 
L 295.85556 83.446484 
L 296.180214 93.730393 
L 296.504869 86.685747 
L 296.829523 86.909605 
L 297.154178 88.903163 
L 297.478832 93.081513 
L 297.803487 86.915136 
L 298.452796 97.210068 
L 298.777451 85.857925 
L 299.102105 89.677132 
L 299.42676 95.26238 
L 299.751414 88.062969 
L 300.076069 88.423623 
L 300.400723 85.267656 
L 300.725378 95.679997 
L 301.050032 88.10724 
L 302.023996 97.57894 
L 302.348651 95.606938 
L 302.673305 96.453138 
L 303.322614 109.857548 
L 303.647269 104.878273 
L 303.971923 111.483013 
L 304.296578 114.641263 
L 304.621232 106.51614 
L 304.945887 104.303131 
L 305.270542 97.122232 
L 305.595196 98.690372 
L 305.919851 90.39843 
L 306.244505 91.179009 
L 306.56916 90.237746 
L 306.893814 85.165548 
L 307.218469 88.20288 
L 307.543123 92.498742 
L 307.867778 89.594263 
L 308.192432 101.567613 
L 308.517087 93.595329 
L 308.841742 91.461121 
L 309.166396 91.011618 
L 309.491051 92.955752 
L 310.14036 86.963321 
L 310.465014 89.751554 
L 311.438978 80.67729 
L 311.763632 79.296168 
L 312.088287 79.575099 
L 312.412942 77.744248 
L 312.737596 83.594924 
L 313.062251 85.991046 
L 313.386905 91.198254 
L 314.036214 85.810852 
L 314.360869 86.059811 
L 314.685523 81.158412 
L 315.010178 69.753125 
L 315.334832 67.060454 
L 315.659487 68.558275 
L 315.984142 64.898974 
L 316.308796 64.947341 
L 316.633451 60.342026 
L 316.958105 65.168995 
L 317.28276 61.835554 
L 317.607414 53.202742 
L 317.932069 52.826223 
L 318.256723 54.375052 
L 318.906032 42.577498 
L 319.230687 48.615065 
L 319.555342 57.950782 
L 319.879996 63.364324 
L 320.204651 63.814366 
L 320.529305 69.090579 
L 320.85396 67.543719 
L 321.178614 68.146509 
L 321.503269 73.365281 
L 321.827923 71.793922 
L 322.152578 76.354904 
L 322.477232 73.716827 
L 322.801887 72.234367 
L 323.126542 72.393426 
L 323.451196 65.522576 
L 323.775851 63.884468 
L 324.100505 60.018303 
L 324.42516 65.486191 
L 324.749814 60.535379 
L 325.074469 59.018176 
L 325.399123 74.142576 
L 325.723778 73.678663 
L 326.373087 64.059075 
L 326.697742 68.922411 
L 327.022396 66.200455 
L 327.347051 61.206778 
L 327.671705 61.656127 
L 327.99636 60.693908 
L 328.321014 64.213585 
L 328.645669 72.423152 
L 328.970323 70.75926 
L 329.294978 72.428952 
L 329.619632 71.889455 
L 329.944287 79.841147 
L 330.268942 72.481558 
L 330.593596 68.753212 
L 330.918251 69.397345 
L 331.242905 69.504288 
L 331.56756 66.379646 
L 331.892214 60.002184 
L 332.216869 67.16426 
L 332.541523 67.077619 
L 332.866178 67.659013 
L 333.190832 70.987683 
L 333.515487 68.124703 
L 334.164796 50.377506 
L 334.489451 56.134216 
L 334.814105 44.877603 
L 335.13876 51.171421 
L 335.463414 41.721558 
L 335.788069 45.688505 
L 336.112723 51.392733 
L 336.437378 45.956556 
L 336.762032 45.403298 
L 337.086687 56.033027 
L 337.411342 58.480417 
L 337.735996 63.502694 
L 338.060651 63.975509 
L 338.385305 69.269521 
L 338.70996 67.113814 
L 339.034614 68.884177 
L 339.359269 59.064344 
L 339.683923 66.424717 
L 340.008578 62.081491 
L 340.333232 72.701316 
L 340.657887 68.203992 
L 341.307196 75.925376 
L 341.631851 71.825972 
L 342.28116 74.548066 
L 342.605814 69.264565 
L 342.930469 83.053315 
L 343.255123 85.365444 
L 343.579778 79.884507 
L 343.904432 86.189288 
L 344.229087 81.618925 
L 344.553742 71.23276 
L 344.878396 74.528911 
L 345.203051 69.247617 
L 345.527705 77.515314 
L 346.177014 72.831915 
L 346.501669 74.275924 
L 347.150978 90.832979 
L 347.475632 82.228233 
L 347.800287 88.307503 
L 349.098905 68.292337 
L 349.42356 69.977876 
L 349.748214 68.495781 
L 350.397523 81.423389 
L 350.722178 77.757555 
L 351.046832 72.764128 
L 351.371487 61.902147 
L 351.696142 65.78494 
L 352.020796 73.686444 
L 352.345451 75.71435 
L 352.99476 73.180012 
L 353.319414 74.581502 
L 353.644069 78.332462 
L 353.968723 84.501685 
L 354.293378 74.167199 
L 354.618032 77.545507 
L 354.942687 77.717899 
L 355.591996 68.665463 
L 356.56596 95.830089 
L 356.890614 93.180486 
L 357.215269 98.592228 
L 357.539923 99.161448 
L 358.189232 77.173688 
L 358.513887 80.305392 
L 358.838542 79.404907 
L 359.487851 85.169631 
L 359.812505 85.486083 
L 360.13716 80.752734 
L 360.461814 71.054568 
L 360.786469 66.374842 
L 361.111123 67.246619 
L 361.435778 62.869474 
L 361.760432 72.850935 
L 362.085087 73.550423 
L 362.409742 71.053194 
L 362.734396 82.533826 
L 363.059051 83.08102 
L 363.383705 73.287109 
L 363.70836 85.919875 
L 364.033014 88.48107 
L 364.357669 89.452587 
L 364.682323 92.940629 
L 365.006978 92.044038 
L 365.331632 92.059023 
L 365.656287 97.620612 
L 365.980942 94.543222 
L 366.305596 89.999117 
L 366.954905 86.592274 
L 367.27956 82.607182 
L 367.604214 87.012671 
L 367.928869 89.769485 
L 369.227487 71.421797 
L 369.876796 84.224507 
L 370.201451 80.112238 
L 370.526105 89.699269 
L 370.85076 90.550459 
L 371.500069 99.158503 
L 371.824723 98.0945 
L 372.149378 95.51475 
L 372.798687 107.966548 
L 372.798687 107.966548 
" clip-path="url(#pee9ea244c3)" style="fill: none; stroke: #3a4cc0; stroke-width: 1.5; stroke-linecap: square"/>
   </g>
   <g id="patch_3">
    <path d="M 31.911414 273.312 
L 31.911414 7.2 
" style="fill: none; stroke: #000000; stroke-width: 0.8; stroke-linejoin: miter; stroke-linecap: square"/>
   </g>
   <g id="patch_4">
    <path d="M 389.031414 273.312 
L 389.031414 7.2 
" style="fill: none; stroke: #000000; stroke-width: 0.8; stroke-linejoin: miter; stroke-linecap: square"/>
   </g>
   <g id="patch_5">
    <path d="M 31.911414 273.312 
L 389.031414 273.312 
" style="fill: none; stroke: #000000; stroke-width: 0.8; stroke-linejoin: miter; stroke-linecap: square"/>
   </g>
   <g id="patch_6">
    <path d="M 31.911414 7.2 
L 389.031414 7.2 
" style="fill: none; stroke: #000000; stroke-width: 0.8; stroke-linejoin: miter; stroke-linecap: square"/>
   </g>
   <g id="legend_1">
    <g id="patch_7">
     <path d="M 38.911414 268.312 
L 116.020165 268.312 
Q 118.020165 268.312 118.020165 266.312 
L 118.020165 225.500465 
Q 118.020165 223.500465 116.020165 223.500465 
L 38.911414 223.500465 
Q 36.911414 223.500465 36.911414 225.500465 
L 36.911414 266.312 
Q 36.911414 268.312 38.911414 268.312 
z
" style="fill: #ffffff; opacity: 0.8; stroke: #cccccc; stroke-linejoin: miter"/>
    </g>
    <g id="line2d_15">
     <path d="M 40.911414 231.000465 
L 50.911414 231.000465 
L 60.911414 231.000465 
" style="fill: none; stroke: #e46e56; stroke-width: 1.5; stroke-linecap: square"/>
    </g>
    <g id="text_12">
     <!-- CBO -->
     <g transform="translate(68.911414 234.500465) scale(0.1 -0.1)">
      <defs>
       <path id="CMSS17-43" d="M 3501 714 
C 3072 427 2874 344 2355 344 
C 1459 344 934 1303 934 2179 
C 934 3112 1472 4032 2381 4032 
C 2790 4032 3059 3918 3386 3715 
L 3475 4217 
C 3168 4370 2778 4440 2387 4440 
C 1158 4440 397 3316 397 2179 
C 397 927 1299 -64 2323 -64 
C 2874 -64 3066 -19 3539 280 
L 3501 714 
z
" transform="scale(0.015625)"/>
       <path id="CMSS17-42" d="M 570 4416 
L 570 0 
L 2163 0 
C 3034 0 3667 574 3667 1200 
C 3667 1685 3251 2176 2502 2317 
C 3334 2558 3501 3040 3501 3313 
C 3501 3883 2874 4416 1997 4416 
L 570 4416 
z
M 1088 2496 
L 1088 4059 
L 1824 4059 
C 2483 4059 3002 3724 3002 3306 
C 3002 2926 2592 2496 1766 2496 
L 1088 2496 
z
M 1088 357 
L 1088 2107 
L 1939 2107 
C 2630 2107 3162 1679 3162 1206 
C 3162 772 2694 357 1984 357 
L 1088 357 
z
" transform="scale(0.015625)"/>
       <path id="CMSS17-4f" d="M 4096 2178 
C 4096 3503 3219 4497 2214 4497 
C 1210 4497 333 3497 333 2178 
C 333 847 1222 -128 2214 -128 
C 3206 -128 4096 847 4096 2178 
z
M 2214 273 
C 1510 273 870 1057 870 2261 
C 870 3433 1549 4096 2214 4096 
C 2880 4096 3558 3433 3558 2261 
C 3558 1051 2912 273 2214 273 
z
" transform="scale(0.015625)"/>
      </defs>
      <use xlink:href="#CMSS17-43" transform="scale(0.996264)"/>
      <use xlink:href="#CMSS17-42" transform="translate(59.855772 0) scale(0.996264)"/>
      <use xlink:href="#CMSS17-4f" transform="translate(122.193812 0) scale(0.996264)"/>
     </g>
    </g>
    <g id="line2d_16">
     <path d="M 40.911414 244.937643 
L 50.911414 244.937643 
L 60.911414 244.937643 
" style="fill: none; stroke: #d1dae9; stroke-width: 1.5; stroke-linecap: square"/>
    </g>
    <g id="text_13">
     <!-- SMD-CBO -->
     <g transform="translate(68.911414 248.437643) scale(0.1 -0.1)">
      <defs>
       <path id="CMSS17-53" d="M 2797 4169 
C 2515 4334 2208 4480 1690 4480 
C 864 4480 333 3879 333 3266 
C 333 3025 403 2753 653 2475 
C 902 2196 1184 2121 1542 2033 
C 1690 1994 1939 1924 1984 1906 
C 2342 1767 2515 1444 2515 1140 
C 2515 742 2202 318 1645 318 
C 1453 318 890 318 358 819 
L 269 318 
C 794 -64 1363 -128 1651 -128 
C 2438 -128 3002 488 3002 1186 
C 3002 1440 2925 1763 2656 2061 
C 2394 2347 2163 2410 1638 2549 
C 1338 2626 1146 2677 986 2873 
C 877 3013 819 3146 819 3317 
C 819 3673 1126 4060 1690 4060 
C 1971 4060 2336 4002 2707 3660 
L 2797 4169 
z
" transform="scale(0.015625)"/>
       <path id="CMSS17-4d" d="M 3194 2371 
L 2886 1473 
C 2835 1307 2662 791 2624 587 
L 2618 587 
C 2598 715 2560 849 2458 1174 
C 2400 1365 2336 1562 2272 1741 
L 1325 4416 
L 576 4416 
L 576 0 
L 1075 0 
L 1075 3900 
L 1082 3900 
C 1082 3894 1139 3613 1530 2499 
L 2374 96 
L 2848 96 
L 3610 2231 
C 3661 2378 3821 2843 3891 3066 
C 3955 3257 4115 3728 4154 3913 
L 4160 3913 
L 4160 0 
L 4666 0 
L 4666 4416 
L 3923 4416 
L 3194 2371 
z
" transform="scale(0.015625)"/>
       <path id="CMSS17-44" d="M 570 4416 
L 570 0 
L 2144 0 
C 3194 0 4000 980 4000 2170 
C 4000 3398 3194 4416 2144 4416 
L 570 4416 
z
M 1094 357 
L 1094 4059 
L 2003 4059 
C 2861 4059 3475 3277 3475 2170 
C 3475 1107 2867 357 2003 357 
L 1094 357 
z
" transform="scale(0.015625)"/>
       <path id="CMSS17-2d" d="M 1664 1216 
L 1664 1585 
L 64 1585 
L 64 1216 
L 1664 1216 
z
" transform="scale(0.015625)"/>
      </defs>
      <use xlink:href="#CMSS17-53" transform="scale(0.996264)"/>
      <use xlink:href="#CMSS17-4d" transform="translate(52.048516 0) scale(0.996264)"/>
      <use xlink:href="#CMSS17-44" transform="translate(133.724546 0) scale(0.996264)"/>
      <use xlink:href="#CMSS17-2d" transform="translate(201.267388 0) scale(0.996264)"/>
      <use xlink:href="#CMSS17-43" transform="translate(232.496501 0) scale(0.996264)"/>
      <use xlink:href="#CMSS17-42" transform="translate(292.352272 0) scale(0.996264)"/>
      <use xlink:href="#CMSS17-4f" transform="translate(354.690312 0) scale(0.996264)"/>
     </g>
    </g>
    <g id="line2d_17">
     <path d="M 40.911414 258.874822 
L 50.911414 258.874822 
L 60.911414 258.874822 
" style="fill: none; stroke: #3a4cc0; stroke-width: 1.5; stroke-linecap: square"/>
    </g>
    <g id="text_14">
     <!-- GCN-CBO -->
     <g transform="translate(68.911414 262.374822) scale(0.1 -0.1)">
      <defs>
       <path id="CMSS17-47" d="M 3610 1856 
L 2336 1856 
L 2336 1461 
L 3123 1461 
L 3123 471 
C 2874 401 2618 350 2362 350 
C 1466 350 934 1301 934 2200 
C 934 3095 1491 4032 2362 4032 
C 2854 4032 3130 3881 3469 3627 
L 3552 4134 
C 3130 4351 2867 4440 2387 4440 
C 1146 4440 397 3324 397 2182 
C 397 1090 1152 -64 2349 -64 
C 2797 -64 3213 51 3610 248 
L 3610 1856 
z
" transform="scale(0.015625)"/>
       <path id="CMSS17-4e" d="M 1466 4180 
L 1350 4416 
L 563 4416 
L 563 0 
L 1062 0 
L 1062 3926 
L 1069 3932 
C 1114 3817 1139 3760 1402 3194 
L 2771 236 
L 2886 0 
L 3674 0 
L 3674 4416 
L 3174 4416 
L 3174 490 
L 3168 483 
C 3123 598 3098 655 2835 1221 
L 1466 4180 
z
" transform="scale(0.015625)"/>
      </defs>
      <use xlink:href="#CMSS17-47" transform="scale(0.996264)"/>
      <use xlink:href="#CMSS17-43" transform="translate(62.458226 0) scale(0.996264)"/>
      <use xlink:href="#CMSS17-4e" transform="translate(122.313997 0) scale(0.996264)"/>
      <use xlink:href="#CMSS17-2d" transform="translate(188.375516 0) scale(0.996264)"/>
      <use xlink:href="#CMSS17-43" transform="translate(219.604629 0) scale(0.996264)"/>
      <use xlink:href="#CMSS17-42" transform="translate(279.460401 0) scale(0.996264)"/>
      <use xlink:href="#CMSS17-4f" transform="translate(341.798441 0) scale(0.996264)"/>
     </g>
    </g>
   </g>
  </g>
 </g>
 <defs>
  <clipPath id="pee9ea244c3">
   <rect x="31.911414" y="7.2" width="357.12" height="266.112"/>
  </clipPath>
 </defs>
</svg>
