<?xml version="1.0" encoding="utf-8" standalone="no"?>
<!DOCTYPE svg PUBLIC "-//W3C//DTD SVG 1.1//EN"
  "http://www.w3.org/Graphics/SVG/1.1/DTD/svg11.dtd">
<svg xmlns:xlink="http://www.w3.org/1999/xlink" width="388.482671pt" height="296.367677pt" viewBox="0 0 388.482671 296.367677" xmlns="http://www.w3.org/2000/svg" version="1.1">
 <metadata>
  <rdf:RDF xmlns:dc="http://purl.org/dc/elements/1.1/" xmlns:cc="http://creativecommons.org/ns#" xmlns:rdf="http://www.w3.org/1999/02/22-rdf-syntax-ns#">
   <cc:Work>
    <dc:type rdf:resource="http://purl.org/dc/dcmitype/StillImage"/>
    <dc:date>2026-03-26T11:07:11.761755</dc:date>
    <dc:format>image/svg+xml</dc:format>
    <dc:creator>
     <cc:Agent>
      <dc:title>Matplotlib v3.10.7, https://matplotlib.org/</dc:title>
     </cc:Agent>
    </dc:creator>
   </cc:Work>
  </rdf:RDF>
 </metadata>
 <defs>
  <style type="text/css">*{stroke-linejoin: round; stroke-linecap: butt}</style>
 </defs>
 <g id="figure_1">
  <g id="patch_1">
   <path d="M 0 296.367677 
L 388.482671 296.367677 
L 388.482671 0 
L 0 0 
z
" style="fill: #ffffff"/>
  </g>
  <g id="axes_1">
   <g id="patch_2">
    <path d="M 24.162671 273.312 
L 381.282671 273.312 
L 381.282671 7.2 
L 24.162671 7.2 
z
" style="fill: #ffffff"/>
   </g>
   <g id="matplotlib.axis_1">
    <g id="xtick_1">
     <g id="line2d_1">
      <defs>
       <path id="mf5d43eb267" d="M 0 0 
L 0 3.5 
" style="stroke: #000000; stroke-width: 0.8"/>
      </defs>
      <g>
       <use xlink:href="#mf5d43eb267" x="40.395398" y="273.312" style="stroke: #000000; stroke-width: 0.8"/>
      </g>
     </g>
     <g id="text_1">
      <!-- $\mathdefault{0}$ -->
      <g transform="translate(37.90473 287.230498) scale(0.1 -0.1)">
       <defs>
        <path id="CMR17-30" d="M 2688 2025 
C 2688 2416 2682 3080 2413 3591 
C 2176 4039 1798 4198 1466 4198 
C 1158 4198 768 4058 525 3597 
C 269 3118 243 2524 243 2025 
C 243 1661 250 1106 448 619 
C 723 -39 1216 -128 1466 -128 
C 1760 -128 2208 -7 2470 600 
C 2662 1042 2688 1559 2688 2025 
z
M 1466 -26 
C 1056 -26 813 325 723 812 
C 653 1188 653 1738 653 2096 
C 653 2588 653 2997 736 3387 
C 858 3929 1216 4096 1466 4096 
C 1728 4096 2067 3923 2189 3400 
C 2272 3036 2278 2607 2278 2096 
C 2278 1680 2278 1169 2202 792 
C 2067 95 1690 -26 1466 -26 
z
" transform="scale(0.015625)"/>
       </defs>
       <use xlink:href="#CMR17-30" transform="scale(0.996264)"/>
      </g>
     </g>
    </g>
    <g id="xtick_2">
     <g id="line2d_2">
      <g>
       <use xlink:href="#mf5d43eb267" x="105.326307" y="273.312" style="stroke: #000000; stroke-width: 0.8"/>
      </g>
     </g>
     <g id="text_2">
      <!-- $\mathdefault{200}$ -->
      <g transform="translate(97.854304 287.230498) scale(0.1 -0.1)">
       <defs>
        <path id="CMR17-32" d="M 2669 989 
L 2554 989 
C 2490 536 2438 459 2413 420 
C 2381 369 1920 369 1830 369 
L 602 369 
C 832 619 1280 1072 1824 1597 
C 2214 1967 2669 2402 2669 3035 
C 2669 3790 2067 4224 1395 4224 
C 691 4224 262 3604 262 3030 
C 262 2780 448 2748 525 2748 
C 589 2748 781 2787 781 3010 
C 781 3207 614 3264 525 3264 
C 486 3264 448 3258 422 3245 
C 544 3790 915 4058 1306 4058 
C 1862 4058 2227 3617 2227 3035 
C 2227 2479 1901 2000 1536 1584 
L 262 146 
L 262 0 
L 2515 0 
L 2669 989 
z
" transform="scale(0.015625)"/>
       </defs>
       <use xlink:href="#CMR17-32" transform="scale(0.996264)"/>
       <use xlink:href="#CMR17-30" transform="translate(45.690477 0) scale(0.996264)"/>
       <use xlink:href="#CMR17-30" transform="translate(91.380954 0) scale(0.996264)"/>
      </g>
     </g>
    </g>
    <g id="xtick_3">
     <g id="line2d_3">
      <g>
       <use xlink:href="#mf5d43eb267" x="170.257216" y="273.312" style="stroke: #000000; stroke-width: 0.8"/>
      </g>
     </g>
     <g id="text_3">
      <!-- $\mathdefault{400}$ -->
      <g transform="translate(162.785213 287.230498) scale(0.1 -0.1)">
       <defs>
        <path id="CMR17-34" d="M 2150 4122 
C 2150 4256 2144 4256 2029 4256 
L 128 1254 
L 128 1088 
L 1779 1088 
L 1779 457 
C 1779 224 1766 160 1318 160 
L 1197 160 
L 1197 0 
C 1402 0 1747 0 1965 0 
C 2182 0 2528 0 2733 0 
L 2733 160 
L 2611 160 
C 2163 160 2150 224 2150 457 
L 2150 1088 
L 2803 1088 
L 2803 1254 
L 2150 1254 
L 2150 4122 
z
M 1798 3703 
L 1798 1254 
L 256 1254 
L 1798 3703 
z
" transform="scale(0.015625)"/>
       </defs>
       <use xlink:href="#CMR17-34" transform="scale(0.996264)"/>
       <use xlink:href="#CMR17-30" transform="translate(45.690477 0) scale(0.996264)"/>
       <use xlink:href="#CMR17-30" transform="translate(91.380954 0) scale(0.996264)"/>
      </g>
     </g>
    </g>
    <g id="xtick_4">
     <g id="line2d_4">
      <g>
       <use xlink:href="#mf5d43eb267" x="235.188125" y="273.312" style="stroke: #000000; stroke-width: 0.8"/>
      </g>
     </g>
     <g id="text_4">
      <!-- $\mathdefault{600}$ -->
      <g transform="translate(227.716122 287.230498) scale(0.1 -0.1)">
       <defs>
        <path id="CMR17-36" d="M 678 2176 
C 678 3690 1395 4032 1811 4032 
C 1946 4032 2272 4009 2400 3776 
C 2298 3776 2106 3776 2106 3553 
C 2106 3381 2246 3323 2336 3323 
C 2394 3323 2566 3348 2566 3560 
C 2566 3954 2246 4179 1805 4179 
C 1043 4179 243 3390 243 1984 
C 243 253 966 -128 1478 -128 
C 2099 -128 2688 427 2688 1283 
C 2688 2081 2170 2662 1517 2662 
C 1126 2662 838 2407 678 1960 
L 678 2176 
z
M 1478 25 
C 691 25 691 1200 691 1436 
C 691 1896 909 2560 1504 2560 
C 1613 2560 1926 2560 2138 2120 
C 2253 1870 2253 1609 2253 1289 
C 2253 944 2253 690 2118 434 
C 1978 171 1773 25 1478 25 
z
" transform="scale(0.015625)"/>
       </defs>
       <use xlink:href="#CMR17-36" transform="scale(0.996264)"/>
       <use xlink:href="#CMR17-30" transform="translate(45.690477 0) scale(0.996264)"/>
       <use xlink:href="#CMR17-30" transform="translate(91.380954 0) scale(0.996264)"/>
      </g>
     </g>
    </g>
    <g id="xtick_5">
     <g id="line2d_5">
      <g>
       <use xlink:href="#mf5d43eb267" x="300.119034" y="273.312" style="stroke: #000000; stroke-width: 0.8"/>
      </g>
     </g>
     <g id="text_5">
      <!-- $\mathdefault{800}$ -->
      <g transform="translate(292.647031 287.230498) scale(0.1 -0.1)">
       <defs>
        <path id="CMR17-38" d="M 1741 2264 
C 2144 2467 2554 2773 2554 3263 
C 2554 3841 1990 4179 1472 4179 
C 890 4179 378 3759 378 3180 
C 378 3021 416 2747 666 2505 
C 730 2442 998 2251 1171 2130 
C 883 1983 211 1634 211 934 
C 211 279 838 -128 1459 -128 
C 2144 -128 2720 362 2720 1010 
C 2720 1590 2330 1857 2074 2029 
L 1741 2264 
z
M 902 2822 
C 851 2854 595 3051 595 3351 
C 595 3739 998 4032 1459 4032 
C 1965 4032 2336 3676 2336 3262 
C 2336 2669 1670 2331 1638 2331 
C 1632 2331 1626 2331 1574 2370 
L 902 2822 
z
M 2080 1519 
C 2176 1449 2483 1240 2483 851 
C 2483 381 2010 25 1472 25 
C 890 25 448 438 448 940 
C 448 1443 838 1862 1280 2060 
L 2080 1519 
z
" transform="scale(0.015625)"/>
       </defs>
       <use xlink:href="#CMR17-38" transform="scale(0.996264)"/>
       <use xlink:href="#CMR17-30" transform="translate(45.690477 0) scale(0.996264)"/>
       <use xlink:href="#CMR17-30" transform="translate(91.380954 0) scale(0.996264)"/>
      </g>
     </g>
    </g>
    <g id="xtick_6">
     <g id="line2d_6">
      <g>
       <use xlink:href="#mf5d43eb267" x="365.049943" y="273.312" style="stroke: #000000; stroke-width: 0.8"/>
      </g>
     </g>
     <g id="text_6">
      <!-- $\mathdefault{1000}$ -->
      <g transform="translate(355.087273 287.230498) scale(0.1 -0.1)">
       <defs>
        <path id="CMR17-31" d="M 1702 4058 
C 1702 4192 1696 4192 1606 4192 
C 1357 3916 979 3827 621 3827 
C 602 3827 570 3827 563 3808 
C 557 3795 557 3782 557 3648 
C 755 3648 1088 3686 1344 3839 
L 1344 461 
C 1344 236 1331 160 781 160 
L 589 160 
L 589 0 
C 896 0 1216 0 1523 0 
C 1830 0 2150 0 2458 0 
L 2458 160 
L 2266 160 
C 1715 160 1702 230 1702 458 
L 1702 4058 
z
" transform="scale(0.015625)"/>
       </defs>
       <use xlink:href="#CMR17-31" transform="scale(0.996264)"/>
       <use xlink:href="#CMR17-30" transform="translate(45.690477 0) scale(0.996264)"/>
       <use xlink:href="#CMR17-30" transform="translate(91.380954 0) scale(0.996264)"/>
       <use xlink:href="#CMR17-30" transform="translate(137.071431 0) scale(0.996264)"/>
      </g>
     </g>
    </g>
   </g>
   <g id="matplotlib.axis_2">
    <g id="ytick_1">
     <g id="line2d_7">
      <defs>
       <path id="mcaa9f6f031" d="M 0 0 
L -3.5 0 
" style="stroke: #000000; stroke-width: 0.8"/>
      </defs>
      <g>
       <use xlink:href="#mcaa9f6f031" x="24.162671" y="261.854916" style="stroke: #000000; stroke-width: 0.8"/>
      </g>
     </g>
     <g id="text_7">
      <!-- $\mathdefault{24}$ -->
      <g transform="translate(7.2 265.314166) scale(0.1 -0.1)">
       <use xlink:href="#CMR17-32" transform="scale(0.996264)"/>
       <use xlink:href="#CMR17-34" transform="translate(45.690477 0) scale(0.996264)"/>
      </g>
     </g>
    </g>
    <g id="ytick_2">
     <g id="line2d_8">
      <g>
       <use xlink:href="#mcaa9f6f031" x="24.162671" y="205.238773" style="stroke: #000000; stroke-width: 0.8"/>
      </g>
     </g>
     <g id="text_8">
      <!-- $\mathdefault{25}$ -->
      <g transform="translate(7.2 208.698022) scale(0.1 -0.1)">
       <defs>
        <path id="CMR17-35" d="M 730 3692 
C 794 3666 1056 3584 1325 3584 
C 1920 3584 2246 3911 2432 4100 
C 2432 4157 2432 4192 2394 4192 
C 2387 4192 2374 4192 2323 4163 
C 2099 4058 1837 3973 1517 3973 
C 1325 3973 1037 3999 723 4139 
C 653 4171 640 4171 634 4171 
C 602 4171 595 4164 595 4037 
L 595 2203 
C 595 2089 595 2057 659 2057 
C 691 2057 704 2070 736 2114 
C 941 2401 1222 2522 1542 2522 
C 1766 2522 2246 2382 2246 1289 
C 2246 1085 2246 715 2054 421 
C 1894 159 1645 25 1370 25 
C 947 25 518 320 403 814 
C 429 807 480 795 506 795 
C 589 795 749 840 749 1038 
C 749 1210 627 1280 506 1280 
C 358 1280 262 1190 262 1011 
C 262 454 704 -128 1382 -128 
C 2042 -128 2669 440 2669 1264 
C 2669 2030 2170 2624 1549 2624 
C 1222 2624 947 2503 730 2274 
L 730 3692 
z
" transform="scale(0.015625)"/>
       </defs>
       <use xlink:href="#CMR17-32" transform="scale(0.996264)"/>
       <use xlink:href="#CMR17-35" transform="translate(45.690477 0) scale(0.996264)"/>
      </g>
     </g>
    </g>
    <g id="ytick_3">
     <g id="line2d_9">
      <g>
       <use xlink:href="#mcaa9f6f031" x="24.162671" y="148.622629" style="stroke: #000000; stroke-width: 0.8"/>
      </g>
     </g>
     <g id="text_9">
      <!-- $\mathdefault{26}$ -->
      <g transform="translate(7.2 152.081878) scale(0.1 -0.1)">
       <use xlink:href="#CMR17-32" transform="scale(0.996264)"/>
       <use xlink:href="#CMR17-36" transform="translate(45.690477 0) scale(0.996264)"/>
      </g>
     </g>
    </g>
    <g id="ytick_4">
     <g id="line2d_10">
      <g>
       <use xlink:href="#mcaa9f6f031" x="24.162671" y="92.006485" style="stroke: #000000; stroke-width: 0.8"/>
      </g>
     </g>
     <g id="text_10">
      <!-- $\mathdefault{27}$ -->
      <g transform="translate(7.2 95.465735) scale(0.1 -0.1)">
       <defs>
        <path id="CMR17-37" d="M 2886 3941 
L 2886 4081 
L 1382 4081 
C 634 4081 621 4165 595 4288 
L 480 4288 
L 294 3094 
L 410 3094 
C 429 3215 474 3540 550 3661 
C 589 3712 1062 3712 1171 3712 
L 2579 3712 
L 1869 2661 
C 1395 1954 1069 999 1069 165 
C 1069 89 1069 -128 1299 -128 
C 1530 -128 1530 89 1530 171 
L 1530 465 
C 1530 1508 1709 2196 2003 2636 
L 2886 3941 
z
" transform="scale(0.015625)"/>
       </defs>
       <use xlink:href="#CMR17-32" transform="scale(0.996264)"/>
       <use xlink:href="#CMR17-37" transform="translate(45.690477 0) scale(0.996264)"/>
      </g>
     </g>
    </g>
    <g id="ytick_5">
     <g id="line2d_11">
      <g>
       <use xlink:href="#mcaa9f6f031" x="24.162671" y="35.390342" style="stroke: #000000; stroke-width: 0.8"/>
      </g>
     </g>
     <g id="text_11">
      <!-- $\mathdefault{28}$ -->
      <g transform="translate(7.2 38.849591) scale(0.1 -0.1)">
       <use xlink:href="#CMR17-32" transform="scale(0.996264)"/>
       <use xlink:href="#CMR17-38" transform="translate(45.690477 0) scale(0.996264)"/>
      </g>
     </g>
    </g>
   </g>
   <g id="line2d_12">
    <path d="M 40.395398 112.26088 
L 40.720052 127.529914 
L 41.044707 74.342461 
L 41.369361 100.685259 
L 41.694016 103.379008 
L 42.018671 84.506657 
L 42.343325 82.320468 
L 42.66798 39.730371 
L 42.992634 31.434603 
L 43.317289 70.330434 
L 43.641943 77.660183 
L 43.966598 76.089498 
L 44.291252 77.481172 
L 44.615907 85.772006 
L 44.940561 44.872101 
L 45.265216 51.798032 
L 45.589871 32.789789 
L 45.914525 84.282184 
L 46.23918 92.959522 
L 46.563834 65.619058 
L 46.888489 24.519066 
L 47.213143 58.027452 
L 47.537798 59.446829 
L 47.862452 58.959977 
L 48.187107 42.487462 
L 48.511761 19.296 
L 48.836416 19.296 
L 49.161071 31.267752 
L 49.485725 33.639965 
L 49.81038 47.6255 
L 50.135034 43.574546 
L 50.459689 56.726774 
L 50.784343 51.137883 
L 51.108998 87.632745 
L 51.433652 38.927134 
L 51.758307 67.704446 
L 52.082961 57.065275 
L 52.407616 96.045624 
L 52.732271 118.951068 
L 53.056925 73.720669 
L 53.38158 70.663097 
L 53.706234 93.374313 
L 54.030889 83.114966 
L 54.680198 19.296 
L 55.004852 46.558977 
L 55.329507 24.742181 
L 55.654161 26.568668 
L 55.978816 25.330316 
L 56.303471 27.646488 
L 56.628125 28.426794 
L 56.95278 91.297737 
L 57.277434 56.381216 
L 57.602089 41.222873 
L 57.926743 38.201439 
L 58.251398 71.603962 
L 58.576052 64.745457 
L 58.900707 48.846872 
L 59.225361 118.010205 
L 59.550016 67.199968 
L 59.874671 51.065222 
L 60.199325 52.017551 
L 60.52398 77.087432 
L 61.173289 29.993347 
L 61.497943 89.958173 
L 62.471907 35.566462 
L 62.796561 88.3163 
L 63.121216 32.164137 
L 63.445871 34.877133 
L 63.770525 34.779549 
L 64.09518 35.079963 
L 64.419834 40.13488 
L 64.744489 30.803362 
L 65.069143 29.303091 
L 65.393798 46.733466 
L 65.718452 32.760171 
L 66.043107 38.35803 
L 66.367761 38.243699 
L 66.692416 67.753828 
L 67.017071 41.331509 
L 67.341725 42.212048 
L 67.66638 50.133613 
L 67.991034 42.696393 
L 68.315689 46.064319 
L 68.640343 57.510014 
L 68.964998 39.09136 
L 69.289652 50.51561 
L 69.938961 21.842978 
L 70.263616 47.165447 
L 70.588271 47.317191 
L 71.23758 27.055625 
L 71.562234 42.980782 
L 71.886889 19.296 
L 72.211543 19.296 
L 72.536198 77.860597 
L 72.860852 58.249016 
L 73.185507 67.870768 
L 73.510161 23.605655 
L 73.834816 79.600924 
L 74.159471 43.705351 
L 74.484125 26.864125 
L 74.80878 49.032442 
L 75.133434 49.77419 
L 76.107398 92.770621 
L 76.432052 77.352545 
L 76.756707 79.491777 
L 77.081361 53.992246 
L 77.406016 77.377768 
L 77.730671 81.108715 
L 78.055325 38.373111 
L 78.37998 32.011039 
L 78.704634 44.20269 
L 79.029289 61.2511 
L 79.353943 69.751816 
L 79.678598 134.681071 
L 80.327907 30.859553 
L 80.652561 80.851644 
L 80.977216 111.768784 
L 81.301871 85.834623 
L 81.626525 77.608293 
L 81.95118 40.408856 
L 82.275834 31.480217 
L 82.600489 69.414071 
L 82.925143 71.080769 
L 83.249798 30.369841 
L 83.574452 40.489069 
L 84.223761 95.045242 
L 84.548416 86.605625 
L 84.873071 81.824326 
L 85.197725 33.828697 
L 85.52238 70.752945 
L 85.847034 80.279382 
L 86.171689 94.657389 
L 86.820998 48.561116 
L 87.145652 96.617188 
L 87.470307 75.289122 
L 87.794961 80.507569 
L 88.119616 112.051623 
L 88.444271 124.849763 
L 88.768925 115.616974 
L 89.09358 59.576305 
L 89.418234 64.967917 
L 89.742889 95.348629 
L 90.067543 33.098721 
L 90.392198 58.003653 
L 90.716852 98.227487 
L 91.041507 55.879567 
L 91.366161 70.230676 
L 91.690816 63.460598 
L 92.015471 61.210117 
L 92.340125 34.668086 
L 92.66478 76.695514 
L 92.989434 90.614466 
L 93.314089 79.864382 
L 93.638743 61.978675 
L 94.288052 83.902424 
L 94.612707 84.998099 
L 94.937361 69.124139 
L 95.262016 81.672477 
L 95.586671 86.285538 
L 95.911325 128.401581 
L 96.23598 100.178236 
L 96.560634 121.947996 
L 96.885289 121.794726 
L 97.209943 84.391411 
L 97.534598 98.735599 
L 97.859252 64.585845 
L 98.508561 84.586139 
L 98.833216 83.828284 
L 99.157871 39.561119 
L 99.482525 44.35156 
L 99.80718 19.296 
L 100.456489 85.879964 
L 100.781143 30.498522 
L 101.105798 109.925685 
L 101.430452 40.461295 
L 101.755107 27.421887 
L 102.079761 44.114435 
L 102.404416 72.745636 
L 102.729071 74.777557 
L 103.053725 101.741658 
L 103.37838 93.541054 
L 103.703034 70.571954 
L 104.027689 62.841902 
L 104.352343 68.343394 
L 104.676998 47.016474 
L 105.001652 74.169055 
L 105.326307 74.224573 
L 105.650961 106.238075 
L 105.975616 33.94853 
L 106.300271 19.296 
L 106.624925 23.641675 
L 106.94958 59.653832 
L 107.274234 72.988332 
L 107.598889 74.727632 
L 107.923543 47.352095 
L 108.248198 48.864408 
L 108.572852 73.805159 
L 108.897507 85.010839 
L 109.222161 19.296 
L 110.196125 126.768348 
L 110.52078 80.377731 
L 110.845434 120.135332 
L 111.170089 80.163947 
L 111.494743 116.805877 
L 111.819398 96.93713 
L 112.144052 144.671537 
L 112.468707 54.843972 
L 112.793361 72.72704 
L 113.118016 133.489493 
L 113.442671 140.181947 
L 113.767325 98.225777 
L 114.09198 98.420885 
L 114.416634 92.329056 
L 114.741289 44.781469 
L 115.065943 43.077712 
L 115.390598 98.876222 
L 115.715252 77.049096 
L 116.039907 112.383224 
L 116.364561 43.827012 
L 116.689216 44.900857 
L 117.013871 39.353628 
L 117.338525 87.317538 
L 117.66318 20.485302 
L 117.987834 69.681672 
L 118.312489 47.143675 
L 118.637143 53.646485 
L 118.961798 53.992263 
L 119.286452 53.074149 
L 119.611107 88.818345 
L 119.935761 72.929021 
L 120.260416 44.836983 
L 120.909725 81.591372 
L 121.23438 52.187747 
L 121.559034 44.29526 
L 121.883689 79.222809 
L 122.532998 32.047673 
L 122.857652 38.04133 
L 123.182307 46.701078 
L 123.506961 45.003496 
L 123.831616 98.316449 
L 124.156271 69.266953 
L 124.480925 92.343518 
L 124.80558 95.54038 
L 125.130234 90.393857 
L 125.454889 106.918038 
L 125.779543 54.164147 
L 126.104198 83.351079 
L 126.428852 67.890223 
L 126.753507 90.376814 
L 127.078161 123.585975 
L 127.402816 128.851683 
L 127.727471 64.160632 
L 128.052125 125.355675 
L 128.37678 83.189427 
L 128.701434 74.676544 
L 129.026089 50.547599 
L 129.350743 107.42902 
L 129.675398 58.3867 
L 130.000052 29.341113 
L 130.324707 98.20689 
L 130.649361 65.822194 
L 130.974016 94.926418 
L 131.298671 43.407867 
L 131.623325 71.990612 
L 131.94798 70.676956 
L 132.272634 68.437559 
L 132.597289 62.867123 
L 132.921943 78.382123 
L 133.246598 55.536752 
L 133.571252 61.65666 
L 133.895907 149.709518 
L 134.220561 91.683528 
L 134.545216 115.506574 
L 134.869871 83.090762 
L 135.194525 82.632228 
L 135.51918 55.48355 
L 135.843834 134.006168 
L 136.168489 142.247578 
L 136.493143 92.621687 
L 136.817798 93.024282 
L 137.142452 49.910839 
L 137.467107 38.22392 
L 137.791761 80.682308 
L 138.116416 67.671823 
L 138.441071 106.449088 
L 138.765725 54.087125 
L 139.09038 103.50391 
L 139.415034 96.855225 
L 139.739689 76.673378 
L 140.064343 29.185705 
L 140.388998 49.12976 
L 140.713652 44.973571 
L 141.038307 58.294545 
L 141.362961 90.18232 
L 141.687616 53.919354 
L 142.336925 49.207458 
L 142.66158 73.133189 
L 142.986234 63.512659 
L 143.310889 150.967264 
L 143.635543 165.208715 
L 143.960198 147.085392 
L 144.284852 117.360609 
L 144.609507 119.186527 
L 144.934161 110.434667 
L 145.258816 110.562552 
L 145.583471 124.078602 
L 145.908125 128.160239 
L 146.23278 86.181958 
L 146.557434 29.580469 
L 146.882089 34.080933 
L 147.206743 114.288408 
L 147.531398 51.575764 
L 147.856052 83.231933 
L 148.505361 20.312385 
L 148.830016 19.296 
L 149.154671 19.296 
L 149.479325 43.057645 
L 149.80398 35.363841 
L 150.128634 45.23013 
L 150.453289 24.279846 
L 150.777943 56.398272 
L 151.102598 105.610494 
L 151.427252 95.50437 
L 151.751907 47.875575 
L 152.401216 107.91002 
L 153.050525 43.159395 
L 153.37518 34.796719 
L 153.699834 19.296 
L 154.024489 79.602243 
L 154.349143 100.244478 
L 154.673798 109.024233 
L 154.998452 100.572811 
L 155.647761 67.036835 
L 155.972416 78.613149 
L 156.297071 27.432162 
L 156.621725 66.568631 
L 156.94638 83.346877 
L 157.271034 113.385172 
L 157.595689 157.669449 
L 157.920343 126.170998 
L 158.244998 122.041325 
L 158.569652 75.474721 
L 158.894307 127.238378 
L 159.218961 47.988654 
L 159.543616 105.822874 
L 159.868271 107.120881 
L 160.192925 84.188304 
L 160.51758 51.199907 
L 160.842234 72.760392 
L 161.166889 63.470576 
L 161.491543 41.285063 
L 161.816198 60.630234 
L 162.140852 45.415691 
L 162.465507 84.206405 
L 162.790161 19.296 
L 163.114816 41.249899 
L 163.439471 42.231366 
L 163.764125 38.799619 
L 164.08878 75.268429 
L 164.413434 79.258811 
L 164.738089 48.838925 
L 165.062743 30.01416 
L 165.387398 59.121994 
L 165.712052 19.296 
L 166.036707 54.27643 
L 166.361361 56.826674 
L 166.686016 55.398838 
L 167.010671 50.457979 
L 167.335325 50.47095 
L 167.65998 50.025019 
L 167.984634 54.809644 
L 168.309289 100.705842 
L 168.633943 97.013863 
L 168.958598 69.923096 
L 169.283252 78.216042 
L 169.607907 72.150115 
L 169.932561 68.567074 
L 170.257216 78.570126 
L 170.581871 67.102188 
L 170.906525 69.050102 
L 171.23118 67.26366 
L 171.555834 63.125078 
L 171.880489 88.679571 
L 172.205143 63.450678 
L 172.854452 40.263342 
L 173.179107 41.766812 
L 173.503761 34.59675 
L 173.828416 36.840127 
L 174.153071 36.979111 
L 174.477725 39.851495 
L 174.80238 67.865695 
L 175.127034 77.899618 
L 175.451689 75.744325 
L 175.776343 40.321815 
L 176.100998 39.58193 
L 176.425652 82.103209 
L 176.750307 94.220125 
L 177.399616 52.195059 
L 177.724271 68.478754 
L 178.048925 46.564533 
L 178.37358 43.362583 
L 178.698234 42.826969 
L 179.022889 57.199727 
L 179.347543 86.011938 
L 179.672198 55.010091 
L 179.996852 139.345639 
L 180.321507 55.823441 
L 180.646161 49.240124 
L 180.970816 48.642252 
L 181.295471 58.397605 
L 181.620125 48.604597 
L 181.94478 60.139535 
L 182.269434 43.816154 
L 182.594089 105.945618 
L 182.918743 63.316363 
L 183.243398 64.067571 
L 183.568052 52.351209 
L 183.892707 44.836357 
L 184.217361 54.267714 
L 184.542016 45.461791 
L 184.866671 130.477324 
L 185.191325 48.794868 
L 185.51598 43.052785 
L 185.840634 69.384446 
L 186.165289 114.28607 
L 186.489943 107.244332 
L 186.814598 84.996173 
L 187.139252 99.493922 
L 187.463907 55.597153 
L 187.788561 94.75545 
L 188.437871 35.632413 
L 188.762525 49.374174 
L 189.08718 73.129136 
L 189.411834 69.29306 
L 189.736489 58.441909 
L 190.061143 71.029505 
L 190.385798 115.467678 
L 190.710452 44.895406 
L 191.035107 89.375702 
L 191.359761 71.108512 
L 191.684416 33.341474 
L 192.009071 22.7361 
L 192.333725 113.132105 
L 192.65838 98.302582 
L 193.307689 82.8618 
L 193.956998 136.305404 
L 194.281652 94.719823 
L 194.606307 88.610636 
L 194.930961 91.647534 
L 195.255616 98.39716 
L 195.580271 77.053848 
L 195.904925 65.004177 
L 196.22958 71.143888 
L 196.554234 79.567801 
L 196.878889 80.613096 
L 197.203543 86.284339 
L 197.528198 79.338813 
L 197.852852 80.570832 
L 198.177507 78.452337 
L 198.502161 95.335524 
L 198.826816 96.697076 
L 199.151471 92.36833 
L 199.476125 117.248217 
L 199.80078 82.379054 
L 200.125434 143.741817 
L 200.450089 105.067657 
L 200.774743 175.356174 
L 201.099398 178.201813 
L 201.424052 216.197597 
L 202.073361 87.533196 
L 202.398016 145.568351 
L 203.047325 104.642328 
L 203.37198 93.109025 
L 203.696634 33.757364 
L 204.021289 41.953696 
L 204.345943 42.812449 
L 204.670598 19.296 
L 204.995252 27.151273 
L 205.319907 22.706605 
L 205.644561 72.390239 
L 205.969216 29.151073 
L 206.293871 35.911924 
L 206.618525 68.146245 
L 206.94318 78.473084 
L 207.267834 79.771289 
L 207.592489 73.561754 
L 207.917143 49.450293 
L 208.241798 72.868553 
L 208.891107 62.720835 
L 209.215761 91.285761 
L 209.540416 68.926311 
L 209.865071 88.113754 
L 210.189725 63.607467 
L 210.839034 112.275603 
L 211.163689 71.078212 
L 211.488343 67.414691 
L 211.812998 96.38854 
L 212.137652 63.508963 
L 212.462307 61.029026 
L 212.786961 45.236824 
L 213.111616 19.296 
L 213.436271 30.426117 
L 213.760925 102.441192 
L 214.08558 60.444606 
L 214.410234 40.426368 
L 214.734889 32.22045 
L 215.384198 58.865151 
L 215.708852 111.481894 
L 216.033507 83.600724 
L 216.358161 167.978071 
L 216.682816 101.872418 
L 217.007471 93.026241 
L 217.332125 139.932932 
L 217.65678 134.874089 
L 217.981434 89.546095 
L 218.306089 135.657174 
L 218.630743 132.864526 
L 218.955398 115.50026 
L 219.280052 158.193304 
L 219.929361 113.220105 
L 220.254016 76.992863 
L 220.578671 66.17373 
L 220.903325 76.463136 
L 221.22798 95.142506 
L 221.552634 89.408139 
L 221.877289 78.612652 
L 222.201943 111.959155 
L 222.526598 98.091309 
L 222.851252 97.755848 
L 223.175907 94.290709 
L 223.500561 26.548654 
L 223.825216 39.893819 
L 224.149871 65.447323 
L 224.474525 116.558455 
L 224.79918 88.051944 
L 225.123834 84.428187 
L 225.448489 101.337472 
L 225.773143 100.080129 
L 226.097798 177.478458 
L 227.071761 80.806762 
L 227.396416 99.89984 
L 227.721071 99.638555 
L 228.045725 66.270843 
L 228.37038 76.211328 
L 228.695034 71.731021 
L 229.019689 55.624171 
L 229.344343 31.39498 
L 230.642961 146.801945 
L 230.967616 114.558333 
L 231.292271 120.715689 
L 231.616925 117.318342 
L 231.94158 107.8671 
L 232.266234 90.245411 
L 232.590889 144.701976 
L 232.915543 44.778631 
L 233.240198 107.318122 
L 233.564852 117.992532 
L 233.889507 71.249945 
L 234.214161 74.213448 
L 234.863471 168.1857 
L 235.188125 118.969519 
L 235.51278 112.107553 
L 235.837434 63.846845 
L 236.162089 103.591674 
L 236.486743 127.299107 
L 236.811398 135.594593 
L 237.136052 55.412707 
L 237.460707 121.591548 
L 237.785361 137.237658 
L 238.110016 75.512174 
L 238.434671 123.201653 
L 238.759325 119.635577 
L 239.08398 114.602878 
L 239.408634 99.36584 
L 239.733289 113.537005 
L 240.057943 48.667836 
L 240.382598 92.527519 
L 240.707252 52.367467 
L 241.031907 55.478011 
L 241.356561 25.609827 
L 242.005871 109.251588 
L 242.330525 57.522209 
L 242.65518 71.050947 
L 243.304489 74.688215 
L 243.629143 65.395358 
L 243.953798 42.904846 
L 244.278452 36.289094 
L 244.603107 26.950044 
L 244.927761 34.351933 
L 245.252416 29.781721 
L 245.577071 89.358322 
L 245.901725 67.394685 
L 246.22638 108.434537 
L 246.551034 19.296 
L 246.875689 61.546713 
L 247.200343 70.16008 
L 247.524998 95.94183 
L 248.174307 105.326839 
L 248.498961 160.32613 
L 248.823616 97.712637 
L 249.148271 114.909177 
L 249.472925 95.703912 
L 249.79758 51.019382 
L 250.122234 36.525271 
L 250.446889 79.242034 
L 250.771543 62.907674 
L 251.096198 72.779884 
L 251.420852 50.546542 
L 251.745507 142.382308 
L 252.070161 175.105606 
L 252.394816 145.220984 
L 252.719471 135.442172 
L 253.044125 119.957668 
L 253.36878 128.519391 
L 254.018089 54.827757 
L 254.342743 95.282935 
L 254.667398 71.870736 
L 254.992052 65.932776 
L 255.316707 75.870304 
L 255.641361 94.477422 
L 255.966016 49.413761 
L 256.615325 127.815906 
L 256.93998 146.195727 
L 257.264634 138.726617 
L 257.589289 93.94916 
L 257.913943 127.236145 
L 258.238598 68.764064 
L 258.887907 152.525967 
L 259.212561 147.947066 
L 260.186525 19.296 
L 261.160489 144.036925 
L 261.485143 100.488164 
L 261.809798 92.642921 
L 262.134452 48.915431 
L 262.459107 25.076929 
L 262.783761 38.411707 
L 263.108416 69.569401 
L 263.433071 125.24107 
L 264.08238 72.105074 
L 264.407034 138.014394 
L 264.731689 57.293592 
L 265.056343 76.944396 
L 265.380998 74.754565 
L 266.030307 120.975158 
L 266.354961 84.196176 
L 266.679616 82.134477 
L 267.004271 86.359108 
L 267.328925 96.466644 
L 267.65358 115.177812 
L 267.978234 103.678503 
L 268.302889 74.236374 
L 268.627543 85.354764 
L 268.952198 110.92295 
L 269.276852 62.052175 
L 269.601507 99.050915 
L 269.926161 55.775123 
L 270.250816 50.619212 
L 270.575471 103.545734 
L 270.900125 93.382775 
L 271.22478 61.399778 
L 271.549434 49.076005 
L 271.874089 71.80545 
L 272.198743 111.597485 
L 272.523398 135.508179 
L 272.848052 119.561509 
L 273.172707 155.790944 
L 273.497361 109.991203 
L 273.822016 123.584762 
L 274.146671 112.000907 
L 274.471325 107.89522 
L 274.79598 161.5145 
L 275.120634 186.656753 
L 276.094598 101.009596 
L 276.419252 195.108275 
L 276.743907 152.441917 
L 277.068561 169.999253 
L 277.393216 165.77949 
L 277.717871 221.369019 
L 278.042525 201.905842 
L 278.36718 244.102188 
L 278.691834 210.025614 
L 279.016489 128.331786 
L 279.341143 126.312087 
L 279.665798 70.076896 
L 279.990452 207.090203 
L 280.315107 182.541973 
L 280.639761 119.370774 
L 280.964416 172.305679 
L 281.289071 181.848375 
L 281.613725 180.733907 
L 281.93838 196.522973 
L 282.587689 164.955798 
L 282.912343 81.699497 
L 283.236998 147.066876 
L 283.561652 88.978493 
L 283.886307 71.231551 
L 284.210961 80.786675 
L 284.860271 132.008038 
L 285.184925 63.570027 
L 285.50958 129.447537 
L 285.834234 114.532563 
L 286.158889 84.233652 
L 286.483543 89.140326 
L 286.808198 142.80862 
L 287.132852 133.653296 
L 287.457507 148.648595 
L 288.106816 120.989906 
L 288.431471 126.051589 
L 289.405434 99.202025 
L 289.730089 150.822751 
L 290.054743 154.791979 
L 290.379398 116.804644 
L 290.704052 115.362666 
L 291.028707 144.20729 
L 291.353361 144.242387 
L 291.678016 130.144765 
L 292.002671 129.410737 
L 292.65198 53.118069 
L 292.976634 86.071335 
L 293.301289 84.332622 
L 293.625943 127.07256 
L 294.599907 34.057553 
L 294.924561 55.289206 
L 295.249216 62.536271 
L 295.573871 52.416113 
L 295.898525 54.278052 
L 296.22318 22.38188 
L 296.547834 19.296 
L 296.872489 26.154158 
L 297.197143 21.310602 
L 297.521798 32.808933 
L 297.846452 19.296 
L 298.171107 63.84861 
L 298.495761 76.983814 
L 298.820416 99.379424 
L 299.469725 73.630938 
L 299.79438 72.959682 
L 300.119034 72.666626 
L 300.443689 85.133003 
L 300.768343 73.938694 
L 301.092998 102.412333 
L 301.417652 117.14667 
L 301.742307 77.500909 
L 302.066961 129.892232 
L 302.391616 80.9657 
L 302.716271 87.560897 
L 303.040925 76.359002 
L 303.36558 112.93823 
L 304.014889 98.587895 
L 304.339543 36.333492 
L 304.664198 67.91915 
L 304.988852 71.832558 
L 305.313507 134.627915 
L 306.287471 35.52109 
L 306.612125 41.832365 
L 306.93678 19.296 
L 307.261434 19.296 
L 307.910743 58.644763 
L 308.235398 64.914209 
L 308.560052 65.207151 
L 308.884707 82.343605 
L 309.209361 57.301099 
L 309.534016 89.693482 
L 309.858671 70.10417 
L 310.183325 93.939361 
L 310.50798 98.636064 
L 310.832634 33.749131 
L 311.157289 117.987834 
L 311.481943 52.01301 
L 311.806598 122.719124 
L 312.131252 51.290315 
L 312.455907 33.511209 
L 312.780561 54.929792 
L 313.105216 105.215069 
L 313.429871 116.177255 
L 313.754525 140.216696 
L 314.07918 145.819404 
L 314.403834 137.946416 
L 314.728489 77.027187 
L 315.053143 83.024269 
L 315.377798 111.599817 
L 315.702452 61.527902 
L 316.351761 129.655578 
L 316.676416 138.044027 
L 317.001071 172.400256 
L 317.325725 55.46323 
L 317.975034 233.031486 
L 318.299689 225.378709 
L 318.624343 184.553364 
L 318.948998 171.599104 
L 319.273652 134.83145 
L 319.598307 126.786972 
L 319.922961 55.018032 
L 320.247616 86.975373 
L 320.572271 74.692969 
L 320.896925 139.737468 
L 321.22158 47.614056 
L 321.546234 21.721975 
L 321.870889 107.307138 
L 322.195543 142.645447 
L 322.520198 109.504549 
L 322.844852 97.276027 
L 323.169507 186.543563 
L 323.494161 129.061157 
L 323.818816 47.484871 
L 324.143471 80.493579 
L 324.468125 50.632346 
L 324.79278 38.230193 
L 325.117434 52.914984 
L 325.442089 109.656127 
L 325.766743 40.301704 
L 326.091398 54.591473 
L 326.416052 126.650663 
L 326.740707 90.352846 
L 327.065361 166.50611 
L 327.390016 158.57202 
L 327.714671 138.266316 
L 328.039325 101.075846 
L 328.36398 156.887566 
L 328.688634 154.625035 
L 329.013289 57.944064 
L 329.662598 131.44605 
L 329.987252 91.615974 
L 330.311907 168.384168 
L 330.636561 159.152506 
L 330.961216 145.576797 
L 331.285871 79.124861 
L 331.610525 61.844761 
L 331.93518 76.431742 
L 332.259834 78.668859 
L 332.584489 76.791305 
L 332.909143 135.991805 
L 333.233798 62.866875 
L 333.883107 97.856338 
L 334.207761 45.492013 
L 335.181725 128.366859 
L 335.50638 95.684291 
L 335.831034 117.740476 
L 336.155689 91.577181 
L 336.480343 113.252335 
L 336.804998 61.220667 
L 337.129652 51.439336 
L 337.454307 55.42664 
L 337.778961 132.16515 
L 338.103616 94.762086 
L 338.428271 161.724399 
L 338.752925 61.545404 
L 339.07758 165.784969 
L 339.402234 103.417609 
L 339.726889 62.829422 
L 340.051543 118.516491 
L 340.376198 142.673446 
L 340.700852 158.242537 
L 341.025507 121.885266 
L 341.350161 128.600665 
L 341.674816 166.269692 
L 341.999471 90.837641 
L 342.324125 78.485983 
L 342.64878 118.453771 
L 342.973434 185.741688 
L 343.298089 138.068104 
L 343.622743 176.472465 
L 343.947398 154.83075 
L 344.272052 118.07815 
L 344.596707 139.711554 
L 344.921361 77.931107 
L 345.246016 200.954285 
L 345.570671 148.481999 
L 345.895325 128.538694 
L 346.21998 180.852977 
L 346.544634 261.216 
L 346.869289 184.667517 
L 347.193943 193.051546 
L 347.518598 194.456077 
L 347.843252 155.526149 
L 348.167907 177.104581 
L 348.492561 161.275189 
L 348.817216 167.599322 
L 349.141871 195.411239 
L 349.466525 162.944241 
L 349.79118 167.175414 
L 350.115834 229.292447 
L 350.440489 189.414958 
L 350.765143 93.089345 
L 351.089798 138.931203 
L 351.414452 147.990574 
L 351.739107 161.481719 
L 352.063761 87.038324 
L 352.388416 141.809543 
L 352.713071 71.908348 
L 353.037725 111.360691 
L 353.36238 48.813925 
L 353.687034 94.084373 
L 354.011689 156.797434 
L 354.336343 92.160102 
L 354.660998 145.151763 
L 354.985652 238.545546 
L 355.310307 224.344126 
L 355.634961 199.075277 
L 355.959616 205.564965 
L 356.284271 233.429232 
L 356.608925 208.777687 
L 356.93358 223.888727 
L 357.582889 182.032186 
L 357.907543 176.682721 
L 358.881507 94.595259 
L 359.206161 114.082281 
L 359.530816 169.887547 
L 359.855471 130.01608 
L 360.180125 136.487924 
L 360.50478 55.980023 
L 360.829434 19.296 
L 361.154089 31.811108 
L 361.478743 75.159692 
L 361.803398 62.693455 
L 362.128052 81.13928 
L 362.777361 46.940081 
L 363.102016 87.818164 
L 363.426671 47.238593 
L 363.751325 139.0395 
L 364.07598 97.20316 
L 364.400634 146.210365 
L 364.725289 161.997764 
L 365.049943 152.750507 
L 365.049943 152.750507 
" clip-path="url(#p988cb304c7)" style="fill: none; stroke: #e46e56; stroke-width: 1.5; stroke-linecap: square"/>
   </g>
   <g id="line2d_13">
    <path d="M 40.395398 101.839401 
L 40.720052 99.308589 
L 41.044707 63.733641 
L 41.369361 108.612332 
L 41.694016 127.204949 
L 42.018671 108.227451 
L 42.343325 63.857667 
L 42.66798 64.607385 
L 43.317289 50.426174 
L 43.641943 62.354321 
L 43.966598 49.395977 
L 44.291252 52.479828 
L 44.615907 58.539943 
L 44.940561 87.651748 
L 45.265216 37.614739 
L 45.589871 58.033855 
L 45.914525 32.368668 
L 46.23918 19.296 
L 46.563834 33.654394 
L 46.888489 55.467821 
L 47.213143 29.779562 
L 47.537798 24.39418 
L 47.862452 98.027777 
L 48.187107 25.922906 
L 48.511761 32.581661 
L 48.836416 35.069491 
L 49.161071 140.34267 
L 49.485725 85.419939 
L 50.135034 25.248995 
L 50.459689 52.71498 
L 50.784343 46.280471 
L 51.108998 26.672118 
L 51.433652 88.150657 
L 51.758307 43.99807 
L 52.082961 65.744562 
L 52.407616 54.831583 
L 52.732271 94.915939 
L 53.056925 62.425546 
L 53.38158 56.293379 
L 53.706234 61.686099 
L 54.030889 100.014893 
L 54.355543 19.296 
L 54.680198 77.425796 
L 55.004852 98.191203 
L 55.329507 53.240797 
L 55.978816 107.514724 
L 56.303471 55.008618 
L 56.95278 74.070326 
L 57.277434 48.884297 
L 57.602089 42.22714 
L 57.926743 58.386328 
L 58.251398 26.166189 
L 58.576052 19.296 
L 58.900707 32.201171 
L 59.225361 24.997616 
L 59.550016 21.991212 
L 59.874671 47.615368 
L 60.199325 19.296 
L 60.52398 58.669923 
L 60.848634 25.706896 
L 61.173289 49.928177 
L 61.497943 20.774492 
L 61.822598 78.949157 
L 62.147252 28.333459 
L 62.471907 63.855127 
L 62.796561 55.601363 
L 63.121216 55.677846 
L 63.445871 56.317537 
L 64.09518 107.962538 
L 64.419834 53.377775 
L 64.744489 86.625831 
L 65.069143 67.008571 
L 65.393798 28.772352 
L 65.718452 27.978002 
L 66.043107 56.808811 
L 66.367761 30.189534 
L 66.692416 27.67185 
L 67.017071 113.924616 
L 67.341725 37.955119 
L 67.66638 89.98144 
L 67.991034 61.161178 
L 68.315689 81.126745 
L 68.640343 115.235455 
L 68.964998 97.528006 
L 69.289652 30.440436 
L 69.614307 72.981791 
L 69.938961 28.732877 
L 70.588271 59.245886 
L 70.912925 29.611959 
L 71.23758 54.056028 
L 71.562234 47.550924 
L 71.886889 82.094253 
L 72.211543 23.483209 
L 72.536198 77.586438 
L 72.860852 87.547658 
L 73.185507 25.760479 
L 73.510161 30.968849 
L 73.834816 39.48106 
L 74.159471 56.453117 
L 74.484125 19.296 
L 74.80878 29.837911 
L 75.133434 45.167769 
L 75.458089 47.158097 
L 75.782743 19.296 
L 76.107398 25.633231 
L 76.432052 19.296 
L 76.756707 43.880921 
L 77.081361 79.501917 
L 77.406016 72.153274 
L 77.730671 36.87578 
L 78.055325 20.463064 
L 78.37998 46.974257 
L 78.704634 55.008924 
L 79.029289 42.709246 
L 79.353943 53.836388 
L 79.678598 19.296 
L 80.003252 26.401601 
L 80.327907 27.797753 
L 80.652561 25.535416 
L 80.977216 19.364372 
L 81.301871 20.217831 
L 81.626525 30.440087 
L 81.95118 53.590485 
L 82.275834 23.416411 
L 82.600489 62.335153 
L 82.925143 75.937153 
L 83.249798 51.435821 
L 83.574452 105.995013 
L 83.899107 73.478836 
L 84.223761 61.461581 
L 84.548416 70.118644 
L 84.873071 29.578771 
L 85.197725 46.733441 
L 85.52238 81.233152 
L 85.847034 72.34819 
L 86.171689 19.296 
L 86.496343 26.780652 
L 86.820998 44.408085 
L 87.470307 90.707699 
L 87.794961 89.446015 
L 88.119616 145.883639 
L 89.09358 64.785336 
L 89.418234 80.24191 
L 89.742889 32.910599 
L 90.067543 54.975756 
L 90.392198 38.304086 
L 90.716852 85.847934 
L 91.041507 51.545959 
L 91.366161 69.982078 
L 91.690816 54.000171 
L 92.340125 146.231113 
L 92.989434 70.02183 
L 93.314089 77.095449 
L 93.638743 93.860417 
L 93.963398 143.460853 
L 94.288052 95.648941 
L 95.262016 38.137164 
L 95.586671 55.982653 
L 95.911325 47.557047 
L 96.23598 29.537987 
L 96.560634 79.066441 
L 96.885289 99.823215 
L 97.209943 79.520003 
L 97.534598 77.238237 
L 97.859252 43.372553 
L 98.183907 70.176291 
L 98.508561 123.512559 
L 98.833216 109.356435 
L 99.157871 162.849965 
L 99.80718 19.296 
L 100.131834 23.719516 
L 100.456489 43.595074 
L 100.781143 21.102794 
L 101.105798 61.590201 
L 101.430452 81.42408 
L 101.755107 80.217121 
L 102.079761 88.579033 
L 102.404416 64.397781 
L 102.729071 102.654855 
L 103.37838 36.344554 
L 103.703034 27.990089 
L 104.027689 69.542788 
L 104.352343 93.725593 
L 104.676998 50.366096 
L 105.001652 120.765933 
L 105.326307 39.944046 
L 105.650961 79.27093 
L 105.975616 68.886445 
L 106.300271 113.435778 
L 106.624925 93.334842 
L 106.94958 105.537533 
L 107.274234 95.084396 
L 107.598889 89.174653 
L 107.923543 53.622164 
L 108.248198 100.111141 
L 108.572852 49.62863 
L 108.897507 72.570149 
L 109.222161 64.653173 
L 109.546816 70.859921 
L 109.871471 52.034374 
L 110.196125 22.405754 
L 110.845434 105.973616 
L 111.170089 50.130459 
L 111.494743 92.979865 
L 111.819398 107.466938 
L 112.144052 82.812609 
L 112.468707 88.139614 
L 112.793361 28.756038 
L 113.118016 28.721224 
L 113.442671 40.348191 
L 113.767325 29.701729 
L 114.09198 29.624695 
L 114.416634 57.555446 
L 114.741289 65.387247 
L 115.065943 28.612694 
L 115.390598 52.606904 
L 115.715252 31.622209 
L 116.689216 49.662788 
L 117.013871 47.684584 
L 117.338525 54.699375 
L 117.66318 97.045124 
L 117.987834 97.003686 
L 118.637143 55.828038 
L 118.961798 79.072977 
L 119.286452 52.680646 
L 119.611107 54.763056 
L 120.260416 78.342848 
L 120.585071 110.522405 
L 120.909725 64.352184 
L 121.23438 44.497146 
L 121.559034 45.613325 
L 121.883689 60.356421 
L 122.532998 111.619325 
L 122.857652 75.58199 
L 123.182307 68.8123 
L 123.506961 19.296 
L 123.831616 50.752052 
L 124.156271 55.442361 
L 124.480925 43.01493 
L 124.80558 50.076905 
L 125.454889 33.197 
L 125.779543 34.553825 
L 126.104198 40.86242 
L 126.753507 19.296 
L 127.078161 19.296 
L 127.402816 31.573426 
L 127.727471 30.213945 
L 128.052125 34.437182 
L 128.37678 34.268798 
L 128.701434 39.105348 
L 129.026089 33.584231 
L 129.350743 34.624284 
L 129.675398 49.161207 
L 130.649361 61.471479 
L 131.298671 28.149254 
L 131.623325 31.500134 
L 131.94798 19.296 
L 132.272634 32.408713 
L 132.597289 55.491551 
L 133.246598 19.296 
L 133.571252 21.879044 
L 133.895907 19.296 
L 134.220561 70.306689 
L 134.545216 102.409629 
L 134.869871 43.950585 
L 135.194525 76.164228 
L 135.51918 30.520995 
L 135.843834 101.938227 
L 136.168489 118.920316 
L 136.493143 56.445463 
L 136.817798 22.98995 
L 137.142452 37.178795 
L 137.467107 136.870675 
L 137.791761 119.220249 
L 138.116416 145.270166 
L 138.441071 135.483123 
L 138.765725 148.925469 
L 139.09038 123.8536 
L 139.415034 134.95043 
L 139.739689 100.062922 
L 140.064343 29.403151 
L 140.388998 83.123436 
L 140.713652 26.463134 
L 141.038307 20.33394 
L 141.362961 39.543894 
L 141.687616 51.200929 
L 142.012271 41.84567 
L 142.336925 69.420051 
L 142.66158 60.043542 
L 142.986234 22.25795 
L 143.310889 19.296 
L 143.635543 94.883724 
L 143.960198 46.442454 
L 144.284852 23.596724 
L 144.609507 62.60511 
L 145.258816 23.310285 
L 145.583471 41.518848 
L 145.908125 77.01379 
L 146.23278 81.185 
L 146.557434 23.59036 
L 146.882089 19.296 
L 147.206743 113.270913 
L 147.531398 78.756192 
L 147.856052 20.114189 
L 148.180707 29.445326 
L 148.505361 26.380647 
L 148.830016 31.43931 
L 149.154671 150.491982 
L 149.479325 107.086363 
L 149.80398 83.245973 
L 150.128634 130.182682 
L 150.453289 119.83162 
L 150.777943 80.18752 
L 151.102598 62.179851 
L 151.427252 79.313623 
L 151.751907 78.943592 
L 152.076561 76.179505 
L 152.401216 82.112191 
L 152.725871 54.039875 
L 153.37518 71.089741 
L 153.699834 119.063774 
L 154.024489 45.918 
L 154.349143 34.363409 
L 154.673798 65.067881 
L 154.998452 65.904094 
L 155.323107 68.383378 
L 155.647761 148.333313 
L 155.972416 116.744848 
L 156.297071 150.88214 
L 156.621725 148.621427 
L 156.94638 163.583661 
L 157.271034 167.835941 
L 157.920343 82.397178 
L 158.244998 61.452706 
L 158.569652 106.134198 
L 158.894307 44.141146 
L 159.218961 24.933621 
L 159.543616 51.977193 
L 160.192925 67.225809 
L 160.51758 87.310319 
L 160.842234 119.153117 
L 161.166889 111.333362 
L 161.491543 45.225514 
L 161.816198 29.861315 
L 162.140852 71.108722 
L 162.465507 59.712628 
L 162.790161 53.365073 
L 163.114816 76.05741 
L 163.439471 73.520891 
L 163.764125 71.96582 
L 164.08878 83.796184 
L 164.413434 72.301648 
L 164.738089 26.066353 
L 165.062743 61.628416 
L 165.387398 68.683115 
L 165.712052 27.371876 
L 166.036707 25.994357 
L 166.361361 42.172056 
L 166.686016 33.397077 
L 167.010671 65.148658 
L 167.335325 52.758373 
L 167.65998 53.637145 
L 168.309289 65.230638 
L 168.633943 89.344824 
L 168.958598 63.005437 
L 169.607907 54.616999 
L 170.257216 117.683504 
L 170.581871 98.897239 
L 170.906525 120.714594 
L 171.23118 131.875757 
L 171.555834 130.826843 
L 171.880489 123.951221 
L 172.205143 63.095742 
L 172.529798 115.28863 
L 172.854452 73.030035 
L 173.179107 58.446184 
L 173.503761 60.23227 
L 173.828416 58.34379 
L 174.153071 89.242093 
L 174.477725 66.565006 
L 174.80238 169.07703 
L 175.451689 145.447998 
L 176.100998 64.89969 
L 176.425652 109.188737 
L 176.750307 93.470081 
L 177.074961 155.186265 
L 177.399616 144.337993 
L 177.724271 145.443363 
L 178.37358 73.635659 
L 178.698234 185.661381 
L 179.022889 217.716224 
L 179.347543 149.016849 
L 179.672198 156.571308 
L 179.996852 99.81073 
L 180.321507 119.255706 
L 180.646161 98.412004 
L 180.970816 96.956222 
L 181.295471 111.703269 
L 181.620125 65.249323 
L 181.94478 76.999221 
L 182.269434 64.995495 
L 182.594089 122.069555 
L 182.918743 84.100281 
L 183.243398 104.685799 
L 183.568052 77.686006 
L 183.892707 87.92158 
L 184.217361 89.116015 
L 184.542016 73.917523 
L 184.866671 89.209593 
L 185.191325 128.242363 
L 185.51598 120.535599 
L 185.840634 123.365075 
L 186.165289 147.485344 
L 186.489943 149.576989 
L 186.814598 106.80119 
L 187.139252 112.56318 
L 187.463907 49.946674 
L 187.788561 76.950747 
L 188.113216 66.219477 
L 188.437871 44.089295 
L 188.762525 47.410926 
L 189.08718 43.741527 
L 189.411834 19.296 
L 189.736489 78.959726 
L 190.061143 47.564643 
L 190.710452 89.874138 
L 191.035107 78.455763 
L 191.359761 109.344964 
L 192.333725 59.072981 
L 192.65838 77.606104 
L 192.983034 49.539825 
L 193.307689 79.658849 
L 193.632343 91.602045 
L 193.956998 63.002889 
L 194.606307 69.057724 
L 194.930961 104.241247 
L 195.580271 53.404034 
L 195.904925 40.871482 
L 196.22958 97.642647 
L 196.554234 53.900179 
L 196.878889 45.342003 
L 197.203543 69.353198 
L 197.528198 54.48187 
L 197.852852 114.108255 
L 198.502161 95.608794 
L 198.826816 99.15042 
L 199.151471 66.286302 
L 199.476125 97.785647 
L 199.80078 107.250331 
L 200.125434 86.449689 
L 200.450089 96.280005 
L 200.774743 127.193127 
L 201.099398 121.544943 
L 201.424052 60.978885 
L 201.748707 92.576614 
L 202.073361 62.405946 
L 202.398016 62.880316 
L 202.722671 62.485191 
L 203.047325 39.234362 
L 203.37198 39.270597 
L 203.696634 59.542907 
L 204.345943 35.840532 
L 204.670598 58.657791 
L 204.995252 52.492443 
L 205.319907 35.539964 
L 205.644561 29.767704 
L 205.969216 56.469176 
L 206.293871 19.296 
L 206.618525 66.213487 
L 206.94318 82.362494 
L 207.267834 56.825691 
L 207.592489 65.962165 
L 207.917143 59.319064 
L 208.241798 69.737897 
L 208.566452 91.504386 
L 208.891107 43.852181 
L 209.215761 70.93333 
L 209.540416 65.150345 
L 209.865071 72.217549 
L 210.189725 52.235634 
L 210.51438 75.439362 
L 210.839034 26.119871 
L 211.488343 70.716835 
L 211.812998 66.474046 
L 212.137652 71.695557 
L 212.462307 110.900678 
L 212.786961 118.401451 
L 213.111616 79.939736 
L 213.760925 42.814484 
L 214.08558 41.440953 
L 214.410234 27.598975 
L 214.734889 27.267273 
L 215.059543 25.590887 
L 215.384198 23.130744 
L 215.708852 45.23801 
L 216.033507 32.957936 
L 216.358161 58.064258 
L 216.682816 47.107152 
L 217.007471 104.734354 
L 217.332125 120.812736 
L 217.65678 110.309303 
L 217.981434 49.205119 
L 218.306089 37.126564 
L 218.630743 31.563943 
L 218.955398 30.516084 
L 219.280052 19.296 
L 219.929361 140.128788 
L 220.254016 120.260006 
L 220.578671 29.31582 
L 220.903325 31.771838 
L 221.22798 120.839122 
L 221.877289 104.389658 
L 222.201943 100.975978 
L 222.526598 113.897028 
L 222.851252 78.894029 
L 223.175907 86.814332 
L 223.500561 135.138304 
L 224.149871 93.475099 
L 224.474525 106.729803 
L 224.79918 76.269203 
L 225.123834 123.125239 
L 225.448489 84.627793 
L 225.773143 98.487217 
L 226.097798 46.988863 
L 226.747107 116.989467 
L 227.071761 22.335479 
L 227.396416 41.557834 
L 227.721071 109.547911 
L 228.045725 98.101172 
L 228.37038 58.500338 
L 228.695034 135.680594 
L 229.019689 106.724578 
L 229.344343 109.811718 
L 229.668998 55.350926 
L 229.993652 68.16273 
L 230.318307 57.232675 
L 230.642961 63.716964 
L 230.967616 64.622481 
L 231.292271 68.051727 
L 231.616925 81.598955 
L 231.94158 59.566437 
L 232.266234 73.110529 
L 232.590889 54.944974 
L 232.915543 72.990239 
L 233.564852 86.346345 
L 234.214161 50.224299 
L 234.538816 90.449592 
L 235.188125 61.807397 
L 235.51278 107.060571 
L 235.837434 67.474637 
L 236.162089 69.962987 
L 236.811398 106.640065 
L 237.136052 90.005 
L 237.460707 95.615197 
L 237.785361 59.771368 
L 238.110016 60.028058 
L 238.434671 45.019355 
L 238.759325 126.841743 
L 239.08398 70.478617 
L 239.408634 70.023715 
L 239.733289 45.415858 
L 240.057943 29.465163 
L 240.382598 57.258247 
L 240.707252 56.322854 
L 241.031907 19.296 
L 241.356561 24.090381 
L 241.681216 19.296 
L 242.005871 65.18863 
L 242.330525 29.506451 
L 242.65518 65.215158 
L 242.979834 62.112395 
L 243.304489 92.685315 
L 243.629143 76.874349 
L 243.953798 80.109174 
L 244.278452 72.11069 
L 244.603107 49.856292 
L 244.927761 56.936886 
L 245.252416 30.223719 
L 245.577071 34.925112 
L 245.901725 47.320545 
L 246.22638 41.374333 
L 246.551034 38.238019 
L 246.875689 46.33783 
L 247.200343 73.836223 
L 247.524998 76.441865 
L 247.849652 70.216051 
L 248.174307 51.016112 
L 248.498961 53.499697 
L 248.823616 79.456824 
L 249.148271 126.068833 
L 249.472925 57.79749 
L 249.79758 61.12399 
L 250.122234 59.825035 
L 250.446889 55.87842 
L 251.096198 21.530256 
L 251.420852 26.435846 
L 251.745507 19.296 
L 252.070161 33.755072 
L 252.394816 26.47109 
L 252.719471 80.334381 
L 253.044125 40.150083 
L 253.36878 75.856073 
L 253.693434 63.125327 
L 254.018089 44.43729 
L 254.342743 60.133321 
L 254.667398 29.491887 
L 254.992052 32.954752 
L 255.316707 59.60717 
L 255.641361 67.463966 
L 255.966016 60.471539 
L 256.290671 88.698232 
L 256.615325 79.045583 
L 256.93998 47.360793 
L 257.264634 85.695511 
L 257.589289 26.580281 
L 257.913943 26.104282 
L 258.238598 90.56716 
L 258.563252 30.580177 
L 258.887907 31.330074 
L 259.212561 19.296 
L 259.537216 51.723353 
L 259.861871 55.205609 
L 260.186525 67.967157 
L 260.51118 89.58149 
L 260.835834 24.681944 
L 261.160489 29.000728 
L 261.485143 19.296 
L 261.809798 62.741544 
L 262.134452 53.085616 
L 262.459107 80.083361 
L 262.783761 31.336286 
L 263.108416 59.326212 
L 263.433071 73.627679 
L 263.757725 106.251645 
L 264.08238 53.164848 
L 264.407034 104.234845 
L 264.731689 41.439694 
L 265.056343 56.545074 
L 265.380998 55.278079 
L 265.705652 44.583726 
L 266.030307 85.282916 
L 266.354961 39.856342 
L 266.679616 116.945869 
L 267.004271 66.252778 
L 267.328925 86.378443 
L 267.65358 61.287188 
L 267.978234 61.351715 
L 268.302889 23.969514 
L 268.627543 49.805155 
L 268.952198 50.026517 
L 269.276852 53.743373 
L 269.601507 53.105434 
L 269.926161 39.880292 
L 270.250816 66.65254 
L 270.575471 79.646563 
L 271.22478 93.65289 
L 271.549434 101.231609 
L 272.198743 82.582568 
L 272.523398 72.283481 
L 272.848052 53.408517 
L 273.172707 61.781781 
L 273.497361 34.751155 
L 273.822016 58.457395 
L 274.146671 24.579394 
L 274.471325 23.063761 
L 274.79598 30.089616 
L 275.120634 75.30397 
L 275.445289 74.536814 
L 275.769943 75.818379 
L 276.094598 19.296 
L 276.419252 36.41931 
L 276.743907 31.615546 
L 277.068561 70.74884 
L 277.393216 41.408409 
L 277.717871 39.240303 
L 278.042525 43.344477 
L 278.36718 19.451882 
L 278.691834 30.08241 
L 279.016489 29.524943 
L 279.341143 34.899292 
L 280.315107 92.318101 
L 280.639761 84.976839 
L 280.964416 108.568086 
L 281.289071 73.870053 
L 281.613725 104.702586 
L 281.93838 58.887071 
L 282.263034 115.108936 
L 282.587689 55.751283 
L 282.912343 21.791994 
L 283.561652 99.704333 
L 283.886307 80.153586 
L 284.210961 91.945812 
L 284.860271 19.296 
L 285.184925 19.296 
L 285.50958 27.544953 
L 285.834234 19.296 
L 286.158889 67.173925 
L 286.483543 61.228291 
L 286.808198 63.382853 
L 287.132852 63.799826 
L 287.457507 82.690793 
L 287.782161 79.425478 
L 288.106816 103.466252 
L 288.431471 159.340074 
L 289.08078 101.294128 
L 289.405434 128.315033 
L 289.730089 105.065403 
L 290.054743 108.06478 
L 290.379398 108.083342 
L 290.704052 72.421112 
L 291.028707 49.462576 
L 291.353361 87.819907 
L 291.678016 105.186192 
L 292.002671 106.157849 
L 292.327325 105.656769 
L 292.976634 64.614801 
L 293.301289 47.914323 
L 293.625943 63.692376 
L 293.950598 94.022196 
L 294.275252 72.726493 
L 294.599907 66.164816 
L 295.249216 109.848641 
L 295.573871 94.85398 
L 295.898525 128.174048 
L 296.22318 146.414319 
L 296.547834 106.595992 
L 296.872489 132.752602 
L 297.197143 175.909136 
L 297.521798 111.324926 
L 297.846452 113.547129 
L 298.171107 158.636216 
L 298.495761 88.357198 
L 298.820416 112.338666 
L 299.145071 77.584728 
L 299.469725 122.910837 
L 299.79438 117.890779 
L 300.119034 51.549978 
L 300.443689 91.987946 
L 300.768343 47.746294 
L 301.092998 19.296 
L 301.417652 69.856976 
L 301.742307 46.950705 
L 302.066961 80.968737 
L 302.391616 38.621015 
L 302.716271 30.524808 
L 303.040925 41.483917 
L 303.36558 37.419355 
L 303.690234 114.065245 
L 304.014889 73.149852 
L 304.339543 72.176558 
L 304.664198 64.787269 
L 304.988852 63.482932 
L 305.313507 74.079214 
L 305.638161 80.355043 
L 305.962816 96.291411 
L 306.287471 100.576987 
L 306.612125 111.37133 
L 306.93678 89.492638 
L 307.261434 89.99321 
L 307.586089 67.915668 
L 308.235398 90.458444 
L 308.560052 85.481868 
L 308.884707 100.73251 
L 309.209361 121.912821 
L 309.534016 65.02209 
L 310.183325 87.627071 
L 310.50798 86.96307 
L 310.832634 93.052961 
L 311.157289 94.140766 
L 311.481943 120.089082 
L 311.806598 97.997961 
L 312.131252 160.48861 
L 312.455907 191.754112 
L 312.780561 179.656815 
L 313.105216 107.724813 
L 313.429871 98.16451 
L 313.754525 47.762807 
L 314.07918 43.556675 
L 314.403834 114.817338 
L 314.728489 132.767872 
L 315.053143 120.256425 
L 315.377798 100.739834 
L 315.702452 127.464428 
L 316.027107 66.986673 
L 316.676416 100.822611 
L 317.001071 68.448366 
L 317.325725 92.716423 
L 317.65038 145.665731 
L 317.975034 126.955383 
L 318.299689 117.141221 
L 318.624343 96.466077 
L 318.948998 101.615757 
L 319.273652 128.545825 
L 319.598307 111.290379 
L 319.922961 103.845838 
L 320.572271 79.255693 
L 320.896925 91.517824 
L 321.22158 82.873036 
L 321.546234 151.306569 
L 321.870889 59.787333 
L 322.520198 94.554332 
L 322.844852 102.860934 
L 323.169507 87.81875 
L 323.494161 105.302562 
L 323.818816 103.303054 
L 324.143471 132.924421 
L 324.468125 123.264711 
L 325.117434 60.924222 
L 325.442089 78.047063 
L 325.766743 49.411226 
L 326.416052 27.136714 
L 326.740707 79.551336 
L 327.065361 47.890378 
L 327.390016 39.062832 
L 327.714671 19.296 
L 328.36398 96.657147 
L 328.688634 82.062528 
L 329.013289 121.817697 
L 329.337943 132.342553 
L 329.662598 133.660043 
L 329.987252 164.012446 
L 330.311907 118.294821 
L 330.636561 111.748754 
L 330.961216 66.928815 
L 331.285871 74.623267 
L 331.93518 101.453545 
L 332.259834 62.229168 
L 332.584489 90.934169 
L 332.909143 98.383242 
L 333.233798 108.861655 
L 333.558452 99.290268 
L 333.883107 123.459254 
L 334.207761 127.62235 
L 334.532416 61.740102 
L 334.857071 70.252291 
L 335.181725 93.445837 
L 335.50638 105.474176 
L 335.831034 159.657924 
L 336.804998 60.600748 
L 337.129652 103.147067 
L 337.454307 68.753873 
L 337.778961 108.509277 
L 338.103616 119.750788 
L 338.428271 137.626346 
L 338.752925 170.074689 
L 339.07758 116.246968 
L 339.402234 165.471637 
L 339.726889 128.082583 
L 340.051543 109.402975 
L 340.376198 131.960134 
L 340.700852 71.104575 
L 341.350161 33.047086 
L 341.674816 26.860859 
L 341.999471 79.35962 
L 342.324125 58.684454 
L 342.64878 64.061655 
L 342.973434 46.868474 
L 343.298089 115.549859 
L 343.947398 21.032146 
L 344.272052 90.157027 
L 344.596707 114.795515 
L 344.921361 60.487066 
L 345.246016 82.529672 
L 345.570671 75.102207 
L 345.895325 100.065681 
L 346.21998 45.92087 
L 346.544634 55.308675 
L 346.869289 19.296 
L 347.193943 25.006866 
L 347.518598 22.015443 
L 347.843252 38.8966 
L 348.167907 67.230945 
L 348.492561 106.36729 
L 348.817216 108.444418 
L 349.141871 139.198659 
L 349.466525 121.284245 
L 349.79118 125.245671 
L 350.115834 113.394448 
L 350.765143 80.64148 
L 351.089798 50.659622 
L 351.414452 60.855189 
L 351.739107 19.296 
L 352.063761 19.296 
L 352.388416 124.100568 
L 353.037725 92.856348 
L 353.36238 43.862604 
L 353.687034 27.969217 
L 354.011689 43.934684 
L 354.336343 24.825849 
L 354.660998 20.874554 
L 355.310307 41.603834 
L 355.634961 38.050413 
L 355.959616 37.656838 
L 356.284271 108.906722 
L 356.608925 66.109363 
L 357.258234 108.093908 
L 357.582889 56.406708 
L 357.907543 106.406729 
L 358.232198 108.254505 
L 358.556852 105.529135 
L 358.881507 137.606994 
L 359.206161 105.872631 
L 359.855471 188.768168 
L 360.180125 173.643815 
L 360.50478 107.309013 
L 360.829434 157.822562 
L 361.478743 130.759313 
L 361.803398 110.725538 
L 362.128052 111.34554 
L 362.452707 102.505008 
L 362.777361 59.553483 
L 363.102016 105.434673 
L 363.426671 98.426247 
L 363.751325 116.596035 
L 364.400634 91.748441 
L 364.725289 29.500715 
L 365.049943 35.287576 
L 365.049943 35.287576 
" clip-path="url(#p988cb304c7)" style="fill: none; stroke: #d1dae9; stroke-width: 1.5; stroke-linecap: square"/>
   </g>
   <g id="line2d_14">
    <path d="M 40.395398 109.13403 
L 40.720052 80.305129 
L 41.044707 102.604316 
L 41.369361 42.485599 
L 41.694016 69.670915 
L 42.018671 70.54051 
L 42.343325 89.834186 
L 42.66798 77.152612 
L 42.992634 106.715375 
L 43.317289 46.287103 
L 43.641943 95.864547 
L 43.966598 75.058048 
L 44.291252 82.561017 
L 44.615907 102.062318 
L 44.940561 69.642229 
L 45.265216 57.190597 
L 45.589871 85.658587 
L 45.914525 92.155166 
L 46.23918 101.069356 
L 46.563834 74.922993 
L 46.888489 99.258458 
L 47.213143 64.074479 
L 47.537798 55.590648 
L 47.862452 68.423245 
L 48.187107 70.312715 
L 48.511761 80.303444 
L 48.836416 70.569452 
L 49.161071 89.665807 
L 49.485725 19.296 
L 49.81038 24.948534 
L 50.135034 91.713429 
L 50.459689 91.289949 
L 50.784343 100.622335 
L 51.108998 116.960322 
L 51.433652 80.786101 
L 52.082961 90.317818 
L 52.407616 46.178154 
L 52.732271 90.406316 
L 53.056925 43.26975 
L 53.38158 51.548642 
L 53.706234 40.661619 
L 54.030889 40.918377 
L 54.355543 82.07207 
L 55.004852 19.296 
L 55.329507 70.940537 
L 55.654161 102.692946 
L 55.978816 179.29672 
L 56.303471 169.180332 
L 56.628125 139.583017 
L 56.95278 84.912763 
L 57.277434 86.179868 
L 57.602089 122.195113 
L 57.926743 71.018642 
L 58.251398 46.318818 
L 58.576052 62.69247 
L 59.225361 44.933922 
L 59.550016 71.63732 
L 59.874671 165.840748 
L 60.52398 98.901706 
L 61.173289 131.439572 
L 61.497943 116.059245 
L 61.822598 116.290916 
L 62.147252 149.379986 
L 63.121216 57.310352 
L 63.445871 29.870425 
L 63.770525 113.168606 
L 64.09518 34.048491 
L 64.419834 43.783102 
L 65.069143 83.591373 
L 65.393798 63.517322 
L 66.367761 66.478397 
L 66.692416 49.116337 
L 67.017071 56.75061 
L 67.341725 72.184471 
L 67.66638 43.842879 
L 67.991034 55.099499 
L 68.315689 51.05797 
L 68.640343 55.445228 
L 68.964998 66.563923 
L 69.289652 22.578642 
L 69.614307 99.045552 
L 69.938961 53.405745 
L 70.263616 30.540861 
L 70.588271 19.694951 
L 70.912925 53.072119 
L 71.23758 46.604933 
L 71.562234 29.514488 
L 71.886889 49.235916 
L 72.211543 33.18469 
L 72.536198 45.993559 
L 72.860852 46.23047 
L 73.185507 42.578366 
L 73.510161 28.663054 
L 73.834816 28.413356 
L 74.159471 34.675557 
L 74.484125 23.457927 
L 74.80878 27.478307 
L 75.458089 57.015824 
L 75.782743 86.10097 
L 76.107398 37.569429 
L 76.432052 60.785571 
L 76.756707 53.237746 
L 77.081361 56.645963 
L 77.406016 22.391374 
L 78.055325 31.231523 
L 78.37998 34.4269 
L 78.704634 35.484346 
L 79.029289 47.490417 
L 79.353943 37.663765 
L 79.678598 49.743232 
L 80.327907 54.213794 
L 80.652561 42.748976 
L 80.977216 55.030622 
L 81.301871 59.815634 
L 81.95118 21.921963 
L 82.275834 19.296 
L 82.600489 22.853604 
L 82.925143 80.966034 
L 83.249798 107.702058 
L 83.574452 38.957199 
L 83.899107 46.014772 
L 84.223761 107.936015 
L 84.873071 19.296 
L 85.847034 109.343707 
L 86.171689 37.173954 
L 86.496343 25.065346 
L 86.820998 50.168319 
L 87.145652 84.939236 
L 87.470307 68.834541 
L 87.794961 22.636785 
L 88.119616 19.296 
L 88.768925 95.656298 
L 89.09358 60.84551 
L 89.418234 82.240917 
L 89.742889 40.127631 
L 90.067543 63.89974 
L 90.392198 45.737992 
L 90.716852 44.946242 
L 91.041507 103.426881 
L 91.366161 102.646304 
L 92.015471 37.613009 
L 92.340125 22.506774 
L 92.66478 66.089021 
L 92.989434 86.588794 
L 93.638743 31.224443 
L 93.963398 19.296 
L 94.288052 63.085239 
L 94.612707 54.078999 
L 94.937361 129.283905 
L 95.262016 76.729603 
L 95.586671 48.973787 
L 95.911325 50.937322 
L 96.23598 51.218893 
L 96.560634 56.055555 
L 96.885289 98.418503 
L 97.209943 82.489978 
L 97.534598 46.263092 
L 97.859252 51.905043 
L 98.183907 29.387449 
L 98.508561 123.53009 
L 98.833216 117.848674 
L 99.157871 56.741238 
L 99.482525 58.467651 
L 99.80718 88.498213 
L 100.131834 135.308978 
L 100.456489 83.585557 
L 100.781143 66.690899 
L 101.105798 82.685752 
L 101.430452 104.997693 
L 101.755107 142.38944 
L 102.404416 66.714087 
L 102.729071 76.49151 
L 103.053725 70.961106 
L 103.37838 93.983665 
L 103.703034 143.9766 
L 104.027689 147.746299 
L 104.676998 62.830459 
L 105.001652 66.613215 
L 105.326307 67.869087 
L 105.650961 19.296 
L 105.975616 63.842936 
L 106.300271 19.296 
L 106.624925 71.765462 
L 106.94958 92.685101 
L 107.274234 73.149507 
L 107.598889 64.908742 
L 107.923543 96.017882 
L 108.248198 93.125544 
L 108.572852 87.325095 
L 108.897507 104.271055 
L 109.222161 91.826152 
L 109.546816 120.155441 
L 109.871471 118.141486 
L 110.196125 151.577518 
L 110.52078 123.170364 
L 110.845434 83.017812 
L 111.170089 86.8709 
L 111.494743 82.35869 
L 111.819398 68.332067 
L 112.144052 96.060758 
L 112.468707 96.788906 
L 112.793361 102.153902 
L 113.118016 67.811757 
L 113.442671 64.19286 
L 113.767325 112.186404 
L 114.09198 132.742667 
L 114.416634 108.978507 
L 114.741289 118.816198 
L 115.065943 104.043858 
L 115.390598 49.513477 
L 115.715252 63.48458 
L 116.039907 39.745148 
L 116.364561 52.965769 
L 116.689216 56.278471 
L 117.013871 56.863499 
L 117.338525 88.612335 
L 117.66318 50.535068 
L 118.312489 86.357586 
L 118.637143 43.509745 
L 118.961798 51.878809 
L 119.286452 86.862572 
L 119.611107 86.642604 
L 119.935761 60.865829 
L 120.260416 72.179653 
L 120.909725 118.089695 
L 121.23438 59.67252 
L 121.559034 62.243691 
L 121.883689 79.809421 
L 122.208343 66.135859 
L 122.532998 19.907424 
L 122.857652 37.019077 
L 123.182307 44.05238 
L 123.506961 70.091641 
L 123.831616 47.065378 
L 124.156271 52.763652 
L 124.480925 80.137516 
L 124.80558 137.470534 
L 125.130234 19.296 
L 125.454889 67.220198 
L 125.779543 73.07842 
L 126.104198 62.260465 
L 126.428852 19.296 
L 126.753507 28.939818 
L 127.078161 56.879955 
L 127.402816 21.173695 
L 127.727471 76.097399 
L 128.052125 100.331321 
L 128.37678 99.23684 
L 128.701434 74.268987 
L 129.026089 112.438304 
L 129.350743 98.281079 
L 129.675398 116.171261 
L 130.000052 93.836824 
L 130.324707 62.764692 
L 130.649361 48.433915 
L 130.974016 72.674058 
L 131.298671 19.296 
L 131.94798 61.94003 
L 132.272634 30.804105 
L 132.921943 80.984363 
L 133.571252 47.761587 
L 134.220561 27.317841 
L 134.869871 56.400165 
L 135.194525 48.57262 
L 135.51918 58.392519 
L 135.843834 74.675372 
L 136.168489 85.003492 
L 136.493143 44.283287 
L 136.817798 43.058871 
L 137.467107 88.659848 
L 137.791761 109.140166 
L 138.116416 105.501279 
L 138.441071 77.463205 
L 138.765725 72.631082 
L 139.415034 41.166659 
L 139.739689 56.00846 
L 140.064343 58.660265 
L 140.388998 26.464746 
L 140.713652 19.296 
L 141.038307 31.736885 
L 141.362961 49.481686 
L 141.687616 83.960117 
L 142.012271 88.527697 
L 142.336925 80.428456 
L 142.66158 61.858312 
L 142.986234 88.581681 
L 143.635543 36.725225 
L 143.960198 19.841962 
L 144.934161 68.13047 
L 145.258816 85.153804 
L 145.583471 85.341088 
L 145.908125 97.231749 
L 146.23278 100.174907 
L 146.557434 98.813139 
L 146.882089 130.858657 
L 147.206743 66.517759 
L 147.531398 71.493973 
L 147.856052 131.031508 
L 148.180707 118.555438 
L 148.505361 76.794623 
L 148.830016 77.325281 
L 149.154671 55.843399 
L 149.479325 108.358209 
L 149.80398 95.964609 
L 150.128634 56.029512 
L 150.453289 54.318908 
L 150.777943 51.64041 
L 151.102598 29.466113 
L 151.427252 41.894686 
L 151.751907 31.997679 
L 152.076561 30.990008 
L 152.401216 24.975319 
L 153.050525 35.319793 
L 153.699834 80.474767 
L 154.024489 42.147135 
L 154.673798 139.91606 
L 154.998452 140.229121 
L 155.323107 35.253893 
L 155.647761 73.298024 
L 155.972416 65.045985 
L 156.297071 88.811439 
L 156.621725 37.992605 
L 156.94638 46.982205 
L 157.271034 19.296 
L 157.595689 19.296 
L 157.920343 51.999552 
L 158.244998 66.325678 
L 158.569652 55.299256 
L 158.894307 35.125245 
L 159.218961 114.558689 
L 159.543616 69.091944 
L 159.868271 90.857164 
L 160.192925 102.795933 
L 160.51758 141.687936 
L 160.842234 121.020657 
L 161.166889 132.918944 
L 161.491543 70.040408 
L 161.816198 109.72012 
L 162.140852 78.116078 
L 162.790161 69.564549 
L 163.439471 99.725394 
L 163.764125 78.097465 
L 164.08878 66.974529 
L 164.413434 70.382475 
L 164.738089 70.082749 
L 165.062743 63.2461 
L 165.387398 28.710049 
L 165.712052 51.218698 
L 166.036707 141.216364 
L 166.361361 63.732971 
L 166.686016 78.591643 
L 167.010671 22.3524 
L 167.65998 120.172397 
L 167.984634 62.981532 
L 168.309289 96.386242 
L 168.633943 115.397477 
L 168.958598 65.425133 
L 169.283252 57.538265 
L 169.607907 57.778599 
L 169.932561 57.073768 
L 170.257216 30.013796 
L 170.581871 19.296 
L 170.906525 21.190828 
L 171.555834 152.685319 
L 171.880489 81.933264 
L 172.205143 146.274829 
L 172.529798 141.374509 
L 173.179107 74.581957 
L 173.503761 132.886807 
L 173.828416 134.347054 
L 174.153071 97.582834 
L 174.477725 84.730672 
L 174.80238 98.207545 
L 175.451689 72.679755 
L 175.776343 79.020388 
L 176.100998 108.172365 
L 176.425652 91.536223 
L 176.750307 95.892391 
L 177.074961 60.247556 
L 177.399616 56.00084 
L 177.724271 109.993659 
L 178.048925 95.072139 
L 178.37358 107.729772 
L 178.698234 78.392325 
L 179.022889 23.479681 
L 179.347543 63.286148 
L 179.672198 38.078133 
L 179.996852 82.548214 
L 180.321507 48.663745 
L 180.646161 50.761622 
L 180.970816 81.798779 
L 181.295471 56.866296 
L 181.620125 102.277154 
L 181.94478 84.825421 
L 182.269434 106.578003 
L 182.594089 70.836505 
L 182.918743 61.097744 
L 183.243398 90.411979 
L 183.568052 105.36714 
L 183.892707 86.793589 
L 184.217361 52.1794 
L 184.542016 87.806947 
L 184.866671 94.057445 
L 185.191325 78.046893 
L 185.51598 47.663933 
L 185.840634 86.910003 
L 186.165289 19.296 
L 186.489943 40.141901 
L 186.814598 31.747611 
L 187.463907 97.898435 
L 187.788561 63.110643 
L 188.113216 54.982576 
L 188.437871 64.778715 
L 188.762525 44.789087 
L 189.08718 90.59445 
L 189.411834 57.399799 
L 189.736489 62.483963 
L 190.061143 59.522641 
L 190.385798 42.122436 
L 190.710452 45.622803 
L 191.035107 41.324155 
L 191.359761 32.79057 
L 191.684416 28.290853 
L 192.009071 25.87245 
L 192.333725 28.401169 
L 192.65838 27.136866 
L 192.983034 60.346057 
L 193.307689 45.074558 
L 193.632343 66.324249 
L 194.281652 43.0572 
L 194.930961 73.598772 
L 195.255616 73.552411 
L 195.580271 83.634594 
L 195.904925 43.556634 
L 196.22958 51.842501 
L 196.554234 101.582719 
L 196.878889 104.634942 
L 197.203543 86.297527 
L 197.528198 58.864445 
L 197.852852 136.627816 
L 198.177507 72.986787 
L 198.502161 116.865231 
L 198.826816 105.835337 
L 199.476125 35.387106 
L 199.80078 37.267394 
L 200.125434 81.489279 
L 200.450089 62.973475 
L 200.774743 70.334014 
L 201.099398 74.139887 
L 201.424052 97.618853 
L 201.748707 75.07462 
L 202.073361 105.142001 
L 202.398016 101.165198 
L 202.722671 88.335247 
L 203.047325 84.447683 
L 203.696634 19.296 
L 204.021289 72.12653 
L 204.345943 89.299597 
L 204.670598 66.356216 
L 204.995252 30.580814 
L 205.319907 28.498023 
L 205.644561 40.028324 
L 205.969216 85.360694 
L 206.293871 92.095606 
L 206.618525 95.323234 
L 206.94318 129.637594 
L 207.267834 101.071064 
L 207.592489 98.953003 
L 208.241798 108.645893 
L 208.566452 100.343046 
L 208.891107 87.792268 
L 209.215761 43.231752 
L 209.540416 96.998641 
L 209.865071 103.392952 
L 210.189725 89.75469 
L 210.51438 86.384033 
L 210.839034 94.484124 
L 211.163689 93.970728 
L 211.488343 104.307245 
L 211.812998 83.495217 
L 212.137652 111.659421 
L 212.462307 84.680547 
L 212.786961 84.138831 
L 213.111616 77.705729 
L 213.436271 76.363061 
L 213.760925 136.235971 
L 214.08558 109.146077 
L 214.410234 67.368113 
L 214.734889 73.293611 
L 215.059543 29.500035 
L 215.384198 56.24525 
L 215.708852 47.865117 
L 216.033507 52.304877 
L 216.358161 74.972155 
L 216.682816 70.933113 
L 217.332125 84.75905 
L 217.65678 110.906305 
L 217.981434 110.857649 
L 218.306089 85.217028 
L 218.630743 25.272879 
L 218.955398 39.16307 
L 219.280052 92.114466 
L 219.604707 24.105658 
L 219.929361 88.986326 
L 220.254016 31.800501 
L 220.578671 19.296 
L 220.903325 74.268376 
L 221.22798 56.637946 
L 221.552634 59.135753 
L 221.877289 42.549315 
L 222.201943 19.296 
L 222.526598 19.296 
L 222.851252 38.9274 
L 223.175907 81.565155 
L 223.825216 41.529041 
L 224.149871 71.405242 
L 224.474525 58.830307 
L 224.79918 76.530877 
L 225.123834 82.866347 
L 225.448489 86.117032 
L 225.773143 86.885844 
L 226.097798 86.879798 
L 226.422452 41.592643 
L 226.747107 105.508474 
L 227.071761 145.338499 
L 227.396416 115.707887 
L 228.045725 84.858358 
L 228.37038 117.009583 
L 228.695034 82.480488 
L 229.019689 99.912553 
L 229.344343 30.997004 
L 229.993652 42.03973 
L 230.318307 71.275044 
L 230.642961 32.408407 
L 230.967616 36.618626 
L 231.292271 50.112501 
L 231.616925 22.537365 
L 232.266234 50.478304 
L 232.915543 40.194396 
L 233.240198 26.929132 
L 233.564852 40.896999 
L 233.889507 26.382071 
L 234.214161 41.602296 
L 234.538816 50.773334 
L 234.863471 87.556486 
L 235.188125 37.410301 
L 235.51278 92.242847 
L 235.837434 113.653335 
L 236.486743 76.618138 
L 236.811398 66.323418 
L 237.136052 95.820179 
L 237.460707 100.919004 
L 237.785361 55.010535 
L 238.110016 42.053835 
L 238.434671 50.669491 
L 238.759325 42.080345 
L 239.08398 72.263513 
L 239.408634 85.506227 
L 239.733289 71.128185 
L 240.057943 66.495551 
L 240.382598 67.259894 
L 240.707252 80.185991 
L 241.031907 66.459006 
L 241.356561 65.115916 
L 241.681216 40.581415 
L 242.005871 32.944408 
L 242.330525 42.903555 
L 242.65518 68.913618 
L 242.979834 38.829765 
L 243.304489 52.344039 
L 243.629143 44.094304 
L 243.953798 45.357058 
L 244.278452 62.367474 
L 244.603107 60.970688 
L 245.252416 44.838694 
L 245.577071 48.397817 
L 245.901725 100.808658 
L 246.22638 98.77118 
L 246.551034 88.451416 
L 246.875689 88.192346 
L 247.200343 57.45698 
L 247.524998 53.016013 
L 247.849652 75.917367 
L 248.174307 65.065043 
L 248.498961 68.343031 
L 248.823616 64.079934 
L 249.148271 52.471412 
L 249.472925 48.573445 
L 249.79758 51.736622 
L 250.122234 64.685981 
L 250.446889 56.901699 
L 250.771543 20.382357 
L 251.096198 29.418355 
L 251.420852 70.736829 
L 251.745507 66.272354 
L 252.070161 55.413269 
L 252.394816 50.958256 
L 252.719471 20.926429 
L 253.044125 72.019137 
L 253.36878 25.846146 
L 253.693434 48.992865 
L 254.018089 33.362482 
L 254.342743 40.025239 
L 254.667398 51.402638 
L 254.992052 57.451455 
L 255.316707 61.121355 
L 255.641361 55.512743 
L 255.966016 59.212191 
L 256.290671 66.57372 
L 256.615325 65.593059 
L 256.93998 54.87378 
L 257.264634 29.027281 
L 257.589289 20.799915 
L 257.913943 19.296 
L 258.238598 29.992589 
L 258.563252 79.091404 
L 258.887907 76.813953 
L 259.212561 34.251452 
L 259.537216 52.856511 
L 259.861871 89.559361 
L 260.186525 81.907839 
L 260.51118 60.315622 
L 260.835834 46.883157 
L 261.485143 52.888885 
L 261.809798 53.169086 
L 262.134452 63.721182 
L 263.108416 19.296 
L 263.433071 19.296 
L 263.757725 24.161155 
L 264.08238 54.412927 
L 264.407034 19.967086 
L 264.731689 19.296 
L 265.056343 38.261955 
L 265.380998 35.268778 
L 265.705652 60.343146 
L 266.030307 29.479703 
L 266.354961 19.296 
L 266.679616 86.845648 
L 267.004271 83.108173 
L 267.328925 28.60113 
L 267.65358 19.365801 
L 267.978234 40.891633 
L 268.302889 45.846418 
L 268.627543 34.590675 
L 269.276852 149.317843 
L 269.601507 119.534632 
L 269.926161 73.498944 
L 270.250816 61.967698 
L 270.575471 84.566363 
L 270.900125 77.437891 
L 271.22478 86.276034 
L 271.549434 56.459495 
L 271.874089 62.830182 
L 272.198743 33.775528 
L 272.523398 20.124533 
L 272.848052 52.319919 
L 273.172707 46.417355 
L 273.497361 33.806475 
L 274.146671 57.63313 
L 274.471325 24.927297 
L 274.79598 75.856015 
L 275.120634 46.95012 
L 275.445289 49.686366 
L 275.769943 57.793238 
L 276.094598 33.892493 
L 276.419252 21.884574 
L 276.743907 27.993976 
L 277.068561 62.814168 
L 277.393216 57.550795 
L 277.717871 44.486317 
L 278.042525 24.164491 
L 278.36718 37.703383 
L 278.691834 32.993299 
L 279.016489 62.494064 
L 279.341143 65.281758 
L 279.665798 42.82007 
L 279.990452 79.931979 
L 280.315107 73.921852 
L 280.639761 104.696315 
L 281.289071 32.852325 
L 281.613725 19.296 
L 281.93838 49.705109 
L 282.263034 44.994524 
L 282.587689 36.519129 
L 282.912343 38.330218 
L 283.236998 30.890702 
L 283.561652 36.087428 
L 283.886307 102.372867 
L 284.535616 49.822441 
L 284.860271 66.746223 
L 285.184925 68.011632 
L 285.834234 76.411261 
L 286.158889 49.869152 
L 286.483543 44.393666 
L 286.808198 80.344811 
L 287.132852 82.084327 
L 287.457507 90.353108 
L 287.782161 82.837758 
L 288.106816 42.658338 
L 288.431471 94.694292 
L 288.756125 79.250774 
L 289.08078 34.772665 
L 289.405434 69.141678 
L 289.730089 21.399465 
L 290.054743 36.313547 
L 290.379398 43.667108 
L 290.704052 74.918799 
L 291.028707 55.823883 
L 291.353361 86.625295 
L 291.678016 82.191041 
L 292.002671 94.012011 
L 292.327325 66.170739 
L 292.65198 90.187873 
L 292.976634 71.098472 
L 293.301289 108.571302 
L 293.625943 98.897635 
L 294.275252 113.593618 
L 294.599907 71.931815 
L 294.924561 64.190166 
L 295.249216 130.48346 
L 295.573871 41.113751 
L 295.898525 64.213545 
L 296.22318 19.296 
L 296.872489 58.403912 
L 297.197143 118.378642 
L 297.846452 39.25986 
L 298.171107 46.598734 
L 298.495761 80.519829 
L 298.820416 40.113903 
L 299.145071 68.281971 
L 299.469725 19.296 
L 299.79438 63.166157 
L 300.119034 127.989273 
L 300.443689 55.743944 
L 300.768343 36.633624 
L 301.092998 35.889262 
L 301.742307 82.290208 
L 302.066961 52.457721 
L 302.391616 59.976223 
L 302.716271 56.662948 
L 303.040925 68.963524 
L 303.36558 63.112148 
L 303.690234 94.597092 
L 304.014889 82.199511 
L 304.339543 75.27006 
L 304.664198 98.545194 
L 304.988852 112.538062 
L 305.313507 86.383751 
L 305.638161 130.714427 
L 305.962816 116.642188 
L 306.612125 19.296 
L 306.93678 99.34115 
L 307.261434 52.899083 
L 307.586089 67.669007 
L 307.910743 67.245834 
L 308.235398 68.244027 
L 308.560052 93.792106 
L 308.884707 66.346692 
L 309.209361 66.834696 
L 309.534016 66.379621 
L 309.858671 68.458638 
L 310.183325 93.085558 
L 310.50798 103.824784 
L 310.832634 62.218417 
L 311.481943 70.676881 
L 311.806598 102.640951 
L 312.131252 102.890818 
L 312.455907 111.564193 
L 312.780561 86.070196 
L 313.105216 129.422316 
L 313.429871 80.285021 
L 313.754525 79.724331 
L 314.07918 113.615263 
L 314.403834 106.928608 
L 314.728489 164.88476 
L 315.053143 101.14116 
L 315.377798 90.969945 
L 315.702452 104.212644 
L 316.027107 95.364462 
L 316.351761 61.430808 
L 316.676416 95.758321 
L 317.001071 78.263302 
L 317.325725 91.341695 
L 317.65038 90.126865 
L 317.975034 95.192326 
L 318.299689 105.393388 
L 318.624343 94.781836 
L 318.948998 91.79553 
L 319.273652 37.698756 
L 319.598307 92.898837 
L 319.922961 63.610634 
L 320.247616 81.058856 
L 320.572271 76.534544 
L 321.22158 57.424372 
L 321.546234 93.475215 
L 321.870889 73.08106 
L 322.195543 91.388731 
L 322.844852 55.639705 
L 323.169507 105.820858 
L 323.494161 106.574675 
L 323.818816 69.316054 
L 324.143471 106.110158 
L 324.468125 106.426694 
L 324.79278 113.48323 
L 325.117434 102.45887 
L 325.442089 67.139106 
L 325.766743 103.429776 
L 326.091398 109.956358 
L 326.416052 69.958653 
L 326.740707 80.639613 
L 327.065361 19.296 
L 327.390016 33.709516 
L 327.714671 40.955871 
L 328.039325 24.290023 
L 328.688634 108.99738 
L 329.013289 111.542152 
L 329.662598 53.619674 
L 329.987252 105.468684 
L 330.311907 113.566324 
L 330.636561 102.39751 
L 330.961216 80.627332 
L 331.285871 88.20028 
L 331.610525 24.257791 
L 331.93518 90.199831 
L 332.259834 102.617002 
L 332.584489 60.416624 
L 332.909143 114.606008 
L 333.233798 87.562678 
L 333.558452 78.944832 
L 333.883107 77.826962 
L 334.207761 107.503158 
L 334.857071 141.764651 
L 335.181725 169.196404 
L 335.50638 112.471639 
L 335.831034 107.712729 
L 336.155689 132.725579 
L 336.480343 141.06323 
L 336.804998 117.2287 
L 337.129652 62.108242 
L 337.454307 25.958843 
L 337.778961 108.201843 
L 338.103616 87.305471 
L 338.428271 31.255794 
L 338.752925 51.012411 
L 339.07758 127.330287 
L 339.402234 85.910011 
L 340.051543 160.629653 
L 340.376198 160.890112 
L 340.700852 141.374344 
L 341.025507 84.452687 
L 341.350161 184.960563 
L 341.674816 105.420333 
L 341.999471 66.396449 
L 342.324125 56.399067 
L 342.64878 80.680705 
L 342.973434 94.115799 
L 343.298089 57.90708 
L 343.622743 81.851246 
L 343.947398 35.968406 
L 344.272052 119.26811 
L 344.596707 97.82443 
L 345.246016 127.835827 
L 345.570671 112.344322 
L 345.895325 110.474155 
L 346.21998 126.430574 
L 346.544634 103.958532 
L 346.869289 130.323242 
L 347.193943 134.560251 
L 347.843252 104.553586 
L 348.167907 127.236412 
L 348.492561 115.045552 
L 348.817216 53.068235 
L 349.141871 125.014144 
L 349.466525 139.192338 
L 349.79118 107.155725 
L 350.440489 104.63871 
L 350.765143 68.032348 
L 351.089798 48.576281 
L 351.414452 88.754538 
L 351.739107 73.643549 
L 352.063761 115.638134 
L 352.388416 123.972207 
L 352.713071 19.431161 
L 353.36238 94.482728 
L 353.687034 76.95707 
L 354.011689 132.2316 
L 354.660998 44.184361 
L 355.310307 98.973641 
L 355.634961 61.812651 
L 355.959616 113.230678 
L 356.608925 86.125905 
L 356.93358 84.088912 
L 357.258234 87.943724 
L 357.582889 44.276512 
L 357.907543 107.760884 
L 358.232198 115.418616 
L 358.556852 129.00913 
L 358.881507 151.963371 
L 359.206161 145.783133 
L 359.530816 104.371701 
L 359.855471 92.540208 
L 360.180125 105.229468 
L 360.829434 19.296 
L 361.154089 43.522022 
L 361.478743 41.636042 
L 361.803398 55.00335 
L 362.452707 105.029293 
L 362.777361 87.223932 
L 363.102016 119.41151 
L 363.426671 76.435308 
L 363.751325 77.686983 
L 364.07598 47.779943 
L 364.400634 129.484097 
L 364.725289 108.185434 
L 365.049943 108.645329 
L 365.049943 108.645329 
" clip-path="url(#p988cb304c7)" style="fill: none; stroke: #3a4cc0; stroke-width: 1.5; stroke-linecap: square"/>
   </g>
   <g id="patch_3">
    <path d="M 24.162671 273.312 
L 24.162671 7.2 
" style="fill: none; stroke: #000000; stroke-width: 0.8; stroke-linejoin: miter; stroke-linecap: square"/>
   </g>
   <g id="patch_4">
    <path d="M 381.282671 273.312 
L 381.282671 7.2 
" style="fill: none; stroke: #000000; stroke-width: 0.8; stroke-linejoin: miter; stroke-linecap: square"/>
   </g>
   <g id="patch_5">
    <path d="M 24.162671 273.312 
L 381.282671 273.312 
" style="fill: none; stroke: #000000; stroke-width: 0.8; stroke-linejoin: miter; stroke-linecap: square"/>
   </g>
   <g id="patch_6">
    <path d="M 24.162671 7.2 
L 381.282671 7.2 
" style="fill: none; stroke: #000000; stroke-width: 0.8; stroke-linejoin: miter; stroke-linecap: square"/>
   </g>
   <g id="legend_1">
    <g id="patch_7">
     <path d="M 31.162671 268.312 
L 108.271421 268.312 
Q 110.271421 268.312 110.271421 266.312 
L 110.271421 225.500465 
Q 110.271421 223.500465 108.271421 223.500465 
L 31.162671 223.500465 
Q 29.162671 223.500465 29.162671 225.500465 
L 29.162671 266.312 
Q 29.162671 268.312 31.162671 268.312 
z
" style="fill: #ffffff; opacity: 0.8; stroke: #cccccc; stroke-linejoin: miter"/>
    </g>
    <g id="line2d_15">
     <path d="M 33.162671 231.000465 
L 43.162671 231.000465 
L 53.162671 231.000465 
" style="fill: none; stroke: #e46e56; stroke-width: 1.5; stroke-linecap: square"/>
    </g>
    <g id="text_12">
     <!-- CBO -->
     <g transform="translate(61.162671 234.500465) scale(0.1 -0.1)">
      <defs>
       <path id="CMSS17-43" d="M 3501 714 
C 3072 427 2874 344 2355 344 
C 1459 344 934 1303 934 2179 
C 934 3112 1472 4032 2381 4032 
C 2790 4032 3059 3918 3386 3715 
L 3475 4217 
C 3168 4370 2778 4440 2387 4440 
C 1158 4440 397 3316 397 2179 
C 397 927 1299 -64 2323 -64 
C 2874 -64 3066 -19 3539 280 
L 3501 714 
z
" transform="scale(0.015625)"/>
       <path id="CMSS17-42" d="M 570 4416 
L 570 0 
L 2163 0 
C 3034 0 3667 574 3667 1200 
C 3667 1685 3251 2176 2502 2317 
C 3334 2558 3501 3040 3501 3313 
C 3501 3883 2874 4416 1997 4416 
L 570 4416 
z
M 1088 2496 
L 1088 4059 
L 1824 4059 
C 2483 4059 3002 3724 3002 3306 
C 3002 2926 2592 2496 1766 2496 
L 1088 2496 
z
M 1088 357 
L 1088 2107 
L 1939 2107 
C 2630 2107 3162 1679 3162 1206 
C 3162 772 2694 357 1984 357 
L 1088 357 
z
" transform="scale(0.015625)"/>
       <path id="CMSS17-4f" d="M 4096 2178 
C 4096 3503 3219 4497 2214 4497 
C 1210 4497 333 3497 333 2178 
C 333 847 1222 -128 2214 -128 
C 3206 -128 4096 847 4096 2178 
z
M 2214 273 
C 1510 273 870 1057 870 2261 
C 870 3433 1549 4096 2214 4096 
C 2880 4096 3558 3433 3558 2261 
C 3558 1051 2912 273 2214 273 
z
" transform="scale(0.015625)"/>
      </defs>
      <use xlink:href="#CMSS17-43" transform="scale(0.996264)"/>
      <use xlink:href="#CMSS17-42" transform="translate(59.855772 0) scale(0.996264)"/>
      <use xlink:href="#CMSS17-4f" transform="translate(122.193812 0) scale(0.996264)"/>
     </g>
    </g>
    <g id="line2d_16">
     <path d="M 33.162671 244.937643 
L 43.162671 244.937643 
L 53.162671 244.937643 
" style="fill: none; stroke: #d1dae9; stroke-width: 1.5; stroke-linecap: square"/>
    </g>
    <g id="text_13">
     <!-- SMD-CBO -->
     <g transform="translate(61.162671 248.437643) scale(0.1 -0.1)">
      <defs>
       <path id="CMSS17-53" d="M 2797 4169 
C 2515 4334 2208 4480 1690 4480 
C 864 4480 333 3879 333 3266 
C 333 3025 403 2753 653 2475 
C 902 2196 1184 2121 1542 2033 
C 1690 1994 1939 1924 1984 1906 
C 2342 1767 2515 1444 2515 1140 
C 2515 742 2202 318 1645 318 
C 1453 318 890 318 358 819 
L 269 318 
C 794 -64 1363 -128 1651 -128 
C 2438 -128 3002 488 3002 1186 
C 3002 1440 2925 1763 2656 2061 
C 2394 2347 2163 2410 1638 2549 
C 1338 2626 1146 2677 986 2873 
C 877 3013 819 3146 819 3317 
C 819 3673 1126 4060 1690 4060 
C 1971 4060 2336 4002 2707 3660 
L 2797 4169 
z
" transform="scale(0.015625)"/>
       <path id="CMSS17-4d" d="M 3194 2371 
L 2886 1473 
C 2835 1307 2662 791 2624 587 
L 2618 587 
C 2598 715 2560 849 2458 1174 
C 2400 1365 2336 1562 2272 1741 
L 1325 4416 
L 576 4416 
L 576 0 
L 1075 0 
L 1075 3900 
L 1082 3900 
C 1082 3894 1139 3613 1530 2499 
L 2374 96 
L 2848 96 
L 3610 2231 
C 3661 2378 3821 2843 3891 3066 
C 3955 3257 4115 3728 4154 3913 
L 4160 3913 
L 4160 0 
L 4666 0 
L 4666 4416 
L 3923 4416 
L 3194 2371 
z
" transform="scale(0.015625)"/>
       <path id="CMSS17-44" d="M 570 4416 
L 570 0 
L 2144 0 
C 3194 0 4000 980 4000 2170 
C 4000 3398 3194 4416 2144 4416 
L 570 4416 
z
M 1094 357 
L 1094 4059 
L 2003 4059 
C 2861 4059 3475 3277 3475 2170 
C 3475 1107 2867 357 2003 357 
L 1094 357 
z
" transform="scale(0.015625)"/>
       <path id="CMSS17-2d" d="M 1664 1216 
L 1664 1585 
L 64 1585 
L 64 1216 
L 1664 1216 
z
" transform="scale(0.015625)"/>
      </defs>
      <use xlink:href="#CMSS17-53" transform="scale(0.996264)"/>
      <use xlink:href="#CMSS17-4d" transform="translate(52.048516 0) scale(0.996264)"/>
      <use xlink:href="#CMSS17-44" transform="translate(133.724546 0) scale(0.996264)"/>
      <use xlink:href="#CMSS17-2d" transform="translate(201.267388 0) scale(0.996264)"/>
      <use xlink:href="#CMSS17-43" transform="translate(232.496501 0) scale(0.996264)"/>
      <use xlink:href="#CMSS17-42" transform="translate(292.352272 0) scale(0.996264)"/>
      <use xlink:href="#CMSS17-4f" transform="translate(354.690312 0) scale(0.996264)"/>
     </g>
    </g>
    <g id="line2d_17">
     <path d="M 33.162671 258.874822 
L 43.162671 258.874822 
L 53.162671 258.874822 
" style="fill: none; stroke: #3a4cc0; stroke-width: 1.5; stroke-linecap: square"/>
    </g>
    <g id="text_14">
     <!-- GCN-CBO -->
     <g transform="translate(61.162671 262.374822) scale(0.1 -0.1)">
      <defs>
       <path id="CMSS17-47" d="M 3610 1856 
L 2336 1856 
L 2336 1461 
L 3123 1461 
L 3123 471 
C 2874 401 2618 350 2362 350 
C 1466 350 934 1301 934 2200 
C 934 3095 1491 4032 2362 4032 
C 2854 4032 3130 3881 3469 3627 
L 3552 4134 
C 3130 4351 2867 4440 2387 4440 
C 1146 4440 397 3324 397 2182 
C 397 1090 1152 -64 2349 -64 
C 2797 -64 3213 51 3610 248 
L 3610 1856 
z
" transform="scale(0.015625)"/>
       <path id="CMSS17-4e" d="M 1466 4180 
L 1350 4416 
L 563 4416 
L 563 0 
L 1062 0 
L 1062 3926 
L 1069 3932 
C 1114 3817 1139 3760 1402 3194 
L 2771 236 
L 2886 0 
L 3674 0 
L 3674 4416 
L 3174 4416 
L 3174 490 
L 3168 483 
C 3123 598 3098 655 2835 1221 
L 1466 4180 
z
" transform="scale(0.015625)"/>
      </defs>
      <use xlink:href="#CMSS17-47" transform="scale(0.996264)"/>
      <use xlink:href="#CMSS17-43" transform="translate(62.458226 0) scale(0.996264)"/>
      <use xlink:href="#CMSS17-4e" transform="translate(122.313997 0) scale(0.996264)"/>
      <use xlink:href="#CMSS17-2d" transform="translate(188.375516 0) scale(0.996264)"/>
      <use xlink:href="#CMSS17-43" transform="translate(219.604629 0) scale(0.996264)"/>
      <use xlink:href="#CMSS17-42" transform="translate(279.460401 0) scale(0.996264)"/>
      <use xlink:href="#CMSS17-4f" transform="translate(341.798441 0) scale(0.996264)"/>
     </g>
    </g>
   </g>
  </g>
 </g>
 <defs>
  <clipPath id="p988cb304c7">
   <rect x="24.162671" y="7.2" width="357.12" height="266.112"/>
  </clipPath>
 </defs>
</svg>
