<?xml version="1.0" encoding="utf-8" standalone="no"?>
<!DOCTYPE svg PUBLIC "-//W3C//DTD SVG 1.1//EN"
  "http://www.w3.org/Graphics/SVG/1.1/DTD/svg11.dtd">
<svg xmlns:xlink="http://www.w3.org/1999/xlink" width="388.482671pt" height="296.367677pt" viewBox="0 0 388.482671 296.367677" xmlns="http://www.w3.org/2000/svg" version="1.1">
 <metadata>
  <rdf:RDF xmlns:dc="http://purl.org/dc/elements/1.1/" xmlns:cc="http://creativecommons.org/ns#" xmlns:rdf="http://www.w3.org/1999/02/22-rdf-syntax-ns#">
   <cc:Work>
    <dc:type rdf:resource="http://purl.org/dc/dcmitype/StillImage"/>
    <dc:date>2026-03-25T20:38:50.705792</dc:date>
    <dc:format>image/svg+xml</dc:format>
    <dc:creator>
     <cc:Agent>
      <dc:title>Matplotlib v3.10.8, https://matplotlib.org/</dc:title>
     </cc:Agent>
    </dc:creator>
   </cc:Work>
  </rdf:RDF>
 </metadata>
 <defs>
  <style type="text/css">*{stroke-linejoin: round; stroke-linecap: butt}</style>
 </defs>
 <g id="figure_1">
  <g id="patch_1">
   <path d="M 0 296.367677 
L 388.482671 296.367677 
L 388.482671 0 
L 0 0 
z
" style="fill: #ffffff"/>
  </g>
  <g id="axes_1">
   <g id="patch_2">
    <path d="M 24.162671 273.312 
L 381.282671 273.312 
L 381.282671 7.2 
L 24.162671 7.2 
z
" style="fill: #ffffff"/>
   </g>
   <g id="matplotlib.axis_1">
    <g id="xtick_1">
     <g id="line2d_1">
      <defs>
       <path id="m156a33a2df" d="M 0 0 
L 0 3.5 
" style="stroke: #000000; stroke-width: 0.8"/>
      </defs>
      <g>
       <use xlink:href="#m156a33a2df" x="40.395398" y="273.312" style="stroke: #000000; stroke-width: 0.8"/>
      </g>
     </g>
     <g id="text_1">
      <!-- $\mathdefault{0}$ -->
      <g transform="translate(37.90473 287.230498) scale(0.1 -0.1)">
       <defs>
        <path id="CMR17-30" d="M 2688 2025 
C 2688 2416 2682 3080 2413 3591 
C 2176 4039 1798 4198 1466 4198 
C 1158 4198 768 4058 525 3597 
C 269 3118 243 2524 243 2025 
C 243 1661 250 1106 448 619 
C 723 -39 1216 -128 1466 -128 
C 1760 -128 2208 -7 2470 600 
C 2662 1042 2688 1559 2688 2025 
z
M 1466 -26 
C 1056 -26 813 325 723 812 
C 653 1188 653 1738 653 2096 
C 653 2588 653 2997 736 3387 
C 858 3929 1216 4096 1466 4096 
C 1728 4096 2067 3923 2189 3400 
C 2272 3036 2278 2607 2278 2096 
C 2278 1680 2278 1169 2202 792 
C 2067 95 1690 -26 1466 -26 
z
" transform="scale(0.015625)"/>
       </defs>
       <use xlink:href="#CMR17-30" transform="scale(0.996264)"/>
      </g>
     </g>
    </g>
    <g id="xtick_2">
     <g id="line2d_2">
      <g>
       <use xlink:href="#m156a33a2df" x="105.326307" y="273.312" style="stroke: #000000; stroke-width: 0.8"/>
      </g>
     </g>
     <g id="text_2">
      <!-- $\mathdefault{200}$ -->
      <g transform="translate(97.854304 287.230498) scale(0.1 -0.1)">
       <defs>
        <path id="CMR17-32" d="M 2669 989 
L 2554 989 
C 2490 536 2438 459 2413 420 
C 2381 369 1920 369 1830 369 
L 602 369 
C 832 619 1280 1072 1824 1597 
C 2214 1967 2669 2402 2669 3035 
C 2669 3790 2067 4224 1395 4224 
C 691 4224 262 3604 262 3030 
C 262 2780 448 2748 525 2748 
C 589 2748 781 2787 781 3010 
C 781 3207 614 3264 525 3264 
C 486 3264 448 3258 422 3245 
C 544 3790 915 4058 1306 4058 
C 1862 4058 2227 3617 2227 3035 
C 2227 2479 1901 2000 1536 1584 
L 262 146 
L 262 0 
L 2515 0 
L 2669 989 
z
" transform="scale(0.015625)"/>
       </defs>
       <use xlink:href="#CMR17-32" transform="scale(0.996264)"/>
       <use xlink:href="#CMR17-30" transform="translate(45.690477 0) scale(0.996264)"/>
       <use xlink:href="#CMR17-30" transform="translate(91.380954 0) scale(0.996264)"/>
      </g>
     </g>
    </g>
    <g id="xtick_3">
     <g id="line2d_3">
      <g>
       <use xlink:href="#m156a33a2df" x="170.257216" y="273.312" style="stroke: #000000; stroke-width: 0.8"/>
      </g>
     </g>
     <g id="text_3">
      <!-- $\mathdefault{400}$ -->
      <g transform="translate(162.785213 287.230498) scale(0.1 -0.1)">
       <defs>
        <path id="CMR17-34" d="M 2150 4122 
C 2150 4256 2144 4256 2029 4256 
L 128 1254 
L 128 1088 
L 1779 1088 
L 1779 457 
C 1779 224 1766 160 1318 160 
L 1197 160 
L 1197 0 
C 1402 0 1747 0 1965 0 
C 2182 0 2528 0 2733 0 
L 2733 160 
L 2611 160 
C 2163 160 2150 224 2150 457 
L 2150 1088 
L 2803 1088 
L 2803 1254 
L 2150 1254 
L 2150 4122 
z
M 1798 3703 
L 1798 1254 
L 256 1254 
L 1798 3703 
z
" transform="scale(0.015625)"/>
       </defs>
       <use xlink:href="#CMR17-34" transform="scale(0.996264)"/>
       <use xlink:href="#CMR17-30" transform="translate(45.690477 0) scale(0.996264)"/>
       <use xlink:href="#CMR17-30" transform="translate(91.380954 0) scale(0.996264)"/>
      </g>
     </g>
    </g>
    <g id="xtick_4">
     <g id="line2d_4">
      <g>
       <use xlink:href="#m156a33a2df" x="235.188125" y="273.312" style="stroke: #000000; stroke-width: 0.8"/>
      </g>
     </g>
     <g id="text_4">
      <!-- $\mathdefault{600}$ -->
      <g transform="translate(227.716122 287.230498) scale(0.1 -0.1)">
       <defs>
        <path id="CMR17-36" d="M 678 2176 
C 678 3690 1395 4032 1811 4032 
C 1946 4032 2272 4009 2400 3776 
C 2298 3776 2106 3776 2106 3553 
C 2106 3381 2246 3323 2336 3323 
C 2394 3323 2566 3348 2566 3560 
C 2566 3954 2246 4179 1805 4179 
C 1043 4179 243 3390 243 1984 
C 243 253 966 -128 1478 -128 
C 2099 -128 2688 427 2688 1283 
C 2688 2081 2170 2662 1517 2662 
C 1126 2662 838 2407 678 1960 
L 678 2176 
z
M 1478 25 
C 691 25 691 1200 691 1436 
C 691 1896 909 2560 1504 2560 
C 1613 2560 1926 2560 2138 2120 
C 2253 1870 2253 1609 2253 1289 
C 2253 944 2253 690 2118 434 
C 1978 171 1773 25 1478 25 
z
" transform="scale(0.015625)"/>
       </defs>
       <use xlink:href="#CMR17-36" transform="scale(0.996264)"/>
       <use xlink:href="#CMR17-30" transform="translate(45.690477 0) scale(0.996264)"/>
       <use xlink:href="#CMR17-30" transform="translate(91.380954 0) scale(0.996264)"/>
      </g>
     </g>
    </g>
    <g id="xtick_5">
     <g id="line2d_5">
      <g>
       <use xlink:href="#m156a33a2df" x="300.119034" y="273.312" style="stroke: #000000; stroke-width: 0.8"/>
      </g>
     </g>
     <g id="text_5">
      <!-- $\mathdefault{800}$ -->
      <g transform="translate(292.647031 287.230498) scale(0.1 -0.1)">
       <defs>
        <path id="CMR17-38" d="M 1741 2264 
C 2144 2467 2554 2773 2554 3263 
C 2554 3841 1990 4179 1472 4179 
C 890 4179 378 3759 378 3180 
C 378 3021 416 2747 666 2505 
C 730 2442 998 2251 1171 2130 
C 883 1983 211 1634 211 934 
C 211 279 838 -128 1459 -128 
C 2144 -128 2720 362 2720 1010 
C 2720 1590 2330 1857 2074 2029 
L 1741 2264 
z
M 902 2822 
C 851 2854 595 3051 595 3351 
C 595 3739 998 4032 1459 4032 
C 1965 4032 2336 3676 2336 3262 
C 2336 2669 1670 2331 1638 2331 
C 1632 2331 1626 2331 1574 2370 
L 902 2822 
z
M 2080 1519 
C 2176 1449 2483 1240 2483 851 
C 2483 381 2010 25 1472 25 
C 890 25 448 438 448 940 
C 448 1443 838 1862 1280 2060 
L 2080 1519 
z
" transform="scale(0.015625)"/>
       </defs>
       <use xlink:href="#CMR17-38" transform="scale(0.996264)"/>
       <use xlink:href="#CMR17-30" transform="translate(45.690477 0) scale(0.996264)"/>
       <use xlink:href="#CMR17-30" transform="translate(91.380954 0) scale(0.996264)"/>
      </g>
     </g>
    </g>
    <g id="xtick_6">
     <g id="line2d_6">
      <g>
       <use xlink:href="#m156a33a2df" x="365.049943" y="273.312" style="stroke: #000000; stroke-width: 0.8"/>
      </g>
     </g>
     <g id="text_6">
      <!-- $\mathdefault{1000}$ -->
      <g transform="translate(355.087273 287.230498) scale(0.1 -0.1)">
       <defs>
        <path id="CMR17-31" d="M 1702 4058 
C 1702 4192 1696 4192 1606 4192 
C 1357 3916 979 3827 621 3827 
C 602 3827 570 3827 563 3808 
C 557 3795 557 3782 557 3648 
C 755 3648 1088 3686 1344 3839 
L 1344 461 
C 1344 236 1331 160 781 160 
L 589 160 
L 589 0 
C 896 0 1216 0 1523 0 
C 1830 0 2150 0 2458 0 
L 2458 160 
L 2266 160 
C 1715 160 1702 230 1702 458 
L 1702 4058 
z
" transform="scale(0.015625)"/>
       </defs>
       <use xlink:href="#CMR17-31" transform="scale(0.996264)"/>
       <use xlink:href="#CMR17-30" transform="translate(45.690477 0) scale(0.996264)"/>
       <use xlink:href="#CMR17-30" transform="translate(91.380954 0) scale(0.996264)"/>
       <use xlink:href="#CMR17-30" transform="translate(137.071431 0) scale(0.996264)"/>
      </g>
     </g>
    </g>
   </g>
   <g id="matplotlib.axis_2">
    <g id="ytick_1">
     <g id="line2d_7">
      <defs>
       <path id="mbeab63779f" d="M 0 0 
L -3.5 0 
" style="stroke: #000000; stroke-width: 0.8"/>
      </defs>
      <g>
       <use xlink:href="#mbeab63779f" x="24.162671" y="272.333032" style="stroke: #000000; stroke-width: 0.8"/>
      </g>
     </g>
     <g id="text_7">
      <!-- $\mathdefault{24}$ -->
      <g transform="translate(7.2 275.792281) scale(0.1 -0.1)">
       <use xlink:href="#CMR17-32" transform="scale(0.996264)"/>
       <use xlink:href="#CMR17-34" transform="translate(45.690477 0) scale(0.996264)"/>
      </g>
     </g>
    </g>
    <g id="ytick_2">
     <g id="line2d_8">
      <g>
       <use xlink:href="#mbeab63779f" x="24.162671" y="213.271171" style="stroke: #000000; stroke-width: 0.8"/>
      </g>
     </g>
     <g id="text_8">
      <!-- $\mathdefault{25}$ -->
      <g transform="translate(7.2 216.730421) scale(0.1 -0.1)">
       <defs>
        <path id="CMR17-35" d="M 730 3692 
C 794 3666 1056 3584 1325 3584 
C 1920 3584 2246 3911 2432 4100 
C 2432 4157 2432 4192 2394 4192 
C 2387 4192 2374 4192 2323 4163 
C 2099 4058 1837 3973 1517 3973 
C 1325 3973 1037 3999 723 4139 
C 653 4171 640 4171 634 4171 
C 602 4171 595 4164 595 4037 
L 595 2203 
C 595 2089 595 2057 659 2057 
C 691 2057 704 2070 736 2114 
C 941 2401 1222 2522 1542 2522 
C 1766 2522 2246 2382 2246 1289 
C 2246 1085 2246 715 2054 421 
C 1894 159 1645 25 1370 25 
C 947 25 518 320 403 814 
C 429 807 480 795 506 795 
C 589 795 749 840 749 1038 
C 749 1210 627 1280 506 1280 
C 358 1280 262 1190 262 1011 
C 262 454 704 -128 1382 -128 
C 2042 -128 2669 440 2669 1264 
C 2669 2030 2170 2624 1549 2624 
C 1222 2624 947 2503 730 2274 
L 730 3692 
z
" transform="scale(0.015625)"/>
       </defs>
       <use xlink:href="#CMR17-32" transform="scale(0.996264)"/>
       <use xlink:href="#CMR17-35" transform="translate(45.690477 0) scale(0.996264)"/>
      </g>
     </g>
    </g>
    <g id="ytick_3">
     <g id="line2d_9">
      <g>
       <use xlink:href="#mbeab63779f" x="24.162671" y="154.20931" style="stroke: #000000; stroke-width: 0.8"/>
      </g>
     </g>
     <g id="text_9">
      <!-- $\mathdefault{26}$ -->
      <g transform="translate(7.2 157.66856) scale(0.1 -0.1)">
       <use xlink:href="#CMR17-32" transform="scale(0.996264)"/>
       <use xlink:href="#CMR17-36" transform="translate(45.690477 0) scale(0.996264)"/>
      </g>
     </g>
    </g>
    <g id="ytick_4">
     <g id="line2d_10">
      <g>
       <use xlink:href="#mbeab63779f" x="24.162671" y="95.14745" style="stroke: #000000; stroke-width: 0.8"/>
      </g>
     </g>
     <g id="text_10">
      <!-- $\mathdefault{27}$ -->
      <g transform="translate(7.2 98.606699) scale(0.1 -0.1)">
       <defs>
        <path id="CMR17-37" d="M 2886 3941 
L 2886 4081 
L 1382 4081 
C 634 4081 621 4165 595 4288 
L 480 4288 
L 294 3094 
L 410 3094 
C 429 3215 474 3540 550 3661 
C 589 3712 1062 3712 1171 3712 
L 2579 3712 
L 1869 2661 
C 1395 1954 1069 999 1069 165 
C 1069 89 1069 -128 1299 -128 
C 1530 -128 1530 89 1530 171 
L 1530 465 
C 1530 1508 1709 2196 2003 2636 
L 2886 3941 
z
" transform="scale(0.015625)"/>
       </defs>
       <use xlink:href="#CMR17-32" transform="scale(0.996264)"/>
       <use xlink:href="#CMR17-37" transform="translate(45.690477 0) scale(0.996264)"/>
      </g>
     </g>
    </g>
    <g id="ytick_5">
     <g id="line2d_11">
      <g>
       <use xlink:href="#mbeab63779f" x="24.162671" y="36.085589" style="stroke: #000000; stroke-width: 0.8"/>
      </g>
     </g>
     <g id="text_11">
      <!-- $\mathdefault{28}$ -->
      <g transform="translate(7.2 39.544838) scale(0.1 -0.1)">
       <use xlink:href="#CMR17-32" transform="scale(0.996264)"/>
       <use xlink:href="#CMR17-38" transform="translate(45.690477 0) scale(0.996264)"/>
      </g>
     </g>
    </g>
   </g>
   <g id="line2d_12">
    <path d="M 40.395398 139.066686 
L 40.720052 59.091554 
L 41.044707 19.296 
L 41.369361 96.534648 
L 41.694016 78.48909 
L 42.343325 154.696811 
L 42.992634 83.655021 
L 43.317289 79.10013 
L 43.641943 43.354131 
L 43.966598 33.746168 
L 44.291252 41.962609 
L 44.615907 85.683639 
L 44.940561 93.014382 
L 45.265216 21.561262 
L 45.589871 56.451407 
L 45.914525 19.296 
L 46.23918 66.50824 
L 46.563834 19.296 
L 46.888489 70.913652 
L 47.213143 30.469188 
L 47.537798 19.296 
L 47.862452 38.250191 
L 48.187107 37.982165 
L 49.161071 45.472844 
L 49.485725 43.223809 
L 49.81038 19.296 
L 50.135034 62.937779 
L 50.459689 82.058433 
L 50.784343 70.508939 
L 51.108998 73.253375 
L 51.433652 31.140648 
L 51.758307 59.300408 
L 52.082961 52.402624 
L 52.407616 19.296 
L 52.732271 20.353974 
L 53.056925 19.296 
L 53.38158 20.127446 
L 53.706234 74.513646 
L 54.030889 79.410553 
L 54.355543 81.739142 
L 54.680198 106.009838 
L 55.004852 91.393788 
L 55.329507 71.183576 
L 55.654161 71.435171 
L 55.978816 123.509483 
L 56.628125 83.045062 
L 56.95278 137.203502 
L 57.277434 113.515293 
L 57.602089 103.501337 
L 57.926743 65.598 
L 58.251398 64.098265 
L 58.576052 167.243244 
L 58.900707 70.35375 
L 59.225361 70.004538 
L 59.550016 67.508678 
L 60.199325 144.751905 
L 61.173289 62.764469 
L 61.497943 46.890725 
L 61.822598 97.912617 
L 62.147252 59.323696 
L 62.471907 71.92522 
L 62.796561 63.395412 
L 63.121216 40.81145 
L 63.770525 127.774655 
L 64.09518 109.384638 
L 64.419834 52.392901 
L 64.744489 54.183674 
L 65.069143 69.076395 
L 65.718452 74.920904 
L 66.367761 59.956961 
L 66.692416 37.778823 
L 67.341725 126.752216 
L 67.66638 78.256088 
L 67.991034 88.873645 
L 68.315689 104.461971 
L 68.964998 39.211991 
L 69.289652 51.864622 
L 69.614307 26.611601 
L 69.938961 69.084599 
L 70.263616 60.80836 
L 70.588271 72.53405 
L 70.912925 70.396692 
L 71.23758 57.764132 
L 71.562234 75.537023 
L 71.886889 78.930384 
L 72.211543 94.150405 
L 72.536198 74.874537 
L 72.860852 93.235666 
L 73.185507 58.833314 
L 73.510161 95.53547 
L 73.834816 65.861071 
L 74.159471 78.646027 
L 74.484125 78.331671 
L 75.133434 53.911164 
L 75.458089 19.296 
L 75.782743 65.114868 
L 76.107398 56.059027 
L 76.432052 93.061148 
L 76.756707 43.798939 
L 77.081361 28.614595 
L 77.406016 24.803897 
L 77.730671 49.836915 
L 78.055325 49.490825 
L 78.37998 19.296 
L 78.704634 19.296 
L 79.029289 51.234207 
L 79.353943 34.633165 
L 79.678598 27.888555 
L 80.003252 46.808607 
L 80.327907 44.863293 
L 80.652561 41.532918 
L 80.977216 34.367638 
L 81.301871 49.121411 
L 81.626525 116.316317 
L 81.95118 91.58037 
L 82.275834 134.959865 
L 82.925143 77.256832 
L 83.249798 65.742492 
L 83.574452 37.92017 
L 83.899107 72.826847 
L 84.223761 53.55518 
L 84.548416 95.443314 
L 84.873071 51.010162 
L 85.197725 48.756854 
L 85.52238 76.12605 
L 85.847034 53.394923 
L 86.171689 104.97972 
L 86.496343 78.875543 
L 86.820998 107.16649 
L 87.145652 78.397369 
L 87.470307 77.845334 
L 87.794961 39.703625 
L 88.119616 21.914285 
L 88.444271 19.296 
L 88.768925 49.430834 
L 89.09358 104.581399 
L 89.418234 128.928917 
L 89.742889 84.342125 
L 90.392198 37.533016 
L 90.716852 79.621808 
L 91.041507 77.391806 
L 91.366161 79.813115 
L 91.690816 117.189371 
L 92.340125 148.177971 
L 92.66478 66.406105 
L 92.989434 64.127217 
L 93.963398 164.615519 
L 94.288052 96.99102 
L 94.612707 118.266201 
L 94.937361 93.093299 
L 95.262016 98.901493 
L 95.586671 60.701123 
L 95.911325 71.954328 
L 96.23598 78.629131 
L 96.885289 137.571274 
L 97.209943 99.368948 
L 97.534598 133.530555 
L 98.183907 77.009894 
L 98.508561 71.286952 
L 98.833216 68.301399 
L 99.157871 63.575382 
L 99.482525 63.271338 
L 99.80718 68.481843 
L 100.131834 67.528822 
L 100.456489 28.816071 
L 100.781143 52.529155 
L 101.105798 105.066519 
L 101.430452 58.857556 
L 101.755107 92.974398 
L 102.079761 84.521185 
L 102.404416 62.793374 
L 102.729071 55.16284 
L 103.053725 76.362938 
L 103.37838 59.405052 
L 103.703034 57.541277 
L 104.027689 127.655552 
L 104.352343 66.678152 
L 104.676998 121.129203 
L 105.001652 78.973811 
L 105.326307 70.712386 
L 105.650961 87.560051 
L 105.975616 114.992049 
L 106.300271 53.848095 
L 106.624925 60.09574 
L 106.94958 91.601699 
L 107.274234 99.351693 
L 107.598889 73.309912 
L 107.923543 91.159427 
L 108.248198 101.328427 
L 108.572852 94.898186 
L 108.897507 93.20873 
L 109.222161 78.174398 
L 109.546816 53.948047 
L 109.871471 120.080495 
L 110.196125 73.521617 
L 110.52078 60.882921 
L 110.845434 83.992385 
L 111.170089 48.835904 
L 111.494743 45.390987 
L 111.819398 61.561239 
L 112.144052 55.17778 
L 112.468707 46.066905 
L 112.793361 93.942499 
L 113.118016 69.873695 
L 113.442671 64.775468 
L 113.767325 57.605108 
L 114.09198 100.381134 
L 114.416634 44.092653 
L 114.741289 43.750509 
L 115.065943 50.56962 
L 115.390598 54.471536 
L 115.715252 38.646389 
L 116.039907 72.588482 
L 116.364561 39.574032 
L 116.689216 46.59944 
L 117.013871 70.974163 
L 117.338525 113.86692 
L 117.66318 127.756505 
L 117.987834 105.308358 
L 118.312489 156.023652 
L 118.637143 130.737509 
L 118.961798 141.220796 
L 119.286452 92.682049 
L 119.611107 64.61324 
L 119.935761 81.061923 
L 120.260416 75.638561 
L 120.585071 94.708759 
L 120.909725 77.842614 
L 121.23438 186.911043 
L 121.559034 151.93103 
L 121.883689 166.519446 
L 122.208343 137.288621 
L 122.532998 140.320131 
L 122.857652 101.366841 
L 123.182307 124.032147 
L 123.506961 98.999034 
L 123.831616 161.381261 
L 124.156271 181.195138 
L 124.480925 152.698756 
L 124.80558 149.972776 
L 125.130234 101.326915 
L 125.454889 73.853378 
L 125.779543 122.955531 
L 126.104198 142.547954 
L 126.753507 67.903102 
L 127.078161 55.088582 
L 127.402816 57.937482 
L 127.727471 82.187483 
L 128.052125 190.014967 
L 128.37678 222.155259 
L 128.701434 179.024047 
L 129.026089 178.227148 
L 129.350743 153.910907 
L 129.675398 166.818775 
L 130.324707 98.801322 
L 130.649361 135.452252 
L 130.974016 106.461578 
L 131.298671 153.758324 
L 131.623325 109.179 
L 131.94798 128.026318 
L 132.272634 135.604826 
L 132.597289 160.021438 
L 132.921943 149.482345 
L 133.246598 210.018918 
L 133.571252 162.15965 
L 133.895907 157.70089 
L 134.545216 79.559687 
L 134.869871 107.20097 
L 135.194525 57.733043 
L 135.51918 114.055545 
L 135.843834 76.913323 
L 136.168489 72.443472 
L 136.493143 72.004131 
L 136.817798 102.58678 
L 137.142452 77.917472 
L 137.467107 83.204665 
L 137.791761 83.957394 
L 138.116416 114.696692 
L 138.441071 68.154183 
L 138.765725 103.360658 
L 139.09038 85.211361 
L 139.739689 174.953437 
L 140.064343 158.292763 
L 140.388998 156.419774 
L 140.713652 149.962976 
L 141.038307 80.959953 
L 141.362961 139.485412 
L 141.687616 147.986664 
L 142.012271 129.519608 
L 142.336925 145.730582 
L 142.66158 154.642037 
L 142.986234 113.21406 
L 143.310889 119.204522 
L 143.635543 133.299264 
L 143.960198 83.925214 
L 144.284852 87.661629 
L 144.609507 123.479825 
L 144.934161 71.800093 
L 145.258816 57.822651 
L 145.583471 108.547535 
L 146.23278 19.296 
L 146.882089 85.337622 
L 147.206743 19.296 
L 148.180707 123.554683 
L 148.505361 70.988014 
L 148.830016 53.333979 
L 149.154671 84.622068 
L 149.80398 67.854919 
L 150.128634 122.209441 
L 150.777943 55.348457 
L 151.102598 91.054661 
L 151.427252 61.244288 
L 151.751907 19.296 
L 152.076561 30.20072 
L 152.401216 34.339207 
L 152.725871 56.390846 
L 153.050525 66.683471 
L 153.37518 57.877232 
L 153.699834 107.399265 
L 154.349143 88.258461 
L 154.673798 132.921468 
L 154.998452 160.420357 
L 155.323107 54.467557 
L 155.647761 93.158829 
L 155.972416 44.039442 
L 156.297071 40.110316 
L 156.621725 55.513749 
L 156.94638 108.397513 
L 157.271034 104.609125 
L 157.595689 56.470199 
L 157.920343 36.219174 
L 158.244998 56.351023 
L 158.569652 33.212414 
L 158.894307 61.821495 
L 159.218961 26.011581 
L 159.543616 77.690851 
L 159.868271 85.932914 
L 160.192925 62.697347 
L 160.51758 73.242893 
L 160.842234 149.893118 
L 161.816198 19.296 
L 162.140852 53.826386 
L 162.465507 70.061218 
L 162.790161 123.507175 
L 163.439471 49.79424 
L 163.764125 56.916416 
L 164.08878 109.439989 
L 164.413434 43.193681 
L 164.738089 90.20343 
L 165.062743 50.124983 
L 165.387398 52.811729 
L 165.712052 103.20479 
L 166.036707 60.034551 
L 166.361361 78.122779 
L 166.686016 73.27868 
L 167.010671 40.991076 
L 167.335325 66.973718 
L 167.65998 50.717104 
L 167.984634 50.465324 
L 168.309289 64.091851 
L 168.633943 64.274703 
L 168.958598 90.160926 
L 169.283252 46.589158 
L 169.607907 48.940253 
L 169.932561 47.155334 
L 170.581871 114.64588 
L 170.906525 86.750493 
L 171.23118 104.314723 
L 171.555834 82.518624 
L 171.880489 83.501976 
L 172.205143 76.910543 
L 172.529798 67.291748 
L 172.854452 85.236132 
L 173.179107 117.144357 
L 173.503761 62.471663 
L 173.828416 85.940886 
L 174.153071 153.393623 
L 174.477725 122.074138 
L 174.80238 146.922959 
L 175.127034 151.336318 
L 175.776343 62.938279 
L 176.425652 109.493895 
L 176.750307 123.933297 
L 177.074961 112.122986 
L 177.399616 76.177544 
L 177.724271 101.033456 
L 178.048925 39.830362 
L 178.37358 19.296 
L 178.698234 19.296 
L 179.022889 21.822474 
L 179.347543 48.191236 
L 179.672198 114.173073 
L 179.996852 137.181358 
L 180.321507 120.906592 
L 180.646161 81.556234 
L 180.970816 110.406697 
L 181.295471 110.726772 
L 181.620125 95.728087 
L 181.94478 103.868988 
L 182.269434 89.171883 
L 182.918743 83.271578 
L 183.243398 111.968329 
L 183.568052 84.080654 
L 183.892707 83.951597 
L 184.217361 127.561512 
L 184.542016 142.141609 
L 184.866671 115.432777 
L 185.191325 114.120821 
L 185.51598 101.100894 
L 185.840634 100.894601 
L 186.165289 120.794898 
L 186.489943 93.239396 
L 186.814598 100.84664 
L 187.139252 146.91928 
L 187.463907 74.050536 
L 187.788561 76.285441 
L 188.113216 23.241827 
L 188.437871 41.06146 
L 188.762525 68.658818 
L 189.08718 113.855609 
L 189.736489 73.06197 
L 190.061143 152.538418 
L 190.385798 113.603246 
L 190.710452 93.681291 
L 191.035107 51.223319 
L 191.359761 72.59509 
L 191.684416 39.130859 
L 192.009071 70.894987 
L 192.333725 81.333345 
L 192.65838 101.226185 
L 192.983034 96.182275 
L 193.307689 77.045326 
L 193.632343 127.372746 
L 193.956998 142.400249 
L 194.281652 128.133901 
L 194.606307 95.503416 
L 194.930961 109.979846 
L 195.255616 89.728907 
L 195.580271 139.205779 
L 195.904925 124.300207 
L 196.22958 76.042272 
L 196.554234 98.936019 
L 196.878889 79.236831 
L 197.203543 92.134644 
L 197.528198 67.94104 
L 197.852852 113.850163 
L 198.177507 84.580921 
L 198.502161 19.296 
L 198.826816 105.096372 
L 199.151471 106.490428 
L 199.476125 139.712767 
L 199.80078 100.468807 
L 200.125434 93.031244 
L 200.450089 97.732035 
L 200.774743 98.205548 
L 201.099398 76.59203 
L 201.424052 100.856278 
L 201.748707 54.334183 
L 202.073361 85.727858 
L 202.398016 31.208588 
L 202.722671 19.82402 
L 203.696634 45.169165 
L 204.021289 114.488246 
L 204.345943 111.491925 
L 204.670598 57.955166 
L 204.995252 79.869108 
L 205.319907 66.998721 
L 205.644561 138.69563 
L 205.969216 131.435986 
L 206.293871 98.716698 
L 206.618525 112.949024 
L 206.94318 121.055492 
L 207.267834 91.143013 
L 207.592489 125.947445 
L 207.917143 27.17477 
L 208.241798 30.866115 
L 208.566452 90.469702 
L 208.891107 79.386263 
L 209.215761 25.519919 
L 209.540416 92.103708 
L 209.865071 64.543844 
L 210.189725 48.648339 
L 210.51438 50.774933 
L 210.839034 82.034411 
L 211.163689 20.269121 
L 211.488343 27.203468 
L 211.812998 46.762325 
L 212.137652 119.95831 
L 212.462307 100.924004 
L 212.786961 93.213255 
L 213.111616 102.693784 
L 213.436271 52.940508 
L 213.760925 72.644749 
L 214.08558 32.716468 
L 214.410234 64.79237 
L 214.734889 24.969078 
L 215.059543 127.108764 
L 215.384198 75.611172 
L 215.708852 81.562348 
L 216.358161 150.280887 
L 216.682816 79.64777 
L 217.007471 81.689636 
L 217.332125 22.482979 
L 217.65678 26.986396 
L 217.981434 27.842139 
L 218.306089 45.207007 
L 218.630743 21.931406 
L 218.955398 24.608448 
L 219.280052 30.793819 
L 219.604707 28.425448 
L 219.929361 103.819331 
L 220.254016 97.453152 
L 220.903325 79.517731 
L 221.22798 19.296 
L 221.552634 84.121702 
L 221.877289 92.682915 
L 222.201943 21.907492 
L 222.526598 21.60138 
L 222.851252 58.013473 
L 223.175907 21.300315 
L 223.500561 85.117573 
L 223.825216 44.697428 
L 224.149871 43.630508 
L 224.474525 90.461 
L 225.123834 53.207845 
L 225.448489 19.296 
L 225.773143 24.363757 
L 226.097798 81.265464 
L 226.422452 27.471648 
L 226.747107 91.683229 
L 227.071761 81.146661 
L 227.396416 96.868271 
L 228.045725 75.351831 
L 228.695034 140.248463 
L 229.019689 117.602135 
L 229.344343 63.507333 
L 229.993652 123.049868 
L 230.318307 113.800329 
L 230.642961 116.795824 
L 230.967616 89.205839 
L 231.292271 48.900442 
L 231.616925 48.46775 
L 231.94158 51.157646 
L 232.266234 88.800472 
L 232.915543 51.084212 
L 233.240198 49.565722 
L 233.564852 33.663661 
L 233.889507 37.496544 
L 234.214161 44.257176 
L 234.538816 96.58751 
L 234.863471 70.642938 
L 235.188125 147.671072 
L 235.837434 126.144799 
L 236.162089 53.504565 
L 236.486743 48.844819 
L 236.811398 117.834355 
L 237.136052 125.807985 
L 237.460707 47.128515 
L 237.785361 43.775351 
L 238.110016 81.700677 
L 238.434671 57.766689 
L 238.759325 120.807377 
L 239.08398 99.704232 
L 239.408634 143.07801 
L 239.733289 128.174506 
L 240.057943 81.353468 
L 240.382598 89.436139 
L 240.707252 125.482684 
L 241.031907 72.361905 
L 241.681216 61.555579 
L 242.005871 62.836361 
L 242.330525 87.916766 
L 242.65518 65.495254 
L 242.979834 116.952699 
L 243.304489 70.873154 
L 243.629143 55.685813 
L 243.953798 138.006382 
L 244.278452 117.762544 
L 244.603107 48.634872 
L 244.927761 46.637953 
L 245.577071 99.400935 
L 245.901725 112.798133 
L 246.22638 84.633695 
L 246.551034 131.260254 
L 246.875689 108.997499 
L 247.200343 117.596259 
L 247.524998 102.169984 
L 247.849652 141.638636 
L 248.174307 71.385902 
L 248.498961 92.899145 
L 248.823616 86.355506 
L 249.148271 67.431448 
L 249.472925 55.144008 
L 249.79758 101.072226 
L 250.122234 60.374417 
L 250.771543 93.499528 
L 251.096198 90.245296 
L 251.420852 50.999564 
L 251.745507 71.527126 
L 252.070161 124.698695 
L 252.394816 134.872211 
L 252.719471 97.347401 
L 253.044125 75.816234 
L 253.36878 104.467028 
L 253.693434 113.930303 
L 254.018089 150.979155 
L 254.342743 98.088374 
L 254.667398 103.221353 
L 254.992052 115.630304 
L 255.316707 90.221265 
L 255.641361 131.080652 
L 256.290671 25.953151 
L 256.615325 99.208435 
L 256.93998 52.098653 
L 257.264634 65.809218 
L 257.589289 164.495898 
L 257.913943 98.905856 
L 258.238598 132.91093 
L 258.563252 216.7616 
L 258.887907 223.719386 
L 259.212561 202.15206 
L 259.537216 209.361254 
L 259.861871 259.709937 
L 260.186525 204.571728 
L 260.51118 229.485958 
L 261.160489 184.107336 
L 261.485143 191.873887 
L 261.809798 203.30991 
L 262.134452 154.182241 
L 262.459107 154.875239 
L 262.783761 72.206891 
L 263.108416 144.507491 
L 263.757725 53.890094 
L 264.407034 107.861177 
L 264.731689 125.384099 
L 265.380998 55.498317 
L 265.705652 109.837167 
L 266.030307 109.184107 
L 266.354961 55.307846 
L 266.679616 126.021805 
L 267.004271 118.61699 
L 267.328925 83.709083 
L 267.65358 87.825124 
L 267.978234 38.048209 
L 268.302889 108.247007 
L 268.627543 92.499878 
L 269.276852 158.975241 
L 269.601507 151.722455 
L 269.926161 184.543725 
L 270.250816 185.650007 
L 270.575471 169.661993 
L 270.900125 145.024975 
L 271.22478 150.214283 
L 271.549434 80.695491 
L 271.874089 41.127822 
L 272.198743 118.140406 
L 272.523398 138.123233 
L 272.848052 177.81991 
L 273.172707 169.484683 
L 273.497361 155.695126 
L 273.822016 101.049173 
L 274.146671 127.417514 
L 274.471325 186.205321 
L 274.79598 186.534682 
L 275.120634 134.729589 
L 275.445289 195.376607 
L 275.769943 116.635711 
L 276.094598 154.292118 
L 276.419252 127.88358 
L 276.743907 118.887404 
L 277.068561 33.830299 
L 277.393216 83.291671 
L 277.717871 80.194603 
L 278.042525 61.250192 
L 278.36718 95.343859 
L 278.691834 117.064526 
L 279.016489 60.018779 
L 279.665798 147.359176 
L 279.990452 158.020208 
L 280.315107 108.735773 
L 280.639761 112.249472 
L 280.964416 102.301738 
L 281.289071 22.536093 
L 281.613725 27.329505 
L 281.93838 20.169912 
L 282.587689 60.20143 
L 282.912343 54.784988 
L 283.236998 33.74842 
L 283.886307 100.17729 
L 284.210961 55.31633 
L 284.535616 93.184408 
L 284.860271 56.997729 
L 285.184925 89.259341 
L 285.50958 72.770896 
L 285.834234 28.251634 
L 286.158889 59.997281 
L 286.483543 41.027078 
L 287.132852 97.604105 
L 287.457507 83.706401 
L 287.782161 52.506369 
L 288.431471 88.971865 
L 288.756125 100.557791 
L 289.405434 49.486681 
L 289.730089 62.69297 
L 290.054743 19.296 
L 290.379398 92.893579 
L 290.704052 114.481524 
L 291.028707 23.135472 
L 291.353361 80.431363 
L 291.678016 47.498467 
L 292.002671 63.712294 
L 292.327325 54.844266 
L 292.65198 23.588756 
L 292.976634 25.831336 
L 293.301289 24.026149 
L 293.625943 40.418954 
L 293.950598 83.110517 
L 294.599907 26.096348 
L 294.924561 67.201294 
L 295.249216 150.90554 
L 295.573871 172.963791 
L 295.898525 169.072928 
L 296.22318 207.432143 
L 296.872489 142.269091 
L 297.197143 141.571837 
L 297.521798 140.130393 
L 297.846452 151.321456 
L 298.495761 235.93426 
L 298.820416 213.507172 
L 299.145071 219.305423 
L 299.469725 176.969535 
L 299.79438 233.945199 
L 300.119034 185.842724 
L 300.443689 59.068915 
L 300.768343 156.20318 
L 301.092998 85.147547 
L 301.417652 106.815644 
L 301.742307 100.014023 
L 302.066961 67.765772 
L 302.391616 96.234775 
L 302.716271 64.793586 
L 303.040925 88.564994 
L 303.36558 64.084786 
L 304.014889 125.896462 
L 304.339543 209.566034 
L 304.664198 184.053401 
L 304.988852 122.233655 
L 305.313507 127.123083 
L 305.638161 128.407849 
L 305.962816 67.719523 
L 306.287471 134.433549 
L 306.612125 65.206699 
L 306.93678 146.626438 
L 307.910743 88.143841 
L 308.235398 132.411164 
L 308.560052 72.870691 
L 308.884707 127.925633 
L 309.209361 147.214267 
L 309.534016 156.054828 
L 309.858671 148.195634 
L 310.183325 168.925768 
L 310.50798 153.228311 
L 310.832634 206.449423 
L 311.157289 120.666396 
L 311.481943 203.862308 
L 311.806598 190.181797 
L 312.131252 199.424614 
L 312.455907 199.351129 
L 312.780561 156.551317 
L 313.105216 94.681237 
L 313.429871 149.606013 
L 313.754525 102.632938 
L 314.07918 107.810279 
L 314.403834 63.216213 
L 314.728489 100.43887 
L 315.053143 112.055424 
L 315.377798 135.824851 
L 315.702452 95.317873 
L 316.027107 70.714879 
L 316.351761 69.961686 
L 316.676416 76.074315 
L 317.001071 62.825044 
L 317.325725 67.945823 
L 317.65038 131.385332 
L 317.975034 88.547377 
L 318.299689 116.556281 
L 318.624343 91.51102 
L 318.948998 104.516767 
L 319.273652 132.219642 
L 319.598307 114.546711 
L 319.922961 85.000007 
L 320.247616 167.23556 
L 320.572271 158.232863 
L 320.896925 134.632226 
L 321.22158 128.411284 
L 321.546234 95.143994 
L 322.195543 126.984159 
L 322.520198 130.107899 
L 323.169507 54.303183 
L 323.494161 90.816495 
L 323.818816 155.937643 
L 324.143471 152.837361 
L 324.468125 103.328717 
L 324.79278 112.19208 
L 325.117434 65.209289 
L 325.442089 110.671967 
L 325.766743 131.413914 
L 326.091398 110.092042 
L 326.416052 117.32106 
L 327.065361 55.195143 
L 327.390016 147.880579 
L 327.714671 178.228234 
L 328.039325 128.675561 
L 328.36398 158.919667 
L 328.688634 65.860244 
L 329.013289 57.866824 
L 329.337943 118.85687 
L 329.662598 97.779365 
L 329.987252 85.121942 
L 330.311907 127.352625 
L 330.636561 102.283829 
L 330.961216 62.338321 
L 331.285871 111.73982 
L 331.610525 193.831631 
L 331.93518 123.192254 
L 332.259834 128.49004 
L 332.584489 130.451262 
L 332.909143 139.051947 
L 333.558452 51.093535 
L 333.883107 200.215702 
L 334.532416 251.504615 
L 334.857071 225.20377 
L 335.181725 244.293356 
L 335.50638 178.482368 
L 335.831034 165.303743 
L 336.155689 185.276489 
L 336.480343 126.441894 
L 336.804998 127.249744 
L 337.129652 122.933267 
L 337.454307 213.675112 
L 337.778961 180.823462 
L 338.103616 170.108804 
L 338.428271 99.775455 
L 338.752925 114.399511 
L 339.07758 110.190948 
L 339.402234 107.646843 
L 339.726889 97.978487 
L 340.051543 84.10253 
L 340.376198 151.587856 
L 340.700852 106.319425 
L 341.025507 179.442304 
L 341.350161 197.621386 
L 341.674816 82.10153 
L 341.999471 162.5323 
L 342.324125 185.636618 
L 342.64878 117.999178 
L 342.973434 199.733168 
L 343.298089 168.673599 
L 343.622743 77.502043 
L 343.947398 76.788956 
L 344.272052 79.016493 
L 344.596707 153.563054 
L 344.921361 107.768572 
L 345.246016 194.575479 
L 345.570671 213.820607 
L 345.895325 208.469833 
L 346.21998 229.233888 
L 346.544634 201.780842 
L 346.869289 195.016715 
L 347.193943 205.157696 
L 347.518598 190.149327 
L 347.843252 206.87883 
L 348.167907 101.06311 
L 348.492561 104.3409 
L 348.817216 94.34809 
L 349.141871 69.46632 
L 349.466525 62.190996 
L 349.79118 113.53785 
L 350.440489 117.886745 
L 350.765143 115.179851 
L 351.089798 86.836337 
L 351.414452 69.646363 
L 351.739107 74.472281 
L 352.063761 91.14849 
L 352.388416 97.083734 
L 352.713071 71.145234 
L 353.037725 69.970887 
L 353.36238 173.591095 
L 353.687034 157.906582 
L 354.011689 101.281029 
L 354.336343 230.966417 
L 354.660998 127.079642 
L 355.310307 210.257667 
L 355.634961 186.498772 
L 355.959616 228.279305 
L 356.284271 67.018528 
L 356.93358 119.824478 
L 357.258234 72.566772 
L 357.582889 103.299572 
L 357.907543 89.642574 
L 358.232198 100.993412 
L 358.881507 184.528324 
L 359.530816 239.84525 
L 359.855471 203.759908 
L 360.180125 261.216 
L 360.829434 188.788453 
L 361.154089 212.452318 
L 361.803398 164.932603 
L 362.128052 92.592743 
L 362.452707 190.02484 
L 363.102016 140.676487 
L 363.426671 178.074816 
L 363.751325 194.487015 
L 364.07598 194.716299 
L 364.400634 185.912751 
L 364.725289 221.272459 
L 365.049943 166.114833 
L 365.049943 166.114833 
" clip-path="url(#p6c66aa0e87)" style="fill: none; stroke: #e46e56; stroke-width: 1.5; stroke-linecap: square"/>
   </g>
   <g id="line2d_13">
    <path d="M 40.395398 62.420035 
L 40.720052 57.011934 
L 41.044707 29.378496 
L 41.369361 42.976304 
L 41.694016 80.211921 
L 42.018671 62.466705 
L 42.343325 69.508253 
L 42.66798 87.205929 
L 42.992634 86.395117 
L 43.317289 87.225996 
L 43.641943 73.416431 
L 43.966598 78.916718 
L 44.291252 23.361962 
L 44.615907 49.742725 
L 44.940561 58.326495 
L 45.265216 54.970813 
L 45.589871 39.682797 
L 45.914525 94.364618 
L 46.23918 112.340958 
L 46.563834 107.170547 
L 46.888489 132.418746 
L 47.213143 95.840706 
L 47.537798 37.905928 
L 47.862452 57.667247 
L 48.187107 103.893767 
L 48.511761 40.846154 
L 48.836416 33.708203 
L 49.161071 44.196579 
L 49.485725 39.347391 
L 49.81038 42.91465 
L 50.135034 45.138192 
L 50.459689 26.575356 
L 51.108998 69.039049 
L 51.433652 61.060482 
L 51.758307 122.750182 
L 52.082961 119.72852 
L 52.732271 64.948636 
L 53.056925 36.576966 
L 53.38158 47.362426 
L 53.706234 31.868456 
L 54.030889 60.123988 
L 54.355543 67.534976 
L 54.680198 55.828741 
L 55.004852 69.466617 
L 55.329507 107.126157 
L 55.654161 78.263124 
L 55.978816 115.630754 
L 56.303471 79.683345 
L 56.628125 116.246657 
L 56.95278 111.396793 
L 57.277434 120.328611 
L 57.602089 73.92445 
L 57.926743 90.457087 
L 58.251398 128.19881 
L 58.576052 52.621447 
L 58.900707 19.296 
L 59.225361 25.05954 
L 59.550016 38.618155 
L 59.874671 86.306438 
L 60.199325 87.529003 
L 60.52398 60.207435 
L 60.848634 43.959155 
L 61.173289 47.249237 
L 61.497943 75.989712 
L 61.822598 19.296 
L 62.147252 19.99893 
L 62.471907 19.296 
L 62.796561 60.826466 
L 63.121216 29.740787 
L 63.445871 33.915877 
L 63.770525 29.60646 
L 64.09518 49.119727 
L 64.419834 38.25283 
L 64.744489 95.647441 
L 65.069143 59.513485 
L 65.393798 37.282327 
L 65.718452 37.189821 
L 66.043107 37.416662 
L 66.367761 35.316869 
L 66.692416 40.095648 
L 67.017071 63.49298 
L 67.341725 35.685164 
L 67.66638 31.589022 
L 67.991034 51.771441 
L 68.315689 40.980614 
L 68.640343 88.718019 
L 68.964998 66.286889 
L 69.289652 100.365765 
L 69.614307 119.955105 
L 69.938961 120.083307 
L 70.588271 69.152859 
L 70.912925 96.23242 
L 71.23758 93.05156 
L 71.562234 113.790763 
L 71.886889 95.514784 
L 72.536198 113.770461 
L 72.860852 173.123227 
L 73.185507 165.970605 
L 73.510161 95.944563 
L 73.834816 95.194381 
L 74.159471 94.896657 
L 74.484125 93.637919 
L 74.80878 97.965108 
L 75.133434 105.535035 
L 75.458089 128.009616 
L 75.782743 114.225984 
L 76.107398 127.109166 
L 76.432052 149.144839 
L 76.756707 67.982995 
L 77.081361 72.689295 
L 77.406016 118.358376 
L 77.730671 93.931981 
L 78.055325 81.515846 
L 78.37998 74.827675 
L 78.704634 77.78386 
L 79.029289 86.932176 
L 79.353943 103.394626 
L 79.678598 101.813869 
L 80.003252 75.795899 
L 80.327907 63.562373 
L 80.652561 70.872466 
L 80.977216 121.836499 
L 81.301871 63.643501 
L 81.626525 67.425311 
L 81.95118 79.765765 
L 82.275834 80.71509 
L 82.600489 102.48979 
L 82.925143 50.526865 
L 83.249798 58.584313 
L 83.899107 115.799213 
L 84.223761 51.955218 
L 84.548416 61.976038 
L 84.873071 43.165126 
L 85.197725 71.160546 
L 85.847034 19.296 
L 86.171689 19.296 
L 86.496343 126.289133 
L 86.820998 41.381123 
L 87.145652 35.321845 
L 87.794961 92.000155 
L 88.119616 46.660282 
L 88.444271 84.532699 
L 88.768925 38.002144 
L 89.09358 32.64181 
L 89.418234 61.748572 
L 89.742889 79.639594 
L 90.067543 50.698896 
L 90.392198 33.061763 
L 90.716852 32.804717 
L 91.041507 54.802434 
L 91.366161 60.239184 
L 91.690816 58.654599 
L 92.015471 60.895567 
L 92.340125 68.506595 
L 92.66478 68.495715 
L 92.989434 57.250924 
L 93.314089 50.289845 
L 93.638743 40.451775 
L 94.288052 108.808196 
L 94.612707 34.807695 
L 94.937361 31.009289 
L 95.262016 34.704724 
L 95.586671 64.409552 
L 95.911325 53.48279 
L 96.23598 79.915273 
L 96.560634 50.837599 
L 96.885289 39.165841 
L 97.209943 84.057218 
L 97.534598 34.506519 
L 97.859252 46.358034 
L 98.183907 19.296 
L 98.508561 63.454458 
L 98.833216 47.961432 
L 99.157871 50.156084 
L 99.482525 31.571838 
L 99.80718 27.627748 
L 100.131834 81.895696 
L 100.456489 43.675691 
L 100.781143 57.759886 
L 101.105798 42.217871 
L 101.430452 42.37223 
L 101.755107 52.226616 
L 102.079761 48.806188 
L 102.404416 80.905468 
L 103.053725 63.542632 
L 103.37838 77.910931 
L 103.703034 56.992614 
L 104.027689 97.530302 
L 104.676998 19.296 
L 105.001652 51.391885 
L 105.326307 50.094488 
L 105.650961 67.146571 
L 106.300271 19.296 
L 106.624925 65.344325 
L 106.94958 19.296 
L 107.274234 21.669928 
L 107.598889 58.714203 
L 107.923543 54.312806 
L 108.248198 59.682146 
L 108.572852 57.230158 
L 108.897507 63.164367 
L 109.222161 39.434862 
L 109.871471 106.60734 
L 110.52078 85.271442 
L 110.845434 63.609161 
L 111.170089 55.452356 
L 111.494743 57.736849 
L 111.819398 61.779571 
L 112.144052 28.69932 
L 112.468707 25.191099 
L 112.793361 63.887738 
L 113.442671 43.023302 
L 113.767325 76.089714 
L 114.09198 62.6844 
L 114.416634 99.750646 
L 114.741289 48.157287 
L 115.065943 44.507474 
L 115.390598 80.562351 
L 115.715252 40.530516 
L 116.039907 100.984829 
L 116.364561 42.758852 
L 116.689216 124.277196 
L 117.013871 135.186695 
L 117.338525 115.773739 
L 117.66318 77.8584 
L 118.312489 184.760494 
L 118.637143 170.622121 
L 118.961798 104.963599 
L 119.286452 117.713236 
L 119.611107 66.070724 
L 119.935761 96.446994 
L 120.585071 126.37654 
L 120.909725 144.260286 
L 121.23438 125.893471 
L 121.559034 66.299203 
L 121.883689 66.866135 
L 122.208343 92.800961 
L 122.532998 69.400295 
L 122.857652 80.543946 
L 123.182307 96.055108 
L 123.506961 101.594646 
L 123.831616 67.764635 
L 124.156271 119.141631 
L 124.480925 105.235055 
L 124.80558 106.364555 
L 125.130234 133.419101 
L 125.454889 119.735849 
L 125.779543 110.794604 
L 126.104198 70.345965 
L 126.428852 66.541618 
L 126.753507 30.05899 
L 127.078161 28.95167 
L 127.402816 36.272133 
L 127.727471 40.522875 
L 128.052125 106.651914 
L 128.37678 108.6843 
L 128.701434 79.001177 
L 129.026089 73.198925 
L 129.350743 47.39151 
L 129.675398 30.667523 
L 130.000052 44.416114 
L 130.324707 50.841727 
L 130.649361 19.296 
L 130.974016 51.601815 
L 131.298671 19.296 
L 131.623325 37.365345 
L 131.94798 19.915681 
L 132.272634 39.394118 
L 132.597289 48.060371 
L 132.921943 78.265279 
L 133.246598 41.20902 
L 134.220561 83.791228 
L 134.545216 141.312303 
L 135.194525 19.296 
L 135.843834 45.192795 
L 136.168489 21.660743 
L 136.493143 23.782218 
L 136.817798 23.703935 
L 137.142452 65.41671 
L 137.791761 36.219366 
L 138.441071 19.296 
L 138.765725 30.433774 
L 139.09038 52.903615 
L 139.415034 36.91384 
L 139.739689 65.818373 
L 140.064343 80.604823 
L 140.388998 44.215974 
L 140.713652 38.170953 
L 141.038307 25.562112 
L 142.012271 53.501774 
L 142.336925 24.456088 
L 142.66158 19.296 
L 142.986234 54.082107 
L 143.310889 37.085838 
L 143.635543 84.930014 
L 143.960198 81.616818 
L 144.284852 145.556989 
L 144.934161 62.894785 
L 145.258816 43.755628 
L 145.583471 47.266888 
L 145.908125 74.144492 
L 146.23278 67.665173 
L 146.557434 58.703968 
L 146.882089 57.95399 
L 147.206743 19.296 
L 147.531398 41.790533 
L 147.856052 41.278934 
L 148.180707 78.856161 
L 148.830016 30.30619 
L 149.154671 34.486914 
L 149.479325 34.586351 
L 149.80398 50.54001 
L 150.128634 19.296 
L 150.453289 78.173203 
L 150.777943 89.11751 
L 151.102598 128.708041 
L 152.401216 24.949776 
L 153.050525 103.269618 
L 153.37518 110.990882 
L 153.699834 92.02937 
L 154.024489 98.746424 
L 154.349143 128.034036 
L 154.673798 66.081475 
L 154.998452 44.700454 
L 155.647761 70.828554 
L 155.972416 20.746279 
L 156.297071 67.628401 
L 156.621725 39.79041 
L 156.94638 29.672765 
L 157.271034 63.990987 
L 157.595689 38.082742 
L 157.920343 37.307378 
L 158.244998 30.918006 
L 158.569652 46.657936 
L 158.894307 75.691729 
L 159.218961 40.977333 
L 159.543616 91.880257 
L 159.868271 46.48991 
L 160.192925 47.169887 
L 160.51758 58.566826 
L 160.842234 109.557277 
L 161.166889 94.140677 
L 161.491543 125.124292 
L 162.140852 198.425714 
L 162.465507 192.51873 
L 162.790161 106.423634 
L 163.114816 124.879158 
L 163.439471 52.048928 
L 163.764125 44.667895 
L 164.08878 21.160394 
L 164.413434 82.541138 
L 164.738089 77.320257 
L 165.062743 131.973957 
L 165.387398 108.282186 
L 165.712052 120.600618 
L 166.036707 70.324749 
L 166.361361 44.034629 
L 166.686016 52.375798 
L 167.010671 44.864948 
L 167.335325 26.973442 
L 167.65998 19.296 
L 167.984634 19.296 
L 168.958598 106.738177 
L 169.283252 55.768048 
L 169.607907 53.866122 
L 169.932561 19.296 
L 170.257216 30.832355 
L 170.581871 56.01828 
L 170.906525 44.168399 
L 171.23118 44.159974 
L 171.555834 122.071563 
L 172.205143 19.386552 
L 172.529798 113.828818 
L 172.854452 78.657528 
L 173.179107 106.458767 
L 173.828416 65.212931 
L 174.477725 90.771265 
L 174.80238 84.707861 
L 175.127034 52.888405 
L 175.451689 36.42109 
L 175.776343 32.051345 
L 176.100998 49.344614 
L 176.425652 40.609605 
L 177.074961 49.039908 
L 177.399616 42.392426 
L 177.724271 19.296 
L 178.048925 63.029148 
L 178.698234 45.69845 
L 179.347543 19.643835 
L 179.672198 40.651139 
L 179.996852 90.718638 
L 180.321507 67.533886 
L 180.646161 107.617999 
L 180.970816 72.232337 
L 181.295471 57.080501 
L 181.620125 19.296 
L 181.94478 46.597348 
L 182.269434 24.411624 
L 182.594089 88.856421 
L 182.918743 101.6893 
L 183.243398 109.960497 
L 183.568052 102.220073 
L 183.892707 54.355668 
L 184.542016 101.366898 
L 185.191325 65.112537 
L 185.51598 63.18061 
L 185.840634 87.966449 
L 186.165289 84.604185 
L 186.489943 61.031492 
L 186.814598 71.401762 
L 187.463907 43.300326 
L 187.788561 47.571621 
L 188.113216 20.851731 
L 188.437871 34.84763 
L 188.762525 36.613993 
L 189.08718 70.800004 
L 189.411834 43.13826 
L 189.736489 27.116492 
L 190.061143 74.828482 
L 190.385798 43.512062 
L 190.710452 47.559385 
L 191.359761 66.246914 
L 191.684416 84.100299 
L 192.009071 30.350679 
L 192.333725 60.192342 
L 192.65838 52.109235 
L 192.983034 96.756739 
L 193.307689 26.85642 
L 193.632343 26.707274 
L 193.956998 28.235245 
L 194.281652 35.034693 
L 194.606307 26.686945 
L 194.930961 42.451776 
L 195.255616 38.197129 
L 195.580271 31.887385 
L 195.904925 37.755692 
L 196.22958 71.692191 
L 196.554234 35.011318 
L 196.878889 20.336924 
L 197.203543 26.103521 
L 197.528198 38.625314 
L 197.852852 28.289152 
L 198.177507 36.340997 
L 198.502161 34.380995 
L 198.826816 53.368064 
L 199.151471 42.084549 
L 199.476125 50.958802 
L 199.80078 83.186122 
L 200.450089 53.946733 
L 200.774743 44.060318 
L 201.099398 42.435216 
L 201.424052 39.971037 
L 201.748707 33.072514 
L 202.073361 49.613303 
L 202.398016 47.591261 
L 202.722671 34.380254 
L 203.047325 31.77978 
L 203.37198 47.904807 
L 203.696634 37.580812 
L 204.021289 70.148392 
L 204.345943 36.625093 
L 204.670598 27.131641 
L 204.995252 29.849656 
L 205.319907 24.582949 
L 205.644561 30.966972 
L 205.969216 28.12477 
L 206.293871 28.21593 
L 206.618525 40.038338 
L 206.94318 23.077213 
L 207.592489 36.941443 
L 207.917143 71.19282 
L 208.241798 39.323985 
L 208.566452 26.851915 
L 208.891107 48.544917 
L 209.215761 25.171866 
L 209.540416 19.823927 
L 209.865071 38.151222 
L 210.189725 27.600289 
L 210.51438 33.723049 
L 210.839034 19.296 
L 211.488343 19.296 
L 211.812998 52.195216 
L 212.137652 32.577408 
L 212.462307 52.140051 
L 212.786961 54.14603 
L 213.111616 73.777976 
L 213.436271 60.005814 
L 213.760925 60.728542 
L 214.08558 88.832947 
L 214.410234 56.261828 
L 214.734889 49.337419 
L 215.059543 47.416797 
L 215.384198 59.773074 
L 215.708852 49.857961 
L 216.033507 28.077023 
L 216.358161 29.253141 
L 216.682816 83.162862 
L 217.007471 59.170378 
L 217.332125 21.887397 
L 217.65678 25.936313 
L 217.981434 57.712707 
L 218.306089 52.741245 
L 218.630743 40.616986 
L 218.955398 21.1066 
L 219.280052 22.02563 
L 219.604707 21.193959 
L 219.929361 51.143073 
L 220.254016 27.680673 
L 220.903325 54.388893 
L 221.22798 59.696504 
L 221.552634 49.707122 
L 221.877289 19.296 
L 222.201943 50.959843 
L 222.526598 19.296 
L 222.851252 52.922402 
L 223.175907 20.487491 
L 223.500561 24.861056 
L 223.825216 34.740612 
L 224.149871 66.77904 
L 224.474525 25.187726 
L 224.79918 44.245868 
L 225.123834 82.303018 
L 225.448489 65.244522 
L 225.773143 35.743404 
L 226.097798 28.45533 
L 226.422452 76.163818 
L 226.747107 85.851193 
L 227.071761 61.727 
L 227.396416 49.242648 
L 227.721071 128.730568 
L 228.045725 81.379445 
L 228.37038 84.116406 
L 229.019689 125.924728 
L 229.344343 121.533392 
L 229.668998 52.656801 
L 229.993652 94.556403 
L 230.642961 55.612789 
L 230.967616 139.412568 
L 231.292271 117.717956 
L 231.616925 150.253262 
L 231.94158 114.244648 
L 232.266234 130.675679 
L 232.590889 94.033664 
L 232.915543 74.748835 
L 233.240198 91.975277 
L 233.564852 76.550876 
L 233.889507 112.383292 
L 234.214161 71.914075 
L 234.538816 60.826512 
L 234.863471 75.246893 
L 235.188125 75.725899 
L 235.51278 88.099633 
L 235.837434 64.385718 
L 236.162089 65.047845 
L 236.486743 69.391315 
L 236.811398 79.569633 
L 237.136052 59.460392 
L 237.460707 59.434381 
L 237.785361 57.344832 
L 238.110016 61.338435 
L 238.434671 54.773768 
L 238.759325 54.41646 
L 239.08398 66.771884 
L 239.408634 103.272097 
L 240.057943 55.921013 
L 240.382598 57.651333 
L 240.707252 72.202595 
L 241.031907 116.540899 
L 241.356561 59.547139 
L 241.681216 119.020206 
L 242.005871 122.412563 
L 242.330525 86.566725 
L 242.65518 107.303865 
L 242.979834 99.667443 
L 243.304489 58.789326 
L 243.629143 60.116322 
L 243.953798 39.269081 
L 244.603107 53.485019 
L 244.927761 50.716066 
L 245.577071 86.145993 
L 245.901725 78.206796 
L 246.22638 139.85148 
L 246.551034 69.882785 
L 246.875689 38.259908 
L 247.200343 63.570713 
L 247.524998 51.29605 
L 247.849652 48.984759 
L 248.174307 49.987844 
L 248.498961 33.039619 
L 248.823616 87.367535 
L 249.148271 82.377825 
L 249.472925 59.466265 
L 249.79758 86.597562 
L 250.122234 30.830909 
L 250.446889 55.658069 
L 250.771543 44.744908 
L 251.096198 72.145062 
L 251.420852 49.254552 
L 251.745507 45.758258 
L 252.070161 40.965085 
L 252.394816 19.296 
L 252.719471 105.661333 
L 253.044125 114.958673 
L 253.36878 84.470618 
L 253.693434 91.930641 
L 254.018089 105.203483 
L 254.342743 98.521179 
L 254.667398 94.952124 
L 254.992052 85.775599 
L 255.316707 95.896453 
L 255.641361 94.541382 
L 255.966016 139.642885 
L 256.290671 129.262425 
L 256.93998 53.359707 
L 257.264634 34.828352 
L 257.589289 29.661519 
L 258.238598 91.050777 
L 258.563252 103.318068 
L 258.887907 34.273671 
L 259.212561 56.117765 
L 259.537216 90.689199 
L 259.861871 27.182743 
L 260.186525 89.185687 
L 260.51118 77.073307 
L 260.835834 109.794993 
L 261.160489 87.62036 
L 261.485143 37.616719 
L 261.809798 19.480758 
L 262.134452 27.902642 
L 262.459107 79.108649 
L 263.108416 41.171084 
L 263.433071 78.797971 
L 263.757725 44.53907 
L 264.08238 23.909035 
L 264.407034 68.190139 
L 264.731689 42.203919 
L 265.056343 49.255706 
L 265.380998 49.074641 
L 265.705652 102.325879 
L 266.030307 75.225685 
L 266.354961 59.199178 
L 266.679616 141.548972 
L 267.004271 122.989265 
L 267.328925 130.389828 
L 267.978234 75.230115 
L 268.302889 42.795417 
L 268.627543 29.939342 
L 268.952198 35.872823 
L 269.276852 71.379306 
L 269.601507 86.430038 
L 269.926161 39.013701 
L 270.250816 42.528054 
L 270.575471 48.315872 
L 270.900125 79.421101 
L 271.22478 47.648908 
L 271.874089 44.934975 
L 272.198743 76.952729 
L 272.523398 90.585549 
L 273.172707 40.686917 
L 273.822016 123.205436 
L 274.146671 57.555269 
L 274.471325 58.393427 
L 274.79598 39.67216 
L 275.120634 38.209033 
L 275.445289 68.737476 
L 275.769943 76.764414 
L 276.094598 62.805115 
L 276.419252 20.162033 
L 276.743907 37.510158 
L 277.068561 36.963595 
L 277.393216 84.680348 
L 277.717871 62.917495 
L 278.042525 83.547409 
L 278.36718 87.980449 
L 278.691834 47.555277 
L 279.016489 101.136894 
L 279.341143 53.905428 
L 279.665798 28.716339 
L 279.990452 46.178333 
L 280.315107 96.913534 
L 280.639761 100.636108 
L 281.289071 60.453841 
L 281.613725 62.988509 
L 281.93838 47.096133 
L 282.263034 117.250551 
L 282.587689 43.233445 
L 282.912343 40.22419 
L 283.561652 81.796852 
L 283.886307 56.338462 
L 284.210961 98.110785 
L 284.535616 38.060786 
L 284.860271 123.151255 
L 285.184925 159.156735 
L 285.50958 133.425088 
L 285.834234 183.489828 
L 286.158889 141.468064 
L 286.483543 131.222035 
L 286.808198 68.531781 
L 287.132852 42.750706 
L 287.457507 76.137723 
L 288.106816 170.673082 
L 288.431471 102.035536 
L 288.756125 121.047014 
L 289.08078 120.100839 
L 289.405434 115.687799 
L 289.730089 144.029183 
L 290.054743 139.894589 
L 290.379398 109.572907 
L 290.704052 119.367664 
L 291.028707 90.636253 
L 291.353361 79.766218 
L 291.678016 45.089765 
L 292.002671 33.898363 
L 292.327325 34.170078 
L 292.65198 88.863682 
L 292.976634 34.695464 
L 293.625943 144.619659 
L 293.950598 114.421822 
L 294.275252 126.084506 
L 294.599907 37.070395 
L 294.924561 31.890171 
L 295.249216 32.95357 
L 295.573871 46.475116 
L 295.898525 115.321662 
L 296.22318 117.471618 
L 296.547834 110.103392 
L 296.872489 77.032027 
L 297.197143 94.950217 
L 297.521798 105.650454 
L 297.846452 88.225983 
L 298.171107 166.810523 
L 298.495761 56.296257 
L 298.820416 37.829736 
L 299.145071 36.752091 
L 299.469725 48.753977 
L 299.79438 64.933276 
L 300.119034 139.88864 
L 300.443689 112.39847 
L 300.768343 107.418594 
L 301.092998 60.777304 
L 301.417652 64.002134 
L 301.742307 117.708704 
L 302.066961 65.557907 
L 302.391616 84.816189 
L 302.716271 58.737597 
L 303.040925 76.83729 
L 303.36558 162.14691 
L 303.690234 102.974646 
L 304.014889 104.571017 
L 304.339543 99.287829 
L 304.664198 119.810288 
L 304.988852 103.890092 
L 305.313507 101.11875 
L 305.638161 145.659746 
L 305.962816 107.283056 
L 306.287471 135.829529 
L 306.612125 131.404212 
L 306.93678 88.146393 
L 307.261434 78.151527 
L 307.910743 110.920195 
L 308.235398 68.70103 
L 308.560052 74.078363 
L 308.884707 85.121314 
L 309.209361 59.888106 
L 309.534016 45.455457 
L 309.858671 89.794517 
L 310.183325 95.320292 
L 310.50798 92.605104 
L 310.832634 42.770679 
L 311.157289 42.554267 
L 311.481943 79.2698 
L 311.806598 74.961869 
L 312.131252 68.860829 
L 312.455907 113.222886 
L 312.780561 119.050542 
L 313.105216 61.636096 
L 313.429871 72.282524 
L 313.754525 38.717886 
L 314.07918 105.471596 
L 314.403834 55.591833 
L 314.728489 50.052557 
L 315.053143 56.14596 
L 315.377798 55.03867 
L 315.702452 54.357873 
L 316.027107 70.822043 
L 316.351761 97.016189 
L 316.676416 93.530854 
L 317.001071 96.325428 
L 317.325725 89.657717 
L 317.65038 70.338446 
L 317.975034 77.494826 
L 318.624343 58.46307 
L 318.948998 95.71974 
L 319.273652 63.462554 
L 319.598307 63.464818 
L 319.922961 100.701533 
L 320.572271 64.118297 
L 320.896925 107.066074 
L 321.22158 100.266941 
L 321.546234 139.667039 
L 321.870889 94.122609 
L 322.195543 121.93896 
L 322.520198 118.487293 
L 322.844852 119.205199 
L 323.169507 64.066824 
L 323.494161 41.630194 
L 323.818816 124.42626 
L 324.143471 123.780204 
L 324.468125 147.203185 
L 324.79278 79.682889 
L 325.117434 92.331688 
L 325.442089 131.43412 
L 325.766743 84.225599 
L 326.416052 75.60223 
L 326.740707 76.854416 
L 327.065361 62.122922 
L 327.390016 59.540311 
L 327.714671 31.41884 
L 328.039325 72.229642 
L 328.36398 74.968583 
L 328.688634 108.041622 
L 329.013289 39.379373 
L 329.337943 59.024753 
L 329.662598 47.528949 
L 329.987252 133.729493 
L 330.311907 131.558897 
L 330.636561 130.691992 
L 330.961216 78.386612 
L 331.285871 82.453323 
L 331.610525 69.808636 
L 331.93518 125.560471 
L 332.259834 123.801038 
L 332.584489 137.006692 
L 332.909143 171.136195 
L 333.233798 226.685057 
L 333.558452 216.275031 
L 333.883107 98.397755 
L 334.207761 177.778984 
L 334.532416 81.992188 
L 335.50638 27.488586 
L 335.831034 40.424168 
L 336.155689 116.533707 
L 336.480343 62.128291 
L 336.804998 101.023935 
L 337.129652 95.2647 
L 337.454307 126.481474 
L 337.778961 95.360382 
L 338.103616 95.739202 
L 338.752925 68.111403 
L 339.07758 105.655968 
L 339.402234 100.59117 
L 340.051543 110.763868 
L 340.376198 112.411993 
L 340.700852 111.406367 
L 341.025507 100.390457 
L 341.350161 23.994137 
L 341.999471 80.304968 
L 342.324125 65.59387 
L 342.64878 115.040345 
L 342.973434 123.317512 
L 343.298089 184.186063 
L 343.947398 91.568021 
L 344.272052 145.073694 
L 344.596707 171.389475 
L 344.921361 176.954677 
L 345.246016 179.634201 
L 345.570671 147.322817 
L 345.895325 149.026701 
L 346.869289 75.784038 
L 347.193943 19.296 
L 347.518598 62.711004 
L 347.843252 150.495224 
L 348.167907 106.785913 
L 348.492561 125.586022 
L 348.817216 171.298927 
L 349.141871 167.961111 
L 349.466525 106.119455 
L 349.79118 127.399194 
L 350.115834 73.526823 
L 351.089798 172.975209 
L 351.414452 129.780632 
L 351.739107 105.505211 
L 352.063761 62.23642 
L 352.388416 111.673688 
L 352.713071 30.756203 
L 353.037725 101.041129 
L 353.36238 70.051559 
L 353.687034 106.30596 
L 354.011689 76.884611 
L 354.336343 106.772919 
L 354.660998 112.402397 
L 354.985652 94.207167 
L 355.310307 164.796905 
L 355.634961 59.474771 
L 355.959616 133.01473 
L 356.284271 119.451443 
L 356.608925 124.007147 
L 356.93358 94.317493 
L 357.258234 40.458881 
L 357.582889 118.156805 
L 357.907543 81.304049 
L 358.232198 91.817081 
L 358.556852 60.440358 
L 358.881507 42.139272 
L 359.206161 65.592772 
L 359.530816 40.195416 
L 359.855471 61.625894 
L 360.180125 39.291426 
L 360.50478 80.124886 
L 361.154089 44.078649 
L 361.478743 51.880995 
L 361.803398 43.023583 
L 362.128052 43.011257 
L 362.452707 31.941154 
L 362.777361 31.674609 
L 363.102016 32.866909 
L 363.426671 19.296 
L 363.751325 23.429382 
L 364.07598 43.177689 
L 364.400634 25.980581 
L 364.725289 93.800336 
L 365.049943 63.462513 
L 365.049943 63.462513 
" clip-path="url(#p6c66aa0e87)" style="fill: none; stroke: #d1dae9; stroke-width: 1.5; stroke-linecap: square"/>
   </g>
   <g id="line2d_14">
    <path d="M 40.395398 90.725063 
L 40.720052 63.935059 
L 41.044707 110.865745 
L 41.369361 129.899563 
L 41.694016 107.413722 
L 42.018671 144.838289 
L 42.343325 115.75797 
L 42.66798 70.912449 
L 42.992634 83.993602 
L 43.317289 63.224708 
L 43.641943 54.712455 
L 43.966598 58.231599 
L 44.291252 67.736309 
L 44.940561 117.576196 
L 45.589871 78.661318 
L 45.914525 77.279429 
L 46.23918 74.886408 
L 46.563834 101.471633 
L 46.888489 78.158889 
L 47.213143 78.313241 
L 47.537798 79.135566 
L 47.862452 27.016235 
L 48.187107 29.422371 
L 48.511761 29.115739 
L 48.836416 26.743368 
L 49.161071 67.815302 
L 49.485725 62.304661 
L 49.81038 33.66578 
L 50.135034 40.663702 
L 50.459689 20.341854 
L 50.784343 45.975438 
L 51.108998 36.799413 
L 51.433652 34.218295 
L 51.758307 102.76607 
L 52.082961 109.358564 
L 52.732271 27.243546 
L 53.056925 30.572748 
L 53.706234 46.079159 
L 54.030889 72.615106 
L 54.355543 31.829422 
L 54.680198 61.920423 
L 55.004852 31.59568 
L 55.329507 36.10701 
L 55.654161 86.501309 
L 55.978816 65.028687 
L 56.303471 34.184325 
L 56.628125 26.624514 
L 56.95278 63.332659 
L 57.277434 43.324294 
L 57.602089 71.732484 
L 57.926743 121.099082 
L 58.251398 35.298001 
L 58.576052 38.76871 
L 58.900707 68.938735 
L 59.225361 74.480009 
L 59.550016 59.685875 
L 59.874671 67.629248 
L 60.199325 62.721993 
L 60.52398 40.675101 
L 60.848634 39.422178 
L 61.497943 78.024643 
L 61.822598 61.259473 
L 62.147252 25.020601 
L 62.471907 22.247994 
L 62.796561 88.815506 
L 63.121216 68.086955 
L 63.445871 30.694436 
L 63.770525 19.296 
L 64.09518 64.083755 
L 64.419834 56.780216 
L 64.744489 31.619807 
L 65.069143 37.354803 
L 65.393798 45.622269 
L 65.718452 48.774499 
L 66.367761 44.624548 
L 66.692416 49.713438 
L 67.017071 43.799658 
L 67.341725 33.221114 
L 67.991034 55.163723 
L 68.315689 33.560861 
L 68.640343 95.369863 
L 68.964998 37.347429 
L 69.289652 116.858591 
L 69.614307 24.63854 
L 69.938961 49.862745 
L 70.263616 91.266382 
L 70.588271 90.419499 
L 70.912925 55.391067 
L 71.23758 69.775325 
L 71.562234 28.552812 
L 71.886889 19.296 
L 72.211543 26.056716 
L 72.536198 40.388584 
L 72.860852 31.561994 
L 73.185507 19.296 
L 73.510161 19.296 
L 73.834816 37.629938 
L 74.159471 68.313706 
L 74.484125 63.188555 
L 75.133434 108.843924 
L 75.458089 76.325791 
L 75.782743 135.651748 
L 76.107398 130.93854 
L 76.432052 106.553694 
L 76.756707 69.8847 
L 77.081361 56.973514 
L 77.406016 29.305358 
L 77.730671 55.1347 
L 78.055325 125.651701 
L 78.37998 32.314914 
L 79.029289 67.306626 
L 79.353943 57.6953 
L 79.678598 41.85109 
L 80.003252 59.739126 
L 80.327907 88.111211 
L 80.652561 102.142823 
L 80.977216 57.604291 
L 81.301871 58.367069 
L 81.626525 79.905875 
L 81.95118 87.758092 
L 82.275834 58.693141 
L 82.600489 72.971138 
L 82.925143 117.046463 
L 83.249798 89.46009 
L 83.574452 76.185684 
L 84.223761 133.025346 
L 84.548416 139.596746 
L 84.873071 118.839598 
L 85.197725 31.097535 
L 85.52238 46.785478 
L 85.847034 34.077104 
L 86.171689 32.616028 
L 86.496343 32.744192 
L 86.820998 25.665925 
L 87.145652 22.321587 
L 87.794961 101.005127 
L 88.119616 68.275791 
L 88.444271 85.221728 
L 88.768925 73.765169 
L 89.09358 19.573349 
L 89.742889 87.391776 
L 90.067543 73.175895 
L 90.392198 32.459109 
L 90.716852 80.708461 
L 91.041507 103.790928 
L 91.366161 77.974189 
L 91.690816 114.776012 
L 92.015471 137.322651 
L 92.340125 105.469472 
L 92.66478 140.220419 
L 93.638743 54.374279 
L 93.963398 79.451597 
L 94.288052 20.521595 
L 94.612707 27.473589 
L 94.937361 25.814954 
L 95.262016 19.296 
L 95.586671 54.733335 
L 95.911325 66.752438 
L 96.23598 53.838884 
L 96.560634 50.47203 
L 96.885289 43.4426 
L 97.209943 48.603672 
L 97.534598 42.842448 
L 97.859252 58.368653 
L 98.183907 53.035439 
L 98.508561 19.296 
L 98.833216 19.296 
L 99.157871 71.931971 
L 99.482525 72.97739 
L 100.131834 71.947049 
L 100.456489 73.720945 
L 100.781143 73.224103 
L 101.105798 75.260316 
L 101.430452 93.152204 
L 101.755107 89.662994 
L 102.079761 88.745606 
L 102.404416 53.467323 
L 102.729071 57.684762 
L 103.053725 51.989489 
L 103.37838 51.035963 
L 103.703034 50.851579 
L 104.027689 48.603373 
L 104.352343 80.053813 
L 104.676998 59.603969 
L 105.001652 88.046128 
L 105.326307 60.359267 
L 105.975616 42.645585 
L 106.300271 19.296 
L 106.624925 60.006774 
L 107.274234 44.093113 
L 107.598889 57.573748 
L 107.923543 102.885663 
L 108.248198 120.851057 
L 108.572852 113.855156 
L 109.222161 60.781643 
L 109.546816 64.753783 
L 109.871471 78.632838 
L 110.196125 63.348494 
L 110.52078 37.677142 
L 110.845434 58.3487 
L 111.170089 107.046738 
L 111.494743 57.515954 
L 111.819398 51.462411 
L 112.144052 104.221336 
L 112.468707 63.572617 
L 112.793361 54.52632 
L 113.118016 56.517184 
L 113.442671 54.271098 
L 113.767325 45.359162 
L 114.09198 50.717895 
L 114.416634 35.215362 
L 114.741289 42.945707 
L 115.390598 41.393062 
L 115.715252 19.296 
L 116.039907 41.688299 
L 116.364561 39.652733 
L 116.689216 58.990866 
L 117.013871 43.347987 
L 117.338525 42.889876 
L 117.66318 116.007446 
L 117.987834 59.562222 
L 118.312489 51.119468 
L 118.637143 80.571412 
L 119.286452 107.637105 
L 119.611107 65.556888 
L 119.935761 70.131973 
L 120.260416 114.117354 
L 120.585071 82.79989 
L 120.909725 96.635511 
L 121.23438 77.473682 
L 121.559034 79.193771 
L 121.883689 84.169116 
L 122.208343 73.38694 
L 122.532998 19.296 
L 123.182307 95.934176 
L 123.506961 49.672078 
L 123.831616 49.199811 
L 124.156271 44.636263 
L 124.480925 83.373015 
L 124.80558 48.515025 
L 125.130234 49.684355 
L 125.454889 53.060088 
L 125.779543 73.862533 
L 126.104198 63.323639 
L 126.428852 121.912872 
L 126.753507 151.36262 
L 127.078161 137.420663 
L 127.402816 102.552822 
L 127.727471 88.256437 
L 128.052125 108.752742 
L 128.37678 108.849773 
L 128.701434 76.358186 
L 129.026089 140.082614 
L 129.350743 123.073455 
L 129.675398 116.617401 
L 130.000052 42.360344 
L 130.324707 97.051217 
L 130.649361 119.171566 
L 130.974016 68.634883 
L 131.298671 112.223766 
L 131.623325 107.993518 
L 131.94798 84.236683 
L 132.272634 75.758938 
L 132.597289 72.115226 
L 132.921943 83.417278 
L 133.246598 87.77122 
L 133.571252 150.513161 
L 133.895907 98.828692 
L 134.545216 65.970948 
L 134.869871 122.279883 
L 135.194525 154.946831 
L 135.51918 115.450641 
L 135.843834 54.208434 
L 136.493143 67.800754 
L 136.817798 55.41359 
L 137.142452 25.975071 
L 137.467107 99.511414 
L 137.791761 64.055149 
L 138.116416 93.258435 
L 138.765725 83.725515 
L 139.09038 84.304828 
L 139.415034 83.043159 
L 139.739689 76.807963 
L 140.064343 111.102628 
L 140.388998 106.257892 
L 141.038307 87.714994 
L 141.362961 115.03374 
L 141.687616 84.068544 
L 142.012271 93.345624 
L 142.336925 78.809896 
L 142.66158 79.514671 
L 142.986234 79.274375 
L 143.310889 76.633185 
L 143.635543 84.01312 
L 143.960198 136.316959 
L 144.284852 122.274993 
L 144.609507 177.917543 
L 144.934161 159.043389 
L 145.258816 110.5667 
L 145.583471 176.147038 
L 146.23278 112.751347 
L 146.557434 110.551332 
L 146.882089 112.353014 
L 147.206743 102.810344 
L 147.531398 106.989121 
L 147.856052 124.379956 
L 148.180707 120.210172 
L 148.505361 102.951653 
L 148.830016 112.374062 
L 149.154671 102.070057 
L 149.479325 125.000833 
L 149.80398 157.080732 
L 150.453289 122.059355 
L 150.777943 77.661319 
L 151.427252 127.250082 
L 151.751907 111.588966 
L 152.076561 73.02208 
L 152.401216 50.179994 
L 153.050525 20.643 
L 153.37518 123.7724 
L 153.699834 91.437611 
L 154.024489 102.313062 
L 154.673798 19.296 
L 154.998452 52.776234 
L 155.323107 41.624829 
L 155.647761 124.936216 
L 155.972416 48.486843 
L 156.297071 103.997441 
L 156.94638 114.171181 
L 157.595689 43.515199 
L 157.920343 69.780784 
L 158.244998 48.534385 
L 158.569652 19.296 
L 158.894307 27.782199 
L 159.218961 29.19061 
L 159.543616 107.685341 
L 160.192925 19.296 
L 160.51758 96.479415 
L 160.842234 111.503203 
L 161.166889 95.983252 
L 161.491543 93.850115 
L 161.816198 70.288173 
L 162.140852 104.048245 
L 162.465507 76.941107 
L 162.790161 40.133403 
L 163.114816 93.997757 
L 163.439471 77.561043 
L 163.764125 109.541001 
L 164.08878 84.537483 
L 164.413434 87.0365 
L 164.738089 112.299801 
L 165.387398 53.402899 
L 165.712052 66.250409 
L 166.036707 19.296 
L 166.686016 91.720977 
L 167.010671 86.733979 
L 167.335325 135.890202 
L 167.984634 80.791132 
L 168.309289 107.546209 
L 168.633943 86.889848 
L 168.958598 97.045909 
L 169.283252 62.928962 
L 169.607907 82.516902 
L 169.932561 72.695181 
L 170.257216 44.538019 
L 170.581871 105.957206 
L 170.906525 113.79784 
L 171.23118 124.74333 
L 171.555834 57.973284 
L 171.880489 74.919908 
L 172.205143 54.735119 
L 172.529798 25.84534 
L 172.854452 19.296 
L 173.179107 19.296 
L 173.503761 56.804016 
L 173.828416 119.313222 
L 174.153071 94.7229 
L 174.477725 44.04559 
L 174.80238 63.336729 
L 175.127034 71.79143 
L 175.451689 101.587053 
L 175.776343 69.101774 
L 176.100998 49.629507 
L 176.425652 55.699073 
L 176.750307 66.646332 
L 177.074961 29.427179 
L 177.399616 79.569028 
L 177.724271 65.100174 
L 178.048925 59.076233 
L 178.37358 85.852979 
L 179.022889 54.982798 
L 179.347543 94.203922 
L 179.672198 48.828856 
L 179.996852 28.084827 
L 180.321507 48.447308 
L 180.646161 22.525711 
L 181.295471 92.553472 
L 181.620125 95.504592 
L 181.94478 42.584513 
L 182.594089 29.406709 
L 183.243398 64.998456 
L 183.568052 30.239323 
L 183.892707 39.943352 
L 184.217361 59.61045 
L 184.542016 112.490299 
L 184.866671 51.123069 
L 185.191325 63.013601 
L 185.51598 27.69215 
L 185.840634 34.718412 
L 186.165289 86.786196 
L 186.489943 47.336711 
L 186.814598 47.846373 
L 187.139252 86.852786 
L 187.463907 43.801415 
L 187.788561 91.561438 
L 188.113216 64.245509 
L 188.437871 46.468155 
L 188.762525 68.142031 
L 189.08718 52.115368 
L 189.411834 51.251603 
L 189.736489 64.783174 
L 190.061143 54.284773 
L 190.385798 130.17626 
L 190.710452 100.607966 
L 191.035107 88.616559 
L 191.359761 90.862054 
L 191.684416 114.787578 
L 192.333725 63.218744 
L 192.65838 75.410549 
L 192.983034 105.034902 
L 193.307689 73.950228 
L 193.632343 58.559848 
L 193.956998 102.002396 
L 194.281652 49.930184 
L 194.606307 47.277055 
L 194.930961 102.169334 
L 195.255616 105.352373 
L 195.580271 90.983967 
L 195.904925 106.835246 
L 196.22958 68.07736 
L 196.554234 144.106848 
L 196.878889 80.743856 
L 197.203543 104.392578 
L 197.852852 86.789627 
L 198.177507 127.211476 
L 198.502161 81.291165 
L 198.826816 73.474367 
L 199.151471 49.85551 
L 199.476125 45.461642 
L 200.125434 55.316432 
L 200.450089 162.704008 
L 200.774743 95.252862 
L 201.099398 103.507457 
L 201.424052 55.578051 
L 201.748707 74.418019 
L 202.073361 69.797998 
L 202.398016 91.222143 
L 202.722671 82.018958 
L 203.047325 38.491358 
L 203.37198 24.293657 
L 203.696634 29.902273 
L 204.021289 83.665107 
L 204.345943 38.281174 
L 204.670598 75.524797 
L 204.995252 52.439452 
L 205.319907 64.795096 
L 205.644561 47.856221 
L 205.969216 19.296 
L 206.293871 46.025759 
L 206.618525 19.296 
L 206.94318 61.410944 
L 207.267834 89.021916 
L 207.592489 19.296 
L 207.917143 52.406551 
L 208.241798 71.074663 
L 208.566452 69.336216 
L 208.891107 35.012159 
L 209.215761 27.127803 
L 209.540416 27.111727 
L 209.865071 56.403214 
L 210.189725 29.852312 
L 210.839034 78.960708 
L 211.163689 35.817888 
L 211.488343 86.221468 
L 211.812998 63.020235 
L 212.137652 60.763096 
L 212.462307 56.125252 
L 212.786961 84.723867 
L 213.111616 58.50066 
L 213.436271 59.035403 
L 213.760925 36.799208 
L 214.08558 49.824814 
L 214.410234 104.285227 
L 214.734889 105.557002 
L 215.059543 56.2253 
L 215.384198 59.528403 
L 215.708852 65.950653 
L 216.033507 67.269496 
L 216.358161 61.102097 
L 216.682816 69.502023 
L 217.007471 57.122574 
L 217.332125 62.811472 
L 217.65678 54.401873 
L 217.981434 66.096323 
L 218.306089 92.084643 
L 218.630743 48.503937 
L 218.955398 21.714777 
L 219.280052 61.404409 
L 219.604707 40.787094 
L 219.929361 54.585586 
L 220.254016 47.24225 
L 220.578671 49.06526 
L 220.903325 62.263535 
L 221.22798 69.139046 
L 221.552634 60.037798 
L 221.877289 60.558361 
L 222.201943 86.449638 
L 222.526598 55.798913 
L 222.851252 58.284139 
L 223.175907 96.537634 
L 223.500561 74.936461 
L 223.825216 73.894089 
L 224.149871 117.822246 
L 224.474525 86.519676 
L 224.79918 99.074213 
L 225.123834 86.096333 
L 225.448489 67.322165 
L 225.773143 68.457732 
L 226.097798 142.430814 
L 226.422452 115.885113 
L 226.747107 62.36346 
L 227.071761 71.878014 
L 227.396416 105.20673 
L 227.721071 52.926338 
L 228.045725 88.868683 
L 228.37038 137.203405 
L 228.695034 61.463207 
L 229.344343 91.481622 
L 229.668998 82.290339 
L 229.993652 127.95039 
L 230.318307 19.296 
L 230.642961 67.026073 
L 230.967616 30.235902 
L 231.292271 41.113392 
L 231.616925 77.175478 
L 231.94158 58.987491 
L 232.266234 101.058543 
L 232.590889 113.611212 
L 232.915543 114.538027 
L 233.240198 106.484779 
L 233.564852 76.123462 
L 233.889507 82.887006 
L 234.214161 84.924746 
L 234.538816 25.181773 
L 234.863471 52.428919 
L 235.188125 56.957385 
L 235.51278 91.388777 
L 236.162089 67.581935 
L 236.811398 28.852405 
L 237.136052 48.318222 
L 237.460707 56.376029 
L 237.785361 19.296 
L 238.110016 19.296 
L 238.434671 77.096713 
L 238.759325 55.83389 
L 239.08398 19.296 
L 239.408634 42.866743 
L 239.733289 19.31152 
L 240.057943 47.177036 
L 240.382598 94.705979 
L 240.707252 77.599391 
L 241.031907 74.77438 
L 241.356561 124.204653 
L 241.681216 97.278746 
L 242.005871 128.231759 
L 242.330525 70.893191 
L 242.65518 69.859102 
L 242.979834 76.127892 
L 243.304489 69.390565 
L 243.629143 41.294628 
L 243.953798 67.654118 
L 244.603107 19.296 
L 244.927761 110.489863 
L 245.901725 79.018936 
L 246.22638 88.641832 
L 247.200343 22.837451 
L 247.524998 36.649663 
L 247.849652 33.101082 
L 248.174307 33.854101 
L 248.498961 60.736145 
L 248.823616 50.287722 
L 249.148271 30.495639 
L 249.472925 86.110648 
L 249.79758 38.211783 
L 250.122234 72.099233 
L 250.446889 25.912075 
L 250.771543 28.763906 
L 251.096198 45.920472 
L 251.420852 19.296 
L 251.745507 19.296 
L 252.070161 32.469758 
L 252.394816 67.872261 
L 252.719471 81.017176 
L 253.044125 46.950798 
L 253.36878 38.104879 
L 253.693434 25.812964 
L 254.018089 46.868674 
L 254.342743 91.207524 
L 254.667398 58.536994 
L 254.992052 43.083869 
L 255.316707 88.622686 
L 255.641361 89.992324 
L 255.966016 120.058991 
L 256.290671 112.150998 
L 256.93998 40.616837 
L 257.264634 71.906321 
L 257.589289 46.592125 
L 257.913943 30.937015 
L 258.238598 49.136277 
L 258.563252 52.146338 
L 258.887907 35.783228 
L 259.212561 57.380324 
L 259.537216 96.019085 
L 259.861871 73.364744 
L 260.186525 81.012214 
L 260.51118 127.389516 
L 260.835834 92.614928 
L 261.160489 117.592518 
L 261.485143 74.340654 
L 261.809798 130.693378 
L 262.459107 83.40223 
L 262.783761 68.855777 
L 263.108416 69.682169 
L 263.757725 104.59905 
L 264.08238 110.792411 
L 264.407034 43.433327 
L 264.731689 51.522019 
L 265.056343 37.371018 
L 265.380998 31.106049 
L 265.705652 82.455785 
L 266.030307 47.630896 
L 266.354961 60.73285 
L 266.679616 53.680544 
L 267.004271 35.85253 
L 267.328925 40.896698 
L 267.65358 51.58565 
L 267.978234 38.52435 
L 268.302889 51.365493 
L 268.627543 49.682067 
L 268.952198 33.793209 
L 269.276852 30.323705 
L 269.601507 34.029232 
L 269.926161 47.42701 
L 270.250816 39.69629 
L 270.900125 58.747273 
L 271.22478 65.857334 
L 271.549434 32.434425 
L 271.874089 47.943789 
L 272.198743 31.163514 
L 272.523398 25.205842 
L 273.172707 21.961046 
L 273.497361 49.815617 
L 274.146671 19.296 
L 274.471325 25.297142 
L 274.79598 50.330329 
L 275.120634 37.626964 
L 275.445289 69.49525 
L 275.769943 40.940463 
L 276.094598 59.608657 
L 276.419252 60.366866 
L 276.743907 174.597509 
L 277.393216 75.765544 
L 277.717871 87.235453 
L 278.042525 82.474618 
L 278.36718 66.108625 
L 278.691834 74.544893 
L 279.016489 44.262576 
L 279.341143 66.929248 
L 279.665798 37.15406 
L 279.990452 54.105162 
L 280.315107 56.121892 
L 280.639761 117.309701 
L 280.964416 111.448283 
L 281.289071 149.456215 
L 281.613725 144.807928 
L 282.263034 44.747794 
L 282.587689 72.155442 
L 282.912343 136.615465 
L 283.236998 75.221702 
L 283.561652 61.384234 
L 283.886307 28.831771 
L 284.210961 42.507764 
L 284.535616 30.974097 
L 284.860271 67.051416 
L 285.184925 33.010609 
L 285.50958 60.604843 
L 285.834234 58.219802 
L 286.158889 28.619264 
L 286.483543 28.273604 
L 286.808198 36.167271 
L 287.132852 26.214023 
L 287.457507 40.427649 
L 287.782161 45.49316 
L 288.431471 131.930525 
L 288.756125 136.458924 
L 289.08078 129.736032 
L 289.405434 55.787525 
L 290.379398 98.685883 
L 290.704052 103.500284 
L 291.028707 21.565994 
L 291.353361 76.892068 
L 291.678016 76.388444 
L 292.002671 35.157123 
L 292.65198 22.380201 
L 292.976634 41.65723 
L 293.301289 98.876216 
L 293.625943 71.102032 
L 293.950598 69.625578 
L 294.275252 83.846059 
L 294.599907 39.84182 
L 294.924561 47.939809 
L 295.249216 110.368906 
L 295.573871 96.167163 
L 295.898525 110.367149 
L 296.22318 34.342444 
L 296.547834 35.377882 
L 296.872489 84.988396 
L 297.197143 45.437035 
L 297.521798 64.178248 
L 297.846452 93.126427 
L 298.171107 75.088764 
L 298.495761 37.865324 
L 298.820416 39.557377 
L 299.145071 62.249161 
L 299.469725 33.438171 
L 299.79438 33.247743 
L 300.119034 77.474812 
L 300.443689 26.239297 
L 301.092998 113.422802 
L 301.417652 76.012929 
L 301.742307 65.818323 
L 302.066961 39.84275 
L 302.391616 41.97545 
L 302.716271 63.749873 
L 303.040925 96.5948 
L 303.36558 96.273729 
L 303.690234 60.460859 
L 304.014889 91.26189 
L 304.339543 92.095651 
L 304.664198 79.496018 
L 304.988852 72.175284 
L 305.313507 87.262276 
L 305.638161 125.477886 
L 305.962816 119.157546 
L 306.287471 152.902767 
L 306.612125 94.188699 
L 306.93678 117.780944 
L 307.261434 97.369413 
L 307.586089 97.67749 
L 307.910743 88.084379 
L 308.235398 56.407591 
L 308.560052 97.551146 
L 308.884707 83.156639 
L 309.209361 106.450065 
L 309.858671 35.709824 
L 310.183325 63.09266 
L 310.50798 54.798286 
L 310.832634 100.653915 
L 311.157289 40.100836 
L 312.131252 159.374987 
L 312.455907 47.97405 
L 312.780561 41.724086 
L 313.105216 96.586279 
L 313.429871 93.159232 
L 313.754525 110.594113 
L 314.07918 45.399686 
L 314.403834 38.477634 
L 314.728489 111.997081 
L 315.053143 130.437038 
L 315.377798 119.45034 
L 315.702452 113.839158 
L 316.027107 111.882145 
L 316.676416 74.743894 
L 317.001071 63.176546 
L 317.325725 44.81764 
L 317.65038 59.220882 
L 317.975034 79.490447 
L 318.299689 111.610537 
L 318.624343 111.614973 
L 318.948998 125.17474 
L 319.273652 63.711001 
L 319.598307 41.365979 
L 319.922961 69.951803 
L 320.247616 138.720553 
L 320.572271 157.332481 
L 320.896925 162.993964 
L 321.22158 108.844183 
L 321.546234 103.748396 
L 321.870889 149.50663 
L 322.195543 134.070715 
L 322.520198 140.61777 
L 322.844852 170.734302 
L 323.169507 110.201826 
L 323.494161 113.896484 
L 323.818816 82.683942 
L 324.143471 159.827155 
L 324.468125 173.818829 
L 324.79278 135.138902 
L 325.117434 110.640796 
L 325.442089 157.872864 
L 325.766743 70.655814 
L 326.091398 156.31904 
L 326.416052 92.588168 
L 326.740707 61.255193 
L 327.065361 80.371699 
L 327.390016 80.519708 
L 327.714671 47.921937 
L 328.039325 63.960304 
L 328.36398 114.281727 
L 328.688634 90.490558 
L 329.013289 80.208414 
L 329.337943 31.333203 
L 329.662598 81.608213 
L 329.987252 80.467835 
L 330.311907 23.051596 
L 330.636561 107.037883 
L 330.961216 43.887923 
L 331.285871 96.927323 
L 331.610525 78.748998 
L 331.93518 130.186761 
L 332.259834 122.150929 
L 332.584489 134.996213 
L 332.909143 164.962374 
L 333.558452 105.653421 
L 333.883107 148.518377 
L 334.207761 97.25596 
L 334.532416 121.729312 
L 334.857071 137.400629 
L 335.181725 130.272892 
L 335.50638 114.334674 
L 335.831034 115.155326 
L 336.155689 168.756035 
L 336.804998 116.242697 
L 337.129652 114.910975 
L 337.454307 124.949323 
L 337.778961 151.73688 
L 338.103616 106.212654 
L 338.428271 91.326315 
L 338.752925 126.487154 
L 339.07758 111.446888 
L 339.402234 102.875955 
L 339.726889 87.20358 
L 340.051543 60.807636 
L 340.376198 49.946914 
L 340.700852 98.460204 
L 341.025507 102.067478 
L 341.350161 138.410573 
L 341.999471 27.317686 
L 342.324125 48.554471 
L 342.64878 61.099141 
L 342.973434 62.783107 
L 343.298089 99.594504 
L 343.622743 87.14442 
L 343.947398 57.194141 
L 344.272052 41.101691 
L 344.596707 56.575606 
L 344.921361 107.936705 
L 345.246016 56.988364 
L 345.570671 85.144004 
L 345.895325 60.094713 
L 346.544634 109.713101 
L 346.869289 87.900767 
L 347.193943 82.95326 
L 347.518598 43.004972 
L 347.843252 97.132325 
L 348.167907 114.081271 
L 348.492561 85.993458 
L 348.817216 70.245114 
L 349.141871 70.9245 
L 349.466525 77.978428 
L 349.79118 40.60869 
L 350.115834 86.478829 
L 350.440489 94.021012 
L 350.765143 161.638759 
L 351.089798 121.977339 
L 351.414452 145.955303 
L 351.739107 139.634026 
L 352.063761 137.407367 
L 353.037725 86.190289 
L 353.36238 111.653592 
L 353.687034 75.621102 
L 354.011689 19.296 
L 354.336343 44.334762 
L 354.660998 35.185568 
L 354.985652 69.574648 
L 355.310307 54.064919 
L 355.634961 66.654601 
L 355.959616 100.280281 
L 356.284271 40.839042 
L 356.608925 34.388209 
L 356.93358 38.3648 
L 357.258234 19.296 
L 357.907543 42.270588 
L 358.232198 34.088038 
L 358.556852 79.499346 
L 358.881507 20.514066 
L 359.206161 19.296 
L 359.530816 103.754424 
L 359.855471 68.545377 
L 360.180125 72.218563 
L 360.50478 52.38392 
L 360.829434 47.282449 
L 361.154089 67.04934 
L 361.478743 48.584823 
L 361.803398 47.6291 
L 362.128052 52.507372 
L 362.452707 72.898219 
L 362.777361 31.73415 
L 363.102016 32.996502 
L 363.426671 58.507094 
L 363.751325 67.468146 
L 364.07598 68.424427 
L 364.400634 83.52958 
L 364.725289 37.14406 
L 365.049943 43.65783 
L 365.049943 43.65783 
" clip-path="url(#p6c66aa0e87)" style="fill: none; stroke: #3a4cc0; stroke-width: 1.5; stroke-linecap: square"/>
   </g>
   <g id="patch_3">
    <path d="M 24.162671 273.312 
L 24.162671 7.2 
" style="fill: none; stroke: #000000; stroke-width: 0.8; stroke-linejoin: miter; stroke-linecap: square"/>
   </g>
   <g id="patch_4">
    <path d="M 381.282671 273.312 
L 381.282671 7.2 
" style="fill: none; stroke: #000000; stroke-width: 0.8; stroke-linejoin: miter; stroke-linecap: square"/>
   </g>
   <g id="patch_5">
    <path d="M 24.162671 273.312 
L 381.282671 273.312 
" style="fill: none; stroke: #000000; stroke-width: 0.8; stroke-linejoin: miter; stroke-linecap: square"/>
   </g>
   <g id="patch_6">
    <path d="M 24.162671 7.2 
L 381.282671 7.2 
" style="fill: none; stroke: #000000; stroke-width: 0.8; stroke-linejoin: miter; stroke-linecap: square"/>
   </g>
   <g id="legend_1">
    <g id="patch_7">
     <path d="M 31.162671 268.312 
L 108.271421 268.312 
Q 110.271421 268.312 110.271421 266.312 
L 110.271421 225.500465 
Q 110.271421 223.500465 108.271421 223.500465 
L 31.162671 223.500465 
Q 29.162671 223.500465 29.162671 225.500465 
L 29.162671 266.312 
Q 29.162671 268.312 31.162671 268.312 
z
" style="fill: #ffffff; opacity: 0.8; stroke: #cccccc; stroke-linejoin: miter"/>
    </g>
    <g id="line2d_15">
     <path d="M 33.162671 231.000465 
L 43.162671 231.000465 
L 53.162671 231.000465 
" style="fill: none; stroke: #e46e56; stroke-width: 1.5; stroke-linecap: square"/>
    </g>
    <g id="text_12">
     <!-- CBO -->
     <g transform="translate(61.162671 234.500465) scale(0.1 -0.1)">
      <defs>
       <path id="CMSS17-43" d="M 3501 714 
C 3072 427 2874 344 2355 344 
C 1459 344 934 1303 934 2179 
C 934 3112 1472 4032 2381 4032 
C 2790 4032 3059 3918 3386 3715 
L 3475 4217 
C 3168 4370 2778 4440 2387 4440 
C 1158 4440 397 3316 397 2179 
C 397 927 1299 -64 2323 -64 
C 2874 -64 3066 -19 3539 280 
L 3501 714 
z
" transform="scale(0.015625)"/>
       <path id="CMSS17-42" d="M 570 4416 
L 570 0 
L 2163 0 
C 3034 0 3667 574 3667 1200 
C 3667 1685 3251 2176 2502 2317 
C 3334 2558 3501 3040 3501 3313 
C 3501 3883 2874 4416 1997 4416 
L 570 4416 
z
M 1088 2496 
L 1088 4059 
L 1824 4059 
C 2483 4059 3002 3724 3002 3306 
C 3002 2926 2592 2496 1766 2496 
L 1088 2496 
z
M 1088 357 
L 1088 2107 
L 1939 2107 
C 2630 2107 3162 1679 3162 1206 
C 3162 772 2694 357 1984 357 
L 1088 357 
z
" transform="scale(0.015625)"/>
       <path id="CMSS17-4f" d="M 4096 2178 
C 4096 3503 3219 4497 2214 4497 
C 1210 4497 333 3497 333 2178 
C 333 847 1222 -128 2214 -128 
C 3206 -128 4096 847 4096 2178 
z
M 2214 273 
C 1510 273 870 1057 870 2261 
C 870 3433 1549 4096 2214 4096 
C 2880 4096 3558 3433 3558 2261 
C 3558 1051 2912 273 2214 273 
z
" transform="scale(0.015625)"/>
      </defs>
      <use xlink:href="#CMSS17-43" transform="scale(0.996264)"/>
      <use xlink:href="#CMSS17-42" transform="translate(59.855772 0) scale(0.996264)"/>
      <use xlink:href="#CMSS17-4f" transform="translate(122.193812 0) scale(0.996264)"/>
     </g>
    </g>
    <g id="line2d_16">
     <path d="M 33.162671 244.937643 
L 43.162671 244.937643 
L 53.162671 244.937643 
" style="fill: none; stroke: #d1dae9; stroke-width: 1.5; stroke-linecap: square"/>
    </g>
    <g id="text_13">
     <!-- SMD-CBO -->
     <g transform="translate(61.162671 248.437643) scale(0.1 -0.1)">
      <defs>
       <path id="CMSS17-53" d="M 2797 4169 
C 2515 4334 2208 4480 1690 4480 
C 864 4480 333 3879 333 3266 
C 333 3025 403 2753 653 2475 
C 902 2196 1184 2121 1542 2033 
C 1690 1994 1939 1924 1984 1906 
C 2342 1767 2515 1444 2515 1140 
C 2515 742 2202 318 1645 318 
C 1453 318 890 318 358 819 
L 269 318 
C 794 -64 1363 -128 1651 -128 
C 2438 -128 3002 488 3002 1186 
C 3002 1440 2925 1763 2656 2061 
C 2394 2347 2163 2410 1638 2549 
C 1338 2626 1146 2677 986 2873 
C 877 3013 819 3146 819 3317 
C 819 3673 1126 4060 1690 4060 
C 1971 4060 2336 4002 2707 3660 
L 2797 4169 
z
" transform="scale(0.015625)"/>
       <path id="CMSS17-4d" d="M 3194 2371 
L 2886 1473 
C 2835 1307 2662 791 2624 587 
L 2618 587 
C 2598 715 2560 849 2458 1174 
C 2400 1365 2336 1562 2272 1741 
L 1325 4416 
L 576 4416 
L 576 0 
L 1075 0 
L 1075 3900 
L 1082 3900 
C 1082 3894 1139 3613 1530 2499 
L 2374 96 
L 2848 96 
L 3610 2231 
C 3661 2378 3821 2843 3891 3066 
C 3955 3257 4115 3728 4154 3913 
L 4160 3913 
L 4160 0 
L 4666 0 
L 4666 4416 
L 3923 4416 
L 3194 2371 
z
" transform="scale(0.015625)"/>
       <path id="CMSS17-44" d="M 570 4416 
L 570 0 
L 2144 0 
C 3194 0 4000 980 4000 2170 
C 4000 3398 3194 4416 2144 4416 
L 570 4416 
z
M 1094 357 
L 1094 4059 
L 2003 4059 
C 2861 4059 3475 3277 3475 2170 
C 3475 1107 2867 357 2003 357 
L 1094 357 
z
" transform="scale(0.015625)"/>
       <path id="CMSS17-2d" d="M 1664 1216 
L 1664 1585 
L 64 1585 
L 64 1216 
L 1664 1216 
z
" transform="scale(0.015625)"/>
      </defs>
      <use xlink:href="#CMSS17-53" transform="scale(0.996264)"/>
      <use xlink:href="#CMSS17-4d" transform="translate(52.048516 0) scale(0.996264)"/>
      <use xlink:href="#CMSS17-44" transform="translate(133.724546 0) scale(0.996264)"/>
      <use xlink:href="#CMSS17-2d" transform="translate(201.267388 0) scale(0.996264)"/>
      <use xlink:href="#CMSS17-43" transform="translate(232.496501 0) scale(0.996264)"/>
      <use xlink:href="#CMSS17-42" transform="translate(292.352272 0) scale(0.996264)"/>
      <use xlink:href="#CMSS17-4f" transform="translate(354.690312 0) scale(0.996264)"/>
     </g>
    </g>
    <g id="line2d_17">
     <path d="M 33.162671 258.874822 
L 43.162671 258.874822 
L 53.162671 258.874822 
" style="fill: none; stroke: #3a4cc0; stroke-width: 1.5; stroke-linecap: square"/>
    </g>
    <g id="text_14">
     <!-- GCN-CBO -->
     <g transform="translate(61.162671 262.374822) scale(0.1 -0.1)">
      <defs>
       <path id="CMSS17-47" d="M 3610 1856 
L 2336 1856 
L 2336 1461 
L 3123 1461 
L 3123 471 
C 2874 401 2618 350 2362 350 
C 1466 350 934 1301 934 2200 
C 934 3095 1491 4032 2362 4032 
C 2854 4032 3130 3881 3469 3627 
L 3552 4134 
C 3130 4351 2867 4440 2387 4440 
C 1146 4440 397 3324 397 2182 
C 397 1090 1152 -64 2349 -64 
C 2797 -64 3213 51 3610 248 
L 3610 1856 
z
" transform="scale(0.015625)"/>
       <path id="CMSS17-4e" d="M 1466 4180 
L 1350 4416 
L 563 4416 
L 563 0 
L 1062 0 
L 1062 3926 
L 1069 3932 
C 1114 3817 1139 3760 1402 3194 
L 2771 236 
L 2886 0 
L 3674 0 
L 3674 4416 
L 3174 4416 
L 3174 490 
L 3168 483 
C 3123 598 3098 655 2835 1221 
L 1466 4180 
z
" transform="scale(0.015625)"/>
      </defs>
      <use xlink:href="#CMSS17-47" transform="scale(0.996264)"/>
      <use xlink:href="#CMSS17-43" transform="translate(62.458226 0) scale(0.996264)"/>
      <use xlink:href="#CMSS17-4e" transform="translate(122.313997 0) scale(0.996264)"/>
      <use xlink:href="#CMSS17-2d" transform="translate(188.375516 0) scale(0.996264)"/>
      <use xlink:href="#CMSS17-43" transform="translate(219.604629 0) scale(0.996264)"/>
      <use xlink:href="#CMSS17-42" transform="translate(279.460401 0) scale(0.996264)"/>
      <use xlink:href="#CMSS17-4f" transform="translate(341.798441 0) scale(0.996264)"/>
     </g>
    </g>
   </g>
  </g>
 </g>
 <defs>
  <clipPath id="p6c66aa0e87">
   <rect x="24.162671" y="7.2" width="357.12" height="266.112"/>
  </clipPath>
 </defs>
</svg>
