<?xml version="1.0" encoding="utf-8" standalone="no"?>
<!DOCTYPE svg PUBLIC "-//W3C//DTD SVG 1.1//EN"
  "http://www.w3.org/Graphics/SVG/1.1/DTD/svg11.dtd">
<svg xmlns:xlink="http://www.w3.org/1999/xlink" width="1113.792304pt" height="296.367677pt" viewBox="0 0 1113.792304 296.367677" xmlns="http://www.w3.org/2000/svg" version="1.1">
 <metadata>
  <rdf:RDF xmlns:dc="http://purl.org/dc/elements/1.1/" xmlns:cc="http://creativecommons.org/ns#" xmlns:rdf="http://www.w3.org/1999/02/22-rdf-syntax-ns#">
   <cc:Work>
    <dc:type rdf:resource="http://purl.org/dc/dcmitype/StillImage"/>
    <dc:date>2026-03-26T21:18:55.310877</dc:date>
    <dc:format>image/svg+xml</dc:format>
    <dc:creator>
     <cc:Agent>
      <dc:title>Matplotlib v3.10.8, https://matplotlib.org/</dc:title>
     </cc:Agent>
    </dc:creator>
   </cc:Work>
  </rdf:RDF>
 </metadata>
 <defs>
  <style type="text/css">*{stroke-linejoin: round; stroke-linecap: butt}</style>
 </defs>
 <g id="figure_1">
  <g id="patch_1">
   <path d="M 0 296.367677 
L 1113.792304 296.367677 
L 1113.792304 0 
L 0 0 
z
" style="fill: #ffffff"/>
  </g>
  <g id="axes_1">
   <g id="patch_2">
    <path d="M 35.232304 273.312 
L 1106.592304 273.312 
L 1106.592304 7.2 
L 35.232304 7.2 
z
" style="fill: #ffffff"/>
   </g>
   <g id="matplotlib.axis_1">
    <g id="xtick_1">
     <g id="line2d_1">
      <path d="M 83.930486 273.312 
L 83.930486 7.2 
" clip-path="url(#pf82e2448c5)" style="fill: none; stroke-dasharray: 2.96,1.28; stroke-dashoffset: 0; stroke: #b0b0b0; stroke-width: 0.8"/>
     </g>
     <g id="line2d_2">
      <defs>
       <path id="m18207b99f2" d="M 0 0 
L 0 3.5 
" style="stroke: #000000; stroke-width: 0.8"/>
      </defs>
      <g>
       <use xlink:href="#m18207b99f2" x="83.930486" y="273.312" style="stroke: #000000; stroke-width: 0.8"/>
      </g>
     </g>
     <g id="text_1">
      <!-- $\mathdefault{0}$ -->
      <g transform="translate(81.439819 287.230498) scale(0.1 -0.1)">
       <defs>
        <path id="CMR17-30" d="M 2688 2025 
C 2688 2416 2682 3080 2413 3591 
C 2176 4039 1798 4198 1466 4198 
C 1158 4198 768 4058 525 3597 
C 269 3118 243 2524 243 2025 
C 243 1661 250 1106 448 619 
C 723 -39 1216 -128 1466 -128 
C 1760 -128 2208 -7 2470 600 
C 2662 1042 2688 1559 2688 2025 
z
M 1466 -26 
C 1056 -26 813 325 723 812 
C 653 1188 653 1738 653 2096 
C 653 2588 653 2997 736 3387 
C 858 3929 1216 4096 1466 4096 
C 1728 4096 2067 3923 2189 3400 
C 2272 3036 2278 2607 2278 2096 
C 2278 1680 2278 1169 2202 792 
C 2067 95 1690 -26 1466 -26 
z
" transform="scale(0.015625)"/>
       </defs>
       <use xlink:href="#CMR17-30" transform="scale(0.996264)"/>
      </g>
     </g>
    </g>
    <g id="xtick_2">
     <g id="line2d_3">
      <path d="M 278.723213 273.312 
L 278.723213 7.2 
" clip-path="url(#pf82e2448c5)" style="fill: none; stroke-dasharray: 2.96,1.28; stroke-dashoffset: 0; stroke: #b0b0b0; stroke-width: 0.8"/>
     </g>
     <g id="line2d_4">
      <g>
       <use xlink:href="#m18207b99f2" x="278.723213" y="273.312" style="stroke: #000000; stroke-width: 0.8"/>
      </g>
     </g>
     <g id="text_2">
      <!-- $\mathdefault{200}$ -->
      <g transform="translate(271.251211 287.230498) scale(0.1 -0.1)">
       <defs>
        <path id="CMR17-32" d="M 2669 989 
L 2554 989 
C 2490 536 2438 459 2413 420 
C 2381 369 1920 369 1830 369 
L 602 369 
C 832 619 1280 1072 1824 1597 
C 2214 1967 2669 2402 2669 3035 
C 2669 3790 2067 4224 1395 4224 
C 691 4224 262 3604 262 3030 
C 262 2780 448 2748 525 2748 
C 589 2748 781 2787 781 3010 
C 781 3207 614 3264 525 3264 
C 486 3264 448 3258 422 3245 
C 544 3790 915 4058 1306 4058 
C 1862 4058 2227 3617 2227 3035 
C 2227 2479 1901 2000 1536 1584 
L 262 146 
L 262 0 
L 2515 0 
L 2669 989 
z
" transform="scale(0.015625)"/>
       </defs>
       <use xlink:href="#CMR17-32" transform="scale(0.996264)"/>
       <use xlink:href="#CMR17-30" transform="translate(45.690477 0) scale(0.996264)"/>
       <use xlink:href="#CMR17-30" transform="translate(91.380954 0) scale(0.996264)"/>
      </g>
     </g>
    </g>
    <g id="xtick_3">
     <g id="line2d_5">
      <path d="M 473.515941 273.312 
L 473.515941 7.2 
" clip-path="url(#pf82e2448c5)" style="fill: none; stroke-dasharray: 2.96,1.28; stroke-dashoffset: 0; stroke: #b0b0b0; stroke-width: 0.8"/>
     </g>
     <g id="line2d_6">
      <g>
       <use xlink:href="#m18207b99f2" x="473.515941" y="273.312" style="stroke: #000000; stroke-width: 0.8"/>
      </g>
     </g>
     <g id="text_3">
      <!-- $\mathdefault{400}$ -->
      <g transform="translate(466.043938 287.230498) scale(0.1 -0.1)">
       <defs>
        <path id="CMR17-34" d="M 2150 4122 
C 2150 4256 2144 4256 2029 4256 
L 128 1254 
L 128 1088 
L 1779 1088 
L 1779 457 
C 1779 224 1766 160 1318 160 
L 1197 160 
L 1197 0 
C 1402 0 1747 0 1965 0 
C 2182 0 2528 0 2733 0 
L 2733 160 
L 2611 160 
C 2163 160 2150 224 2150 457 
L 2150 1088 
L 2803 1088 
L 2803 1254 
L 2150 1254 
L 2150 4122 
z
M 1798 3703 
L 1798 1254 
L 256 1254 
L 1798 3703 
z
" transform="scale(0.015625)"/>
       </defs>
       <use xlink:href="#CMR17-34" transform="scale(0.996264)"/>
       <use xlink:href="#CMR17-30" transform="translate(45.690477 0) scale(0.996264)"/>
       <use xlink:href="#CMR17-30" transform="translate(91.380954 0) scale(0.996264)"/>
      </g>
     </g>
    </g>
    <g id="xtick_4">
     <g id="line2d_7">
      <path d="M 668.308668 273.312 
L 668.308668 7.2 
" clip-path="url(#pf82e2448c5)" style="fill: none; stroke-dasharray: 2.96,1.28; stroke-dashoffset: 0; stroke: #b0b0b0; stroke-width: 0.8"/>
     </g>
     <g id="line2d_8">
      <g>
       <use xlink:href="#m18207b99f2" x="668.308668" y="273.312" style="stroke: #000000; stroke-width: 0.8"/>
      </g>
     </g>
     <g id="text_4">
      <!-- $\mathdefault{600}$ -->
      <g transform="translate(660.836665 287.230498) scale(0.1 -0.1)">
       <defs>
        <path id="CMR17-36" d="M 678 2176 
C 678 3690 1395 4032 1811 4032 
C 1946 4032 2272 4009 2400 3776 
C 2298 3776 2106 3776 2106 3553 
C 2106 3381 2246 3323 2336 3323 
C 2394 3323 2566 3348 2566 3560 
C 2566 3954 2246 4179 1805 4179 
C 1043 4179 243 3390 243 1984 
C 243 253 966 -128 1478 -128 
C 2099 -128 2688 427 2688 1283 
C 2688 2081 2170 2662 1517 2662 
C 1126 2662 838 2407 678 1960 
L 678 2176 
z
M 1478 25 
C 691 25 691 1200 691 1436 
C 691 1896 909 2560 1504 2560 
C 1613 2560 1926 2560 2138 2120 
C 2253 1870 2253 1609 2253 1289 
C 2253 944 2253 690 2118 434 
C 1978 171 1773 25 1478 25 
z
" transform="scale(0.015625)"/>
       </defs>
       <use xlink:href="#CMR17-36" transform="scale(0.996264)"/>
       <use xlink:href="#CMR17-30" transform="translate(45.690477 0) scale(0.996264)"/>
       <use xlink:href="#CMR17-30" transform="translate(91.380954 0) scale(0.996264)"/>
      </g>
     </g>
    </g>
    <g id="xtick_5">
     <g id="line2d_9">
      <path d="M 863.101395 273.312 
L 863.101395 7.2 
" clip-path="url(#pf82e2448c5)" style="fill: none; stroke-dasharray: 2.96,1.28; stroke-dashoffset: 0; stroke: #b0b0b0; stroke-width: 0.8"/>
     </g>
     <g id="line2d_10">
      <g>
       <use xlink:href="#m18207b99f2" x="863.101395" y="273.312" style="stroke: #000000; stroke-width: 0.8"/>
      </g>
     </g>
     <g id="text_5">
      <!-- $\mathdefault{800}$ -->
      <g transform="translate(855.629392 287.230498) scale(0.1 -0.1)">
       <defs>
        <path id="CMR17-38" d="M 1741 2264 
C 2144 2467 2554 2773 2554 3263 
C 2554 3841 1990 4179 1472 4179 
C 890 4179 378 3759 378 3180 
C 378 3021 416 2747 666 2505 
C 730 2442 998 2251 1171 2130 
C 883 1983 211 1634 211 934 
C 211 279 838 -128 1459 -128 
C 2144 -128 2720 362 2720 1010 
C 2720 1590 2330 1857 2074 2029 
L 1741 2264 
z
M 902 2822 
C 851 2854 595 3051 595 3351 
C 595 3739 998 4032 1459 4032 
C 1965 4032 2336 3676 2336 3262 
C 2336 2669 1670 2331 1638 2331 
C 1632 2331 1626 2331 1574 2370 
L 902 2822 
z
M 2080 1519 
C 2176 1449 2483 1240 2483 851 
C 2483 381 2010 25 1472 25 
C 890 25 448 438 448 940 
C 448 1443 838 1862 1280 2060 
L 2080 1519 
z
" transform="scale(0.015625)"/>
       </defs>
       <use xlink:href="#CMR17-38" transform="scale(0.996264)"/>
       <use xlink:href="#CMR17-30" transform="translate(45.690477 0) scale(0.996264)"/>
       <use xlink:href="#CMR17-30" transform="translate(91.380954 0) scale(0.996264)"/>
      </g>
     </g>
    </g>
    <g id="xtick_6">
     <g id="line2d_11">
      <path d="M 1057.894123 273.312 
L 1057.894123 7.2 
" clip-path="url(#pf82e2448c5)" style="fill: none; stroke-dasharray: 2.96,1.28; stroke-dashoffset: 0; stroke: #b0b0b0; stroke-width: 0.8"/>
     </g>
     <g id="line2d_12">
      <g>
       <use xlink:href="#m18207b99f2" x="1057.894123" y="273.312" style="stroke: #000000; stroke-width: 0.8"/>
      </g>
     </g>
     <g id="text_6">
      <!-- $\mathdefault{1000}$ -->
      <g transform="translate(1047.931452 287.230498) scale(0.1 -0.1)">
       <defs>
        <path id="CMR17-31" d="M 1702 4058 
C 1702 4192 1696 4192 1606 4192 
C 1357 3916 979 3827 621 3827 
C 602 3827 570 3827 563 3808 
C 557 3795 557 3782 557 3648 
C 755 3648 1088 3686 1344 3839 
L 1344 461 
C 1344 236 1331 160 781 160 
L 589 160 
L 589 0 
C 896 0 1216 0 1523 0 
C 1830 0 2150 0 2458 0 
L 2458 160 
L 2266 160 
C 1715 160 1702 230 1702 458 
L 1702 4058 
z
" transform="scale(0.015625)"/>
       </defs>
       <use xlink:href="#CMR17-31" transform="scale(0.996264)"/>
       <use xlink:href="#CMR17-30" transform="translate(45.690477 0) scale(0.996264)"/>
       <use xlink:href="#CMR17-30" transform="translate(91.380954 0) scale(0.996264)"/>
       <use xlink:href="#CMR17-30" transform="translate(137.071431 0) scale(0.996264)"/>
      </g>
     </g>
    </g>
   </g>
   <g id="matplotlib.axis_2">
    <g id="ytick_1">
     <g id="line2d_13">
      <path d="M 35.232304 261.660924 
L 1106.592304 261.660924 
" clip-path="url(#pf82e2448c5)" style="fill: none; stroke-dasharray: 2.96,1.28; stroke-dashoffset: 0; stroke: #b0b0b0; stroke-width: 0.8"/>
     </g>
     <g id="line2d_14">
      <defs>
       <path id="m08465b4d9c" d="M 0 0 
L -3.5 0 
" style="stroke: #000000; stroke-width: 0.8"/>
      </defs>
      <g>
       <use xlink:href="#m08465b4d9c" x="35.232304" y="261.660924" style="stroke: #000000; stroke-width: 0.8"/>
      </g>
     </g>
     <g id="text_7">
      <!-- 0.0\% -->
      <g transform="translate(7.2 265.120173) scale(0.1 -0.1)">
       <defs>
        <path id="CMSS17-30" d="M 2758 2044 
C 2758 2405 2752 3077 2490 3596 
C 2227 4096 1805 4229 1504 4229 
C 1069 4229 698 3975 506 3570 
C 301 3146 243 2709 243 2044 
C 243 1589 262 1031 493 543 
C 755 5 1197 -128 1498 -128 
C 1894 -128 2278 81 2496 518 
C 2720 974 2758 1474 2758 2044 
z
M 1498 261 
C 1011 261 864 811 819 995 
C 742 1310 730 1614 730 2114 
C 730 2506 730 2948 851 3297 
C 998 3701 1254 3840 1498 3840 
C 1971 3840 2125 3372 2176 3208 
C 2272 2873 2272 2481 2272 2114 
C 2272 1526 2272 261 1498 261 
z
" transform="scale(0.015625)"/>
        <path id="CMSS17-2e" d="M 1088 510 
L 576 510 
L 576 0 
L 1088 0 
L 1088 510 
z
" transform="scale(0.015625)"/>
        <path id="CMSS17-25" d="M 3923 4583 
C 3962 4647 3962 4679 3962 4685 
C 3962 4755 3904 4800 3853 4800 
C 3782 4800 3750 4749 3718 4685 
L 1101 -104 
C 1088 -129 1062 -167 1062 -206 
C 1062 -276 1120 -320 1178 -320 
C 1235 -320 1248 -295 1299 -206 
L 3923 4583 
z
M 4678 959 
C 4678 1698 4282 2240 3846 2240 
C 3418 2240 3008 1711 3008 959 
C 3008 208 3418 -320 3846 -320 
C 4288 -320 4678 221 4678 959 
z
M 3846 68 
C 3712 68 3494 189 3494 959 
C 3494 1724 3712 1851 3846 1851 
C 4083 1851 4211 1386 4211 959 
C 4211 533 4083 68 3846 68 
z
M 2003 3519 
C 2003 4258 1606 4800 1171 4800 
C 742 4800 333 4271 333 3519 
C 333 2768 742 2240 1171 2240 
C 1613 2240 2003 2781 2003 3519 
z
M 1171 2628 
C 1037 2628 819 2749 819 3519 
C 819 4284 1037 4411 1171 4411 
C 1408 4411 1536 3946 1536 3519 
C 1536 3093 1408 2628 1171 2628 
z
" transform="scale(0.015625)"/>
       </defs>
       <use xlink:href="#CMSS17-30" transform="scale(0.996264)"/>
       <use xlink:href="#CMSS17-2e" transform="translate(46.843624 0) scale(0.996264)"/>
       <use xlink:href="#CMSS17-30" transform="translate(72.867828 0) scale(0.996264)"/>
       <use xlink:href="#CMSS17-25" transform="translate(119.711452 0) scale(0.996264)"/>
      </g>
     </g>
    </g>
    <g id="ytick_2">
     <g id="line2d_15">
      <path d="M 35.232304 229.74979 
L 1106.592304 229.74979 
" clip-path="url(#pf82e2448c5)" style="fill: none; stroke-dasharray: 2.96,1.28; stroke-dashoffset: 0; stroke: #b0b0b0; stroke-width: 0.8"/>
     </g>
     <g id="line2d_16">
      <g>
       <use xlink:href="#m08465b4d9c" x="35.232304" y="229.74979" style="stroke: #000000; stroke-width: 0.8"/>
      </g>
     </g>
     <g id="text_8">
      <!-- 1.0\% -->
      <g transform="translate(7.2 233.209039) scale(0.1 -0.1)">
       <defs>
        <path id="CMSS17-31" d="M 1818 4288 
L 1696 4288 
C 1350 3940 947 3890 538 3890 
L 538 3520 
C 723 3520 1024 3520 1325 3667 
L 1325 369 
L 570 369 
L 570 0 
L 2573 0 
L 2573 369 
L 1818 369 
L 1818 4288 
z
" transform="scale(0.015625)"/>
       </defs>
       <use xlink:href="#CMSS17-31" transform="scale(0.996264)"/>
       <use xlink:href="#CMSS17-2e" transform="translate(46.843624 0) scale(0.996264)"/>
       <use xlink:href="#CMSS17-30" transform="translate(72.867828 0) scale(0.996264)"/>
       <use xlink:href="#CMSS17-25" transform="translate(119.711452 0) scale(0.996264)"/>
      </g>
     </g>
    </g>
    <g id="ytick_3">
     <g id="line2d_17">
      <path d="M 35.232304 197.838655 
L 1106.592304 197.838655 
" clip-path="url(#pf82e2448c5)" style="fill: none; stroke-dasharray: 2.96,1.28; stroke-dashoffset: 0; stroke: #b0b0b0; stroke-width: 0.8"/>
     </g>
     <g id="line2d_18">
      <g>
       <use xlink:href="#m08465b4d9c" x="35.232304" y="197.838655" style="stroke: #000000; stroke-width: 0.8"/>
      </g>
     </g>
     <g id="text_9">
      <!-- 2.0\% -->
      <g transform="translate(7.2 201.297904) scale(0.1 -0.1)">
       <defs>
        <path id="CMSS17-32" d="M 1651 1357 
C 1830 1541 2099 1764 2285 1987 
C 2464 2204 2701 2511 2701 2957 
C 2701 3657 2227 4288 1421 4288 
C 787 4288 422 3893 250 3274 
L 499 2929 
C 640 3510 838 3880 1338 3880 
C 1888 3880 2195 3433 2195 2942 
C 2195 2355 1747 1901 1408 1563 
C 1030 1187 659 804 301 408 
L 301 0 
L 2701 0 
L 2701 433 
L 1613 433 
C 1536 433 1459 433 1382 433 
L 742 433 
L 742 439 
L 1651 1357 
z
" transform="scale(0.015625)"/>
       </defs>
       <use xlink:href="#CMSS17-32" transform="scale(0.996264)"/>
       <use xlink:href="#CMSS17-2e" transform="translate(46.843624 0) scale(0.996264)"/>
       <use xlink:href="#CMSS17-30" transform="translate(72.867828 0) scale(0.996264)"/>
       <use xlink:href="#CMSS17-25" transform="translate(119.711452 0) scale(0.996264)"/>
      </g>
     </g>
    </g>
    <g id="ytick_4">
     <g id="line2d_19">
      <path d="M 35.232304 165.927521 
L 1106.592304 165.927521 
" clip-path="url(#pf82e2448c5)" style="fill: none; stroke-dasharray: 2.96,1.28; stroke-dashoffset: 0; stroke: #b0b0b0; stroke-width: 0.8"/>
     </g>
     <g id="line2d_20">
      <g>
       <use xlink:href="#m08465b4d9c" x="35.232304" y="165.927521" style="stroke: #000000; stroke-width: 0.8"/>
      </g>
     </g>
     <g id="text_10">
      <!-- 3.0\% -->
      <g transform="translate(7.2 169.38677) scale(0.1 -0.1)">
       <defs>
        <path id="CMSS17-33" d="M 1005 2025 
L 1440 2025 
C 2042 2025 2214 1507 2214 1146 
C 2214 653 1933 267 1472 267 
C 1114 267 608 444 320 912 
C 275 691 275 678 250 526 
C 550 88 1037 -128 1485 -128 
C 2214 -128 2752 473 2752 1138 
C 2752 1638 2400 2057 1920 2215 
C 2304 2424 2586 2816 2586 3273 
C 2586 3805 2093 4229 1491 4229 
C 941 4229 512 3892 333 3530 
C 378 3468 493 3284 550 3189 
C 691 3562 1056 3840 1485 3840 
C 1843 3840 2080 3607 2080 3271 
C 2080 2923 1856 2543 1478 2455 
C 1453 2455 1056 2417 1005 2411 
L 1005 2025 
z
" transform="scale(0.015625)"/>
       </defs>
       <use xlink:href="#CMSS17-33" transform="scale(0.996264)"/>
       <use xlink:href="#CMSS17-2e" transform="translate(46.843624 0) scale(0.996264)"/>
       <use xlink:href="#CMSS17-30" transform="translate(72.867828 0) scale(0.996264)"/>
       <use xlink:href="#CMSS17-25" transform="translate(119.711452 0) scale(0.996264)"/>
      </g>
     </g>
    </g>
    <g id="ytick_5">
     <g id="line2d_21">
      <path d="M 35.232304 134.016386 
L 1106.592304 134.016386 
" clip-path="url(#pf82e2448c5)" style="fill: none; stroke-dasharray: 2.96,1.28; stroke-dashoffset: 0; stroke: #b0b0b0; stroke-width: 0.8"/>
     </g>
     <g id="line2d_22">
      <g>
       <use xlink:href="#m08465b4d9c" x="35.232304" y="134.016386" style="stroke: #000000; stroke-width: 0.8"/>
      </g>
     </g>
     <g id="text_11">
      <!-- 4.0\% -->
      <g transform="translate(7.2 137.475635) scale(0.1 -0.1)">
       <defs>
        <path id="CMSS17-34" d="M 2253 1088 
L 2835 1088 
L 2835 1477 
L 2253 1477 
L 2253 4192 
L 1690 4192 
L 166 1477 
L 166 1088 
L 1747 1088 
L 1747 0 
L 2253 0 
L 2253 1088 
z
M 659 1477 
C 1030 2127 1766 3439 1766 3885 
L 1766 1477 
L 659 1477 
z
" transform="scale(0.015625)"/>
       </defs>
       <use xlink:href="#CMSS17-34" transform="scale(0.996264)"/>
       <use xlink:href="#CMSS17-2e" transform="translate(46.843624 0) scale(0.996264)"/>
       <use xlink:href="#CMSS17-30" transform="translate(72.867828 0) scale(0.996264)"/>
       <use xlink:href="#CMSS17-25" transform="translate(119.711452 0) scale(0.996264)"/>
      </g>
     </g>
    </g>
    <g id="ytick_6">
     <g id="line2d_23">
      <path d="M 35.232304 102.105252 
L 1106.592304 102.105252 
" clip-path="url(#pf82e2448c5)" style="fill: none; stroke-dasharray: 2.96,1.28; stroke-dashoffset: 0; stroke: #b0b0b0; stroke-width: 0.8"/>
     </g>
     <g id="line2d_24">
      <g>
       <use xlink:href="#m08465b4d9c" x="35.232304" y="102.105252" style="stroke: #000000; stroke-width: 0.8"/>
      </g>
     </g>
     <g id="text_12">
      <!-- 5.0\% -->
      <g transform="translate(7.2 105.564501) scale(0.1 -0.1)">
       <defs>
        <path id="CMSS17-35" d="M 934 3752 
L 2502 3752 
L 2502 4160 
L 467 4160 
L 467 1781 
L 896 1781 
C 1011 2046 1248 2240 1555 2240 
C 1843 2240 2163 1989 2163 1266 
C 2163 493 1709 267 1376 267 
C 966 267 589 512 422 851 
L 218 499 
C 512 49 992 -128 1376 -128 
C 2118 -128 2701 497 2701 1253 
C 2701 2030 2182 2629 1562 2629 
C 1338 2629 1120 2553 934 2399 
L 934 3752 
z
" transform="scale(0.015625)"/>
       </defs>
       <use xlink:href="#CMSS17-35" transform="scale(0.996264)"/>
       <use xlink:href="#CMSS17-2e" transform="translate(46.843624 0) scale(0.996264)"/>
       <use xlink:href="#CMSS17-30" transform="translate(72.867828 0) scale(0.996264)"/>
       <use xlink:href="#CMSS17-25" transform="translate(119.711452 0) scale(0.996264)"/>
      </g>
     </g>
    </g>
    <g id="ytick_7">
     <g id="line2d_25">
      <path d="M 35.232304 70.194117 
L 1106.592304 70.194117 
" clip-path="url(#pf82e2448c5)" style="fill: none; stroke-dasharray: 2.96,1.28; stroke-dashoffset: 0; stroke: #b0b0b0; stroke-width: 0.8"/>
     </g>
     <g id="line2d_26">
      <g>
       <use xlink:href="#m08465b4d9c" x="35.232304" y="70.194117" style="stroke: #000000; stroke-width: 0.8"/>
      </g>
     </g>
     <g id="text_13">
      <!-- 6.0\% -->
      <g transform="translate(7.2 73.653366) scale(0.1 -0.1)">
       <defs>
        <path id="CMSS17-36" d="M 2496 4101 
C 2227 4210 2035 4229 1856 4229 
C 1024 4229 250 3368 250 2006 
C 250 265 986 -128 1510 -128 
C 1798 -128 2086 -39 2362 280 
C 2643 617 2752 898 2752 1389 
C 2752 2179 2362 2880 1779 2880 
C 1357 2880 992 2657 768 2376 
C 832 3258 1254 3840 1862 3840 
C 2029 3840 2246 3816 2496 3710 
L 2496 4101 
z
M 774 1369 
C 774 1420 774 1452 781 1548 
C 781 2045 1069 2491 1536 2491 
C 1837 2491 1990 2332 2106 2135 
C 2240 1886 2246 1650 2246 1388 
C 2246 1140 2246 891 2099 637 
C 1978 439 1818 267 1510 267 
C 902 267 800 1114 774 1369 
z
" transform="scale(0.015625)"/>
       </defs>
       <use xlink:href="#CMSS17-36" transform="scale(0.996264)"/>
       <use xlink:href="#CMSS17-2e" transform="translate(46.843624 0) scale(0.996264)"/>
       <use xlink:href="#CMSS17-30" transform="translate(72.867828 0) scale(0.996264)"/>
       <use xlink:href="#CMSS17-25" transform="translate(119.711452 0) scale(0.996264)"/>
      </g>
     </g>
    </g>
    <g id="ytick_8">
     <g id="line2d_27">
      <path d="M 35.232304 38.282983 
L 1106.592304 38.282983 
" clip-path="url(#pf82e2448c5)" style="fill: none; stroke-dasharray: 2.96,1.28; stroke-dashoffset: 0; stroke: #b0b0b0; stroke-width: 0.8"/>
     </g>
     <g id="line2d_28">
      <g>
       <use xlink:href="#m08465b4d9c" x="35.232304" y="38.282983" style="stroke: #000000; stroke-width: 0.8"/>
      </g>
     </g>
     <g id="text_14">
      <!-- 7.0\% -->
      <g transform="translate(7.2 41.742232) scale(0.1 -0.1)">
       <defs>
        <path id="CMSS17-37" d="M 1389 3776 
C 1466 3776 1542 3776 1619 3776 
L 2355 3776 
C 1440 2711 915 1365 915 -32 
L 1427 -32 
C 1427 1323 1875 2696 2752 3795 
L 2752 4209 
L 250 4209 
L 250 3776 
L 1389 3776 
z
" transform="scale(0.015625)"/>
       </defs>
       <use xlink:href="#CMSS17-37" transform="scale(0.996264)"/>
       <use xlink:href="#CMSS17-2e" transform="translate(46.843624 0) scale(0.996264)"/>
       <use xlink:href="#CMSS17-30" transform="translate(72.867828 0) scale(0.996264)"/>
       <use xlink:href="#CMSS17-25" transform="translate(119.711452 0) scale(0.996264)"/>
      </g>
     </g>
    </g>
   </g>
   <g id="line2d_29">
    <path d="M 83.930486 261.216 
L 85.878413 260.355814 
L 87.826341 259.673597 
L 89.774268 258.872734 
L 110.227504 250.893764 
L 112.175432 250.241208 
L 118.019213 248.164897 
L 119.967141 247.601326 
L 125.810923 245.495353 
L 126.784886 245.25806 
L 144.316232 238.940139 
L 146.264159 238.257923 
L 149.18605 237.071459 
L 152.107941 236.092626 
L 163.795504 232.08831 
L 171.587213 229.12215 
L 174.509104 228.172979 
L 177.430995 227.490762 
L 179.378923 226.867869 
L 180.352886 226.630576 
L 183.274777 225.651743 
L 185.222704 225.088173 
L 191.066486 223.397462 
L 193.014413 222.774568 
L 195.936304 221.70675 
L 197.884232 221.172842 
L 201.780086 219.83807 
L 217.363504 215.151537 
L 219.311432 214.587967 
L 221.259359 213.935411 
L 230.025032 211.354852 
L 230.998995 211.147221 
L 234.89485 209.901434 
L 236.842777 209.27854 
L 240.738632 208.062415 
L 244.634486 206.935274 
L 246.582413 206.579335 
L 247.556377 206.342042 
L 248.530341 205.986103 
L 252.426195 205.066593 
L 255.348086 204.236069 
L 256.32205 204.058099 
L 263.139795 202.04111 
L 284.566995 196.731684 
L 287.488886 195.871498 
L 288.46285 195.693528 
L 291.384741 194.892665 
L 293.332668 194.388418 
L 295.280595 193.884171 
L 296.254559 193.735863 
L 299.17645 193.023984 
L 303.072304 192.223121 
L 304.046268 191.985828 
L 305.020232 191.867182 
L 309.89005 190.591733 
L 311.837977 190.117148 
L 314.759868 189.316284 
L 316.707795 188.930684 
L 322.551577 187.417942 
L 324.499504 186.765387 
L 325.473468 186.557756 
L 327.421395 185.905201 
L 330.343286 185.252645 
L 334.239141 184.155166 
L 342.03085 182.108516 
L 345.926704 181.07036 
L 347.874632 180.595774 
L 349.822559 180.239835 
L 359.562195 177.629615 
L 362.484086 176.977059 
L 364.432013 176.472812 
L 367.353904 175.671949 
L 369.301832 175.13804 
L 378.067504 173.447329 
L 382.937323 172.201542 
L 384.88525 171.845603 
L 391.702995 170.273538 
L 395.59885 169.354028 
L 396.572813 169.087074 
L 398.520741 168.760796 
L 400.468668 168.375196 
L 402.416595 167.841287 
L 404.364523 167.485348 
L 406.31245 167.010762 
L 407.286413 166.743808 
L 409.234341 166.41753 
L 411.182268 165.942945 
L 416.052086 164.964112 
L 417.02605 164.726819 
L 418.973977 164.459865 
L 421.895868 164.014941 
L 422.869832 163.807309 
L 423.843795 163.718325 
L 429.687577 162.175922 
L 432.609468 161.642013 
L 434.557395 161.286074 
L 437.479286 160.84115 
L 440.401177 160.218256 
L 443.323068 159.476716 
L 469.620086 154.73086 
L 473.515941 154.256275 
L 476.437832 153.514735 
L 480.333686 152.624887 
L 483.255577 151.883347 
L 489.099359 150.548575 
L 492.995213 149.658727 
L 497.865032 148.709556 
L 505.656741 146.900198 
L 510.526559 145.921365 
L 513.44845 145.417118 
L 517.344304 144.645917 
L 520.266195 144.200993 
L 527.083941 142.806897 
L 530.005832 142.30265 
L 531.953759 141.887388 
L 533.901686 141.679757 
L 535.849613 141.294156 
L 538.771504 140.849232 
L 542.667359 140.07803 
L 544.615286 139.840738 
L 548.511141 139.158521 
L 553.380959 138.179688 
L 556.30285 137.764426 
L 559.224741 137.230517 
L 561.172668 137.022886 
L 567.990413 135.599129 
L 570.912304 135.183867 
L 573.834195 134.738943 
L 575.782123 134.412665 
L 594.287432 131.505828 
L 596.235359 131.209212 
L 599.15725 130.764288 
L 614.740668 128.480345 
L 616.688595 128.243052 
L 619.610486 127.887113 
L 624.480304 127.353205 
L 628.376159 126.670988 
L 632.272013 126.018433 
L 635.193904 125.60317 
L 639.089759 124.831969 
L 640.063723 124.505691 
L 642.985613 123.971782 
L 643.959577 123.823474 
L 645.907504 123.37855 
L 649.803359 122.488702 
L 656.621104 121.598854 
L 661.490923 120.738668 
L 667.334704 120.115774 
L 673.178486 119.344573 
L 675.126413 119.018295 
L 677.074341 118.781002 
L 679.022268 118.484386 
L 680.970195 118.18777 
L 683.892086 117.742846 
L 689.735868 117.090291 
L 691.683795 116.941983 
L 703.371359 115.458903 
L 706.29325 114.865671 
L 709.215141 114.420747 
L 715.058923 113.560561 
L 717.00685 113.412253 
L 718.954777 113.085975 
L 719.928741 112.848683 
L 727.72045 111.840188 
L 731.616304 111.187633 
L 742.329904 109.852861 
L 743.303868 109.615568 
L 745.251795 109.46726 
L 754.991432 107.924857 
L 758.887286 107.183317 
L 761.809177 106.738393 
L 775.444668 103.861218 
L 777.392595 103.564602 
L 779.340523 103.14934 
L 787.132232 101.339982 
L 803.689613 98.373822 
L 813.42925 97.39499 
L 819.273032 96.445819 
L 822.194923 95.793263 
L 825.116813 95.17037 
L 827.064741 94.725446 
L 831.934559 93.954244 
L 836.804377 92.797442 
L 838.752304 92.500826 
L 840.700232 92.144887 
L 843.622123 91.64064 
L 847.517977 90.8991 
L 850.439868 90.394852 
L 853.361759 89.742297 
L 855.309686 89.41602 
L 857.257613 89.149065 
L 861.153468 88.585495 
L 868.945177 87.488016 
L 871.867068 87.102415 
L 872.841032 86.894784 
L 873.814995 86.835461 
L 875.762923 86.568506 
L 876.736886 86.538845 
L 878.684813 86.301552 
L 881.606704 86.034597 
L 888.42445 85.115088 
L 890.372377 84.818472 
L 904.007868 83.246407 
L 905.955795 83.038776 
L 908.877686 82.771821 
L 911.799577 82.593852 
L 913.747504 82.445544 
L 917.643359 81.941297 
L 920.56525 81.674342 
L 923.487141 81.318403 
L 928.356959 80.814156 
L 930.304886 80.69551 
L 931.27885 80.51754 
L 933.226777 80.369232 
L 935.174704 80.042954 
L 939.070559 79.59803 
L 944.914341 78.797167 
L 948.810195 78.203935 
L 950.758123 78.144612 
L 953.680013 77.670026 
L 964.393613 76.305593 
L 966.341541 76.038639 
L 969.263432 75.593715 
L 976.081177 74.436912 
L 988.742704 72.983494 
L 990.690632 72.835186 
L 992.638559 72.568231 
L 996.534413 72.271615 
L 1000.430268 71.767368 
L 1002.378195 71.559737 
L 1006.27405 71.144475 
L 1014.065759 70.610566 
L 1015.039723 70.432596 
L 1016.013686 70.402935 
L 1017.961613 70.195304 
L 1022.831432 69.809703 
L 1029.649177 69.038501 
L 1031.597104 68.860532 
L 1037.440886 68.207976 
L 1044.258632 67.733391 
L 1045.232595 67.585083 
L 1048.154486 67.407113 
L 1055.946195 66.60625 
L 1056.920159 66.457942 
L 1057.894123 66.457942 
L 1057.894123 66.457942 
" clip-path="url(#pf82e2448c5)" style="fill: none; stroke: #e46e56; stroke-width: 1.5; stroke-linecap: square"/>
   </g>
   <g id="line2d_30">
    <path d="M 83.930486 261.216 
L 85.878413 260.47446 
L 92.696159 257.448977 
L 101.461832 253.889585 
L 103.409759 253.118384 
L 111.201468 250.122562 
L 113.149395 249.440345 
L 117.04525 247.897942 
L 120.941104 246.414862 
L 122.889032 245.762307 
L 127.75885 243.923288 
L 131.654704 242.232577 
L 133.602632 241.580022 
L 140.420377 239.207094 
L 142.368304 238.406231 
L 147.238123 236.982474 
L 151.133977 235.499394 
L 156.003795 233.541728 
L 158.925686 232.503572 
L 159.89965 232.058648 
L 161.847577 231.495078 
L 166.717395 229.774705 
L 170.61325 228.528918 
L 172.561177 227.846701 
L 177.430995 226.185652 
L 180.352886 225.058511 
L 190.092523 221.528781 
L 191.066486 221.261826 
L 193.988377 220.134686 
L 201.780086 217.346495 
L 204.701977 216.515971 
L 206.649904 216.041385 
L 210.545759 214.617628 
L 212.493686 214.054058 
L 214.441613 213.342179 
L 216.389541 212.659963 
L 219.311432 211.8591 
L 227.103141 209.100571 
L 236.842777 205.74881 
L 238.790704 205.066593 
L 240.738632 204.473361 
L 245.60845 203.049605 
L 251.452232 200.943631 
L 254.374123 200.113106 
L 256.32205 199.460551 
L 259.243941 198.600365 
L 261.191868 197.977471 
L 263.139795 197.562209 
L 269.957541 195.307927 
L 270.931504 195.070635 
L 272.879432 194.358756 
L 274.827359 193.735863 
L 276.775286 193.053646 
L 278.723213 192.460414 
L 290.410777 189.256961 
L 292.358704 188.574744 
L 293.332668 188.337452 
L 294.306632 187.981513 
L 295.280595 187.773881 
L 296.254559 187.447604 
L 298.202486 187.062003 
L 300.150413 186.528094 
L 309.89005 183.621257 
L 313.785904 182.73141 
L 327.421395 179.083033 
L 330.343286 178.28217 
L 334.239141 177.303337 
L 336.187068 176.739767 
L 338.134995 176.087211 
L 340.082923 175.701611 
L 342.03085 175.227025 
L 343.004813 174.871086 
L 344.952741 174.455823 
L 346.900668 174.070223 
L 349.822559 173.447329 
L 354.692377 172.142219 
L 355.666341 171.964249 
L 360.536159 170.421846 
L 365.405977 169.176059 
L 367.353904 168.731135 
L 373.197686 167.277717 
L 378.067504 165.409036 
L 384.88525 163.392047 
L 385.859213 163.184416 
L 386.833177 162.858138 
L 388.781104 162.413214 
L 393.650923 161.019119 
L 399.494704 159.714009 
L 404.364523 158.43856 
L 407.286413 157.756343 
L 409.234341 157.281758 
L 410.208304 157.13345 
L 413.130195 156.243602 
L 417.02605 155.353754 
L 418.000013 155.235107 
L 419.947941 154.790183 
L 421.895868 154.345259 
L 428.713613 152.328271 
L 429.687577 152.150301 
L 430.661541 151.853685 
L 434.557395 151.052822 
L 438.45325 150.133312 
L 439.427213 149.777373 
L 443.323068 148.857864 
L 448.192886 147.463769 
L 467.672159 142.777236 
L 468.646123 142.747574 
L 478.385759 140.641601 
L 481.30765 139.840738 
L 485.203504 139.069536 
L 486.177468 138.802582 
L 488.125395 138.416981 
L 494.943141 136.429654 
L 498.838995 135.569467 
L 500.786923 135.124543 
L 501.760886 134.798266 
L 503.708813 134.353342 
L 504.682777 134.056726 
L 506.630704 133.641463 
L 510.526559 132.603308 
L 512.474486 132.039737 
L 515.396377 131.446505 
L 520.266195 130.200718 
L 535.849613 126.967604 
L 539.745468 126.226064 
L 541.693395 125.662493 
L 546.563213 124.565014 
L 552.406995 123.022611 
L 554.354923 122.607349 
L 556.30285 122.132763 
L 562.146632 120.975961 
L 575.782123 118.069124 
L 578.704013 117.119953 
L 579.677977 116.971645 
L 584.547795 115.696196 
L 586.495723 115.221611 
L 593.313468 113.441915 
L 621.558413 106.619747 
L 624.480304 105.996853 
L 626.428232 105.581591 
L 628.376159 105.225652 
L 631.29805 104.513773 
L 633.245977 103.920541 
L 636.167868 103.386633 
L 641.037686 102.378138 
L 642.985613 102.111184 
L 645.907504 101.577275 
L 650.777323 100.628104 
L 652.72525 100.094195 
L 660.516959 98.106868 
L 664.412813 96.979727 
L 673.178486 94.784769 
L 675.126413 94.221199 
L 677.074341 93.68729 
L 678.048304 93.538982 
L 679.996232 92.916088 
L 681.944159 92.293195 
L 683.892086 91.788948 
L 685.840013 91.255039 
L 687.787941 90.810115 
L 689.735868 90.424514 
L 691.683795 89.920267 
L 693.631723 89.386358 
L 697.527577 88.615156 
L 699.475504 88.170232 
L 701.423432 87.843955 
L 703.371359 87.399031 
L 710.189104 86.064259 
L 712.137032 85.589673 
L 714.084959 85.115088 
L 715.058923 84.759149 
L 725.772523 82.386221 
L 727.72045 81.881974 
L 729.668377 81.585358 
L 734.538195 80.636186 
L 737.460086 79.835323 
L 741.355941 78.85649 
L 743.303868 78.619198 
L 747.199723 77.581042 
L 753.043504 75.890331 
L 761.809177 73.932665 
L 762.783141 73.665711 
L 764.731068 73.28011 
L 770.57485 71.975 
L 773.496741 71.203798 
L 776.418632 70.669889 
L 782.262413 69.335117 
L 787.132232 68.504592 
L 791.028086 67.763052 
L 796.871868 66.78422 
L 805.637541 65.271478 
L 808.559432 64.796893 
L 810.507359 64.351969 
L 811.481323 64.114676 
L 813.42925 63.788398 
L 818.299068 62.987535 
L 821.220959 62.275657 
L 830.960595 60.466299 
L 831.934559 60.199345 
L 834.85645 59.695098 
L 840.700232 58.538295 
L 842.648159 58.271341 
L 844.596086 58.093371 
L 847.517977 57.559462 
L 851.413832 56.699276 
L 857.257613 55.542474 
L 864.075359 54.17804 
L 867.971213 53.555147 
L 870.893104 53.110223 
L 887.450486 49.995755 
L 889.398413 49.491508 
L 892.320304 48.868614 
L 895.242195 48.24572 
L 897.190123 47.889781 
L 900.112013 47.415196 
L 902.059941 46.910949 
L 903.033904 46.643994 
L 924.461104 43.321895 
L 926.409032 42.965956 
L 928.356959 42.639678 
L 932.252813 41.957462 
L 936.148668 41.097275 
L 938.096595 40.770998 
L 940.044523 40.415058 
L 943.940377 39.52521 
L 956.601904 37.270929 
L 959.523795 36.826005 
L 967.315504 34.986986 
L 974.13325 33.859845 
L 979.003068 32.910674 
L 995.56045 30.300453 
L 997.508377 29.944514 
L 1002.378195 29.291959 
L 1003.352159 29.202974 
L 1006.27405 28.58008 
L 1009.195941 28.164818 
L 1010.169904 28.105495 
L 1012.117832 27.719894 
L 1014.065759 27.512263 
L 1025.753323 25.643582 
L 1033.545032 24.130841 
L 1040.362777 22.707084 
L 1042.310704 22.380806 
L 1046.206559 21.490958 
L 1051.076377 20.512126 
L 1053.024304 20.067202 
L 1054.972232 19.651939 
L 1056.920159 19.296 
L 1057.894123 19.296 
L 1057.894123 19.296 
" clip-path="url(#pf82e2448c5)" style="fill: none; stroke: #d1dae9; stroke-width: 1.5; stroke-linecap: square"/>
   </g>
   <g id="line2d_31">
    <path d="M 83.930486 261.216 
L 94.644086 256.737099 
L 96.592013 255.965897 
L 104.383723 252.732783 
L 106.33165 251.961581 
L 109.253541 250.715794 
L 129.706777 242.499531 
L 134.576595 240.452881 
L 135.550559 240.185926 
L 142.368304 237.605367 
L 149.18605 235.262101 
L 152.107941 234.164622 
L 155.029832 233.215451 
L 157.951723 232.206956 
L 158.925686 231.969664 
L 162.821541 230.634892 
L 165.743432 229.745044 
L 190.092523 221.677089 
L 193.014413 220.727918 
L 195.936304 219.749085 
L 199.832159 218.532959 
L 200.806123 218.295667 
L 203.728013 217.316834 
L 205.675941 216.782925 
L 209.571795 215.359168 
L 213.46765 214.143043 
L 221.259359 211.68113 
L 224.18125 210.642974 
L 227.103141 209.842111 
L 235.868813 207.350537 
L 245.60845 204.295392 
L 247.556377 203.672498 
L 249.504304 203.049605 
L 252.426195 202.159757 
L 260.217904 199.964798 
L 262.165832 199.341905 
L 266.061686 198.363072 
L 274.827359 196.168114 
L 290.410777 191.511243 
L 292.358704 190.977334 
L 295.280595 190.176471 
L 318.655723 183.85855 
L 320.60365 183.413626 
L 321.577613 183.087349 
L 324.499504 182.434794 
L 329.369323 181.040698 
L 331.31725 180.566113 
L 336.187068 179.172018 
L 337.161032 178.84574 
L 339.108959 178.400816 
L 341.056886 177.777923 
L 344.952741 176.532135 
L 351.770486 174.604131 
L 358.588232 172.409173 
L 361.510123 171.548987 
L 364.432013 170.837108 
L 370.275795 169.324367 
L 373.197686 168.582827 
L 375.145613 168.137903 
L 378.067504 167.485348 
L 379.041468 167.307378 
L 380.989395 166.803131 
L 381.963359 166.5955 
L 385.859213 165.379374 
L 389.755068 164.578511 
L 391.702995 164.074264 
L 393.650923 163.62934 
L 397.546777 162.502199 
L 419.947941 156.95548 
L 423.843795 155.798678 
L 425.791723 155.264769 
L 427.73965 154.790183 
L 432.609468 153.366427 
L 440.401177 151.082484 
L 447.218923 149.184141 
L 449.16685 148.561248 
L 450.140813 148.264632 
L 451.114777 148.116324 
L 471.568013 142.599266 
L 474.489904 141.887388 
L 476.437832 141.383141 
L 477.411795 141.234833 
L 481.30765 140.107692 
L 489.099359 138.357658 
L 492.02125 137.527133 
L 494.943141 137.052547 
L 506.630704 133.789771 
L 509.552595 132.899923 
L 514.422413 131.654136 
L 519.292232 130.526996 
L 529.031868 127.887113 
L 530.979795 127.442189 
L 531.953759 127.204897 
L 533.901686 126.552341 
L 537.797541 125.395539 
L 539.745468 124.891292 
L 544.615286 123.497197 
L 562.146632 118.632694 
L 565.068523 117.742846 
L 567.01645 117.297923 
L 569.938341 116.467398 
L 571.886268 116.081797 
L 577.73005 114.776687 
L 580.651941 113.975823 
L 581.625904 113.768192 
L 583.573832 113.17496 
L 586.495723 112.492744 
L 591.365541 111.246956 
L 596.235359 110.030831 
L 598.183286 109.407937 
L 602.079141 108.369781 
L 605.001032 107.628241 
L 605.974995 107.568918 
L 607.922923 107.094333 
L 609.87085 106.708732 
L 614.740668 105.462945 
L 619.610486 104.365465 
L 627.402195 102.318815 
L 641.037686 98.907731 
L 644.933541 97.750929 
L 652.72525 96.000895 
L 657.595068 94.725446 
L 661.490923 93.924583 
L 664.412813 93.212704 
L 666.360741 92.827103 
L 673.178486 91.255039 
L 682.918123 89.23805 
L 684.86605 88.852449 
L 692.657759 87.250723 
L 694.605686 86.865122 
L 710.189104 83.928624 
L 717.00685 82.534529 
L 722.850632 81.585358 
L 731.616304 79.627692 
L 736.486123 78.441228 
L 738.43405 78.203935 
L 741.355941 77.640365 
L 743.303868 77.314087 
L 745.251795 76.98781 
L 751.095577 75.623376 
L 758.887286 74.140296 
L 760.835213 73.754695 
L 763.757104 73.250448 
L 770.57485 71.886015 
L 787.132232 68.771547 
L 808.559432 64.173999 
L 812.455286 63.07652 
L 818.299068 61.741748 
L 839.726268 57.796755 
L 840.700232 57.500139 
L 849.465904 55.809428 
L 852.387795 55.245858 
L 854.335723 54.860257 
L 861.153468 53.495823 
L 863.101395 53.199207 
L 896.216159 47.237226 
L 899.13805 46.703317 
L 902.059941 46.110085 
L 911.799577 43.826142 
L 920.56525 42.313401 
L 926.409032 41.334568 
L 929.330923 40.800659 
L 932.252813 40.326074 
L 935.174704 39.70318 
L 942.966413 38.309085 
L 945.888304 37.953146 
L 947.836232 37.567545 
L 950.758123 36.944651 
L 952.70605 36.677697 
L 953.680013 36.440404 
L 955.627941 36.143788 
L 960.497759 34.986986 
L 963.41965 34.482739 
L 965.367577 34.037815 
L 966.341541 33.978491 
L 970.237395 33.325936 
L 972.185323 32.999659 
L 974.13325 32.732704 
L 977.055141 32.198795 
L 979.003068 31.902179 
L 987.768741 30.745377 
L 993.612523 29.944514 
L 994.586486 29.885191 
L 999.456304 29.054666 
L 1001.404232 28.787712 
L 1013.091795 26.385122 
L 1017.961613 25.584259 
L 1020.883504 25.139335 
L 1023.805395 24.575765 
L 1029.649177 23.74524 
L 1031.597104 23.478285 
L 1038.41485 22.351145 
L 1039.388813 22.143513 
L 1044.258632 21.639266 
L 1056.920159 19.296 
L 1057.894123 19.296 
L 1057.894123 19.296 
" clip-path="url(#pf82e2448c5)" style="fill: none; stroke: #3a4cc0; stroke-width: 1.5; stroke-linecap: square"/>
   </g>
   <g id="patch_3">
    <path d="M 35.232304 273.312 
L 35.232304 7.2 
" style="fill: none; stroke: #000000; stroke-width: 0.8; stroke-linejoin: miter; stroke-linecap: square"/>
   </g>
   <g id="patch_4">
    <path d="M 1106.592304 273.312 
L 1106.592304 7.2 
" style="fill: none; stroke: #000000; stroke-width: 0.8; stroke-linejoin: miter; stroke-linecap: square"/>
   </g>
   <g id="patch_5">
    <path d="M 35.232304 273.312 
L 1106.592304 273.312 
" style="fill: none; stroke: #000000; stroke-width: 0.8; stroke-linejoin: miter; stroke-linecap: square"/>
   </g>
   <g id="patch_6">
    <path d="M 35.232304 7.2 
L 1106.592304 7.2 
" style="fill: none; stroke: #000000; stroke-width: 0.8; stroke-linejoin: miter; stroke-linecap: square"/>
   </g>
   <g id="legend_1">
    <g id="patch_7">
     <path d="M 42.232304 57.011535 
L 135.862474 57.011535 
Q 137.862474 57.011535 137.862474 55.011535 
L 137.862474 14.2 
Q 137.862474 12.2 135.862474 12.2 
L 42.232304 12.2 
Q 40.232304 12.2 40.232304 14.2 
L 40.232304 55.011535 
Q 40.232304 57.011535 42.232304 57.011535 
z
" style="fill: #ffffff; opacity: 0.8; stroke: #cccccc; stroke-linejoin: miter"/>
    </g>
    <g id="line2d_32">
     <path d="M 44.232304 19.7 
L 54.232304 19.7 
L 64.232304 19.7 
" style="fill: none; stroke: #e46e56; stroke-width: 1.5; stroke-linecap: square"/>
    </g>
    <g id="text_15">
     <!-- Langevin -->
     <g transform="translate(72.232304 23.2) scale(0.1 -0.1)">
      <defs>
       <path id="CMSS17-4c" d="M 1670 414 
C 1594 414 1517 414 1440 414 
L 1101 414 
L 1101 4416 
L 563 4416 
L 563 0 
L 3002 0 
L 3002 414 
L 1670 414 
z
" transform="scale(0.015625)"/>
       <path id="CMSS17-61" d="M 2406 1791 
C 2406 2392 1978 2808 1402 2808 
C 1120 2808 813 2757 461 2553 
L 499 2135 
C 659 2248 934 2432 1395 2432 
C 1722 2432 1920 2180 1920 1782 
L 1920 1536 
C 896 1536 256 1238 256 726 
C 256 461 416 -64 947 -64 
C 1043 -64 1562 -64 1933 217 
L 1933 -19 
L 2406 -19 
L 2406 1791 
z
M 1920 816 
C 1920 701 1920 548 1728 434 
C 1562 325 1350 325 1261 325 
C 941 325 723 511 723 744 
C 723 1211 1722 1211 1920 1211 
L 1920 816 
z
" transform="scale(0.015625)"/>
       <path id="CMSS17-6e" d="M 2618 1877 
C 2618 2283 2522 2816 1798 2816 
C 1389 2816 1120 2606 941 2389 
L 941 2758 
L 474 2758 
L 474 0 
L 960 0 
L 960 1559 
C 960 1964 1114 2428 1549 2428 
C 2112 2428 2131 2048 2131 1829 
L 2131 0 
L 2618 0 
L 2618 1877 
z
" transform="scale(0.015625)"/>
       <path id="CMSS17-67" d="M 2848 2808 
C 2483 2808 2170 2738 1914 2617 
C 1702 2777 1485 2808 1338 2808 
C 781 2808 358 2349 358 1814 
C 358 1468 550 1207 563 1195 
C 448 1035 384 863 384 672 
C 384 448 474 289 544 200 
C 211 -3 166 -314 166 -435 
C 166 -898 749 -1280 1498 -1280 
C 2253 -1280 2835 -898 2835 -428 
C 2835 448 1856 448 1587 448 
L 1069 448 
C 973 448 717 448 717 791 
C 717 921 774 1004 781 1010 
C 877 940 1075 832 1338 832 
C 1869 832 2310 1278 2310 1827 
C 2310 2132 2170 2355 2112 2432 
L 2131 2432 
C 2150 2432 2419 2432 2515 2432 
C 2720 2432 2739 2429 2918 2419 
L 2848 2808 
z
M 1338 1182 
C 1120 1182 813 1315 813 1823 
C 813 2375 1165 2464 1331 2464 
C 1549 2464 1856 2331 1856 1823 
C 1856 1271 1504 1182 1338 1182 
z
M 1581 -10 
C 1734 -10 2381 -10 2381 -442 
C 2381 -714 1984 -929 1504 -929 
C 1018 -929 621 -720 621 -435 
C 621 -403 621 -10 1062 -10 
L 1581 -10 
z
" transform="scale(0.015625)"/>
       <path id="CMSS17-65" d="M 2502 1377 
C 2502 1590 2490 2003 2285 2345 
C 2061 2713 1696 2816 1421 2816 
C 755 2816 192 2188 192 1375 
C 192 582 774 -64 1510 -64 
C 1798 -64 2150 19 2470 248 
C 2470 274 2458 414 2451 420 
C 2451 433 2432 630 2432 656 
C 2125 407 1773 325 1517 325 
C 1107 325 666 667 646 1377 
L 2502 1377 
z
M 698 1728 
C 781 2084 1062 2421 1421 2421 
C 1517 2421 1965 2421 2080 1728 
L 698 1728 
z
" transform="scale(0.015625)"/>
       <path id="CMSS17-76" d="M 2675 2752 
L 2176 2752 
L 1747 1556 
C 1613 1165 1421 627 1389 352 
L 1382 352 
C 1370 468 1318 634 1286 749 
C 1248 890 1197 1056 1158 1172 
L 595 2752 
L 83 2752 
L 1094 0 
L 1664 0 
L 2675 2752 
z
" transform="scale(0.015625)"/>
       <path id="CMSS17-69" d="M 979 4183 
L 442 4183 
L 442 3648 
L 979 3648 
L 979 4183 
z
M 947 2739 
L 474 2739 
L 474 0 
L 947 0 
L 947 2739 
z
" transform="scale(0.015625)"/>
      </defs>
      <use xlink:href="#CMSS17-4c" transform="scale(0.996264)"/>
      <use xlink:href="#CMSS17-61" transform="translate(50.687105 0) scale(0.996264)"/>
      <use xlink:href="#CMSS17-6e" transform="translate(95.609026 0) scale(0.996264)"/>
      <use xlink:href="#CMSS17-67" transform="translate(143.813969 0) scale(0.996264)"/>
      <use xlink:href="#CMSS17-65" transform="translate(190.657593 0) scale(0.996264)"/>
      <use xlink:href="#CMSS17-76" transform="translate(232.296415 0) scale(0.996264)"/>
      <use xlink:href="#CMSS17-69" transform="translate(275.296556 0) scale(0.996264)"/>
      <use xlink:href="#CMSS17-6e" transform="translate(297.477279 0) scale(0.996264)"/>
     </g>
    </g>
    <g id="line2d_33">
     <path d="M 44.232304 33.637178 
L 54.232304 33.637178 
L 64.232304 33.637178 
" style="fill: none; stroke: #d1dae9; stroke-width: 1.5; stroke-linecap: square"/>
    </g>
    <g id="text_16">
     <!-- SMD-Langevin -->
     <g transform="translate(72.232304 37.137178) scale(0.1 -0.1)">
      <defs>
       <path id="CMSS17-53" d="M 2797 4169 
C 2515 4334 2208 4480 1690 4480 
C 864 4480 333 3879 333 3266 
C 333 3025 403 2753 653 2475 
C 902 2196 1184 2121 1542 2033 
C 1690 1994 1939 1924 1984 1906 
C 2342 1767 2515 1444 2515 1140 
C 2515 742 2202 318 1645 318 
C 1453 318 890 318 358 819 
L 269 318 
C 794 -64 1363 -128 1651 -128 
C 2438 -128 3002 488 3002 1186 
C 3002 1440 2925 1763 2656 2061 
C 2394 2347 2163 2410 1638 2549 
C 1338 2626 1146 2677 986 2873 
C 877 3013 819 3146 819 3317 
C 819 3673 1126 4060 1690 4060 
C 1971 4060 2336 4002 2707 3660 
L 2797 4169 
z
" transform="scale(0.015625)"/>
       <path id="CMSS17-4d" d="M 3194 2371 
L 2886 1473 
C 2835 1307 2662 791 2624 587 
L 2618 587 
C 2598 715 2560 849 2458 1174 
C 2400 1365 2336 1562 2272 1741 
L 1325 4416 
L 576 4416 
L 576 0 
L 1075 0 
L 1075 3900 
L 1082 3900 
C 1082 3894 1139 3613 1530 2499 
L 2374 96 
L 2848 96 
L 3610 2231 
C 3661 2378 3821 2843 3891 3066 
C 3955 3257 4115 3728 4154 3913 
L 4160 3913 
L 4160 0 
L 4666 0 
L 4666 4416 
L 3923 4416 
L 3194 2371 
z
" transform="scale(0.015625)"/>
       <path id="CMSS17-44" d="M 570 4416 
L 570 0 
L 2144 0 
C 3194 0 4000 980 4000 2170 
C 4000 3398 3194 4416 2144 4416 
L 570 4416 
z
M 1094 357 
L 1094 4059 
L 2003 4059 
C 2861 4059 3475 3277 3475 2170 
C 3475 1107 2867 357 2003 357 
L 1094 357 
z
" transform="scale(0.015625)"/>
       <path id="CMSS17-2d" d="M 1664 1216 
L 1664 1585 
L 64 1585 
L 64 1216 
L 1664 1216 
z
" transform="scale(0.015625)"/>
      </defs>
      <use xlink:href="#CMSS17-53" transform="scale(0.996264)"/>
      <use xlink:href="#CMSS17-4d" transform="translate(52.048516 0) scale(0.996264)"/>
      <use xlink:href="#CMSS17-44" transform="translate(133.724546 0) scale(0.996264)"/>
      <use xlink:href="#CMSS17-2d" transform="translate(201.267388 0) scale(0.996264)"/>
      <use xlink:href="#CMSS17-4c" transform="translate(232.496501 0) scale(0.996264)"/>
      <use xlink:href="#CMSS17-61" transform="translate(283.183606 0) scale(0.996264)"/>
      <use xlink:href="#CMSS17-6e" transform="translate(328.105527 0) scale(0.996264)"/>
      <use xlink:href="#CMSS17-67" transform="translate(376.31047 0) scale(0.996264)"/>
      <use xlink:href="#CMSS17-65" transform="translate(423.154093 0) scale(0.996264)"/>
      <use xlink:href="#CMSS17-76" transform="translate(464.792915 0) scale(0.996264)"/>
      <use xlink:href="#CMSS17-69" transform="translate(507.793057 0) scale(0.996264)"/>
      <use xlink:href="#CMSS17-6e" transform="translate(529.97378 0) scale(0.996264)"/>
     </g>
    </g>
    <g id="line2d_34">
     <path d="M 44.232304 47.574357 
L 54.232304 47.574357 
L 64.232304 47.574357 
" style="fill: none; stroke: #3a4cc0; stroke-width: 1.5; stroke-linecap: square"/>
    </g>
    <g id="text_17">
     <!-- GCN-Langevin -->
     <g transform="translate(72.232304 51.074357) scale(0.1 -0.1)">
      <defs>
       <path id="CMSS17-47" d="M 3610 1856 
L 2336 1856 
L 2336 1461 
L 3123 1461 
L 3123 471 
C 2874 401 2618 350 2362 350 
C 1466 350 934 1301 934 2200 
C 934 3095 1491 4032 2362 4032 
C 2854 4032 3130 3881 3469 3627 
L 3552 4134 
C 3130 4351 2867 4440 2387 4440 
C 1146 4440 397 3324 397 2182 
C 397 1090 1152 -64 2349 -64 
C 2797 -64 3213 51 3610 248 
L 3610 1856 
z
" transform="scale(0.015625)"/>
       <path id="CMSS17-43" d="M 3501 714 
C 3072 427 2874 344 2355 344 
C 1459 344 934 1303 934 2179 
C 934 3112 1472 4032 2381 4032 
C 2790 4032 3059 3918 3386 3715 
L 3475 4217 
C 3168 4370 2778 4440 2387 4440 
C 1158 4440 397 3316 397 2179 
C 397 927 1299 -64 2323 -64 
C 2874 -64 3066 -19 3539 280 
L 3501 714 
z
" transform="scale(0.015625)"/>
       <path id="CMSS17-4e" d="M 1466 4180 
L 1350 4416 
L 563 4416 
L 563 0 
L 1062 0 
L 1062 3926 
L 1069 3932 
C 1114 3817 1139 3760 1402 3194 
L 2771 236 
L 2886 0 
L 3674 0 
L 3674 4416 
L 3174 4416 
L 3174 490 
L 3168 483 
C 3123 598 3098 655 2835 1221 
L 1466 4180 
z
" transform="scale(0.015625)"/>
      </defs>
      <use xlink:href="#CMSS17-47" transform="scale(0.996264)"/>
      <use xlink:href="#CMSS17-43" transform="translate(62.458226 0) scale(0.996264)"/>
      <use xlink:href="#CMSS17-4e" transform="translate(122.313997 0) scale(0.996264)"/>
      <use xlink:href="#CMSS17-2d" transform="translate(188.375516 0) scale(0.996264)"/>
      <use xlink:href="#CMSS17-4c" transform="translate(219.604629 0) scale(0.996264)"/>
      <use xlink:href="#CMSS17-61" transform="translate(270.291734 0) scale(0.996264)"/>
      <use xlink:href="#CMSS17-6e" transform="translate(315.213655 0) scale(0.996264)"/>
      <use xlink:href="#CMSS17-67" transform="translate(363.418598 0) scale(0.996264)"/>
      <use xlink:href="#CMSS17-65" transform="translate(410.262222 0) scale(0.996264)"/>
      <use xlink:href="#CMSS17-76" transform="translate(451.901044 0) scale(0.996264)"/>
      <use xlink:href="#CMSS17-69" transform="translate(494.901185 0) scale(0.996264)"/>
      <use xlink:href="#CMSS17-6e" transform="translate(517.081908 0) scale(0.996264)"/>
     </g>
    </g>
   </g>
  </g>
 </g>
 <defs>
  <clipPath id="pf82e2448c5">
   <rect x="35.232304" y="7.2" width="1071.36" height="266.112"/>
  </clipPath>
 </defs>
</svg>
