<?xml version="1.0" encoding="utf-8" standalone="no"?>
<!DOCTYPE svg PUBLIC "-//W3C//DTD SVG 1.1//EN"
  "http://www.w3.org/Graphics/SVG/1.1/DTD/svg11.dtd">
<svg xmlns:xlink="http://www.w3.org/1999/xlink" width="391.250079pt" height="296.367677pt" viewBox="0 0 391.250079 296.367677" xmlns="http://www.w3.org/2000/svg" version="1.1">
 <metadata>
  <rdf:RDF xmlns:dc="http://purl.org/dc/elements/1.1/" xmlns:cc="http://creativecommons.org/ns#" xmlns:rdf="http://www.w3.org/1999/02/22-rdf-syntax-ns#">
   <cc:Work>
    <dc:type rdf:resource="http://purl.org/dc/dcmitype/StillImage"/>
    <dc:date>2026-03-26T11:07:11.923605</dc:date>
    <dc:format>image/svg+xml</dc:format>
    <dc:creator>
     <cc:Agent>
      <dc:title>Matplotlib v3.10.7, https://matplotlib.org/</dc:title>
     </cc:Agent>
    </dc:creator>
   </cc:Work>
  </rdf:RDF>
 </metadata>
 <defs>
  <style type="text/css">*{stroke-linejoin: round; stroke-linecap: butt}</style>
 </defs>
 <g id="figure_1">
  <g id="patch_1">
   <path d="M 0 296.367677 
L 391.250079 296.367677 
L 391.250079 0 
L 0 0 
z
" style="fill: #ffffff"/>
  </g>
  <g id="axes_1">
   <g id="patch_2">
    <path d="M 26.930079 273.312 
L 384.050079 273.312 
L 384.050079 7.2 
L 26.930079 7.2 
z
" style="fill: #ffffff"/>
   </g>
   <g id="matplotlib.axis_1">
    <g id="xtick_1">
     <g id="line2d_1">
      <defs>
       <path id="m2a85d62605" d="M 0 0 
L 0 3.5 
" style="stroke: #000000; stroke-width: 0.8"/>
      </defs>
      <g>
       <use xlink:href="#m2a85d62605" x="43.162806" y="273.312" style="stroke: #000000; stroke-width: 0.8"/>
      </g>
     </g>
     <g id="text_1">
      <!-- $\mathdefault{0}$ -->
      <g transform="translate(40.672139 287.230498) scale(0.1 -0.1)">
       <defs>
        <path id="CMR17-30" d="M 2688 2025 
C 2688 2416 2682 3080 2413 3591 
C 2176 4039 1798 4198 1466 4198 
C 1158 4198 768 4058 525 3597 
C 269 3118 243 2524 243 2025 
C 243 1661 250 1106 448 619 
C 723 -39 1216 -128 1466 -128 
C 1760 -128 2208 -7 2470 600 
C 2662 1042 2688 1559 2688 2025 
z
M 1466 -26 
C 1056 -26 813 325 723 812 
C 653 1188 653 1738 653 2096 
C 653 2588 653 2997 736 3387 
C 858 3929 1216 4096 1466 4096 
C 1728 4096 2067 3923 2189 3400 
C 2272 3036 2278 2607 2278 2096 
C 2278 1680 2278 1169 2202 792 
C 2067 95 1690 -26 1466 -26 
z
" transform="scale(0.015625)"/>
       </defs>
       <use xlink:href="#CMR17-30" transform="scale(0.996264)"/>
      </g>
     </g>
    </g>
    <g id="xtick_2">
     <g id="line2d_2">
      <g>
       <use xlink:href="#m2a85d62605" x="108.093715" y="273.312" style="stroke: #000000; stroke-width: 0.8"/>
      </g>
     </g>
     <g id="text_2">
      <!-- $\mathdefault{200}$ -->
      <g transform="translate(100.621712 287.230498) scale(0.1 -0.1)">
       <defs>
        <path id="CMR17-32" d="M 2669 989 
L 2554 989 
C 2490 536 2438 459 2413 420 
C 2381 369 1920 369 1830 369 
L 602 369 
C 832 619 1280 1072 1824 1597 
C 2214 1967 2669 2402 2669 3035 
C 2669 3790 2067 4224 1395 4224 
C 691 4224 262 3604 262 3030 
C 262 2780 448 2748 525 2748 
C 589 2748 781 2787 781 3010 
C 781 3207 614 3264 525 3264 
C 486 3264 448 3258 422 3245 
C 544 3790 915 4058 1306 4058 
C 1862 4058 2227 3617 2227 3035 
C 2227 2479 1901 2000 1536 1584 
L 262 146 
L 262 0 
L 2515 0 
L 2669 989 
z
" transform="scale(0.015625)"/>
       </defs>
       <use xlink:href="#CMR17-32" transform="scale(0.996264)"/>
       <use xlink:href="#CMR17-30" transform="translate(45.690477 0) scale(0.996264)"/>
       <use xlink:href="#CMR17-30" transform="translate(91.380954 0) scale(0.996264)"/>
      </g>
     </g>
    </g>
    <g id="xtick_3">
     <g id="line2d_3">
      <g>
       <use xlink:href="#m2a85d62605" x="173.024624" y="273.312" style="stroke: #000000; stroke-width: 0.8"/>
      </g>
     </g>
     <g id="text_3">
      <!-- $\mathdefault{400}$ -->
      <g transform="translate(165.552622 287.230498) scale(0.1 -0.1)">
       <defs>
        <path id="CMR17-34" d="M 2150 4122 
C 2150 4256 2144 4256 2029 4256 
L 128 1254 
L 128 1088 
L 1779 1088 
L 1779 457 
C 1779 224 1766 160 1318 160 
L 1197 160 
L 1197 0 
C 1402 0 1747 0 1965 0 
C 2182 0 2528 0 2733 0 
L 2733 160 
L 2611 160 
C 2163 160 2150 224 2150 457 
L 2150 1088 
L 2803 1088 
L 2803 1254 
L 2150 1254 
L 2150 4122 
z
M 1798 3703 
L 1798 1254 
L 256 1254 
L 1798 3703 
z
" transform="scale(0.015625)"/>
       </defs>
       <use xlink:href="#CMR17-34" transform="scale(0.996264)"/>
       <use xlink:href="#CMR17-30" transform="translate(45.690477 0) scale(0.996264)"/>
       <use xlink:href="#CMR17-30" transform="translate(91.380954 0) scale(0.996264)"/>
      </g>
     </g>
    </g>
    <g id="xtick_4">
     <g id="line2d_4">
      <g>
       <use xlink:href="#m2a85d62605" x="237.955534" y="273.312" style="stroke: #000000; stroke-width: 0.8"/>
      </g>
     </g>
     <g id="text_4">
      <!-- $\mathdefault{600}$ -->
      <g transform="translate(230.483531 287.230498) scale(0.1 -0.1)">
       <defs>
        <path id="CMR17-36" d="M 678 2176 
C 678 3690 1395 4032 1811 4032 
C 1946 4032 2272 4009 2400 3776 
C 2298 3776 2106 3776 2106 3553 
C 2106 3381 2246 3323 2336 3323 
C 2394 3323 2566 3348 2566 3560 
C 2566 3954 2246 4179 1805 4179 
C 1043 4179 243 3390 243 1984 
C 243 253 966 -128 1478 -128 
C 2099 -128 2688 427 2688 1283 
C 2688 2081 2170 2662 1517 2662 
C 1126 2662 838 2407 678 1960 
L 678 2176 
z
M 1478 25 
C 691 25 691 1200 691 1436 
C 691 1896 909 2560 1504 2560 
C 1613 2560 1926 2560 2138 2120 
C 2253 1870 2253 1609 2253 1289 
C 2253 944 2253 690 2118 434 
C 1978 171 1773 25 1478 25 
z
" transform="scale(0.015625)"/>
       </defs>
       <use xlink:href="#CMR17-36" transform="scale(0.996264)"/>
       <use xlink:href="#CMR17-30" transform="translate(45.690477 0) scale(0.996264)"/>
       <use xlink:href="#CMR17-30" transform="translate(91.380954 0) scale(0.996264)"/>
      </g>
     </g>
    </g>
    <g id="xtick_5">
     <g id="line2d_5">
      <g>
       <use xlink:href="#m2a85d62605" x="302.886443" y="273.312" style="stroke: #000000; stroke-width: 0.8"/>
      </g>
     </g>
     <g id="text_5">
      <!-- $\mathdefault{800}$ -->
      <g transform="translate(295.41444 287.230498) scale(0.1 -0.1)">
       <defs>
        <path id="CMR17-38" d="M 1741 2264 
C 2144 2467 2554 2773 2554 3263 
C 2554 3841 1990 4179 1472 4179 
C 890 4179 378 3759 378 3180 
C 378 3021 416 2747 666 2505 
C 730 2442 998 2251 1171 2130 
C 883 1983 211 1634 211 934 
C 211 279 838 -128 1459 -128 
C 2144 -128 2720 362 2720 1010 
C 2720 1590 2330 1857 2074 2029 
L 1741 2264 
z
M 902 2822 
C 851 2854 595 3051 595 3351 
C 595 3739 998 4032 1459 4032 
C 1965 4032 2336 3676 2336 3262 
C 2336 2669 1670 2331 1638 2331 
C 1632 2331 1626 2331 1574 2370 
L 902 2822 
z
M 2080 1519 
C 2176 1449 2483 1240 2483 851 
C 2483 381 2010 25 1472 25 
C 890 25 448 438 448 940 
C 448 1443 838 1862 1280 2060 
L 2080 1519 
z
" transform="scale(0.015625)"/>
       </defs>
       <use xlink:href="#CMR17-38" transform="scale(0.996264)"/>
       <use xlink:href="#CMR17-30" transform="translate(45.690477 0) scale(0.996264)"/>
       <use xlink:href="#CMR17-30" transform="translate(91.380954 0) scale(0.996264)"/>
      </g>
     </g>
    </g>
    <g id="xtick_6">
     <g id="line2d_6">
      <g>
       <use xlink:href="#m2a85d62605" x="367.817352" y="273.312" style="stroke: #000000; stroke-width: 0.8"/>
      </g>
     </g>
     <g id="text_6">
      <!-- $\mathdefault{1000}$ -->
      <g transform="translate(357.854681 287.230498) scale(0.1 -0.1)">
       <defs>
        <path id="CMR17-31" d="M 1702 4058 
C 1702 4192 1696 4192 1606 4192 
C 1357 3916 979 3827 621 3827 
C 602 3827 570 3827 563 3808 
C 557 3795 557 3782 557 3648 
C 755 3648 1088 3686 1344 3839 
L 1344 461 
C 1344 236 1331 160 781 160 
L 589 160 
L 589 0 
C 896 0 1216 0 1523 0 
C 1830 0 2150 0 2458 0 
L 2458 160 
L 2266 160 
C 1715 160 1702 230 1702 458 
L 1702 4058 
z
" transform="scale(0.015625)"/>
       </defs>
       <use xlink:href="#CMR17-31" transform="scale(0.996264)"/>
       <use xlink:href="#CMR17-30" transform="translate(45.690477 0) scale(0.996264)"/>
       <use xlink:href="#CMR17-30" transform="translate(91.380954 0) scale(0.996264)"/>
       <use xlink:href="#CMR17-30" transform="translate(137.071431 0) scale(0.996264)"/>
      </g>
     </g>
    </g>
   </g>
   <g id="matplotlib.axis_2">
    <g id="ytick_1">
     <g id="line2d_7">
      <defs>
       <path id="mc300824fb1" d="M 0 0 
L -3.5 0 
" style="stroke: #000000; stroke-width: 0.8"/>
      </defs>
      <g>
       <use xlink:href="#mc300824fb1" x="26.930079" y="238.242255" style="stroke: #000000; stroke-width: 0.8"/>
      </g>
     </g>
     <g id="text_7">
      <!-- $\mathdefault{5.0}$ -->
      <g transform="translate(7.2 241.701505) scale(0.1 -0.1)">
       <defs>
        <path id="CMR17-35" d="M 730 3692 
C 794 3666 1056 3584 1325 3584 
C 1920 3584 2246 3911 2432 4100 
C 2432 4157 2432 4192 2394 4192 
C 2387 4192 2374 4192 2323 4163 
C 2099 4058 1837 3973 1517 3973 
C 1325 3973 1037 3999 723 4139 
C 653 4171 640 4171 634 4171 
C 602 4171 595 4164 595 4037 
L 595 2203 
C 595 2089 595 2057 659 2057 
C 691 2057 704 2070 736 2114 
C 941 2401 1222 2522 1542 2522 
C 1766 2522 2246 2382 2246 1289 
C 2246 1085 2246 715 2054 421 
C 1894 159 1645 25 1370 25 
C 947 25 518 320 403 814 
C 429 807 480 795 506 795 
C 589 795 749 840 749 1038 
C 749 1210 627 1280 506 1280 
C 358 1280 262 1190 262 1011 
C 262 454 704 -128 1382 -128 
C 2042 -128 2669 440 2669 1264 
C 2669 2030 2170 2624 1549 2624 
C 1222 2624 947 2503 730 2274 
L 730 3692 
z
" transform="scale(0.015625)"/>
        <path id="CMMI12-3a" d="M 1178 307 
C 1178 492 1024 619 870 619 
C 685 619 557 466 557 313 
C 557 128 710 0 864 0 
C 1050 0 1178 153 1178 307 
z
" transform="scale(0.015625)"/>
       </defs>
       <use xlink:href="#CMR17-35" transform="scale(0.996264)"/>
       <use xlink:href="#CMMI12-3a" transform="translate(45.690477 0) scale(0.996264)"/>
       <use xlink:href="#CMR17-30" transform="translate(72.787654 0) scale(0.996264)"/>
      </g>
     </g>
    </g>
    <g id="ytick_2">
     <g id="line2d_8">
      <g>
       <use xlink:href="#mc300824fb1" x="26.930079" y="198.665357" style="stroke: #000000; stroke-width: 0.8"/>
      </g>
     </g>
     <g id="text_8">
      <!-- $\mathdefault{5.2}$ -->
      <g transform="translate(7.2 202.124606) scale(0.1 -0.1)">
       <use xlink:href="#CMR17-35" transform="scale(0.996264)"/>
       <use xlink:href="#CMMI12-3a" transform="translate(45.690477 0) scale(0.996264)"/>
       <use xlink:href="#CMR17-32" transform="translate(72.787654 0) scale(0.996264)"/>
      </g>
     </g>
    </g>
    <g id="ytick_3">
     <g id="line2d_9">
      <g>
       <use xlink:href="#mc300824fb1" x="26.930079" y="159.088459" style="stroke: #000000; stroke-width: 0.8"/>
      </g>
     </g>
     <g id="text_9">
      <!-- $\mathdefault{5.4}$ -->
      <g transform="translate(7.2 162.547708) scale(0.1 -0.1)">
       <use xlink:href="#CMR17-35" transform="scale(0.996264)"/>
       <use xlink:href="#CMMI12-3a" transform="translate(45.690477 0) scale(0.996264)"/>
       <use xlink:href="#CMR17-34" transform="translate(72.787654 0) scale(0.996264)"/>
      </g>
     </g>
    </g>
    <g id="ytick_4">
     <g id="line2d_10">
      <g>
       <use xlink:href="#mc300824fb1" x="26.930079" y="119.511561" style="stroke: #000000; stroke-width: 0.8"/>
      </g>
     </g>
     <g id="text_10">
      <!-- $\mathdefault{5.6}$ -->
      <g transform="translate(7.2 122.97081) scale(0.1 -0.1)">
       <use xlink:href="#CMR17-35" transform="scale(0.996264)"/>
       <use xlink:href="#CMMI12-3a" transform="translate(45.690477 0) scale(0.996264)"/>
       <use xlink:href="#CMR17-36" transform="translate(72.787654 0) scale(0.996264)"/>
      </g>
     </g>
    </g>
    <g id="ytick_5">
     <g id="line2d_11">
      <g>
       <use xlink:href="#mc300824fb1" x="26.930079" y="79.934662" style="stroke: #000000; stroke-width: 0.8"/>
      </g>
     </g>
     <g id="text_11">
      <!-- $\mathdefault{5.8}$ -->
      <g transform="translate(7.2 83.393911) scale(0.1 -0.1)">
       <use xlink:href="#CMR17-35" transform="scale(0.996264)"/>
       <use xlink:href="#CMMI12-3a" transform="translate(45.690477 0) scale(0.996264)"/>
       <use xlink:href="#CMR17-38" transform="translate(72.787654 0) scale(0.996264)"/>
      </g>
     </g>
    </g>
    <g id="ytick_6">
     <g id="line2d_12">
      <g>
       <use xlink:href="#mc300824fb1" x="26.930079" y="40.357764" style="stroke: #000000; stroke-width: 0.8"/>
      </g>
     </g>
     <g id="text_12">
      <!-- $\mathdefault{6.0}$ -->
      <g transform="translate(7.2 43.817013) scale(0.1 -0.1)">
       <use xlink:href="#CMR17-36" transform="scale(0.996264)"/>
       <use xlink:href="#CMMI12-3a" transform="translate(45.690477 0) scale(0.996264)"/>
       <use xlink:href="#CMR17-30" transform="translate(72.787654 0) scale(0.996264)"/>
      </g>
     </g>
    </g>
   </g>
   <g id="line2d_13">
    <path d="M 43.162806 113.037299 
L 43.812115 101.022045 
L 44.461424 105.931524 
L 44.786079 98.332968 
L 45.110734 96.206445 
L 45.435388 101.453772 
L 45.760043 94.574988 
L 46.084697 90.069616 
L 46.409352 98.598393 
L 46.734006 96.44417 
L 47.058661 92.02988 
L 47.383315 90.671626 
L 47.70797 86.958535 
L 48.032624 79.038377 
L 48.357279 85.755286 
L 48.681934 84.850278 
L 49.006588 97.825296 
L 49.655897 93.958065 
L 49.980552 106.672465 
L 50.629861 88.953853 
L 50.954515 87.721993 
L 51.27917 85.291795 
L 51.603824 96.142055 
L 52.253134 93.599812 
L 52.577788 85.478273 
L 52.902443 87.437795 
L 53.551752 98.849661 
L 53.876406 100.050217 
L 54.201061 112.070049 
L 54.85037 104.245937 
L 55.175024 103.010702 
L 55.499679 111.216653 
L 55.824334 112.26828 
L 56.148988 100.21176 
L 56.473643 104.74017 
L 56.798297 99.248337 
L 57.122952 102.757684 
L 57.447606 99.642633 
L 57.772261 108.225747 
L 58.096915 111.780714 
L 58.42157 123.423753 
L 59.395534 106.552752 
L 59.720188 108.093783 
L 60.694152 116.606318 
L 61.018806 115.562963 
L 61.343461 113.259871 
L 61.668115 113.881991 
L 61.99277 109.2174 
L 62.317424 93.703926 
L 62.642079 105.4689 
L 63.291388 92.373186 
L 63.616043 97.070817 
L 63.940697 95.718054 
L 64.265352 100.941492 
L 64.590006 98.358025 
L 64.914661 106.334593 
L 65.239315 96.914466 
L 65.56397 97.962511 
L 65.888624 94.100432 
L 66.213279 93.420466 
L 66.862588 76.157899 
L 67.511897 79.501859 
L 67.836552 73.5111 
L 68.161206 74.414282 
L 68.485861 65.181211 
L 69.13517 57.118434 
L 69.459824 63.638303 
L 69.784479 62.718081 
L 70.109134 58.97815 
L 70.433788 62.579473 
L 70.758443 60.31268 
L 71.083097 56.469995 
L 71.407752 61.86811 
L 71.732406 77.448335 
L 72.381715 73.309914 
L 72.70637 74.998151 
L 73.031024 60.901177 
L 73.680334 64.346742 
L 74.004988 68.259082 
L 74.329643 63.674867 
L 74.654297 76.555675 
L 74.978952 76.325013 
L 75.303606 79.800502 
L 75.628261 86.498773 
L 75.952915 78.082607 
L 76.27757 83.031799 
L 76.602224 86.168159 
L 76.926879 76.453675 
L 77.251534 70.350332 
L 77.576188 75.287088 
L 77.900843 71.631441 
L 78.225497 69.611212 
L 78.874806 78.846313 
L 79.199461 77.155961 
L 79.524115 77.84604 
L 79.84877 87.836316 
L 80.498079 112.187775 
L 81.472043 95.39315 
L 81.796697 96.181958 
L 82.121352 99.737881 
L 82.446006 108.414395 
L 82.770661 113.186695 
L 83.095315 105.225412 
L 83.41997 105.972524 
L 83.744624 99.686631 
L 84.069279 100.83678 
L 84.393934 97.149425 
L 84.718588 81.498903 
L 85.043243 81.058942 
L 85.367897 81.81762 
L 85.692552 80.837968 
L 86.017206 79.023754 
L 86.666515 72.708252 
L 86.99117 80.373208 
L 87.315824 73.499249 
L 87.640479 70.664664 
L 87.965134 72.075861 
L 88.614443 86.446432 
L 88.939097 88.585919 
L 89.588406 73.341037 
L 89.913061 75.42449 
L 90.237715 86.74618 
L 90.56237 82.673882 
L 90.887024 83.422983 
L 91.211679 90.210846 
L 91.536334 89.108969 
L 91.860988 85.229355 
L 92.185643 94.985585 
L 92.510297 97.282053 
L 92.834952 98.498198 
L 93.159606 94.550389 
L 93.484261 93.957183 
L 93.808915 85.975727 
L 94.13357 84.100824 
L 94.458224 79.550134 
L 94.782879 78.132013 
L 95.107534 72.798611 
L 95.432188 70.543107 
L 95.756843 70.509666 
L 96.081497 72.837899 
L 96.406152 69.970661 
L 96.730806 71.575649 
L 97.055461 78.989312 
L 97.380115 82.573543 
L 97.70477 90.910484 
L 98.029424 102.740782 
L 98.354079 93.129623 
L 98.678734 101.589772 
L 99.003388 99.051965 
L 99.328043 102.412641 
L 99.652697 93.237182 
L 100.626661 77.725795 
L 100.951315 81.056323 
L 101.27597 91.247548 
L 101.600624 84.832553 
L 101.925279 84.841917 
L 102.249934 89.517684 
L 102.899243 82.447865 
L 103.223897 92.549682 
L 103.548552 82.807965 
L 103.873206 81.828031 
L 104.197861 82.127851 
L 104.522515 90.374899 
L 104.84717 85.876813 
L 105.171824 86.592362 
L 105.496479 82.762266 
L 105.821134 72.557895 
L 106.145788 74.059522 
L 106.470443 73.598961 
L 106.795097 75.782126 
L 107.119752 88.695356 
L 107.444406 81.124888 
L 107.769061 65.461603 
L 108.093715 63.262762 
L 108.743024 76.001621 
L 109.067679 67.35073 
L 109.392334 69.673633 
L 109.716988 63.047166 
L 110.041643 71.962828 
L 110.366297 67.683214 
L 111.015606 78.126204 
L 111.664915 84.725019 
L 111.98957 90.166273 
L 112.314224 76.583271 
L 112.638879 81.742951 
L 112.963534 83.831972 
L 113.288188 77.120118 
L 113.612843 83.07378 
L 113.937497 70.647602 
L 114.262152 63.550699 
L 114.586806 71.349853 
L 114.911461 75.801914 
L 115.56077 95.497521 
L 115.885424 98.266408 
L 116.210079 92.35942 
L 116.534734 91.796031 
L 116.859388 96.63836 
L 117.184043 96.688168 
L 117.508697 83.71212 
L 117.833352 79.177069 
L 118.158006 70.637102 
L 118.482661 73.208867 
L 118.807315 82.809504 
L 119.13197 84.89463 
L 119.456624 75.155141 
L 119.781279 72.955656 
L 120.105934 77.869612 
L 120.430588 75.486953 
L 121.404552 88.19379 
L 122.053861 92.057042 
L 122.70317 82.615752 
L 123.027824 87.098023 
L 123.677134 81.210553 
L 124.001788 79.530185 
L 124.326443 71.738889 
L 124.651097 76.961288 
L 125.300406 96.409868 
L 125.625061 90.597855 
L 125.949715 93.694026 
L 126.27437 100.904072 
L 126.599024 98.773508 
L 126.923679 98.708882 
L 127.248334 96.88836 
L 127.572988 86.875292 
L 127.897643 93.386782 
L 128.222297 93.578733 
L 128.546952 88.925634 
L 128.871606 81.447606 
L 129.520915 96.91899 
L 129.84557 99.232873 
L 130.170224 99.497128 
L 130.819534 112.773265 
L 131.144188 112.321217 
L 131.468843 103.61461 
L 131.793497 99.774358 
L 132.118152 102.197528 
L 132.442806 97.72945 
L 132.767461 95.815905 
L 133.092115 102.938377 
L 133.41677 113.68625 
L 133.741424 118.545301 
L 134.390734 114.415631 
L 134.715388 113.80733 
L 135.364697 99.389541 
L 136.014006 82.745928 
L 136.338661 83.024558 
L 136.663315 84.688215 
L 136.98797 88.316441 
L 137.312624 96.617145 
L 137.961934 89.97875 
L 138.286588 89.605404 
L 138.611243 94.353863 
L 138.935897 81.87804 
L 139.260552 80.763461 
L 139.585206 85.098862 
L 139.909861 86.148518 
L 140.55917 78.947344 
L 140.883824 83.865817 
L 141.208479 81.077087 
L 141.533134 69.54316 
L 141.857788 66.722736 
L 142.182443 78.181893 
L 142.507097 85.028468 
L 142.831752 85.049287 
L 143.156406 83.384363 
L 143.481061 76.223562 
L 143.805715 79.923245 
L 144.13037 77.980623 
L 144.455024 80.805907 
L 144.779679 76.004657 
L 145.104334 83.265938 
L 145.428988 86.516819 
L 145.753643 82.12241 
L 146.078297 86.796067 
L 146.402952 89.348971 
L 146.727606 86.062166 
L 147.052261 89.891768 
L 147.376915 91.189694 
L 147.70157 95.629409 
L 148.026224 98.478441 
L 148.350879 98.219589 
L 148.675534 87.220246 
L 149.000188 86.055924 
L 149.324843 84.127229 
L 149.649497 92.889529 
L 149.974152 86.193382 
L 150.298806 86.651787 
L 151.27277 83.079528 
L 151.597424 79.962854 
L 151.922079 72.645381 
L 152.246734 76.082815 
L 152.571388 74.00949 
L 152.896043 72.959366 
L 153.220697 67.956933 
L 153.545352 69.053399 
L 153.870006 75.820317 
L 154.194661 74.689526 
L 154.519315 67.676607 
L 154.84397 69.899058 
L 155.168624 71.151315 
L 155.493279 70.153663 
L 155.817934 71.967653 
L 156.142588 67.472243 
L 156.467243 69.587102 
L 156.791897 65.006628 
L 157.441206 71.408109 
L 157.765861 65.419704 
L 158.090515 66.479771 
L 158.41517 63.634696 
L 158.739824 55.433779 
L 159.064479 56.743007 
L 159.713788 67.903713 
L 160.038443 65.999227 
L 160.363097 68.943924 
L 160.687752 69.55925 
L 161.012406 72.978976 
L 161.337061 64.211069 
L 161.98637 62.091954 
L 162.311024 56.849569 
L 162.635679 56.509573 
L 162.960334 60.870133 
L 163.284988 58.643572 
L 163.609643 61.020275 
L 163.934297 61.717261 
L 164.258952 64.600586 
L 164.583606 71.262724 
L 165.232915 75.858305 
L 165.55757 74.1402 
L 165.882224 74.694806 
L 166.206879 69.167116 
L 166.531534 72.665366 
L 166.856188 78.934126 
L 167.180843 79.90465 
L 167.505497 76.751838 
L 168.154806 90.033372 
L 168.479461 88.12282 
L 168.804115 90.95417 
L 169.12877 92.588543 
L 169.778079 80.656152 
L 170.102734 82.273988 
L 170.427388 94.955999 
L 171.076697 105.161834 
L 171.401352 105.701524 
L 171.726006 106.469689 
L 172.050661 100.827854 
L 172.375315 104.338913 
L 172.69997 105.455461 
L 173.024624 101.719371 
L 173.349279 94.263601 
L 173.673934 97.765718 
L 173.998588 91.270514 
L 174.323243 88.960938 
L 174.647897 93.71157 
L 174.972552 90.455308 
L 175.297206 97.935819 
L 175.621861 98.837395 
L 175.946515 102.619568 
L 176.27117 110.430704 
L 176.595824 105.875583 
L 176.920479 97.468429 
L 177.245134 111.061913 
L 177.569788 115.746225 
L 177.894443 107.604583 
L 178.219097 110.346491 
L 178.543752 108.836748 
L 178.868406 104.725561 
L 179.193061 108.200993 
L 179.517715 98.440575 
L 179.84237 100.7216 
L 180.167024 91.541261 
L 180.816334 106.090618 
L 181.140988 103.718134 
L 181.465643 106.965917 
L 181.790297 100.516767 
L 182.114952 101.612573 
L 182.764261 118.157489 
L 183.41357 108.570341 
L 183.738224 114.056217 
L 184.062879 115.393901 
L 184.387534 121.767414 
L 184.712188 123.257639 
L 185.036843 117.402371 
L 185.361497 122.752454 
L 185.686152 115.593135 
L 186.010806 121.713964 
L 186.335461 112.172847 
L 186.660115 122.271852 
L 187.309424 104.353469 
L 187.634079 103.611884 
L 188.283388 116.888541 
L 188.608043 118.624144 
L 188.932697 121.748564 
L 189.257352 111.71761 
L 189.906661 107.396899 
L 190.231315 110.174545 
L 190.55597 111.15219 
L 190.880624 111.715815 
L 191.205279 114.245339 
L 191.529934 103.12076 
L 191.854588 105.119773 
L 192.179243 115.30369 
L 192.503897 109.46464 
L 192.828552 110.577081 
L 193.153206 111.181432 
L 193.477861 108.902453 
L 193.802515 113.023825 
L 194.12717 103.522453 
L 194.451824 105.704442 
L 194.776479 97.224088 
L 195.101134 101.336638 
L 195.425788 98.394962 
L 195.750443 96.834376 
L 196.075097 85.274974 
L 196.724406 102.18715 
L 197.049061 100.097461 
L 197.373715 102.846785 
L 197.69837 102.266931 
L 198.023024 101.447731 
L 198.347679 106.302099 
L 198.672334 101.01554 
L 198.996988 97.904341 
L 199.321643 99.419126 
L 199.646297 97.896392 
L 199.970952 91.891314 
L 200.295606 88.234024 
L 200.620261 92.274773 
L 200.944915 90.322065 
L 201.26957 102.441457 
L 201.594224 105.508137 
L 202.243534 116.17739 
L 202.568188 115.188292 
L 202.892843 124.414022 
L 203.217497 127.223922 
L 203.542152 131.121676 
L 203.866806 136.83783 
L 204.191461 137.314914 
L 204.84077 130.155667 
L 205.490079 114.487049 
L 205.814734 113.73004 
L 206.139388 116.348339 
L 206.464043 113.883331 
L 206.788697 114.373102 
L 207.438006 106.677577 
L 207.762661 105.8813 
L 208.087315 96.917949 
L 208.41197 98.374633 
L 208.736624 100.56198 
L 209.061279 103.968575 
L 209.385934 115.963229 
L 209.710588 117.781374 
L 210.035243 120.838504 
L 210.359897 116.366572 
L 210.684552 117.94067 
L 211.009206 110.2819 
L 211.333861 111.198907 
L 211.658515 107.180529 
L 211.98317 122.889556 
L 212.307824 121.130232 
L 212.632479 128.802811 
L 213.281788 124.839826 
L 213.606443 133.371497 
L 213.931097 126.657406 
L 214.255752 122.893056 
L 214.580406 141.834178 
L 214.905061 124.546902 
L 215.229715 118.813599 
L 215.879024 134.773507 
L 216.203679 127.354028 
L 216.528334 138.348244 
L 216.852988 131.400158 
L 217.177643 133.680142 
L 217.502297 132.22471 
L 218.151606 144.823733 
L 218.476261 138.089355 
L 218.800915 146.810665 
L 219.774879 139.695856 
L 220.424188 137.312983 
L 220.748843 140.954646 
L 221.073497 142.131032 
L 221.398152 142.786526 
L 221.722806 143.83223 
L 222.047461 141.748097 
L 222.372115 142.368734 
L 222.69677 140.794201 
L 223.021424 134.173946 
L 223.346079 131.842215 
L 223.995388 120.515481 
L 224.320043 113.250346 
L 224.644697 109.061357 
L 224.969352 114.446641 
L 225.294006 109.349915 
L 225.618661 116.715001 
L 225.943315 120.345562 
L 226.26797 107.944815 
L 226.592624 102.360258 
L 226.917279 103.740687 
L 227.241934 110.479034 
L 227.566588 103.022309 
L 227.891243 112.487292 
L 228.540552 117.814108 
L 228.865206 124.721434 
L 229.189861 127.6149 
L 229.514515 132.965502 
L 229.83917 136.437982 
L 230.163824 134.527302 
L 230.488479 139.60231 
L 230.813134 139.834235 
L 231.137788 147.677269 
L 231.462443 142.23779 
L 232.111752 149.156436 
L 232.436406 147.137935 
L 232.761061 155.3985 
L 233.085715 157.26886 
L 233.41037 159.888413 
L 233.735024 177.584314 
L 234.059679 180.175748 
L 234.384334 175.544833 
L 234.708988 174.183884 
L 235.033643 174.117373 
L 235.358297 174.715282 
L 235.682952 165.825719 
L 236.007606 174.474409 
L 236.332261 172.052757 
L 236.656915 165.170117 
L 236.98157 170.158779 
L 237.306224 163.077302 
L 237.630879 163.526023 
L 237.955534 157.659734 
L 238.280188 154.198689 
L 238.604843 155.093352 
L 238.929497 151.364446 
L 239.254152 160.864555 
L 239.578806 161.918594 
L 239.903461 167.908448 
L 240.228115 165.300689 
L 240.55277 173.195339 
L 240.877424 161.866893 
L 241.202079 168.7202 
L 241.851388 154.378733 
L 242.176043 161.163702 
L 242.500697 154.422836 
L 242.825352 155.759168 
L 243.150006 158.366144 
L 243.474661 164.810823 
L 243.799315 157.105706 
L 244.12397 166.684841 
L 244.448624 164.231503 
L 244.773279 175.726532 
L 245.097934 174.56443 
L 245.422588 166.952354 
L 245.747243 175.301718 
L 246.071897 169.035469 
L 246.396552 169.77386 
L 246.721206 177.77953 
L 247.045861 175.314051 
L 247.370515 175.074974 
L 248.019824 182.719755 
L 248.669134 177.705364 
L 248.993788 183.163552 
L 249.318443 179.296331 
L 249.643097 184.267026 
L 249.967752 180.962976 
L 250.292406 183.787847 
L 250.617061 183.077579 
L 250.941715 180.789235 
L 251.26637 189.417939 
L 251.591024 182.613986 
L 251.915679 179.305502 
L 252.564988 166.979 
L 252.889643 150.418548 
L 253.214297 148.710284 
L 253.538952 157.063778 
L 253.863606 161.954475 
L 254.188261 152.501713 
L 254.512915 153.517003 
L 255.162224 162.418377 
L 255.486879 152.185285 
L 255.811534 158.113063 
L 256.136188 156.378937 
L 256.460843 167.892057 
L 256.785497 173.879256 
L 257.434806 162.151875 
L 257.759461 161.772295 
L 258.084115 171.13972 
L 259.058079 163.070159 
L 259.382734 167.629043 
L 259.707388 162.619932 
L 260.032043 172.608873 
L 260.356697 176.933836 
L 260.681352 174.069827 
L 261.006006 167.735376 
L 261.330661 158.0534 
L 261.655315 157.540429 
L 261.97997 154.97013 
L 262.304624 166.685936 
L 262.629279 163.827411 
L 262.953934 162.920795 
L 263.278588 163.502136 
L 263.603243 162.418021 
L 263.927897 172.191308 
L 264.252552 174.955608 
L 264.577206 176.039172 
L 264.901861 188.834096 
L 265.226515 174.058433 
L 265.55117 172.620779 
L 266.200479 167.188499 
L 266.525134 173.050806 
L 266.849788 166.345557 
L 267.174443 162.804228 
L 267.823752 168.873635 
L 268.148406 178.731433 
L 268.473061 181.703597 
L 268.797715 180.815936 
L 269.447024 160.467535 
L 269.771679 163.218334 
L 270.420988 183.555191 
L 270.745643 185.654494 
L 271.070297 183.262135 
L 271.719606 199.241028 
L 272.044261 192.104661 
L 272.368915 193.816751 
L 273.018224 186.176317 
L 273.342879 190.05821 
L 273.667534 186.542259 
L 273.992188 186.407823 
L 274.316843 182.936136 
L 274.641497 188.008566 
L 274.966152 190.128336 
L 275.290806 190.543515 
L 275.615461 181.200372 
L 275.940115 175.664238 
L 276.26477 164.019218 
L 276.589424 178.360309 
L 276.914079 177.00754 
L 277.238734 180.735205 
L 277.563388 180.49286 
L 277.888043 191.546996 
L 278.212697 190.221029 
L 278.537352 187.825304 
L 278.862006 193.096983 
L 279.186661 195.983943 
L 279.511315 191.714715 
L 279.83597 189.312768 
L 280.485279 192.781363 
L 280.809934 198.914494 
L 281.134588 196.37295 
L 281.459243 206.022364 
L 281.783897 194.142628 
L 282.108552 190.743312 
L 282.433206 184.561633 
L 282.757861 194.191117 
L 283.082515 191.390544 
L 283.40717 204.687975 
L 283.731824 211.110397 
L 284.056479 211.995452 
L 284.381134 216.073916 
L 284.705788 215.774687 
L 285.679752 197.406454 
L 286.004406 196.234916 
L 286.329061 204.900213 
L 286.653715 195.345472 
L 286.97837 203.42931 
L 287.303024 195.23575 
L 287.627679 193.20095 
L 287.952334 192.657337 
L 288.276988 197.635101 
L 288.601643 190.503379 
L 288.926297 186.606083 
L 289.250952 186.992029 
L 289.575606 197.056233 
L 289.900261 186.981465 
L 290.224915 183.699932 
L 290.874224 174.988816 
L 291.523534 180.632009 
L 291.848188 190.647278 
L 292.172843 189.567198 
L 292.497497 189.621316 
L 292.822152 177.477556 
L 293.146806 183.721785 
L 293.471461 177.753248 
L 293.796115 181.22494 
L 294.12077 178.815204 
L 294.770079 164.032882 
L 295.094734 166.18675 
L 295.419388 164.881876 
L 295.744043 164.673447 
L 296.068697 163.387215 
L 296.393352 159.631653 
L 296.718006 160.5346 
L 297.367315 142.448211 
L 297.69197 139.345011 
L 298.341279 151.55539 
L 298.665934 142.413793 
L 299.315243 150.01633 
L 299.639897 150.347086 
L 299.964552 140.299449 
L 300.289206 154.657173 
L 300.613861 149.860782 
L 300.938515 148.169349 
L 301.26317 150.914602 
L 301.587824 157.756609 
L 301.912479 154.121694 
L 302.237134 156.473766 
L 302.561788 149.696399 
L 302.886443 153.431998 
L 303.211097 155.194196 
L 303.535752 149.392638 
L 303.860406 152.879792 
L 304.185061 145.531776 
L 304.509715 146.937781 
L 304.83437 147.236204 
L 305.483679 160.064753 
L 305.808334 149.939365 
L 306.132988 160.113317 
L 306.457643 162.191203 
L 306.782297 166.597983 
L 307.106952 163.963005 
L 307.756261 145.34015 
L 308.080915 147.766381 
L 308.730224 140.914114 
L 309.054879 144.825651 
L 309.379534 145.343652 
L 309.704188 148.410168 
L 310.028843 152.565163 
L 310.353497 144.472224 
L 310.678152 144.036863 
L 311.002806 147.162758 
L 311.327461 148.474335 
L 311.652115 154.663881 
L 311.97677 143.258636 
L 312.626079 159.746098 
L 312.950734 154.63196 
L 313.924697 173.708478 
L 314.249352 172.335799 
L 314.574006 176.010125 
L 314.898661 174.92467 
L 315.223315 169.231023 
L 315.54797 181.509827 
L 315.872624 184.765307 
L 316.197279 184.032872 
L 316.521934 181.41275 
L 316.846588 188.290509 
L 317.171243 186.394364 
L 317.495897 193.791543 
L 317.820552 194.859878 
L 318.145206 194.273165 
L 318.469861 195.78228 
L 318.794515 190.326313 
L 319.11917 205.179354 
L 319.443824 206.502469 
L 320.417788 226.322133 
L 321.067097 229.68532 
L 321.391752 228.994602 
L 321.716406 227.650922 
L 322.041061 233.995468 
L 322.365715 232.150521 
L 322.69037 236.145466 
L 323.015024 236.412409 
L 323.339679 230.897377 
L 323.664334 230.769771 
L 324.313643 216.445627 
L 324.638297 221.602057 
L 324.962952 240.064486 
L 325.287606 250.692255 
L 325.612261 241.189008 
L 325.936915 243.768004 
L 326.26157 243.978307 
L 326.586224 234.548748 
L 326.910879 237.696427 
L 327.235534 226.257997 
L 327.560188 219.943812 
L 328.209497 230.127788 
L 328.534152 240.172849 
L 328.858806 232.815799 
L 329.183461 238.398025 
L 329.508115 234.883918 
L 329.83277 241.79688 
L 330.157424 223.49752 
L 330.482079 223.95233 
L 330.806734 225.441946 
L 331.131388 215.014297 
L 331.456043 217.141706 
L 331.780697 222.037358 
L 332.105352 213.920899 
L 332.754661 207.84379 
L 333.40397 219.859995 
L 333.728624 219.936609 
L 334.053279 222.413791 
L 334.377934 221.325893 
L 334.702588 211.290175 
L 335.027243 210.60427 
L 335.351897 205.087076 
L 336.001206 210.018303 
L 336.325861 209.730402 
L 336.650515 216.883881 
L 336.97517 218.340273 
L 337.624479 208.640746 
L 337.949134 203.633872 
L 338.273788 203.016079 
L 338.598443 206.897551 
L 338.923097 208.142036 
L 339.247752 213.911997 
L 339.897061 204.486318 
L 340.221715 211.12007 
L 340.54637 207.694903 
L 340.871024 202.463506 
L 342.169643 219.0501 
L 342.818952 213.719554 
L 343.143606 207.66032 
L 343.792915 213.227862 
L 344.11757 214.604746 
L 344.442224 203.165232 
L 344.766879 200.980549 
L 345.091534 204.118382 
L 345.416188 209.944781 
L 345.740843 208.0267 
L 346.065497 214.54031 
L 346.390152 204.813082 
L 346.714806 208.526641 
L 347.039461 210.078539 
L 347.364115 213.951512 
L 347.68877 208.604527 
L 348.013424 215.04116 
L 348.338079 211.628673 
L 348.662734 217.914922 
L 348.987388 220.472747 
L 349.312043 224.362426 
L 349.636697 216.685829 
L 349.961352 218.688634 
L 350.286006 215.482132 
L 350.610661 205.688826 
L 351.25997 215.912387 
L 351.909279 208.551995 
L 352.883243 242.470048 
L 353.207897 234.010657 
L 353.532552 238.528557 
L 354.181861 240.607052 
L 354.506515 242.953695 
L 354.83117 255.753112 
L 355.155824 261.216 
L 355.480479 252.398336 
L 355.805134 254.611095 
L 356.129788 246.992073 
L 356.454443 234.878094 
L 356.779097 244.386387 
L 357.103752 240.351936 
L 357.428406 240.56686 
L 357.753061 239.157909 
L 358.077715 240.854055 
L 358.40237 247.539497 
L 358.727024 246.122998 
L 359.051679 255.226116 
L 359.376334 248.940051 
L 359.700988 249.742199 
L 360.025643 247.826357 
L 360.350297 251.970354 
L 361.324261 237.790836 
L 361.648915 229.618185 
L 361.97357 226.988895 
L 362.622879 237.470213 
L 362.947534 237.148498 
L 363.272188 234.000672 
L 363.596843 228.395385 
L 363.921497 228.222674 
L 364.246152 230.770587 
L 364.570806 231.289612 
L 364.895461 228.011127 
L 365.220115 221.9044 
L 365.54477 219.00919 
L 365.869424 222.408822 
L 366.194079 214.096129 
L 366.518734 212.614515 
L 366.843388 208.871052 
L 367.168043 210.276246 
L 367.492697 210.896674 
L 367.817352 214.640759 
L 367.817352 214.640759 
" clip-path="url(#p8cd882cf23)" style="fill: none; stroke: #e46e56; stroke-width: 1.5; stroke-linecap: square"/>
   </g>
   <g id="line2d_14">
    <path d="M 43.162806 60.016764 
L 43.487461 55.963254 
L 43.812115 48.144426 
L 44.13677 47.092197 
L 44.461424 57.747324 
L 45.110734 61.390407 
L 45.435388 60.415874 
L 45.760043 46.805091 
L 46.084697 44.211613 
L 46.409352 50.353556 
L 46.734006 39.833379 
L 47.058661 46.334129 
L 47.383315 48.846614 
L 47.70797 55.309815 
L 48.032624 41.673634 
L 48.357279 52.350915 
L 48.681934 53.051055 
L 49.006588 55.039575 
L 49.331243 62.310681 
L 49.655897 54.47567 
L 49.980552 50.902946 
L 50.629861 68.004714 
L 50.954515 63.687376 
L 51.27917 61.444611 
L 51.603824 67.020237 
L 51.928479 87.179717 
L 52.902443 67.624452 
L 53.551752 83.366018 
L 53.876406 84.429191 
L 54.201061 91.708363 
L 54.85037 77.570915 
L 55.175024 73.14117 
L 55.499679 70.384231 
L 55.824334 69.416297 
L 56.473643 77.809078 
L 56.798297 90.376408 
L 57.122952 81.139545 
L 57.447606 80.956125 
L 57.772261 80.541029 
L 58.096915 80.392555 
L 58.42157 80.689553 
L 58.746224 85.856497 
L 59.070879 85.234509 
L 59.395534 80.585221 
L 59.720188 79.251682 
L 60.044843 81.227243 
L 60.369497 77.730587 
L 60.694152 79.845796 
L 61.343461 87.212949 
L 61.668115 82.729989 
L 61.99277 88.35732 
L 62.317424 89.171957 
L 62.642079 94.392427 
L 62.966734 97.813423 
L 63.291388 83.692479 
L 63.616043 81.998801 
L 63.940697 83.549813 
L 64.265352 87.18941 
L 64.590006 94.314491 
L 64.914661 94.965189 
L 65.239315 97.996027 
L 65.56397 86.915643 
L 65.888624 91.091187 
L 66.213279 83.860282 
L 66.537934 92.436219 
L 66.862588 97.759914 
L 67.187243 100.708085 
L 67.511897 94.382415 
L 67.836552 98.497415 
L 68.485861 94.999561 
L 69.459824 102.217652 
L 69.784479 102.246327 
L 70.109134 97.144963 
L 70.758443 108.793987 
L 71.083097 106.384364 
L 71.407752 97.432927 
L 71.732406 102.300274 
L 72.057061 87.260128 
L 72.381715 89.809797 
L 72.70637 83.066583 
L 73.031024 83.455067 
L 73.680334 91.788699 
L 74.004988 104.693236 
L 74.329643 106.134189 
L 74.654297 104.550687 
L 74.978952 97.453118 
L 75.303606 102.98282 
L 75.628261 97.508773 
L 75.952915 98.353429 
L 76.27757 103.040029 
L 76.602224 104.405882 
L 76.926879 108.112996 
L 77.251534 101.923571 
L 77.576188 105.646544 
L 77.900843 94.426996 
L 78.225497 101.642486 
L 78.550152 106.031151 
L 78.874806 98.504833 
L 79.199461 88.126251 
L 79.524115 92.078057 
L 79.84877 92.023232 
L 80.173424 96.512726 
L 80.498079 89.140852 
L 80.822734 78.622087 
L 81.147388 78.564419 
L 81.472043 77.534423 
L 81.796697 68.095177 
L 82.121352 69.083598 
L 82.446006 75.56365 
L 82.770661 72.792773 
L 83.095315 71.90577 
L 83.41997 72.452292 
L 83.744624 74.494763 
L 84.393934 66.821211 
L 84.718588 74.719829 
L 85.043243 71.035014 
L 85.367897 66.07363 
L 85.692552 72.569061 
L 86.017206 69.830282 
L 86.666515 58.906713 
L 86.99117 72.882863 
L 87.315824 73.360766 
L 87.640479 76.210223 
L 88.289788 68.381827 
L 88.939097 70.548534 
L 89.588406 75.392462 
L 90.237715 85.432208 
L 90.56237 87.054533 
L 90.887024 81.639595 
L 91.211679 95.262632 
L 91.536334 90.976245 
L 91.860988 90.122095 
L 92.185643 91.385974 
L 92.510297 85.359039 
L 92.834952 83.989008 
L 93.159606 84.357939 
L 93.484261 80.125098 
L 93.808915 85.282015 
L 94.13357 76.118493 
L 94.458224 86.495126 
L 94.782879 72.089387 
L 95.107534 77.378909 
L 95.756843 91.671757 
L 96.081497 96.477604 
L 96.406152 89.626277 
L 96.730806 86.680022 
L 97.055461 93.668437 
L 97.380115 93.467052 
L 97.70477 86.222348 
L 98.354079 80.269469 
L 99.003388 79.730391 
L 99.328043 74.484163 
L 99.652697 72.520121 
L 99.977352 77.749954 
L 100.302006 70.541325 
L 100.626661 72.617135 
L 100.951315 75.450641 
L 101.27597 86.092094 
L 101.600624 88.025628 
L 102.249934 87.280717 
L 102.574588 78.194661 
L 102.899243 84.23334 
L 103.223897 80.153632 
L 103.548552 88.612447 
L 103.873206 91.769964 
L 104.197861 86.756886 
L 104.522515 93.281089 
L 104.84717 88.233998 
L 105.171824 87.415802 
L 105.496479 84.747067 
L 105.821134 84.241939 
L 106.470443 86.871246 
L 107.119752 102.038404 
L 107.444406 104.123824 
L 107.769061 110.164055 
L 108.093715 100.786714 
L 108.41837 94.722753 
L 108.743024 95.397442 
L 109.067679 99.635688 
L 109.716988 111.71366 
L 110.041643 106.405992 
L 110.366297 106.632832 
L 110.690952 99.430296 
L 111.015606 101.365712 
L 111.340261 101.97418 
L 111.664915 100.781391 
L 112.963534 112.648867 
L 113.288188 114.0736 
L 113.612843 112.489353 
L 113.937497 109.000387 
L 114.262152 112.015522 
L 114.586806 101.529135 
L 114.911461 98.585627 
L 115.236115 99.018231 
L 115.56077 94.20021 
L 115.885424 97.420851 
L 116.210079 93.316623 
L 116.534734 94.996763 
L 116.859388 94.938001 
L 117.184043 95.274585 
L 117.508697 98.899388 
L 117.833352 100.043372 
L 118.158006 90.557156 
L 118.482661 85.047869 
L 118.807315 83.465956 
L 119.13197 87.644004 
L 119.456624 83.080938 
L 120.105934 101.311279 
L 120.430588 102.790464 
L 120.755243 102.603201 
L 121.079897 87.567253 
L 121.404552 78.031706 
L 121.729206 75.788043 
L 122.053861 64.393246 
L 122.378515 65.339307 
L 122.70317 59.75281 
L 123.027824 58.458559 
L 123.352479 62.866202 
L 123.677134 58.812801 
L 124.001788 72.108348 
L 124.326443 63.741521 
L 124.651097 65.936144 
L 124.975752 73.832956 
L 125.300406 87.846714 
L 125.625061 91.662587 
L 125.949715 78.129587 
L 126.27437 77.192302 
L 126.599024 87.952133 
L 126.923679 92.097708 
L 127.248334 86.606202 
L 127.572988 86.478841 
L 127.897643 88.298336 
L 128.222297 94.764533 
L 128.546952 92.49181 
L 128.871606 91.634234 
L 129.196261 95.476071 
L 129.84557 81.508819 
L 130.170224 81.205992 
L 130.494879 64.154618 
L 130.819534 63.638623 
L 131.144188 69.56009 
L 131.468843 69.449645 
L 131.793497 72.425581 
L 132.118152 65.754677 
L 132.442806 66.25893 
L 132.767461 67.416793 
L 133.41677 73.918774 
L 133.741424 65.393835 
L 134.066079 65.441824 
L 134.390734 66.548681 
L 134.715388 72.096788 
L 135.040043 79.751098 
L 135.364697 78.288199 
L 135.689352 84.145495 
L 136.014006 79.407934 
L 136.338661 87.075678 
L 136.663315 86.493389 
L 137.312624 95.135799 
L 137.637279 102.985449 
L 137.961934 97.707084 
L 138.286588 99.006505 
L 138.611243 110.656159 
L 138.935897 106.580769 
L 139.260552 98.189866 
L 139.585206 96.795635 
L 139.909861 97.004088 
L 140.234515 109.957482 
L 140.55917 106.914362 
L 140.883824 113.195249 
L 141.208479 114.784703 
L 141.533134 109.063634 
L 141.857788 110.293921 
L 142.507097 87.338017 
L 142.831752 86.51478 
L 143.156406 79.503513 
L 143.481061 88.264058 
L 143.805715 85.941847 
L 144.13037 80.814877 
L 144.779679 93.76517 
L 145.104334 95.502887 
L 145.428988 89.516211 
L 146.078297 81.208593 
L 146.402952 84.099487 
L 147.052261 68.790094 
L 147.376915 76.110925 
L 148.026224 84.021434 
L 148.675534 88.643588 
L 149.000188 88.928831 
L 149.324843 91.15498 
L 149.649497 87.089207 
L 150.298806 102.203464 
L 150.623461 106.693413 
L 151.27277 97.356176 
L 151.922079 108.324486 
L 152.571388 91.081664 
L 152.896043 90.312779 
L 153.220697 93.250851 
L 153.545352 89.919776 
L 153.870006 89.240975 
L 154.194661 96.359902 
L 154.519315 82.46719 
L 154.84397 90.567679 
L 155.168624 88.240504 
L 155.493279 78.602634 
L 155.817934 78.764856 
L 156.142588 91.648053 
L 156.791897 80.458665 
L 157.116552 82.196929 
L 157.441206 80.517299 
L 157.765861 76.205761 
L 158.41517 92.207656 
L 158.739824 79.53821 
L 159.064479 84.939242 
L 159.389134 77.489502 
L 159.713788 86.09341 
L 160.038443 85.773581 
L 160.363097 74.237605 
L 161.012406 86.12682 
L 161.337061 81.280257 
L 161.661715 78.878679 
L 161.98637 87.531788 
L 162.311024 82.562921 
L 162.635679 84.54425 
L 163.284988 93.127474 
L 163.609643 100.142683 
L 163.934297 93.414734 
L 164.583606 97.037638 
L 164.908261 100.010604 
L 165.232915 108.877204 
L 165.55757 111.37726 
L 165.882224 112.194638 
L 166.206879 109.385491 
L 166.531534 109.241642 
L 166.856188 124.392877 
L 167.180843 127.596185 
L 167.505497 125.268151 
L 167.830152 124.737259 
L 168.154806 140.890184 
L 168.479461 149.725586 
L 168.804115 146.632575 
L 169.12877 142.112058 
L 169.453424 153.110268 
L 169.778079 155.597642 
L 170.102734 149.529514 
L 170.427388 147.912435 
L 170.752043 140.258005 
L 171.076697 137.599018 
L 171.401352 130.424918 
L 171.726006 133.654298 
L 172.050661 133.590896 
L 172.375315 141.975921 
L 172.69997 137.508717 
L 173.024624 140.434023 
L 173.349279 137.78806 
L 173.673934 137.811861 
L 173.998588 142.113293 
L 174.323243 156.669273 
L 174.647897 147.82851 
L 175.297206 143.847292 
L 175.621861 132.986734 
L 175.946515 133.013147 
L 176.27117 132.817586 
L 176.595824 123.582224 
L 176.920479 119.947528 
L 177.245134 121.973541 
L 177.569788 129.559283 
L 177.894443 115.553589 
L 178.219097 108.36044 
L 178.543752 103.854447 
L 178.868406 103.816335 
L 179.517715 93.966534 
L 179.84237 101.633026 
L 180.167024 97.461195 
L 180.491679 99.175114 
L 181.140988 88.225011 
L 181.465643 91.443063 
L 181.790297 100.143997 
L 182.114952 91.391817 
L 182.439606 91.928417 
L 182.764261 81.715952 
L 183.088915 80.814646 
L 183.41357 76.903833 
L 183.738224 80.6289 
L 184.062879 82.442907 
L 184.387534 76.611601 
L 184.712188 88.290728 
L 185.036843 90.373981 
L 185.361497 95.915666 
L 185.686152 90.01594 
L 186.335461 87.342629 
L 186.660115 93.910993 
L 186.98477 97.702478 
L 187.309424 104.001522 
L 187.958734 90.994007 
L 188.283388 94.862951 
L 188.608043 100.980666 
L 188.932697 99.682822 
L 189.257352 89.64212 
L 189.582006 96.670082 
L 189.906661 99.947368 
L 190.231315 106.68991 
L 190.55597 100.678231 
L 190.880624 97.499489 
L 191.205279 95.808557 
L 191.529934 95.645451 
L 191.854588 101.184255 
L 192.179243 110.045137 
L 192.503897 110.698636 
L 192.828552 112.899961 
L 193.477861 99.922332 
L 193.802515 97.342128 
L 194.12717 102.392644 
L 194.776479 85.573497 
L 195.101134 88.40628 
L 195.425788 84.068293 
L 195.750443 83.048539 
L 196.075097 83.281235 
L 196.399752 89.17442 
L 196.724406 97.801638 
L 197.049061 94.76711 
L 197.373715 81.863847 
L 197.69837 86.462607 
L 198.023024 82.822163 
L 198.347679 76.220705 
L 198.672334 77.913421 
L 198.996988 84.210285 
L 199.646297 70.070556 
L 199.970952 66.940531 
L 200.295606 71.010888 
L 200.620261 79.804383 
L 200.944915 75.448343 
L 201.26957 68.880143 
L 201.594224 68.781243 
L 202.243534 64.288423 
L 202.892843 52.427772 
L 203.217497 43.36789 
L 203.542152 39.410389 
L 203.866806 32.659674 
L 204.191461 45.204947 
L 204.516115 45.930672 
L 204.84077 45.406446 
L 205.165424 45.710668 
L 205.490079 39.056827 
L 205.814734 39.565691 
L 206.139388 31.535742 
L 206.464043 34.924967 
L 206.788697 35.434099 
L 207.113352 33.604294 
L 207.438006 35.469933 
L 207.762661 40.429843 
L 208.087315 36.912962 
L 208.41197 31.567252 
L 208.736624 28.886973 
L 209.061279 34.861679 
L 209.385934 35.347161 
L 209.710588 35.020337 
L 210.035243 25.591089 
L 210.359897 31.948712 
L 211.009206 21.757461 
L 211.333861 27.603135 
L 211.658515 25.070598 
L 211.98317 19.296 
L 212.632479 24.973758 
L 212.957134 21.347169 
L 213.281788 22.145107 
L 213.606443 29.002751 
L 214.580406 38.203129 
L 214.905061 51.434742 
L 215.229715 50.030776 
L 215.55437 49.482724 
L 216.203679 45.295518 
L 216.528334 42.966802 
L 216.852988 56.523016 
L 217.177643 60.610444 
L 217.826952 48.985236 
L 218.151606 58.44355 
L 218.476261 50.616393 
L 218.800915 51.824049 
L 219.12557 46.120743 
L 219.450224 56.012167 
L 219.774879 54.274725 
L 220.099534 61.019867 
L 220.424188 59.694184 
L 220.748843 66.625748 
L 221.398152 69.757502 
L 221.722806 76.435838 
L 222.047461 78.520227 
L 222.372115 78.377135 
L 222.69677 80.521696 
L 223.021424 76.432595 
L 223.346079 70.61645 
L 223.670734 74.81164 
L 223.995388 75.198319 
L 224.320043 79.913339 
L 224.644697 80.189141 
L 224.969352 84.65904 
L 225.294006 84.504719 
L 225.618661 85.524668 
L 225.943315 85.465482 
L 226.26797 91.18177 
L 226.592624 92.810422 
L 226.917279 90.673323 
L 227.241934 93.430078 
L 227.566588 85.755815 
L 227.891243 90.885606 
L 228.215897 88.159401 
L 228.540552 97.647965 
L 228.865206 98.536145 
L 229.189861 105.151636 
L 229.514515 103.110296 
L 229.83917 110.045528 
L 230.163824 94.937852 
L 230.813134 86.383874 
L 231.137788 92.262722 
L 231.787097 91.765043 
L 232.111752 97.09867 
L 232.436406 87.244394 
L 232.761061 82.508949 
L 233.085715 75.476887 
L 233.41037 75.077689 
L 233.735024 67.823695 
L 234.384334 86.073046 
L 234.708988 89.779972 
L 235.033643 89.972455 
L 235.358297 97.008006 
L 235.682952 92.032372 
L 236.007606 108.256618 
L 236.332261 92.571128 
L 236.656915 94.328963 
L 237.306224 87.367786 
L 237.630879 86.579438 
L 237.955534 89.626625 
L 238.280188 86.645801 
L 238.604843 73.437479 
L 239.254152 89.166556 
L 239.578806 93.018498 
L 239.903461 86.621171 
L 240.228115 94.223989 
L 240.55277 91.336958 
L 240.877424 85.57789 
L 241.202079 90.114034 
L 241.526734 88.254899 
L 241.851388 92.431915 
L 242.176043 89.900624 
L 242.500697 85.257124 
L 242.825352 84.32519 
L 243.150006 72.584111 
L 243.474661 69.245267 
L 243.799315 64.646394 
L 244.12397 65.672867 
L 244.448624 59.086692 
L 244.773279 66.459113 
L 245.097934 60.675953 
L 245.422588 58.781869 
L 245.747243 63.810703 
L 246.071897 58.920589 
L 246.396552 68.008299 
L 246.721206 65.048037 
L 247.045861 64.742155 
L 247.370515 70.761358 
L 247.69517 72.826499 
L 248.019824 75.877802 
L 248.344479 76.043571 
L 248.993788 68.674546 
L 249.318443 79.947027 
L 250.292406 86.341332 
L 250.617061 82.651427 
L 250.941715 90.118921 
L 251.26637 77.985788 
L 251.915679 64.867101 
L 252.564988 58.846799 
L 252.889643 59.431292 
L 253.214297 66.536933 
L 253.538952 60.646616 
L 253.863606 51.219657 
L 254.188261 50.020148 
L 254.512915 50.78611 
L 255.162224 40.673095 
L 255.486879 49.407383 
L 255.811534 49.975787 
L 256.460843 59.469187 
L 256.785497 71.011583 
L 257.110152 71.723361 
L 257.434806 74.699988 
L 257.759461 73.360184 
L 258.084115 66.798682 
L 258.40877 73.481782 
L 258.733424 72.280252 
L 259.058079 82.41092 
L 259.707388 60.939043 
L 260.032043 66.555814 
L 260.356697 66.74733 
L 260.681352 63.187371 
L 261.006006 70.309529 
L 261.330661 65.463697 
L 261.655315 72.858998 
L 261.97997 66.996796 
L 262.304624 67.984435 
L 262.629279 81.905554 
L 262.953934 77.865782 
L 263.278588 81.236503 
L 263.603243 71.558815 
L 264.252552 80.01789 
L 264.577206 71.089498 
L 264.901861 71.002234 
L 265.226515 81.04302 
L 265.55117 84.697029 
L 266.200479 89.098532 
L 266.525134 90.339556 
L 266.849788 81.222533 
L 267.823752 87.651397 
L 268.148406 83.471746 
L 268.473061 82.737946 
L 268.797715 86.305251 
L 269.12237 86.643056 
L 269.447024 86.609244 
L 269.771679 91.252561 
L 270.096334 84.498591 
L 270.420988 81.31022 
L 270.745643 79.570241 
L 271.070297 78.843359 
L 271.394952 83.533824 
L 271.719606 80.212803 
L 272.044261 79.935202 
L 272.368915 87.983629 
L 272.69357 87.353871 
L 273.018224 79.647254 
L 273.342879 66.545256 
L 273.992188 54.440688 
L 274.316843 58.263125 
L 274.641497 51.727848 
L 275.615461 42.353906 
L 275.940115 44.942786 
L 276.26477 55.163063 
L 276.589424 48.635883 
L 276.914079 54.693774 
L 277.238734 53.517933 
L 277.563388 64.208617 
L 277.888043 70.223849 
L 278.537352 73.406886 
L 278.862006 63.799072 
L 279.186661 72.624133 
L 279.511315 85.280018 
L 279.83597 75.33874 
L 280.160624 85.314916 
L 280.485279 85.552411 
L 280.809934 80.487654 
L 281.134588 77.349213 
L 281.783897 87.45772 
L 282.433206 69.26299 
L 282.757861 69.104726 
L 283.082515 59.551505 
L 283.40717 56.412278 
L 283.731824 60.538977 
L 284.056479 45.707045 
L 284.381134 56.944653 
L 284.705788 57.542943 
L 285.030443 63.748844 
L 285.679752 56.394294 
L 286.004406 58.275831 
L 286.329061 70.206849 
L 286.653715 66.539891 
L 286.97837 69.00773 
L 287.303024 76.317159 
L 287.627679 69.878557 
L 288.276988 77.425088 
L 288.601643 77.993074 
L 288.926297 77.981445 
L 289.250952 82.478763 
L 289.575606 88.740025 
L 289.900261 92.662365 
L 290.224915 94.963184 
L 290.54957 100.237399 
L 290.874224 118.744814 
L 291.198879 130.826269 
L 291.523534 133.932135 
L 291.848188 129.795358 
L 292.172843 118.180079 
L 292.497497 112.844551 
L 292.822152 122.826667 
L 293.146806 115.199798 
L 293.471461 115.716885 
L 293.796115 107.984974 
L 294.12077 97.447492 
L 294.445424 105.545374 
L 294.770079 109.551561 
L 295.094734 112.016115 
L 295.419388 105.497275 
L 295.744043 101.646834 
L 296.068697 110.171819 
L 296.393352 104.199182 
L 296.718006 91.804569 
L 297.042661 87.375053 
L 297.367315 86.265945 
L 297.69197 86.019362 
L 298.016624 90.765182 
L 298.341279 88.659184 
L 299.315243 99.474446 
L 299.964552 82.744502 
L 300.289206 88.76886 
L 300.613861 87.012134 
L 300.938515 86.520539 
L 301.26317 90.959774 
L 301.587824 89.618334 
L 301.912479 94.861816 
L 302.237134 85.38911 
L 302.561788 86.095421 
L 302.886443 84.759713 
L 303.211097 91.335419 
L 303.535752 103.63568 
L 303.860406 93.99496 
L 304.185061 93.687465 
L 304.509715 91.842256 
L 304.83437 94.718267 
L 305.159024 90.204916 
L 305.483679 89.322439 
L 305.808334 93.904072 
L 306.132988 90.405423 
L 306.457643 96.556309 
L 306.782297 76.741951 
L 307.106952 74.91934 
L 307.431606 75.410063 
L 307.756261 67.292092 
L 308.080915 71.719687 
L 308.40557 72.352665 
L 308.730224 70.97771 
L 309.054879 72.659225 
L 309.379534 67.858264 
L 310.028843 48.847161 
L 310.353497 50.50354 
L 310.678152 55.36198 
L 311.002806 56.061128 
L 311.327461 59.767192 
L 311.652115 68.419412 
L 311.97677 65.106752 
L 312.301424 60.540197 
L 312.626079 51.687687 
L 312.950734 51.002381 
L 313.600043 60.727945 
L 313.924697 56.260291 
L 314.249352 66.876944 
L 314.574006 60.952795 
L 314.898661 71.593419 
L 315.223315 76.817503 
L 315.54797 78.008547 
L 315.872624 82.640543 
L 316.521934 74.65858 
L 316.846588 63.60361 
L 317.171243 61.485698 
L 317.495897 64.711693 
L 317.820552 63.775171 
L 318.469861 70.82757 
L 318.794515 65.124792 
L 319.11917 68.329545 
L 319.443824 68.67123 
L 320.093134 68.706559 
L 320.417788 75.464001 
L 320.742443 74.311994 
L 321.067097 83.551073 
L 321.391752 80.362974 
L 321.716406 72.417362 
L 322.041061 73.512046 
L 322.365715 73.9923 
L 322.69037 79.811845 
L 323.015024 80.015744 
L 323.339679 68.026742 
L 323.664334 75.69373 
L 323.988988 72.59088 
L 324.313643 73.006266 
L 324.638297 76.299028 
L 324.962952 72.292922 
L 325.287606 79.21 
L 325.612261 68.233021 
L 325.936915 73.542542 
L 326.26157 81.477748 
L 326.586224 79.512239 
L 326.910879 68.135698 
L 327.235534 75.431214 
L 327.560188 58.983211 
L 327.884843 55.576787 
L 328.209497 61.454389 
L 328.534152 62.754074 
L 328.858806 63.492942 
L 329.183461 62.714211 
L 329.508115 72.763362 
L 329.83277 87.159813 
L 330.157424 83.583263 
L 330.482079 76.907699 
L 330.806734 84.547369 
L 331.131388 85.514731 
L 331.456043 84.626499 
L 332.105352 100.817064 
L 332.430006 102.285996 
L 332.754661 98.381176 
L 333.079315 110.897684 
L 333.40397 106.195647 
L 333.728624 108.879802 
L 334.053279 108.294816 
L 334.377934 100.76273 
L 334.702588 99.724801 
L 335.027243 92.442448 
L 335.351897 99.413944 
L 335.676552 109.631685 
L 336.001206 112.47233 
L 336.325861 113.503286 
L 336.650515 133.362069 
L 336.97517 127.871296 
L 337.299824 119.238668 
L 337.624479 122.913323 
L 337.949134 122.483912 
L 338.273788 123.578115 
L 338.923097 130.413959 
L 339.247752 127.180499 
L 339.572406 121.575052 
L 339.897061 125.660439 
L 340.221715 121.455356 
L 340.54637 119.781852 
L 341.195679 111.236089 
L 341.520334 120.944293 
L 341.844988 111.233378 
L 342.169643 116.659124 
L 342.494297 105.576079 
L 342.818952 100.853992 
L 343.143606 106.47103 
L 343.468261 93.38481 
L 343.792915 92.696685 
L 344.11757 97.251344 
L 344.442224 98.813184 
L 344.766879 97.716008 
L 345.416188 110.787022 
L 345.740843 109.178636 
L 346.065497 106.792763 
L 346.390152 110.715739 
L 347.039461 122.844437 
L 347.364115 129.796493 
L 347.68877 127.684995 
L 348.013424 133.210731 
L 348.338079 122.816156 
L 348.662734 121.470151 
L 348.987388 111.048995 
L 349.312043 112.653726 
L 349.636697 116.718178 
L 349.961352 109.860039 
L 350.286006 114.996228 
L 350.610661 110.747836 
L 350.935315 111.106161 
L 351.25997 110.844664 
L 351.584624 116.721645 
L 351.909279 113.181668 
L 352.233934 100.959424 
L 352.558588 99.29472 
L 353.207897 114.83548 
L 353.532552 108.413326 
L 353.857206 104.443242 
L 354.506515 93.053949 
L 354.83117 93.176755 
L 355.155824 108.22451 
L 355.480479 109.283227 
L 355.805134 114.704866 
L 356.129788 112.116763 
L 356.779097 114.592405 
L 357.103752 120.525544 
L 357.428406 132.961288 
L 357.753061 136.666261 
L 358.077715 142.799079 
L 358.40237 125.544262 
L 358.727024 133.534903 
L 359.051679 124.520935 
L 359.376334 123.982446 
L 359.700988 132.39872 
L 360.025643 132.907148 
L 360.350297 130.414439 
L 360.674952 138.454353 
L 360.999606 137.87171 
L 361.324261 143.657546 
L 361.648915 151.830027 
L 361.97357 154.585431 
L 362.298224 150.009302 
L 362.622879 157.853362 
L 362.947534 155.178496 
L 363.272188 153.739803 
L 363.596843 143.959916 
L 363.921497 141.541714 
L 364.246152 131.997099 
L 364.570806 134.212021 
L 365.220115 124.946769 
L 365.54477 123.954823 
L 365.869424 112.463459 
L 366.194079 113.339596 
L 366.518734 111.944276 
L 366.843388 116.784831 
L 367.168043 112.886832 
L 367.492697 116.173858 
L 367.817352 125.426772 
L 367.817352 125.426772 
" clip-path="url(#p8cd882cf23)" style="fill: none; stroke: #d1dae9; stroke-width: 1.5; stroke-linecap: square"/>
   </g>
   <g id="line2d_15">
    <path d="M 43.162806 81.779392 
L 43.487461 70.082637 
L 43.812115 78.428677 
L 44.13677 72.393853 
L 44.461424 81.105457 
L 44.786079 73.407066 
L 45.110734 77.734242 
L 45.435388 70.431487 
L 45.760043 77.79532 
L 46.084697 88.180997 
L 46.734006 91.245246 
L 47.058661 88.929137 
L 47.383315 84.135232 
L 48.032624 100.716843 
L 48.357279 109.568476 
L 48.681934 109.168717 
L 49.006588 103.302493 
L 49.331243 109.435662 
L 49.655897 108.651164 
L 49.980552 98.814234 
L 50.305206 95.14072 
L 50.629861 100.8678 
L 51.27917 94.425747 
L 51.603824 105.173684 
L 51.928479 104.620178 
L 52.253134 107.566809 
L 52.577788 106.533343 
L 53.551752 112.012046 
L 53.876406 116.439266 
L 54.201061 107.060317 
L 54.525715 102.619087 
L 54.85037 109.270376 
L 55.175024 102.636271 
L 55.499679 104.529368 
L 55.824334 97.5003 
L 56.148988 103.05471 
L 56.473643 98.277333 
L 56.798297 100.333801 
L 57.122952 100.631171 
L 57.772261 106.405498 
L 58.096915 111.208841 
L 58.42157 111.050941 
L 58.746224 118.846766 
L 59.070879 114.655079 
L 59.395534 114.34824 
L 59.720188 110.706834 
L 60.044843 98.803877 
L 60.369497 98.296912 
L 60.694152 92.964443 
L 61.018806 90.615315 
L 61.343461 93.911408 
L 61.668115 93.895716 
L 61.99277 94.174331 
L 62.317424 94.942975 
L 62.642079 97.557474 
L 62.966734 92.951002 
L 63.616043 90.031387 
L 63.940697 91.891963 
L 64.265352 95.461308 
L 64.590006 86.333453 
L 64.914661 91.918707 
L 65.239315 84.862836 
L 65.56397 80.489164 
L 65.888624 79.970987 
L 66.213279 76.282155 
L 66.537934 74.26992 
L 67.187243 86.012737 
L 67.511897 67.015382 
L 67.836552 65.383248 
L 68.161206 65.75645 
L 68.485861 64.279764 
L 68.810515 55.750564 
L 69.13517 56.413301 
L 69.459824 60.998081 
L 69.784479 56.293826 
L 70.109134 73.398946 
L 70.758443 91.039283 
L 71.083097 91.438899 
L 71.407752 106.08113 
L 71.732406 108.275808 
L 72.057061 100.774196 
L 72.381715 105.133408 
L 73.031024 87.114428 
L 73.355679 82.506964 
L 73.680334 91.890728 
L 74.004988 91.101947 
L 74.329643 84.481218 
L 74.654297 82.770039 
L 75.303606 97.199724 
L 75.952915 65.661127 
L 76.27757 61.700182 
L 76.602224 59.934054 
L 76.926879 60.452603 
L 77.251534 60.628171 
L 77.576188 54.141112 
L 77.900843 54.79493 
L 78.225497 65.592695 
L 78.550152 63.605284 
L 78.874806 69.676655 
L 79.199461 68.240952 
L 79.524115 69.827224 
L 79.84877 69.069378 
L 80.173424 64.324129 
L 80.498079 57.494926 
L 81.472043 79.310214 
L 81.796697 82.859152 
L 82.446006 95.608395 
L 82.770661 97.032343 
L 83.095315 100.767754 
L 83.41997 100.184131 
L 83.744624 102.765738 
L 84.069279 103.865413 
L 84.393934 110.361175 
L 84.718588 111.116047 
L 85.367897 99.473017 
L 85.692552 103.353821 
L 86.017206 104.768117 
L 86.341861 103.303673 
L 86.666515 92.865702 
L 86.99117 97.559685 
L 87.640479 86.881851 
L 87.965134 96.472892 
L 88.289788 95.359097 
L 88.614443 89.167873 
L 88.939097 105.467592 
L 89.263752 110.147732 
L 89.588406 105.753035 
L 89.913061 110.269822 
L 90.56237 103.365283 
L 90.887024 102.318924 
L 91.211679 102.587568 
L 91.536334 109.170123 
L 91.860988 105.017316 
L 92.185643 104.524849 
L 92.510297 103.18657 
L 92.834952 106.433329 
L 93.159606 104.916647 
L 93.484261 99.48202 
L 93.808915 115.080916 
L 94.13357 109.676436 
L 94.458224 106.418839 
L 94.782879 108.407736 
L 95.107534 103.128888 
L 95.432188 99.807144 
L 95.756843 99.80788 
L 96.081497 100.971012 
L 96.406152 89.517539 
L 96.730806 103.472396 
L 97.055461 111.143395 
L 97.380115 111.143802 
L 97.70477 108.262689 
L 98.029424 108.952493 
L 98.354079 113.293558 
L 98.678734 108.796269 
L 99.003388 109.062777 
L 99.328043 110.5252 
L 99.652697 123.722545 
L 99.977352 113.621679 
L 100.302006 108.51782 
L 100.626661 111.243269 
L 100.951315 107.440392 
L 101.27597 109.286923 
L 101.925279 105.641898 
L 102.249934 97.942939 
L 102.574588 101.455407 
L 102.899243 111.479552 
L 103.548552 98.696883 
L 103.873206 103.059262 
L 104.197861 98.705143 
L 104.522515 100.810888 
L 104.84717 105.104525 
L 105.171824 103.680395 
L 105.821134 112.251079 
L 106.145788 108.135778 
L 106.470443 109.896245 
L 106.795097 108.305036 
L 107.119752 96.458248 
L 107.444406 98.193123 
L 107.769061 95.328992 
L 108.093715 101.840338 
L 108.41837 102.58994 
L 109.067679 92.942252 
L 109.392334 99.55654 
L 109.716988 98.415969 
L 110.041643 99.630958 
L 110.366297 92.490283 
L 110.690952 87.886857 
L 111.015606 92.241526 
L 111.340261 90.918077 
L 111.664915 85.813759 
L 111.98957 83.429027 
L 112.314224 93.734469 
L 112.638879 90.748658 
L 112.963534 89.979077 
L 113.288188 86.037425 
L 113.612843 77.59775 
L 113.937497 72.081737 
L 114.262152 69.043419 
L 114.586806 63.075993 
L 114.911461 72.087555 
L 115.236115 63.199146 
L 115.56077 74.759686 
L 116.210079 66.673671 
L 116.534734 67.931458 
L 116.859388 77.94433 
L 117.184043 82.450131 
L 117.833352 87.02069 
L 118.158006 94.818443 
L 118.482661 82.522459 
L 118.807315 81.576398 
L 119.13197 81.995952 
L 119.456624 96.096103 
L 119.781279 97.592142 
L 120.430588 107.616857 
L 120.755243 98.494055 
L 121.079897 115.255268 
L 121.404552 109.329339 
L 121.729206 106.702917 
L 122.053861 106.442109 
L 122.378515 100.898926 
L 122.70317 98.931163 
L 123.027824 95.395225 
L 123.352479 108.504505 
L 123.677134 114.397988 
L 124.326443 99.061793 
L 124.651097 98.614795 
L 124.975752 96.120174 
L 125.300406 91.252375 
L 125.625061 81.27773 
L 126.599024 70.404279 
L 126.923679 70.876675 
L 127.248334 69.89859 
L 127.572988 85.538081 
L 127.897643 89.469047 
L 128.546952 70.573147 
L 128.871606 80.019045 
L 129.520915 65.66842 
L 129.84557 66.500693 
L 130.170224 68.847199 
L 130.494879 75.210878 
L 130.819534 68.074341 
L 131.144188 78.551327 
L 131.468843 83.374653 
L 131.793497 99.408807 
L 132.118152 99.465802 
L 132.442806 110.471617 
L 132.767461 109.604468 
L 133.092115 112.107743 
L 133.41677 117.363668 
L 134.066079 113.727967 
L 134.390734 108.367142 
L 134.715388 97.367247 
L 135.040043 95.003781 
L 135.364697 85.407851 
L 135.689352 88.402321 
L 136.014006 77.29537 
L 136.338661 73.831779 
L 136.663315 81.046598 
L 136.98797 82.564018 
L 137.312624 78.490978 
L 137.637279 81.221115 
L 137.961934 78.192154 
L 138.286588 89.816703 
L 138.611243 105.470566 
L 138.935897 97.240664 
L 139.585206 115.711296 
L 139.909861 115.508721 
L 140.234515 107.600188 
L 140.55917 119.61426 
L 140.883824 109.538808 
L 141.208479 123.280455 
L 141.533134 123.209896 
L 141.857788 122.815337 
L 142.182443 125.065514 
L 142.507097 117.626242 
L 142.831752 115.063686 
L 143.156406 114.087398 
L 143.481061 110.571481 
L 143.805715 111.01918 
L 144.13037 104.376899 
L 144.779679 113.821589 
L 145.104334 109.037794 
L 145.753643 105.144032 
L 146.078297 99.968066 
L 146.402952 91.865927 
L 146.727606 91.32417 
L 147.052261 102.038753 
L 147.376915 100.126817 
L 147.70157 104.69535 
L 148.026224 112.638102 
L 148.350879 108.439079 
L 148.675534 111.046201 
L 149.000188 102.795063 
L 149.324843 101.413673 
L 149.974152 111.275544 
L 150.298806 107.14501 
L 150.623461 97.135436 
L 150.948115 95.765113 
L 151.27277 89.490584 
L 151.922079 106.069 
L 152.246734 100.466648 
L 152.571388 108.86202 
L 152.896043 99.757487 
L 153.220697 96.72441 
L 153.545352 107.772275 
L 153.870006 107.112623 
L 154.194661 105.910734 
L 154.519315 101.212583 
L 155.168624 89.007085 
L 155.493279 87.122672 
L 155.817934 87.100347 
L 156.142588 86.354979 
L 156.467243 87.938985 
L 156.791897 84.735213 
L 157.116552 87.108115 
L 157.441206 87.629933 
L 157.765861 81.77333 
L 158.090515 81.505035 
L 158.41517 82.885989 
L 159.064479 92.479664 
L 159.389134 90.191187 
L 159.713788 82.413075 
L 160.038443 80.998169 
L 160.687752 70.842929 
L 161.012406 80.501559 
L 161.337061 78.16547 
L 161.661715 87.540127 
L 161.98637 89.333711 
L 162.311024 82.771805 
L 162.635679 82.940393 
L 163.284988 94.903478 
L 163.609643 89.293829 
L 163.934297 86.121883 
L 164.583606 89.102531 
L 164.908261 85.115364 
L 165.232915 83.341382 
L 165.55757 94.562369 
L 165.882224 98.96566 
L 166.206879 105.395563 
L 166.531534 105.77854 
L 166.856188 96.613066 
L 167.505497 89.851056 
L 167.830152 90.025916 
L 168.479461 101.685089 
L 168.804115 124.756135 
L 169.12877 118.528937 
L 169.778079 122.039942 
L 170.427388 129.858053 
L 170.752043 119.090911 
L 171.076697 125.756342 
L 171.401352 121.292129 
L 172.050661 117.970301 
L 172.375315 120.482313 
L 172.69997 119.169691 
L 173.024624 118.598586 
L 173.349279 124.759367 
L 173.673934 133.605596 
L 174.323243 128.634368 
L 174.972552 139.548787 
L 175.297206 139.830769 
L 175.621861 140.37311 
L 175.946515 141.632233 
L 176.27117 144.939247 
L 176.595824 138.554216 
L 176.920479 135.727158 
L 177.245134 129.866456 
L 177.569788 128.143179 
L 177.894443 123.777858 
L 178.219097 121.761056 
L 178.543752 118.488623 
L 178.868406 125.921284 
L 179.193061 117.965124 
L 179.517715 115.737527 
L 179.84237 106.106384 
L 180.167024 108.778074 
L 180.491679 118.766358 
L 180.816334 121.469518 
L 181.465643 118.077374 
L 181.790297 112.546219 
L 182.114952 118.337728 
L 182.439606 110.026095 
L 182.764261 113.397874 
L 183.088915 114.53506 
L 183.41357 112.980799 
L 183.738224 119.358788 
L 184.062879 122.043112 
L 184.387534 119.608798 
L 184.712188 121.544705 
L 185.036843 117.261702 
L 185.361497 126.427468 
L 185.686152 119.589015 
L 186.010806 117.107543 
L 186.335461 124.269746 
L 186.660115 117.476932 
L 186.98477 122.065584 
L 187.309424 117.657867 
L 187.634079 116.517721 
L 187.958734 113.236802 
L 188.283388 125.251879 
L 188.932697 120.897836 
L 189.257352 122.130945 
L 189.582006 116.625215 
L 189.906661 114.86923 
L 190.231315 118.05092 
L 190.55597 119.549243 
L 190.880624 124.000292 
L 191.205279 120.2987 
L 191.529934 121.888843 
L 191.854588 121.247939 
L 192.179243 116.783278 
L 193.153206 84.090479 
L 193.477861 91.227635 
L 193.802515 87.54614 
L 194.12717 86.368133 
L 194.451824 88.603099 
L 194.776479 94.135645 
L 195.101134 94.42361 
L 195.750443 89.667794 
L 196.075097 102.830556 
L 196.399752 100.612183 
L 196.724406 108.714283 
L 197.049061 95.856152 
L 197.69837 96.545966 
L 198.023024 106.039471 
L 198.347679 104.805735 
L 198.672334 100.075567 
L 199.321643 115.516509 
L 199.646297 110.446526 
L 199.970952 107.617716 
L 200.295606 106.032452 
L 200.620261 113.465984 
L 200.944915 102.533081 
L 201.26957 108.351412 
L 201.594224 104.980065 
L 201.918879 108.486903 
L 202.243534 118.922235 
L 202.568188 116.526893 
L 202.892843 121.459413 
L 203.542152 103.661545 
L 203.866806 110.817511 
L 204.191461 104.51764 
L 204.516115 104.490019 
L 205.165424 94.546377 
L 205.490079 98.376237 
L 205.814734 97.391342 
L 206.139388 97.736496 
L 206.788697 92.500978 
L 207.113352 95.991876 
L 207.438006 97.363175 
L 207.762661 92.291789 
L 208.087315 95.334015 
L 208.41197 94.625774 
L 208.736624 96.387085 
L 209.061279 111.612762 
L 209.385934 107.616439 
L 209.710588 106.208021 
L 210.035243 109.91157 
L 210.359897 109.366273 
L 210.684552 107.060245 
L 211.009206 108.754577 
L 211.333861 96.440307 
L 211.658515 101.125065 
L 211.98317 96.639094 
L 212.307824 94.218909 
L 212.632479 107.309976 
L 212.957134 98.679825 
L 213.281788 105.67434 
L 213.606443 102.929341 
L 214.255752 106.503794 
L 214.580406 94.121036 
L 214.905061 97.718222 
L 215.229715 98.973636 
L 215.55437 91.848546 
L 216.203679 100.480796 
L 216.528334 109.083439 
L 216.852988 109.808856 
L 217.177643 101.411893 
L 217.502297 99.776876 
L 217.826952 100.711122 
L 218.151606 101.074137 
L 218.476261 107.203087 
L 218.800915 98.127792 
L 219.12557 102.828096 
L 219.774879 93.014382 
L 220.099534 98.962533 
L 220.424188 94.569558 
L 220.748843 95.945651 
L 221.073497 90.412443 
L 221.722806 83.27481 
L 222.047461 93.434056 
L 222.372115 91.741335 
L 222.69677 99.850452 
L 223.021424 91.650348 
L 223.346079 89.519133 
L 223.670734 86.122495 
L 223.995388 87.512917 
L 224.320043 85.71725 
L 224.644697 78.491424 
L 224.969352 83.287869 
L 225.294006 75.834363 
L 225.618661 74.604428 
L 225.943315 81.838197 
L 226.26797 86.100664 
L 226.592624 82.970453 
L 226.917279 87.077015 
L 227.241934 85.119219 
L 227.566588 89.114628 
L 227.891243 96.999576 
L 228.215897 98.951899 
L 228.540552 102.81364 
L 228.865206 94.563916 
L 229.189861 100.803595 
L 229.514515 99.46522 
L 229.83917 105.141753 
L 230.163824 98.235418 
L 230.488479 98.132778 
L 230.813134 89.649744 
L 231.137788 101.823145 
L 231.462443 90.619003 
L 231.787097 100.280016 
L 232.111752 94.932832 
L 232.436406 98.730824 
L 233.085715 113.704766 
L 233.41037 104.035548 
L 233.735024 108.988355 
L 234.059679 97.36787 
L 234.384334 96.868194 
L 234.708988 99.559373 
L 235.033643 103.315014 
L 235.358297 97.265754 
L 235.682952 94.192982 
L 236.007606 87.11819 
L 236.332261 90.493781 
L 236.656915 91.560586 
L 236.98157 99.016692 
L 237.306224 112.270903 
L 237.630879 116.489605 
L 237.955534 113.511613 
L 238.280188 121.797667 
L 238.604843 122.2342 
L 239.254152 125.17974 
L 239.578806 125.278391 
L 239.903461 125.853675 
L 240.228115 129.885928 
L 240.55277 124.261688 
L 240.877424 111.06922 
L 241.202079 105.353974 
L 241.526734 112.670291 
L 241.851388 116.658387 
L 242.176043 108.998855 
L 242.825352 114.302646 
L 243.150006 106.366611 
L 243.474661 106.920305 
L 243.799315 108.562635 
L 244.12397 105.457686 
L 244.448624 94.270508 
L 244.773279 90.198114 
L 245.097934 91.30367 
L 245.422588 98.229525 
L 245.747243 96.139004 
L 246.396552 104.707924 
L 246.721206 103.22856 
L 247.045861 102.825064 
L 247.370515 96.425386 
L 247.69517 98.195437 
L 248.019824 94.553443 
L 248.344479 95.054114 
L 248.669134 92.901802 
L 249.643097 113.485598 
L 249.967752 118.263132 
L 250.292406 128.210605 
L 250.617061 121.206881 
L 250.941715 122.074413 
L 251.26637 119.38507 
L 251.915679 106.756133 
L 252.240334 109.818779 
L 252.564988 110.053915 
L 252.889643 110.629056 
L 253.538952 110.406429 
L 253.863606 114.942043 
L 254.188261 112.681768 
L 254.512915 112.502959 
L 254.83757 114.101479 
L 255.162224 122.690182 
L 255.486879 117.878836 
L 255.811534 123.55269 
L 256.136188 126.631502 
L 256.460843 126.156104 
L 256.785497 113.986804 
L 257.110152 122.259146 
L 257.434806 115.30786 
L 257.759461 124.910649 
L 258.084115 123.111662 
L 258.40877 119.061033 
L 258.733424 112.283589 
L 259.382734 107.364167 
L 259.707388 108.497612 
L 260.032043 99.59054 
L 260.356697 102.555195 
L 260.681352 108.291667 
L 261.006006 98.353068 
L 261.655315 107.864742 
L 262.304624 100.470943 
L 262.629279 112.435538 
L 262.953934 104.689631 
L 263.278588 105.503107 
L 263.603243 102.511769 
L 263.927897 106.250788 
L 264.252552 112.283454 
L 264.901861 97.09078 
L 265.226515 94.761391 
L 265.55117 88.941281 
L 265.875824 89.820285 
L 266.200479 83.789422 
L 266.525134 92.417601 
L 266.849788 95.776863 
L 267.174443 95.085166 
L 267.499097 96.572758 
L 267.823752 93.446867 
L 268.148406 80.853079 
L 268.473061 86.858756 
L 269.12237 88.564043 
L 269.771679 73.63039 
L 270.096334 82.605338 
L 270.420988 84.890733 
L 271.070297 99.549576 
L 271.394952 96.908997 
L 271.719606 104.917406 
L 272.368915 88.546788 
L 272.69357 81.261972 
L 273.018224 85.470426 
L 273.342879 85.935967 
L 273.667534 84.07582 
L 273.992188 87.266503 
L 274.316843 83.766244 
L 274.641497 85.038248 
L 274.966152 84.151201 
L 275.290806 85.526155 
L 275.615461 78.776355 
L 275.940115 83.102029 
L 276.26477 90.116293 
L 276.589424 85.395402 
L 276.914079 92.941731 
L 277.563388 86.820422 
L 277.888043 81.129622 
L 278.212697 84.856759 
L 278.537352 85.854493 
L 278.862006 96.466121 
L 279.186661 94.48633 
L 279.511315 108.656133 
L 279.83597 101.21591 
L 280.160624 100.214874 
L 280.485279 96.670721 
L 281.134588 104.361342 
L 281.459243 103.5583 
L 281.783897 109.170963 
L 282.108552 106.030994 
L 282.433206 100.238632 
L 283.082515 118.213114 
L 283.731824 104.058316 
L 284.056479 102.994235 
L 284.381134 97.203026 
L 285.030443 109.246446 
L 285.355097 112.461841 
L 286.004406 134.06618 
L 286.329061 139.075075 
L 286.653715 139.223741 
L 286.97837 131.850126 
L 287.303024 133.507755 
L 287.627679 130.352716 
L 287.952334 124.978497 
L 288.276988 124.372542 
L 288.601643 128.876954 
L 288.926297 130.565372 
L 289.575606 114.241792 
L 289.900261 116.220556 
L 290.224915 110.161318 
L 290.54957 109.335062 
L 290.874224 101.917342 
L 291.198879 112.240164 
L 291.523534 104.766659 
L 291.848188 105.003576 
L 292.497497 110.821094 
L 292.822152 106.100574 
L 293.471461 116.7878 
L 293.796115 104.900049 
L 294.12077 107.864559 
L 294.445424 114.947224 
L 294.770079 107.848501 
L 295.094734 105.764181 
L 295.419388 102.346631 
L 295.744043 112.302326 
L 296.068697 104.218939 
L 297.042661 111.227198 
L 297.367315 107.344093 
L 297.69197 108.112877 
L 298.341279 120.338993 
L 298.665934 115.479935 
L 298.990588 121.287322 
L 299.315243 122.891857 
L 299.639897 113.911236 
L 299.964552 113.27409 
L 300.289206 106.616103 
L 300.613861 109.260692 
L 300.938515 100.208002 
L 301.26317 100.085163 
L 301.587824 98.707307 
L 301.912479 93.260927 
L 302.237134 95.234827 
L 302.561788 100.441804 
L 302.886443 96.854241 
L 303.211097 109.511034 
L 303.535752 100.494644 
L 303.860406 97.173513 
L 304.185061 96.002492 
L 304.509715 98.888934 
L 305.159024 90.646431 
L 305.483679 93.493296 
L 306.457643 82.777093 
L 306.782297 82.079613 
L 307.106952 85.313736 
L 307.431606 82.613248 
L 307.756261 87.814542 
L 308.080915 87.307939 
L 308.40557 91.301235 
L 308.730224 88.776788 
L 309.379534 86.679218 
L 309.704188 81.115998 
L 310.028843 68.84646 
L 310.353497 69.212724 
L 310.678152 71.53423 
L 311.002806 70.147567 
L 311.327461 71.292072 
L 311.652115 64.724049 
L 311.97677 69.018513 
L 312.301424 66.685648 
L 312.626079 58.818575 
L 312.950734 58.986509 
L 313.275388 58.69994 
L 313.600043 54.210817 
L 313.924697 46.612202 
L 314.898661 74.265501 
L 315.223315 76.403813 
L 315.54797 82.905947 
L 315.872624 81.790249 
L 316.197279 83.307892 
L 316.521934 91.29067 
L 316.846588 90.252297 
L 317.171243 94.868577 
L 317.820552 91.181725 
L 318.145206 93.5522 
L 318.469861 86.586991 
L 319.11917 80.748927 
L 319.443824 89.2691 
L 319.768479 83.060778 
L 320.093134 81.122927 
L 320.417788 97.598504 
L 320.742443 97.608972 
L 321.067097 91.606561 
L 321.391752 87.704771 
L 321.716406 93.334511 
L 322.041061 90.369945 
L 322.365715 85.254528 
L 322.69037 85.680795 
L 323.015024 83.13724 
L 323.339679 87.196847 
L 323.664334 95.933244 
L 323.988988 93.136057 
L 324.313643 95.028201 
L 324.638297 94.48409 
L 324.962952 102.501502 
L 325.287606 95.103476 
L 325.612261 91.50544 
L 325.936915 92.37887 
L 326.26157 92.074217 
L 326.586224 88.72793 
L 326.910879 82.269364 
L 327.235534 90.401236 
L 327.560188 90.465844 
L 327.884843 90.875126 
L 328.209497 94.344922 
L 328.534152 91.049394 
L 329.183461 72.160459 
L 329.508115 78.62567 
L 329.83277 65.816181 
L 330.157424 72.403483 
L 330.482079 62.365567 
L 330.806734 66.08474 
L 331.131388 73.012429 
L 331.456043 67.147237 
L 331.780697 66.488619 
L 332.105352 78.487832 
L 332.430006 81.1048 
L 332.754661 86.803454 
L 333.079315 86.798108 
L 333.40397 93.510123 
L 333.728624 90.700811 
L 334.053279 93.047767 
L 334.377934 81.57359 
L 334.702588 90.128385 
L 335.027243 85.197283 
L 335.351897 97.035693 
L 335.676552 91.579963 
L 336.325861 99.705748 
L 336.650515 94.337701 
L 336.97517 94.978811 
L 337.299824 96.171204 
L 337.624479 89.347536 
L 337.949134 104.583298 
L 338.273788 106.827336 
L 338.598443 100.377021 
L 338.923097 108.387902 
L 339.247752 104.246103 
L 339.572406 94.969247 
L 339.897061 97.801995 
L 340.221715 92.742363 
L 340.54637 100.865084 
L 340.871024 98.737562 
L 341.195679 95.312985 
L 341.520334 96.691982 
L 342.169643 114.373691 
L 342.494297 105.181049 
L 342.818952 112.422292 
L 343.468261 103.392773 
L 344.11757 91.621212 
L 344.442224 93.60357 
L 344.766879 91.558503 
L 345.416188 106.69841 
L 346.065497 97.754733 
L 346.390152 86.085807 
L 346.714806 89.819884 
L 347.039461 98.533428 
L 347.364115 101.285271 
L 348.013424 97.215483 
L 348.338079 98.911634 
L 348.662734 102.991605 
L 348.987388 110.377463 
L 349.312043 98.834059 
L 349.636697 102.191811 
L 349.961352 100.757389 
L 350.610661 90.491908 
L 350.935315 102.435248 
L 351.584624 120.169954 
L 351.909279 118.047966 
L 352.233934 124.225039 
L 352.558588 124.11576 
L 353.207897 101.027377 
L 353.532552 104.792309 
L 353.857206 103.874176 
L 354.83117 111.174474 
L 355.155824 106.572975 
L 355.480479 95.765645 
L 355.805134 90.226445 
L 356.129788 91.76051 
L 356.454443 86.329612 
L 356.779097 97.737518 
L 357.103752 97.94575 
L 357.428406 95.046843 
L 357.753061 107.623796 
L 358.077715 108.55583 
L 358.40237 97.323712 
L 358.727024 111.620945 
L 359.376334 115.015088 
L 359.700988 119.235644 
L 360.025643 118.157953 
L 360.350297 118.244363 
L 360.674952 124.619313 
L 360.999606 120.773675 
L 361.324261 115.426258 
L 361.648915 113.925275 
L 361.97357 111.179542 
L 362.298224 106.75507 
L 362.947534 114.36487 
L 364.246152 94.194782 
L 364.895461 107.925334 
L 365.220115 102.664259 
L 365.54477 113.101278 
L 365.869424 113.975087 
L 366.518734 123.225447 
L 366.843388 121.276159 
L 367.168043 118.332779 
L 367.817352 131.415603 
L 367.817352 131.415603 
" clip-path="url(#p8cd882cf23)" style="fill: none; stroke: #3a4cc0; stroke-width: 1.5; stroke-linecap: square"/>
   </g>
   <g id="patch_3">
    <path d="M 26.930079 273.312 
L 26.930079 7.2 
" style="fill: none; stroke: #000000; stroke-width: 0.8; stroke-linejoin: miter; stroke-linecap: square"/>
   </g>
   <g id="patch_4">
    <path d="M 384.050079 273.312 
L 384.050079 7.2 
" style="fill: none; stroke: #000000; stroke-width: 0.8; stroke-linejoin: miter; stroke-linecap: square"/>
   </g>
   <g id="patch_5">
    <path d="M 26.930079 273.312 
L 384.050079 273.312 
" style="fill: none; stroke: #000000; stroke-width: 0.8; stroke-linejoin: miter; stroke-linecap: square"/>
   </g>
   <g id="patch_6">
    <path d="M 26.930079 7.2 
L 384.050079 7.2 
" style="fill: none; stroke: #000000; stroke-width: 0.8; stroke-linejoin: miter; stroke-linecap: square"/>
   </g>
  </g>
 </g>
 <defs>
  <clipPath id="p8cd882cf23">
   <rect x="26.930079" y="7.2" width="357.12" height="266.112"/>
  </clipPath>
 </defs>
</svg>
