<?xml version="1.0" encoding="utf-8" standalone="no"?>
<!DOCTYPE svg PUBLIC "-//W3C//DTD SVG 1.1//EN"
  "http://www.w3.org/Graphics/SVG/1.1/DTD/svg11.dtd">
<svg xmlns:xlink="http://www.w3.org/1999/xlink" width="1111.024896pt" height="296.367677pt" viewBox="0 0 1111.024896 296.367677" xmlns="http://www.w3.org/2000/svg" version="1.1">
 <metadata>
  <rdf:RDF xmlns:dc="http://purl.org/dc/elements/1.1/" xmlns:cc="http://creativecommons.org/ns#" xmlns:rdf="http://www.w3.org/1999/02/22-rdf-syntax-ns#">
   <cc:Work>
    <dc:type rdf:resource="http://purl.org/dc/dcmitype/StillImage"/>
    <dc:date>2026-03-26T17:59:43.555016</dc:date>
    <dc:format>image/svg+xml</dc:format>
    <dc:creator>
     <cc:Agent>
      <dc:title>Matplotlib v3.10.7, https://matplotlib.org/</dc:title>
     </cc:Agent>
    </dc:creator>
   </cc:Work>
  </rdf:RDF>
 </metadata>
 <defs>
  <style type="text/css">*{stroke-linejoin: round; stroke-linecap: butt}</style>
 </defs>
 <g id="figure_1">
  <g id="patch_1">
   <path d="M 0 296.367677 
L 1111.024896 296.367677 
L 1111.024896 0 
L 0 0 
z
" style="fill: #ffffff"/>
  </g>
  <g id="axes_1">
   <g id="patch_2">
    <path d="M 32.464896 273.312 
L 1103.824896 273.312 
L 1103.824896 7.2 
L 32.464896 7.2 
z
" style="fill: #ffffff"/>
   </g>
   <g id="matplotlib.axis_1">
    <g id="xtick_1">
     <g id="line2d_1">
      <defs>
       <path id="mf20266daf0" d="M 0 0 
L 0 3.5 
" style="stroke: #000000; stroke-width: 0.8"/>
      </defs>
      <g>
       <use xlink:href="#mf20266daf0" x="81.163078" y="273.312" style="stroke: #000000; stroke-width: 0.8"/>
      </g>
     </g>
     <g id="text_1">
      <!-- $\mathdefault{0}$ -->
      <g transform="translate(78.67241 287.230498) scale(0.1 -0.1)">
       <defs>
        <path id="CMR17-30" d="M 2688 2025 
C 2688 2416 2682 3080 2413 3591 
C 2176 4039 1798 4198 1466 4198 
C 1158 4198 768 4058 525 3597 
C 269 3118 243 2524 243 2025 
C 243 1661 250 1106 448 619 
C 723 -39 1216 -128 1466 -128 
C 1760 -128 2208 -7 2470 600 
C 2662 1042 2688 1559 2688 2025 
z
M 1466 -26 
C 1056 -26 813 325 723 812 
C 653 1188 653 1738 653 2096 
C 653 2588 653 2997 736 3387 
C 858 3929 1216 4096 1466 4096 
C 1728 4096 2067 3923 2189 3400 
C 2272 3036 2278 2607 2278 2096 
C 2278 1680 2278 1169 2202 792 
C 2067 95 1690 -26 1466 -26 
z
" transform="scale(0.015625)"/>
       </defs>
       <use xlink:href="#CMR17-30" transform="scale(0.996264)"/>
      </g>
     </g>
    </g>
    <g id="xtick_2">
     <g id="line2d_2">
      <g>
       <use xlink:href="#mf20266daf0" x="275.955805" y="273.312" style="stroke: #000000; stroke-width: 0.8"/>
      </g>
     </g>
     <g id="text_2">
      <!-- $\mathdefault{200}$ -->
      <g transform="translate(268.483802 287.230498) scale(0.1 -0.1)">
       <defs>
        <path id="CMR17-32" d="M 2669 989 
L 2554 989 
C 2490 536 2438 459 2413 420 
C 2381 369 1920 369 1830 369 
L 602 369 
C 832 619 1280 1072 1824 1597 
C 2214 1967 2669 2402 2669 3035 
C 2669 3790 2067 4224 1395 4224 
C 691 4224 262 3604 262 3030 
C 262 2780 448 2748 525 2748 
C 589 2748 781 2787 781 3010 
C 781 3207 614 3264 525 3264 
C 486 3264 448 3258 422 3245 
C 544 3790 915 4058 1306 4058 
C 1862 4058 2227 3617 2227 3035 
C 2227 2479 1901 2000 1536 1584 
L 262 146 
L 262 0 
L 2515 0 
L 2669 989 
z
" transform="scale(0.015625)"/>
       </defs>
       <use xlink:href="#CMR17-32" transform="scale(0.996264)"/>
       <use xlink:href="#CMR17-30" transform="translate(45.690477 0) scale(0.996264)"/>
       <use xlink:href="#CMR17-30" transform="translate(91.380954 0) scale(0.996264)"/>
      </g>
     </g>
    </g>
    <g id="xtick_3">
     <g id="line2d_3">
      <g>
       <use xlink:href="#mf20266daf0" x="470.748532" y="273.312" style="stroke: #000000; stroke-width: 0.8"/>
      </g>
     </g>
     <g id="text_3">
      <!-- $\mathdefault{400}$ -->
      <g transform="translate(463.276529 287.230498) scale(0.1 -0.1)">
       <defs>
        <path id="CMR17-34" d="M 2150 4122 
C 2150 4256 2144 4256 2029 4256 
L 128 1254 
L 128 1088 
L 1779 1088 
L 1779 457 
C 1779 224 1766 160 1318 160 
L 1197 160 
L 1197 0 
C 1402 0 1747 0 1965 0 
C 2182 0 2528 0 2733 0 
L 2733 160 
L 2611 160 
C 2163 160 2150 224 2150 457 
L 2150 1088 
L 2803 1088 
L 2803 1254 
L 2150 1254 
L 2150 4122 
z
M 1798 3703 
L 1798 1254 
L 256 1254 
L 1798 3703 
z
" transform="scale(0.015625)"/>
       </defs>
       <use xlink:href="#CMR17-34" transform="scale(0.996264)"/>
       <use xlink:href="#CMR17-30" transform="translate(45.690477 0) scale(0.996264)"/>
       <use xlink:href="#CMR17-30" transform="translate(91.380954 0) scale(0.996264)"/>
      </g>
     </g>
    </g>
    <g id="xtick_4">
     <g id="line2d_4">
      <g>
       <use xlink:href="#mf20266daf0" x="665.54126" y="273.312" style="stroke: #000000; stroke-width: 0.8"/>
      </g>
     </g>
     <g id="text_4">
      <!-- $\mathdefault{600}$ -->
      <g transform="translate(658.069257 287.230498) scale(0.1 -0.1)">
       <defs>
        <path id="CMR17-36" d="M 678 2176 
C 678 3690 1395 4032 1811 4032 
C 1946 4032 2272 4009 2400 3776 
C 2298 3776 2106 3776 2106 3553 
C 2106 3381 2246 3323 2336 3323 
C 2394 3323 2566 3348 2566 3560 
C 2566 3954 2246 4179 1805 4179 
C 1043 4179 243 3390 243 1984 
C 243 253 966 -128 1478 -128 
C 2099 -128 2688 427 2688 1283 
C 2688 2081 2170 2662 1517 2662 
C 1126 2662 838 2407 678 1960 
L 678 2176 
z
M 1478 25 
C 691 25 691 1200 691 1436 
C 691 1896 909 2560 1504 2560 
C 1613 2560 1926 2560 2138 2120 
C 2253 1870 2253 1609 2253 1289 
C 2253 944 2253 690 2118 434 
C 1978 171 1773 25 1478 25 
z
" transform="scale(0.015625)"/>
       </defs>
       <use xlink:href="#CMR17-36" transform="scale(0.996264)"/>
       <use xlink:href="#CMR17-30" transform="translate(45.690477 0) scale(0.996264)"/>
       <use xlink:href="#CMR17-30" transform="translate(91.380954 0) scale(0.996264)"/>
      </g>
     </g>
    </g>
    <g id="xtick_5">
     <g id="line2d_5">
      <g>
       <use xlink:href="#mf20266daf0" x="860.333987" y="273.312" style="stroke: #000000; stroke-width: 0.8"/>
      </g>
     </g>
     <g id="text_5">
      <!-- $\mathdefault{800}$ -->
      <g transform="translate(852.861984 287.230498) scale(0.1 -0.1)">
       <defs>
        <path id="CMR17-38" d="M 1741 2264 
C 2144 2467 2554 2773 2554 3263 
C 2554 3841 1990 4179 1472 4179 
C 890 4179 378 3759 378 3180 
C 378 3021 416 2747 666 2505 
C 730 2442 998 2251 1171 2130 
C 883 1983 211 1634 211 934 
C 211 279 838 -128 1459 -128 
C 2144 -128 2720 362 2720 1010 
C 2720 1590 2330 1857 2074 2029 
L 1741 2264 
z
M 902 2822 
C 851 2854 595 3051 595 3351 
C 595 3739 998 4032 1459 4032 
C 1965 4032 2336 3676 2336 3262 
C 2336 2669 1670 2331 1638 2331 
C 1632 2331 1626 2331 1574 2370 
L 902 2822 
z
M 2080 1519 
C 2176 1449 2483 1240 2483 851 
C 2483 381 2010 25 1472 25 
C 890 25 448 438 448 940 
C 448 1443 838 1862 1280 2060 
L 2080 1519 
z
" transform="scale(0.015625)"/>
       </defs>
       <use xlink:href="#CMR17-38" transform="scale(0.996264)"/>
       <use xlink:href="#CMR17-30" transform="translate(45.690477 0) scale(0.996264)"/>
       <use xlink:href="#CMR17-30" transform="translate(91.380954 0) scale(0.996264)"/>
      </g>
     </g>
    </g>
    <g id="xtick_6">
     <g id="line2d_6">
      <g>
       <use xlink:href="#mf20266daf0" x="1055.126714" y="273.312" style="stroke: #000000; stroke-width: 0.8"/>
      </g>
     </g>
     <g id="text_6">
      <!-- $\mathdefault{1000}$ -->
      <g transform="translate(1045.164044 287.230498) scale(0.1 -0.1)">
       <defs>
        <path id="CMR17-31" d="M 1702 4058 
C 1702 4192 1696 4192 1606 4192 
C 1357 3916 979 3827 621 3827 
C 602 3827 570 3827 563 3808 
C 557 3795 557 3782 557 3648 
C 755 3648 1088 3686 1344 3839 
L 1344 461 
C 1344 236 1331 160 781 160 
L 589 160 
L 589 0 
C 896 0 1216 0 1523 0 
C 1830 0 2150 0 2458 0 
L 2458 160 
L 2266 160 
C 1715 160 1702 230 1702 458 
L 1702 4058 
z
" transform="scale(0.015625)"/>
       </defs>
       <use xlink:href="#CMR17-31" transform="scale(0.996264)"/>
       <use xlink:href="#CMR17-30" transform="translate(45.690477 0) scale(0.996264)"/>
       <use xlink:href="#CMR17-30" transform="translate(91.380954 0) scale(0.996264)"/>
       <use xlink:href="#CMR17-30" transform="translate(137.071431 0) scale(0.996264)"/>
      </g>
     </g>
    </g>
   </g>
   <g id="matplotlib.axis_2">
    <g id="ytick_1">
     <g id="line2d_7">
      <defs>
       <path id="md05c83f9e3" d="M 0 0 
L -3.5 0 
" style="stroke: #000000; stroke-width: 0.8"/>
      </defs>
      <g>
       <use xlink:href="#md05c83f9e3" x="32.464896" y="262.459965" style="stroke: #000000; stroke-width: 0.8"/>
      </g>
     </g>
     <g id="text_7">
      <!-- 0\% -->
      <g transform="translate(12.181335 265.919214) scale(0.1 -0.1)">
       <defs>
        <path id="CMSS17-30" d="M 2758 2044 
C 2758 2405 2752 3077 2490 3596 
C 2227 4096 1805 4229 1504 4229 
C 1069 4229 698 3975 506 3570 
C 301 3146 243 2709 243 2044 
C 243 1589 262 1031 493 543 
C 755 5 1197 -128 1498 -128 
C 1894 -128 2278 81 2496 518 
C 2720 974 2758 1474 2758 2044 
z
M 1498 261 
C 1011 261 864 811 819 995 
C 742 1310 730 1614 730 2114 
C 730 2506 730 2948 851 3297 
C 998 3701 1254 3840 1498 3840 
C 1971 3840 2125 3372 2176 3208 
C 2272 2873 2272 2481 2272 2114 
C 2272 1526 2272 261 1498 261 
z
" transform="scale(0.015625)"/>
        <path id="CMSS17-25" d="M 3923 4583 
C 3962 4647 3962 4679 3962 4685 
C 3962 4755 3904 4800 3853 4800 
C 3782 4800 3750 4749 3718 4685 
L 1101 -104 
C 1088 -129 1062 -167 1062 -206 
C 1062 -276 1120 -320 1178 -320 
C 1235 -320 1248 -295 1299 -206 
L 3923 4583 
z
M 4678 959 
C 4678 1698 4282 2240 3846 2240 
C 3418 2240 3008 1711 3008 959 
C 3008 208 3418 -320 3846 -320 
C 4288 -320 4678 221 4678 959 
z
M 3846 68 
C 3712 68 3494 189 3494 959 
C 3494 1724 3712 1851 3846 1851 
C 4083 1851 4211 1386 4211 959 
C 4211 533 4083 68 3846 68 
z
M 2003 3519 
C 2003 4258 1606 4800 1171 4800 
C 742 4800 333 4271 333 3519 
C 333 2768 742 2240 1171 2240 
C 1613 2240 2003 2781 2003 3519 
z
M 1171 2628 
C 1037 2628 819 2749 819 3519 
C 819 4284 1037 4411 1171 4411 
C 1408 4411 1536 3946 1536 3519 
C 1536 3093 1408 2628 1171 2628 
z
" transform="scale(0.015625)"/>
       </defs>
       <use xlink:href="#CMSS17-30" transform="scale(0.996264)"/>
       <use xlink:href="#CMSS17-25" transform="translate(46.843624 0) scale(0.996264)"/>
      </g>
     </g>
    </g>
    <g id="ytick_2">
     <g id="line2d_8">
      <g>
       <use xlink:href="#md05c83f9e3" x="32.464896" y="217.700521" style="stroke: #000000; stroke-width: 0.8"/>
      </g>
     </g>
     <g id="text_8">
      <!-- 10\% -->
      <g transform="translate(7.2 221.159771) scale(0.1 -0.1)">
       <defs>
        <path id="CMSS17-31" d="M 1818 4288 
L 1696 4288 
C 1350 3940 947 3890 538 3890 
L 538 3520 
C 723 3520 1024 3520 1325 3667 
L 1325 369 
L 570 369 
L 570 0 
L 2573 0 
L 2573 369 
L 1818 369 
L 1818 4288 
z
" transform="scale(0.015625)"/>
       </defs>
       <use xlink:href="#CMSS17-31" transform="scale(0.996264)"/>
       <use xlink:href="#CMSS17-30" transform="translate(46.843624 0) scale(0.996264)"/>
       <use xlink:href="#CMSS17-25" transform="translate(93.687247 0) scale(0.996264)"/>
      </g>
     </g>
    </g>
    <g id="ytick_3">
     <g id="line2d_9">
      <g>
       <use xlink:href="#md05c83f9e3" x="32.464896" y="172.941078" style="stroke: #000000; stroke-width: 0.8"/>
      </g>
     </g>
     <g id="text_9">
      <!-- 20\% -->
      <g transform="translate(7.2 176.400327) scale(0.1 -0.1)">
       <defs>
        <path id="CMSS17-32" d="M 1651 1357 
C 1830 1541 2099 1764 2285 1987 
C 2464 2204 2701 2511 2701 2957 
C 2701 3657 2227 4288 1421 4288 
C 787 4288 422 3893 250 3274 
L 499 2929 
C 640 3510 838 3880 1338 3880 
C 1888 3880 2195 3433 2195 2942 
C 2195 2355 1747 1901 1408 1563 
C 1030 1187 659 804 301 408 
L 301 0 
L 2701 0 
L 2701 433 
L 1613 433 
C 1536 433 1459 433 1382 433 
L 742 433 
L 742 439 
L 1651 1357 
z
" transform="scale(0.015625)"/>
       </defs>
       <use xlink:href="#CMSS17-32" transform="scale(0.996264)"/>
       <use xlink:href="#CMSS17-30" transform="translate(46.843624 0) scale(0.996264)"/>
       <use xlink:href="#CMSS17-25" transform="translate(93.687247 0) scale(0.996264)"/>
      </g>
     </g>
    </g>
    <g id="ytick_4">
     <g id="line2d_10">
      <g>
       <use xlink:href="#md05c83f9e3" x="32.464896" y="128.181634" style="stroke: #000000; stroke-width: 0.8"/>
      </g>
     </g>
     <g id="text_10">
      <!-- 30\% -->
      <g transform="translate(7.2 131.640883) scale(0.1 -0.1)">
       <defs>
        <path id="CMSS17-33" d="M 1005 2025 
L 1440 2025 
C 2042 2025 2214 1507 2214 1146 
C 2214 653 1933 267 1472 267 
C 1114 267 608 444 320 912 
C 275 691 275 678 250 526 
C 550 88 1037 -128 1485 -128 
C 2214 -128 2752 473 2752 1138 
C 2752 1638 2400 2057 1920 2215 
C 2304 2424 2586 2816 2586 3273 
C 2586 3805 2093 4229 1491 4229 
C 941 4229 512 3892 333 3530 
C 378 3468 493 3284 550 3189 
C 691 3562 1056 3840 1485 3840 
C 1843 3840 2080 3607 2080 3271 
C 2080 2923 1856 2543 1478 2455 
C 1453 2455 1056 2417 1005 2411 
L 1005 2025 
z
" transform="scale(0.015625)"/>
       </defs>
       <use xlink:href="#CMSS17-33" transform="scale(0.996264)"/>
       <use xlink:href="#CMSS17-30" transform="translate(46.843624 0) scale(0.996264)"/>
       <use xlink:href="#CMSS17-25" transform="translate(93.687247 0) scale(0.996264)"/>
      </g>
     </g>
    </g>
    <g id="ytick_5">
     <g id="line2d_11">
      <g>
       <use xlink:href="#md05c83f9e3" x="32.464896" y="83.422191" style="stroke: #000000; stroke-width: 0.8"/>
      </g>
     </g>
     <g id="text_11">
      <!-- 40\% -->
      <g transform="translate(7.2 86.88144) scale(0.1 -0.1)">
       <defs>
        <path id="CMSS17-34" d="M 2253 1088 
L 2835 1088 
L 2835 1477 
L 2253 1477 
L 2253 4192 
L 1690 4192 
L 166 1477 
L 166 1088 
L 1747 1088 
L 1747 0 
L 2253 0 
L 2253 1088 
z
M 659 1477 
C 1030 2127 1766 3439 1766 3885 
L 1766 1477 
L 659 1477 
z
" transform="scale(0.015625)"/>
       </defs>
       <use xlink:href="#CMSS17-34" transform="scale(0.996264)"/>
       <use xlink:href="#CMSS17-30" transform="translate(46.843624 0) scale(0.996264)"/>
       <use xlink:href="#CMSS17-25" transform="translate(93.687247 0) scale(0.996264)"/>
      </g>
     </g>
    </g>
    <g id="ytick_6">
     <g id="line2d_12">
      <g>
       <use xlink:href="#md05c83f9e3" x="32.464896" y="38.662747" style="stroke: #000000; stroke-width: 0.8"/>
      </g>
     </g>
     <g id="text_12">
      <!-- 50\% -->
      <g transform="translate(7.2 42.121996) scale(0.1 -0.1)">
       <defs>
        <path id="CMSS17-35" d="M 934 3752 
L 2502 3752 
L 2502 4160 
L 467 4160 
L 467 1781 
L 896 1781 
C 1011 2046 1248 2240 1555 2240 
C 1843 2240 2163 1989 2163 1266 
C 2163 493 1709 267 1376 267 
C 966 267 589 512 422 851 
L 218 499 
C 512 49 992 -128 1376 -128 
C 2118 -128 2701 497 2701 1253 
C 2701 2030 2182 2629 1562 2629 
C 1338 2629 1120 2553 934 2399 
L 934 3752 
z
" transform="scale(0.015625)"/>
       </defs>
       <use xlink:href="#CMSS17-35" transform="scale(0.996264)"/>
       <use xlink:href="#CMSS17-30" transform="translate(46.843624 0) scale(0.996264)"/>
       <use xlink:href="#CMSS17-25" transform="translate(93.687247 0) scale(0.996264)"/>
      </g>
     </g>
    </g>
   </g>
   <g id="line2d_13">
    <path d="M 81.163078 261.21184 
L 94.798569 255.366452 
L 104.538205 252.142128 
L 112.329914 250.17425 
L 120.121623 248.755547 
L 127.913332 247.761207 
L 147.392605 246.180248 
L 165.897914 245.40225 
L 179.533405 245.156786 
L 216.544023 244.790669 
L 272.05995 244.682498 
L 307.122641 244.640894 
L 1055.126714 244.640894 
L 1055.126714 244.640894 
" clip-path="url(#p7b4b2f3475)" style="fill: none; stroke: #e46e56; stroke-width: 1.5; stroke-linecap: square"/>
   </g>
   <g id="line2d_14">
    <path d="M 81.163078 261.216 
L 85.058932 256.718588 
L 86.032896 255.907306 
L 87.980823 253.564991 
L 89.92875 251.430696 
L 91.876678 249.0759 
L 92.850641 248.48096 
L 96.746496 243.871216 
L 98.694423 241.682836 
L 99.668387 240.713459 
L 100.64235 240.135161 
L 101.616314 239.257313 
L 103.564241 237.14382 
L 105.512169 235.458851 
L 107.460096 233.7614 
L 108.43406 233.320396 
L 115.251805 227.828644 
L 116.225769 227.212902 
L 118.173696 226.530593 
L 120.121623 225.373997 
L 122.06955 224.371336 
L 123.043514 224.163315 
L 124.991441 223.343713 
L 125.965405 222.673885 
L 126.939369 222.149673 
L 127.913332 221.463204 
L 129.86126 220.772574 
L 130.835223 220.53543 
L 131.809187 220.140191 
L 134.731078 219.603497 
L 139.600896 218.384494 
L 141.548823 218.068302 
L 145.444678 216.778573 
L 148.366569 216.221077 
L 151.28846 215.967291 
L 152.262423 215.775912 
L 153.236387 215.409795 
L 155.184314 214.927187 
L 157.132241 214.049338 
L 159.080169 213.06748 
L 162.00206 212.439257 
L 163.949987 211.561408 
L 165.897914 211.332585 
L 167.845841 210.612833 
L 170.767732 210.346566 
L 173.689623 210.076139 
L 174.663587 209.755787 
L 175.63755 209.310622 
L 177.585478 208.732324 
L 178.559441 208.524303 
L 183.42926 208.066657 
L 185.377187 207.792069 
L 189.273041 207.346905 
L 191.220969 207.00159 
L 193.168896 206.50234 
L 195.116823 205.686898 
L 198.038714 204.380526 
L 199.012678 204.147543 
L 200.960605 203.31962 
L 201.934569 203.190647 
L 204.85646 201.92588 
L 206.804387 201.667934 
L 211.674205 201.268534 
L 217.517987 200.190985 
L 223.361769 197.998445 
L 231.153478 195.294173 
L 234.075369 194.857329 
L 235.049332 194.474571 
L 236.023296 194.26655 
L 237.971223 193.667449 
L 240.893114 193.084991 
L 241.867078 192.98098 
L 243.815005 192.211303 
L 244.788969 192.119774 
L 247.71086 191.121273 
L 251.606714 190.526334 
L 252.580678 190.181019 
L 254.528605 189.835704 
L 257.450496 188.716552 
L 259.398423 188.025922 
L 262.320314 187.41018 
L 264.268241 186.582257 
L 265.242205 186.428322 
L 267.190132 186.291028 
L 271.085987 185.592078 
L 272.05995 185.31333 
L 282.77355 184.285706 
L 286.669405 184.21914 
L 288.617332 183.994477 
L 289.591296 183.753173 
L 290.56526 183.703248 
L 292.513187 183.374575 
L 296.409041 182.946052 
L 299.330932 182.762993 
L 302.252823 182.638181 
L 304.20075 181.93091 
L 306.148678 181.731209 
L 307.122641 181.402536 
L 311.018496 181.23612 
L 313.940387 180.158571 
L 314.91435 180.104486 
L 315.888314 179.813257 
L 316.862278 179.717567 
L 317.836241 179.484584 
L 319.784169 179.301525 
L 321.732096 178.95205 
L 325.62795 178.440319 
L 327.575878 178.040918 
L 332.445696 177.75385 
L 334.393623 177.466781 
L 336.34155 177.275402 
L 337.315514 176.980012 
L 338.289478 176.826076 
L 339.263441 176.551489 
L 342.185332 176.414195 
L 347.05515 176.326826 
L 348.029114 175.973191 
L 349.003078 175.827576 
L 354.84686 175.731886 
L 355.820823 175.478101 
L 372.378205 174.804113 
L 375.300096 173.788971 
L 376.27406 173.560148 
L 379.19595 173.451977 
L 380.169914 173.073379 
L 381.143878 172.927764 
L 382.117841 172.628214 
L 383.091805 172.565808 
L 384.065769 172.253777 
L 386.013696 171.999991 
L 387.961623 171.837735 
L 393.805405 171.600591 
L 397.70126 171.101341 
L 400.62315 170.976528 
L 402.571078 170.801791 
L 405.492969 170.714422 
L 407.440896 170.568807 
L 408.41486 170.373268 
L 409.388823 170.315022 
L 410.362787 170.107001 
L 418.154496 169.807451 
L 422.05035 168.268096 
L 423.024314 168.134963 
L 423.998278 167.773006 
L 426.920169 167.078216 
L 427.894132 167.01581 
L 428.868096 166.637212 
L 434.711878 165.330841 
L 435.685841 165.02713 
L 438.607732 164.810788 
L 439.581696 164.752543 
L 441.529623 164.120159 
L 445.425478 163.283915 
L 448.347369 163.030129 
L 450.295296 162.763863 
L 451.26926 162.526719 
L 455.165114 162.247971 
L 468.800605 162.056592 
L 469.774569 161.894335 
L 474.644387 161.802806 
L 476.592314 161.24115 
L 479.514205 161.028968 
L 484.384023 160.321697 
L 488.279878 160.24681 
L 492.175732 160.026307 
L 499.967441 159.75172 
L 501.915369 159.701795 
L 502.889332 159.497934 
L 503.863296 159.102695 
L 504.83726 158.977882 
L 506.785187 158.191563 
L 507.75915 158.045948 
L 509.707078 158.000184 
L 510.681041 157.696473 
L 514.576896 157.205544 
L 519.446714 157.039127 
L 521.394641 156.47331 
L 522.368605 156.398423 
L 523.342569 156.111354 
L 543.795805 155.695312 
L 553.535441 155.524735 
L 556.457332 155.458168 
L 563.275078 155.37912 
L 564.249041 155.225185 
L 565.223005 155.204383 
L 566.196969 155.029645 
L 570.092823 154.763378 
L 571.066787 154.48047 
L 573.014714 154.467989 
L 573.988678 154.243326 
L 578.858496 154.197562 
L 588.598132 154.151797 
L 589.572096 154.043626 
L 590.54606 153.764878 
L 591.520023 153.619263 
L 594.441914 153.548536 
L 595.415878 153.402922 
L 614.89515 153.303072 
L 617.817041 153.236505 
L 649.957841 153.070088 
L 651.905769 152.874549 
L 668.46315 152.458507 
L 669.437114 152.308732 
L 670.411078 151.946775 
L 675.280896 151.031483 
L 681.124678 150.885869 
L 682.098641 150.619602 
L 690.864314 150.511431 
L 692.812241 150.265966 
L 693.786205 150.224362 
L 695.734132 149.712631 
L 696.708096 149.675187 
L 699.629987 148.893028 
L 700.60395 148.535232 
L 701.577914 148.318891 
L 703.525841 148.235682 
L 705.473769 147.698988 
L 707.421696 147.029161 
L 711.31755 146.629761 
L 723.005114 146.509109 
L 724.953041 146.280286 
L 725.927005 146.093067 
L 730.796823 144.43722 
L 736.640605 144.23752 
L 741.510423 142.627438 
L 742.484387 142.423578 
L 744.432314 141.741269 
L 746.380241 141.603976 
L 750.276096 140.314246 
L 756.119878 138.56271 
L 757.093841 138.342208 
L 782.416896 137.418595 
L 787.286714 136.831976 
L 792.156532 136.698842 
L 794.10446 136.212073 
L 796.052387 135.567209 
L 799.948241 135.242696 
L 800.922205 135.009713 
L 801.896169 134.976429 
L 804.81806 134.098581 
L 806.765987 133.670058 
L 807.73995 133.370508 
L 808.713914 133.199931 
L 810.661841 132.60083 
L 811.635805 132.463537 
L 813.583732 131.889399 
L 814.557696 131.847795 
L 816.505623 131.244534 
L 818.45355 131.111401 
L 821.375441 130.150344 
L 822.349405 130.01305 
L 825.271296 129.226731 
L 828.193187 128.61931 
L 837.932823 127.916199 
L 843.776605 127.799708 
L 847.67246 127.450233 
L 859.360023 127.296297 
L 872.02155 127.142362 
L 876.891369 127.075795 
L 886.631005 126.971785 
L 922.66766 126.613989 
L 931.433332 126.472534 
L 932.407296 126.414289 
L 933.38126 126.13554 
L 934.355223 126.044011 
L 935.329187 125.748622 
L 936.30315 125.611328 
L 942.146932 124.034529 
L 946.042787 123.880594 
L 947.01675 123.597685 
L 962.600169 123.427108 
L 989.87115 123.323098 
L 1033.699514 122.84881 
L 1035.647441 122.55342 
L 1038.569332 122.478533 
L 1042.465187 121.75878 
L 1046.361041 121.280332 
L 1050.256896 121.176322 
L 1051.23086 120.984943 
L 1055.126714 120.968301 
L 1055.126714 120.968301 
" clip-path="url(#p7b4b2f3475)" style="fill: none; stroke: #d1dae9; stroke-width: 1.5; stroke-linecap: square"/>
   </g>
   <g id="line2d_15">
    <path d="M 81.163078 261.21184 
L 86.032896 255.628558 
L 89.92875 251.56799 
L 98.694423 242.972566 
L 107.460096 235.175942 
L 113.303878 230.324895 
L 116.225769 228.18644 
L 125.965405 221.221899 
L 127.913332 220.040341 
L 131.809187 217.523288 
L 143.49675 210.404812 
L 147.392605 208.158186 
L 154.21035 204.21827 
L 157.132241 202.649792 
L 162.00206 199.949681 
L 163.949987 198.917897 
L 172.71566 194.091812 
L 175.63755 192.548297 
L 178.559441 191.054707 
L 184.403223 188.217302 
L 189.273041 185.81674 
L 192.194932 184.439642 
L 194.14286 183.620039 
L 199.986641 180.870003 
L 209.726278 176.730387 
L 223.361769 171.567308 
L 227.257623 170.057076 
L 241.867078 164.665174 
L 261.34635 157.892013 
L 264.268241 156.922635 
L 267.190132 155.986541 
L 273.033914 153.88553 
L 274.981841 153.174099 
L 277.903732 152.133994 
L 281.799587 150.856746 
L 291.539223 147.486807 
L 303.226787 143.863083 
L 305.174714 143.276464 
L 315.888314 139.927327 
L 347.05515 130.021371 
L 350.951005 129.022871 
L 352.898932 128.51946 
L 357.76875 127.263014 
L 363.612532 125.740301 
L 369.456314 124.146861 
L 393.805405 118.422125 
L 419.12846 113.013581 
L 436.659805 108.994617 
L 443.47755 107.700727 
L 457.113041 104.884124 
L 470.748532 102.325467 
L 478.540241 100.744508 
L 482.436096 99.887462 
L 488.279878 98.938886 
L 514.576896 94.428993 
L 519.446714 93.675957 
L 523.342569 92.972847 
L 526.26446 92.394549 
L 566.196969 84.656171 
L 578.858496 82.376261 
L 581.780387 81.852049 
L 590.54606 80.200363 
L 607.103441 77.516893 
L 609.051369 77.258947 
L 611.97326 76.817943 
L 613.921187 76.551676 
L 625.60875 74.729413 
L 632.426496 73.880687 
L 648.983878 71.62158 
L 652.879732 71.172255 
L 661.645405 69.978215 
L 676.25486 67.457002 
L 681.124678 66.529228 
L 699.629987 63.795834 
L 703.525841 63.188412 
L 713.265478 61.665699 
L 730.796823 59.248496 
L 735.666641 58.570348 
L 740.53646 57.917163 
L 745.406278 57.176608 
L 754.17195 56.049135 
L 806.765987 48.963942 
L 810.661841 48.464692 
L 814.557696 47.790705 
L 817.479587 47.291454 
L 837.932823 44.503974 
L 841.828678 44.046328 
L 850.59435 42.760759 
L 854.490205 42.165819 
L 861.30795 41.321254 
L 871.047587 40.027364 
L 879.81326 39.020543 
L 883.709114 38.579539 
L 894.422714 37.422942 
L 902.214423 36.599179 
L 919.745769 34.768595 
L 931.433332 33.370695 
L 955.782423 30.158852 
L 958.704314 29.784414 
L 972.339805 28.128568 
L 980.131514 27.275682 
L 998.636823 25.083142 
L 1048.308969 20.103121 
L 1052.204823 19.578908 
L 1054.15275 19.296 
L 1055.126714 19.296 
L 1055.126714 19.296 
" clip-path="url(#p7b4b2f3475)" style="fill: none; stroke: #3a4cc0; stroke-width: 1.5; stroke-linecap: square"/>
   </g>
   <g id="patch_3">
    <path d="M 32.464896 273.312 
L 32.464896 7.2 
" style="fill: none; stroke: #000000; stroke-width: 0.8; stroke-linejoin: miter; stroke-linecap: square"/>
   </g>
   <g id="patch_4">
    <path d="M 1103.824896 273.312 
L 1103.824896 7.2 
" style="fill: none; stroke: #000000; stroke-width: 0.8; stroke-linejoin: miter; stroke-linecap: square"/>
   </g>
   <g id="patch_5">
    <path d="M 32.464896 273.312 
L 1103.824896 273.312 
" style="fill: none; stroke: #000000; stroke-width: 0.8; stroke-linejoin: miter; stroke-linecap: square"/>
   </g>
   <g id="patch_6">
    <path d="M 32.464896 7.2 
L 1103.824896 7.2 
" style="fill: none; stroke: #000000; stroke-width: 0.8; stroke-linejoin: miter; stroke-linecap: square"/>
   </g>
   <g id="legend_1">
    <g id="patch_7">
     <path d="M 39.464896 57.011535 
L 124.322451 57.011535 
Q 126.322451 57.011535 126.322451 55.011535 
L 126.322451 14.2 
Q 126.322451 12.2 124.322451 12.2 
L 39.464896 12.2 
Q 37.464896 12.2 37.464896 14.2 
L 37.464896 55.011535 
Q 37.464896 57.011535 39.464896 57.011535 
z
" style="fill: #ffffff; opacity: 0.8; stroke: #cccccc; stroke-linejoin: miter"/>
    </g>
    <g id="line2d_16">
     <path d="M 41.464896 19.7 
L 51.464896 19.7 
L 61.464896 19.7 
" style="fill: none; stroke: #e46e56; stroke-width: 1.5; stroke-linecap: square"/>
    </g>
    <g id="text_13">
     <!-- MSGD -->
     <g transform="translate(69.464896 23.2) scale(0.1 -0.1)">
      <defs>
       <path id="CMSS17-4d" d="M 3194 2371 
L 2886 1473 
C 2835 1307 2662 791 2624 587 
L 2618 587 
C 2598 715 2560 849 2458 1174 
C 2400 1365 2336 1562 2272 1741 
L 1325 4416 
L 576 4416 
L 576 0 
L 1075 0 
L 1075 3900 
L 1082 3900 
C 1082 3894 1139 3613 1530 2499 
L 2374 96 
L 2848 96 
L 3610 2231 
C 3661 2378 3821 2843 3891 3066 
C 3955 3257 4115 3728 4154 3913 
L 4160 3913 
L 4160 0 
L 4666 0 
L 4666 4416 
L 3923 4416 
L 3194 2371 
z
" transform="scale(0.015625)"/>
       <path id="CMSS17-53" d="M 2797 4169 
C 2515 4334 2208 4480 1690 4480 
C 864 4480 333 3879 333 3266 
C 333 3025 403 2753 653 2475 
C 902 2196 1184 2121 1542 2033 
C 1690 1994 1939 1924 1984 1906 
C 2342 1767 2515 1444 2515 1140 
C 2515 742 2202 318 1645 318 
C 1453 318 890 318 358 819 
L 269 318 
C 794 -64 1363 -128 1651 -128 
C 2438 -128 3002 488 3002 1186 
C 3002 1440 2925 1763 2656 2061 
C 2394 2347 2163 2410 1638 2549 
C 1338 2626 1146 2677 986 2873 
C 877 3013 819 3146 819 3317 
C 819 3673 1126 4060 1690 4060 
C 1971 4060 2336 4002 2707 3660 
L 2797 4169 
z
" transform="scale(0.015625)"/>
       <path id="CMSS17-47" d="M 3610 1856 
L 2336 1856 
L 2336 1461 
L 3123 1461 
L 3123 471 
C 2874 401 2618 350 2362 350 
C 1466 350 934 1301 934 2200 
C 934 3095 1491 4032 2362 4032 
C 2854 4032 3130 3881 3469 3627 
L 3552 4134 
C 3130 4351 2867 4440 2387 4440 
C 1146 4440 397 3324 397 2182 
C 397 1090 1152 -64 2349 -64 
C 2797 -64 3213 51 3610 248 
L 3610 1856 
z
" transform="scale(0.015625)"/>
       <path id="CMSS17-44" d="M 570 4416 
L 570 0 
L 2144 0 
C 3194 0 4000 980 4000 2170 
C 4000 3398 3194 4416 2144 4416 
L 570 4416 
z
M 1094 357 
L 1094 4059 
L 2003 4059 
C 2861 4059 3475 3277 3475 2170 
C 3475 1107 2867 357 2003 357 
L 1094 357 
z
" transform="scale(0.015625)"/>
      </defs>
      <use xlink:href="#CMSS17-4d" transform="scale(0.996264)"/>
      <use xlink:href="#CMSS17-53" transform="translate(81.67603 0) scale(0.996264)"/>
      <use xlink:href="#CMSS17-47" transform="translate(133.724546 0) scale(0.996264)"/>
      <use xlink:href="#CMSS17-44" transform="translate(196.182772 0) scale(0.996264)"/>
     </g>
    </g>
    <g id="line2d_17">
     <path d="M 41.464896 33.637178 
L 51.464896 33.637178 
L 61.464896 33.637178 
" style="fill: none; stroke: #d1dae9; stroke-width: 1.5; stroke-linecap: square"/>
    </g>
    <g id="text_14">
     <!-- SMD-MSGD -->
     <g transform="translate(69.464896 37.137178) scale(0.1 -0.1)">
      <defs>
       <path id="CMSS17-2d" d="M 1664 1216 
L 1664 1585 
L 64 1585 
L 64 1216 
L 1664 1216 
z
" transform="scale(0.015625)"/>
      </defs>
      <use xlink:href="#CMSS17-53" transform="scale(0.996264)"/>
      <use xlink:href="#CMSS17-4d" transform="translate(52.048516 0) scale(0.996264)"/>
      <use xlink:href="#CMSS17-44" transform="translate(133.724546 0) scale(0.996264)"/>
      <use xlink:href="#CMSS17-2d" transform="translate(201.267388 0) scale(0.996264)"/>
      <use xlink:href="#CMSS17-4d" transform="translate(232.496501 0) scale(0.996264)"/>
      <use xlink:href="#CMSS17-53" transform="translate(314.172531 0) scale(0.996264)"/>
      <use xlink:href="#CMSS17-47" transform="translate(366.221047 0) scale(0.996264)"/>
      <use xlink:href="#CMSS17-44" transform="translate(428.679272 0) scale(0.996264)"/>
     </g>
    </g>
    <g id="line2d_18">
     <path d="M 41.464896 47.574357 
L 51.464896 47.574357 
L 61.464896 47.574357 
" style="fill: none; stroke: #3a4cc0; stroke-width: 1.5; stroke-linecap: square"/>
    </g>
    <g id="text_15">
     <!-- GCN-MSGD -->
     <g transform="translate(69.464896 51.074357) scale(0.1 -0.1)">
      <defs>
       <path id="CMSS17-43" d="M 3501 714 
C 3072 427 2874 344 2355 344 
C 1459 344 934 1303 934 2179 
C 934 3112 1472 4032 2381 4032 
C 2790 4032 3059 3918 3386 3715 
L 3475 4217 
C 3168 4370 2778 4440 2387 4440 
C 1158 4440 397 3316 397 2179 
C 397 927 1299 -64 2323 -64 
C 2874 -64 3066 -19 3539 280 
L 3501 714 
z
" transform="scale(0.015625)"/>
       <path id="CMSS17-4e" d="M 1466 4180 
L 1350 4416 
L 563 4416 
L 563 0 
L 1062 0 
L 1062 3926 
L 1069 3932 
C 1114 3817 1139 3760 1402 3194 
L 2771 236 
L 2886 0 
L 3674 0 
L 3674 4416 
L 3174 4416 
L 3174 490 
L 3168 483 
C 3123 598 3098 655 2835 1221 
L 1466 4180 
z
" transform="scale(0.015625)"/>
      </defs>
      <use xlink:href="#CMSS17-47" transform="scale(0.996264)"/>
      <use xlink:href="#CMSS17-43" transform="translate(62.458226 0) scale(0.996264)"/>
      <use xlink:href="#CMSS17-4e" transform="translate(122.313997 0) scale(0.996264)"/>
      <use xlink:href="#CMSS17-2d" transform="translate(188.375516 0) scale(0.996264)"/>
      <use xlink:href="#CMSS17-4d" transform="translate(219.604629 0) scale(0.996264)"/>
      <use xlink:href="#CMSS17-53" transform="translate(301.280659 0) scale(0.996264)"/>
      <use xlink:href="#CMSS17-47" transform="translate(353.329175 0) scale(0.996264)"/>
      <use xlink:href="#CMSS17-44" transform="translate(415.787401 0) scale(0.996264)"/>
     </g>
    </g>
   </g>
  </g>
 </g>
 <defs>
  <clipPath id="p7b4b2f3475">
   <rect x="32.464896" y="7.2" width="1071.36" height="266.112"/>
  </clipPath>
 </defs>
</svg>
