<?xml version="1.0" encoding="utf-8" standalone="no"?>
<!DOCTYPE svg PUBLIC "-//W3C//DTD SVG 1.1//EN"
  "http://www.w3.org/Graphics/SVG/1.1/DTD/svg11.dtd">
<svg xmlns:xlink="http://www.w3.org/1999/xlink" width="396.231414pt" height="296.367677pt" viewBox="0 0 396.231414 296.367677" xmlns="http://www.w3.org/2000/svg" version="1.1">
 <metadata>
  <rdf:RDF xmlns:dc="http://purl.org/dc/elements/1.1/" xmlns:cc="http://creativecommons.org/ns#" xmlns:rdf="http://www.w3.org/1999/02/22-rdf-syntax-ns#">
   <cc:Work>
    <dc:type rdf:resource="http://purl.org/dc/dcmitype/StillImage"/>
    <dc:date>2026-03-25T17:01:28.069108</dc:date>
    <dc:format>image/svg+xml</dc:format>
    <dc:creator>
     <cc:Agent>
      <dc:title>Matplotlib v3.10.7, https://matplotlib.org/</dc:title>
     </cc:Agent>
    </dc:creator>
   </cc:Work>
  </rdf:RDF>
 </metadata>
 <defs>
  <style type="text/css">*{stroke-linejoin: round; stroke-linecap: butt}</style>
 </defs>
 <g id="figure_1">
  <g id="patch_1">
   <path d="M 0 296.367677 
L 396.231414 296.367677 
L 396.231414 0 
L 0 0 
z
" style="fill: #ffffff"/>
  </g>
  <g id="axes_1">
   <g id="patch_2">
    <path d="M 31.911414 273.312 
L 389.031414 273.312 
L 389.031414 7.2 
L 31.911414 7.2 
z
" style="fill: #ffffff"/>
   </g>
   <g id="matplotlib.axis_1">
    <g id="xtick_1">
     <g id="line2d_1">
      <defs>
       <path id="mb1e3ffef82" d="M 0 0 
L 0 3.5 
" style="stroke: #000000; stroke-width: 0.8"/>
      </defs>
      <g>
       <use xlink:href="#mb1e3ffef82" x="48.144142" y="273.312" style="stroke: #000000; stroke-width: 0.8"/>
      </g>
     </g>
     <g id="text_1">
      <!-- $\mathdefault{0}$ -->
      <g transform="translate(45.653474 287.230498) scale(0.1 -0.1)">
       <defs>
        <path id="CMR17-30" d="M 2688 2025 
C 2688 2416 2682 3080 2413 3591 
C 2176 4039 1798 4198 1466 4198 
C 1158 4198 768 4058 525 3597 
C 269 3118 243 2524 243 2025 
C 243 1661 250 1106 448 619 
C 723 -39 1216 -128 1466 -128 
C 1760 -128 2208 -7 2470 600 
C 2662 1042 2688 1559 2688 2025 
z
M 1466 -26 
C 1056 -26 813 325 723 812 
C 653 1188 653 1738 653 2096 
C 653 2588 653 2997 736 3387 
C 858 3929 1216 4096 1466 4096 
C 1728 4096 2067 3923 2189 3400 
C 2272 3036 2278 2607 2278 2096 
C 2278 1680 2278 1169 2202 792 
C 2067 95 1690 -26 1466 -26 
z
" transform="scale(0.015625)"/>
       </defs>
       <use xlink:href="#CMR17-30" transform="scale(0.996264)"/>
      </g>
     </g>
    </g>
    <g id="xtick_2">
     <g id="line2d_2">
      <g>
       <use xlink:href="#mb1e3ffef82" x="113.075051" y="273.312" style="stroke: #000000; stroke-width: 0.8"/>
      </g>
     </g>
     <g id="text_2">
      <!-- $\mathdefault{200}$ -->
      <g transform="translate(105.603048 287.230498) scale(0.1 -0.1)">
       <defs>
        <path id="CMR17-32" d="M 2669 989 
L 2554 989 
C 2490 536 2438 459 2413 420 
C 2381 369 1920 369 1830 369 
L 602 369 
C 832 619 1280 1072 1824 1597 
C 2214 1967 2669 2402 2669 3035 
C 2669 3790 2067 4224 1395 4224 
C 691 4224 262 3604 262 3030 
C 262 2780 448 2748 525 2748 
C 589 2748 781 2787 781 3010 
C 781 3207 614 3264 525 3264 
C 486 3264 448 3258 422 3245 
C 544 3790 915 4058 1306 4058 
C 1862 4058 2227 3617 2227 3035 
C 2227 2479 1901 2000 1536 1584 
L 262 146 
L 262 0 
L 2515 0 
L 2669 989 
z
" transform="scale(0.015625)"/>
       </defs>
       <use xlink:href="#CMR17-32" transform="scale(0.996264)"/>
       <use xlink:href="#CMR17-30" transform="translate(45.690477 0) scale(0.996264)"/>
       <use xlink:href="#CMR17-30" transform="translate(91.380954 0) scale(0.996264)"/>
      </g>
     </g>
    </g>
    <g id="xtick_3">
     <g id="line2d_3">
      <g>
       <use xlink:href="#mb1e3ffef82" x="178.00596" y="273.312" style="stroke: #000000; stroke-width: 0.8"/>
      </g>
     </g>
     <g id="text_3">
      <!-- $\mathdefault{400}$ -->
      <g transform="translate(170.533957 287.230498) scale(0.1 -0.1)">
       <defs>
        <path id="CMR17-34" d="M 2150 4122 
C 2150 4256 2144 4256 2029 4256 
L 128 1254 
L 128 1088 
L 1779 1088 
L 1779 457 
C 1779 224 1766 160 1318 160 
L 1197 160 
L 1197 0 
C 1402 0 1747 0 1965 0 
C 2182 0 2528 0 2733 0 
L 2733 160 
L 2611 160 
C 2163 160 2150 224 2150 457 
L 2150 1088 
L 2803 1088 
L 2803 1254 
L 2150 1254 
L 2150 4122 
z
M 1798 3703 
L 1798 1254 
L 256 1254 
L 1798 3703 
z
" transform="scale(0.015625)"/>
       </defs>
       <use xlink:href="#CMR17-34" transform="scale(0.996264)"/>
       <use xlink:href="#CMR17-30" transform="translate(45.690477 0) scale(0.996264)"/>
       <use xlink:href="#CMR17-30" transform="translate(91.380954 0) scale(0.996264)"/>
      </g>
     </g>
    </g>
    <g id="xtick_4">
     <g id="line2d_4">
      <g>
       <use xlink:href="#mb1e3ffef82" x="242.936869" y="273.312" style="stroke: #000000; stroke-width: 0.8"/>
      </g>
     </g>
     <g id="text_4">
      <!-- $\mathdefault{600}$ -->
      <g transform="translate(235.464866 287.230498) scale(0.1 -0.1)">
       <defs>
        <path id="CMR17-36" d="M 678 2176 
C 678 3690 1395 4032 1811 4032 
C 1946 4032 2272 4009 2400 3776 
C 2298 3776 2106 3776 2106 3553 
C 2106 3381 2246 3323 2336 3323 
C 2394 3323 2566 3348 2566 3560 
C 2566 3954 2246 4179 1805 4179 
C 1043 4179 243 3390 243 1984 
C 243 253 966 -128 1478 -128 
C 2099 -128 2688 427 2688 1283 
C 2688 2081 2170 2662 1517 2662 
C 1126 2662 838 2407 678 1960 
L 678 2176 
z
M 1478 25 
C 691 25 691 1200 691 1436 
C 691 1896 909 2560 1504 2560 
C 1613 2560 1926 2560 2138 2120 
C 2253 1870 2253 1609 2253 1289 
C 2253 944 2253 690 2118 434 
C 1978 171 1773 25 1478 25 
z
" transform="scale(0.015625)"/>
       </defs>
       <use xlink:href="#CMR17-36" transform="scale(0.996264)"/>
       <use xlink:href="#CMR17-30" transform="translate(45.690477 0) scale(0.996264)"/>
       <use xlink:href="#CMR17-30" transform="translate(91.380954 0) scale(0.996264)"/>
      </g>
     </g>
    </g>
    <g id="xtick_5">
     <g id="line2d_5">
      <g>
       <use xlink:href="#mb1e3ffef82" x="307.867778" y="273.312" style="stroke: #000000; stroke-width: 0.8"/>
      </g>
     </g>
     <g id="text_5">
      <!-- $\mathdefault{800}$ -->
      <g transform="translate(300.395775 287.230498) scale(0.1 -0.1)">
       <defs>
        <path id="CMR17-38" d="M 1741 2264 
C 2144 2467 2554 2773 2554 3263 
C 2554 3841 1990 4179 1472 4179 
C 890 4179 378 3759 378 3180 
C 378 3021 416 2747 666 2505 
C 730 2442 998 2251 1171 2130 
C 883 1983 211 1634 211 934 
C 211 279 838 -128 1459 -128 
C 2144 -128 2720 362 2720 1010 
C 2720 1590 2330 1857 2074 2029 
L 1741 2264 
z
M 902 2822 
C 851 2854 595 3051 595 3351 
C 595 3739 998 4032 1459 4032 
C 1965 4032 2336 3676 2336 3262 
C 2336 2669 1670 2331 1638 2331 
C 1632 2331 1626 2331 1574 2370 
L 902 2822 
z
M 2080 1519 
C 2176 1449 2483 1240 2483 851 
C 2483 381 2010 25 1472 25 
C 890 25 448 438 448 940 
C 448 1443 838 1862 1280 2060 
L 2080 1519 
z
" transform="scale(0.015625)"/>
       </defs>
       <use xlink:href="#CMR17-38" transform="scale(0.996264)"/>
       <use xlink:href="#CMR17-30" transform="translate(45.690477 0) scale(0.996264)"/>
       <use xlink:href="#CMR17-30" transform="translate(91.380954 0) scale(0.996264)"/>
      </g>
     </g>
    </g>
    <g id="xtick_6">
     <g id="line2d_6">
      <g>
       <use xlink:href="#mb1e3ffef82" x="372.798687" y="273.312" style="stroke: #000000; stroke-width: 0.8"/>
      </g>
     </g>
     <g id="text_6">
      <!-- $\mathdefault{1000}$ -->
      <g transform="translate(362.836016 287.230498) scale(0.1 -0.1)">
       <defs>
        <path id="CMR17-31" d="M 1702 4058 
C 1702 4192 1696 4192 1606 4192 
C 1357 3916 979 3827 621 3827 
C 602 3827 570 3827 563 3808 
C 557 3795 557 3782 557 3648 
C 755 3648 1088 3686 1344 3839 
L 1344 461 
C 1344 236 1331 160 781 160 
L 589 160 
L 589 0 
C 896 0 1216 0 1523 0 
C 1830 0 2150 0 2458 0 
L 2458 160 
L 2266 160 
C 1715 160 1702 230 1702 458 
L 1702 4058 
z
" transform="scale(0.015625)"/>
       </defs>
       <use xlink:href="#CMR17-31" transform="scale(0.996264)"/>
       <use xlink:href="#CMR17-30" transform="translate(45.690477 0) scale(0.996264)"/>
       <use xlink:href="#CMR17-30" transform="translate(91.380954 0) scale(0.996264)"/>
       <use xlink:href="#CMR17-30" transform="translate(137.071431 0) scale(0.996264)"/>
      </g>
     </g>
    </g>
   </g>
   <g id="matplotlib.axis_2">
    <g id="ytick_1">
     <g id="line2d_7">
      <defs>
       <path id="m99e0e530e7" d="M 0 0 
L -3.5 0 
" style="stroke: #000000; stroke-width: 0.8"/>
      </defs>
      <g>
       <use xlink:href="#m99e0e530e7" x="31.911414" y="258.880041" style="stroke: #000000; stroke-width: 0.8"/>
      </g>
     </g>
     <g id="text_7">
      <!-- $\mathdefault{8.5}$ -->
      <g transform="translate(12.181335 262.33929) scale(0.1 -0.1)">
       <defs>
        <path id="CMMI12-3a" d="M 1178 307 
C 1178 492 1024 619 870 619 
C 685 619 557 466 557 313 
C 557 128 710 0 864 0 
C 1050 0 1178 153 1178 307 
z
" transform="scale(0.015625)"/>
        <path id="CMR17-35" d="M 730 3692 
C 794 3666 1056 3584 1325 3584 
C 1920 3584 2246 3911 2432 4100 
C 2432 4157 2432 4192 2394 4192 
C 2387 4192 2374 4192 2323 4163 
C 2099 4058 1837 3973 1517 3973 
C 1325 3973 1037 3999 723 4139 
C 653 4171 640 4171 634 4171 
C 602 4171 595 4164 595 4037 
L 595 2203 
C 595 2089 595 2057 659 2057 
C 691 2057 704 2070 736 2114 
C 941 2401 1222 2522 1542 2522 
C 1766 2522 2246 2382 2246 1289 
C 2246 1085 2246 715 2054 421 
C 1894 159 1645 25 1370 25 
C 947 25 518 320 403 814 
C 429 807 480 795 506 795 
C 589 795 749 840 749 1038 
C 749 1210 627 1280 506 1280 
C 358 1280 262 1190 262 1011 
C 262 454 704 -128 1382 -128 
C 2042 -128 2669 440 2669 1264 
C 2669 2030 2170 2624 1549 2624 
C 1222 2624 947 2503 730 2274 
L 730 3692 
z
" transform="scale(0.015625)"/>
       </defs>
       <use xlink:href="#CMR17-38" transform="scale(0.996264)"/>
       <use xlink:href="#CMMI12-3a" transform="translate(45.690477 0) scale(0.996264)"/>
       <use xlink:href="#CMR17-35" transform="translate(72.787654 0) scale(0.996264)"/>
      </g>
     </g>
    </g>
    <g id="ytick_2">
     <g id="line2d_8">
      <g>
       <use xlink:href="#m99e0e530e7" x="31.911414" y="207.279258" style="stroke: #000000; stroke-width: 0.8"/>
      </g>
     </g>
     <g id="text_8">
      <!-- $\mathdefault{9.0}$ -->
      <g transform="translate(12.181335 210.738508) scale(0.1 -0.1)">
       <defs>
        <path id="CMR17-39" d="M 2253 1864 
C 2253 464 1670 31 1190 31 
C 1043 31 685 31 538 294 
C 704 268 826 357 826 518 
C 826 692 685 749 595 749 
C 538 749 365 723 365 506 
C 365 71 742 -128 1203 -128 
C 1939 -128 2688 674 2688 2073 
C 2688 3817 1971 4179 1485 4179 
C 851 4179 243 3628 243 2778 
C 243 1991 762 1408 1414 1408 
C 1952 1408 2189 1903 2253 2112 
L 2253 1864 
z
M 1427 1510 
C 1254 1510 1011 1542 813 1922 
C 678 2169 678 2461 678 2771 
C 678 3146 678 3405 858 3684 
C 947 3817 1114 4032 1485 4032 
C 2240 4032 2240 2885 2240 2632 
C 2240 2182 2035 1510 1427 1510 
z
" transform="scale(0.015625)"/>
       </defs>
       <use xlink:href="#CMR17-39" transform="scale(0.996264)"/>
       <use xlink:href="#CMMI12-3a" transform="translate(45.690477 0) scale(0.996264)"/>
       <use xlink:href="#CMR17-30" transform="translate(72.787654 0) scale(0.996264)"/>
      </g>
     </g>
    </g>
    <g id="ytick_3">
     <g id="line2d_9">
      <g>
       <use xlink:href="#m99e0e530e7" x="31.911414" y="155.678476" style="stroke: #000000; stroke-width: 0.8"/>
      </g>
     </g>
     <g id="text_9">
      <!-- $\mathdefault{9.5}$ -->
      <g transform="translate(12.181335 159.137725) scale(0.1 -0.1)">
       <use xlink:href="#CMR17-39" transform="scale(0.996264)"/>
       <use xlink:href="#CMMI12-3a" transform="translate(45.690477 0) scale(0.996264)"/>
       <use xlink:href="#CMR17-35" transform="translate(72.787654 0) scale(0.996264)"/>
      </g>
     </g>
    </g>
    <g id="ytick_4">
     <g id="line2d_10">
      <g>
       <use xlink:href="#m99e0e530e7" x="31.911414" y="104.077693" style="stroke: #000000; stroke-width: 0.8"/>
      </g>
     </g>
     <g id="text_10">
      <!-- $\mathdefault{10.0}$ -->
      <g transform="translate(7.2 107.536942) scale(0.1 -0.1)">
       <use xlink:href="#CMR17-31" transform="scale(0.996264)"/>
       <use xlink:href="#CMR17-30" transform="translate(45.690477 0) scale(0.996264)"/>
       <use xlink:href="#CMMI12-3a" transform="translate(91.380954 0) scale(0.996264)"/>
       <use xlink:href="#CMR17-30" transform="translate(118.478131 0) scale(0.996264)"/>
      </g>
     </g>
    </g>
    <g id="ytick_5">
     <g id="line2d_11">
      <g>
       <use xlink:href="#m99e0e530e7" x="31.911414" y="52.476911" style="stroke: #000000; stroke-width: 0.8"/>
      </g>
     </g>
     <g id="text_11">
      <!-- $\mathdefault{10.5}$ -->
      <g transform="translate(7.2 55.93616) scale(0.1 -0.1)">
       <use xlink:href="#CMR17-31" transform="scale(0.996264)"/>
       <use xlink:href="#CMR17-30" transform="translate(45.690477 0) scale(0.996264)"/>
       <use xlink:href="#CMMI12-3a" transform="translate(91.380954 0) scale(0.996264)"/>
       <use xlink:href="#CMR17-35" transform="translate(118.478131 0) scale(0.996264)"/>
      </g>
     </g>
    </g>
   </g>
   <g id="line2d_12">
    <path d="M 48.144142 72.971326 
L 48.468796 57.638062 
L 48.793451 52.709383 
L 49.118105 53.276218 
L 49.767414 60.016296 
L 50.092069 60.328993 
L 50.416723 65.572553 
L 50.741378 77.337817 
L 51.066032 77.666881 
L 51.390687 87.014387 
L 51.715342 81.054285 
L 52.039996 83.512234 
L 52.689305 76.306793 
L 53.01396 69.039019 
L 53.338614 77.708904 
L 53.663269 76.097284 
L 53.987923 76.251768 
L 54.312578 82.506198 
L 54.637232 82.768715 
L 54.961887 87.664259 
L 55.286542 83.703779 
L 55.611196 86.866717 
L 55.935851 86.334894 
L 56.260505 94.676035 
L 56.58516 95.304954 
L 56.909814 90.988293 
L 57.234469 95.853008 
L 57.559123 89.780449 
L 57.883778 79.382587 
L 58.208432 76.040359 
L 58.533087 79.942194 
L 58.857742 71.725164 
L 59.507051 78.347572 
L 59.831705 78.443984 
L 60.15636 76.725109 
L 60.481014 84.149925 
L 61.130323 73.555683 
L 61.454978 74.415143 
L 61.779632 76.213391 
L 62.104287 72.352057 
L 62.428942 70.210508 
L 62.753596 77.063066 
L 63.078251 79.737437 
L 63.72756 73.533116 
L 64.052214 82.70135 
L 64.376869 83.041469 
L 64.701523 85.017944 
L 65.026178 91.997261 
L 65.350832 89.953691 
L 65.675487 94.850136 
L 66.000142 87.139338 
L 66.324796 87.981097 
L 66.649451 93.897942 
L 66.974105 93.055814 
L 67.29876 101.838275 
L 67.623414 102.632191 
L 67.948069 99.9161 
L 68.272723 105.047028 
L 68.597378 98.254925 
L 68.922032 100.43606 
L 69.246687 108.686703 
L 69.571342 110.481752 
L 69.895996 109.415983 
L 70.220651 109.442965 
L 70.545305 111.563988 
L 70.86996 109.275193 
L 71.194614 102.428525 
L 71.519269 102.647347 
L 71.843923 107.743767 
L 72.168578 108.906109 
L 72.817887 113.729748 
L 73.142542 115.047763 
L 73.467196 118.017564 
L 74.116505 128.938551 
L 74.44116 123.060508 
L 74.765814 127.237462 
L 75.090469 128.66556 
L 75.415123 131.846523 
L 75.739778 127.137413 
L 76.064432 119.305221 
L 76.389087 116.394498 
L 76.713742 116.322211 
L 77.038396 119.859477 
L 77.363051 121.197776 
L 77.687705 114.380204 
L 78.01236 110.742692 
L 78.337014 111.984344 
L 78.661669 100.422862 
L 78.986323 105.857463 
L 79.310978 116.225562 
L 79.960287 111.315496 
L 80.284942 113.759818 
L 80.609596 110.026047 
L 80.934251 112.509557 
L 81.258905 116.423043 
L 81.58356 107.265221 
L 81.908214 108.78944 
L 82.557523 96.279884 
L 82.882178 98.792134 
L 83.206832 95.320775 
L 83.531487 98.989531 
L 83.856142 94.887497 
L 84.180796 95.557184 
L 84.505451 104.811818 
L 84.830105 99.265436 
L 85.15476 100.483204 
L 85.479414 96.787655 
L 85.804069 94.949964 
L 86.453378 102.453879 
L 86.778032 104.289579 
L 87.102687 97.645963 
L 87.427342 97.266531 
L 87.751996 92.787888 
L 88.076651 92.817352 
L 88.72596 102.841172 
L 89.050614 96.791661 
L 90.024578 91.335874 
L 90.349232 95.065834 
L 90.673887 89.410141 
L 90.998542 91.827479 
L 91.323196 83.914313 
L 91.647851 92.345121 
L 91.972505 90.79978 
L 92.29716 91.095721 
L 92.946469 82.008129 
L 93.271123 91.641093 
L 93.595778 78.171258 
L 93.920432 80.995228 
L 94.569742 91.736789 
L 94.894396 85.323296 
L 95.219051 82.187488 
L 95.543705 82.433842 
L 95.86836 79.379711 
L 96.193014 79.084049 
L 96.517669 67.792593 
L 96.842323 76.320405 
L 97.166978 79.488747 
L 97.491632 77.762233 
L 97.816287 76.669753 
L 98.140942 73.163216 
L 98.465596 76.73296 
L 98.790251 79.064616 
L 99.43956 69.3693 
L 99.764214 73.045527 
L 100.088869 66.647677 
L 100.413523 66.929603 
L 100.738178 65.161889 
L 101.062832 71.437354 
L 101.387487 70.347265 
L 101.712142 73.937316 
L 102.036796 81.906964 
L 102.361451 82.763941 
L 102.686105 72.873073 
L 103.01076 69.552769 
L 103.335414 79.551035 
L 103.660069 79.953292 
L 103.984723 91.407837 
L 104.309378 89.207922 
L 104.634032 78.570741 
L 104.958687 85.381367 
L 105.283342 76.703888 
L 105.607996 83.211043 
L 105.932651 80.948842 
L 106.58196 96.80468 
L 106.906614 93.223548 
L 107.231269 102.770286 
L 107.555923 94.660976 
L 107.880578 95.920741 
L 108.205232 98.654664 
L 108.529887 97.563494 
L 109.179196 107.446527 
L 109.503851 96.458518 
L 109.828505 102.571045 
L 110.15316 100.892637 
L 110.477814 100.902055 
L 110.802469 100.488114 
L 111.127123 105.680603 
L 111.451778 104.041222 
L 111.776432 99.100874 
L 112.101087 101.473168 
L 112.425742 96.847112 
L 113.399705 108.484498 
L 113.72436 115.543484 
L 114.049014 110.971321 
L 114.698323 108.654728 
L 115.022978 108.880603 
L 115.347632 100.652954 
L 115.672287 101.92291 
L 115.996942 102.688986 
L 116.646251 97.985048 
L 116.970905 97.845187 
L 117.29556 102.162909 
L 117.620214 103.333262 
L 117.944869 101.555733 
L 118.269523 102.189569 
L 118.594178 101.935135 
L 118.918832 108.560319 
L 119.243487 112.14028 
L 119.568142 113.85487 
L 119.892796 114.108187 
L 120.217451 117.977243 
L 120.542105 116.732521 
L 120.86676 111.220913 
L 121.191414 114.379855 
L 121.516069 122.726355 
L 121.840723 123.803249 
L 122.165378 122.229544 
L 122.490032 124.103768 
L 122.814687 132.985247 
L 123.139342 132.328639 
L 123.463996 133.261743 
L 123.788651 137.32459 
L 124.113305 142.884132 
L 124.43796 140.739694 
L 124.762614 147.58553 
L 125.087269 145.378282 
L 125.411923 145.585458 
L 125.736578 146.431716 
L 126.061232 141.903139 
L 126.385887 139.732969 
L 126.710542 139.10405 
L 127.035196 137.884526 
L 127.359851 144.323757 
L 127.684505 147.023451 
L 128.333814 138.981578 
L 128.658469 139.938633 
L 129.307778 152.296643 
L 129.632432 153.711265 
L 129.957087 153.081309 
L 130.281742 153.574283 
L 130.606396 152.453726 
L 130.931051 145.146254 
L 131.255705 144.326007 
L 131.58036 146.475421 
L 131.905014 151.905693 
L 132.229669 153.86751 
L 132.554323 157.074427 
L 133.203632 151.090894 
L 133.528287 148.749659 
L 133.852942 149.393102 
L 134.177596 151.215217 
L 134.502251 153.917854 
L 134.826905 149.620676 
L 135.15156 156.122875 
L 135.476214 152.930058 
L 135.800869 156.475304 
L 136.125523 155.934999 
L 136.450178 161.254514 
L 136.774832 158.081524 
L 137.099487 161.084212 
L 137.424142 150.2858 
L 138.398105 147.429947 
L 138.72276 149.151196 
L 139.047414 146.511616 
L 139.372069 133.809816 
L 139.696723 136.50215 
L 140.021378 140.59959 
L 140.995342 147.973835 
L 141.319996 146.962488 
L 141.644651 144.745461 
L 141.969305 145.99844 
L 142.29396 146.695595 
L 143.267923 160.613897 
L 143.592578 172.457421 
L 143.917232 167.945447 
L 144.241887 166.948945 
L 144.566542 168.168387 
L 144.891196 167.517829 
L 145.215851 161.040597 
L 145.540505 162.621129 
L 145.86516 162.943883 
L 146.189814 163.70915 
L 146.514469 150.86356 
L 146.839123 151.030991 
L 147.163778 152.722461 
L 147.488432 147.543325 
L 147.813087 138.951497 
L 148.137742 142.745331 
L 148.462396 144.42843 
L 148.787051 146.990827 
L 149.111705 147.54939 
L 149.43636 150.417433 
L 149.761014 146.932913 
L 150.085669 140.414739 
L 150.410323 142.921915 
L 150.734978 147.306958 
L 151.059632 144.982537 
L 151.384287 151.491416 
L 151.708942 151.142613 
L 152.033596 151.678848 
L 152.358251 160.895331 
L 152.682905 157.730248 
L 153.00756 160.157405 
L 153.332214 158.181729 
L 153.656869 167.354472 
L 153.981523 165.018319 
L 154.306178 167.309671 
L 154.630832 161.820751 
L 154.955487 164.585656 
L 155.280142 176.281309 
L 155.929451 166.041685 
L 156.254105 165.309317 
L 156.57876 163.293653 
L 156.903414 162.401454 
L 157.228069 161.886722 
L 157.552723 156.294083 
L 157.877378 153.98572 
L 158.526687 161.80879 
L 158.851342 164.219323 
L 159.500651 176.053373 
L 159.825305 172.016146 
L 160.14996 172.928005 
L 160.474614 177.794624 
L 160.799269 174.855265 
L 161.123923 176.590508 
L 161.448578 179.977658 
L 161.773232 176.585598 
L 162.097887 171.428381 
L 162.422542 164.017539 
L 162.747196 160.174681 
L 163.071851 157.911375 
L 163.396505 152.693758 
L 163.72116 162.96377 
L 164.045814 166.798722 
L 164.370469 175.065796 
L 164.695123 176.001317 
L 165.019778 176.029459 
L 165.669087 182.066228 
L 165.993742 174.612672 
L 166.318396 171.962235 
L 166.643051 172.338751 
L 166.967705 175.306517 
L 167.29236 176.086751 
L 167.617014 178.44809 
L 167.941669 192.166777 
L 168.590978 188.668456 
L 168.915632 195.740267 
L 169.240287 185.700428 
L 169.564942 186.128703 
L 169.889596 189.881777 
L 170.214251 187.295256 
L 170.538905 193.716754 
L 170.86356 188.978586 
L 171.188214 180.321685 
L 171.512869 186.696173 
L 172.486832 170.262158 
L 172.811487 173.170469 
L 173.136142 162.429667 
L 173.460796 163.170803 
L 173.785451 154.283848 
L 174.110105 155.79737 
L 174.43476 160.762713 
L 174.759414 161.956919 
L 175.084069 167.809396 
L 175.408723 158.141511 
L 176.058032 161.29466 
L 176.382687 165.020034 
L 176.707342 174.319537 
L 177.031996 162.838685 
L 177.356651 177.656118 
L 177.681305 178.2539 
L 178.00596 170.142049 
L 178.330614 179.959276 
L 178.655269 178.400672 
L 178.979923 179.233394 
L 179.304578 181.740453 
L 179.629232 181.076719 
L 179.953887 185.096423 
L 180.278542 182.13542 
L 180.603196 177.663973 
L 180.927851 176.374043 
L 181.252505 169.715203 
L 181.57716 165.430217 
L 181.901814 165.964499 
L 182.226469 164.158296 
L 182.551123 165.547051 
L 182.875778 172.145738 
L 183.200432 167.031695 
L 183.525087 165.327039 
L 183.849742 177.446294 
L 184.174396 171.010174 
L 184.499051 174.436308 
L 184.823705 175.987742 
L 185.14836 174.955458 
L 185.473014 172.413674 
L 185.797669 177.93795 
L 186.122323 178.783673 
L 186.446978 183.412475 
L 186.771632 185.690123 
L 187.096287 191.186122 
L 187.745596 190.630219 
L 188.070251 195.272705 
L 188.71956 189.436755 
L 189.044214 189.726209 
L 189.368869 190.793696 
L 189.693523 187.826355 
L 190.018178 194.165207 
L 190.342832 192.039688 
L 190.667487 197.496434 
L 190.992142 184.374801 
L 191.316796 185.732332 
L 191.641451 191.187112 
L 191.966105 190.27409 
L 192.29076 188.132913 
L 192.615414 199.337101 
L 192.940069 204.296614 
L 193.264723 204.204988 
L 193.589378 205.694341 
L 193.914032 212.163308 
L 194.238687 209.226289 
L 194.563342 201.136306 
L 194.887996 204.347347 
L 195.212651 200.521597 
L 195.537305 199.998029 
L 195.86196 204.628192 
L 196.186614 196.450768 
L 196.511269 198.955844 
L 196.835923 198.865572 
L 197.485232 195.640882 
L 198.134542 187.1315 
L 198.459196 189.52301 
L 198.783851 188.112067 
L 199.108505 189.939701 
L 199.43316 194.04162 
L 199.757814 195.919824 
L 200.082469 195.186155 
L 200.407123 201.809203 
L 201.056432 191.950567 
L 201.705742 185.788623 
L 202.030396 186.799818 
L 202.355051 179.977604 
L 202.679705 184.992874 
L 203.00436 178.955787 
L 203.329014 178.860912 
L 203.653669 180.583028 
L 203.978323 185.17254 
L 204.302978 191.59353 
L 204.627632 190.841712 
L 204.952287 187.361241 
L 205.276942 197.785164 
L 205.601596 190.472395 
L 205.926251 192.567232 
L 206.250905 204.32949 
L 206.57556 202.731475 
L 206.900214 213.114246 
L 207.224869 217.644646 
L 208.198832 199.714198 
L 208.523487 208.575564 
L 208.848142 199.156888 
L 209.172796 204.258599 
L 209.497451 201.014128 
L 209.822105 192.541865 
L 210.471414 200.357102 
L 210.796069 198.130137 
L 211.120723 198.032129 
L 211.770032 199.549213 
L 212.094687 201.898375 
L 212.419342 213.642773 
L 212.743996 212.378378 
L 213.068651 212.951974 
L 213.393305 215.659243 
L 213.71796 213.358955 
L 214.042614 216.102294 
L 214.367269 220.358504 
L 214.691923 215.7675 
L 215.016578 214.385079 
L 215.341232 215.240965 
L 215.665887 214.368629 
L 215.990542 211.397179 
L 216.315196 218.307964 
L 216.964505 201.305867 
L 217.28916 200.615473 
L 217.613814 193.184242 
L 217.938469 196.808898 
L 218.263123 188.705896 
L 218.587778 184.436986 
L 219.237087 200.048762 
L 219.561742 195.793551 
L 219.886396 200.287044 
L 220.211051 199.546371 
L 220.535705 206.37205 
L 220.86036 204.639152 
L 221.185014 209.385083 
L 221.509669 217.079409 
L 221.834323 218.585798 
L 222.158978 204.441524 
L 222.483632 209.378624 
L 222.808287 202.356474 
L 223.132942 202.946782 
L 223.457596 202.995998 
L 223.782251 188.368239 
L 224.106905 182.993417 
L 224.43156 190.082935 
L 224.756214 189.289861 
L 225.080869 193.920627 
L 225.405523 196.836224 
L 225.730178 205.124483 
L 226.054832 197.864979 
L 226.379487 197.427724 
L 226.704142 206.719233 
L 227.028796 209.807929 
L 227.353451 203.450949 
L 227.678105 201.510357 
L 228.00276 190.24171 
L 228.327414 198.652862 
L 228.652069 193.835592 
L 228.976723 193.881097 
L 229.301378 199.530525 
L 229.626032 196.365098 
L 229.950687 198.06047 
L 230.275342 194.868957 
L 230.599996 196.708303 
L 230.924651 186.557821 
L 231.249305 194.623176 
L 231.57396 198.40102 
L 231.898614 197.110602 
L 232.223269 194.608604 
L 232.547923 190.111153 
L 232.872578 189.106152 
L 233.197232 189.107782 
L 233.521887 185.169217 
L 233.846542 189.351449 
L 234.171196 190.839036 
L 234.495851 182.669001 
L 234.820505 180.724969 
L 235.14516 183.896018 
L 235.469814 190.341455 
L 235.794469 193.817822 
L 236.119123 179.073499 
L 236.443778 182.053907 
L 236.768432 175.842714 
L 237.093087 174.803965 
L 237.417742 175.104792 
L 238.067051 190.937503 
L 238.391705 191.282019 
L 238.71636 187.18311 
L 239.041014 190.136222 
L 239.690323 199.494449 
L 240.014978 198.505244 
L 240.339632 193.794803 
L 240.664287 198.044758 
L 240.988942 192.217895 
L 241.638251 185.399484 
L 241.962905 189.784583 
L 242.28756 197.256012 
L 242.612214 209.48666 
L 242.936869 203.445266 
L 243.261523 194.003682 
L 243.586178 196.469689 
L 243.910832 197.653107 
L 244.235487 204.767079 
L 244.560142 207.026259 
L 244.884796 207.750855 
L 245.209451 207.183442 
L 245.85876 198.89004 
L 246.183414 192.864743 
L 246.508069 196.824285 
L 247.157378 191.757664 
L 247.482032 192.750862 
L 247.806687 189.582478 
L 248.131342 196.564412 
L 248.455996 190.067161 
L 248.780651 186.599909 
L 249.42996 199.775135 
L 250.079269 207.898039 
L 250.403923 196.08839 
L 250.728578 206.811587 
L 251.377887 192.546754 
L 251.702542 191.783766 
L 252.027196 194.397109 
L 252.351851 192.263025 
L 252.676505 188.633395 
L 253.325814 192.762562 
L 253.650469 183.118402 
L 253.975123 181.612776 
L 254.624432 170.164868 
L 254.949087 174.601835 
L 255.273742 175.934815 
L 255.598396 186.863955 
L 255.923051 189.556977 
L 256.247705 190.397854 
L 256.57236 194.826219 
L 256.897014 191.52832 
L 257.221669 193.059292 
L 257.546323 189.362541 
L 257.870978 190.855295 
L 258.195632 193.34934 
L 258.520287 192.177777 
L 259.169596 197.92732 
L 259.494251 199.303172 
L 259.818905 194.424775 
L 260.14356 197.167946 
L 260.468214 197.150286 
L 261.117523 189.504744 
L 261.442178 194.328841 
L 261.766832 187.164869 
L 262.091487 189.834733 
L 262.416142 188.583608 
L 262.740796 190.581166 
L 263.065451 181.830709 
L 263.390105 180.578201 
L 263.71476 178.307156 
L 264.039414 183.625173 
L 264.364069 179.892403 
L 264.688723 187.113934 
L 265.013378 184.515411 
L 265.662687 173.648509 
L 265.987342 172.81731 
L 266.311996 174.728898 
L 266.636651 186.282864 
L 267.610614 178.893354 
L 267.935269 180.350302 
L 268.259923 181.211389 
L 268.584578 181.605129 
L 268.909232 186.682823 
L 269.233887 185.517332 
L 269.558542 192.892369 
L 269.883196 190.185874 
L 270.207851 190.705534 
L 270.532505 192.007461 
L 270.85716 187.344021 
L 271.181814 193.688668 
L 271.506469 188.624427 
L 271.831123 186.032954 
L 272.155778 181.728959 
L 272.480432 188.501397 
L 272.805087 190.239558 
L 273.454396 170.555413 
L 273.779051 167.505808 
L 274.103705 168.083123 
L 274.42836 176.098626 
L 275.077669 160.153873 
L 275.402323 163.17471 
L 275.726978 161.715252 
L 276.376287 174.538562 
L 276.700942 173.240377 
L 277.025596 186.104409 
L 277.350251 179.527364 
L 277.674905 180.660034 
L 277.99956 176.047136 
L 278.324214 182.1928 
L 278.648869 184.058152 
L 278.973523 182.441068 
L 279.298178 187.054067 
L 279.622832 189.610032 
L 279.947487 184.745833 
L 280.272142 183.563326 
L 280.596796 182.941446 
L 280.921451 183.169436 
L 281.246105 187.801712 
L 281.57076 187.875479 
L 281.895414 189.458871 
L 282.220069 186.790878 
L 282.544723 188.420302 
L 282.869378 200.884379 
L 283.194032 189.146637 
L 283.518687 193.350691 
L 283.843342 199.67063 
L 284.167996 195.654133 
L 284.492651 196.413932 
L 284.817305 194.106518 
L 285.14196 195.146651 
L 285.466614 194.733692 
L 285.791269 194.062329 
L 286.115923 200.731926 
L 286.440578 196.057875 
L 286.765232 202.005512 
L 287.089887 199.518195 
L 287.414542 196.105414 
L 287.739196 194.972397 
L 288.063851 193.159417 
L 288.388505 192.633663 
L 288.71316 198.152543 
L 289.037814 199.553715 
L 289.362469 199.616293 
L 289.687123 202.322308 
L 290.011778 203.693181 
L 290.661087 209.243813 
L 291.310396 229.304519 
L 291.635051 227.354353 
L 292.28436 213.861063 
L 292.609014 211.088052 
L 292.933669 222.705083 
L 293.258323 220.682031 
L 293.582978 217.540376 
L 293.907632 208.601676 
L 294.232287 204.030181 
L 294.556942 203.351079 
L 294.881596 213.433247 
L 295.206251 212.319604 
L 295.530905 203.605674 
L 295.85556 207.96785 
L 296.180214 203.641765 
L 296.504869 207.143755 
L 296.829523 205.684357 
L 297.154178 215.229588 
L 297.478832 210.820555 
L 297.803487 211.624035 
L 298.128142 217.330675 
L 298.777451 214.441433 
L 299.102105 208.235238 
L 299.42676 212.637366 
L 299.751414 201.463766 
L 300.076069 195.804142 
L 300.400723 202.20263 
L 300.725378 193.564484 
L 301.050032 188.30378 
L 301.374687 185.02332 
L 301.699342 188.490579 
L 302.023996 199.227856 
L 302.348651 194.644955 
L 302.673305 199.688443 
L 302.99796 197.757911 
L 303.322614 198.946708 
L 303.647269 194.404172 
L 303.971923 206.559499 
L 304.621232 202.303016 
L 304.945887 197.5194 
L 305.270542 208.183205 
L 305.595196 203.925811 
L 305.919851 208.39468 
L 306.244505 203.858253 
L 306.56916 205.634184 
L 307.218469 210.950503 
L 307.543123 218.018513 
L 307.867778 211.391656 
L 308.517087 224.432234 
L 308.841742 216.192075 
L 309.166396 222.259508 
L 309.491051 220.344057 
L 309.815705 223.993101 
L 310.14036 208.648549 
L 310.465014 205.562938 
L 310.789669 206.403613 
L 311.114323 206.908505 
L 311.438978 201.386744 
L 312.088287 187.328356 
L 312.412942 189.973449 
L 313.062251 200.413568 
L 313.386905 201.918853 
L 313.71156 204.818542 
L 314.036214 195.617223 
L 314.360869 198.311745 
L 314.685523 189.455157 
L 315.334832 190.511258 
L 315.659487 187.574301 
L 315.984142 197.490416 
L 316.308796 199.400864 
L 316.633451 204.361095 
L 316.958105 204.824073 
L 317.28276 212.199381 
L 317.607414 207.272142 
L 317.932069 195.985947 
L 318.256723 203.244744 
L 318.581378 198.815286 
L 318.906032 186.63517 
L 319.230687 188.251743 
L 319.555342 202.106878 
L 319.879996 188.030956 
L 320.204651 183.760113 
L 320.529305 183.750448 
L 320.85396 186.69928 
L 321.178614 182.118472 
L 321.503269 183.246542 
L 321.827923 184.935351 
L 322.152578 184.321593 
L 322.801887 172.538828 
L 323.126542 172.338319 
L 323.451196 181.174212 
L 323.775851 177.608553 
L 324.100505 185.105388 
L 324.42516 188.859458 
L 324.749814 180.133578 
L 325.074469 179.708958 
L 325.399123 179.573556 
L 325.723778 180.185423 
L 326.048432 186.824328 
L 326.373087 186.300566 
L 326.697742 178.028138 
L 327.347051 196.224367 
L 327.671705 207.186682 
L 327.99636 193.882923 
L 328.321014 196.627338 
L 328.645669 201.723271 
L 328.970323 200.490879 
L 329.294978 192.734056 
L 329.619632 188.153988 
L 329.944287 193.184215 
L 330.268942 192.212768 
L 330.593596 192.766749 
L 331.242905 210.715789 
L 331.56756 212.45597 
L 332.216869 207.581454 
L 332.866178 203.874756 
L 333.190832 195.240694 
L 333.515487 197.683007 
L 333.840142 195.870482 
L 334.164796 200.033302 
L 334.489451 205.807205 
L 334.814105 205.711852 
L 335.13876 214.223295 
L 335.463414 212.547914 
L 335.788069 211.725614 
L 336.112723 205.250058 
L 336.437378 204.908291 
L 336.762032 204.398428 
L 337.086687 208.674126 
L 337.411342 209.034601 
L 337.735996 211.70366 
L 338.060651 218.031114 
L 338.385305 221.760504 
L 338.70996 229.786442 
L 339.034614 225.935755 
L 339.359269 237.143159 
L 339.683923 224.622402 
L 340.008578 221.813403 
L 340.333232 237.848268 
L 340.657887 236.324158 
L 341.307196 236.527428 
L 341.631851 247.161407 
L 341.956505 244.086839 
L 342.28116 253.618562 
L 342.605814 258.2351 
L 342.930469 261.216 
L 343.255123 260.279327 
L 343.579778 255.006365 
L 343.904432 252.429337 
L 344.229087 246.355407 
L 344.553742 246.806328 
L 344.878396 242.884931 
L 345.203051 242.035571 
L 345.527705 246.344667 
L 346.177014 250.262435 
L 346.501669 246.54155 
L 347.150978 251.395192 
L 347.475632 242.588833 
L 347.800287 240.098283 
L 348.124942 242.036649 
L 348.449596 229.402547 
L 348.774251 246.14262 
L 349.098905 242.775144 
L 349.42356 240.659565 
L 349.748214 224.889777 
L 350.397523 232.874532 
L 350.722178 237.768058 
L 351.046832 228.891623 
L 351.371487 229.271736 
L 352.020796 209.336815 
L 352.345451 202.715314 
L 352.670105 202.133766 
L 352.99476 197.681723 
L 353.319414 198.745073 
L 353.968723 191.93796 
L 354.293378 197.506856 
L 354.618032 192.240566 
L 354.942687 189.749055 
L 355.267342 186.39411 
L 355.591996 188.068148 
L 355.916651 181.907561 
L 356.56596 174.161471 
L 356.890614 174.65454 
L 357.215269 168.720457 
L 357.539923 173.34737 
L 357.864578 165.553815 
L 358.189232 174.067332 
L 358.513887 170.521767 
L 358.838542 171.929831 
L 359.163196 179.810878 
L 359.487851 180.518793 
L 359.812505 172.199126 
L 360.13716 181.452513 
L 360.461814 183.764663 
L 360.786469 189.937885 
L 361.111123 187.082896 
L 361.435778 188.930529 
L 361.760432 178.033758 
L 362.085087 179.122864 
L 362.409742 182.440537 
L 362.734396 181.883823 
L 363.059051 176.847465 
L 363.383705 178.00201 
L 364.033014 186.495661 
L 364.357669 180.403934 
L 364.682323 186.67444 
L 365.006978 185.273396 
L 365.656287 190.656025 
L 365.980942 182.499378 
L 366.305596 184.297011 
L 366.630251 189.416979 
L 366.954905 186.874933 
L 367.27956 186.18258 
L 367.604214 179.348972 
L 367.928869 182.961945 
L 368.253523 172.508424 
L 368.578178 173.822688 
L 368.902832 173.008746 
L 369.227487 169.964162 
L 369.552142 170.113369 
L 369.876796 174.388319 
L 370.201451 165.78179 
L 370.526105 167.891979 
L 370.85076 165.84957 
L 371.824723 176.22873 
L 372.149378 170.067449 
L 372.474032 168.869229 
L 372.798687 171.147967 
L 372.798687 171.147967 
" clip-path="url(#p0a3782299c)" style="fill: none; stroke: #e46e56; stroke-width: 1.5; stroke-linecap: square"/>
   </g>
   <g id="line2d_13">
    <path d="M 48.144142 79.273229 
L 48.468796 72.023646 
L 48.793451 72.901477 
L 49.118105 69.19674 
L 49.44276 56.343208 
L 50.092069 70.220268 
L 50.416723 66.803473 
L 50.741378 72.060037 
L 51.066032 71.054325 
L 51.390687 70.728991 
L 51.715342 78.625502 
L 52.039996 68.409987 
L 52.364651 78.441721 
L 52.689305 70.964061 
L 53.01396 73.517416 
L 53.338614 73.222729 
L 53.663269 69.197965 
L 53.987923 77.189372 
L 54.312578 66.16505 
L 54.637232 73.50184 
L 54.961887 71.999137 
L 55.286542 79.091521 
L 55.611196 66.55566 
L 55.935851 62.885169 
L 56.260505 55.885733 
L 56.58516 67.187331 
L 56.909814 63.581908 
L 57.234469 63.19473 
L 57.559123 64.656081 
L 57.883778 65.535703 
L 58.208432 65.653365 
L 58.533087 66.2499 
L 58.857742 63.915852 
L 59.182396 63.501253 
L 59.507051 59.623673 
L 59.831705 66.941109 
L 60.15636 64.587408 
L 60.481014 66.816732 
L 61.130323 57.067729 
L 61.454978 58.24929 
L 61.779632 66.955561 
L 62.104287 68.460512 
L 62.753596 74.1354 
L 63.078251 75.030367 
L 63.402905 76.886484 
L 63.72756 75.63385 
L 64.052214 66.966039 
L 64.376869 76.362065 
L 64.701523 68.128855 
L 65.026178 75.015089 
L 65.350832 75.659931 
L 66.000142 97.129318 
L 66.324796 97.162965 
L 66.649451 105.346208 
L 66.974105 102.147501 
L 67.29876 106.457897 
L 67.948069 94.158855 
L 68.272723 96.271747 
L 68.597378 94.745462 
L 68.922032 96.908268 
L 69.246687 97.009667 
L 69.571342 87.920428 
L 69.895996 90.478483 
L 70.220651 90.13302 
L 70.545305 85.911335 
L 70.86996 89.373689 
L 71.194614 96.440975 
L 71.519269 93.295497 
L 72.168578 99.45907 
L 72.493232 101.623279 
L 72.817887 106.898832 
L 73.467196 101.506401 
L 73.791851 90.993731 
L 74.116505 87.333969 
L 74.44116 76.959944 
L 75.090469 68.640035 
L 75.415123 68.23167 
L 75.739778 66.993607 
L 76.064432 72.226429 
L 76.389087 59.987441 
L 76.713742 70.293219 
L 77.038396 67.467302 
L 77.687705 77.463914 
L 78.01236 71.388224 
L 78.337014 71.684557 
L 78.661669 69.128476 
L 78.986323 74.601593 
L 79.310978 69.960174 
L 79.635632 67.543325 
L 79.960287 62.690223 
L 80.284942 47.301019 
L 80.609596 51.009158 
L 80.934251 62.745458 
L 81.258905 60.777165 
L 81.58356 69.705465 
L 82.232869 52.592087 
L 82.882178 67.282307 
L 83.531487 77.278718 
L 83.856142 89.158211 
L 84.180796 86.382365 
L 84.830105 76.232636 
L 85.15476 69.772775 
L 85.804069 78.889555 
L 86.128723 82.51151 
L 86.453378 75.980553 
L 87.102687 79.48663 
L 87.751996 101.313824 
L 88.076651 96.539262 
L 88.401305 86.876481 
L 88.72596 97.222802 
L 89.375269 81.873677 
L 90.024578 73.462577 
L 90.349232 72.832456 
L 90.673887 67.718993 
L 90.998542 68.10547 
L 91.647851 61.019553 
L 91.972505 72.340583 
L 92.29716 59.220009 
L 92.621814 57.247024 
L 92.946469 65.590246 
L 93.271123 69.201575 
L 93.595778 82.050144 
L 94.245087 94.39027 
L 94.569742 93.085334 
L 94.894396 96.531006 
L 95.219051 104.252379 
L 95.543705 106.745655 
L 95.86836 97.709948 
L 96.193014 97.643232 
L 96.517669 85.48681 
L 96.842323 84.271662 
L 97.166978 80.866852 
L 97.491632 83.843544 
L 97.816287 96.029492 
L 98.465596 85.759181 
L 98.790251 92.807477 
L 99.114905 95.242526 
L 99.43956 92.201173 
L 99.764214 90.608977 
L 100.088869 92.944084 
L 100.413523 91.462606 
L 100.738178 92.250058 
L 101.062832 89.665377 
L 101.387487 89.499241 
L 101.712142 91.561759 
L 102.361451 103.612762 
L 102.686105 100.816518 
L 103.01076 105.395531 
L 103.335414 104.816658 
L 103.660069 111.186734 
L 103.984723 105.675218 
L 104.309378 107.876991 
L 104.634032 112.246731 
L 104.958687 120.443114 
L 105.283342 125.566196 
L 105.607996 128.655981 
L 105.932651 123.833821 
L 106.257305 125.652797 
L 106.58196 117.862951 
L 106.906614 113.445224 
L 107.231269 99.246757 
L 107.555923 97.860068 
L 107.880578 106.169776 
L 108.205232 102.247648 
L 108.854542 120.349334 
L 109.179196 119.993245 
L 109.503851 123.068816 
L 109.828505 121.154164 
L 110.802469 108.904999 
L 111.451778 96.596078 
L 111.776432 95.972168 
L 112.101087 93.018441 
L 112.425742 95.17793 
L 112.750396 91.249458 
L 113.075051 89.057229 
L 113.399705 91.658515 
L 113.72436 95.383632 
L 114.049014 96.896856 
L 114.373669 96.963326 
L 114.698323 91.812112 
L 115.022978 91.650723 
L 115.347632 90.834217 
L 115.672287 82.204839 
L 115.996942 93.926129 
L 116.321596 98.463981 
L 116.646251 89.549708 
L 116.970905 86.513964 
L 117.29556 91.727903 
L 117.620214 86.721367 
L 117.944869 78.288476 
L 118.269523 80.068972 
L 118.594178 77.320289 
L 118.918832 79.953551 
L 119.243487 89.455874 
L 119.568142 89.595161 
L 119.892796 87.48718 
L 120.217451 95.053515 
L 120.542105 92.771413 
L 120.86676 95.100822 
L 121.191414 98.556569 
L 121.516069 97.40963 
L 121.840723 90.829978 
L 122.165378 104.025535 
L 122.490032 103.85067 
L 122.814687 101.566043 
L 123.139342 106.022491 
L 123.463996 105.122877 
L 123.788651 100.599481 
L 124.113305 103.874504 
L 124.43796 101.015097 
L 124.762614 104.266761 
L 125.087269 101.843149 
L 125.411923 96.834855 
L 125.736578 98.707151 
L 126.061232 99.218611 
L 126.385887 101.665983 
L 126.710542 97.081956 
L 127.035196 111.067692 
L 127.359851 103.380377 
L 127.684505 106.995612 
L 128.00916 108.306611 
L 128.333814 108.451783 
L 128.658469 104.234786 
L 128.983123 95.678296 
L 129.307778 102.97544 
L 129.632432 100.680319 
L 129.957087 104.900118 
L 130.281742 102.019377 
L 130.606396 108.116983 
L 130.931051 108.334515 
L 131.255705 107.709327 
L 131.58036 106.621851 
L 131.905014 98.764531 
L 132.229669 100.244215 
L 132.554323 98.785402 
L 132.878978 90.689036 
L 133.203632 86.25157 
L 133.528287 86.975616 
L 133.852942 93.76822 
L 134.177596 95.561365 
L 134.502251 102.557765 
L 134.826905 93.336476 
L 135.15156 92.26392 
L 135.476214 94.877578 
L 136.125523 86.533822 
L 136.774832 84.253965 
L 137.099487 88.865582 
L 137.424142 95.753567 
L 137.748796 92.444972 
L 138.073451 107.52926 
L 138.72276 115.651514 
L 139.047414 118.851238 
L 139.372069 106.495108 
L 139.696723 108.461433 
L 140.021378 103.488865 
L 140.346032 92.610115 
L 140.670687 93.26649 
L 141.319996 85.260574 
L 141.644651 67.065488 
L 141.969305 67.2109 
L 142.618614 50.168721 
L 142.943269 47.300425 
L 143.267923 47.681737 
L 143.592578 52.696275 
L 143.917232 44.216546 
L 144.891196 73.037031 
L 145.215851 72.719904 
L 145.540505 70.561682 
L 145.86516 86.361732 
L 146.189814 87.862947 
L 146.514469 80.957244 
L 146.839123 65.461299 
L 147.488432 76.27078 
L 147.813087 83.20154 
L 148.137742 83.461694 
L 148.462396 81.092762 
L 149.111705 74.862483 
L 149.43636 67.072637 
L 149.761014 70.000728 
L 150.085669 70.853799 
L 150.410323 72.531031 
L 150.734978 75.531083 
L 151.059632 77.098986 
L 151.384287 85.726237 
L 151.708942 78.062253 
L 152.033596 84.814404 
L 152.358251 86.353564 
L 152.682905 78.270965 
L 153.00756 86.615966 
L 153.332214 82.09831 
L 153.656869 87.323027 
L 153.981523 81.404405 
L 154.306178 87.201599 
L 154.630832 81.747134 
L 154.955487 91.607848 
L 155.604796 94.38571 
L 155.929451 90.191065 
L 156.254105 79.813633 
L 156.57876 77.631538 
L 157.228069 90.527164 
L 157.552723 78.461071 
L 157.877378 77.607434 
L 158.202032 81.93742 
L 158.851342 72.49153 
L 159.500651 66.36553 
L 159.825305 49.1638 
L 160.14996 49.95825 
L 160.474614 56.674052 
L 160.799269 53.364976 
L 161.123923 52.658497 
L 161.448578 45.62424 
L 161.773232 44.36153 
L 162.097887 41.063638 
L 162.422542 49.56359 
L 162.747196 50.160041 
L 163.071851 55.972562 
L 163.396505 55.431731 
L 163.72116 59.0357 
L 164.045814 64.568115 
L 164.370469 57.993163 
L 164.695123 60.318221 
L 165.019778 56.429468 
L 165.344432 48.417386 
L 165.669087 51.51899 
L 165.993742 62.106399 
L 166.318396 61.237087 
L 166.643051 52.346916 
L 166.967705 48.078884 
L 167.29236 35.393659 
L 167.617014 42.856727 
L 167.941669 47.01264 
L 168.266323 54.798712 
L 168.590978 48.014281 
L 168.915632 54.061225 
L 169.240287 52.649031 
L 169.889596 68.944138 
L 170.214251 62.102612 
L 170.538905 58.111549 
L 170.86356 58.665818 
L 171.188214 54.438031 
L 171.512869 42.742694 
L 171.837523 46.95414 
L 172.162178 40.033609 
L 172.811487 48.126643 
L 173.136142 48.542801 
L 174.110105 38.841728 
L 174.43476 37.999939 
L 174.759414 35.750491 
L 175.084069 35.328722 
L 175.408723 44.900012 
L 175.733378 46.202913 
L 176.058032 51.361101 
L 176.382687 46.582295 
L 176.707342 62.502708 
L 177.031996 62.949973 
L 177.356651 62.648521 
L 177.681305 61.937511 
L 178.00596 73.927745 
L 178.330614 69.509736 
L 178.655269 78.643935 
L 178.979923 77.425801 
L 179.304578 86.965169 
L 179.629232 82.615785 
L 179.953887 82.355301 
L 180.278542 78.702068 
L 180.603196 81.927218 
L 180.927851 82.146706 
L 181.252505 72.687833 
L 181.57716 71.036756 
L 181.901814 66.743801 
L 182.226469 68.130642 
L 182.551123 60.728151 
L 182.875778 74.406325 
L 183.200432 71.1106 
L 183.525087 81.181759 
L 183.849742 80.074962 
L 184.174396 76.875368 
L 184.499051 80.219296 
L 184.823705 74.110384 
L 185.14836 71.410749 
L 185.473014 70.098148 
L 186.122323 77.798148 
L 186.771632 63.956024 
L 187.096287 69.194705 
L 187.420942 68.858276 
L 187.745596 77.119401 
L 188.070251 76.044701 
L 188.394905 71.943655 
L 188.71956 82.350345 
L 189.044214 78.878649 
L 189.368869 77.287531 
L 189.693523 73.948225 
L 190.018178 64.019158 
L 190.342832 65.718494 
L 190.667487 70.863568 
L 190.992142 81.509278 
L 191.316796 79.845932 
L 191.641451 71.20157 
L 191.966105 81.987647 
L 192.29076 72.650691 
L 192.615414 79.781502 
L 192.940069 75.644795 
L 193.264723 84.437929 
L 193.589378 88.765205 
L 193.914032 88.423821 
L 194.238687 92.140718 
L 194.563342 88.584388 
L 194.887996 82.067653 
L 195.212651 85.759383 
L 195.86196 108.512293 
L 196.186614 114.187276 
L 196.511269 112.13953 
L 196.835923 105.92099 
L 197.160578 105.907955 
L 197.485232 102.832273 
L 197.809887 96.162791 
L 198.134542 104.045362 
L 199.108505 114.364994 
L 199.757814 108.41704 
L 200.082469 106.09485 
L 200.407123 105.395242 
L 200.731778 108.686806 
L 201.381087 95.483019 
L 201.705742 94.608982 
L 202.030396 92.379872 
L 202.355051 88.367386 
L 202.679705 89.297654 
L 203.00436 83.31929 
L 203.329014 90.723077 
L 203.653669 93.235899 
L 204.302978 80.211366 
L 204.627632 88.688804 
L 204.952287 86.650377 
L 205.276942 81.731525 
L 205.601596 88.268908 
L 205.926251 92.17474 
L 206.250905 84.572692 
L 206.57556 85.576899 
L 206.900214 93.495686 
L 207.549523 91.084729 
L 207.874178 86.672185 
L 208.523487 90.461695 
L 208.848142 94.397037 
L 209.172796 94.765864 
L 209.497451 99.963008 
L 209.822105 92.651408 
L 210.14676 88.758344 
L 210.471414 88.935295 
L 210.796069 88.250526 
L 211.120723 89.450764 
L 211.445378 90.045762 
L 211.770032 92.87305 
L 212.419342 90.191373 
L 212.743996 94.220573 
L 213.068651 86.365688 
L 213.393305 90.643093 
L 213.71796 92.274239 
L 214.042614 82.62438 
L 214.691923 89.069763 
L 215.341232 81.522957 
L 215.665887 87.484164 
L 216.315196 81.499972 
L 216.639851 76.807165 
L 216.964505 78.067319 
L 217.28916 72.98567 
L 217.613814 74.895996 
L 217.938469 80.941332 
L 218.263123 79.590699 
L 218.587778 80.315567 
L 218.912432 79.102292 
L 219.237087 69.512233 
L 219.561742 67.969811 
L 219.886396 64.637598 
L 220.211051 62.643154 
L 220.535705 68.057423 
L 220.86036 70.716721 
L 221.185014 66.648584 
L 221.509669 70.247579 
L 221.834323 67.095465 
L 222.158978 66.743782 
L 222.483632 61.334872 
L 222.808287 52.215297 
L 223.457596 64.644863 
L 223.782251 66.76368 
L 224.43156 66.419592 
L 225.080869 54.124208 
L 225.730178 47.035527 
L 226.054832 56.714577 
L 226.379487 59.413835 
L 226.704142 58.515302 
L 227.028796 56.25562 
L 227.353451 53.002896 
L 227.678105 55.918691 
L 228.00276 60.303979 
L 228.327414 51.651804 
L 228.976723 44.865018 
L 229.301378 48.818924 
L 229.626032 61.809812 
L 229.950687 62.065131 
L 230.275342 53.013083 
L 230.599996 48.837762 
L 230.924651 49.510884 
L 231.57396 64.328689 
L 231.898614 64.627512 
L 232.223269 65.339427 
L 232.547923 69.992631 
L 232.872578 81.631727 
L 233.197232 81.397524 
L 233.521887 82.368364 
L 233.846542 72.877391 
L 234.171196 79.067009 
L 234.495851 72.916998 
L 234.820505 72.671474 
L 235.469814 57.939975 
L 236.119123 71.171227 
L 236.443778 73.630043 
L 236.768432 72.781563 
L 237.093087 68.725481 
L 237.417742 74.3543 
L 237.742396 63.621363 
L 238.067051 68.481667 
L 238.391705 68.431322 
L 238.71636 65.861891 
L 239.041014 64.43381 
L 239.365669 67.60384 
L 239.690323 61.042091 
L 240.014978 61.682559 
L 240.339632 56.598177 
L 240.664287 48.616009 
L 240.988942 49.029293 
L 241.313596 60.114668 
L 241.638251 65.901913 
L 241.962905 79.110641 
L 242.28756 77.427979 
L 242.612214 76.580524 
L 242.936869 69.96335 
L 243.261523 70.036951 
L 243.586178 76.868802 
L 243.910832 73.701267 
L 244.235487 59.946868 
L 244.560142 60.417304 
L 244.884796 59.682191 
L 245.209451 53.883083 
L 245.85876 60.841879 
L 246.183414 53.763892 
L 246.508069 57.645826 
L 246.832723 56.104549 
L 247.482032 67.220566 
L 247.806687 72.700995 
L 248.131342 71.028771 
L 248.455996 71.386722 
L 248.780651 74.965329 
L 249.105305 80.684013 
L 249.42996 82.629307 
L 249.754614 80.110031 
L 250.079269 91.012635 
L 250.403923 85.368929 
L 250.728578 90.806951 
L 251.053232 87.657503 
L 251.377887 91.940948 
L 252.027196 93.641495 
L 252.676505 77.737707 
L 253.00116 82.346347 
L 253.325814 74.27411 
L 253.650469 78.577379 
L 253.975123 73.505484 
L 254.299778 76.235778 
L 254.624432 86.625678 
L 254.949087 86.669054 
L 255.273742 99.208069 
L 255.598396 96.128132 
L 255.923051 88.076529 
L 256.247705 87.073102 
L 256.57236 93.312774 
L 256.897014 94.487422 
L 257.221669 100.624034 
L 257.546323 103.363087 
L 257.870978 108.343732 
L 258.195632 110.749562 
L 258.520287 119.998699 
L 258.844942 133.79785 
L 259.169596 131.064236 
L 259.494251 129.690461 
L 259.818905 124.895051 
L 260.14356 118.211768 
L 260.468214 118.646369 
L 261.117523 106.461132 
L 261.442178 113.354074 
L 262.091487 99.177827 
L 262.416142 99.162566 
L 262.740796 100.941215 
L 263.065451 94.876125 
L 263.390105 97.642227 
L 264.039414 109.725963 
L 264.364069 107.558778 
L 264.688723 101.672208 
L 265.013378 109.863434 
L 265.662687 99.1431 
L 265.987342 105.017015 
L 266.311996 107.135478 
L 266.636651 99.682689 
L 266.961305 106.323353 
L 267.28596 102.917816 
L 267.610614 98.330102 
L 267.935269 100.503585 
L 268.259923 101.264648 
L 268.584578 108.562002 
L 268.909232 107.781871 
L 269.233887 109.298765 
L 269.558542 116.430277 
L 269.883196 116.254726 
L 270.207851 111.228704 
L 270.532505 102.669395 
L 270.85716 108.852785 
L 271.181814 108.647745 
L 271.506469 107.622717 
L 271.831123 104.25443 
L 272.155778 102.11869 
L 272.480432 103.332012 
L 272.805087 103.230209 
L 273.129742 101.754334 
L 273.454396 107.878138 
L 273.779051 107.271305 
L 274.103705 105.507163 
L 274.42836 107.683952 
L 274.753014 106.930439 
L 275.077669 108.500158 
L 275.402323 107.20787 
L 275.726978 103.00115 
L 276.051632 108.777322 
L 276.376287 106.673596 
L 276.700942 108.870104 
L 277.025596 112.774165 
L 277.350251 110.63019 
L 277.99956 101.902712 
L 278.324214 101.07275 
L 278.648869 104.452471 
L 279.622832 82.974246 
L 279.947487 87.109615 
L 280.272142 92.876645 
L 280.596796 93.243657 
L 280.921451 85.22333 
L 281.246105 89.411076 
L 281.57076 73.906554 
L 282.544723 99.769193 
L 282.869378 99.257122 
L 283.518687 82.859118 
L 283.843342 80.595847 
L 284.167996 82.537572 
L 284.492651 82.407833 
L 284.817305 82.731808 
L 285.14196 80.712551 
L 285.466614 72.696681 
L 286.115923 82.440096 
L 286.440578 74.701862 
L 286.765232 77.879108 
L 287.089887 82.172147 
L 287.414542 89.680556 
L 287.739196 90.830123 
L 288.063851 95.332946 
L 288.71316 95.175649 
L 289.037814 93.615942 
L 289.362469 89.164233 
L 289.687123 98.514224 
L 290.011778 100.375325 
L 290.336432 105.293519 
L 290.661087 102.953068 
L 290.985742 108.967062 
L 291.310396 108.875457 
L 291.635051 117.528015 
L 291.959705 121.248795 
L 292.28436 111.466939 
L 292.609014 111.909157 
L 292.933669 117.208608 
L 293.582978 108.788564 
L 293.907632 114.354426 
L 294.232287 123.268025 
L 294.556942 123.244002 
L 294.881596 135.680408 
L 295.206251 139.471664 
L 295.530905 137.974435 
L 295.85556 129.02745 
L 296.180214 129.005746 
L 296.504869 127.439347 
L 296.829523 126.923297 
L 297.154178 125.656392 
L 297.803487 130.354266 
L 298.128142 130.686848 
L 298.452796 129.795044 
L 298.777451 129.81809 
L 299.102105 131.445413 
L 299.42676 128.378952 
L 300.076069 111.737774 
L 300.400723 117.449228 
L 300.725378 118.683336 
L 301.050032 114.638592 
L 301.374687 116.702082 
L 301.699342 122.769905 
L 302.348651 117.253883 
L 302.673305 114.035609 
L 302.99796 112.392344 
L 303.322614 111.680523 
L 303.647269 117.93046 
L 303.971923 113.748108 
L 304.296578 101.334864 
L 304.621232 96.165076 
L 304.945887 83.885858 
L 305.270542 86.561008 
L 305.595196 98.543419 
L 305.919851 105.619909 
L 306.244505 97.878745 
L 306.56916 95.122783 
L 307.218469 92.341809 
L 307.543123 86.21415 
L 307.867778 86.075487 
L 308.192432 92.894467 
L 308.517087 84.796649 
L 308.841742 88.679149 
L 309.166396 96.279741 
L 309.491051 97.187222 
L 309.815705 103.583221 
L 310.14036 95.155578 
L 310.465014 96.534331 
L 310.789669 91.501262 
L 311.114323 88.740075 
L 311.438978 87.511803 
L 312.088287 71.746536 
L 312.412942 75.529074 
L 312.737596 72.789537 
L 313.062251 73.040081 
L 313.386905 75.831261 
L 313.71156 73.693748 
L 314.036214 75.055792 
L 314.360869 90.376334 
L 314.685523 92.193718 
L 315.010178 92.683173 
L 315.334832 90.351528 
L 315.659487 92.595502 
L 315.984142 96.048595 
L 316.308796 93.640761 
L 316.633451 83.941404 
L 316.958105 84.25263 
L 317.932069 100.205754 
L 318.256723 98.105097 
L 318.581378 91.322231 
L 318.906032 89.423025 
L 319.230687 84.814274 
L 319.879996 68.676352 
L 320.204651 71.366518 
L 320.529305 61.220904 
L 320.85396 71.500149 
L 321.178614 70.655982 
L 321.503269 78.693028 
L 321.827923 67.50567 
L 322.152578 75.863747 
L 322.477232 77.898015 
L 322.801887 86.462977 
L 323.126542 81.763893 
L 323.451196 79.770417 
L 323.775851 84.251501 
L 324.100505 77.629235 
L 324.42516 76.701489 
L 324.749814 77.311671 
L 325.074469 70.153335 
L 325.399123 81.821569 
L 325.723778 87.797777 
L 326.373087 78.29661 
L 326.697742 82.32757 
L 327.022396 80.542698 
L 327.347051 89.08223 
L 327.671705 89.986749 
L 327.99636 99.338179 
L 328.321014 97.764423 
L 328.645669 97.285613 
L 328.970323 99.832619 
L 329.294978 103.464705 
L 329.619632 101.345385 
L 329.944287 103.764246 
L 330.268942 111.763616 
L 330.593596 114.043783 
L 330.918251 114.556925 
L 331.242905 121.941671 
L 331.56756 117.662562 
L 331.892214 119.158776 
L 332.216869 125.056207 
L 332.541523 122.568345 
L 332.866178 124.569804 
L 333.190832 119.517568 
L 333.515487 109.911055 
L 333.840142 112.253793 
L 334.164796 106.641813 
L 334.489451 103.895492 
L 334.814105 99.639208 
L 335.13876 97.421963 
L 335.463414 97.600033 
L 335.788069 105.992396 
L 336.112723 103.583065 
L 336.437378 102.747855 
L 336.762032 100.977144 
L 337.086687 99.91321 
L 337.411342 97.064684 
L 337.735996 86.556081 
L 338.060651 87.987961 
L 338.385305 84.877472 
L 338.70996 88.639017 
L 339.034614 87.530062 
L 339.359269 86.007457 
L 339.683923 83.944233 
L 340.008578 79.257109 
L 340.333232 86.684525 
L 340.657887 88.077043 
L 340.982542 97.316056 
L 341.307196 98.356694 
L 341.631851 98.288326 
L 342.28116 102.971628 
L 342.605814 94.358644 
L 342.930469 93.611739 
L 343.255123 88.14965 
L 343.579778 92.909357 
L 344.229087 96.345278 
L 344.553742 87.908139 
L 344.878396 92.123871 
L 345.527705 82.29599 
L 345.85236 83.402884 
L 346.177014 90.524303 
L 346.501669 84.843714 
L 346.826323 92.682344 
L 347.150978 92.042462 
L 347.475632 83.642443 
L 347.800287 85.224846 
L 348.124942 91.334691 
L 348.449596 91.858631 
L 348.774251 94.287997 
L 349.098905 103.517636 
L 349.42356 99.795701 
L 349.748214 93.283935 
L 350.072869 94.443962 
L 350.397523 94.706165 
L 350.722178 89.43986 
L 351.046832 89.403351 
L 351.696142 80.409279 
L 352.020796 80.708568 
L 352.345451 81.936822 
L 352.670105 90.404701 
L 352.99476 80.543253 
L 353.319414 90.738452 
L 353.644069 86.949758 
L 353.968723 87.865512 
L 354.293378 91.288308 
L 354.618032 93.426228 
L 354.942687 102.59011 
L 355.267342 94.253086 
L 355.591996 93.114216 
L 355.916651 95.114775 
L 356.241305 99.104014 
L 356.56596 95.291952 
L 356.890614 89.824608 
L 357.215269 95.11655 
L 357.539923 94.164705 
L 358.189232 81.308728 
L 359.163196 95.208289 
L 359.487851 95.180572 
L 359.812505 91.538268 
L 360.13716 91.397324 
L 360.461814 82.218113 
L 360.786469 78.281119 
L 361.111123 89.362189 
L 361.760432 99.664079 
L 362.085087 98.844193 
L 362.409742 98.439585 
L 362.734396 98.891115 
L 363.059051 94.252012 
L 363.383705 93.758413 
L 363.70836 97.109247 
L 364.033014 97.785164 
L 364.357669 99.159756 
L 364.682323 95.229739 
L 365.006978 85.76977 
L 365.331632 83.659534 
L 365.656287 82.922734 
L 365.980942 90.93714 
L 366.305596 92.310965 
L 366.630251 90.798437 
L 366.954905 84.729491 
L 367.27956 90.418141 
L 367.604214 98.633552 
L 367.928869 100.66411 
L 368.253523 106.043109 
L 368.578178 94.140938 
L 368.902832 98.193581 
L 369.227487 90.544677 
L 369.552142 93.131743 
L 370.201451 81.616661 
L 370.526105 80.220441 
L 371.175414 76.109609 
L 371.500069 77.471328 
L 371.824723 76.420276 
L 372.149378 77.567206 
L 372.474032 79.244806 
L 372.798687 74.414078 
L 372.798687 74.414078 
" clip-path="url(#p0a3782299c)" style="fill: none; stroke: #d1dae9; stroke-width: 1.5; stroke-linecap: square"/>
   </g>
   <g id="line2d_14">
    <path d="M 48.144142 72.964585 
L 48.793451 64.30635 
L 49.118105 66.969097 
L 49.44276 71.992584 
L 49.767414 81.716638 
L 50.416723 73.636492 
L 51.066032 79.303301 
L 51.390687 93.405742 
L 51.715342 83.025323 
L 52.039996 78.599313 
L 52.364651 79.234168 
L 52.689305 79.019559 
L 53.01396 74.145232 
L 53.338614 76.746566 
L 53.663269 75.151414 
L 53.987923 87.5045 
L 54.312578 86.606493 
L 54.637232 91.469177 
L 54.961887 94.041584 
L 55.286542 85.392162 
L 55.611196 96.738676 
L 55.935851 96.055624 
L 56.260505 98.117773 
L 56.58516 98.742955 
L 56.909814 98.835738 
L 57.234469 91.424911 
L 57.559123 98.654108 
L 57.883778 92.079902 
L 58.208432 100.447668 
L 58.533087 102.332007 
L 58.857742 98.512974 
L 59.182396 105.65597 
L 59.507051 107.046472 
L 59.831705 102.094136 
L 60.15636 95.189313 
L 60.481014 100.614396 
L 60.805669 99.115949 
L 61.130323 103.493285 
L 61.454978 99.569927 
L 61.779632 101.724606 
L 62.104287 90.969865 
L 62.428942 95.073769 
L 62.753596 94.687178 
L 63.402905 78.839654 
L 63.72756 60.937468 
L 64.052214 66.363638 
L 64.376869 69.895499 
L 64.701523 70.699359 
L 65.026178 78.803818 
L 65.350832 73.072411 
L 65.675487 69.578798 
L 66.324796 65.248683 
L 66.649451 70.677484 
L 66.974105 67.357593 
L 67.29876 70.525054 
L 67.623414 62.706543 
L 67.948069 58.437 
L 68.272723 62.280441 
L 68.922032 71.809696 
L 69.246687 74.361761 
L 69.571342 68.540583 
L 69.895996 72.216556 
L 70.220651 80.698085 
L 70.545305 83.441668 
L 70.86996 80.02656 
L 71.194614 72.055712 
L 71.519269 73.875752 
L 71.843923 89.565664 
L 72.168578 93.033527 
L 72.493232 101.4451 
L 73.142542 87.255188 
L 73.467196 86.826147 
L 73.791851 88.242004 
L 74.116505 88.854831 
L 74.44116 85.108021 
L 74.765814 86.086313 
L 75.090469 84.550046 
L 75.415123 92.89536 
L 76.064432 102.49357 
L 76.389087 95.038779 
L 76.713742 94.436138 
L 77.038396 89.877823 
L 77.363051 90.834696 
L 77.687705 93.856026 
L 78.01236 90.533484 
L 78.337014 93.881095 
L 78.661669 88.047691 
L 78.986323 91.714151 
L 79.310978 87.222243 
L 79.635632 88.745977 
L 79.960287 84.964268 
L 80.284942 84.153207 
L 80.609596 90.629091 
L 80.934251 99.900757 
L 81.258905 94.393894 
L 81.58356 94.790223 
L 81.908214 102.894674 
L 82.232869 95.871008 
L 82.557523 93.287838 
L 82.882178 96.997548 
L 83.206832 97.521667 
L 83.531487 93.406214 
L 84.180796 101.96382 
L 84.505451 97.393412 
L 84.830105 101.084944 
L 85.479414 87.662616 
L 85.804069 94.600327 
L 86.128723 85.250384 
L 86.453378 80.917583 
L 86.778032 81.401638 
L 87.102687 71.801776 
L 87.427342 77.486935 
L 87.751996 75.164551 
L 88.076651 70.986107 
L 88.401305 65.281456 
L 88.72596 67.772391 
L 89.050614 59.540856 
L 89.375269 54.471171 
L 90.349232 47.877598 
L 90.673887 41.183883 
L 90.998542 45.590354 
L 91.323196 44.307472 
L 91.647851 33.860832 
L 91.972505 36.23 
L 92.29716 44.964391 
L 92.946469 33.82741 
L 93.271123 47.216391 
L 93.595778 34.016666 
L 94.245087 35.902568 
L 94.569742 31.398502 
L 94.894396 35.344288 
L 95.219051 45.44221 
L 95.543705 49.663161 
L 95.86836 56.623744 
L 96.193014 55.091001 
L 96.842323 44.897989 
L 97.491632 50.161857 
L 97.816287 45.773128 
L 98.140942 52.64243 
L 98.465596 44.402313 
L 98.790251 50.92074 
L 99.114905 59.833822 
L 99.43956 79.446506 
L 99.764214 83.92063 
L 100.088869 85.313793 
L 100.738178 98.169548 
L 101.062832 88.924527 
L 101.712142 85.604341 
L 102.036796 81.825597 
L 102.361451 82.993153 
L 102.686105 79.423787 
L 103.01076 88.851474 
L 103.335414 91.245425 
L 103.660069 88.914841 
L 103.984723 90.98904 
L 104.309378 83.967481 
L 104.634032 85.726631 
L 104.958687 95.604726 
L 105.283342 92.741511 
L 105.607996 96.228778 
L 105.932651 97.82308 
L 106.257305 100.666633 
L 106.58196 99.345088 
L 106.906614 94.695195 
L 107.231269 101.359417 
L 107.555923 97.817518 
L 107.880578 104.27647 
L 108.205232 88.464582 
L 108.529887 83.01867 
L 108.854542 86.566012 
L 109.179196 78.50925 
L 109.503851 85.905118 
L 109.828505 87.782514 
L 110.15316 84.25841 
L 110.477814 91.989974 
L 110.802469 90.87818 
L 111.127123 90.865176 
L 111.451778 87.220112 
L 111.776432 87.644526 
L 112.101087 83.990152 
L 112.425742 86.524437 
L 112.750396 77.035108 
L 113.075051 78.053163 
L 113.72436 79.180336 
L 114.049014 77.178013 
L 114.373669 87.401643 
L 115.022978 99.015079 
L 115.672287 65.27759 
L 115.996942 73.398827 
L 116.321596 78.516498 
L 116.646251 74.083462 
L 116.970905 73.293768 
L 117.29556 65.312328 
L 117.620214 61.68181 
L 117.944869 64.397641 
L 118.269523 53.355032 
L 118.594178 53.370079 
L 118.918832 50.753151 
L 119.243487 65.659633 
L 119.568142 65.365756 
L 119.892796 63.225834 
L 120.217451 57.722914 
L 120.542105 61.648301 
L 120.86676 62.089078 
L 121.191414 65.024792 
L 121.516069 59.277808 
L 121.840723 73.13537 
L 122.165378 62.310275 
L 122.490032 77.122946 
L 122.814687 66.548295 
L 123.139342 60.829186 
L 123.463996 60.684642 
L 123.788651 62.947402 
L 124.113305 58.858409 
L 124.43796 67.106013 
L 124.762614 64.41036 
L 125.087269 63.187022 
L 125.411923 68.069555 
L 125.736578 58.899325 
L 126.061232 66.831814 
L 126.385887 79.010113 
L 126.710542 79.45293 
L 127.035196 74.608805 
L 127.359851 82.671023 
L 127.684505 82.563353 
L 128.00916 77.943356 
L 128.333814 78.621523 
L 128.658469 77.949382 
L 128.983123 74.10951 
L 129.307778 83.057462 
L 129.632432 81.278267 
L 129.957087 75.85264 
L 130.281742 74.831604 
L 130.606396 82.133111 
L 131.255705 77.742672 
L 131.58036 71.9123 
L 131.905014 73.593695 
L 132.229669 80.844591 
L 132.554323 81.078739 
L 132.878978 82.684332 
L 133.203632 78.628318 
L 133.528287 63.537249 
L 133.852942 69.823795 
L 134.177596 61.977636 
L 134.502251 61.048521 
L 134.826905 68.739732 
L 135.15156 70.120999 
L 135.476214 77.706892 
L 135.800869 70.323846 
L 136.125523 75.050366 
L 136.450178 72.583124 
L 136.774832 67.900923 
L 137.099487 65.23685 
L 137.424142 64.0362 
L 137.748796 58.949798 
L 138.073451 59.029924 
L 138.398105 65.625354 
L 138.72276 69.108153 
L 139.047414 74.275009 
L 139.372069 66.819213 
L 139.696723 68.818839 
L 140.021378 78.276449 
L 140.346032 78.530689 
L 140.670687 86.366315 
L 141.319996 74.110975 
L 141.644651 79.893756 
L 141.969305 74.696188 
L 142.29396 79.354547 
L 142.618614 78.078659 
L 142.943269 75.207562 
L 143.267923 70.536627 
L 143.592578 74.050337 
L 143.917232 74.330917 
L 144.241887 74.056501 
L 144.566542 77.445429 
L 144.891196 84.640969 
L 145.215851 82.796242 
L 145.540505 79.513501 
L 145.86516 82.079077 
L 146.189814 73.090359 
L 146.514469 73.693298 
L 146.839123 80.039332 
L 148.137742 60.113127 
L 148.462396 67.700559 
L 148.787051 67.123181 
L 149.111705 79.637891 
L 149.43636 80.371288 
L 149.761014 77.775779 
L 150.085669 69.486022 
L 150.410323 68.893578 
L 150.734978 69.073593 
L 151.059632 73.835498 
L 151.384287 72.925873 
L 151.708942 71.151057 
L 152.033596 71.671437 
L 152.358251 75.26919 
L 152.682905 75.172027 
L 153.00756 72.532148 
L 153.332214 75.563486 
L 153.656869 83.163287 
L 153.981523 94.628499 
L 154.306178 88.468889 
L 154.630832 91.520234 
L 154.955487 96.744492 
L 155.280142 85.213597 
L 155.604796 90.290673 
L 155.929451 85.673366 
L 156.254105 84.592162 
L 156.57876 87.84203 
L 156.903414 80.277517 
L 157.228069 88.981035 
L 157.552723 91.157507 
L 157.877378 88.399245 
L 158.202032 87.173025 
L 158.526687 89.759679 
L 158.851342 78.765906 
L 159.175996 80.31619 
L 159.500651 86.799159 
L 160.14996 88.327732 
L 160.474614 90.529347 
L 160.799269 95.18645 
L 161.123923 80.445275 
L 161.448578 84.551407 
L 161.773232 92.123707 
L 162.097887 87.181489 
L 162.422542 90.436182 
L 162.747196 84.091912 
L 163.071851 90.472206 
L 163.396505 90.358562 
L 163.72116 103.634267 
L 164.045814 101.678955 
L 164.370469 102.381362 
L 164.695123 108.86134 
L 165.019778 112.975859 
L 165.344432 115.084189 
L 165.669087 114.882442 
L 165.993742 107.024957 
L 166.318396 109.665527 
L 166.643051 110.352488 
L 166.967705 101.034567 
L 167.29236 99.348382 
L 167.617014 104.523407 
L 167.941669 105.736355 
L 168.266323 105.754254 
L 168.590978 102.660003 
L 168.915632 93.775043 
L 169.240287 89.435479 
L 169.564942 92.425507 
L 169.889596 89.765457 
L 170.538905 77.747959 
L 170.86356 80.458248 
L 171.188214 70.590443 
L 171.512869 78.043289 
L 171.837523 76.476194 
L 172.162178 64.856023 
L 172.486832 65.967479 
L 172.811487 62.517217 
L 173.136142 76.486315 
L 173.460796 60.283895 
L 173.785451 66.738004 
L 174.110105 68.915013 
L 174.43476 65.266355 
L 174.759414 59.581755 
L 175.084069 61.818743 
L 175.408723 58.546013 
L 175.733378 67.216867 
L 176.058032 70.661802 
L 176.382687 69.437954 
L 176.707342 73.595306 
L 177.031996 73.869924 
L 177.356651 64.059885 
L 177.681305 63.930762 
L 178.00596 53.521349 
L 178.330614 57.894964 
L 178.655269 55.244286 
L 178.979923 54.892968 
L 179.304578 43.177167 
L 179.629232 42.211595 
L 179.953887 42.22804 
L 180.278542 45.97718 
L 180.603196 48.040482 
L 180.927851 57.296436 
L 181.252505 75.347699 
L 181.57716 71.910198 
L 181.901814 61.450546 
L 182.226469 74.365917 
L 182.551123 74.397363 
L 182.875778 78.913424 
L 183.525087 68.939157 
L 183.849742 70.831575 
L 184.174396 76.647035 
L 184.499051 68.113802 
L 184.823705 70.526525 
L 185.473014 62.345195 
L 185.797669 63.169773 
L 186.122323 63.152144 
L 186.446978 66.304914 
L 186.771632 67.632509 
L 187.096287 58.796246 
L 187.420942 62.159164 
L 187.745596 57.307553 
L 188.070251 66.364656 
L 188.71956 48.471772 
L 189.044214 53.089125 
L 190.018178 55.08923 
L 190.342832 52.939683 
L 190.667487 62.273568 
L 190.992142 59.039629 
L 191.316796 61.271018 
L 191.966105 79.041255 
L 192.29076 76.521724 
L 192.615414 66.13283 
L 192.940069 68.070117 
L 193.264723 61.157283 
L 193.589378 58.298438 
L 193.914032 57.263855 
L 194.563342 39.12815 
L 194.887996 43.691286 
L 195.212651 38.456414 
L 195.537305 43.228341 
L 195.86196 51.12307 
L 196.186614 55.714532 
L 196.511269 57.794001 
L 196.835923 55.379541 
L 197.160578 49.82907 
L 197.485232 65.032779 
L 197.809887 60.262879 
L 198.134542 62.463608 
L 198.459196 57.86185 
L 198.783851 65.887553 
L 199.108505 68.965422 
L 199.43316 67.327934 
L 199.757814 69.391955 
L 200.407123 64.16825 
L 200.731778 65.231101 
L 201.056432 71.195205 
L 202.030396 81.444817 
L 203.00436 62.564449 
L 203.329014 73.993611 
L 203.653669 71.617904 
L 203.978323 74.564897 
L 204.302978 65.797138 
L 204.627632 64.550295 
L 204.952287 60.294857 
L 205.276942 63.651345 
L 205.601596 56.676226 
L 205.926251 58.342054 
L 206.57556 64.206394 
L 206.900214 55.444944 
L 207.224869 63.126428 
L 207.549523 60.429129 
L 208.198832 71.035186 
L 208.523487 66.848543 
L 208.848142 79.720842 
L 209.172796 87.503417 
L 209.497451 86.727007 
L 209.822105 94.158259 
L 210.14676 96.584097 
L 210.471414 103.332887 
L 210.796069 86.807886 
L 211.120723 88.156514 
L 211.445378 84.055438 
L 211.770032 85.996307 
L 212.094687 78.685298 
L 212.419342 81.086817 
L 213.068651 66.281767 
L 213.393305 68.329992 
L 213.71796 71.779327 
L 214.042614 78.370724 
L 214.367269 82.147776 
L 214.691923 96.298417 
L 215.016578 89.981311 
L 215.341232 94.783896 
L 215.665887 86.599981 
L 216.315196 76.793027 
L 216.639851 88.33958 
L 216.964505 76.608434 
L 217.28916 69.138702 
L 217.613814 67.68469 
L 217.938469 64.509162 
L 218.263123 66.083023 
L 218.587778 63.922966 
L 218.912432 67.920145 
L 219.237087 66.704423 
L 219.561742 73.052933 
L 219.886396 75.428829 
L 220.211051 76.744918 
L 220.535705 68.805693 
L 220.86036 68.870496 
L 221.509669 59.985316 
L 221.834323 61.678294 
L 222.158978 71.656703 
L 222.483632 69.928969 
L 222.808287 62.312472 
L 223.132942 68.11219 
L 223.457596 66.061923 
L 223.782251 65.25788 
L 224.106905 64.985756 
L 224.43156 64.303387 
L 224.756214 71.788005 
L 225.080869 75.623859 
L 225.405523 68.348952 
L 225.730178 63.570921 
L 226.054832 72.486584 
L 226.379487 76.382665 
L 226.704142 86.420715 
L 227.028796 82.952791 
L 227.353451 73.478532 
L 227.678105 77.761839 
L 228.00276 90.046212 
L 228.327414 77.128315 
L 228.652069 89.0296 
L 228.976723 95.369712 
L 229.301378 81.268856 
L 229.950687 68.034775 
L 230.275342 66.006441 
L 230.599996 62.963653 
L 230.924651 58.05921 
L 231.249305 59.500278 
L 231.898614 79.886806 
L 232.223269 73.996372 
L 232.547923 63.350825 
L 232.872578 63.529615 
L 233.197232 58.802822 
L 233.521887 63.563471 
L 233.846542 58.226169 
L 234.171196 65.509294 
L 234.495851 63.758154 
L 234.820505 63.186456 
L 235.14516 58.92754 
L 235.469814 57.395684 
L 235.794469 74.403048 
L 236.119123 70.568449 
L 236.443778 62.025749 
L 236.768432 72.534858 
L 237.093087 69.358982 
L 237.417742 70.54147 
L 237.742396 72.333359 
L 238.067051 75.27294 
L 238.391705 76.807306 
L 238.71636 66.800276 
L 239.041014 70.759798 
L 239.365669 65.786837 
L 239.690323 74.706959 
L 240.014978 76.001008 
L 240.339632 80.005744 
L 240.664287 74.310569 
L 240.988942 70.650713 
L 241.313596 80.666215 
L 241.638251 84.935041 
L 241.962905 77.274678 
L 242.28756 87.306936 
L 242.936869 97.533788 
L 243.261523 96.030402 
L 243.586178 102.512519 
L 243.910832 104.287115 
L 244.235487 111.384672 
L 244.560142 115.446507 
L 244.884796 114.567984 
L 245.209451 117.043156 
L 245.534105 113.402248 
L 245.85876 105.80141 
L 246.183414 105.068571 
L 246.832723 113.216572 
L 247.157378 125.36971 
L 247.482032 117.705689 
L 247.806687 117.700614 
L 248.131342 114.280482 
L 248.455996 113.179838 
L 248.780651 118.052806 
L 249.105305 119.04026 
L 249.42996 117.758291 
L 249.754614 117.533201 
L 250.079269 116.448411 
L 250.403923 117.442455 
L 250.728578 110.118207 
L 251.053232 106.723342 
L 251.377887 95.330987 
L 251.702542 102.842707 
L 252.027196 93.661121 
L 252.351851 90.360423 
L 252.676505 93.600565 
L 253.00116 88.34128 
L 253.325814 93.192022 
L 253.650469 102.630518 
L 253.975123 102.646151 
L 254.299778 105.973918 
L 254.624432 99.190625 
L 255.273742 90.905739 
L 255.598396 95.281575 
L 255.923051 94.123844 
L 256.247705 100.043761 
L 256.57236 99.289969 
L 256.897014 92.013322 
L 257.221669 96.840049 
L 257.546323 87.803938 
L 257.870978 93.815151 
L 258.195632 84.468397 
L 258.520287 83.447104 
L 258.844942 80.809009 
L 259.494251 71.799789 
L 259.818905 62.92085 
L 260.468214 56.711396 
L 260.792869 53.966991 
L 261.117523 52.831279 
L 261.442178 52.203634 
L 261.766832 42.567897 
L 262.416142 31.81521 
L 262.740796 30.555197 
L 263.065451 31.788285 
L 263.390105 26.509415 
L 263.71476 27.467529 
L 264.039414 20.878424 
L 264.364069 27.354517 
L 264.688723 26.750156 
L 265.013378 23.366203 
L 265.338032 25.046765 
L 265.987342 37.900511 
L 266.311996 35.487037 
L 266.636651 26.88247 
L 266.961305 21.894602 
L 267.28596 20.784968 
L 267.610614 28.8343 
L 267.935269 29.448929 
L 268.584578 19.296 
L 269.233887 28.475274 
L 269.558542 35.065178 
L 269.883196 33.753293 
L 270.207851 41.723485 
L 270.532505 39.280132 
L 270.85716 44.836465 
L 271.181814 40.505465 
L 271.831123 36.130583 
L 272.155778 35.305262 
L 272.480432 41.247522 
L 273.129742 44.49138 
L 273.779051 53.541119 
L 274.103705 51.138816 
L 274.42836 55.9375 
L 274.753014 58.219942 
L 275.077669 64.386416 
L 275.402323 59.793498 
L 275.726978 57.550442 
L 276.051632 64.493919 
L 276.376287 63.192444 
L 276.700942 69.239141 
L 277.025596 61.000928 
L 277.350251 55.965572 
L 277.674905 62.895793 
L 277.99956 67.090145 
L 278.324214 63.35447 
L 278.648869 57.570767 
L 278.973523 56.738139 
L 279.298178 61.106682 
L 279.622832 63.08725 
L 279.947487 70.08651 
L 280.272142 65.095627 
L 280.596796 64.760169 
L 280.921451 71.421515 
L 281.246105 63.109625 
L 281.57076 64.138965 
L 281.895414 63.164162 
L 282.220069 61.023282 
L 282.544723 66.547594 
L 282.869378 75.166887 
L 283.843342 69.477652 
L 284.167996 58.053291 
L 284.492651 73.857984 
L 284.817305 74.359536 
L 285.14196 67.771568 
L 285.466614 69.01373 
L 285.791269 61.411602 
L 286.115923 62.957423 
L 286.440578 66.240891 
L 286.765232 60.504333 
L 287.089887 66.513985 
L 287.414542 66.20598 
L 287.739196 69.233613 
L 288.063851 74.982069 
L 288.388505 77.239094 
L 288.71316 78.418565 
L 289.037814 76.743014 
L 289.362469 72.469057 
L 289.687123 81.911801 
L 290.011778 81.598133 
L 290.336432 80.519968 
L 290.661087 72.824907 
L 290.985742 69.161258 
L 291.310396 76.19771 
L 291.635051 71.638111 
L 291.959705 71.421551 
L 292.28436 67.339445 
L 292.609014 70.66353 
L 292.933669 70.543478 
L 294.232287 53.633753 
L 294.556942 59.892904 
L 294.881596 58.225167 
L 295.206251 50.120832 
L 295.85556 43.530814 
L 296.180214 43.710983 
L 296.504869 44.841608 
L 297.154178 63.273402 
L 297.478832 56.749409 
L 297.803487 57.271487 
L 298.128142 55.36509 
L 298.452796 65.106283 
L 298.777451 69.346641 
L 299.102105 70.773118 
L 299.42676 62.89913 
L 300.076069 56.017652 
L 300.400723 46.848559 
L 300.725378 54.242537 
L 301.050032 66.359651 
L 301.374687 66.435732 
L 301.699342 61.548717 
L 302.023996 59.590511 
L 302.673305 67.102513 
L 302.99796 58.552305 
L 303.322614 55.145963 
L 303.647269 59.811073 
L 303.971923 55.709221 
L 304.296578 63.514394 
L 304.621232 62.522991 
L 304.945887 59.769072 
L 305.595196 60.043768 
L 305.919851 56.084818 
L 306.244505 56.97925 
L 306.56916 61.708744 
L 306.893814 56.686434 
L 307.218469 68.595575 
L 307.543123 51.127428 
L 307.867778 62.05531 
L 308.192432 61.333113 
L 308.517087 59.341745 
L 308.841742 54.245217 
L 309.166396 54.382295 
L 309.491051 53.821606 
L 309.815705 52.740194 
L 310.14036 53.484786 
L 310.465014 41.458874 
L 310.789669 53.657528 
L 311.114323 54.062644 
L 311.438978 51.520856 
L 311.763632 54.800254 
L 312.088287 53.314885 
L 312.737596 38.255722 
L 313.062251 39.430897 
L 313.386905 41.520158 
L 313.71156 38.321605 
L 314.036214 44.981213 
L 314.360869 45.582722 
L 314.685523 49.118427 
L 315.010178 38.976033 
L 315.334832 42.414778 
L 315.659487 42.0344 
L 315.984142 47.34929 
L 316.308796 47.940819 
L 316.633451 48.938553 
L 316.958105 52.049778 
L 317.28276 50.105497 
L 317.607414 49.579948 
L 317.932069 52.926979 
L 318.256723 51.520973 
L 318.581378 60.748843 
L 318.906032 65.303404 
L 319.230687 57.090707 
L 319.555342 64.89686 
L 319.879996 69.371404 
L 320.204651 72.254573 
L 321.178614 92.316908 
L 321.503269 85.788996 
L 321.827923 84.986491 
L 322.152578 83.027109 
L 322.477232 88.890955 
L 322.801887 104.446778 
L 323.126542 96.257826 
L 323.451196 93.917552 
L 323.775851 87.295685 
L 324.100505 89.423582 
L 324.42516 81.046451 
L 324.749814 84.249552 
L 325.074469 83.160361 
L 325.723778 71.270508 
L 326.048432 72.08409 
L 326.373087 74.764914 
L 326.697742 75.734877 
L 327.022396 85.859977 
L 327.347051 80.108054 
L 327.671705 70.197631 
L 327.99636 67.167811 
L 328.321014 68.478258 
L 328.970323 64.226481 
L 329.294978 55.142348 
L 329.619632 57.027595 
L 329.944287 68.103841 
L 330.268942 70.396749 
L 330.918251 62.896874 
L 331.242905 59.120528 
L 331.56756 60.046999 
L 331.892214 52.316349 
L 332.216869 58.869863 
L 332.866178 48.769662 
L 333.190832 50.19212 
L 333.515487 50.202927 
L 333.840142 53.144961 
L 334.489451 62.971299 
L 334.814105 62.94024 
L 335.13876 68.18648 
L 335.463414 68.774992 
L 336.112723 60.150006 
L 336.762032 66.783393 
L 337.086687 62.024085 
L 337.411342 65.412954 
L 338.70996 41.881398 
L 339.034614 29.484763 
L 339.359269 27.562343 
L 340.008578 34.157252 
L 340.333232 32.967224 
L 340.657887 30.650469 
L 340.982542 38.352842 
L 341.307196 43.411043 
L 341.631851 32.903449 
L 341.956505 37.753226 
L 342.28116 36.488636 
L 342.930469 41.263446 
L 343.255123 54.207654 
L 343.579778 56.362416 
L 343.904432 53.872571 
L 344.229087 56.383798 
L 344.553742 57.064022 
L 345.203051 72.835683 
L 345.527705 71.462965 
L 345.85236 65.450823 
L 346.177014 55.321569 
L 346.501669 55.513548 
L 346.826323 52.167512 
L 347.150978 56.9719 
L 347.475632 54.755619 
L 347.800287 46.798075 
L 348.124942 49.852383 
L 348.449596 43.902541 
L 349.098905 58.503391 
L 349.42356 53.373883 
L 350.072869 55.770655 
L 350.397523 38.536136 
L 350.722178 35.134229 
L 351.046832 43.031682 
L 351.371487 45.832792 
L 352.020796 65.714092 
L 352.345451 61.679573 
L 352.670105 60.908164 
L 352.99476 54.384012 
L 353.319414 58.634445 
L 353.644069 51.127731 
L 353.968723 51.801265 
L 354.293378 53.743174 
L 354.618032 61.604015 
L 354.942687 62.392173 
L 355.916651 55.05768 
L 356.241305 71.936592 
L 356.56596 75.425979 
L 356.890614 73.246447 
L 357.215269 62.198495 
L 357.539923 58.761718 
L 357.864578 50.759775 
L 358.189232 47.826972 
L 358.513887 49.6154 
L 359.163196 54.323441 
L 359.487851 55.038617 
L 359.812505 56.720132 
L 360.13716 63.305447 
L 360.461814 61.115864 
L 360.786469 59.895244 
L 361.111123 50.255101 
L 361.435778 47.820667 
L 361.760432 49.629557 
L 362.085087 44.806879 
L 362.734396 52.249649 
L 363.059051 57.0852 
L 363.383705 58.671927 
L 364.033014 54.649482 
L 364.357669 59.117681 
L 364.682323 50.516872 
L 365.006978 47.792473 
L 365.331632 50.08838 
L 365.656287 50.518467 
L 365.980942 47.016483 
L 366.305596 48.338965 
L 366.630251 50.209617 
L 366.954905 43.890141 
L 367.27956 47.128647 
L 367.604214 45.698387 
L 367.928869 47.688409 
L 368.253523 44.696157 
L 368.578178 50.876777 
L 368.902832 51.285473 
L 369.227487 44.699913 
L 369.552142 52.739572 
L 369.876796 52.904505 
L 370.201451 55.740559 
L 370.526105 54.542043 
L 370.85076 63.974334 
L 371.175414 66.580498 
L 371.500069 73.198188 
L 371.824723 68.882702 
L 372.149378 77.374848 
L 372.474032 76.09202 
L 372.798687 75.474681 
L 372.798687 75.474681 
" clip-path="url(#p0a3782299c)" style="fill: none; stroke: #3a4cc0; stroke-width: 1.5; stroke-linecap: square"/>
   </g>
   <g id="patch_3">
    <path d="M 31.911414 273.312 
L 31.911414 7.2 
" style="fill: none; stroke: #000000; stroke-width: 0.8; stroke-linejoin: miter; stroke-linecap: square"/>
   </g>
   <g id="patch_4">
    <path d="M 389.031414 273.312 
L 389.031414 7.2 
" style="fill: none; stroke: #000000; stroke-width: 0.8; stroke-linejoin: miter; stroke-linecap: square"/>
   </g>
   <g id="patch_5">
    <path d="M 31.911414 273.312 
L 389.031414 273.312 
" style="fill: none; stroke: #000000; stroke-width: 0.8; stroke-linejoin: miter; stroke-linecap: square"/>
   </g>
   <g id="patch_6">
    <path d="M 31.911414 7.2 
L 389.031414 7.2 
" style="fill: none; stroke: #000000; stroke-width: 0.8; stroke-linejoin: miter; stroke-linecap: square"/>
   </g>
   <g id="legend_1">
    <g id="patch_7">
     <path d="M 38.911414 268.312 
L 116.020165 268.312 
Q 118.020165 268.312 118.020165 266.312 
L 118.020165 225.500465 
Q 118.020165 223.500465 116.020165 223.500465 
L 38.911414 223.500465 
Q 36.911414 223.500465 36.911414 225.500465 
L 36.911414 266.312 
Q 36.911414 268.312 38.911414 268.312 
z
" style="fill: #ffffff; opacity: 0.8; stroke: #cccccc; stroke-linejoin: miter"/>
    </g>
    <g id="line2d_15">
     <path d="M 40.911414 231.000465 
L 50.911414 231.000465 
L 60.911414 231.000465 
" style="fill: none; stroke: #e46e56; stroke-width: 1.5; stroke-linecap: square"/>
    </g>
    <g id="text_12">
     <!-- CBO -->
     <g transform="translate(68.911414 234.500465) scale(0.1 -0.1)">
      <defs>
       <path id="CMSS17-43" d="M 3501 714 
C 3072 427 2874 344 2355 344 
C 1459 344 934 1303 934 2179 
C 934 3112 1472 4032 2381 4032 
C 2790 4032 3059 3918 3386 3715 
L 3475 4217 
C 3168 4370 2778 4440 2387 4440 
C 1158 4440 397 3316 397 2179 
C 397 927 1299 -64 2323 -64 
C 2874 -64 3066 -19 3539 280 
L 3501 714 
z
" transform="scale(0.015625)"/>
       <path id="CMSS17-42" d="M 570 4416 
L 570 0 
L 2163 0 
C 3034 0 3667 574 3667 1200 
C 3667 1685 3251 2176 2502 2317 
C 3334 2558 3501 3040 3501 3313 
C 3501 3883 2874 4416 1997 4416 
L 570 4416 
z
M 1088 2496 
L 1088 4059 
L 1824 4059 
C 2483 4059 3002 3724 3002 3306 
C 3002 2926 2592 2496 1766 2496 
L 1088 2496 
z
M 1088 357 
L 1088 2107 
L 1939 2107 
C 2630 2107 3162 1679 3162 1206 
C 3162 772 2694 357 1984 357 
L 1088 357 
z
" transform="scale(0.015625)"/>
       <path id="CMSS17-4f" d="M 4096 2178 
C 4096 3503 3219 4497 2214 4497 
C 1210 4497 333 3497 333 2178 
C 333 847 1222 -128 2214 -128 
C 3206 -128 4096 847 4096 2178 
z
M 2214 273 
C 1510 273 870 1057 870 2261 
C 870 3433 1549 4096 2214 4096 
C 2880 4096 3558 3433 3558 2261 
C 3558 1051 2912 273 2214 273 
z
" transform="scale(0.015625)"/>
      </defs>
      <use xlink:href="#CMSS17-43" transform="scale(0.996264)"/>
      <use xlink:href="#CMSS17-42" transform="translate(59.855772 0) scale(0.996264)"/>
      <use xlink:href="#CMSS17-4f" transform="translate(122.193812 0) scale(0.996264)"/>
     </g>
    </g>
    <g id="line2d_16">
     <path d="M 40.911414 244.937643 
L 50.911414 244.937643 
L 60.911414 244.937643 
" style="fill: none; stroke: #d1dae9; stroke-width: 1.5; stroke-linecap: square"/>
    </g>
    <g id="text_13">
     <!-- SMD-CBO -->
     <g transform="translate(68.911414 248.437643) scale(0.1 -0.1)">
      <defs>
       <path id="CMSS17-53" d="M 2797 4169 
C 2515 4334 2208 4480 1690 4480 
C 864 4480 333 3879 333 3266 
C 333 3025 403 2753 653 2475 
C 902 2196 1184 2121 1542 2033 
C 1690 1994 1939 1924 1984 1906 
C 2342 1767 2515 1444 2515 1140 
C 2515 742 2202 318 1645 318 
C 1453 318 890 318 358 819 
L 269 318 
C 794 -64 1363 -128 1651 -128 
C 2438 -128 3002 488 3002 1186 
C 3002 1440 2925 1763 2656 2061 
C 2394 2347 2163 2410 1638 2549 
C 1338 2626 1146 2677 986 2873 
C 877 3013 819 3146 819 3317 
C 819 3673 1126 4060 1690 4060 
C 1971 4060 2336 4002 2707 3660 
L 2797 4169 
z
" transform="scale(0.015625)"/>
       <path id="CMSS17-4d" d="M 3194 2371 
L 2886 1473 
C 2835 1307 2662 791 2624 587 
L 2618 587 
C 2598 715 2560 849 2458 1174 
C 2400 1365 2336 1562 2272 1741 
L 1325 4416 
L 576 4416 
L 576 0 
L 1075 0 
L 1075 3900 
L 1082 3900 
C 1082 3894 1139 3613 1530 2499 
L 2374 96 
L 2848 96 
L 3610 2231 
C 3661 2378 3821 2843 3891 3066 
C 3955 3257 4115 3728 4154 3913 
L 4160 3913 
L 4160 0 
L 4666 0 
L 4666 4416 
L 3923 4416 
L 3194 2371 
z
" transform="scale(0.015625)"/>
       <path id="CMSS17-44" d="M 570 4416 
L 570 0 
L 2144 0 
C 3194 0 4000 980 4000 2170 
C 4000 3398 3194 4416 2144 4416 
L 570 4416 
z
M 1094 357 
L 1094 4059 
L 2003 4059 
C 2861 4059 3475 3277 3475 2170 
C 3475 1107 2867 357 2003 357 
L 1094 357 
z
" transform="scale(0.015625)"/>
       <path id="CMSS17-2d" d="M 1664 1216 
L 1664 1585 
L 64 1585 
L 64 1216 
L 1664 1216 
z
" transform="scale(0.015625)"/>
      </defs>
      <use xlink:href="#CMSS17-53" transform="scale(0.996264)"/>
      <use xlink:href="#CMSS17-4d" transform="translate(52.048516 0) scale(0.996264)"/>
      <use xlink:href="#CMSS17-44" transform="translate(133.724546 0) scale(0.996264)"/>
      <use xlink:href="#CMSS17-2d" transform="translate(201.267388 0) scale(0.996264)"/>
      <use xlink:href="#CMSS17-43" transform="translate(232.496501 0) scale(0.996264)"/>
      <use xlink:href="#CMSS17-42" transform="translate(292.352272 0) scale(0.996264)"/>
      <use xlink:href="#CMSS17-4f" transform="translate(354.690312 0) scale(0.996264)"/>
     </g>
    </g>
    <g id="line2d_17">
     <path d="M 40.911414 258.874822 
L 50.911414 258.874822 
L 60.911414 258.874822 
" style="fill: none; stroke: #3a4cc0; stroke-width: 1.5; stroke-linecap: square"/>
    </g>
    <g id="text_14">
     <!-- GCN-CBO -->
     <g transform="translate(68.911414 262.374822) scale(0.1 -0.1)">
      <defs>
       <path id="CMSS17-47" d="M 3610 1856 
L 2336 1856 
L 2336 1461 
L 3123 1461 
L 3123 471 
C 2874 401 2618 350 2362 350 
C 1466 350 934 1301 934 2200 
C 934 3095 1491 4032 2362 4032 
C 2854 4032 3130 3881 3469 3627 
L 3552 4134 
C 3130 4351 2867 4440 2387 4440 
C 1146 4440 397 3324 397 2182 
C 397 1090 1152 -64 2349 -64 
C 2797 -64 3213 51 3610 248 
L 3610 1856 
z
" transform="scale(0.015625)"/>
       <path id="CMSS17-4e" d="M 1466 4180 
L 1350 4416 
L 563 4416 
L 563 0 
L 1062 0 
L 1062 3926 
L 1069 3932 
C 1114 3817 1139 3760 1402 3194 
L 2771 236 
L 2886 0 
L 3674 0 
L 3674 4416 
L 3174 4416 
L 3174 490 
L 3168 483 
C 3123 598 3098 655 2835 1221 
L 1466 4180 
z
" transform="scale(0.015625)"/>
      </defs>
      <use xlink:href="#CMSS17-47" transform="scale(0.996264)"/>
      <use xlink:href="#CMSS17-43" transform="translate(62.458226 0) scale(0.996264)"/>
      <use xlink:href="#CMSS17-4e" transform="translate(122.313997 0) scale(0.996264)"/>
      <use xlink:href="#CMSS17-2d" transform="translate(188.375516 0) scale(0.996264)"/>
      <use xlink:href="#CMSS17-43" transform="translate(219.604629 0) scale(0.996264)"/>
      <use xlink:href="#CMSS17-42" transform="translate(279.460401 0) scale(0.996264)"/>
      <use xlink:href="#CMSS17-4f" transform="translate(341.798441 0) scale(0.996264)"/>
     </g>
    </g>
   </g>
  </g>
 </g>
 <defs>
  <clipPath id="p0a3782299c">
   <rect x="31.911414" y="7.2" width="357.12" height="266.112"/>
  </clipPath>
 </defs>
</svg>
