<?xml version="1.0" encoding="utf-8" standalone="no"?>
<!DOCTYPE svg PUBLIC "-//W3C//DTD SVG 1.1//EN"
  "http://www.w3.org/Graphics/SVG/1.1/DTD/svg11.dtd">
<svg xmlns:xlink="http://www.w3.org/1999/xlink" width="391.250079pt" height="296.367677pt" viewBox="0 0 391.250079 296.367677" xmlns="http://www.w3.org/2000/svg" version="1.1">
 <metadata>
  <rdf:RDF xmlns:dc="http://purl.org/dc/elements/1.1/" xmlns:cc="http://creativecommons.org/ns#" xmlns:rdf="http://www.w3.org/1999/02/22-rdf-syntax-ns#">
   <cc:Work>
    <dc:type rdf:resource="http://purl.org/dc/dcmitype/StillImage"/>
    <dc:date>2026-03-25T17:01:29.006884</dc:date>
    <dc:format>image/svg+xml</dc:format>
    <dc:creator>
     <cc:Agent>
      <dc:title>Matplotlib v3.10.7, https://matplotlib.org/</dc:title>
     </cc:Agent>
    </dc:creator>
   </cc:Work>
  </rdf:RDF>
 </metadata>
 <defs>
  <style type="text/css">*{stroke-linejoin: round; stroke-linecap: butt}</style>
 </defs>
 <g id="figure_1">
  <g id="patch_1">
   <path d="M 0 296.367677 
L 391.250079 296.367677 
L 391.250079 0 
L 0 0 
z
" style="fill: #ffffff"/>
  </g>
  <g id="axes_1">
   <g id="patch_2">
    <path d="M 26.930079 273.312 
L 384.050079 273.312 
L 384.050079 7.2 
L 26.930079 7.2 
z
" style="fill: #ffffff"/>
   </g>
   <g id="matplotlib.axis_1">
    <g id="xtick_1">
     <g id="line2d_1">
      <defs>
       <path id="m51f21f660a" d="M 0 0 
L 0 3.5 
" style="stroke: #000000; stroke-width: 0.8"/>
      </defs>
      <g>
       <use xlink:href="#m51f21f660a" x="43.162806" y="273.312" style="stroke: #000000; stroke-width: 0.8"/>
      </g>
     </g>
     <g id="text_1">
      <!-- $\mathdefault{0}$ -->
      <g transform="translate(40.672139 287.230498) scale(0.1 -0.1)">
       <defs>
        <path id="CMR17-30" d="M 2688 2025 
C 2688 2416 2682 3080 2413 3591 
C 2176 4039 1798 4198 1466 4198 
C 1158 4198 768 4058 525 3597 
C 269 3118 243 2524 243 2025 
C 243 1661 250 1106 448 619 
C 723 -39 1216 -128 1466 -128 
C 1760 -128 2208 -7 2470 600 
C 2662 1042 2688 1559 2688 2025 
z
M 1466 -26 
C 1056 -26 813 325 723 812 
C 653 1188 653 1738 653 2096 
C 653 2588 653 2997 736 3387 
C 858 3929 1216 4096 1466 4096 
C 1728 4096 2067 3923 2189 3400 
C 2272 3036 2278 2607 2278 2096 
C 2278 1680 2278 1169 2202 792 
C 2067 95 1690 -26 1466 -26 
z
" transform="scale(0.015625)"/>
       </defs>
       <use xlink:href="#CMR17-30" transform="scale(0.996264)"/>
      </g>
     </g>
    </g>
    <g id="xtick_2">
     <g id="line2d_2">
      <g>
       <use xlink:href="#m51f21f660a" x="108.093715" y="273.312" style="stroke: #000000; stroke-width: 0.8"/>
      </g>
     </g>
     <g id="text_2">
      <!-- $\mathdefault{200}$ -->
      <g transform="translate(100.621712 287.230498) scale(0.1 -0.1)">
       <defs>
        <path id="CMR17-32" d="M 2669 989 
L 2554 989 
C 2490 536 2438 459 2413 420 
C 2381 369 1920 369 1830 369 
L 602 369 
C 832 619 1280 1072 1824 1597 
C 2214 1967 2669 2402 2669 3035 
C 2669 3790 2067 4224 1395 4224 
C 691 4224 262 3604 262 3030 
C 262 2780 448 2748 525 2748 
C 589 2748 781 2787 781 3010 
C 781 3207 614 3264 525 3264 
C 486 3264 448 3258 422 3245 
C 544 3790 915 4058 1306 4058 
C 1862 4058 2227 3617 2227 3035 
C 2227 2479 1901 2000 1536 1584 
L 262 146 
L 262 0 
L 2515 0 
L 2669 989 
z
" transform="scale(0.015625)"/>
       </defs>
       <use xlink:href="#CMR17-32" transform="scale(0.996264)"/>
       <use xlink:href="#CMR17-30" transform="translate(45.690477 0) scale(0.996264)"/>
       <use xlink:href="#CMR17-30" transform="translate(91.380954 0) scale(0.996264)"/>
      </g>
     </g>
    </g>
    <g id="xtick_3">
     <g id="line2d_3">
      <g>
       <use xlink:href="#m51f21f660a" x="173.024624" y="273.312" style="stroke: #000000; stroke-width: 0.8"/>
      </g>
     </g>
     <g id="text_3">
      <!-- $\mathdefault{400}$ -->
      <g transform="translate(165.552622 287.230498) scale(0.1 -0.1)">
       <defs>
        <path id="CMR17-34" d="M 2150 4122 
C 2150 4256 2144 4256 2029 4256 
L 128 1254 
L 128 1088 
L 1779 1088 
L 1779 457 
C 1779 224 1766 160 1318 160 
L 1197 160 
L 1197 0 
C 1402 0 1747 0 1965 0 
C 2182 0 2528 0 2733 0 
L 2733 160 
L 2611 160 
C 2163 160 2150 224 2150 457 
L 2150 1088 
L 2803 1088 
L 2803 1254 
L 2150 1254 
L 2150 4122 
z
M 1798 3703 
L 1798 1254 
L 256 1254 
L 1798 3703 
z
" transform="scale(0.015625)"/>
       </defs>
       <use xlink:href="#CMR17-34" transform="scale(0.996264)"/>
       <use xlink:href="#CMR17-30" transform="translate(45.690477 0) scale(0.996264)"/>
       <use xlink:href="#CMR17-30" transform="translate(91.380954 0) scale(0.996264)"/>
      </g>
     </g>
    </g>
    <g id="xtick_4">
     <g id="line2d_4">
      <g>
       <use xlink:href="#m51f21f660a" x="237.955534" y="273.312" style="stroke: #000000; stroke-width: 0.8"/>
      </g>
     </g>
     <g id="text_4">
      <!-- $\mathdefault{600}$ -->
      <g transform="translate(230.483531 287.230498) scale(0.1 -0.1)">
       <defs>
        <path id="CMR17-36" d="M 678 2176 
C 678 3690 1395 4032 1811 4032 
C 1946 4032 2272 4009 2400 3776 
C 2298 3776 2106 3776 2106 3553 
C 2106 3381 2246 3323 2336 3323 
C 2394 3323 2566 3348 2566 3560 
C 2566 3954 2246 4179 1805 4179 
C 1043 4179 243 3390 243 1984 
C 243 253 966 -128 1478 -128 
C 2099 -128 2688 427 2688 1283 
C 2688 2081 2170 2662 1517 2662 
C 1126 2662 838 2407 678 1960 
L 678 2176 
z
M 1478 25 
C 691 25 691 1200 691 1436 
C 691 1896 909 2560 1504 2560 
C 1613 2560 1926 2560 2138 2120 
C 2253 1870 2253 1609 2253 1289 
C 2253 944 2253 690 2118 434 
C 1978 171 1773 25 1478 25 
z
" transform="scale(0.015625)"/>
       </defs>
       <use xlink:href="#CMR17-36" transform="scale(0.996264)"/>
       <use xlink:href="#CMR17-30" transform="translate(45.690477 0) scale(0.996264)"/>
       <use xlink:href="#CMR17-30" transform="translate(91.380954 0) scale(0.996264)"/>
      </g>
     </g>
    </g>
    <g id="xtick_5">
     <g id="line2d_5">
      <g>
       <use xlink:href="#m51f21f660a" x="302.886443" y="273.312" style="stroke: #000000; stroke-width: 0.8"/>
      </g>
     </g>
     <g id="text_5">
      <!-- $\mathdefault{800}$ -->
      <g transform="translate(295.41444 287.230498) scale(0.1 -0.1)">
       <defs>
        <path id="CMR17-38" d="M 1741 2264 
C 2144 2467 2554 2773 2554 3263 
C 2554 3841 1990 4179 1472 4179 
C 890 4179 378 3759 378 3180 
C 378 3021 416 2747 666 2505 
C 730 2442 998 2251 1171 2130 
C 883 1983 211 1634 211 934 
C 211 279 838 -128 1459 -128 
C 2144 -128 2720 362 2720 1010 
C 2720 1590 2330 1857 2074 2029 
L 1741 2264 
z
M 902 2822 
C 851 2854 595 3051 595 3351 
C 595 3739 998 4032 1459 4032 
C 1965 4032 2336 3676 2336 3262 
C 2336 2669 1670 2331 1638 2331 
C 1632 2331 1626 2331 1574 2370 
L 902 2822 
z
M 2080 1519 
C 2176 1449 2483 1240 2483 851 
C 2483 381 2010 25 1472 25 
C 890 25 448 438 448 940 
C 448 1443 838 1862 1280 2060 
L 2080 1519 
z
" transform="scale(0.015625)"/>
       </defs>
       <use xlink:href="#CMR17-38" transform="scale(0.996264)"/>
       <use xlink:href="#CMR17-30" transform="translate(45.690477 0) scale(0.996264)"/>
       <use xlink:href="#CMR17-30" transform="translate(91.380954 0) scale(0.996264)"/>
      </g>
     </g>
    </g>
    <g id="xtick_6">
     <g id="line2d_6">
      <g>
       <use xlink:href="#m51f21f660a" x="367.817352" y="273.312" style="stroke: #000000; stroke-width: 0.8"/>
      </g>
     </g>
     <g id="text_6">
      <!-- $\mathdefault{1000}$ -->
      <g transform="translate(357.854681 287.230498) scale(0.1 -0.1)">
       <defs>
        <path id="CMR17-31" d="M 1702 4058 
C 1702 4192 1696 4192 1606 4192 
C 1357 3916 979 3827 621 3827 
C 602 3827 570 3827 563 3808 
C 557 3795 557 3782 557 3648 
C 755 3648 1088 3686 1344 3839 
L 1344 461 
C 1344 236 1331 160 781 160 
L 589 160 
L 589 0 
C 896 0 1216 0 1523 0 
C 1830 0 2150 0 2458 0 
L 2458 160 
L 2266 160 
C 1715 160 1702 230 1702 458 
L 1702 4058 
z
" transform="scale(0.015625)"/>
       </defs>
       <use xlink:href="#CMR17-31" transform="scale(0.996264)"/>
       <use xlink:href="#CMR17-30" transform="translate(45.690477 0) scale(0.996264)"/>
       <use xlink:href="#CMR17-30" transform="translate(91.380954 0) scale(0.996264)"/>
       <use xlink:href="#CMR17-30" transform="translate(137.071431 0) scale(0.996264)"/>
      </g>
     </g>
    </g>
   </g>
   <g id="matplotlib.axis_2">
    <g id="ytick_1">
     <g id="line2d_7">
      <defs>
       <path id="m3530f247f3" d="M 0 0 
L -3.5 0 
" style="stroke: #000000; stroke-width: 0.8"/>
      </defs>
      <g>
       <use xlink:href="#m3530f247f3" x="26.930079" y="253.995975" style="stroke: #000000; stroke-width: 0.8"/>
      </g>
     </g>
     <g id="text_7">
      <!-- $\mathdefault{5.0}$ -->
      <g transform="translate(7.2 257.455225) scale(0.1 -0.1)">
       <defs>
        <path id="CMR17-35" d="M 730 3692 
C 794 3666 1056 3584 1325 3584 
C 1920 3584 2246 3911 2432 4100 
C 2432 4157 2432 4192 2394 4192 
C 2387 4192 2374 4192 2323 4163 
C 2099 4058 1837 3973 1517 3973 
C 1325 3973 1037 3999 723 4139 
C 653 4171 640 4171 634 4171 
C 602 4171 595 4164 595 4037 
L 595 2203 
C 595 2089 595 2057 659 2057 
C 691 2057 704 2070 736 2114 
C 941 2401 1222 2522 1542 2522 
C 1766 2522 2246 2382 2246 1289 
C 2246 1085 2246 715 2054 421 
C 1894 159 1645 25 1370 25 
C 947 25 518 320 403 814 
C 429 807 480 795 506 795 
C 589 795 749 840 749 1038 
C 749 1210 627 1280 506 1280 
C 358 1280 262 1190 262 1011 
C 262 454 704 -128 1382 -128 
C 2042 -128 2669 440 2669 1264 
C 2669 2030 2170 2624 1549 2624 
C 1222 2624 947 2503 730 2274 
L 730 3692 
z
" transform="scale(0.015625)"/>
        <path id="CMMI12-3a" d="M 1178 307 
C 1178 492 1024 619 870 619 
C 685 619 557 466 557 313 
C 557 128 710 0 864 0 
C 1050 0 1178 153 1178 307 
z
" transform="scale(0.015625)"/>
       </defs>
       <use xlink:href="#CMR17-35" transform="scale(0.996264)"/>
       <use xlink:href="#CMMI12-3a" transform="translate(45.690477 0) scale(0.996264)"/>
       <use xlink:href="#CMR17-30" transform="translate(72.787654 0) scale(0.996264)"/>
      </g>
     </g>
    </g>
    <g id="ytick_2">
     <g id="line2d_8">
      <g>
       <use xlink:href="#m3530f247f3" x="26.930079" y="208.491155" style="stroke: #000000; stroke-width: 0.8"/>
      </g>
     </g>
     <g id="text_8">
      <!-- $\mathdefault{5.2}$ -->
      <g transform="translate(7.2 211.950405) scale(0.1 -0.1)">
       <use xlink:href="#CMR17-35" transform="scale(0.996264)"/>
       <use xlink:href="#CMMI12-3a" transform="translate(45.690477 0) scale(0.996264)"/>
       <use xlink:href="#CMR17-32" transform="translate(72.787654 0) scale(0.996264)"/>
      </g>
     </g>
    </g>
    <g id="ytick_3">
     <g id="line2d_9">
      <g>
       <use xlink:href="#m3530f247f3" x="26.930079" y="162.986335" style="stroke: #000000; stroke-width: 0.8"/>
      </g>
     </g>
     <g id="text_9">
      <!-- $\mathdefault{5.4}$ -->
      <g transform="translate(7.2 166.445584) scale(0.1 -0.1)">
       <use xlink:href="#CMR17-35" transform="scale(0.996264)"/>
       <use xlink:href="#CMMI12-3a" transform="translate(45.690477 0) scale(0.996264)"/>
       <use xlink:href="#CMR17-34" transform="translate(72.787654 0) scale(0.996264)"/>
      </g>
     </g>
    </g>
    <g id="ytick_4">
     <g id="line2d_10">
      <g>
       <use xlink:href="#m3530f247f3" x="26.930079" y="117.481515" style="stroke: #000000; stroke-width: 0.8"/>
      </g>
     </g>
     <g id="text_10">
      <!-- $\mathdefault{5.6}$ -->
      <g transform="translate(7.2 120.940764) scale(0.1 -0.1)">
       <use xlink:href="#CMR17-35" transform="scale(0.996264)"/>
       <use xlink:href="#CMMI12-3a" transform="translate(45.690477 0) scale(0.996264)"/>
       <use xlink:href="#CMR17-36" transform="translate(72.787654 0) scale(0.996264)"/>
      </g>
     </g>
    </g>
    <g id="ytick_5">
     <g id="line2d_11">
      <g>
       <use xlink:href="#m3530f247f3" x="26.930079" y="71.976695" style="stroke: #000000; stroke-width: 0.8"/>
      </g>
     </g>
     <g id="text_11">
      <!-- $\mathdefault{5.8}$ -->
      <g transform="translate(7.2 75.435944) scale(0.1 -0.1)">
       <use xlink:href="#CMR17-35" transform="scale(0.996264)"/>
       <use xlink:href="#CMMI12-3a" transform="translate(45.690477 0) scale(0.996264)"/>
       <use xlink:href="#CMR17-38" transform="translate(72.787654 0) scale(0.996264)"/>
      </g>
     </g>
    </g>
    <g id="ytick_6">
     <g id="line2d_12">
      <g>
       <use xlink:href="#m3530f247f3" x="26.930079" y="26.471875" style="stroke: #000000; stroke-width: 0.8"/>
      </g>
     </g>
     <g id="text_12">
      <!-- $\mathdefault{6.0}$ -->
      <g transform="translate(7.2 29.931124) scale(0.1 -0.1)">
       <use xlink:href="#CMR17-36" transform="scale(0.996264)"/>
       <use xlink:href="#CMMI12-3a" transform="translate(45.690477 0) scale(0.996264)"/>
       <use xlink:href="#CMR17-30" transform="translate(72.787654 0) scale(0.996264)"/>
      </g>
     </g>
    </g>
   </g>
   <g id="line2d_13">
    <path d="M 43.162806 91.45999 
L 43.487461 71.930625 
L 43.812115 65.057535 
L 44.13677 66.891833 
L 44.786079 75.945754 
L 45.110734 76.760038 
L 45.435388 82.967766 
L 45.760043 95.103875 
L 46.084697 95.842754 
L 46.409352 108.050019 
L 46.734006 101.119272 
L 47.058661 104.161298 
L 47.383315 97.621671 
L 47.70797 93.54579 
L 48.032624 85.003127 
L 48.357279 94.623617 
L 48.681934 91.902128 
L 49.006588 90.917539 
L 49.331243 98.511895 
L 49.655897 100.754715 
L 49.980552 106.654666 
L 50.305206 100.777261 
L 50.629861 103.67853 
L 50.954515 103.430132 
L 51.27917 114.250803 
L 51.603824 114.696532 
L 51.928479 108.97923 
L 52.253134 116.744952 
L 52.577788 109.306925 
L 52.902443 96.540098 
L 53.227097 91.995276 
L 53.551752 97.202369 
L 53.876406 87.612236 
L 54.201061 90.585351 
L 54.525715 94.688072 
L 54.85037 95.152608 
L 55.175024 93.078642 
L 55.499679 101.74819 
L 56.148988 90.297362 
L 56.473643 91.315404 
L 56.798297 94.236163 
L 57.122952 89.245679 
L 57.447606 87.277247 
L 57.772261 94.900391 
L 58.096915 99.454005 
L 58.42157 94.647526 
L 58.746224 91.639745 
L 59.070879 101.803111 
L 59.395534 101.79401 
L 59.720188 104.178529 
L 60.044843 112.629019 
L 60.369497 109.862285 
L 60.694152 114.882703 
L 61.018806 106.301054 
L 61.343461 107.959895 
L 61.668115 114.267746 
L 61.99277 111.831714 
L 62.317424 122.431166 
L 62.642079 122.488271 
L 62.966734 119.381002 
L 63.291388 124.817136 
L 63.616043 116.286625 
L 63.940697 118.749395 
L 64.265352 129.864016 
L 64.590006 133.214362 
L 64.914661 130.59428 
L 65.239315 129.966693 
L 65.56397 132.705359 
L 65.888624 129.568294 
L 66.213279 122.636158 
L 66.537934 121.022955 
L 66.862588 126.367713 
L 67.836552 135.425436 
L 68.161206 135.757828 
L 68.810515 147.94722 
L 69.13517 154.096434 
L 69.459824 148.786358 
L 69.784479 152.045763 
L 70.109134 153.921344 
L 70.433788 159.046096 
L 70.758443 153.261117 
L 71.083097 143.868257 
L 71.407752 139.958757 
L 71.732406 140.422667 
L 72.057061 144.557685 
L 72.381715 146.16993 
L 72.70637 138.053013 
L 73.031024 133.550371 
L 73.355679 137.082312 
L 73.680334 123.176791 
L 74.004988 130.205824 
L 74.329643 142.220133 
L 74.978952 135.962837 
L 75.303606 138.732463 
L 75.628261 134.899979 
L 75.952915 136.981965 
L 76.27757 141.165489 
L 76.602224 130.720962 
L 76.926879 132.504322 
L 77.576188 117.955504 
L 77.900843 120.97105 
L 78.225497 116.428841 
L 78.550152 120.331586 
L 78.874806 114.787385 
L 79.199461 116.263483 
L 79.524115 127.398294 
L 79.84877 119.667308 
L 80.173424 121.733158 
L 80.498079 116.912183 
L 80.822734 114.439287 
L 81.147388 120.451623 
L 81.796697 127.46082 
L 82.121352 119.045615 
L 82.446006 118.484043 
L 82.770661 111.757766 
L 83.095315 112.219139 
L 83.744624 124.858545 
L 84.069279 117.664489 
L 84.393934 114.3239 
L 84.718588 112.962903 
L 85.043243 110.687252 
L 85.367897 115.996042 
L 85.692552 108.5769 
L 86.017206 112.764737 
L 86.341861 103.902263 
L 86.666515 114.549608 
L 86.99117 112.662542 
L 87.315824 111.603141 
L 87.965134 99.491858 
L 88.289788 110.843119 
L 88.614443 93.134616 
L 88.939097 96.805451 
L 89.588406 111.415452 
L 89.913061 101.760003 
L 90.237715 98.669257 
L 90.56237 98.249958 
L 90.887024 95.69285 
L 91.211679 94.376753 
L 91.536334 79.796669 
L 91.860988 91.242877 
L 92.185643 96.478248 
L 92.834952 92.41682 
L 93.159606 88.323469 
L 93.484261 95.027456 
L 93.808915 97.852531 
L 94.458224 86.556567 
L 94.782879 91.550883 
L 95.107534 82.279216 
L 95.432188 81.697256 
L 95.756843 79.376815 
L 96.081497 86.525881 
L 96.406152 82.669868 
L 96.730806 87.159684 
L 97.055461 97.024934 
L 97.380115 98.841016 
L 97.70477 86.59016 
L 98.029424 82.704889 
L 98.354079 94.079272 
L 98.678734 93.798619 
L 99.003388 106.446765 
L 99.328043 105.984332 
L 99.652697 92.679297 
L 99.977352 98.852161 
L 100.302006 89.269231 
L 100.626661 97.213119 
L 100.951315 94.268273 
L 101.27597 102.781002 
L 101.600624 114.510844 
L 101.925279 109.382499 
L 102.249934 122.277804 
L 102.574588 112.517655 
L 102.899243 114.994726 
L 103.223897 115.828136 
L 103.548552 113.88879 
L 104.197861 125.028209 
L 104.522515 112.418027 
L 104.84717 119.780474 
L 105.171824 116.788266 
L 105.496479 116.771562 
L 105.821134 116.283949 
L 106.145788 122.035749 
L 106.470443 119.933575 
L 106.795097 112.325454 
L 107.119752 113.95096 
L 107.444406 108.497256 
L 108.093715 119.510951 
L 108.41837 122.183268 
L 108.743024 131.339643 
L 109.067679 125.343219 
L 110.041643 120.283657 
L 110.366297 112.698862 
L 110.690952 114.846968 
L 111.015606 115.055948 
L 111.664915 107.974088 
L 111.98957 108.440101 
L 112.314224 114.117138 
L 112.638879 117.411103 
L 112.963534 113.715421 
L 113.288188 115.233924 
L 113.612843 115.339898 
L 114.262152 129.33123 
L 114.586806 131.737156 
L 114.911461 131.402624 
L 115.236115 137.444817 
L 115.56077 133.87731 
L 115.885424 126.067739 
L 116.210079 130.940575 
L 116.534734 140.651784 
L 116.859388 139.325282 
L 117.184043 139.648449 
L 117.508697 143.869476 
L 117.833352 155.169844 
L 118.158006 152.637805 
L 118.482661 154.363637 
L 119.13197 164.025785 
L 119.456624 162.172503 
L 119.781279 170.41501 
L 120.105934 166.772287 
L 120.430588 165.988911 
L 120.755243 167.87022 
L 121.404552 158.682833 
L 121.729206 155.47513 
L 122.053861 154.526192 
L 122.378515 162.446843 
L 122.70317 166.76348 
L 123.027824 163.128555 
L 123.352479 156.161465 
L 123.677134 155.797792 
L 124.326443 171.079822 
L 124.651097 173.113858 
L 124.975752 172.884787 
L 125.300406 174.600363 
L 125.625061 172.443847 
L 125.949715 164.663747 
L 126.27437 163.57393 
L 126.599024 165.663114 
L 127.248334 176.756417 
L 127.572988 179.82916 
L 128.546952 167.364797 
L 129.196261 171.180348 
L 129.520915 173.834887 
L 129.84557 168.218177 
L 130.170224 177.209705 
L 130.494879 171.472984 
L 130.819534 176.39164 
L 131.144188 175.790644 
L 131.468843 182.249868 
L 131.793497 177.676053 
L 132.118152 181.669079 
L 132.442806 166.823814 
L 132.767461 164.006783 
L 133.092115 164.805641 
L 133.41677 163.052503 
L 133.741424 165.07323 
L 134.066079 160.517774 
L 134.390734 144.274481 
L 135.040043 149.001004 
L 135.364697 150.692101 
L 135.689352 155.555822 
L 136.014006 156.998674 
L 136.663315 152.167151 
L 136.98797 152.689456 
L 137.312624 154.958204 
L 137.961934 169.435143 
L 138.286588 172.725559 
L 138.611243 187.513907 
L 138.935897 181.521234 
L 139.260552 181.282906 
L 139.585206 181.740473 
L 139.909861 179.348226 
L 140.234515 173.799973 
L 140.55917 176.120051 
L 141.208479 176.486885 
L 141.533134 159.608826 
L 141.857788 158.674699 
L 142.182443 158.276263 
L 142.507097 151.319109 
L 142.831752 141.393906 
L 143.156406 148.83526 
L 143.481061 149.233702 
L 144.13037 157.529218 
L 144.455024 160.684784 
L 144.779679 155.773406 
L 145.104334 147.80538 
L 145.428988 151.413763 
L 145.753643 158.618133 
L 146.078297 155.785537 
L 146.402952 162.75774 
L 146.727606 162.164478 
L 147.052261 162.85825 
L 147.376915 175.647945 
L 147.70157 172.645074 
L 148.026224 174.632294 
L 148.350879 171.715942 
L 148.675534 184.534649 
L 149.000188 180.512269 
L 149.324843 183.094324 
L 149.649497 176.086275 
L 149.974152 179.996935 
L 150.298806 195.421255 
L 150.948115 182.04927 
L 151.27277 180.795855 
L 151.597424 177.429705 
L 152.246734 173.582594 
L 152.896043 162.112826 
L 153.545352 167.921463 
L 153.870006 172.855543 
L 154.519315 189.144363 
L 154.84397 184.349342 
L 155.493279 190.741248 
L 155.817934 187.14586 
L 156.467243 192.838286 
L 156.791897 189.467956 
L 157.116552 184.056925 
L 157.441206 171.683264 
L 157.765861 168.629742 
L 158.090515 166.793648 
L 158.41517 158.566356 
L 158.739824 171.031015 
L 159.064479 175.912328 
L 159.389134 187.688424 
L 160.038443 190.699794 
L 160.363097 193.299205 
L 160.687752 196.924186 
L 161.012406 187.649709 
L 161.337061 184.637116 
L 161.661715 186.451124 
L 161.98637 191.112255 
L 162.311024 191.60447 
L 162.635679 195.817176 
L 162.960334 213.847533 
L 163.284988 208.307394 
L 163.609643 206.770688 
L 163.934297 218.424301 
L 164.258952 206.387879 
L 164.583606 205.466985 
L 164.908261 208.585575 
L 165.232915 204.226207 
L 165.55757 213.421536 
L 165.882224 206.034 
L 166.206879 194.706947 
L 166.531534 203.300826 
L 167.505497 183.720319 
L 167.830152 185.762906 
L 168.154806 171.978983 
L 168.479461 172.481367 
L 168.804115 160.983539 
L 169.12877 163.600722 
L 169.453424 171.400619 
L 169.778079 174.812186 
L 170.102734 181.612064 
L 170.427388 169.253775 
L 170.752043 170.407544 
L 171.401352 174.271699 
L 171.726006 187.065825 
L 172.050661 171.930146 
L 172.375315 190.229846 
L 172.69997 191.744621 
L 173.024624 180.894424 
L 173.349279 193.696542 
L 173.673934 191.532577 
L 173.998588 190.230227 
L 174.323243 193.795684 
L 174.647897 194.934053 
L 174.972552 202.17493 
L 175.297206 198.45629 
L 175.621861 191.047338 
L 175.946515 190.797775 
L 176.595824 173.369267 
L 176.920479 177.091603 
L 177.245134 173.515476 
L 177.569788 175.209768 
L 177.894443 185.562328 
L 178.219097 177.692308 
L 178.543752 176.318877 
L 178.868406 190.810904 
L 179.193061 182.916706 
L 179.84237 187.830089 
L 180.167024 184.275149 
L 180.491679 183.753568 
L 180.816334 193.22875 
L 181.140988 193.265228 
L 181.465643 199.749367 
L 181.790297 203.522512 
L 182.114952 209.474145 
L 182.439606 210.477843 
L 182.764261 209.950457 
L 183.088915 216.30886 
L 183.738224 208.10803 
L 184.062879 210.041914 
L 184.387534 210.990483 
L 184.712188 206.675709 
L 185.036843 214.381855 
L 185.361497 210.860714 
L 185.686152 218.788178 
L 186.010806 200.197574 
L 186.335461 200.738465 
L 186.660115 208.731249 
L 186.98477 208.258943 
L 187.309424 204.937383 
L 187.634079 219.072096 
L 187.958734 228.066179 
L 188.283388 227.727838 
L 188.608043 229.129661 
L 188.932697 235.723333 
L 189.257352 230.200028 
L 189.582006 219.186771 
L 189.906661 222.749968 
L 190.231315 215.153578 
L 190.55597 217.485385 
L 190.880624 222.179717 
L 191.205279 212.237216 
L 191.529934 215.731209 
L 191.854588 214.307202 
L 192.179243 212.106631 
L 192.503897 211.474894 
L 192.828552 207.480587 
L 193.153206 200.390329 
L 193.477861 201.034375 
L 193.802515 197.763601 
L 194.12717 199.683474 
L 194.451824 206.056783 
L 194.776479 209.637123 
L 195.101134 208.759166 
L 195.425788 217.71905 
L 196.399752 201.12557 
L 196.724406 197.020299 
L 197.049061 197.453368 
L 197.373715 187.528954 
L 197.69837 194.399915 
L 198.023024 185.26119 
L 198.347679 184.433988 
L 198.672334 188.684615 
L 199.321643 202.213068 
L 199.646297 201.860363 
L 199.970952 196.655882 
L 200.295606 211.566487 
L 200.620261 202.162614 
L 200.944915 202.34867 
L 201.26957 217.541641 
L 201.594224 217.881623 
L 201.918879 231.703454 
L 202.243534 238.076995 
L 203.217497 212.125309 
L 203.542152 225.94176 
L 203.866806 213.032455 
L 204.191461 221.754481 
L 204.516115 217.366515 
L 204.84077 203.371217 
L 205.165424 209.658309 
L 205.490079 212.701143 
L 205.814734 211.018856 
L 206.139388 208.501297 
L 206.464043 210.973883 
L 206.788697 210.23963 
L 207.113352 214.909118 
L 207.438006 231.123824 
L 207.762661 229.793121 
L 208.087315 230.510424 
L 208.41197 234.88099 
L 208.736624 230.507022 
L 209.061279 233.559558 
L 209.385934 238.738803 
L 210.035243 229.840028 
L 210.359897 229.80108 
L 210.684552 228.763897 
L 211.009206 225.378197 
L 211.333861 233.507305 
L 211.98317 208.342697 
L 212.307824 207.228032 
L 212.632479 197.658364 
L 212.957134 203.171059 
L 213.281788 191.267631 
L 213.606443 186.504451 
L 214.255752 207.419399 
L 214.580406 199.457778 
L 214.905061 202.100577 
L 215.229715 198.130619 
L 215.55437 206.393154 
L 215.879024 202.886747 
L 216.203679 211.109704 
L 216.528334 224.251541 
L 216.852988 225.52325 
L 217.177643 209.033332 
L 217.502297 215.029993 
L 217.826952 203.195092 
L 218.151606 206.803376 
L 218.476261 206.93836 
L 218.800915 187.77357 
L 219.12557 181.722325 
L 219.450224 191.171657 
L 219.774879 188.722315 
L 220.424188 201.805299 
L 220.748843 213.478849 
L 221.073497 204.572027 
L 221.398152 202.612378 
L 221.722806 216.195014 
L 222.047461 223.238931 
L 222.372115 211.802437 
L 222.69677 208.359158 
L 223.021424 190.74939 
L 223.346079 201.441544 
L 223.670734 197.364737 
L 224.320043 202.163521 
L 224.644697 198.09459 
L 224.969352 201.675467 
L 225.294006 199.439341 
L 225.618661 202.08223 
L 225.943315 190.460554 
L 226.26797 201.278855 
L 226.592624 205.527678 
L 226.917279 206.735774 
L 227.241934 204.527917 
L 227.566588 195.319956 
L 227.891243 194.815606 
L 228.215897 193.621994 
L 228.540552 188.593488 
L 228.865206 194.311439 
L 229.189861 194.70482 
L 229.514515 183.711483 
L 229.83917 180.266669 
L 230.163824 185.063483 
L 230.488479 193.399483 
L 230.813134 196.606116 
L 231.137788 177.675359 
L 231.462443 180.043155 
L 231.787097 173.38709 
L 232.111752 171.474099 
L 232.436406 170.526775 
L 233.085715 192.173381 
L 233.41037 193.18258 
L 233.735024 189.539891 
L 234.708988 206.106599 
L 235.358297 193.389941 
L 235.682952 198.526642 
L 236.007606 188.486154 
L 236.332261 183.912743 
L 236.656915 181.858118 
L 236.98157 186.860398 
L 237.306224 197.215115 
L 237.630879 213.744279 
L 237.955534 206.555812 
L 238.280188 191.166358 
L 238.604843 196.807695 
L 238.929497 195.645984 
L 239.254152 205.681285 
L 239.578806 211.612789 
L 239.903461 209.941164 
L 240.228115 211.490437 
L 241.202079 190.147081 
L 241.526734 194.038791 
L 241.851388 193.868012 
L 242.176043 192.488516 
L 242.500697 193.000514 
L 242.825352 189.91602 
L 243.150006 199.496422 
L 243.474661 187.538058 
L 243.799315 184.626962 
L 244.448624 202.52867 
L 245.097934 212.356124 
L 245.422588 200.373528 
L 245.747243 214.450769 
L 246.396552 195.793091 
L 246.721206 195.39322 
L 247.045861 199.803571 
L 247.370515 196.539734 
L 247.69517 190.663245 
L 248.019824 191.562103 
L 248.344479 191.90789 
L 248.669134 179.563199 
L 248.993788 176.123412 
L 249.643097 159.874777 
L 249.967752 167.019132 
L 250.292406 169.1282 
L 250.617061 184.610363 
L 250.941715 185.892687 
L 251.591024 194.316956 
L 251.915679 189.743383 
L 252.240334 191.06381 
L 252.564988 183.43907 
L 252.889643 188.232132 
L 253.214297 190.238081 
L 253.538952 190.54377 
L 253.863606 191.906644 
L 254.188261 194.222766 
L 254.512915 194.925572 
L 254.83757 189.930459 
L 255.162224 193.402511 
L 255.486879 193.228978 
L 256.136188 182.825573 
L 256.460843 187.903477 
L 256.785497 176.052395 
L 257.110152 182.442782 
L 257.434806 180.716745 
L 257.759461 182.342264 
L 258.084115 170.544859 
L 258.40877 172.804142 
L 258.733424 168.353436 
L 259.058079 174.40609 
L 259.382734 171.298535 
L 259.707388 177.845772 
L 260.032043 171.287949 
L 260.356697 167.097495 
L 260.681352 159.290566 
L 261.006006 157.397851 
L 261.330661 159.34785 
L 261.655315 175.758255 
L 261.97997 173.664055 
L 262.304624 168.405982 
L 262.629279 165.312856 
L 262.953934 166.743451 
L 263.278588 166.516972 
L 263.603243 170.359877 
L 263.927897 177.986058 
L 264.252552 176.248049 
L 264.577206 187.345247 
L 264.901861 182.786563 
L 265.226515 182.630596 
L 265.55117 183.338063 
L 265.875824 178.043005 
L 266.200479 186.812393 
L 266.849788 171.612921 
L 267.174443 170.078711 
L 267.499097 180.490869 
L 267.823752 178.63114 
L 268.473061 150.884356 
L 268.797715 151.869599 
L 269.12237 151.744244 
L 269.447024 163.783223 
L 270.096334 142.830429 
L 270.420988 145.495274 
L 270.745643 141.715476 
L 271.070297 148.06734 
L 271.394952 157.632761 
L 271.719606 157.049233 
L 272.044261 174.966693 
L 272.368915 165.482939 
L 272.69357 166.164154 
L 273.018224 160.922336 
L 273.667534 174.724086 
L 273.992188 172.061428 
L 274.641497 180.514584 
L 275.290806 167.794003 
L 275.615461 164.510726 
L 275.940115 167.880623 
L 276.26477 172.475828 
L 276.589424 168.550014 
L 276.914079 173.107715 
L 277.238734 168.463903 
L 277.563388 170.380564 
L 277.888043 183.770958 
L 278.212697 169.815469 
L 278.537352 174.11413 
L 278.862006 181.775271 
L 279.186661 178.67517 
L 279.83597 176.082773 
L 280.160624 178.09994 
L 280.809934 175.942385 
L 281.134588 181.794971 
L 281.459243 176.108706 
L 281.783897 183.203909 
L 282.757861 169.236852 
L 283.082515 168.434297 
L 283.40717 166.755273 
L 283.731824 176.786965 
L 284.381134 185.016635 
L 284.705788 190.388699 
L 285.030443 193.681553 
L 285.355097 195.258779 
L 285.679752 199.481861 
L 286.329061 230.578648 
L 286.653715 225.626372 
L 287.303024 205.21427 
L 287.627679 201.934482 
L 287.952334 215.425678 
L 288.276988 214.699793 
L 288.601643 207.899089 
L 288.926297 196.485632 
L 289.250952 189.726652 
L 289.575606 187.976477 
L 289.900261 198.526601 
L 290.224915 198.182073 
L 290.54957 188.513174 
L 290.874224 195.824401 
L 291.198879 189.231286 
L 291.523534 191.845795 
L 291.848188 187.940494 
L 292.172843 201.660621 
L 292.497497 194.308386 
L 292.822152 198.516016 
L 293.146806 205.021314 
L 293.471461 204.30662 
L 293.796115 200.310403 
L 294.12077 190.778913 
L 294.445424 197.216398 
L 294.770079 182.90846 
L 295.094734 173.563593 
L 295.419388 183.438186 
L 295.744043 171.40092 
L 296.068697 166.111027 
L 296.393352 163.530797 
L 296.718006 168.960002 
L 297.042661 184.929674 
L 297.367315 180.779339 
L 297.69197 186.111458 
L 298.016624 184.126008 
L 298.341279 187.183213 
L 298.665934 180.410421 
L 298.990588 196.432871 
L 299.315243 194.010351 
L 299.639897 192.766857 
L 299.964552 183.352958 
L 300.289206 195.884875 
L 300.613861 188.124489 
L 300.938515 190.686528 
L 301.26317 185.217017 
L 301.587824 186.718861 
L 302.561788 206.735244 
L 302.886443 192.293044 
L 303.535752 211.831458 
L 303.860406 204.107717 
L 304.185061 213.316511 
L 304.509715 210.380912 
L 304.83437 213.968907 
L 305.159024 197.718869 
L 305.483679 196.585916 
L 305.808334 203.261983 
L 306.132988 201.942205 
L 306.457643 197.729998 
L 306.782297 188.292746 
L 307.106952 182.862089 
L 308.730224 204.200068 
L 309.054879 193.886938 
L 309.379534 195.867795 
L 309.704188 184.710268 
L 310.028843 188.372765 
L 310.353497 186.68175 
L 310.678152 183.065665 
L 311.002806 197.828919 
L 311.652115 204.749506 
L 311.97677 204.86878 
L 312.301424 215.719193 
L 312.626079 211.185997 
L 312.950734 195.493815 
L 313.275388 204.01383 
L 313.600043 198.323471 
L 313.924697 179.929191 
L 314.249352 183.252538 
L 314.574006 199.899859 
L 314.898661 186.152342 
L 315.223315 181.334241 
L 315.54797 182.890045 
L 315.872624 185.832389 
L 316.197279 178.832507 
L 316.521934 180.53282 
L 316.846588 181.031135 
L 317.171243 179.814602 
L 317.495897 179.046542 
L 317.820552 174.411934 
L 318.145206 176.096303 
L 318.469861 186.832014 
L 318.794515 179.16118 
L 319.11917 190.996798 
L 319.443824 194.720657 
L 319.768479 183.308361 
L 320.093134 184.141998 
L 320.417788 183.646186 
L 320.742443 183.855368 
L 321.067097 191.827624 
L 321.391752 188.273231 
L 321.716406 180.072647 
L 322.69037 209.826869 
L 323.015024 194.942452 
L 323.339679 199.606842 
L 323.664334 206.276651 
L 323.988988 205.964146 
L 324.313643 193.161525 
L 324.638297 188.769177 
L 324.962952 196.264077 
L 325.287606 196.671663 
L 325.612261 196.565916 
L 326.26157 219.278844 
L 326.586224 223.427739 
L 327.560188 215.855989 
L 327.884843 213.322139 
L 328.209497 205.075871 
L 328.534152 207.273996 
L 328.858806 202.395834 
L 329.508115 216.895805 
L 329.83277 218.509658 
L 330.157424 228.75176 
L 330.806734 225.415153 
L 331.131388 219.075418 
L 331.456043 218.653476 
L 331.780697 215.077537 
L 332.105352 217.781114 
L 332.430006 213.243227 
L 332.754661 216.139535 
L 333.079315 221.115109 
L 333.40397 220.706095 
L 333.728624 229.761205 
L 334.053279 228.154941 
L 334.377934 239.52298 
L 334.702588 222.266907 
L 335.027243 221.56051 
L 335.351897 240.839455 
L 335.676552 237.963389 
L 336.001206 237.359732 
L 336.325861 239.40962 
L 336.650515 252.378914 
L 336.97517 246.269887 
L 337.299824 253.693171 
L 338.273788 261.216 
L 338.598443 252.779288 
L 339.572406 238.092278 
L 339.897061 234.508239 
L 340.221715 232.383992 
L 341.195679 239.330943 
L 341.520334 231.880596 
L 341.844988 235.095944 
L 342.169643 234.780521 
L 342.494297 226.19359 
L 342.818952 222.997735 
L 343.143606 221.81745 
L 343.468261 207.729684 
L 343.792915 227.218701 
L 344.11757 221.529742 
L 344.442224 223.850788 
L 344.766879 206.605684 
L 345.416188 213.63762 
L 345.740843 222.3563 
L 346.065497 212.758441 
L 346.390152 213.730185 
L 346.714806 202.902687 
L 347.364115 188.000044 
L 347.68877 186.433978 
L 348.013424 183.746488 
L 348.338079 183.128954 
L 348.662734 179.926821 
L 348.987388 175.541911 
L 349.312043 183.28624 
L 349.636697 175.838335 
L 350.286006 170.346947 
L 350.610661 171.270433 
L 350.935315 162.728448 
L 351.25997 163.978679 
L 351.584624 157.687866 
L 351.909279 158.396429 
L 352.233934 154.228116 
L 352.558588 157.83857 
L 352.883243 149.296709 
L 353.207897 153.930906 
L 353.532552 149.332867 
L 353.857206 148.767323 
L 354.181861 149.69759 
L 354.506515 149.509199 
L 354.83117 140.098505 
L 355.155824 150.929579 
L 355.480479 150.685041 
L 355.805134 157.736287 
L 356.129788 153.331933 
L 356.454443 155.503945 
L 356.779097 146.978365 
L 357.103752 146.803628 
L 357.428406 149.826538 
L 357.753061 146.426628 
L 358.077715 140.271047 
L 358.40237 142.31243 
L 358.727024 148.709711 
L 359.051679 152.216599 
L 359.376334 141.873915 
L 359.700988 149.098151 
L 360.025643 145.931385 
L 360.350297 152.645345 
L 360.674952 152.643522 
L 360.999606 146.377911 
L 361.324261 147.632544 
L 361.648915 159.036357 
L 361.97357 153.834779 
L 362.298224 150.542391 
L 362.622879 143.184561 
L 362.947534 145.50076 
L 363.272188 134.451135 
L 363.596843 132.192001 
L 363.921497 133.784902 
L 364.246152 131.861511 
L 364.570806 133.491618 
L 364.895461 136.163715 
L 365.220115 128.233017 
L 365.54477 129.835564 
L 365.869424 127.288265 
L 366.518734 133.579928 
L 366.843388 139.463411 
L 367.168043 129.136558 
L 367.492697 129.702602 
L 367.817352 129.374448 
L 367.817352 129.374448 
" clip-path="url(#p827f451480)" style="fill: none; stroke: #e46e56; stroke-width: 1.5; stroke-linecap: square"/>
   </g>
   <g id="line2d_14">
    <path d="M 43.162806 105.056843 
L 43.487461 94.714217 
L 43.812115 96.099239 
L 44.13677 91.626588 
L 44.461424 76.360883 
L 45.110734 92.890138 
L 45.435388 88.295577 
L 45.760043 94.445626 
L 46.084697 93.208683 
L 46.409352 91.02977 
L 46.734006 99.792773 
L 47.058661 88.096761 
L 47.383315 100.325926 
L 47.70797 91.575187 
L 48.032624 94.205762 
L 48.357279 93.99543 
L 48.681934 90.264766 
L 49.006588 99.047164 
L 49.331243 85.487654 
L 49.655897 93.725635 
L 49.980552 92.515196 
L 50.305206 101.565715 
L 50.629861 86.230801 
L 50.954515 81.222055 
L 51.27917 74.208318 
L 51.603824 87.969001 
L 51.928479 81.969549 
L 52.253134 81.208601 
L 52.902443 85.566818 
L 53.227097 85.444557 
L 53.551752 86.56319 
L 53.876406 84.734418 
L 54.201061 84.845229 
L 54.525715 80.721715 
L 54.85037 90.098276 
L 55.175024 86.765249 
L 55.499679 89.035721 
L 56.148988 74.994625 
L 56.473643 76.518732 
L 56.798297 86.440993 
L 57.122952 88.336382 
L 57.447606 92.757682 
L 58.42157 99.23886 
L 58.746224 98.627641 
L 59.070879 86.582716 
L 59.395534 98.178753 
L 59.720188 87.474304 
L 60.044843 95.634078 
L 60.369497 95.199466 
L 61.018806 121.69938 
L 61.343461 122.474119 
L 61.668115 131.807868 
L 61.99277 128.196456 
L 62.317424 133.420618 
L 62.966734 119.218838 
L 63.291388 119.590133 
L 63.616043 117.8568 
L 63.940697 118.90085 
L 64.265352 118.57119 
L 64.590006 106.865819 
L 64.914661 109.925773 
L 65.239315 110.109595 
L 65.56397 106.141166 
L 65.888624 111.008095 
L 66.213279 119.541775 
L 66.537934 115.298358 
L 67.511897 124.705608 
L 67.836552 131.229801 
L 68.485861 125.968701 
L 68.810515 113.15134 
L 69.13517 108.856759 
L 69.459824 97.149772 
L 69.784479 91.856171 
L 70.109134 89.207266 
L 70.433788 89.408896 
L 70.758443 87.377201 
L 71.083097 93.754877 
L 71.407752 78.060736 
L 71.732406 89.791565 
L 72.057061 86.619867 
L 72.70637 100.082559 
L 73.031024 92.636086 
L 73.355679 92.999768 
L 73.680334 90.486402 
L 74.004988 96.693576 
L 74.329643 91.552208 
L 74.654297 88.369279 
L 74.978952 83.03898 
L 75.303606 64.959111 
L 75.628261 68.59256 
L 75.952915 83.797744 
L 76.27757 80.782015 
L 76.602224 91.066116 
L 77.251534 70.608866 
L 77.900843 87.762962 
L 78.550152 98.499964 
L 78.874806 111.514789 
L 79.199461 108.618405 
L 79.84877 96.633531 
L 80.173424 88.508513 
L 81.147388 104.443555 
L 81.472043 95.783402 
L 81.796697 98.672619 
L 82.121352 100.222188 
L 82.770661 124.790453 
L 83.095315 119.843084 
L 83.41997 108.162245 
L 83.744624 119.325314 
L 84.718588 93.553757 
L 85.043243 88.800927 
L 85.367897 88.196969 
L 85.692552 82.171668 
L 86.017206 82.16417 
L 86.666515 73.839023 
L 86.99117 86.846458 
L 87.315824 69.916132 
L 87.640479 68.563235 
L 87.965134 79.987679 
L 88.289788 83.877742 
L 88.614443 100.833969 
L 88.939097 106.59656 
L 89.263752 114.83098 
L 89.588406 112.201676 
L 89.913061 116.492835 
L 90.237715 125.57069 
L 90.56237 129.368134 
L 90.887024 119.606947 
L 91.211679 118.57986 
L 91.536334 102.692269 
L 91.860988 100.775578 
L 92.185643 96.588532 
L 92.510297 101.078193 
L 92.834952 114.725574 
L 93.484261 103.578123 
L 93.808915 110.334764 
L 94.13357 112.720131 
L 94.458224 109.37932 
L 94.782879 108.181819 
L 95.107534 111.244842 
L 95.432188 107.255578 
L 95.756843 107.290624 
L 96.081497 101.881241 
L 96.406152 100.525738 
L 96.730806 104.085272 
L 97.380115 119.908658 
L 97.70477 115.918489 
L 98.029424 120.442098 
L 98.354079 121.1941 
L 98.678734 129.128081 
L 99.003388 123.627968 
L 99.328043 124.55959 
L 99.652697 128.315772 
L 99.977352 137.087223 
L 100.302006 141.331773 
L 100.626661 141.587333 
L 100.951315 138.496199 
L 101.27597 138.713591 
L 101.925279 122.447685 
L 102.249934 105.026513 
L 102.574588 101.32204 
L 102.899243 108.268958 
L 103.223897 102.566278 
L 103.873206 124.606952 
L 104.522515 132.352726 
L 104.84717 129.762471 
L 105.496479 117.641397 
L 105.821134 114.91264 
L 106.145788 106.762957 
L 106.470443 102.17118 
L 106.795097 99.726102 
L 107.119752 96.33526 
L 107.444406 98.419831 
L 107.769061 91.405046 
L 108.093715 88.342624 
L 108.41837 89.060025 
L 108.743024 94.009441 
L 109.067679 92.015711 
L 109.392334 94.769127 
L 109.716988 87.490373 
L 110.041643 88.046886 
L 110.366297 88.244351 
L 110.690952 79.034807 
L 111.015606 89.246758 
L 111.340261 93.687267 
L 111.98957 79.017104 
L 112.314224 84.610479 
L 112.963534 70.622305 
L 113.288188 75.568948 
L 113.612843 69.997425 
L 113.937497 72.169231 
L 114.262152 81.059036 
L 114.911461 75.863342 
L 115.236115 81.767794 
L 115.56077 77.052571 
L 116.210079 83.329668 
L 116.534734 82.404518 
L 116.859388 75.390057 
L 117.184043 89.716528 
L 117.508697 92.819498 
L 117.833352 87.965978 
L 118.158006 91.325774 
L 118.482661 88.157575 
L 118.807315 80.528131 
L 119.13197 83.57701 
L 119.456624 79.685677 
L 119.781279 82.535629 
L 120.105934 78.706374 
L 120.430588 70.499809 
L 120.755243 73.597238 
L 121.079897 74.135798 
L 121.404552 73.916726 
L 121.729206 72.664115 
L 122.053861 86.681222 
L 122.378515 77.8196 
L 122.70317 80.622794 
L 123.027824 80.12428 
L 123.352479 82.200524 
L 123.677134 75.214257 
L 124.001788 63.695172 
L 124.326443 74.952901 
L 124.651097 73.17983 
L 124.975752 76.372089 
L 125.300406 75.843726 
L 125.625061 88.068162 
L 125.949715 92.222505 
L 126.27437 88.357826 
L 126.599024 89.484166 
L 126.923679 80.725075 
L 127.248334 87.561695 
L 127.572988 83.835392 
L 127.897643 77.601152 
L 128.222297 77.300533 
L 128.546952 79.612488 
L 128.871606 87.443629 
L 129.196261 90.619873 
L 129.520915 101.672158 
L 129.84557 96.736824 
L 130.170224 95.644178 
L 130.494879 102.132626 
L 130.819534 95.738823 
L 131.144188 91.655038 
L 131.468843 89.57161 
L 131.793497 89.723463 
L 132.118152 93.117803 
L 132.442806 103.79722 
L 132.767461 101.986404 
L 133.092115 120.916417 
L 133.41677 127.242298 
L 133.741424 130.272897 
L 134.066079 135.451847 
L 134.390734 121.225389 
L 134.715388 126.637753 
L 135.040043 121.609458 
L 135.364697 109.005146 
L 135.689352 110.281363 
L 136.014006 107.42868 
L 136.338661 102.715394 
L 136.663315 79.446638 
L 136.98797 80.337255 
L 137.637279 58.049287 
L 137.961934 53.85707 
L 138.286588 56.396561 
L 138.611243 62.816885 
L 138.935897 52.767416 
L 139.909861 89.885206 
L 140.234515 89.522406 
L 140.55917 88.388413 
L 140.883824 109.083952 
L 141.208479 110.34481 
L 141.533134 102.027115 
L 141.857788 83.369602 
L 142.507097 97.194456 
L 142.831752 105.69954 
L 143.156406 106.62068 
L 143.481061 104.228833 
L 144.13037 96.244391 
L 144.455024 86.394842 
L 144.779679 89.625292 
L 145.104334 90.509772 
L 145.428988 92.315139 
L 145.753643 96.163239 
L 146.078297 97.519584 
L 146.402952 107.971632 
L 146.727606 99.089903 
L 147.052261 108.600174 
L 147.376915 110.319228 
L 147.70157 100.488801 
L 148.026224 109.329899 
L 148.350879 104.487558 
L 148.675534 110.189967 
L 149.000188 103.589813 
L 149.324843 109.68741 
L 149.649497 102.815571 
L 149.974152 115.319627 
L 150.298806 115.965103 
L 150.623461 118.05687 
L 150.948115 112.540419 
L 151.27277 100.83907 
L 151.597424 98.6262 
L 152.246734 115.312633 
L 152.571388 101.275101 
L 152.896043 99.870727 
L 153.220697 104.107479 
L 153.870006 92.647032 
L 154.519315 83.10854 
L 154.84397 62.044261 
L 155.168624 62.947339 
L 155.493279 70.32471 
L 155.817934 67.44097 
L 156.142588 65.959455 
L 156.467243 58.021643 
L 156.791897 55.904985 
L 157.116552 52.548721 
L 157.441206 62.862463 
L 157.765861 63.769581 
L 158.090515 70.525857 
L 158.41517 69.142879 
L 159.064479 78.577745 
L 159.389134 72.463422 
L 159.713788 75.442886 
L 160.038443 70.262355 
L 160.363097 59.834484 
L 160.687752 60.950469 
L 161.012406 73.004265 
L 161.337061 70.635918 
L 161.661715 61.589417 
L 161.98637 57.838593 
L 162.311024 42.024677 
L 162.635679 50.539643 
L 162.960334 55.061797 
L 163.284988 63.787774 
L 163.609643 54.589765 
L 163.934297 62.255878 
L 164.258952 62.666692 
L 164.908261 81.865995 
L 165.232915 74.376553 
L 165.55757 70.707577 
L 165.882224 72.370944 
L 166.206879 66.707714 
L 166.531534 53.113061 
L 166.856188 58.838676 
L 167.180843 50.425775 
L 167.830152 60.759106 
L 168.154806 61.776107 
L 168.804115 52.217009 
L 169.12877 50.787684 
L 169.453424 48.777895 
L 169.778079 45.904506 
L 170.102734 44.715058 
L 170.427388 57.289536 
L 170.752043 59.0503 
L 171.076697 65.124495 
L 171.401352 59.967027 
L 171.726006 78.847522 
L 172.050661 79.30439 
L 172.375315 77.866224 
L 172.69997 76.978437 
L 173.024624 90.995383 
L 173.349279 85.56412 
L 173.673934 96.734063 
L 173.998588 95.341977 
L 174.323243 107.03473 
L 174.647897 103.596042 
L 174.972552 103.687593 
L 175.297206 99.033182 
L 175.621861 103.665447 
L 175.946515 103.546922 
L 176.27117 92.469951 
L 176.595824 89.727455 
L 176.920479 83.894853 
L 177.245134 86.250147 
L 177.569788 78.113661 
L 177.894443 94.719534 
L 178.219097 90.180706 
L 178.543752 100.831909 
L 178.868406 100.994456 
L 179.193061 98.139919 
L 179.517715 102.475518 
L 179.84237 95.610605 
L 180.167024 91.488439 
L 180.491679 90.341399 
L 181.140988 99.583471 
L 181.790297 83.206536 
L 182.114952 89.425389 
L 182.439606 88.417687 
L 182.764261 97.807963 
L 183.088915 97.391953 
L 183.41357 91.698912 
L 183.738224 104.203231 
L 184.712188 93.371611 
L 185.036843 81.202578 
L 185.361497 83.38305 
L 185.686152 90.727636 
L 186.010806 103.795204 
L 186.335461 101.486238 
L 186.660115 90.761458 
L 186.98477 103.763907 
L 187.309424 92.845206 
L 187.634079 102.325454 
L 187.958734 97.041679 
L 188.283388 108.386868 
L 188.608043 111.951285 
L 188.932697 111.445553 
L 189.257352 115.313016 
L 189.582006 110.652671 
L 189.906661 102.668161 
L 190.231315 107.007415 
L 190.880624 132.959813 
L 191.205279 139.66563 
L 191.529934 138.046385 
L 191.854588 130.580265 
L 192.179243 131.433001 
L 192.503897 126.882012 
L 192.828552 119.806531 
L 193.153206 129.399688 
L 193.802515 138.399859 
L 194.12717 140.461988 
L 194.776479 131.351653 
L 195.101134 128.318414 
L 195.425788 126.707793 
L 195.750443 130.882455 
L 196.399752 112.943915 
L 196.724406 112.984044 
L 197.373715 102.676892 
L 197.69837 103.633282 
L 198.023024 96.233734 
L 198.347679 105.730175 
L 198.672334 107.855799 
L 199.321643 94.168765 
L 199.646297 104.226303 
L 199.970952 102.248424 
L 200.295606 95.547857 
L 200.620261 102.889792 
L 200.944915 107.209641 
L 201.26957 97.44838 
L 201.594224 98.539561 
L 201.918879 105.042333 
L 202.243534 104.012947 
L 202.568188 99.988744 
L 202.892843 92.386365 
L 203.542152 99.488089 
L 203.866806 102.922501 
L 204.191461 103.394587 
L 204.516115 108.187368 
L 204.84077 99.452033 
L 205.165424 94.164687 
L 205.490079 94.256965 
L 205.814734 92.057269 
L 206.139388 92.821731 
L 206.788697 100.596949 
L 207.113352 98.366052 
L 207.438006 97.323504 
L 207.762661 100.019954 
L 208.087315 89.881629 
L 208.41197 94.256444 
L 208.736624 95.487751 
L 209.061279 85.277771 
L 209.385934 90.835407 
L 209.710588 91.390911 
L 210.359897 79.720623 
L 210.684552 88.588975 
L 211.658515 71.93058 
L 211.98317 73.981839 
L 212.307824 67.871264 
L 212.632479 69.549969 
L 212.957134 77.463325 
L 213.281788 75.234507 
L 213.606443 75.272463 
L 213.931097 76.133762 
L 214.255752 66.361467 
L 214.580406 63.972576 
L 214.905061 62.609424 
L 215.229715 58.753568 
L 215.879024 73.04784 
L 216.203679 68.810279 
L 216.528334 74.227012 
L 216.852988 70.031145 
L 217.177643 67.956116 
L 217.502297 62.651543 
L 217.826952 50.496539 
L 218.476261 65.0865 
L 218.800915 66.023689 
L 219.12557 68.377294 
L 219.450224 65.553157 
L 220.099534 50.773348 
L 220.424188 48.977044 
L 220.748843 46.120611 
L 221.073497 57.075149 
L 221.398152 60.139555 
L 221.722806 61.147918 
L 222.047461 58.087205 
L 222.372115 53.02941 
L 222.69677 54.430018 
L 223.021424 57.806101 
L 223.670734 41.403937 
L 223.995388 40.510279 
L 224.320043 43.840449 
L 224.644697 57.914336 
L 224.969352 59.350454 
L 225.294006 48.255719 
L 225.618661 42.930574 
L 225.943315 47.639201 
L 226.26797 56.981844 
L 226.592624 61.403234 
L 226.917279 63.449223 
L 227.241934 63.17127 
L 227.566588 66.00125 
L 227.891243 78.770564 
L 228.215897 78.037924 
L 228.540552 80.028247 
L 228.865206 68.511876 
L 229.189861 73.043923 
L 229.514515 61.894117 
L 229.83917 63.141562 
L 230.488479 43.585597 
L 231.137788 57.394209 
L 231.462443 60.954555 
L 232.111752 58.091918 
L 232.436406 61.222285 
L 232.761061 49.689001 
L 233.085715 52.169268 
L 233.735024 48.785315 
L 234.059679 45.070286 
L 234.384334 49.111204 
L 234.708988 39.652886 
L 235.033643 39.381014 
L 235.358297 33.804365 
L 235.682952 24.64951 
L 236.007606 24.167437 
L 236.332261 36.510321 
L 236.656915 42.071522 
L 236.98157 55.111198 
L 237.306224 52.808005 
L 237.630879 52.488045 
L 237.955534 44.986706 
L 238.280188 42.630557 
L 238.604843 51.896731 
L 238.929497 45.627246 
L 239.254152 27.813251 
L 239.578806 26.288951 
L 239.903461 26.241331 
L 240.228115 19.296 
L 240.55277 23.110792 
L 240.877424 28.927562 
L 241.202079 22.227105 
L 241.526734 26.163179 
L 241.851388 25.022834 
L 242.176043 32.078082 
L 242.500697 36.448232 
L 242.825352 42.607332 
L 243.474661 39.10746 
L 243.799315 40.886739 
L 244.12397 44.416125 
L 244.448624 43.983856 
L 244.773279 44.222635 
L 245.097934 50.004706 
L 245.422588 45.796435 
L 245.747243 49.940321 
L 246.071897 48.196508 
L 246.396552 51.733933 
L 246.721206 49.977839 
L 247.045861 55.417534 
L 247.69517 33.182101 
L 248.019824 34.528116 
L 248.344479 28.003123 
L 248.669134 32.867764 
L 248.993788 28.107508 
L 249.318443 25.515868 
L 249.643097 33.595651 
L 249.967752 36.619958 
L 250.292406 49.687497 
L 250.617061 43.557792 
L 250.941715 34.660617 
L 251.915679 43.254258 
L 252.564988 46.851559 
L 252.889643 51.460995 
L 253.214297 54.034271 
L 253.863606 75.957001 
L 254.188261 70.944959 
L 254.512915 74.597185 
L 255.162224 62.646174 
L 255.486879 64.794758 
L 255.811534 58.569608 
L 256.136188 49.552196 
L 256.460843 54.788302 
L 257.110152 38.516762 
L 257.434806 36.135593 
L 257.759461 38.290008 
L 258.084115 31.577733 
L 258.733424 41.82864 
L 259.058079 52.635447 
L 259.382734 47.881845 
L 259.707388 41.486684 
L 260.032043 53.048891 
L 260.681352 45.583354 
L 261.006006 52.819356 
L 261.330661 56.003674 
L 261.655315 50.840458 
L 261.97997 60.668278 
L 262.304624 58.234066 
L 262.629279 54.356941 
L 262.953934 58.787706 
L 263.278588 59.941801 
L 263.603243 69.169098 
L 263.927897 67.51691 
L 264.252552 68.262634 
L 264.577206 76.037061 
L 264.901861 77.487196 
L 265.55117 60.961253 
L 265.875824 70.639749 
L 266.200479 73.943536 
L 266.525134 72.39693 
L 266.849788 72.9767 
L 267.174443 70.736189 
L 267.499097 71.783231 
L 267.823752 72.043736 
L 268.148406 71.628844 
L 268.473061 80.301648 
L 269.12237 75.660931 
L 269.447024 80.948981 
L 269.771679 81.228853 
L 270.096334 82.227702 
L 270.745643 73.595483 
L 271.070297 82.614186 
L 271.394952 79.987649 
L 271.719606 85.631177 
L 272.044261 88.400962 
L 272.368915 87.563982 
L 273.018224 78.010508 
L 273.342879 77.332905 
L 273.667534 81.665693 
L 273.992188 71.765641 
L 274.316843 68.636829 
L 274.641497 59.040616 
L 275.290806 70.167506 
L 275.615461 70.833555 
L 275.940115 65.552121 
L 276.26477 71.025222 
L 276.589424 54.765914 
L 277.563388 86.970698 
L 277.888043 87.267257 
L 278.537352 67.489384 
L 278.862006 65.542938 
L 279.186661 72.224018 
L 279.511315 73.310253 
L 280.160624 69.597048 
L 280.485279 58.65333 
L 280.809934 61.440072 
L 281.134588 69.758714 
L 281.459243 62.499359 
L 282.108552 70.604407 
L 282.433206 80.724812 
L 282.757861 81.517397 
L 283.082515 90.812764 
L 283.40717 90.905846 
L 283.731824 92.167483 
L 284.056479 90.950086 
L 284.381134 84.196037 
L 284.705788 95.923435 
L 285.030443 98.983609 
L 285.355097 103.620996 
L 285.679752 99.181582 
L 286.004406 109.602736 
L 286.329061 110.522483 
L 286.653715 118.829281 
L 286.97837 123.913947 
L 287.303024 110.883267 
L 287.627679 111.151418 
L 287.952334 119.026102 
L 288.601643 109.076724 
L 288.926297 113.802419 
L 289.250952 125.447687 
L 289.575606 125.440234 
L 289.900261 139.015122 
L 290.224915 145.35786 
L 290.54957 143.971589 
L 290.874224 131.886163 
L 291.198879 130.459261 
L 291.523534 131.414044 
L 291.848188 130.036651 
L 292.172843 127.482683 
L 292.497497 132.750015 
L 292.822152 135.688176 
L 293.146806 137.080244 
L 293.471461 136.497642 
L 293.796115 137.238102 
L 294.12077 140.355255 
L 294.445424 138.094463 
L 295.094734 120.032204 
L 295.419388 129.246804 
L 295.744043 131.268751 
L 296.068697 129.192909 
L 296.393352 132.844034 
L 296.718006 138.919281 
L 297.367315 133.038739 
L 297.69197 126.906262 
L 298.341279 123.870532 
L 298.665934 132.214002 
L 298.990588 126.644235 
L 299.315243 113.610016 
L 299.639897 106.935566 
L 299.964552 90.723244 
L 300.289206 92.255252 
L 300.613861 105.358575 
L 300.938515 113.290617 
L 301.587824 99.243794 
L 301.912479 99.805175 
L 302.237134 96.797782 
L 302.561788 91.748788 
L 302.886443 91.467415 
L 303.211097 100.695396 
L 303.535752 91.451243 
L 303.860406 98.074907 
L 304.185061 109.361118 
L 304.509715 109.481321 
L 304.83437 122.00886 
L 305.159024 111.177659 
L 305.483679 112.940906 
L 305.808334 106.909981 
L 306.132988 104.767658 
L 306.457643 105.180444 
L 307.106952 87.170491 
L 307.431606 90.828051 
L 307.756261 89.038656 
L 308.080915 90.371759 
L 308.40557 93.238121 
L 308.730224 90.528063 
L 309.054879 92.076566 
L 309.379534 111.627588 
L 309.704188 113.342587 
L 310.028843 113.079147 
L 310.353497 110.147582 
L 310.678152 112.168931 
L 311.002806 116.251381 
L 311.327461 114.535511 
L 311.652115 102.557571 
L 311.97677 100.984862 
L 312.626079 110.892174 
L 312.950734 120.19285 
L 313.275388 118.076999 
L 313.600043 110.286485 
L 313.924697 107.937583 
L 314.249352 103.671405 
L 314.898661 82.764261 
L 315.223315 84.516236 
L 315.54797 73.803297 
L 315.872624 85.484042 
L 316.197279 83.001305 
L 316.521934 91.494003 
L 316.846588 75.700455 
L 317.171243 87.045964 
L 317.495897 89.342695 
L 317.820552 98.567896 
L 318.145206 91.762477 
L 318.469861 89.941587 
L 318.794515 94.9322 
L 319.11917 85.063682 
L 319.443824 83.909356 
L 319.768479 86.671151 
L 320.093134 78.047833 
L 320.417788 94.243526 
L 320.742443 100.23253 
L 321.391752 89.598392 
L 321.716406 93.650445 
L 322.041061 91.086826 
L 322.365715 101.370689 
L 322.69037 103.293764 
L 323.015024 114.13649 
L 323.339679 111.864923 
L 323.664334 110.884253 
L 324.313643 118.488741 
L 324.638297 116.574083 
L 324.962952 120.163097 
L 325.287606 131.43767 
L 325.612261 135.044482 
L 325.936915 135.631455 
L 326.26157 145.49645 
L 326.586224 141.061824 
L 326.910879 143.24102 
L 327.235534 152.354044 
L 327.560188 149.542186 
L 327.884843 151.644585 
L 328.209497 145.049838 
L 328.534152 132.501392 
L 328.858806 135.987367 
L 329.508115 125.991792 
L 329.83277 120.840029 
L 330.157424 118.303789 
L 330.482079 118.098371 
L 330.806734 129.125509 
L 331.456043 125.741935 
L 331.780697 123.990677 
L 332.105352 122.968918 
L 332.430006 119.538011 
L 332.754661 105.514869 
L 333.079315 108.127694 
L 333.40397 104.799293 
L 333.728624 108.966264 
L 334.053279 107.505178 
L 334.377934 105.192747 
L 334.702588 104.854525 
L 335.027243 98.405105 
L 335.351897 106.470018 
L 335.676552 106.821293 
L 336.001206 117.408762 
L 336.325861 120.521268 
L 336.650515 120.506029 
L 337.299824 124.926026 
L 337.624479 116.491458 
L 337.949134 115.428899 
L 338.273788 107.844019 
L 338.598443 113.491869 
L 339.247752 119.468269 
L 339.572406 107.887573 
L 339.897061 112.866121 
L 340.54637 100.562225 
L 340.871024 101.942413 
L 341.195679 109.701095 
L 341.520334 101.636462 
L 341.844988 109.508396 
L 342.169643 107.62498 
L 342.494297 97.239927 
L 342.818952 97.732949 
L 343.143606 106.94369 
L 343.468261 107.175605 
L 343.792915 108.304214 
L 344.11757 121.348132 
L 344.442224 116.679632 
L 344.766879 107.300212 
L 345.091534 107.768931 
L 345.416188 104.655698 
L 345.740843 99.951217 
L 346.065497 98.400938 
L 346.390152 94.095557 
L 346.714806 86.639971 
L 347.039461 85.453293 
L 347.364115 83.569594 
L 347.68877 93.982307 
L 348.013424 83.19335 
L 348.338079 96.372707 
L 348.662734 93.591404 
L 348.987388 92.777439 
L 349.312043 97.092466 
L 349.636697 99.896789 
L 349.961352 109.463278 
L 350.286006 99.47483 
L 350.610661 98.530781 
L 350.935315 101.731207 
L 351.25997 107.17671 
L 351.584624 105.240626 
L 351.909279 97.402374 
L 352.233934 103.39897 
L 352.558588 103.534467 
L 352.883243 91.967976 
L 353.207897 84.463115 
L 353.857206 99.138503 
L 354.181861 100.815834 
L 354.506515 99.831361 
L 354.83117 93.778279 
L 355.155824 93.614103 
L 355.480479 84.216207 
L 355.805134 81.314429 
L 356.129788 91.824297 
L 356.454443 98.050956 
L 356.779097 101.959661 
L 357.103752 101.219338 
L 357.428406 99.602826 
L 358.077715 97.91598 
L 358.40237 95.923479 
L 358.727024 99.521875 
L 359.376334 103.102098 
L 360.350297 77.130683 
L 360.674952 77.490097 
L 360.999606 88.362487 
L 361.324261 91.452326 
L 361.648915 87.50195 
L 361.97357 79.626465 
L 362.947534 97.470755 
L 363.272188 102.344462 
L 363.596843 88.503941 
L 363.921497 94.280293 
L 364.246152 85.562447 
L 364.570806 89.454397 
L 364.895461 86.190935 
L 365.220115 81.770736 
L 365.54477 80.996775 
L 366.194079 75.254434 
L 366.518734 75.194079 
L 366.843388 74.160738 
L 367.168043 74.656988 
L 367.492697 76.101638 
L 367.817352 69.073208 
L 367.817352 69.073208 
" clip-path="url(#p827f451480)" style="fill: none; stroke: #d1dae9; stroke-width: 1.5; stroke-linecap: square"/>
   </g>
   <g id="line2d_15">
    <path d="M 43.162806 96.321704 
L 43.812115 85.510023 
L 44.13677 89.084367 
L 44.461424 94.631983 
L 44.786079 106.530842 
L 45.435388 95.732759 
L 46.084697 102.300327 
L 46.409352 119.231831 
L 46.734006 106.665311 
L 47.058661 101.323434 
L 47.383315 101.63708 
L 47.70797 100.801613 
L 48.032624 95.587357 
L 48.357279 99.480832 
L 48.681934 96.647574 
L 49.006588 111.589967 
L 49.331243 110.528014 
L 49.655897 116.395356 
L 49.980552 120.124617 
L 50.305206 109.648725 
L 50.629861 122.707859 
L 50.954515 120.80494 
L 51.27917 123.637831 
L 51.603824 123.823032 
L 51.928479 122.446843 
L 52.253134 114.633935 
L 52.577788 123.048402 
L 52.902443 115.464253 
L 53.227097 125.515999 
L 53.551752 127.485333 
L 53.876406 123.287488 
L 54.201061 131.871048 
L 54.525715 133.872351 
L 55.175024 119.889029 
L 55.499679 126.270741 
L 55.824334 125.387265 
L 56.148988 130.292834 
L 56.473643 126.128363 
L 56.798297 128.932872 
L 57.122952 116.924407 
L 57.447606 121.79738 
L 57.772261 122.263215 
L 58.42157 103.658973 
L 58.746224 82.414051 
L 59.070879 89.688571 
L 59.395534 92.88244 
L 59.720188 93.084047 
L 60.044843 102.790797 
L 60.694152 91.294767 
L 61.343461 86.185423 
L 61.668115 93.143224 
L 61.99277 89.555463 
L 62.317424 92.369221 
L 62.642079 82.690989 
L 62.966734 77.240341 
L 63.291388 80.110929 
L 63.616043 88.079335 
L 63.940697 92.438507 
L 64.265352 94.783571 
L 64.590006 86.821203 
L 64.914661 90.86784 
L 65.239315 101.141676 
L 65.56397 104.232722 
L 65.888624 99.49079 
L 66.213279 89.414158 
L 66.537934 90.679572 
L 66.862588 109.943614 
L 67.187243 112.006822 
L 67.511897 122.011482 
L 68.161206 104.049962 
L 68.485861 103.325923 
L 68.810515 104.876021 
L 69.13517 105.009587 
L 69.459824 99.817572 
L 69.784479 99.900462 
L 70.109134 98.746221 
L 70.433788 109.514713 
L 70.758443 115.572316 
L 71.083097 118.462082 
L 71.407752 111.797665 
L 71.732406 111.055231 
L 72.057061 106.178232 
L 72.381715 107.942249 
L 72.70637 108.961124 
L 73.031024 104.35215 
L 73.355679 105.66984 
L 73.680334 97.648702 
L 74.004988 103.033388 
L 74.329643 96.398058 
L 74.654297 99.654218 
L 74.978952 94.27044 
L 75.303606 94.661354 
L 75.628261 100.594991 
L 75.952915 110.557886 
L 76.27757 104.566101 
L 76.602224 104.688608 
L 76.926879 114.716846 
L 77.251534 106.113751 
L 77.576188 102.616135 
L 77.900843 108.846878 
L 78.225497 109.290621 
L 78.550152 103.701928 
L 79.199461 115.184715 
L 79.524115 111.19775 
L 79.84877 115.960789 
L 80.498079 99.428183 
L 80.822734 107.539905 
L 81.147388 96.049941 
L 81.472043 89.708231 
L 81.796697 89.936154 
L 82.121352 79.003693 
L 82.446006 83.34068 
L 82.770661 82.538816 
L 83.095315 77.587467 
L 83.41997 69.911848 
L 83.744624 71.644553 
L 84.069279 61.937106 
L 84.393934 56.208182 
L 84.718588 54.99747 
L 85.043243 51.139209 
L 85.367897 50.243352 
L 85.692552 41.165281 
L 86.017206 47.58458 
L 86.341861 45.111926 
L 86.666515 33.820746 
L 86.99117 33.428809 
L 87.315824 44.783719 
L 87.965134 33.012954 
L 88.289788 47.813053 
L 88.614443 31.109227 
L 88.939097 30.288258 
L 89.263752 32.169293 
L 89.588406 26.643807 
L 89.913061 31.739732 
L 90.56237 47.152137 
L 90.887024 52.580513 
L 91.211679 49.913301 
L 91.860988 37.994229 
L 92.185643 40.470667 
L 92.510297 40.623147 
L 92.834952 37.627333 
L 93.159606 42.330286 
L 93.484261 33.622457 
L 93.808915 37.390061 
L 94.13357 46.153418 
L 94.458224 68.487731 
L 94.782879 72.960168 
L 95.107534 70.735176 
L 95.756843 85.19649 
L 96.081497 76.113911 
L 96.406152 75.278973 
L 96.730806 72.753723 
L 97.055461 69.207391 
L 97.380115 68.035307 
L 97.70477 62.578101 
L 98.029424 74.21594 
L 98.354079 75.37169 
L 98.678734 70.32194 
L 99.003388 68.618801 
L 99.328043 61.519166 
L 99.652697 60.888628 
L 99.977352 71.174352 
L 100.302006 67.46117 
L 100.951315 75.818126 
L 101.27597 80.647522 
L 101.600624 80.335488 
L 101.925279 73.957606 
L 102.249934 78.804334 
L 102.574588 70.691906 
L 102.899243 78.933049 
L 103.223897 62.685324 
L 103.548552 58.051847 
L 103.873206 63.738736 
L 104.197861 53.072927 
L 104.522515 60.24352 
L 104.84717 62.170762 
L 105.171824 58.972728 
L 105.496479 66.380551 
L 105.821134 63.951844 
L 106.145788 63.650188 
L 106.470443 58.786984 
L 106.795097 59.967379 
L 107.119752 58.109198 
L 107.444406 59.456183 
L 107.769061 52.573822 
L 108.093715 58.045375 
L 108.41837 61.510555 
L 108.743024 59.113262 
L 109.067679 60.438552 
L 109.716988 87.671128 
L 110.041643 95.588217 
L 110.690952 56.425849 
L 111.015606 66.586749 
L 111.340261 73.021533 
L 111.664915 67.342932 
L 111.98957 67.89619 
L 112.314224 57.282283 
L 112.638879 52.844154 
L 112.963534 57.810128 
L 113.288188 42.741721 
L 113.612843 45.219628 
L 113.937497 39.662993 
L 114.262152 59.488236 
L 114.911461 53.770292 
L 115.236115 47.433944 
L 115.56077 51.341311 
L 116.210079 53.425816 
L 116.534734 48.672899 
L 116.859388 66.506727 
L 117.184043 57.659337 
L 117.508697 77.317549 
L 117.833352 62.990147 
L 118.158006 59.229652 
L 118.807315 64.931453 
L 119.13197 60.216054 
L 119.456624 71.832551 
L 119.781279 68.101287 
L 120.105934 68.931455 
L 120.430588 76.333889 
L 120.755243 65.411024 
L 121.404552 89.990608 
L 121.729206 90.668359 
L 122.053861 86.912738 
L 122.378515 96.506928 
L 122.70317 96.57384 
L 123.027824 92.206475 
L 123.352479 94.598332 
L 123.677134 95.652335 
L 124.001788 90.171986 
L 124.326443 102.469713 
L 124.651097 101.339857 
L 124.975752 95.715925 
L 125.300406 94.165793 
L 125.625061 102.799138 
L 125.949715 101.14036 
L 126.27437 98.496242 
L 126.599024 91.2479 
L 126.923679 92.696111 
L 127.248334 102.498684 
L 127.572988 101.670475 
L 127.897643 104.172451 
L 128.222297 99.369167 
L 128.546952 80.876447 
L 128.871606 87.803528 
L 129.196261 77.891642 
L 129.520915 76.652513 
L 129.84557 85.439227 
L 130.170224 88.354072 
L 130.494879 97.077759 
L 130.819534 88.097828 
L 131.144188 94.911976 
L 131.468843 92.343819 
L 132.118152 82.25472 
L 132.442806 80.969842 
L 132.767461 74.252553 
L 133.092115 73.623329 
L 133.41677 82.762414 
L 134.066079 92.327424 
L 134.390734 83.314429 
L 134.715388 85.615293 
L 135.040043 96.604359 
L 135.364697 96.789916 
L 135.689352 105.868583 
L 136.338661 91.467675 
L 136.663315 98.618445 
L 136.98797 92.261818 
L 137.312624 99.559911 
L 137.637279 97.607712 
L 137.961934 94.740677 
L 138.286588 88.940283 
L 138.611243 92.99877 
L 138.935897 93.290632 
L 139.260552 92.715978 
L 139.585206 95.796479 
L 139.909861 105.909975 
L 140.234515 104.181325 
L 140.55917 99.028502 
L 140.883824 102.504161 
L 141.208479 90.481366 
L 141.533134 91.709209 
L 141.857788 98.358239 
L 143.156406 73.827785 
L 143.481061 84.250848 
L 143.805715 83.209521 
L 144.13037 97.442886 
L 144.455024 97.966164 
L 144.779679 95.606089 
L 145.104334 85.25732 
L 145.428988 84.432905 
L 145.753643 84.763462 
L 146.078297 91.032295 
L 146.402952 90.612988 
L 146.727606 88.110874 
L 147.052261 89.044802 
L 147.376915 93.977938 
L 147.70157 94.136585 
L 148.026224 89.211874 
L 148.350879 93.655807 
L 148.675534 101.65519 
L 149.000188 115.937938 
L 149.324843 108.829971 
L 149.974152 119.87967 
L 150.298806 105.338837 
L 150.623461 110.772354 
L 150.948115 105.998243 
L 151.27277 104.388066 
L 151.597424 107.970421 
L 151.922079 98.554275 
L 152.246734 109.330459 
L 152.571388 112.52811 
L 152.896043 108.931729 
L 153.220697 106.620847 
L 153.545352 108.197843 
L 153.870006 93.727351 
L 154.194661 96.267328 
L 154.519315 104.874193 
L 154.84397 105.576472 
L 155.493279 109.322444 
L 155.817934 114.940669 
L 156.142588 96.657024 
L 156.467243 102.62922 
L 156.791897 110.856682 
L 157.116552 104.847229 
L 157.441206 109.816233 
L 157.765861 100.227271 
L 158.090515 107.214998 
L 158.41517 106.970975 
L 158.739824 124.247857 
L 159.064479 122.69108 
L 159.389134 122.866118 
L 160.038443 136.097198 
L 160.363097 139.064893 
L 160.687752 138.725189 
L 161.012406 130.79353 
L 161.337061 133.680151 
L 161.661715 134.936032 
L 161.98637 122.909287 
L 162.311024 120.289043 
L 162.635679 128.321573 
L 162.960334 129.65948 
L 163.284988 128.992587 
L 163.609643 125.460522 
L 163.934297 112.90837 
L 164.258952 108.275225 
L 164.583606 111.086752 
L 164.908261 108.723421 
L 165.55757 93.512714 
L 165.882224 95.885429 
L 166.206879 83.049507 
L 166.531534 92.034298 
L 166.856188 88.548631 
L 167.180843 75.74336 
L 167.505497 77.37015 
L 167.830152 74.629426 
L 168.154806 90.049354 
L 168.479461 71.30856 
L 168.804115 78.497178 
L 169.12877 81.822611 
L 169.453424 77.996326 
L 169.778079 71.451902 
L 170.102734 74.813775 
L 170.427388 71.342787 
L 170.752043 81.16993 
L 171.076697 85.145987 
L 171.401352 84.674681 
L 171.726006 89.62438 
L 172.050661 90.075707 
L 172.375315 78.885763 
L 172.69997 78.083282 
L 173.024624 66.553602 
L 173.349279 71.800097 
L 173.673934 69.186895 
L 173.998588 70.117956 
L 174.323243 55.823273 
L 174.647897 55.002424 
L 174.972552 54.743021 
L 175.297206 59.022598 
L 175.621861 60.670354 
L 175.946515 73.174184 
L 176.27117 95.271762 
L 176.595824 90.86697 
L 176.920479 77.981142 
L 177.245134 93.482076 
L 177.569788 92.926889 
L 177.894443 97.656063 
L 178.543752 86.575682 
L 178.868406 88.900134 
L 179.193061 95.26376 
L 179.517715 84.974397 
L 179.84237 87.727994 
L 180.167024 83.995646 
L 180.491679 78.311057 
L 180.816334 78.7711 
L 181.140988 78.798176 
L 181.465643 82.562653 
L 181.790297 84.926461 
L 182.114952 72.992587 
L 182.439606 77.530677 
L 182.764261 73.67498 
L 183.088915 84.840663 
L 183.738224 63.579685 
L 184.062879 68.199288 
L 184.387534 69.98634 
L 184.712188 70.948887 
L 185.036843 72.715107 
L 185.361497 68.188458 
L 185.686152 79.670435 
L 186.010806 74.957814 
L 186.335461 77.321681 
L 186.98477 98.762038 
L 187.309424 96.8522 
L 187.634079 83.32154 
L 187.958734 86.774147 
L 188.283388 77.01305 
L 188.608043 73.510846 
L 188.932697 72.950382 
L 189.582006 51.622728 
L 189.906661 56.026633 
L 190.231315 49.333257 
L 190.55597 52.86012 
L 190.880624 62.415143 
L 191.205279 67.934271 
L 191.529934 69.411577 
L 191.854588 67.020202 
L 192.179243 60.789785 
L 192.503897 78.907008 
L 192.828552 75.180404 
L 193.153206 75.562231 
L 193.477861 70.303532 
L 193.802515 79.278112 
L 194.12717 83.482758 
L 194.451824 79.568127 
L 194.776479 80.514432 
L 195.425788 74.72547 
L 195.750443 76.266817 
L 196.399752 88.353346 
L 196.724406 92.657682 
L 197.049061 94.554587 
L 198.023024 74.751345 
L 198.347679 87.841832 
L 198.672334 85.478732 
L 198.996988 89.549944 
L 199.321643 78.091936 
L 199.646297 75.656542 
L 199.970952 72.012092 
L 200.295606 75.712531 
L 200.620261 67.446849 
L 200.944915 68.840186 
L 201.594224 77.869021 
L 201.918879 67.52523 
L 202.243534 77.501891 
L 202.568188 72.945802 
L 203.217497 86.164006 
L 203.542152 81.969427 
L 203.866806 96.783722 
L 204.191461 105.568586 
L 204.516115 103.967682 
L 204.84077 112.687898 
L 205.165424 116.781856 
L 205.490079 125.902463 
L 205.814734 105.442877 
L 206.139388 107.819805 
L 206.464043 103.661874 
L 206.788697 104.971489 
L 207.113352 97.002054 
L 207.438006 100.064598 
L 208.087315 80.392594 
L 208.41197 82.811151 
L 208.736624 86.942839 
L 209.061279 93.705781 
L 209.385934 97.937064 
L 209.710588 113.848654 
L 210.035243 104.617423 
L 210.359897 110.905696 
L 210.684552 100.379117 
L 211.333861 86.053948 
L 211.658515 98.104452 
L 212.307824 77.744489 
L 212.632479 76.232127 
L 212.957134 72.534479 
L 213.281788 73.413718 
L 213.606443 72.72562 
L 213.931097 76.816773 
L 214.255752 75.364957 
L 214.580406 82.290695 
L 214.905061 83.838831 
L 215.229715 84.280035 
L 215.55437 76.854138 
L 215.879024 76.455396 
L 216.528334 65.945464 
L 216.852988 68.722681 
L 217.177643 79.016373 
L 217.502297 74.847494 
L 217.826952 66.193392 
L 218.151606 72.054969 
L 218.476261 68.131293 
L 218.800915 69.105825 
L 219.12557 68.608078 
L 219.450224 66.77621 
L 220.099534 77.222132 
L 220.748843 64.027138 
L 221.073497 74.439551 
L 221.398152 76.990415 
L 221.722806 84.296807 
L 222.047461 82.620024 
L 222.372115 68.276304 
L 222.69677 73.393403 
L 223.021424 84.881157 
L 223.346079 68.586034 
L 223.670734 80.209614 
L 223.995388 86.866333 
L 224.320043 70.190507 
L 224.644697 65.522426 
L 224.969352 54.721184 
L 225.294006 52.870309 
L 225.618661 54.94663 
L 225.943315 48.976023 
L 226.26797 50.946595 
L 226.917279 80.724615 
L 227.241934 72.880267 
L 227.566588 60.890025 
L 227.891243 65.458587 
L 228.215897 60.087015 
L 228.540552 66.770971 
L 228.865206 60.411967 
L 229.189861 69.680141 
L 229.514515 68.26684 
L 229.83917 68.867464 
L 230.488479 63.056863 
L 230.813134 84.074228 
L 231.137788 80.155249 
L 231.462443 71.66343 
L 231.787097 84.753775 
L 232.111752 83.52011 
L 232.436406 85.31223 
L 232.761061 88.087477 
L 233.085715 92.737146 
L 233.41037 95.642301 
L 233.735024 82.828155 
L 234.059679 87.007586 
L 234.384334 81.440362 
L 234.708988 94.381514 
L 235.033643 94.99244 
L 235.358297 100.429943 
L 236.007606 88.157865 
L 236.332261 100.29116 
L 236.656915 106.674447 
L 236.98157 97.647016 
L 237.306224 109.521824 
L 237.955534 122.604312 
L 238.280188 120.002799 
L 238.604843 127.806442 
L 238.929497 129.88923 
L 239.254152 138.754982 
L 239.578806 143.381864 
L 239.903461 142.449792 
L 240.228115 144.121647 
L 240.55277 140.378913 
L 240.877424 129.65117 
L 241.202079 128.31151 
L 241.526734 134.21695 
L 241.851388 137.174737 
L 242.176043 151.074385 
L 242.500697 142.167114 
L 242.825352 142.741285 
L 243.150006 139.207475 
L 243.474661 137.616984 
L 243.799315 141.984622 
L 244.12397 143.724654 
L 244.448624 143.045186 
L 244.773279 145.3238 
L 245.097934 142.772761 
L 245.422588 143.123483 
L 245.747243 134.415702 
L 246.071897 130.827111 
L 246.396552 117.563513 
L 246.721206 125.976033 
L 247.045861 115.711666 
L 247.370515 111.848515 
L 247.69517 115.847191 
L 248.019824 109.230389 
L 248.344479 114.497241 
L 248.669134 125.345984 
L 248.993788 126.91127 
L 249.318443 130.239702 
L 249.643097 122.829978 
L 250.292406 111.802783 
L 250.617061 117.702871 
L 250.941715 116.823718 
L 251.26637 124.549195 
L 251.591024 122.594015 
L 251.915679 113.184052 
L 252.240334 118.532069 
L 252.564988 108.363474 
L 252.889643 116.409378 
L 253.214297 105.833484 
L 253.538952 104.492051 
L 253.863606 101.062913 
L 254.512915 91.018303 
L 254.83757 79.675454 
L 255.162224 73.716715 
L 256.136188 65.546955 
L 256.460843 64.673006 
L 256.785497 52.997485 
L 257.434806 41.624766 
L 257.759461 39.424203 
L 258.084115 41.651051 
L 258.40877 35.127507 
L 258.733424 35.827569 
L 259.058079 28.042714 
L 259.382734 36.276283 
L 259.707388 35.896834 
L 260.032043 31.652318 
L 260.356697 34.50432 
L 261.006006 49.452317 
L 261.330661 45.731248 
L 261.655315 36.279288 
L 261.97997 30.326325 
L 262.304624 29.152221 
L 262.629279 37.304061 
L 262.953934 39.125199 
L 263.603243 26.263383 
L 264.252552 34.507414 
L 264.577206 42.530846 
L 264.901861 40.368345 
L 265.226515 51.03169 
L 265.55117 46.93737 
L 265.875824 53.440175 
L 266.525134 45.546125 
L 267.174443 41.221561 
L 267.499097 48.603687 
L 267.823752 50.088788 
L 268.148406 52.707714 
L 268.797715 63.286201 
L 269.12237 59.360021 
L 269.447024 63.586788 
L 269.771679 64.987897 
L 270.096334 73.675115 
L 270.420988 67.335905 
L 270.745643 65.556167 
L 271.070297 71.289196 
L 271.394952 69.461449 
L 271.719606 77.372421 
L 272.044261 66.092065 
L 272.368915 62.216605 
L 273.018224 73.525042 
L 273.667534 58.302774 
L 273.992188 57.899373 
L 274.641497 62.027886 
L 274.966152 69.609689 
L 275.290806 63.167145 
L 275.615461 62.421599 
L 275.940115 70.631009 
L 276.26477 61.938897 
L 276.589424 61.105702 
L 276.914079 61.29326 
L 277.238734 59.901937 
L 277.563388 65.545643 
L 277.888043 74.263469 
L 278.212697 73.141544 
L 278.537352 68.693959 
L 278.862006 67.249306 
L 279.186661 52.908785 
L 279.511315 71.122653 
L 279.83597 69.843993 
L 280.160624 62.441066 
L 280.485279 61.551633 
L 280.809934 52.803247 
L 281.459243 58.978046 
L 281.783897 50.431505 
L 282.108552 56.005161 
L 282.433206 54.959184 
L 282.757861 56.564144 
L 283.082515 65.324203 
L 283.731824 69.951754 
L 284.056479 68.508276 
L 284.381134 64.814622 
L 284.705788 76.969904 
L 285.030443 77.150914 
L 285.355097 75.253131 
L 286.004406 60.613935 
L 286.329061 68.668132 
L 286.653715 62.094079 
L 286.97837 64.01775 
L 287.303024 59.247697 
L 287.627679 62.689465 
L 287.952334 61.286709 
L 288.601643 52.180324 
L 288.926297 50.790698 
L 289.250952 43.960427 
L 289.575606 55.566201 
L 289.900261 54.147197 
L 290.224915 44.688695 
L 290.54957 39.785148 
L 290.874224 36.763691 
L 291.198879 37.044433 
L 291.523534 40.637273 
L 292.172843 62.311567 
L 292.497497 56.444655 
L 292.822152 59.872184 
L 293.146806 58.465361 
L 293.471461 71.173312 
L 293.796115 78.252819 
L 294.12077 81.729593 
L 294.445424 72.159229 
L 294.770079 70.424043 
L 295.094734 66.641009 
L 295.419388 56.599149 
L 295.744043 64.992848 
L 296.068697 78.790136 
L 296.393352 77.666343 
L 296.718006 72.072183 
L 297.042661 68.576337 
L 297.69197 78.847688 
L 298.016624 69.556393 
L 298.341279 66.359056 
L 298.665934 71.258434 
L 298.990588 67.27283 
L 299.315243 74.861323 
L 299.639897 74.130857 
L 299.964552 72.387747 
L 300.289206 71.264636 
L 300.613861 72.093849 
L 300.938515 67.203365 
L 301.26317 69.541592 
L 301.587824 75.169304 
L 301.912479 69.526949 
L 302.237134 83.68614 
L 302.561788 63.715492 
L 302.886443 77.958957 
L 303.535752 76.056932 
L 303.860406 71.016946 
L 305.159024 68.618534 
L 305.483679 52.966339 
L 305.808334 67.728696 
L 306.132988 68.873268 
L 306.457643 66.186826 
L 306.782297 70.096023 
L 307.106952 68.218087 
L 307.756261 51.557022 
L 308.080915 53.130718 
L 308.40557 56.297146 
L 308.730224 52.052029 
L 309.054879 59.319961 
L 309.379534 60.491482 
L 309.704188 64.666506 
L 310.028843 51.198892 
L 310.353497 55.108869 
L 310.678152 55.362818 
L 311.002806 61.476738 
L 311.327461 62.683471 
L 311.652115 63.442563 
L 311.97677 66.502149 
L 312.301424 62.885119 
L 312.626079 62.238351 
L 312.950734 65.323164 
L 313.275388 65.401595 
L 313.600043 76.309024 
L 313.924697 80.717411 
L 314.249352 71.253208 
L 314.574006 80.713926 
L 315.223315 88.281312 
L 315.872624 112.17342 
L 316.197279 115.446215 
L 316.521934 107.696364 
L 317.171243 103.065403 
L 317.495897 110.052959 
L 317.820552 128.711281 
L 318.145206 117.691901 
L 318.469861 115.984085 
L 318.794515 108.795134 
L 319.11917 110.915991 
L 319.443824 100.281513 
L 319.768479 104.336015 
L 320.093134 102.965484 
L 320.742443 87.800142 
L 321.067097 88.297446 
L 321.391752 92.66809 
L 321.716406 92.884304 
L 322.041061 105.727517 
L 322.365715 98.530875 
L 322.69037 85.137646 
L 323.015024 81.13143 
L 323.339679 82.955093 
L 323.664334 82.540911 
L 323.988988 79.643068 
L 324.313643 68.418322 
L 324.638297 71.980657 
L 324.962952 86.060074 
L 325.287606 88.319248 
L 325.936915 78.841665 
L 326.26157 74.369221 
L 326.586224 75.058259 
L 326.910879 66.653479 
L 327.235534 74.455064 
L 327.884843 62.707041 
L 328.209497 64.040815 
L 328.534152 63.633331 
L 328.858806 67.209155 
L 329.508115 79.026427 
L 329.83277 79.108101 
L 330.157424 86.528768 
L 330.482079 87.467008 
L 330.806734 83.549419 
L 331.131388 76.703048 
L 331.780697 85.539245 
L 332.105352 79.497673 
L 332.430006 83.529781 
L 333.40397 60.034182 
L 333.728624 54.186842 
L 334.053279 39.436069 
L 334.377934 38.268394 
L 334.702588 41.60591 
L 335.027243 46.356773 
L 335.351897 44.938687 
L 335.676552 42.959987 
L 336.001206 52.400504 
L 336.325861 57.778222 
L 336.650515 44.625941 
L 336.97517 50.07386 
L 337.299824 48.981097 
L 337.624479 50.768412 
L 337.949134 53.662059 
L 338.273788 69.895027 
L 338.598443 71.554392 
L 338.923097 69.212452 
L 339.247752 70.739573 
L 339.572406 71.567479 
L 340.221715 88.545285 
L 340.54637 87.969241 
L 340.871024 80.200012 
L 341.195679 69.486342 
L 341.520334 69.158972 
L 341.844988 64.185084 
L 342.169643 70.020218 
L 342.494297 67.234425 
L 342.818952 58.832636 
L 343.143606 62.858734 
L 343.468261 56.540712 
L 344.11757 70.426045 
L 344.442224 65.630234 
L 344.766879 65.323382 
L 345.091534 66.387996 
L 345.416188 46.172298 
L 345.740843 42.263468 
L 346.065497 52.732235 
L 346.390152 54.868992 
L 346.714806 65.20528 
L 347.039461 79.155697 
L 347.364115 73.577573 
L 347.68877 72.234229 
L 348.013424 64.782299 
L 348.338079 69.300097 
L 348.662734 60.551196 
L 348.987388 61.54563 
L 349.312043 63.321167 
L 349.636697 71.215773 
L 349.961352 71.605641 
L 350.286006 69.847461 
L 350.610661 65.37321 
L 350.935315 63.773448 
L 351.25997 82.69595 
L 351.584624 85.793576 
L 351.909279 80.651501 
L 352.233934 67.884324 
L 352.558588 62.233563 
L 352.883243 52.127265 
L 353.207897 49.76012 
L 353.857206 53.015013 
L 354.181861 55.382997 
L 354.506515 55.502245 
L 354.83117 54.854687 
L 355.155824 61.520917 
L 355.480479 58.921887 
L 355.805134 57.756598 
L 356.129788 45.681926 
L 356.454443 45.612746 
L 356.779097 46.358274 
L 357.103752 41.122869 
L 357.428406 44.17798 
L 358.077715 56.281839 
L 358.40237 57.538994 
L 359.051679 53.626637 
L 359.376334 60.262609 
L 359.700988 49.861357 
L 360.025643 47.894171 
L 360.350297 51.274787 
L 360.674952 52.316633 
L 360.999606 44.73693 
L 361.324261 45.995976 
L 361.648915 48.113331 
L 361.97357 40.770173 
L 362.298224 45.279192 
L 362.622879 43.539994 
L 362.947534 43.690981 
L 363.272188 39.443734 
L 363.596843 46.045401 
L 363.921497 44.484663 
L 364.246152 36.828319 
L 364.570806 46.449943 
L 364.895461 46.051528 
L 365.220115 50.266089 
L 365.54477 47.149975 
L 366.194079 59.581456 
L 366.518734 64.550185 
L 366.843388 59.658103 
L 367.168043 67.12241 
L 367.492697 59.911111 
L 367.817352 61.100751 
L 367.817352 61.100751 
" clip-path="url(#p827f451480)" style="fill: none; stroke: #3a4cc0; stroke-width: 1.5; stroke-linecap: square"/>
   </g>
   <g id="patch_3">
    <path d="M 26.930079 273.312 
L 26.930079 7.2 
" style="fill: none; stroke: #000000; stroke-width: 0.8; stroke-linejoin: miter; stroke-linecap: square"/>
   </g>
   <g id="patch_4">
    <path d="M 384.050079 273.312 
L 384.050079 7.2 
" style="fill: none; stroke: #000000; stroke-width: 0.8; stroke-linejoin: miter; stroke-linecap: square"/>
   </g>
   <g id="patch_5">
    <path d="M 26.930079 273.312 
L 384.050079 273.312 
" style="fill: none; stroke: #000000; stroke-width: 0.8; stroke-linejoin: miter; stroke-linecap: square"/>
   </g>
   <g id="patch_6">
    <path d="M 26.930079 7.2 
L 384.050079 7.2 
" style="fill: none; stroke: #000000; stroke-width: 0.8; stroke-linejoin: miter; stroke-linecap: square"/>
   </g>
   <g id="legend_1">
    <g id="patch_7">
     <path d="M 33.930079 268.312 
L 111.038829 268.312 
Q 113.038829 268.312 113.038829 266.312 
L 113.038829 225.500465 
Q 113.038829 223.500465 111.038829 223.500465 
L 33.930079 223.500465 
Q 31.930079 223.500465 31.930079 225.500465 
L 31.930079 266.312 
Q 31.930079 268.312 33.930079 268.312 
z
" style="fill: #ffffff; opacity: 0.8; stroke: #cccccc; stroke-linejoin: miter"/>
    </g>
    <g id="line2d_16">
     <path d="M 35.930079 231.000465 
L 45.930079 231.000465 
L 55.930079 231.000465 
" style="fill: none; stroke: #e46e56; stroke-width: 1.5; stroke-linecap: square"/>
    </g>
    <g id="text_13">
     <!-- CBO -->
     <g transform="translate(63.930079 234.500465) scale(0.1 -0.1)">
      <defs>
       <path id="CMSS17-43" d="M 3501 714 
C 3072 427 2874 344 2355 344 
C 1459 344 934 1303 934 2179 
C 934 3112 1472 4032 2381 4032 
C 2790 4032 3059 3918 3386 3715 
L 3475 4217 
C 3168 4370 2778 4440 2387 4440 
C 1158 4440 397 3316 397 2179 
C 397 927 1299 -64 2323 -64 
C 2874 -64 3066 -19 3539 280 
L 3501 714 
z
" transform="scale(0.015625)"/>
       <path id="CMSS17-42" d="M 570 4416 
L 570 0 
L 2163 0 
C 3034 0 3667 574 3667 1200 
C 3667 1685 3251 2176 2502 2317 
C 3334 2558 3501 3040 3501 3313 
C 3501 3883 2874 4416 1997 4416 
L 570 4416 
z
M 1088 2496 
L 1088 4059 
L 1824 4059 
C 2483 4059 3002 3724 3002 3306 
C 3002 2926 2592 2496 1766 2496 
L 1088 2496 
z
M 1088 357 
L 1088 2107 
L 1939 2107 
C 2630 2107 3162 1679 3162 1206 
C 3162 772 2694 357 1984 357 
L 1088 357 
z
" transform="scale(0.015625)"/>
       <path id="CMSS17-4f" d="M 4096 2178 
C 4096 3503 3219 4497 2214 4497 
C 1210 4497 333 3497 333 2178 
C 333 847 1222 -128 2214 -128 
C 3206 -128 4096 847 4096 2178 
z
M 2214 273 
C 1510 273 870 1057 870 2261 
C 870 3433 1549 4096 2214 4096 
C 2880 4096 3558 3433 3558 2261 
C 3558 1051 2912 273 2214 273 
z
" transform="scale(0.015625)"/>
      </defs>
      <use xlink:href="#CMSS17-43" transform="scale(0.996264)"/>
      <use xlink:href="#CMSS17-42" transform="translate(59.855772 0) scale(0.996264)"/>
      <use xlink:href="#CMSS17-4f" transform="translate(122.193812 0) scale(0.996264)"/>
     </g>
    </g>
    <g id="line2d_17">
     <path d="M 35.930079 244.937643 
L 45.930079 244.937643 
L 55.930079 244.937643 
" style="fill: none; stroke: #d1dae9; stroke-width: 1.5; stroke-linecap: square"/>
    </g>
    <g id="text_14">
     <!-- SMD-CBO -->
     <g transform="translate(63.930079 248.437643) scale(0.1 -0.1)">
      <defs>
       <path id="CMSS17-53" d="M 2797 4169 
C 2515 4334 2208 4480 1690 4480 
C 864 4480 333 3879 333 3266 
C 333 3025 403 2753 653 2475 
C 902 2196 1184 2121 1542 2033 
C 1690 1994 1939 1924 1984 1906 
C 2342 1767 2515 1444 2515 1140 
C 2515 742 2202 318 1645 318 
C 1453 318 890 318 358 819 
L 269 318 
C 794 -64 1363 -128 1651 -128 
C 2438 -128 3002 488 3002 1186 
C 3002 1440 2925 1763 2656 2061 
C 2394 2347 2163 2410 1638 2549 
C 1338 2626 1146 2677 986 2873 
C 877 3013 819 3146 819 3317 
C 819 3673 1126 4060 1690 4060 
C 1971 4060 2336 4002 2707 3660 
L 2797 4169 
z
" transform="scale(0.015625)"/>
       <path id="CMSS17-4d" d="M 3194 2371 
L 2886 1473 
C 2835 1307 2662 791 2624 587 
L 2618 587 
C 2598 715 2560 849 2458 1174 
C 2400 1365 2336 1562 2272 1741 
L 1325 4416 
L 576 4416 
L 576 0 
L 1075 0 
L 1075 3900 
L 1082 3900 
C 1082 3894 1139 3613 1530 2499 
L 2374 96 
L 2848 96 
L 3610 2231 
C 3661 2378 3821 2843 3891 3066 
C 3955 3257 4115 3728 4154 3913 
L 4160 3913 
L 4160 0 
L 4666 0 
L 4666 4416 
L 3923 4416 
L 3194 2371 
z
" transform="scale(0.015625)"/>
       <path id="CMSS17-44" d="M 570 4416 
L 570 0 
L 2144 0 
C 3194 0 4000 980 4000 2170 
C 4000 3398 3194 4416 2144 4416 
L 570 4416 
z
M 1094 357 
L 1094 4059 
L 2003 4059 
C 2861 4059 3475 3277 3475 2170 
C 3475 1107 2867 357 2003 357 
L 1094 357 
z
" transform="scale(0.015625)"/>
       <path id="CMSS17-2d" d="M 1664 1216 
L 1664 1585 
L 64 1585 
L 64 1216 
L 1664 1216 
z
" transform="scale(0.015625)"/>
      </defs>
      <use xlink:href="#CMSS17-53" transform="scale(0.996264)"/>
      <use xlink:href="#CMSS17-4d" transform="translate(52.048516 0) scale(0.996264)"/>
      <use xlink:href="#CMSS17-44" transform="translate(133.724546 0) scale(0.996264)"/>
      <use xlink:href="#CMSS17-2d" transform="translate(201.267388 0) scale(0.996264)"/>
      <use xlink:href="#CMSS17-43" transform="translate(232.496501 0) scale(0.996264)"/>
      <use xlink:href="#CMSS17-42" transform="translate(292.352272 0) scale(0.996264)"/>
      <use xlink:href="#CMSS17-4f" transform="translate(354.690312 0) scale(0.996264)"/>
     </g>
    </g>
    <g id="line2d_18">
     <path d="M 35.930079 258.874822 
L 45.930079 258.874822 
L 55.930079 258.874822 
" style="fill: none; stroke: #3a4cc0; stroke-width: 1.5; stroke-linecap: square"/>
    </g>
    <g id="text_15">
     <!-- GCN-CBO -->
     <g transform="translate(63.930079 262.374822) scale(0.1 -0.1)">
      <defs>
       <path id="CMSS17-47" d="M 3610 1856 
L 2336 1856 
L 2336 1461 
L 3123 1461 
L 3123 471 
C 2874 401 2618 350 2362 350 
C 1466 350 934 1301 934 2200 
C 934 3095 1491 4032 2362 4032 
C 2854 4032 3130 3881 3469 3627 
L 3552 4134 
C 3130 4351 2867 4440 2387 4440 
C 1146 4440 397 3324 397 2182 
C 397 1090 1152 -64 2349 -64 
C 2797 -64 3213 51 3610 248 
L 3610 1856 
z
" transform="scale(0.015625)"/>
       <path id="CMSS17-4e" d="M 1466 4180 
L 1350 4416 
L 563 4416 
L 563 0 
L 1062 0 
L 1062 3926 
L 1069 3932 
C 1114 3817 1139 3760 1402 3194 
L 2771 236 
L 2886 0 
L 3674 0 
L 3674 4416 
L 3174 4416 
L 3174 490 
L 3168 483 
C 3123 598 3098 655 2835 1221 
L 1466 4180 
z
" transform="scale(0.015625)"/>
      </defs>
      <use xlink:href="#CMSS17-47" transform="scale(0.996264)"/>
      <use xlink:href="#CMSS17-43" transform="translate(62.458226 0) scale(0.996264)"/>
      <use xlink:href="#CMSS17-4e" transform="translate(122.313997 0) scale(0.996264)"/>
      <use xlink:href="#CMSS17-2d" transform="translate(188.375516 0) scale(0.996264)"/>
      <use xlink:href="#CMSS17-43" transform="translate(219.604629 0) scale(0.996264)"/>
      <use xlink:href="#CMSS17-42" transform="translate(279.460401 0) scale(0.996264)"/>
      <use xlink:href="#CMSS17-4f" transform="translate(341.798441 0) scale(0.996264)"/>
     </g>
    </g>
   </g>
  </g>
 </g>
 <defs>
  <clipPath id="p827f451480">
   <rect x="26.930079" y="7.2" width="357.12" height="266.112"/>
  </clipPath>
 </defs>
</svg>
