<?xml version="1.0" encoding="utf-8" standalone="no"?>
<!DOCTYPE svg PUBLIC "-//W3C//DTD SVG 1.1//EN"
  "http://www.w3.org/Graphics/SVG/1.1/DTD/svg11.dtd">
<svg xmlns:xlink="http://www.w3.org/1999/xlink" width="388.482671pt" height="296.367677pt" viewBox="0 0 388.482671 296.367677" xmlns="http://www.w3.org/2000/svg" version="1.1">
 <metadata>
  <rdf:RDF xmlns:dc="http://purl.org/dc/elements/1.1/" xmlns:cc="http://creativecommons.org/ns#" xmlns:rdf="http://www.w3.org/1999/02/22-rdf-syntax-ns#">
   <cc:Work>
    <dc:type rdf:resource="http://purl.org/dc/dcmitype/StillImage"/>
    <dc:date>2026-03-25T17:01:28.552698</dc:date>
    <dc:format>image/svg+xml</dc:format>
    <dc:creator>
     <cc:Agent>
      <dc:title>Matplotlib v3.10.7, https://matplotlib.org/</dc:title>
     </cc:Agent>
    </dc:creator>
   </cc:Work>
  </rdf:RDF>
 </metadata>
 <defs>
  <style type="text/css">*{stroke-linejoin: round; stroke-linecap: butt}</style>
 </defs>
 <g id="figure_1">
  <g id="patch_1">
   <path d="M 0 296.367677 
L 388.482671 296.367677 
L 388.482671 0 
L 0 0 
z
" style="fill: #ffffff"/>
  </g>
  <g id="axes_1">
   <g id="patch_2">
    <path d="M 24.162671 273.312 
L 381.282671 273.312 
L 381.282671 7.2 
L 24.162671 7.2 
z
" style="fill: #ffffff"/>
   </g>
   <g id="matplotlib.axis_1">
    <g id="xtick_1">
     <g id="line2d_1">
      <defs>
       <path id="mf64702fced" d="M 0 0 
L 0 3.5 
" style="stroke: #000000; stroke-width: 0.8"/>
      </defs>
      <g>
       <use xlink:href="#mf64702fced" x="40.395398" y="273.312" style="stroke: #000000; stroke-width: 0.8"/>
      </g>
     </g>
     <g id="text_1">
      <!-- $\mathdefault{0}$ -->
      <g transform="translate(37.90473 287.230498) scale(0.1 -0.1)">
       <defs>
        <path id="CMR17-30" d="M 2688 2025 
C 2688 2416 2682 3080 2413 3591 
C 2176 4039 1798 4198 1466 4198 
C 1158 4198 768 4058 525 3597 
C 269 3118 243 2524 243 2025 
C 243 1661 250 1106 448 619 
C 723 -39 1216 -128 1466 -128 
C 1760 -128 2208 -7 2470 600 
C 2662 1042 2688 1559 2688 2025 
z
M 1466 -26 
C 1056 -26 813 325 723 812 
C 653 1188 653 1738 653 2096 
C 653 2588 653 2997 736 3387 
C 858 3929 1216 4096 1466 4096 
C 1728 4096 2067 3923 2189 3400 
C 2272 3036 2278 2607 2278 2096 
C 2278 1680 2278 1169 2202 792 
C 2067 95 1690 -26 1466 -26 
z
" transform="scale(0.015625)"/>
       </defs>
       <use xlink:href="#CMR17-30" transform="scale(0.996264)"/>
      </g>
     </g>
    </g>
    <g id="xtick_2">
     <g id="line2d_2">
      <g>
       <use xlink:href="#mf64702fced" x="105.326307" y="273.312" style="stroke: #000000; stroke-width: 0.8"/>
      </g>
     </g>
     <g id="text_2">
      <!-- $\mathdefault{200}$ -->
      <g transform="translate(97.854304 287.230498) scale(0.1 -0.1)">
       <defs>
        <path id="CMR17-32" d="M 2669 989 
L 2554 989 
C 2490 536 2438 459 2413 420 
C 2381 369 1920 369 1830 369 
L 602 369 
C 832 619 1280 1072 1824 1597 
C 2214 1967 2669 2402 2669 3035 
C 2669 3790 2067 4224 1395 4224 
C 691 4224 262 3604 262 3030 
C 262 2780 448 2748 525 2748 
C 589 2748 781 2787 781 3010 
C 781 3207 614 3264 525 3264 
C 486 3264 448 3258 422 3245 
C 544 3790 915 4058 1306 4058 
C 1862 4058 2227 3617 2227 3035 
C 2227 2479 1901 2000 1536 1584 
L 262 146 
L 262 0 
L 2515 0 
L 2669 989 
z
" transform="scale(0.015625)"/>
       </defs>
       <use xlink:href="#CMR17-32" transform="scale(0.996264)"/>
       <use xlink:href="#CMR17-30" transform="translate(45.690477 0) scale(0.996264)"/>
       <use xlink:href="#CMR17-30" transform="translate(91.380954 0) scale(0.996264)"/>
      </g>
     </g>
    </g>
    <g id="xtick_3">
     <g id="line2d_3">
      <g>
       <use xlink:href="#mf64702fced" x="170.257216" y="273.312" style="stroke: #000000; stroke-width: 0.8"/>
      </g>
     </g>
     <g id="text_3">
      <!-- $\mathdefault{400}$ -->
      <g transform="translate(162.785213 287.230498) scale(0.1 -0.1)">
       <defs>
        <path id="CMR17-34" d="M 2150 4122 
C 2150 4256 2144 4256 2029 4256 
L 128 1254 
L 128 1088 
L 1779 1088 
L 1779 457 
C 1779 224 1766 160 1318 160 
L 1197 160 
L 1197 0 
C 1402 0 1747 0 1965 0 
C 2182 0 2528 0 2733 0 
L 2733 160 
L 2611 160 
C 2163 160 2150 224 2150 457 
L 2150 1088 
L 2803 1088 
L 2803 1254 
L 2150 1254 
L 2150 4122 
z
M 1798 3703 
L 1798 1254 
L 256 1254 
L 1798 3703 
z
" transform="scale(0.015625)"/>
       </defs>
       <use xlink:href="#CMR17-34" transform="scale(0.996264)"/>
       <use xlink:href="#CMR17-30" transform="translate(45.690477 0) scale(0.996264)"/>
       <use xlink:href="#CMR17-30" transform="translate(91.380954 0) scale(0.996264)"/>
      </g>
     </g>
    </g>
    <g id="xtick_4">
     <g id="line2d_4">
      <g>
       <use xlink:href="#mf64702fced" x="235.188125" y="273.312" style="stroke: #000000; stroke-width: 0.8"/>
      </g>
     </g>
     <g id="text_4">
      <!-- $\mathdefault{600}$ -->
      <g transform="translate(227.716122 287.230498) scale(0.1 -0.1)">
       <defs>
        <path id="CMR17-36" d="M 678 2176 
C 678 3690 1395 4032 1811 4032 
C 1946 4032 2272 4009 2400 3776 
C 2298 3776 2106 3776 2106 3553 
C 2106 3381 2246 3323 2336 3323 
C 2394 3323 2566 3348 2566 3560 
C 2566 3954 2246 4179 1805 4179 
C 1043 4179 243 3390 243 1984 
C 243 253 966 -128 1478 -128 
C 2099 -128 2688 427 2688 1283 
C 2688 2081 2170 2662 1517 2662 
C 1126 2662 838 2407 678 1960 
L 678 2176 
z
M 1478 25 
C 691 25 691 1200 691 1436 
C 691 1896 909 2560 1504 2560 
C 1613 2560 1926 2560 2138 2120 
C 2253 1870 2253 1609 2253 1289 
C 2253 944 2253 690 2118 434 
C 1978 171 1773 25 1478 25 
z
" transform="scale(0.015625)"/>
       </defs>
       <use xlink:href="#CMR17-36" transform="scale(0.996264)"/>
       <use xlink:href="#CMR17-30" transform="translate(45.690477 0) scale(0.996264)"/>
       <use xlink:href="#CMR17-30" transform="translate(91.380954 0) scale(0.996264)"/>
      </g>
     </g>
    </g>
    <g id="xtick_5">
     <g id="line2d_5">
      <g>
       <use xlink:href="#mf64702fced" x="300.119034" y="273.312" style="stroke: #000000; stroke-width: 0.8"/>
      </g>
     </g>
     <g id="text_5">
      <!-- $\mathdefault{800}$ -->
      <g transform="translate(292.647031 287.230498) scale(0.1 -0.1)">
       <defs>
        <path id="CMR17-38" d="M 1741 2264 
C 2144 2467 2554 2773 2554 3263 
C 2554 3841 1990 4179 1472 4179 
C 890 4179 378 3759 378 3180 
C 378 3021 416 2747 666 2505 
C 730 2442 998 2251 1171 2130 
C 883 1983 211 1634 211 934 
C 211 279 838 -128 1459 -128 
C 2144 -128 2720 362 2720 1010 
C 2720 1590 2330 1857 2074 2029 
L 1741 2264 
z
M 902 2822 
C 851 2854 595 3051 595 3351 
C 595 3739 998 4032 1459 4032 
C 1965 4032 2336 3676 2336 3262 
C 2336 2669 1670 2331 1638 2331 
C 1632 2331 1626 2331 1574 2370 
L 902 2822 
z
M 2080 1519 
C 2176 1449 2483 1240 2483 851 
C 2483 381 2010 25 1472 25 
C 890 25 448 438 448 940 
C 448 1443 838 1862 1280 2060 
L 2080 1519 
z
" transform="scale(0.015625)"/>
       </defs>
       <use xlink:href="#CMR17-38" transform="scale(0.996264)"/>
       <use xlink:href="#CMR17-30" transform="translate(45.690477 0) scale(0.996264)"/>
       <use xlink:href="#CMR17-30" transform="translate(91.380954 0) scale(0.996264)"/>
      </g>
     </g>
    </g>
    <g id="xtick_6">
     <g id="line2d_6">
      <g>
       <use xlink:href="#mf64702fced" x="365.049943" y="273.312" style="stroke: #000000; stroke-width: 0.8"/>
      </g>
     </g>
     <g id="text_6">
      <!-- $\mathdefault{1000}$ -->
      <g transform="translate(355.087273 287.230498) scale(0.1 -0.1)">
       <defs>
        <path id="CMR17-31" d="M 1702 4058 
C 1702 4192 1696 4192 1606 4192 
C 1357 3916 979 3827 621 3827 
C 602 3827 570 3827 563 3808 
C 557 3795 557 3782 557 3648 
C 755 3648 1088 3686 1344 3839 
L 1344 461 
C 1344 236 1331 160 781 160 
L 589 160 
L 589 0 
C 896 0 1216 0 1523 0 
C 1830 0 2150 0 2458 0 
L 2458 160 
L 2266 160 
C 1715 160 1702 230 1702 458 
L 1702 4058 
z
" transform="scale(0.015625)"/>
       </defs>
       <use xlink:href="#CMR17-31" transform="scale(0.996264)"/>
       <use xlink:href="#CMR17-30" transform="translate(45.690477 0) scale(0.996264)"/>
       <use xlink:href="#CMR17-30" transform="translate(91.380954 0) scale(0.996264)"/>
       <use xlink:href="#CMR17-30" transform="translate(137.071431 0) scale(0.996264)"/>
      </g>
     </g>
    </g>
   </g>
   <g id="matplotlib.axis_2">
    <g id="ytick_1">
     <g id="line2d_7">
      <defs>
       <path id="mb7de6d9332" d="M 0 0 
L -3.5 0 
" style="stroke: #000000; stroke-width: 0.8"/>
      </defs>
      <g>
       <use xlink:href="#mb7de6d9332" x="24.162671" y="252.557689" style="stroke: #000000; stroke-width: 0.8"/>
      </g>
     </g>
     <g id="text_7">
      <!-- $\mathdefault{24}$ -->
      <g transform="translate(7.2 256.016938) scale(0.1 -0.1)">
       <use xlink:href="#CMR17-32" transform="scale(0.996264)"/>
       <use xlink:href="#CMR17-34" transform="translate(45.690477 0) scale(0.996264)"/>
      </g>
     </g>
    </g>
    <g id="ytick_2">
     <g id="line2d_8">
      <g>
       <use xlink:href="#mb7de6d9332" x="24.162671" y="198.111629" style="stroke: #000000; stroke-width: 0.8"/>
      </g>
     </g>
     <g id="text_8">
      <!-- $\mathdefault{25}$ -->
      <g transform="translate(7.2 201.570878) scale(0.1 -0.1)">
       <defs>
        <path id="CMR17-35" d="M 730 3692 
C 794 3666 1056 3584 1325 3584 
C 1920 3584 2246 3911 2432 4100 
C 2432 4157 2432 4192 2394 4192 
C 2387 4192 2374 4192 2323 4163 
C 2099 4058 1837 3973 1517 3973 
C 1325 3973 1037 3999 723 4139 
C 653 4171 640 4171 634 4171 
C 602 4171 595 4164 595 4037 
L 595 2203 
C 595 2089 595 2057 659 2057 
C 691 2057 704 2070 736 2114 
C 941 2401 1222 2522 1542 2522 
C 1766 2522 2246 2382 2246 1289 
C 2246 1085 2246 715 2054 421 
C 1894 159 1645 25 1370 25 
C 947 25 518 320 403 814 
C 429 807 480 795 506 795 
C 589 795 749 840 749 1038 
C 749 1210 627 1280 506 1280 
C 358 1280 262 1190 262 1011 
C 262 454 704 -128 1382 -128 
C 2042 -128 2669 440 2669 1264 
C 2669 2030 2170 2624 1549 2624 
C 1222 2624 947 2503 730 2274 
L 730 3692 
z
" transform="scale(0.015625)"/>
       </defs>
       <use xlink:href="#CMR17-32" transform="scale(0.996264)"/>
       <use xlink:href="#CMR17-35" transform="translate(45.690477 0) scale(0.996264)"/>
      </g>
     </g>
    </g>
    <g id="ytick_3">
     <g id="line2d_9">
      <g>
       <use xlink:href="#mb7de6d9332" x="24.162671" y="143.665569" style="stroke: #000000; stroke-width: 0.8"/>
      </g>
     </g>
     <g id="text_9">
      <!-- $\mathdefault{26}$ -->
      <g transform="translate(7.2 147.124818) scale(0.1 -0.1)">
       <use xlink:href="#CMR17-32" transform="scale(0.996264)"/>
       <use xlink:href="#CMR17-36" transform="translate(45.690477 0) scale(0.996264)"/>
      </g>
     </g>
    </g>
    <g id="ytick_4">
     <g id="line2d_10">
      <g>
       <use xlink:href="#mb7de6d9332" x="24.162671" y="89.219509" style="stroke: #000000; stroke-width: 0.8"/>
      </g>
     </g>
     <g id="text_10">
      <!-- $\mathdefault{27}$ -->
      <g transform="translate(7.2 92.678758) scale(0.1 -0.1)">
       <defs>
        <path id="CMR17-37" d="M 2886 3941 
L 2886 4081 
L 1382 4081 
C 634 4081 621 4165 595 4288 
L 480 4288 
L 294 3094 
L 410 3094 
C 429 3215 474 3540 550 3661 
C 589 3712 1062 3712 1171 3712 
L 2579 3712 
L 1869 2661 
C 1395 1954 1069 999 1069 165 
C 1069 89 1069 -128 1299 -128 
C 1530 -128 1530 89 1530 171 
L 1530 465 
C 1530 1508 1709 2196 2003 2636 
L 2886 3941 
z
" transform="scale(0.015625)"/>
       </defs>
       <use xlink:href="#CMR17-32" transform="scale(0.996264)"/>
       <use xlink:href="#CMR17-37" transform="translate(45.690477 0) scale(0.996264)"/>
      </g>
     </g>
    </g>
    <g id="ytick_5">
     <g id="line2d_11">
      <g>
       <use xlink:href="#mb7de6d9332" x="24.162671" y="34.773449" style="stroke: #000000; stroke-width: 0.8"/>
      </g>
     </g>
     <g id="text_11">
      <!-- $\mathdefault{28}$ -->
      <g transform="translate(7.2 38.232699) scale(0.1 -0.1)">
       <use xlink:href="#CMR17-32" transform="scale(0.996264)"/>
       <use xlink:href="#CMR17-38" transform="translate(45.690477 0) scale(0.996264)"/>
      </g>
     </g>
    </g>
   </g>
   <g id="line2d_12">
    <path d="M 40.395398 67.299157 
L 40.720052 80.447684 
L 41.044707 87.968374 
L 41.369361 84.053887 
L 41.694016 75.703743 
L 42.018671 94.106364 
L 42.343325 61.163068 
L 42.66798 49.700524 
L 42.992634 50.516999 
L 43.317289 82.879977 
L 43.641943 76.053552 
L 43.966598 37.558281 
L 44.291252 82.204937 
L 44.615907 59.084027 
L 44.940561 67.702804 
L 45.265216 52.154709 
L 45.589871 65.71285 
L 45.914525 100.47196 
L 46.23918 65.861993 
L 46.563834 97.460328 
L 46.888489 116.220395 
L 47.537798 82.976846 
L 47.862452 45.358406 
L 48.187107 42.000562 
L 48.511761 75.000439 
L 49.161071 97.913564 
L 49.485725 78.612035 
L 49.81038 25.788131 
L 50.135034 28.991229 
L 50.459689 26.459949 
L 50.784343 27.455643 
L 51.108998 22.944855 
L 51.433652 88.093241 
L 51.758307 70.541163 
L 52.082961 85.000847 
L 52.407616 27.261372 
L 52.732271 33.447794 
L 53.056925 56.681988 
L 53.38158 19.296 
L 53.706234 63.928288 
L 54.030889 76.54854 
L 54.355543 53.211388 
L 54.680198 115.700319 
L 55.004852 65.922241 
L 55.329507 102.056851 
L 55.654161 86.265335 
L 55.978816 93.178407 
L 56.303471 88.087675 
L 56.628125 87.354319 
L 56.95278 96.78911 
L 57.277434 53.953659 
L 57.602089 52.664751 
L 57.926743 69.444347 
L 58.251398 69.20516 
L 58.576052 86.632671 
L 58.900707 52.578154 
L 59.225361 44.26951 
L 59.550016 39.326951 
L 60.199325 83.365166 
L 60.52398 77.568793 
L 60.848634 41.812952 
L 61.173289 21.97839 
L 61.822598 94.314354 
L 62.147252 121.409086 
L 62.796561 34.159949 
L 63.121216 19.654071 
L 63.445871 36.288113 
L 63.770525 45.031568 
L 64.09518 43.840835 
L 64.419834 50.159117 
L 64.744489 107.257924 
L 65.069143 134.491659 
L 65.393798 109.953453 
L 65.718452 107.359839 
L 66.367761 124.821178 
L 66.692416 127.465303 
L 67.017071 80.36288 
L 67.341725 92.387615 
L 67.66638 137.47663 
L 68.315689 72.489272 
L 68.640343 74.618383 
L 68.964998 46.014246 
L 69.289652 61.365441 
L 69.614307 48.034858 
L 69.938961 84.311512 
L 70.588271 190.307961 
L 70.912925 188.195912 
L 71.23758 126.730489 
L 71.562234 124.992988 
L 71.886889 108.287795 
L 72.211543 108.879782 
L 72.860852 148.377954 
L 73.185507 120.815298 
L 73.510161 135.982577 
L 73.834816 98.413339 
L 74.159471 106.205642 
L 74.484125 76.840952 
L 74.80878 68.756641 
L 75.133434 66.480833 
L 75.458089 82.230216 
L 75.782743 69.026099 
L 76.432052 99.351317 
L 77.081361 50.970419 
L 77.406016 56.770325 
L 77.730671 97.521371 
L 78.055325 44.618254 
L 78.37998 77.478532 
L 78.704634 77.751119 
L 79.029289 97.095816 
L 79.353943 92.985047 
L 79.678598 108.050833 
L 80.003252 61.806804 
L 80.327907 66.616175 
L 80.652561 64.163524 
L 80.977216 136.763756 
L 81.301871 80.119915 
L 81.626525 91.991787 
L 81.95118 137.29034 
L 82.275834 89.514276 
L 82.600489 88.597922 
L 82.925143 76.862993 
L 83.249798 108.572812 
L 83.574452 105.968395 
L 83.899107 139.828434 
L 84.223761 145.926064 
L 84.548416 113.037559 
L 85.197725 23.192973 
L 85.52238 57.997542 
L 85.847034 19.296 
L 86.171689 65.89343 
L 86.496343 61.738866 
L 86.820998 73.785327 
L 87.470307 88.131393 
L 87.794961 144.490088 
L 88.119616 68.896267 
L 88.444271 19.296 
L 88.768925 57.175552 
L 89.09358 66.461279 
L 89.418234 45.729787 
L 89.742889 37.171655 
L 90.067543 47.263639 
L 90.392198 72.567679 
L 90.716852 157.104639 
L 91.041507 137.692363 
L 91.366161 80.282912 
L 91.690816 99.44192 
L 92.015471 130.828594 
L 92.340125 86.344351 
L 92.66478 122.948503 
L 92.989434 37.952375 
L 93.314089 60.616593 
L 93.638743 39.961984 
L 93.963398 43.947296 
L 94.288052 42.364442 
L 94.612707 41.857155 
L 94.937361 45.503045 
L 95.262016 67.424833 
L 95.586671 49.190574 
L 95.911325 37.776668 
L 96.23598 49.591724 
L 96.560634 69.436711 
L 96.885289 82.384396 
L 97.534598 30.693677 
L 97.859252 19.296 
L 98.183907 55.101182 
L 98.508561 54.010864 
L 98.833216 77.320785 
L 99.157871 117.277338 
L 99.482525 120.709313 
L 99.80718 127.409101 
L 100.131834 85.783205 
L 100.456489 76.880477 
L 100.781143 86.441201 
L 101.105798 37.007324 
L 101.430452 63.948146 
L 101.755107 67.844914 
L 102.079761 148.126611 
L 102.404416 126.183725 
L 102.729071 117.713865 
L 103.053725 38.697257 
L 103.37838 74.911934 
L 103.703034 65.638097 
L 104.027689 22.778456 
L 104.352343 26.975611 
L 104.676998 23.628053 
L 105.001652 57.272638 
L 105.326307 56.859217 
L 105.650961 57.697685 
L 105.975616 56.327059 
L 106.300271 42.345337 
L 106.624925 75.169659 
L 106.94958 69.741909 
L 107.274234 49.590764 
L 107.598889 48.867431 
L 107.923543 19.296 
L 108.248198 24.567426 
L 108.572852 47.559254 
L 108.897507 96.959315 
L 109.222161 40.482528 
L 109.546816 46.864615 
L 109.871471 86.294038 
L 110.52078 19.853851 
L 111.170089 78.965623 
L 111.494743 118.647597 
L 111.819398 62.740732 
L 112.144052 50.065021 
L 112.468707 127.564722 
L 112.793361 67.844326 
L 113.118016 54.846753 
L 113.442671 63.282617 
L 113.767325 48.840917 
L 114.09198 25.190496 
L 114.416634 64.760791 
L 114.741289 57.332584 
L 115.065943 66.278103 
L 115.390598 38.544612 
L 115.715252 38.068452 
L 116.039907 28.707517 
L 116.689216 95.405762 
L 117.013871 19.761196 
L 117.66318 69.419407 
L 117.987834 41.626101 
L 118.312489 79.155475 
L 118.637143 58.22146 
L 118.961798 81.724827 
L 119.286452 79.944191 
L 119.611107 42.021775 
L 120.260416 76.774768 
L 120.585071 19.296 
L 120.909725 19.296 
L 121.23438 111.002651 
L 121.559034 162.906541 
L 121.883689 103.188109 
L 122.208343 104.607175 
L 122.532998 148.1254 
L 122.857652 132.510002 
L 123.506961 188.189888 
L 123.831616 186.724772 
L 124.156271 146.206973 
L 124.480925 79.189049 
L 125.130234 157.201702 
L 125.454889 140.802397 
L 125.779543 117.859049 
L 126.104198 119.850474 
L 126.428852 43.688337 
L 126.753507 26.492259 
L 127.078161 19.296 
L 127.402816 43.055813 
L 128.052125 135.129493 
L 128.37678 140.384258 
L 128.701434 112.141362 
L 129.026089 53.045264 
L 129.350743 85.925466 
L 129.675398 105.527136 
L 130.000052 132.674703 
L 130.324707 119.786414 
L 130.649361 79.282037 
L 130.974016 96.567319 
L 131.298671 61.990425 
L 131.623325 72.072763 
L 131.94798 44.81281 
L 132.272634 61.333314 
L 132.597289 63.963077 
L 133.571252 33.145946 
L 134.220561 98.406314 
L 134.545216 106.0383 
L 134.869871 39.431832 
L 135.194525 51.523526 
L 135.51918 92.61912 
L 135.843834 88.077989 
L 136.168489 81.580864 
L 136.493143 104.409184 
L 136.817798 103.662461 
L 137.142452 89.586662 
L 137.467107 67.346445 
L 137.791761 131.327036 
L 138.116416 97.812547 
L 138.441071 107.774284 
L 138.765725 94.042019 
L 139.09038 56.446735 
L 139.415034 41.803024 
L 139.739689 59.904729 
L 140.064343 42.278475 
L 140.388998 109.596381 
L 140.713652 57.569701 
L 141.038307 93.279447 
L 141.362961 49.469304 
L 141.687616 48.482979 
L 142.012271 58.787387 
L 142.336925 75.436258 
L 142.66158 106.356255 
L 142.986234 86.782789 
L 143.310889 80.732444 
L 143.635543 104.244521 
L 143.960198 93.357271 
L 144.284852 101.014304 
L 144.609507 137.164152 
L 144.934161 126.502739 
L 145.258816 134.840047 
L 145.583471 115.0921 
L 145.908125 77.96096 
L 146.23278 69.385334 
L 146.557434 79.093066 
L 146.882089 68.697249 
L 147.206743 114.615888 
L 147.856052 19.296 
L 148.180707 69.874357 
L 148.505361 75.00271 
L 148.830016 95.469172 
L 149.154671 97.863896 
L 149.80398 60.617142 
L 150.128634 75.896571 
L 150.453289 79.657316 
L 150.777943 69.121617 
L 151.102598 86.804291 
L 151.427252 79.86301 
L 151.751907 98.745086 
L 152.076561 155.791857 
L 152.401216 104.72656 
L 152.725871 112.073834 
L 153.050525 76.882276 
L 153.37518 78.027839 
L 153.699834 167.204525 
L 154.024489 108.658198 
L 154.349143 111.701064 
L 154.673798 72.441096 
L 154.998452 115.904576 
L 155.323107 90.792396 
L 155.647761 22.109245 
L 155.972416 51.844481 
L 156.297071 50.715794 
L 156.94638 138.976635 
L 157.271034 99.037626 
L 157.595689 80.482495 
L 157.920343 100.956438 
L 158.244998 92.309387 
L 158.569652 97.641314 
L 158.894307 82.530174 
L 159.218961 81.841761 
L 159.543616 89.987786 
L 159.868271 109.450245 
L 160.192925 95.228036 
L 160.51758 102.00976 
L 161.166889 149.422878 
L 161.491543 186.084377 
L 161.816198 105.911206 
L 162.140852 62.987183 
L 162.465507 61.842903 
L 162.790161 82.726487 
L 163.114816 125.287005 
L 163.439471 79.781296 
L 164.08878 156.080257 
L 164.738089 79.955542 
L 165.062743 86.027542 
L 165.387398 43.684397 
L 165.712052 81.534056 
L 166.036707 81.571779 
L 166.361361 109.203785 
L 166.686016 113.621229 
L 167.010671 189.014439 
L 167.335325 99.348927 
L 167.65998 60.654542 
L 167.984634 143.240668 
L 168.309289 85.057687 
L 168.633943 78.080865 
L 169.283252 106.834356 
L 169.607907 146.693674 
L 169.932561 42.156656 
L 170.257216 81.205526 
L 170.581871 88.108154 
L 170.906525 73.679292 
L 171.23118 107.482124 
L 171.555834 83.176099 
L 171.880489 135.389557 
L 172.205143 113.173274 
L 172.529798 114.188726 
L 172.854452 108.078871 
L 173.179107 62.480725 
L 173.503761 65.490848 
L 173.828416 19.296 
L 174.153071 30.103494 
L 174.477725 76.735099 
L 174.80238 87.585373 
L 175.127034 167.850069 
L 175.451689 79.685499 
L 175.776343 113.561241 
L 176.100998 171.75216 
L 176.425652 204.623448 
L 176.750307 197.275406 
L 177.074961 166.727109 
L 177.399616 180.17849 
L 177.724271 186.395133 
L 178.048925 175.071961 
L 178.37358 170.217342 
L 178.698234 147.936725 
L 179.022889 222.399005 
L 179.347543 133.245614 
L 179.996852 85.298922 
L 180.321507 100.847821 
L 180.970816 157.757143 
L 181.295471 156.972221 
L 181.620125 69.310806 
L 181.94478 102.084104 
L 182.269434 146.405255 
L 182.594089 121.740922 
L 182.918743 38.557876 
L 183.243398 19.296 
L 183.568052 90.816858 
L 183.892707 187.813088 
L 184.217361 162.027601 
L 184.542016 44.338219 
L 184.866671 58.186344 
L 185.191325 151.270993 
L 185.51598 142.605385 
L 185.840634 123.012812 
L 186.165289 174.747323 
L 186.489943 164.801488 
L 186.814598 67.416185 
L 187.139252 72.620023 
L 187.463907 71.107737 
L 187.788561 92.334358 
L 188.437871 35.242641 
L 188.762525 55.813818 
L 189.08718 122.024074 
L 189.411834 97.345897 
L 189.736489 112.578097 
L 190.061143 110.183378 
L 190.385798 60.718101 
L 191.035107 108.059026 
L 191.359761 152.462055 
L 191.684416 75.389489 
L 192.009071 74.926629 
L 192.65838 103.308281 
L 192.983034 75.022577 
L 193.307689 71.502947 
L 193.632343 82.746658 
L 193.956998 116.263301 
L 194.281652 165.539965 
L 194.606307 88.458533 
L 194.930961 137.969717 
L 195.255616 155.338797 
L 195.580271 72.401961 
L 195.904925 119.38351 
L 196.22958 80.920027 
L 196.554234 82.213064 
L 196.878889 129.067297 
L 197.203543 107.641721 
L 197.528198 132.475769 
L 197.852852 193.581 
L 198.177507 203.735666 
L 198.502161 204.035776 
L 198.826816 219.858227 
L 199.151471 261.216 
L 199.476125 213.464754 
L 199.80078 182.33465 
L 200.125434 107.861825 
L 200.450089 187.838885 
L 200.774743 147.810538 
L 201.099398 226.381414 
L 201.748707 216.627247 
L 202.073361 119.614605 
L 202.398016 138.285145 
L 202.722671 168.585225 
L 203.37198 66.708095 
L 203.696634 154.117101 
L 204.021289 88.12874 
L 204.345943 89.725009 
L 204.670598 126.920217 
L 204.995252 55.176404 
L 205.644561 241.659323 
L 205.969216 149.821214 
L 206.293871 142.980907 
L 206.618525 184.530083 
L 206.94318 155.098591 
L 207.267834 169.350838 
L 207.592489 149.091399 
L 207.917143 79.216132 
L 208.566452 155.103159 
L 208.891107 147.100156 
L 209.215761 59.654042 
L 209.540416 75.242282 
L 209.865071 78.951063 
L 210.189725 142.951291 
L 210.51438 74.690846 
L 210.839034 74.922855 
L 211.163689 90.951349 
L 211.488343 70.157428 
L 211.812998 95.932485 
L 212.137652 108.726122 
L 212.462307 100.640367 
L 212.786961 103.130675 
L 213.111616 118.279565 
L 213.436271 107.387247 
L 213.760925 90.171317 
L 214.08558 102.603054 
L 214.410234 124.613165 
L 214.734889 101.090839 
L 215.059543 107.060635 
L 215.384198 147.830591 
L 215.708852 73.910611 
L 216.033507 104.807549 
L 216.358161 34.443854 
L 216.682816 112.546847 
L 217.007471 75.516111 
L 217.332125 68.913387 
L 217.981434 157.659899 
L 218.306089 169.454243 
L 218.955398 114.811395 
L 219.280052 107.048319 
L 219.604707 146.292158 
L 219.929361 153.532948 
L 220.254016 116.336783 
L 220.578671 115.580741 
L 220.903325 117.427644 
L 221.22798 152.280626 
L 221.552634 137.534245 
L 221.877289 93.307318 
L 222.201943 73.616114 
L 222.851252 114.809772 
L 223.175907 84.170812 
L 223.500561 123.91108 
L 223.825216 140.176556 
L 224.149871 130.598649 
L 224.474525 70.457173 
L 224.79918 68.466865 
L 225.123834 67.59824 
L 225.448489 95.646916 
L 226.097798 55.736564 
L 226.422452 60.011458 
L 226.747107 69.312546 
L 227.071761 57.61128 
L 227.396416 56.789237 
L 227.721071 56.520195 
L 228.045725 55.775217 
L 228.37038 32.193026 
L 228.695034 51.131445 
L 229.019689 124.926356 
L 229.344343 138.037326 
L 229.668998 91.627379 
L 229.993652 80.052081 
L 230.318307 121.626897 
L 230.642961 110.265039 
L 230.967616 57.886514 
L 231.292271 110.683553 
L 231.616925 117.587785 
L 231.94158 163.931063 
L 232.590889 100.521532 
L 232.915543 141.051098 
L 233.564852 62.466829 
L 233.889507 69.282643 
L 234.214161 107.306168 
L 234.538816 116.098019 
L 234.863471 132.75489 
L 235.188125 164.871343 
L 235.51278 95.882626 
L 235.837434 88.251424 
L 236.162089 65.245055 
L 236.486743 102.246475 
L 236.811398 158.830694 
L 237.136052 123.603961 
L 237.460707 172.482577 
L 237.785361 124.419279 
L 238.110016 57.354448 
L 238.434671 100.233488 
L 238.759325 60.687267 
L 239.08398 124.000835 
L 239.408634 109.305056 
L 239.733289 54.985109 
L 240.057943 129.955165 
L 240.382598 122.951391 
L 240.707252 47.122375 
L 241.356561 97.141751 
L 241.681216 141.56045 
L 242.005871 118.303534 
L 242.330525 64.348779 
L 242.65518 75.700888 
L 242.979834 140.726305 
L 243.304489 63.484798 
L 243.629143 64.719826 
L 243.953798 70.111515 
L 244.278452 117.223792 
L 244.603107 84.011639 
L 244.927761 102.933518 
L 245.252416 145.601887 
L 245.577071 171.884428 
L 245.901725 74.221304 
L 246.22638 58.908443 
L 246.551034 28.054516 
L 246.875689 63.490454 
L 247.200343 41.050414 
L 247.524998 80.837937 
L 247.849652 38.848165 
L 248.498961 145.75772 
L 248.823616 117.988901 
L 249.148271 78.473494 
L 249.472925 137.221562 
L 249.79758 124.647825 
L 250.122234 125.594643 
L 250.446889 77.624856 
L 250.771543 121.292593 
L 251.420852 77.732966 
L 251.745507 109.243108 
L 252.070161 53.775257 
L 252.394816 52.580664 
L 252.719471 117.910864 
L 253.044125 112.513204 
L 253.36878 122.747448 
L 253.693434 115.138736 
L 254.018089 76.570055 
L 254.342743 108.221811 
L 254.667398 70.227254 
L 254.992052 85.38925 
L 255.316707 59.078411 
L 255.641361 50.127812 
L 255.966016 110.897979 
L 256.290671 80.030918 
L 256.615325 34.897263 
L 256.93998 36.312611 
L 257.264634 101.467004 
L 257.589289 96.821677 
L 258.238598 33.664662 
L 258.563252 91.59835 
L 258.887907 47.969985 
L 259.212561 82.831116 
L 259.537216 35.950312 
L 259.861871 31.783479 
L 260.186525 105.85138 
L 260.51118 41.59002 
L 260.835834 74.547358 
L 261.160489 65.041809 
L 261.485143 66.177403 
L 261.809798 74.664335 
L 262.134452 57.550393 
L 262.459107 26.294206 
L 262.783761 76.220736 
L 263.108416 24.22368 
L 263.757725 94.169688 
L 264.08238 20.059258 
L 264.407034 59.045484 
L 264.731689 58.399298 
L 265.056343 70.441987 
L 265.380998 105.107768 
L 265.705652 23.968716 
L 266.030307 82.196355 
L 266.354961 36.806667 
L 266.679616 125.740553 
L 267.004271 81.151018 
L 267.328925 112.991896 
L 267.65358 104.06861 
L 267.978234 47.608482 
L 268.302889 120.981351 
L 268.627543 71.054137 
L 268.952198 70.918958 
L 269.276852 80.190177 
L 269.601507 117.960731 
L 269.926161 118.659927 
L 270.250816 129.97888 
L 270.575471 132.586121 
L 271.549434 69.782571 
L 271.874089 97.549538 
L 272.523398 67.103122 
L 272.848052 48.872951 
L 273.172707 52.868855 
L 273.497361 100.557355 
L 273.822016 43.937473 
L 274.146671 64.838962 
L 274.471325 54.037324 
L 274.79598 66.263906 
L 275.120634 38.995835 
L 275.445289 47.528799 
L 275.769943 35.081039 
L 276.094598 54.607455 
L 276.419252 101.113523 
L 276.743907 102.404841 
L 277.068561 54.946949 
L 277.393216 67.308356 
L 277.717871 43.508271 
L 278.042525 107.438812 
L 278.36718 67.562441 
L 278.691834 50.379917 
L 279.016489 98.645581 
L 279.341143 75.322795 
L 279.665798 85.155362 
L 279.990452 53.486436 
L 280.639761 50.116118 
L 281.289071 144.695396 
L 281.613725 131.874642 
L 281.93838 178.146195 
L 282.263034 147.168104 
L 282.587689 175.272618 
L 282.912343 130.92978 
L 283.236998 238.818911 
L 283.561652 218.70488 
L 283.886307 111.323119 
L 284.210961 184.730223 
L 284.535616 118.369347 
L 284.860271 101.088191 
L 285.50958 129.110421 
L 285.834234 78.618928 
L 286.158889 71.471045 
L 286.483543 20.891451 
L 286.808198 98.234151 
L 287.132852 119.979147 
L 287.457507 106.966266 
L 287.782161 74.284473 
L 288.106816 92.66997 
L 288.431471 85.497733 
L 288.756125 83.053189 
L 289.730089 165.331033 
L 290.054743 116.256908 
L 290.379398 175.213565 
L 290.704052 94.604134 
L 291.028707 84.666336 
L 291.353361 56.137187 
L 291.678016 60.057321 
L 292.327325 62.698951 
L 292.65198 105.333086 
L 292.976634 77.886882 
L 293.301289 109.467465 
L 293.625943 112.284754 
L 293.950598 110.405948 
L 294.275252 128.006743 
L 294.599907 107.01322 
L 294.924561 61.388502 
L 295.249216 63.298794 
L 295.573871 87.000154 
L 295.898525 133.614764 
L 296.22318 146.376912 
L 296.547834 69.165101 
L 296.872489 112.634526 
L 297.197143 95.711721 
L 297.521798 52.396184 
L 297.846452 73.766664 
L 298.171107 68.769615 
L 298.495761 119.781036 
L 298.820416 118.812168 
L 299.145071 114.517904 
L 299.469725 107.438815 
L 299.79438 171.56192 
L 300.119034 64.493198 
L 300.443689 80.502967 
L 300.768343 62.523154 
L 301.092998 73.792522 
L 301.417652 66.789708 
L 301.742307 66.334 
L 302.066961 98.434781 
L 302.391616 70.896517 
L 302.716271 98.622668 
L 303.040925 91.689839 
L 303.36558 89.485735 
L 303.690234 42.131972 
L 304.014889 81.011691 
L 304.339543 79.902533 
L 304.664198 117.556135 
L 304.988852 86.927968 
L 305.313507 78.361079 
L 305.638161 105.001947 
L 306.287471 45.207807 
L 306.612125 46.11496 
L 306.93678 35.905629 
L 307.261434 79.075541 
L 307.586089 77.355862 
L 307.910743 75.016772 
L 308.235398 165.205742 
L 308.560052 90.759157 
L 308.884707 96.644097 
L 309.209361 105.216671 
L 309.534016 122.461409 
L 309.858671 117.910728 
L 310.183325 92.171572 
L 310.50798 91.052105 
L 310.832634 106.281999 
L 311.157289 81.122747 
L 311.481943 78.516784 
L 311.806598 71.706311 
L 312.131252 84.461821 
L 312.455907 29.617612 
L 312.780561 97.367098 
L 313.105216 20.564401 
L 313.429871 19.296 
L 313.754525 23.326337 
L 314.403834 94.879811 
L 314.728489 22.845865 
L 315.053143 118.097901 
L 315.377798 105.629748 
L 315.702452 111.69473 
L 316.027107 95.371969 
L 316.351761 87.169356 
L 316.676416 86.639018 
L 317.001071 69.871762 
L 317.325725 28.569352 
L 317.65038 27.115458 
L 317.975034 112.995496 
L 318.299689 109.407803 
L 318.624343 72.179208 
L 318.948998 90.416562 
L 319.273652 80.975617 
L 319.598307 91.713215 
L 319.922961 92.243135 
L 320.247616 60.458308 
L 320.572271 91.271058 
L 320.896925 91.258788 
L 321.22158 97.752962 
L 321.546234 86.294754 
L 321.870889 100.992561 
L 322.195543 71.526686 
L 322.520198 80.226541 
L 322.844852 133.393641 
L 323.169507 158.993011 
L 323.494161 113.872853 
L 323.818816 109.036651 
L 324.143471 176.574058 
L 324.468125 105.557628 
L 324.79278 88.919632 
L 325.117434 89.67755 
L 325.442089 90.033881 
L 325.766743 90.764767 
L 326.091398 104.092114 
L 326.416052 102.407256 
L 327.065361 135.402466 
L 327.390016 134.74692 
L 327.714671 158.186608 
L 328.039325 106.143288 
L 328.36398 122.986159 
L 328.688634 110.188477 
L 329.337943 74.796634 
L 329.662598 71.14283 
L 329.987252 113.019351 
L 330.311907 107.766146 
L 330.636561 119.629712 
L 331.285871 165.551731 
L 331.610525 154.015441 
L 332.259834 100.859649 
L 332.584489 177.193286 
L 332.909143 123.97911 
L 333.233798 91.462136 
L 333.558452 91.570478 
L 333.883107 97.8417 
L 334.207761 92.843005 
L 334.532416 152.202416 
L 335.181725 95.23464 
L 335.50638 99.343667 
L 335.831034 136.598359 
L 336.155689 151.162699 
L 336.480343 171.057143 
L 336.804998 137.206697 
L 337.129652 170.863486 
L 337.454307 176.279349 
L 337.778961 169.675054 
L 338.103616 167.788111 
L 338.428271 190.693546 
L 338.752925 134.989573 
L 339.07758 136.981514 
L 339.402234 111.755305 
L 339.726889 190.624166 
L 340.051543 108.077564 
L 340.376198 99.829442 
L 340.700852 99.397554 
L 341.025507 147.583272 
L 341.350161 168.593334 
L 341.999471 135.561746 
L 342.324125 238.906515 
L 342.64878 236.339249 
L 342.973434 256.209865 
L 343.298089 207.812203 
L 343.622743 247.802994 
L 343.947398 178.320248 
L 344.272052 172.45174 
L 344.596707 160.259036 
L 344.921361 191.183581 
L 345.246016 209.019392 
L 345.570671 173.524217 
L 345.895325 174.906221 
L 346.21998 88.827491 
L 346.544634 156.979106 
L 347.193943 27.296281 
L 347.518598 23.317457 
L 347.843252 116.32318 
L 348.167907 63.332835 
L 348.492561 32.448645 
L 348.817216 29.428897 
L 349.141871 65.095051 
L 349.466525 157.30951 
L 349.79118 156.549205 
L 350.115834 141.871746 
L 350.440489 132.861627 
L 350.765143 113.500278 
L 351.089798 163.344665 
L 351.414452 151.886347 
L 351.739107 100.851964 
L 352.063761 82.096836 
L 352.388416 119.533034 
L 352.713071 107.532471 
L 353.037725 68.269782 
L 353.36238 70.218713 
L 353.687034 87.293407 
L 354.011689 69.140998 
L 354.336343 138.448759 
L 354.660998 145.357804 
L 354.985652 88.402466 
L 355.310307 81.592689 
L 355.634961 89.562866 
L 355.959616 81.161106 
L 356.284271 107.532471 
L 356.608925 107.41716 
L 356.93358 120.657996 
L 357.258234 107.182446 
L 357.582889 107.495275 
L 357.907543 171.09004 
L 358.232198 167.613876 
L 358.556852 120.852784 
L 358.881507 133.327151 
L 359.206161 158.077482 
L 359.530816 159.647594 
L 359.855471 164.826269 
L 360.180125 135.039591 
L 360.50478 134.588636 
L 360.829434 135.191913 
L 361.478743 108.939596 
L 361.803398 106.860031 
L 362.128052 124.129984 
L 362.452707 132.236649 
L 362.777361 103.930723 
L 363.102016 111.799283 
L 363.426671 130.371643 
L 363.751325 75.568527 
L 364.07598 113.501402 
L 364.400634 122.069051 
L 364.725289 113.567206 
L 365.049943 81.636003 
L 365.049943 81.636003 
" clip-path="url(#p24baf3a99b)" style="fill: none; stroke: #e46e56; stroke-width: 1.5; stroke-linecap: square"/>
   </g>
   <g id="line2d_13">
    <path d="M 40.395398 113.741346 
L 40.720052 19.296 
L 41.044707 32.017277 
L 41.369361 37.793568 
L 41.694016 33.317326 
L 42.018671 53.33438 
L 42.343325 90.460707 
L 42.66798 72.188752 
L 42.992634 75.55315 
L 43.317289 86.318701 
L 43.641943 74.999127 
L 43.966598 73.265832 
L 44.291252 76.567124 
L 44.615907 75.628587 
L 44.940561 78.713642 
L 45.265216 78.101895 
L 45.589871 36.995395 
L 46.23918 95.808669 
L 46.563834 89.784794 
L 46.888489 70.293724 
L 47.213143 21.54916 
L 47.537798 41.81643 
L 47.862452 69.379811 
L 48.187107 23.573615 
L 48.836416 70.282081 
L 49.161071 81.7753 
L 49.485725 46.164639 
L 49.81038 35.753733 
L 50.135034 38.896519 
L 50.459689 33.185048 
L 50.784343 71.08074 
L 51.108998 93.359527 
L 51.433652 97.952846 
L 51.758307 83.859692 
L 52.082961 146.151194 
L 52.407616 93.772383 
L 52.732271 111.204346 
L 53.056925 107.509396 
L 53.38158 46.756404 
L 53.706234 82.09501 
L 54.030889 99.674132 
L 54.355543 58.460666 
L 54.680198 47.282459 
L 55.004852 59.144955 
L 55.329507 46.633037 
L 55.978816 157.923187 
L 56.303471 128.290086 
L 56.628125 150.603416 
L 56.95278 120.584326 
L 57.277434 107.656019 
L 57.602089 107.560242 
L 57.926743 107.10094 
L 58.251398 107.039711 
L 58.576052 127.186861 
L 58.900707 155.024069 
L 59.225361 141.99501 
L 59.550016 107.369368 
L 59.874671 126.61012 
L 60.199325 107.69484 
L 60.52398 107.447777 
L 61.173289 107.358258 
L 61.497943 102.241851 
L 61.822598 52.31176 
L 62.147252 58.583945 
L 62.471907 25.357276 
L 62.796561 21.733835 
L 63.121216 73.837183 
L 63.770525 63.333518 
L 64.09518 22.035259 
L 64.419834 64.727635 
L 64.744489 31.909442 
L 65.069143 40.469106 
L 65.393798 63.362885 
L 65.718452 30.448051 
L 66.043107 61.118741 
L 66.367761 38.889981 
L 66.692416 24.602915 
L 67.017071 27.259931 
L 67.341725 25.201734 
L 67.66638 82.040414 
L 67.991034 33.515382 
L 68.315689 58.80282 
L 68.640343 33.910157 
L 69.289652 40.568314 
L 69.614307 59.637429 
L 69.938961 63.02792 
L 70.263616 84.341734 
L 70.588271 61.824891 
L 70.912925 84.094474 
L 71.23758 67.940438 
L 71.562234 45.202812 
L 71.886889 90.515846 
L 72.211543 30.873185 
L 72.536198 47.370746 
L 72.860852 40.642885 
L 73.185507 72.545736 
L 73.510161 34.123621 
L 73.834816 53.896522 
L 74.159471 36.51885 
L 74.484125 37.614362 
L 74.80878 60.773306 
L 75.133434 93.623868 
L 75.458089 43.802625 
L 75.782743 56.721705 
L 76.107398 41.780959 
L 76.432052 91.517188 
L 76.756707 43.726885 
L 77.081361 61.683097 
L 77.406016 56.38482 
L 77.730671 46.789907 
L 78.055325 86.534366 
L 78.37998 104.004509 
L 78.704634 89.973693 
L 79.029289 115.739758 
L 79.353943 114.601559 
L 79.678598 123.844764 
L 80.003252 104.458892 
L 80.327907 49.169118 
L 80.977216 82.143659 
L 81.301871 125.931863 
L 81.626525 90.924112 
L 82.275834 53.678653 
L 82.600489 28.910575 
L 82.925143 40.495928 
L 83.249798 71.815687 
L 83.574452 69.748357 
L 83.899107 68.54645 
L 84.223761 79.171489 
L 84.548416 54.688475 
L 84.873071 53.567668 
L 85.52238 100.413652 
L 86.171689 89.708727 
L 86.496343 19.296 
L 86.820998 19.296 
L 87.145652 40.732388 
L 87.470307 42.876416 
L 87.794961 22.034542 
L 88.119616 31.372497 
L 88.444271 34.75571 
L 88.768925 65.486883 
L 89.09358 49.687482 
L 89.418234 64.30433 
L 89.742889 50.159828 
L 90.067543 96.264114 
L 90.392198 64.230847 
L 90.716852 78.695662 
L 91.041507 57.291388 
L 91.366161 103.929272 
L 91.690816 52.358427 
L 92.015471 68.473546 
L 92.340125 46.886211 
L 92.66478 88.356261 
L 92.989434 72.303196 
L 93.314089 122.359655 
L 93.638743 81.773768 
L 93.963398 68.610089 
L 94.288052 113.152558 
L 94.612707 95.078444 
L 94.937361 123.789749 
L 95.262016 110.372049 
L 95.586671 61.230169 
L 95.911325 62.541392 
L 96.23598 67.429964 
L 96.560634 64.573015 
L 96.885289 63.61244 
L 97.209943 88.554357 
L 97.534598 59.860798 
L 98.183907 139.037827 
L 98.833216 69.199201 
L 99.157871 64.959332 
L 99.482525 87.530644 
L 99.80718 56.245811 
L 100.131834 92.927566 
L 100.781143 121.626827 
L 101.105798 104.306195 
L 101.430452 165.672901 
L 101.755107 125.945476 
L 102.079761 113.113113 
L 102.404416 107.56534 
L 102.729071 147.889736 
L 103.053725 168.532627 
L 103.37838 115.946817 
L 103.703034 99.22639 
L 104.027689 181.332948 
L 104.352343 94.397996 
L 104.676998 97.953936 
L 105.001652 86.683869 
L 105.326307 79.743925 
L 105.650961 82.272542 
L 105.975616 73.865064 
L 106.300271 30.628853 
L 106.624925 129.544285 
L 106.94958 76.871941 
L 107.598889 138.889751 
L 107.923543 149.191532 
L 108.248198 97.079683 
L 108.572852 81.481081 
L 108.897507 19.296 
L 109.222161 58.904934 
L 109.546816 76.702507 
L 109.871471 152.221205 
L 110.196125 59.186214 
L 110.52078 100.23027 
L 110.845434 106.702722 
L 111.170089 68.517455 
L 111.494743 110.629091 
L 111.819398 96.613736 
L 112.144052 93.050181 
L 112.468707 69.440684 
L 112.793361 66.221318 
L 113.118016 92.964995 
L 113.442671 80.744293 
L 113.767325 75.490584 
L 114.09198 75.710267 
L 114.416634 76.319656 
L 114.741289 115.486944 
L 115.065943 88.592486 
L 115.390598 138.894431 
L 115.715252 99.37757 
L 116.364561 63.130841 
L 116.689216 65.708714 
L 117.013871 77.455487 
L 117.338525 47.65393 
L 117.66318 91.704404 
L 117.987834 57.999916 
L 118.312489 61.941525 
L 118.637143 79.136267 
L 118.961798 27.945442 
L 119.286452 72.6615 
L 119.611107 102.03746 
L 119.935761 52.863394 
L 120.260416 50.833184 
L 120.585071 88.017689 
L 120.909725 66.130824 
L 121.23438 63.16682 
L 121.559034 34.686223 
L 121.883689 62.191726 
L 122.208343 23.129549 
L 122.857652 45.212476 
L 123.182307 46.608208 
L 123.506961 44.142475 
L 123.831616 69.088878 
L 124.156271 38.77395 
L 124.480925 87.495629 
L 124.80558 43.061594 
L 125.130234 43.324666 
L 125.779543 40.717565 
L 126.428852 34.86414 
L 126.753507 97.183917 
L 127.078161 34.461134 
L 127.402816 33.822528 
L 127.727471 31.362182 
L 128.052125 40.54746 
L 128.37678 40.105494 
L 128.701434 40.080976 
L 129.026089 42.09565 
L 129.350743 40.301524 
L 129.675398 40.688908 
L 130.000052 38.544984 
L 130.324707 42.957188 
L 130.649361 50.300617 
L 130.974016 52.903859 
L 131.298671 105.387279 
L 131.623325 84.537315 
L 131.94798 131.726634 
L 132.272634 84.538316 
L 132.597289 117.663848 
L 132.921943 69.35873 
L 133.246598 82.191915 
L 133.571252 22.656514 
L 133.895907 63.477281 
L 134.545216 21.488333 
L 134.869871 56.291542 
L 135.194525 59.44468 
L 135.51918 56.683065 
L 135.843834 38.341719 
L 136.493143 68.646758 
L 136.817798 30.131537 
L 137.142452 27.955334 
L 137.467107 42.12836 
L 137.791761 48.648506 
L 138.116416 74.126219 
L 138.765725 19.296 
L 139.09038 25.626076 
L 139.415034 52.796876 
L 139.739689 42.193056 
L 140.064343 49.615783 
L 140.388998 19.296 
L 140.713652 76.549806 
L 141.038307 20.881106 
L 141.362961 101.848827 
L 142.012271 57.759161 
L 142.336925 60.189637 
L 142.66158 19.296 
L 142.986234 76.110021 
L 143.310889 36.201027 
L 143.635543 31.710119 
L 143.960198 21.256344 
L 144.284852 58.998476 
L 144.609507 19.296 
L 144.934161 31.777326 
L 145.258816 96.982829 
L 145.583471 113.51944 
L 145.908125 77.873761 
L 146.23278 69.010894 
L 146.557434 67.164179 
L 146.882089 77.194006 
L 147.206743 94.82066 
L 147.531398 73.287084 
L 147.856052 73.957192 
L 148.180707 61.559614 
L 148.505361 55.750192 
L 148.830016 67.314685 
L 149.154671 90.946902 
L 149.479325 53.689184 
L 149.80398 79.175903 
L 150.128634 73.391182 
L 150.453289 78.41361 
L 150.777943 80.188516 
L 151.102598 111.194987 
L 151.427252 94.099005 
L 151.751907 124.213084 
L 152.076561 71.592519 
L 152.401216 60.490213 
L 153.050525 81.601919 
L 153.37518 80.941967 
L 153.699834 84.29871 
L 154.024489 80.476527 
L 154.349143 120.843121 
L 154.673798 109.703884 
L 154.998452 91.205733 
L 155.323107 110.002463 
L 155.647761 73.747236 
L 156.297071 48.940512 
L 156.621725 61.734546 
L 156.94638 42.03154 
L 157.271034 84.46864 
L 157.595689 60.803407 
L 157.920343 50.844639 
L 158.244998 83.433699 
L 158.569652 100.974222 
L 158.894307 40.376394 
L 159.543616 21.956415 
L 159.868271 33.621758 
L 160.192925 58.216307 
L 160.51758 19.296 
L 160.842234 52.381779 
L 161.166889 47.303489 
L 161.491543 84.89572 
L 161.816198 39.771948 
L 162.140852 74.170879 
L 162.465507 19.296 
L 162.790161 28.617975 
L 163.114816 75.509555 
L 163.439471 41.376401 
L 163.764125 41.80836 
L 164.08878 34.448996 
L 164.413434 65.605766 
L 164.738089 47.907559 
L 165.062743 68.041093 
L 165.387398 38.456623 
L 165.712052 39.691611 
L 166.036707 52.356709 
L 166.361361 56.896241 
L 166.686016 37.574255 
L 167.010671 41.644116 
L 167.335325 38.116062 
L 167.65998 51.911301 
L 167.984634 53.474101 
L 168.309289 44.208195 
L 168.633943 19.296 
L 168.958598 46.623157 
L 169.283252 56.094562 
L 169.607907 54.749034 
L 169.932561 20.968752 
L 170.581871 73.236463 
L 170.906525 37.081503 
L 171.23118 51.927292 
L 171.555834 39.672143 
L 171.880489 46.162089 
L 172.205143 77.271906 
L 172.529798 67.209791 
L 172.854452 67.296192 
L 173.179107 37.518964 
L 173.503761 49.556259 
L 173.828416 49.235716 
L 174.477725 28.308209 
L 174.80238 43.297974 
L 175.127034 40.303091 
L 175.451689 35.33091 
L 175.776343 20.370373 
L 176.100998 24.326956 
L 176.425652 56.364409 
L 176.750307 57.220097 
L 177.074961 70.817394 
L 177.399616 61.302981 
L 177.724271 68.157541 
L 178.048925 69.326731 
L 178.37358 62.582241 
L 178.698234 64.407102 
L 179.022889 62.927471 
L 179.347543 98.250179 
L 179.672198 100.577661 
L 179.996852 94.397223 
L 180.321507 127.136028 
L 180.646161 94.095084 
L 180.970816 96.922131 
L 181.295471 64.475835 
L 181.620125 60.91462 
L 181.94478 53.025734 
L 182.269434 51.991335 
L 182.594089 48.251331 
L 182.918743 41.113672 
L 183.243398 74.197016 
L 183.892707 47.273156 
L 184.217361 59.054621 
L 184.542016 43.107938 
L 184.866671 73.231402 
L 185.191325 54.74992 
L 185.51598 83.378679 
L 185.840634 73.828884 
L 186.165289 40.776547 
L 186.489943 81.606617 
L 187.139252 64.997962 
L 187.463907 43.654656 
L 187.788561 43.576041 
L 188.437871 110.108889 
L 188.762525 73.845833 
L 189.411834 110.604057 
L 189.736489 65.90808 
L 190.061143 84.207038 
L 190.385798 43.584648 
L 190.710452 93.363357 
L 191.035107 123.38569 
L 191.359761 31.313666 
L 191.684416 74.074409 
L 192.009071 33.608512 
L 192.333725 43.605165 
L 192.65838 93.211072 
L 192.983034 41.655348 
L 193.307689 115.869256 
L 193.632343 76.723082 
L 193.956998 80.664133 
L 194.281652 73.570332 
L 194.606307 108.418882 
L 194.930961 103.024861 
L 195.255616 87.142776 
L 195.580271 126.651989 
L 195.904925 107.456199 
L 196.22958 110.975332 
L 196.554234 52.860081 
L 196.878889 78.250255 
L 197.203543 25.325649 
L 197.528198 38.864258 
L 197.852852 31.370022 
L 198.177507 54.237978 
L 198.502161 27.503798 
L 198.826816 66.595584 
L 199.151471 43.669984 
L 199.476125 44.953349 
L 199.80078 74.038659 
L 200.125434 55.348162 
L 200.450089 85.861689 
L 200.774743 39.490947 
L 201.099398 40.545979 
L 201.748707 87.28066 
L 202.073361 55.117255 
L 202.398016 83.982543 
L 202.722671 68.887649 
L 203.047325 117.302761 
L 203.37198 89.751836 
L 203.696634 102.369399 
L 204.021289 88.657698 
L 204.345943 97.698819 
L 204.670598 71.299398 
L 204.995252 76.070445 
L 205.319907 83.337808 
L 205.969216 76.150469 
L 206.293871 67.463017 
L 206.618525 125.847938 
L 206.94318 128.079828 
L 207.267834 89.327206 
L 207.917143 106.445567 
L 208.241798 106.066456 
L 208.566452 90.164909 
L 208.891107 68.025858 
L 209.215761 19.296 
L 209.540416 19.296 
L 209.865071 86.11733 
L 210.189725 117.768105 
L 210.51438 56.709558 
L 210.839034 83.963365 
L 211.163689 81.879924 
L 211.488343 84.88662 
L 211.812998 81.680509 
L 212.137652 74.748211 
L 212.462307 76.853262 
L 212.786961 56.906202 
L 213.111616 80.0311 
L 213.436271 83.740459 
L 214.08558 69.244063 
L 214.410234 66.871335 
L 214.734889 85.684242 
L 215.059543 83.871541 
L 215.384198 88.485147 
L 215.708852 101.849202 
L 216.033507 101.434529 
L 216.358161 91.822817 
L 216.682816 98.419559 
L 217.332125 89.023559 
L 217.65678 59.669836 
L 218.306089 48.817047 
L 218.630743 22.958908 
L 218.955398 19.296 
L 219.280052 90.222276 
L 219.604707 24.096535 
L 219.929361 48.476969 
L 220.254016 39.132068 
L 220.578671 33.414409 
L 220.903325 20.076842 
L 221.22798 57.682055 
L 221.552634 35.567794 
L 221.877289 72.227319 
L 222.201943 40.041544 
L 222.526598 77.905863 
L 222.851252 56.030558 
L 223.175907 58.128342 
L 223.500561 76.2679 
L 224.474525 19.296 
L 224.79918 64.997963 
L 225.123834 44.135921 
L 225.448489 89.140762 
L 226.097798 151.896889 
L 226.422452 78.782525 
L 226.747107 48.769752 
L 227.071761 87.104291 
L 227.396416 83.587122 
L 227.721071 88.766573 
L 228.045725 54.371988 
L 228.37038 87.76185 
L 228.695034 97.958476 
L 229.019689 46.963458 
L 229.344343 31.272718 
L 229.668998 31.095916 
L 229.993652 73.471789 
L 230.642961 104.597296 
L 230.967616 110.393501 
L 231.292271 110.861839 
L 231.616925 104.741554 
L 232.266234 121.8478 
L 232.590889 76.588598 
L 232.915543 85.992044 
L 233.240198 43.363417 
L 234.214161 80.183262 
L 234.538816 42.988568 
L 234.863471 94.004607 
L 235.188125 52.959734 
L 235.51278 30.127857 
L 235.837434 33.983528 
L 236.162089 28.41861 
L 236.486743 47.737868 
L 236.811398 51.028043 
L 237.136052 22.097686 
L 237.460707 26.292971 
L 237.785361 20.325227 
L 238.110016 46.882248 
L 238.434671 19.296 
L 239.08398 45.531452 
L 239.408634 43.379035 
L 239.733289 44.165669 
L 240.057943 65.793873 
L 240.382598 74.078692 
L 240.707252 38.79421 
L 241.031907 43.371546 
L 241.356561 42.087686 
L 242.005871 36.414805 
L 242.330525 37.148972 
L 242.65518 42.958386 
L 242.979834 105.714048 
L 243.304489 107.223719 
L 243.629143 77.348811 
L 244.278452 173.450699 
L 244.603107 58.102682 
L 244.927761 19.296 
L 245.252416 73.952481 
L 245.577071 79.832687 
L 245.901725 55.273385 
L 246.22638 85.827757 
L 246.551034 57.9464 
L 246.875689 61.232904 
L 247.200343 53.986239 
L 247.524998 60.635009 
L 247.849652 58.021133 
L 248.174307 63.141332 
L 248.498961 52.639174 
L 248.823616 30.871177 
L 249.148271 71.649712 
L 249.472925 73.277741 
L 249.79758 77.028726 
L 250.122234 97.561789 
L 250.446889 92.114838 
L 250.771543 46.896838 
L 251.096198 81.246688 
L 251.420852 87.51683 
L 251.745507 91.316914 
L 252.070161 88.060341 
L 252.394816 78.829305 
L 252.719471 127.587873 
L 253.044125 137.074757 
L 253.36878 132.306836 
L 253.693434 110.448325 
L 254.018089 150.062689 
L 254.342743 97.116336 
L 254.667398 79.573239 
L 254.992052 54.183777 
L 255.316707 89.126127 
L 255.641361 19.296 
L 256.290671 44.271294 
L 256.615325 19.296 
L 256.93998 19.296 
L 257.264634 47.645328 
L 257.589289 53.412891 
L 257.913943 108.535363 
L 258.563252 66.144441 
L 258.887907 67.923605 
L 259.212561 55.530182 
L 259.537216 58.989201 
L 259.861871 21.050013 
L 260.186525 70.95003 
L 260.51118 37.242436 
L 260.835834 60.866805 
L 261.160489 35.466161 
L 261.485143 40.218261 
L 261.809798 19.296 
L 262.134452 65.453241 
L 262.459107 57.69842 
L 262.783761 45.293483 
L 263.108416 83.677354 
L 263.433071 94.700678 
L 263.757725 67.622551 
L 264.08238 111.096494 
L 264.407034 63.703041 
L 264.731689 81.529485 
L 265.056343 110.254377 
L 265.380998 78.238314 
L 265.705652 102.131805 
L 266.030307 53.681966 
L 266.354961 58.728469 
L 266.679616 71.221271 
L 267.004271 121.796228 
L 267.328925 100.402073 
L 267.65358 70.329131 
L 267.978234 55.377189 
L 268.302889 52.391853 
L 268.627543 66.348797 
L 268.952198 102.730626 
L 269.276852 90.574342 
L 269.601507 139.473512 
L 269.926161 117.527468 
L 270.250816 81.493 
L 270.575471 81.228375 
L 270.900125 98.992042 
L 271.22478 57.059855 
L 271.549434 58.185534 
L 271.874089 68.737094 
L 272.198743 54.882428 
L 272.523398 80.289239 
L 272.848052 95.712275 
L 273.172707 60.790202 
L 273.497361 89.992391 
L 273.822016 49.115985 
L 274.146671 42.482939 
L 274.471325 79.779767 
L 274.79598 77.626315 
L 275.120634 126.183078 
L 275.445289 74.569166 
L 275.769943 40.654272 
L 276.094598 53.41636 
L 276.419252 54.638951 
L 276.743907 99.947528 
L 277.068561 35.76311 
L 277.393216 79.705499 
L 277.717871 83.494592 
L 278.042525 75.518547 
L 278.36718 97.763092 
L 278.691834 66.367606 
L 279.016489 48.46024 
L 279.341143 85.500547 
L 279.665798 97.197125 
L 279.990452 83.796827 
L 280.315107 87.842984 
L 280.639761 48.650627 
L 281.289071 124.946114 
L 281.613725 56.844275 
L 281.93838 79.76161 
L 282.263034 91.107863 
L 282.587689 144.659876 
L 282.912343 108.589397 
L 283.236998 110.093244 
L 283.886307 141.93894 
L 284.210961 124.248716 
L 284.535616 54.026054 
L 284.860271 43.888803 
L 285.184925 55.651123 
L 285.50958 62.704398 
L 286.158889 102.889296 
L 286.483543 86.90023 
L 286.808198 97.918054 
L 287.132852 132.092732 
L 287.457507 78.830892 
L 287.782161 74.215955 
L 288.106816 56.449592 
L 288.431471 19.296 
L 289.405434 74.96584 
L 289.730089 39.649019 
L 290.054743 76.536268 
L 290.379398 65.26656 
L 290.704052 105.522701 
L 291.028707 94.227731 
L 291.678016 123.400619 
L 292.002671 68.551743 
L 292.327325 75.403752 
L 292.65198 118.181803 
L 292.976634 72.819296 
L 293.301289 104.774851 
L 293.625943 61.770912 
L 293.950598 98.926754 
L 294.275252 97.784915 
L 294.599907 89.609286 
L 294.924561 71.541455 
L 295.249216 74.696938 
L 295.573871 85.480225 
L 295.898525 85.762745 
L 296.22318 102.503851 
L 296.872489 59.601158 
L 297.197143 19.296 
L 297.521798 64.356622 
L 297.846452 64.127592 
L 298.171107 85.086765 
L 298.820416 57.358503 
L 299.145071 19.781678 
L 299.469725 53.721671 
L 299.79438 49.663595 
L 300.119034 67.155199 
L 300.443689 60.743319 
L 300.768343 100.84816 
L 301.092998 68.703628 
L 301.417652 69.033143 
L 301.742307 75.5552 
L 302.391616 65.315264 
L 302.716271 62.39984 
L 303.040925 44.281937 
L 303.36558 39.762552 
L 303.690234 79.668564 
L 304.014889 63.573613 
L 304.339543 53.602329 
L 304.664198 38.966334 
L 304.988852 37.887292 
L 305.313507 23.070276 
L 305.638161 19.296 
L 305.962816 60.352783 
L 306.287471 57.934855 
L 306.612125 58.223891 
L 306.93678 61.7705 
L 307.261434 46.360557 
L 307.586089 53.368836 
L 307.910743 54.973352 
L 308.884707 113.591428 
L 309.209361 59.442789 
L 309.534016 64.592709 
L 309.858671 23.231258 
L 310.183325 67.723004 
L 310.50798 78.460934 
L 310.832634 112.12481 
L 311.157289 79.612949 
L 311.481943 137.309857 
L 311.806598 86.024237 
L 312.131252 73.174031 
L 312.455907 76.226652 
L 312.780561 88.968354 
L 313.105216 53.098831 
L 313.429871 67.261693 
L 313.754525 47.711682 
L 314.07918 49.774686 
L 314.403834 103.106678 
L 314.728489 78.677813 
L 315.053143 63.792383 
L 315.377798 92.550507 
L 315.702452 73.423432 
L 316.027107 138.558812 
L 316.351761 66.949221 
L 316.676416 59.010261 
L 317.001071 20.15612 
L 317.325725 27.592256 
L 317.65038 84.222912 
L 317.975034 51.819007 
L 318.299689 65.58827 
L 318.624343 59.710823 
L 318.948998 71.511594 
L 319.273652 64.041403 
L 319.598307 83.627272 
L 319.922961 61.773071 
L 320.247616 70.497555 
L 320.896925 28.789622 
L 321.22158 36.043353 
L 321.546234 24.128516 
L 321.870889 26.805777 
L 322.195543 37.604341 
L 322.520198 42.969431 
L 322.844852 29.014825 
L 323.169507 36.431108 
L 323.494161 61.33696 
L 323.818816 30.890868 
L 324.143471 62.318524 
L 324.468125 32.843179 
L 324.79278 102.513441 
L 325.117434 94.813874 
L 325.442089 97.777361 
L 325.766743 32.347105 
L 326.091398 65.667212 
L 326.416052 76.307688 
L 327.065361 36.219198 
L 327.714671 51.216815 
L 328.039325 44.074489 
L 328.36398 72.049864 
L 328.688634 33.646169 
L 329.013289 88.450177 
L 329.337943 88.985267 
L 329.662598 95.409131 
L 329.987252 68.345979 
L 330.311907 70.982785 
L 330.636561 54.818163 
L 330.961216 19.296 
L 331.285871 45.279073 
L 331.610525 51.072777 
L 331.93518 40.607938 
L 332.259834 43.130793 
L 332.584489 91.952214 
L 332.909143 31.62316 
L 333.233798 19.296 
L 333.558452 47.973496 
L 333.883107 48.980999 
L 334.207761 78.504416 
L 334.532416 57.564759 
L 335.181725 91.628056 
L 335.831034 115.760114 
L 336.155689 105.351718 
L 336.480343 84.921981 
L 336.804998 81.251048 
L 337.129652 109.283713 
L 337.454307 82.342925 
L 337.778961 43.627421 
L 338.103616 148.058225 
L 338.428271 101.967269 
L 339.402234 31.441038 
L 339.726889 19.296 
L 340.051543 23.005259 
L 340.376198 29.021083 
L 340.700852 70.511715 
L 341.025507 23.859594 
L 341.350161 53.779829 
L 341.674816 28.405491 
L 341.999471 28.292444 
L 342.324125 55.325749 
L 342.64878 47.332003 
L 342.973434 45.500363 
L 343.298089 49.963063 
L 343.622743 58.909807 
L 343.947398 85.082449 
L 344.596707 19.296 
L 344.921361 68.238004 
L 345.246016 31.456291 
L 345.570671 76.048408 
L 345.895325 81.84749 
L 346.544634 35.130254 
L 346.869289 56.736782 
L 347.193943 55.014069 
L 347.518598 19.296 
L 347.843252 76.882332 
L 348.167907 94.438066 
L 348.492561 38.32923 
L 348.817216 47.596781 
L 349.141871 32.68195 
L 349.79118 125.499386 
L 350.115834 63.379248 
L 350.765143 39.024495 
L 351.089798 56.240799 
L 351.414452 117.482952 
L 351.739107 98.825781 
L 352.063761 63.22752 
L 352.713071 117.73677 
L 353.037725 120.414242 
L 353.36238 102.751194 
L 353.687034 114.086759 
L 354.011689 53.442188 
L 354.660998 68.196432 
L 354.985652 68.553665 
L 355.310307 107.695343 
L 355.634961 103.174858 
L 355.959616 133.08044 
L 356.93358 32.313217 
L 357.258234 54.497626 
L 357.582889 57.943706 
L 357.907543 76.501229 
L 358.232198 28.810835 
L 358.556852 55.354728 
L 358.881507 34.891734 
L 359.206161 61.94973 
L 359.530816 55.121817 
L 359.855471 66.242048 
L 360.180125 68.034699 
L 360.50478 70.91972 
L 360.829434 57.155 
L 361.154089 28.9476 
L 361.478743 49.542277 
L 361.803398 99.649598 
L 362.128052 43.186926 
L 362.452707 48.063709 
L 362.777361 61.745354 
L 363.102016 85.036992 
L 363.426671 97.633248 
L 363.751325 19.296 
L 364.07598 62.777262 
L 364.400634 44.095764 
L 364.725289 72.493474 
L 365.049943 19.296 
L 365.049943 19.296 
" clip-path="url(#p24baf3a99b)" style="fill: none; stroke: #d1dae9; stroke-width: 1.5; stroke-linecap: square"/>
   </g>
   <g id="line2d_14">
    <path d="M 40.395398 138.265041 
L 40.720052 98.912198 
L 41.044707 39.8371 
L 41.369361 37.479075 
L 42.018671 118.615829 
L 42.343325 58.238231 
L 42.66798 57.929777 
L 42.992634 46.256599 
L 43.317289 19.296 
L 43.641943 43.700666 
L 43.966598 79.346702 
L 44.615907 25.519211 
L 44.940561 29.371201 
L 45.265216 60.145914 
L 45.589871 24.37761 
L 45.914525 25.358399 
L 46.23918 32.252172 
L 46.563834 45.352139 
L 46.888489 65.87764 
L 47.213143 76.311829 
L 47.537798 19.296 
L 47.862452 66.260603 
L 48.187107 38.787258 
L 48.511761 91.027024 
L 48.836416 98.885903 
L 49.161071 31.070166 
L 49.485725 19.296 
L 49.81038 40.474425 
L 50.459689 35.008949 
L 50.784343 33.564379 
L 51.108998 53.10271 
L 51.433652 28.243359 
L 51.758307 23.605797 
L 52.082961 23.955739 
L 52.407616 19.296 
L 52.732271 23.059686 
L 53.056925 54.621377 
L 53.38158 46.904166 
L 53.706234 22.988049 
L 54.680198 98.502869 
L 55.004852 98.123196 
L 55.329507 98.123196 
L 55.654161 104.836815 
L 55.978816 91.620666 
L 56.628125 135.263502 
L 56.95278 52.896275 
L 57.277434 65.461433 
L 57.602089 97.196023 
L 57.926743 102.455417 
L 58.251398 119.985446 
L 58.576052 79.993128 
L 58.900707 104.030314 
L 59.225361 115.722145 
L 59.874671 103.446385 
L 60.199325 70.07739 
L 60.52398 98.932619 
L 60.848634 140.498691 
L 61.173289 165.00161 
L 61.497943 126.555042 
L 61.822598 151.393259 
L 62.147252 105.75035 
L 62.471907 127.267422 
L 62.796561 106.694164 
L 63.121216 109.403669 
L 63.445871 88.063083 
L 63.770525 89.082093 
L 64.09518 122.341056 
L 64.419834 69.996548 
L 64.744489 98.410637 
L 65.393798 74.20429 
L 65.718452 74.255396 
L 66.043107 48.72312 
L 66.367761 54.272628 
L 66.692416 44.977815 
L 67.017071 53.385494 
L 67.341725 83.89521 
L 67.66638 71.676294 
L 67.991034 64.826169 
L 68.315689 50.417006 
L 68.640343 85.58024 
L 68.964998 108.662825 
L 69.614307 34.444604 
L 69.938961 65.187692 
L 70.263616 71.655913 
L 70.588271 59.405547 
L 71.23758 111.400373 
L 71.562234 110.700953 
L 71.886889 62.71696 
L 72.211543 55.251097 
L 72.536198 44.511318 
L 72.860852 82.36857 
L 73.185507 63.018735 
L 73.510161 51.925545 
L 74.159471 82.430544 
L 74.484125 80.602799 
L 74.80878 69.540153 
L 75.133434 76.306527 
L 75.458089 36.010255 
L 75.782743 95.513699 
L 76.107398 45.963008 
L 76.432052 125.450275 
L 76.756707 57.329326 
L 77.081361 39.488368 
L 77.730671 78.137181 
L 78.055325 32.911762 
L 78.37998 72.901092 
L 78.704634 33.060302 
L 79.029289 31.212511 
L 79.353943 19.296 
L 79.678598 26.471213 
L 80.003252 21.504646 
L 80.327907 38.63707 
L 80.652561 42.850063 
L 80.977216 32.02302 
L 81.301871 48.836195 
L 81.626525 35.696087 
L 81.95118 35.099464 
L 82.275834 55.505476 
L 82.600489 61.084678 
L 82.925143 69.488218 
L 83.249798 39.519854 
L 83.574452 33.647703 
L 83.899107 53.152405 
L 84.223761 27.978408 
L 84.548416 51.328033 
L 84.873071 97.374068 
L 85.197725 34.907042 
L 85.52238 62.652523 
L 85.847034 19.296 
L 86.171689 22.647667 
L 86.496343 30.722014 
L 86.820998 19.296 
L 87.145652 19.296 
L 87.794961 57.923231 
L 88.119616 49.513618 
L 88.444271 49.153101 
L 89.09358 43.209295 
L 89.742889 45.368661 
L 90.067543 42.292988 
L 90.392198 31.21267 
L 90.716852 44.344464 
L 91.041507 35.638485 
L 91.366161 49.86167 
L 91.690816 52.299627 
L 92.015471 64.358244 
L 92.340125 63.323392 
L 92.66478 82.026052 
L 92.989434 88.05031 
L 93.314089 53.563371 
L 93.638743 77.309944 
L 93.963398 50.140396 
L 94.288052 91.135475 
L 94.612707 98.403921 
L 94.937361 73.345585 
L 95.586671 55.529582 
L 95.911325 62.53848 
L 96.23598 61.288591 
L 96.560634 71.739196 
L 96.885289 65.030608 
L 97.209943 21.267379 
L 97.534598 19.296 
L 97.859252 59.205301 
L 98.183907 32.610425 
L 98.508561 19.296 
L 98.833216 70.629411 
L 99.482525 26.093984 
L 99.80718 87.016919 
L 100.131834 56.64019 
L 100.456489 60.385349 
L 100.781143 41.470558 
L 101.105798 76.437878 
L 101.430452 68.838076 
L 101.755107 40.402691 
L 102.079761 50.933855 
L 102.404416 118.558781 
L 102.729071 39.253306 
L 103.053725 19.296 
L 103.37838 35.616932 
L 103.703034 19.296 
L 104.027689 83.345403 
L 104.352343 96.933824 
L 104.676998 86.879877 
L 105.001652 84.810296 
L 105.326307 78.024518 
L 105.650961 63.756265 
L 105.975616 66.526708 
L 106.300271 102.838111 
L 106.624925 67.759707 
L 106.94958 67.626134 
L 107.274234 69.131256 
L 107.598889 42.793715 
L 107.923543 37.581359 
L 108.248198 40.324062 
L 108.572852 39.167991 
L 108.897507 26.81402 
L 109.222161 47.08662 
L 109.546816 52.94639 
L 109.871471 50.275744 
L 110.196125 36.893478 
L 110.52078 48.895641 
L 110.845434 49.432909 
L 111.170089 36.796392 
L 111.494743 42.629425 
L 111.819398 37.893048 
L 112.144052 34.955183 
L 112.468707 24.064604 
L 112.793361 41.146269 
L 113.118016 39.277007 
L 113.442671 47.764032 
L 113.767325 43.587656 
L 114.09198 104.519934 
L 114.416634 42.43596 
L 114.741289 38.098809 
L 115.065943 35.523683 
L 115.390598 40.918396 
L 116.039907 94.269987 
L 116.364561 45.309156 
L 116.689216 48.787869 
L 117.013871 53.801142 
L 117.338525 87.570704 
L 117.66318 78.65843 
L 117.987834 53.0808 
L 118.312489 74.599816 
L 118.637143 51.452447 
L 118.961798 48.06839 
L 119.286452 87.028313 
L 119.611107 72.932555 
L 119.935761 72.014637 
L 120.260416 58.578488 
L 120.585071 53.757328 
L 120.909725 50.984888 
L 121.23438 21.827266 
L 121.559034 35.991827 
L 121.883689 108.378868 
L 122.208343 133.188511 
L 122.857652 96.921313 
L 123.182307 53.058046 
L 123.506961 57.592736 
L 124.156271 103.575696 
L 124.480925 144.123772 
L 124.80558 65.299147 
L 125.130234 102.228699 
L 125.454889 109.376662 
L 126.104198 28.529683 
L 126.428852 94.960998 
L 127.078161 56.476218 
L 127.402816 49.58199 
L 127.727471 39.423292 
L 128.052125 55.954145 
L 128.37678 86.395243 
L 128.701434 41.547176 
L 129.350743 65.016119 
L 129.675398 46.514821 
L 130.000052 19.296 
L 130.324707 49.050038 
L 130.649361 48.761129 
L 130.974016 96.785742 
L 131.298671 50.097491 
L 131.623325 54.071838 
L 131.94798 64.552405 
L 132.272634 45.073427 
L 132.597289 48.745459 
L 132.921943 61.628082 
L 133.246598 60.517691 
L 133.571252 46.108354 
L 133.895907 100.108531 
L 134.220561 65.158124 
L 134.545216 124.736715 
L 134.869871 55.832 
L 135.194525 52.018923 
L 135.51918 64.687928 
L 135.843834 90.907429 
L 136.168489 76.590684 
L 136.493143 53.067009 
L 136.817798 61.217087 
L 137.142452 47.22998 
L 137.467107 74.721549 
L 137.791761 43.673099 
L 138.116416 56.003727 
L 138.441071 89.304844 
L 138.765725 81.923278 
L 139.09038 50.219595 
L 139.415034 53.541494 
L 139.739689 48.901738 
L 140.064343 77.438855 
L 140.713652 19.296 
L 141.038307 36.921986 
L 141.362961 34.985098 
L 141.687616 42.773759 
L 142.012271 37.100138 
L 142.336925 71.095263 
L 142.66158 42.839729 
L 142.986234 86.4225 
L 143.310889 29.418583 
L 143.635543 83.644788 
L 143.960198 65.293783 
L 144.284852 56.198412 
L 144.934161 100.830584 
L 145.258816 81.992536 
L 145.583471 124.274636 
L 145.908125 88.446241 
L 146.557434 155.588637 
L 146.882089 98.641337 
L 147.206743 144.325371 
L 147.531398 132.152089 
L 147.856052 92.179941 
L 148.180707 123.301882 
L 148.505361 136.358072 
L 149.154671 43.839219 
L 149.479325 114.176599 
L 149.80398 57.93522 
L 150.128634 28.531346 
L 150.453289 40.527564 
L 151.102598 19.296 
L 151.427252 22.055778 
L 151.751907 19.860324 
L 152.076561 39.706631 
L 152.401216 70.150324 
L 152.725871 70.125424 
L 153.050525 76.398586 
L 153.37518 77.762913 
L 153.699834 111.576741 
L 154.024489 116.61875 
L 154.349143 82.606806 
L 154.673798 134.90314 
L 154.998452 90.33901 
L 155.323107 79.980903 
L 155.647761 45.858803 
L 155.972416 100.853576 
L 156.297071 87.686337 
L 156.621725 29.071384 
L 156.94638 83.702225 
L 157.271034 55.89559 
L 157.595689 44.318371 
L 157.920343 116.779298 
L 158.244998 128.483034 
L 158.569652 85.000315 
L 158.894307 61.275424 
L 159.218961 120.305391 
L 159.543616 111.964857 
L 159.868271 174.193038 
L 160.192925 107.457899 
L 160.51758 95.892776 
L 160.842234 63.424136 
L 161.491543 93.78993 
L 161.816198 92.360536 
L 162.140852 92.246157 
L 162.465507 93.089911 
L 162.790161 109.717053 
L 163.114816 103.16791 
L 163.439471 114.656075 
L 163.764125 93.149632 
L 164.08878 82.425457 
L 164.413434 40.770497 
L 164.738089 29.329911 
L 165.062743 34.244197 
L 165.387398 22.823204 
L 165.712052 19.296 
L 166.361361 21.164857 
L 166.686016 24.689805 
L 167.010671 26.607784 
L 167.335325 19.774166 
L 167.65998 70.095074 
L 168.309289 26.130122 
L 168.633943 23.037646 
L 168.958598 21.686563 
L 169.283252 24.257075 
L 169.607907 29.286447 
L 169.932561 27.638812 
L 170.257216 27.415125 
L 170.581871 37.889882 
L 170.906525 32.464506 
L 171.23118 48.96864 
L 171.555834 52.821035 
L 171.880489 36.545573 
L 172.205143 35.73412 
L 172.529798 37.68072 
L 172.854452 38.659733 
L 173.179107 61.4202 
L 173.503761 61.401382 
L 173.828416 39.839664 
L 174.153071 29.987458 
L 174.477725 63.417624 
L 174.80238 40.081945 
L 175.451689 60.851132 
L 175.776343 44.30785 
L 176.100998 43.411887 
L 176.750307 64.921328 
L 177.074961 115.803344 
L 177.724271 74.105753 
L 178.048925 60.631899 
L 178.698234 20.840976 
L 179.022889 27.680137 
L 179.347543 39.693934 
L 179.672198 19.296 
L 179.996852 23.296292 
L 180.321507 21.214614 
L 180.646161 51.121541 
L 180.970816 46.290089 
L 181.295471 49.002452 
L 181.620125 39.542726 
L 181.94478 52.244705 
L 182.269434 80.793873 
L 182.594089 49.297929 
L 182.918743 68.048132 
L 183.243398 47.476863 
L 183.568052 83.025167 
L 183.892707 42.621597 
L 184.217361 42.504954 
L 184.542016 61.639635 
L 184.866671 42.854816 
L 185.191325 42.051569 
L 185.51598 37.409493 
L 185.840634 81.358264 
L 186.165289 102.201943 
L 186.489943 93.959748 
L 186.814598 101.028951 
L 187.139252 62.238222 
L 187.463907 58.176353 
L 187.788561 60.697149 
L 188.113216 59.734213 
L 188.762525 67.731172 
L 189.08718 83.42814 
L 189.411834 42.54073 
L 189.736489 102.185897 
L 190.061143 92.635886 
L 190.385798 107.28956 
L 190.710452 148.201147 
L 191.035107 151.451795 
L 191.359761 143.19965 
L 191.684416 66.453062 
L 192.009071 92.690472 
L 192.333725 48.780378 
L 192.65838 61.759256 
L 192.983034 120.179994 
L 193.307689 90.61676 
L 193.632343 149.643232 
L 193.956998 112.749929 
L 194.281652 61.108147 
L 194.606307 99.642332 
L 194.930961 99.968496 
L 195.904925 43.333074 
L 196.22958 114.436595 
L 196.554234 113.737839 
L 196.878889 58.20848 
L 197.203543 77.438485 
L 197.528198 77.201118 
L 197.852852 77.537642 
L 198.177507 61.66512 
L 198.502161 19.296 
L 198.826816 19.296 
L 199.151471 32.773999 
L 199.476125 70.765512 
L 199.80078 63.295754 
L 200.125434 42.68855 
L 200.450089 108.592004 
L 200.774743 149.533609 
L 201.099398 83.446692 
L 201.748707 103.700651 
L 202.073361 107.898798 
L 202.398016 118.156427 
L 202.722671 75.668678 
L 203.047325 64.133737 
L 203.37198 66.279582 
L 203.696634 60.177438 
L 204.021289 58.228211 
L 204.345943 49.678356 
L 204.670598 85.952643 
L 204.995252 77.776878 
L 205.319907 19.296 
L 205.969216 48.085623 
L 206.293871 45.540432 
L 206.618525 42.061798 
L 206.94318 33.178514 
L 207.267834 32.433284 
L 207.592489 40.5513 
L 207.917143 51.661068 
L 208.241798 51.746887 
L 208.566452 24.833034 
L 208.891107 74.608374 
L 209.215761 45.720443 
L 209.865071 29.760056 
L 210.189725 49.838682 
L 210.51438 48.579739 
L 210.839034 86.260975 
L 211.163689 53.061665 
L 211.488343 53.327991 
L 211.812998 82.745737 
L 212.137652 79.669584 
L 212.462307 56.688928 
L 212.786961 90.091033 
L 213.111616 50.356368 
L 213.436271 39.216335 
L 213.760925 61.932678 
L 214.08558 67.851965 
L 214.410234 58.340916 
L 214.734889 52.610661 
L 215.059543 56.222443 
L 215.384198 37.30508 
L 215.708852 48.720881 
L 216.033507 71.612643 
L 216.358161 29.306271 
L 216.682816 65.434215 
L 217.007471 60.332375 
L 217.332125 49.25385 
L 217.65678 47.499048 
L 217.981434 22.6104 
L 218.306089 28.777415 
L 218.955398 36.053623 
L 219.280052 80.32146 
L 219.604707 51.179125 
L 219.929361 54.393504 
L 220.254016 139.758277 
L 220.578671 83.022939 
L 220.903325 78.701106 
L 221.22798 119.62364 
L 221.552634 49.394829 
L 221.877289 26.148149 
L 222.201943 21.17149 
L 222.526598 59.456015 
L 222.851252 43.846473 
L 223.175907 19.407883 
L 223.500561 29.866893 
L 223.825216 32.923132 
L 224.149871 28.605874 
L 224.474525 38.54218 
L 224.79918 31.384108 
L 225.123834 59.567572 
L 225.448489 37.713876 
L 225.773143 68.483074 
L 226.097798 19.296 
L 226.422452 32.654392 
L 226.747107 22.77322 
L 227.071761 19.296 
L 227.396416 22.865929 
L 227.721071 22.882526 
L 228.045725 23.589312 
L 228.37038 43.955364 
L 228.695034 29.573482 
L 229.019689 26.919048 
L 229.344343 47.346095 
L 229.668998 26.942068 
L 229.993652 60.269144 
L 230.318307 73.926377 
L 230.967616 29.843514 
L 231.292271 55.134132 
L 231.94158 91.872708 
L 232.266234 84.479918 
L 232.590889 92.140485 
L 232.915543 33.983587 
L 233.240198 40.773922 
L 233.564852 52.434911 
L 233.889507 54.23034 
L 234.214161 26.897412 
L 234.538816 30.68145 
L 234.863471 21.275975 
L 235.188125 25.942593 
L 235.51278 21.656458 
L 235.837434 45.142776 
L 236.486743 26.100246 
L 236.811398 33.259297 
L 237.460707 71.017157 
L 237.785361 102.204408 
L 238.110016 35.954108 
L 238.434671 37.010047 
L 238.759325 36.651894 
L 239.08398 33.93896 
L 239.408634 23.888519 
L 239.733289 37.471182 
L 240.057943 32.645155 
L 240.382598 20.546968 
L 240.707252 29.036216 
L 241.031907 32.975632 
L 241.356561 39.216118 
L 241.681216 63.522334 
L 242.005871 140.416967 
L 242.330525 25.156088 
L 242.65518 25.469538 
L 243.304489 92.555809 
L 243.629143 82.048478 
L 243.953798 41.634878 
L 244.278452 43.330629 
L 244.603107 113.788513 
L 245.577071 36.384431 
L 245.901725 48.787976 
L 246.22638 95.532572 
L 246.551034 108.564822 
L 246.875689 45.9005 
L 247.200343 106.421596 
L 247.524998 117.502441 
L 247.849652 88.093254 
L 248.174307 37.928364 
L 248.498961 63.569027 
L 248.823616 42.735399 
L 249.148271 42.294029 
L 249.472925 36.093994 
L 249.79758 52.317788 
L 250.122234 51.690098 
L 250.446889 91.049492 
L 250.771543 91.67394 
L 251.096198 29.880718 
L 251.420852 62.496481 
L 251.745507 62.032878 
L 252.070161 71.689513 
L 252.394816 53.457358 
L 252.719471 52.305217 
L 253.044125 52.327482 
L 253.36878 55.767282 
L 253.693434 54.874725 
L 254.018089 35.064185 
L 254.667398 42.478524 
L 254.992052 21.80895 
L 255.316707 19.296 
L 255.641361 19.296 
L 255.966016 58.410175 
L 256.290671 42.881249 
L 256.615325 41.807542 
L 256.93998 19.296 
L 257.264634 19.296 
L 257.589289 89.397064 
L 257.913943 54.299064 
L 258.238598 45.828482 
L 258.563252 68.883323 
L 258.887907 71.352522 
L 259.861871 19.296 
L 260.186525 39.024506 
L 260.51118 48.986661 
L 260.835834 42.612188 
L 261.160489 19.296 
L 261.485143 19.296 
L 261.809798 43.136551 
L 262.134452 24.419757 
L 262.459107 25.495453 
L 263.108416 19.296 
L 263.433071 26.63612 
L 263.757725 68.378836 
L 264.08238 61.91842 
L 264.407034 41.670383 
L 264.731689 37.924515 
L 265.705652 77.918121 
L 266.030307 68.450699 
L 266.354961 44.225548 
L 266.679616 50.566721 
L 267.004271 40.839264 
L 267.328925 140.912672 
L 267.65358 145.79441 
L 267.978234 54.239672 
L 268.627543 96.324379 
L 268.952198 58.034078 
L 269.601507 19.296 
L 269.926161 37.460938 
L 270.250816 31.333355 
L 270.575471 19.296 
L 271.22478 19.296 
L 271.549434 54.118652 
L 271.874089 42.897777 
L 272.198743 72.882371 
L 272.523398 51.145125 
L 272.848052 65.448881 
L 273.172707 87.468027 
L 273.497361 67.3633 
L 273.822016 55.028985 
L 274.146671 94.950561 
L 274.471325 90.8257 
L 274.79598 117.186623 
L 275.120634 98.201553 
L 275.445289 145.717606 
L 275.769943 129.737833 
L 276.094598 128.558228 
L 276.419252 121.153902 
L 276.743907 118.96297 
L 277.068561 89.316934 
L 277.393216 41.093141 
L 277.717871 65.566392 
L 278.042525 101.975601 
L 278.36718 113.456544 
L 278.691834 34.304896 
L 279.016489 60.796677 
L 279.341143 54.560602 
L 279.665798 54.473133 
L 279.990452 40.518948 
L 280.315107 102.438059 
L 280.639761 51.844256 
L 280.964416 70.111337 
L 281.289071 41.949803 
L 281.613725 38.200532 
L 281.93838 42.866105 
L 282.263034 91.532598 
L 282.587689 30.690234 
L 282.912343 48.681363 
L 283.236998 31.687324 
L 283.561652 43.92205 
L 283.886307 33.551047 
L 284.210961 41.295776 
L 284.535616 19.296 
L 284.860271 91.1847 
L 285.184925 45.986542 
L 285.50958 45.384083 
L 285.834234 79.536668 
L 286.158889 34.074504 
L 286.483543 30.81517 
L 286.808198 51.772824 
L 287.132852 62.116312 
L 287.457507 19.296 
L 287.782161 45.422796 
L 288.106816 89.690308 
L 288.431471 46.998688 
L 288.756125 67.66464 
L 289.08078 32.285255 
L 289.405434 25.415926 
L 289.730089 43.505694 
L 290.054743 69.832686 
L 290.379398 36.253629 
L 290.704052 35.030968 
L 291.028707 23.71778 
L 291.353361 60.390941 
L 291.678016 36.099804 
L 292.002671 66.794733 
L 292.327325 86.502125 
L 292.65198 88.468265 
L 292.976634 87.745387 
L 293.301289 42.180066 
L 293.625943 50.192447 
L 293.950598 39.022704 
L 294.275252 97.920154 
L 294.599907 36.205779 
L 294.924561 99.183852 
L 295.249216 104.437398 
L 295.573871 68.143382 
L 295.898525 104.333338 
L 296.547834 127.218709 
L 296.872489 94.866286 
L 297.197143 79.069396 
L 298.171107 114.90834 
L 298.495761 105.445086 
L 298.820416 104.575577 
L 299.145071 59.766235 
L 299.469725 156.456866 
L 299.79438 57.618884 
L 300.119034 49.212724 
L 300.443689 58.836238 
L 300.768343 48.958404 
L 301.092998 19.296 
L 301.417652 53.493215 
L 301.742307 37.461466 
L 302.066961 94.200742 
L 302.391616 65.038553 
L 302.716271 19.296 
L 303.040925 72.589188 
L 303.36558 89.385053 
L 304.014889 22.948597 
L 304.339543 53.259473 
L 304.664198 19.296 
L 304.988852 81.009395 
L 305.313507 47.366406 
L 305.638161 86.69021 
L 305.962816 58.164811 
L 306.287471 103.878443 
L 306.612125 96.712494 
L 306.93678 77.883315 
L 307.261434 80.569857 
L 307.586089 106.826 
L 307.910743 91.551616 
L 308.235398 147.546508 
L 308.884707 100.582541 
L 309.209361 138.004193 
L 309.534016 88.941099 
L 309.858671 65.276712 
L 310.183325 69.729552 
L 310.50798 104.74463 
L 310.832634 78.288217 
L 311.157289 111.848902 
L 311.481943 47.089584 
L 311.806598 31.769913 
L 312.131252 29.366801 
L 312.455907 41.48717 
L 312.780561 44.748929 
L 313.105216 132.226155 
L 313.429871 135.095232 
L 313.754525 146.54983 
L 314.07918 117.503833 
L 314.403834 68.216109 
L 314.728489 106.226083 
L 315.377798 31.384554 
L 315.702452 83.891827 
L 316.027107 111.39985 
L 316.351761 108.023445 
L 316.676416 101.042494 
L 317.001071 115.390445 
L 317.325725 81.002268 
L 317.65038 30.043474 
L 318.299689 50.693192 
L 318.624343 53.79529 
L 318.948998 99.619419 
L 319.273652 102.336895 
L 319.598307 103.014222 
L 319.922961 86.05997 
L 320.247616 94.250662 
L 320.572271 74.227188 
L 320.896925 82.237955 
L 321.22158 123.674732 
L 321.546234 71.926674 
L 321.870889 99.094518 
L 322.195543 89.96824 
L 322.520198 125.188438 
L 322.844852 121.630892 
L 323.494161 85.037444 
L 323.818816 118.872564 
L 324.143471 59.581824 
L 324.468125 79.620504 
L 324.79278 83.985763 
L 325.117434 106.700178 
L 325.442089 81.101801 
L 325.766743 66.847108 
L 326.416052 23.088601 
L 326.740707 28.398386 
L 327.065361 19.296 
L 327.390016 57.165819 
L 327.714671 121.13122 
L 328.039325 121.396139 
L 328.36398 96.550597 
L 329.013289 73.980554 
L 329.337943 98.062756 
L 329.662598 83.250453 
L 329.987252 88.854671 
L 330.311907 35.425926 
L 330.636561 48.404852 
L 330.961216 29.06242 
L 331.285871 24.317615 
L 331.610525 27.274217 
L 331.93518 54.835987 
L 332.259834 36.454416 
L 332.584489 32.650074 
L 332.909143 89.26359 
L 333.233798 67.212162 
L 333.558452 88.89866 
L 333.883107 50.397866 
L 334.207761 81.603083 
L 334.532416 92.804088 
L 334.857071 82.782657 
L 335.181725 57.31401 
L 335.50638 92.000984 
L 335.831034 95.764377 
L 336.155689 127.594998 
L 336.804998 61.665071 
L 337.129652 77.617969 
L 337.454307 127.846894 
L 337.778961 110.586708 
L 338.103616 112.227442 
L 338.428271 64.349822 
L 338.752925 104.794837 
L 339.07758 50.400878 
L 339.402234 62.622807 
L 339.726889 90.709644 
L 340.051543 53.56126 
L 340.376198 52.92698 
L 340.700852 96.746812 
L 341.025507 63.78369 
L 341.350161 52.412434 
L 341.674816 49.850519 
L 341.999471 49.004041 
L 342.324125 86.998149 
L 342.64878 45.747157 
L 342.973434 42.851008 
L 343.622743 60.309089 
L 344.272052 50.412679 
L 344.921361 91.647794 
L 345.246016 46.233117 
L 345.570671 45.501674 
L 346.21998 91.311714 
L 346.544634 42.86149 
L 346.869289 44.433558 
L 347.193943 41.82879 
L 347.518598 50.989081 
L 347.843252 98.554207 
L 348.167907 49.515487 
L 348.492561 96.399311 
L 348.817216 81.481629 
L 349.141871 25.367958 
L 349.466525 52.941961 
L 349.79118 52.70463 
L 350.115834 63.705372 
L 350.440489 59.479945 
L 350.765143 46.182548 
L 351.089798 48.605478 
L 351.414452 60.709824 
L 351.739107 77.245439 
L 352.063761 49.039617 
L 352.388416 42.892562 
L 352.713071 39.876119 
L 353.36238 30.02055 
L 353.687034 22.532095 
L 354.011689 36.648 
L 354.336343 39.894831 
L 354.660998 37.391723 
L 354.985652 71.749785 
L 355.310307 77.435562 
L 355.634961 100.007102 
L 355.959616 79.830169 
L 356.284271 45.339222 
L 356.608925 44.820596 
L 356.93358 46.113792 
L 357.258234 81.639552 
L 357.582889 54.494961 
L 358.232198 79.435966 
L 358.556852 142.163489 
L 358.881507 101.942057 
L 359.206161 101.343247 
L 359.530816 86.459371 
L 359.855471 109.997965 
L 360.180125 74.681735 
L 360.50478 76.572685 
L 360.829434 140.596348 
L 361.154089 100.050601 
L 361.478743 121.189426 
L 361.803398 49.596565 
L 362.128052 41.654199 
L 362.452707 43.145965 
L 362.777361 78.907605 
L 363.102016 31.502543 
L 363.426671 44.078841 
L 363.751325 51.58877 
L 364.07598 23.39769 
L 364.400634 49.631821 
L 364.725289 46.101352 
L 365.049943 45.517631 
L 365.049943 45.517631 
" clip-path="url(#p24baf3a99b)" style="fill: none; stroke: #3a4cc0; stroke-width: 1.5; stroke-linecap: square"/>
   </g>
   <g id="patch_3">
    <path d="M 24.162671 273.312 
L 24.162671 7.2 
" style="fill: none; stroke: #000000; stroke-width: 0.8; stroke-linejoin: miter; stroke-linecap: square"/>
   </g>
   <g id="patch_4">
    <path d="M 381.282671 273.312 
L 381.282671 7.2 
" style="fill: none; stroke: #000000; stroke-width: 0.8; stroke-linejoin: miter; stroke-linecap: square"/>
   </g>
   <g id="patch_5">
    <path d="M 24.162671 273.312 
L 381.282671 273.312 
" style="fill: none; stroke: #000000; stroke-width: 0.8; stroke-linejoin: miter; stroke-linecap: square"/>
   </g>
   <g id="patch_6">
    <path d="M 24.162671 7.2 
L 381.282671 7.2 
" style="fill: none; stroke: #000000; stroke-width: 0.8; stroke-linejoin: miter; stroke-linecap: square"/>
   </g>
   <g id="legend_1">
    <g id="patch_7">
     <path d="M 31.162671 268.312 
L 108.271421 268.312 
Q 110.271421 268.312 110.271421 266.312 
L 110.271421 225.500465 
Q 110.271421 223.500465 108.271421 223.500465 
L 31.162671 223.500465 
Q 29.162671 223.500465 29.162671 225.500465 
L 29.162671 266.312 
Q 29.162671 268.312 31.162671 268.312 
z
" style="fill: #ffffff; opacity: 0.8; stroke: #cccccc; stroke-linejoin: miter"/>
    </g>
    <g id="line2d_15">
     <path d="M 33.162671 231.000465 
L 43.162671 231.000465 
L 53.162671 231.000465 
" style="fill: none; stroke: #e46e56; stroke-width: 1.5; stroke-linecap: square"/>
    </g>
    <g id="text_12">
     <!-- CBO -->
     <g transform="translate(61.162671 234.500465) scale(0.1 -0.1)">
      <defs>
       <path id="CMSS17-43" d="M 3501 714 
C 3072 427 2874 344 2355 344 
C 1459 344 934 1303 934 2179 
C 934 3112 1472 4032 2381 4032 
C 2790 4032 3059 3918 3386 3715 
L 3475 4217 
C 3168 4370 2778 4440 2387 4440 
C 1158 4440 397 3316 397 2179 
C 397 927 1299 -64 2323 -64 
C 2874 -64 3066 -19 3539 280 
L 3501 714 
z
" transform="scale(0.015625)"/>
       <path id="CMSS17-42" d="M 570 4416 
L 570 0 
L 2163 0 
C 3034 0 3667 574 3667 1200 
C 3667 1685 3251 2176 2502 2317 
C 3334 2558 3501 3040 3501 3313 
C 3501 3883 2874 4416 1997 4416 
L 570 4416 
z
M 1088 2496 
L 1088 4059 
L 1824 4059 
C 2483 4059 3002 3724 3002 3306 
C 3002 2926 2592 2496 1766 2496 
L 1088 2496 
z
M 1088 357 
L 1088 2107 
L 1939 2107 
C 2630 2107 3162 1679 3162 1206 
C 3162 772 2694 357 1984 357 
L 1088 357 
z
" transform="scale(0.015625)"/>
       <path id="CMSS17-4f" d="M 4096 2178 
C 4096 3503 3219 4497 2214 4497 
C 1210 4497 333 3497 333 2178 
C 333 847 1222 -128 2214 -128 
C 3206 -128 4096 847 4096 2178 
z
M 2214 273 
C 1510 273 870 1057 870 2261 
C 870 3433 1549 4096 2214 4096 
C 2880 4096 3558 3433 3558 2261 
C 3558 1051 2912 273 2214 273 
z
" transform="scale(0.015625)"/>
      </defs>
      <use xlink:href="#CMSS17-43" transform="scale(0.996264)"/>
      <use xlink:href="#CMSS17-42" transform="translate(59.855772 0) scale(0.996264)"/>
      <use xlink:href="#CMSS17-4f" transform="translate(122.193812 0) scale(0.996264)"/>
     </g>
    </g>
    <g id="line2d_16">
     <path d="M 33.162671 244.937643 
L 43.162671 244.937643 
L 53.162671 244.937643 
" style="fill: none; stroke: #d1dae9; stroke-width: 1.5; stroke-linecap: square"/>
    </g>
    <g id="text_13">
     <!-- SMD-CBO -->
     <g transform="translate(61.162671 248.437643) scale(0.1 -0.1)">
      <defs>
       <path id="CMSS17-53" d="M 2797 4169 
C 2515 4334 2208 4480 1690 4480 
C 864 4480 333 3879 333 3266 
C 333 3025 403 2753 653 2475 
C 902 2196 1184 2121 1542 2033 
C 1690 1994 1939 1924 1984 1906 
C 2342 1767 2515 1444 2515 1140 
C 2515 742 2202 318 1645 318 
C 1453 318 890 318 358 819 
L 269 318 
C 794 -64 1363 -128 1651 -128 
C 2438 -128 3002 488 3002 1186 
C 3002 1440 2925 1763 2656 2061 
C 2394 2347 2163 2410 1638 2549 
C 1338 2626 1146 2677 986 2873 
C 877 3013 819 3146 819 3317 
C 819 3673 1126 4060 1690 4060 
C 1971 4060 2336 4002 2707 3660 
L 2797 4169 
z
" transform="scale(0.015625)"/>
       <path id="CMSS17-4d" d="M 3194 2371 
L 2886 1473 
C 2835 1307 2662 791 2624 587 
L 2618 587 
C 2598 715 2560 849 2458 1174 
C 2400 1365 2336 1562 2272 1741 
L 1325 4416 
L 576 4416 
L 576 0 
L 1075 0 
L 1075 3900 
L 1082 3900 
C 1082 3894 1139 3613 1530 2499 
L 2374 96 
L 2848 96 
L 3610 2231 
C 3661 2378 3821 2843 3891 3066 
C 3955 3257 4115 3728 4154 3913 
L 4160 3913 
L 4160 0 
L 4666 0 
L 4666 4416 
L 3923 4416 
L 3194 2371 
z
" transform="scale(0.015625)"/>
       <path id="CMSS17-44" d="M 570 4416 
L 570 0 
L 2144 0 
C 3194 0 4000 980 4000 2170 
C 4000 3398 3194 4416 2144 4416 
L 570 4416 
z
M 1094 357 
L 1094 4059 
L 2003 4059 
C 2861 4059 3475 3277 3475 2170 
C 3475 1107 2867 357 2003 357 
L 1094 357 
z
" transform="scale(0.015625)"/>
       <path id="CMSS17-2d" d="M 1664 1216 
L 1664 1585 
L 64 1585 
L 64 1216 
L 1664 1216 
z
" transform="scale(0.015625)"/>
      </defs>
      <use xlink:href="#CMSS17-53" transform="scale(0.996264)"/>
      <use xlink:href="#CMSS17-4d" transform="translate(52.048516 0) scale(0.996264)"/>
      <use xlink:href="#CMSS17-44" transform="translate(133.724546 0) scale(0.996264)"/>
      <use xlink:href="#CMSS17-2d" transform="translate(201.267388 0) scale(0.996264)"/>
      <use xlink:href="#CMSS17-43" transform="translate(232.496501 0) scale(0.996264)"/>
      <use xlink:href="#CMSS17-42" transform="translate(292.352272 0) scale(0.996264)"/>
      <use xlink:href="#CMSS17-4f" transform="translate(354.690312 0) scale(0.996264)"/>
     </g>
    </g>
    <g id="line2d_17">
     <path d="M 33.162671 258.874822 
L 43.162671 258.874822 
L 53.162671 258.874822 
" style="fill: none; stroke: #3a4cc0; stroke-width: 1.5; stroke-linecap: square"/>
    </g>
    <g id="text_14">
     <!-- GCN-CBO -->
     <g transform="translate(61.162671 262.374822) scale(0.1 -0.1)">
      <defs>
       <path id="CMSS17-47" d="M 3610 1856 
L 2336 1856 
L 2336 1461 
L 3123 1461 
L 3123 471 
C 2874 401 2618 350 2362 350 
C 1466 350 934 1301 934 2200 
C 934 3095 1491 4032 2362 4032 
C 2854 4032 3130 3881 3469 3627 
L 3552 4134 
C 3130 4351 2867 4440 2387 4440 
C 1146 4440 397 3324 397 2182 
C 397 1090 1152 -64 2349 -64 
C 2797 -64 3213 51 3610 248 
L 3610 1856 
z
" transform="scale(0.015625)"/>
       <path id="CMSS17-4e" d="M 1466 4180 
L 1350 4416 
L 563 4416 
L 563 0 
L 1062 0 
L 1062 3926 
L 1069 3932 
C 1114 3817 1139 3760 1402 3194 
L 2771 236 
L 2886 0 
L 3674 0 
L 3674 4416 
L 3174 4416 
L 3174 490 
L 3168 483 
C 3123 598 3098 655 2835 1221 
L 1466 4180 
z
" transform="scale(0.015625)"/>
      </defs>
      <use xlink:href="#CMSS17-47" transform="scale(0.996264)"/>
      <use xlink:href="#CMSS17-43" transform="translate(62.458226 0) scale(0.996264)"/>
      <use xlink:href="#CMSS17-4e" transform="translate(122.313997 0) scale(0.996264)"/>
      <use xlink:href="#CMSS17-2d" transform="translate(188.375516 0) scale(0.996264)"/>
      <use xlink:href="#CMSS17-43" transform="translate(219.604629 0) scale(0.996264)"/>
      <use xlink:href="#CMSS17-42" transform="translate(279.460401 0) scale(0.996264)"/>
      <use xlink:href="#CMSS17-4f" transform="translate(341.798441 0) scale(0.996264)"/>
     </g>
    </g>
   </g>
  </g>
 </g>
 <defs>
  <clipPath id="p24baf3a99b">
   <rect x="24.162671" y="7.2" width="357.12" height="266.112"/>
  </clipPath>
 </defs>
</svg>
